%TF.GenerationSoftware,KiCad,Pcbnew,9.0.3*%
%TF.CreationDate,2025-08-16T00:15:59+02:00*%
%TF.ProjectId,fw-anwesenheit,66772d61-6e77-4657-9365-6e686569742e,rev?*%
%TF.SameCoordinates,Original*%
%TF.FileFunction,Drillmap*%
%TF.FilePolarity,Positive*%
%FSLAX45Y45*%
G04 Gerber Fmt 4.5, Leading zero omitted, Abs format (unit mm)*
G04 Created by KiCad (PCBNEW 9.0.3) date 2025-08-16 00:15:59*
%MOMM*%
%LPD*%
G01*
G04 APERTURE LIST*
%ADD10C,0.050000*%
%ADD11C,1.025000*%
%ADD12C,0.010000*%
%ADD13C,0.200000*%
%ADD14C,0.100000*%
G04 APERTURE END LIST*
D10*
X8100000Y-7950000D02*
X13100000Y-7950000D01*
X13100000Y-12950000D01*
X8100000Y-12950000D01*
X8100000Y-7950000D01*
D11*
X8551250Y-12350000D02*
G75*
G02*
X8448750Y-12350000I-51250J0D01*
G01*
X8448750Y-12350000D02*
G75*
G02*
X8551250Y-12350000I51250J0D01*
G01*
X8551250Y-8500000D02*
G75*
G02*
X8448750Y-8500000I-51250J0D01*
G01*
X8448750Y-8500000D02*
G75*
G02*
X8551250Y-8500000I51250J0D01*
G01*
X12751250Y-12350000D02*
G75*
G02*
X12648750Y-12350000I-51250J0D01*
G01*
X12648750Y-12350000D02*
G75*
G02*
X12751250Y-12350000I51250J0D01*
G01*
X10951250Y-8500000D02*
G75*
G02*
X10848750Y-8500000I-51250J0D01*
G01*
X10848750Y-8500000D02*
G75*
G02*
X10951250Y-8500000I51250J0D01*
G01*
D12*
X11740000Y-8310000D02*
X11810000Y-8310000D01*
X11810000Y-8410000D02*
X11740000Y-8410000D01*
X11690000Y-8360000D02*
G75*
G02*
X11740000Y-8310000I50000J0D01*
G01*
X11740000Y-8410000D02*
G75*
G02*
X11690000Y-8360000I0J50000D01*
G01*
X11810000Y-8310000D02*
G75*
G02*
X11860000Y-8360000I0J-50000D01*
G01*
X11860000Y-8360000D02*
G75*
G02*
X11810000Y-8410000I-50000J0D01*
G01*
D13*
D14*
X11725000Y-8310000D02*
X11825000Y-8410000D01*
X11825000Y-8310000D02*
X11725000Y-8410000D01*
X12525000Y-8310000D02*
X12625000Y-8410000D01*
X12625000Y-8310000D02*
X12525000Y-8410000D01*
D13*
X8358277Y-13263984D02*
X8358277Y-13063984D01*
X8358277Y-13063984D02*
X8405896Y-13063984D01*
X8405896Y-13063984D02*
X8434467Y-13073508D01*
X8434467Y-13073508D02*
X8453515Y-13092555D01*
X8453515Y-13092555D02*
X8463039Y-13111603D01*
X8463039Y-13111603D02*
X8472563Y-13149698D01*
X8472563Y-13149698D02*
X8472563Y-13178269D01*
X8472563Y-13178269D02*
X8463039Y-13216365D01*
X8463039Y-13216365D02*
X8453515Y-13235412D01*
X8453515Y-13235412D02*
X8434467Y-13254460D01*
X8434467Y-13254460D02*
X8405896Y-13263984D01*
X8405896Y-13263984D02*
X8358277Y-13263984D01*
X8558277Y-13263984D02*
X8558277Y-13130650D01*
X8558277Y-13168746D02*
X8567801Y-13149698D01*
X8567801Y-13149698D02*
X8577324Y-13140174D01*
X8577324Y-13140174D02*
X8596372Y-13130650D01*
X8596372Y-13130650D02*
X8615420Y-13130650D01*
X8682086Y-13263984D02*
X8682086Y-13130650D01*
X8682086Y-13063984D02*
X8672563Y-13073508D01*
X8672563Y-13073508D02*
X8682086Y-13083031D01*
X8682086Y-13083031D02*
X8691610Y-13073508D01*
X8691610Y-13073508D02*
X8682086Y-13063984D01*
X8682086Y-13063984D02*
X8682086Y-13083031D01*
X8805896Y-13263984D02*
X8786848Y-13254460D01*
X8786848Y-13254460D02*
X8777324Y-13235412D01*
X8777324Y-13235412D02*
X8777324Y-13063984D01*
X8910658Y-13263984D02*
X8891610Y-13254460D01*
X8891610Y-13254460D02*
X8882086Y-13235412D01*
X8882086Y-13235412D02*
X8882086Y-13063984D01*
X9139229Y-13263984D02*
X9139229Y-13063984D01*
X9139229Y-13063984D02*
X9205896Y-13206841D01*
X9205896Y-13206841D02*
X9272563Y-13063984D01*
X9272563Y-13063984D02*
X9272563Y-13263984D01*
X9453515Y-13263984D02*
X9453515Y-13159222D01*
X9453515Y-13159222D02*
X9443991Y-13140174D01*
X9443991Y-13140174D02*
X9424944Y-13130650D01*
X9424944Y-13130650D02*
X9386848Y-13130650D01*
X9386848Y-13130650D02*
X9367801Y-13140174D01*
X9453515Y-13254460D02*
X9434467Y-13263984D01*
X9434467Y-13263984D02*
X9386848Y-13263984D01*
X9386848Y-13263984D02*
X9367801Y-13254460D01*
X9367801Y-13254460D02*
X9358277Y-13235412D01*
X9358277Y-13235412D02*
X9358277Y-13216365D01*
X9358277Y-13216365D02*
X9367801Y-13197317D01*
X9367801Y-13197317D02*
X9386848Y-13187793D01*
X9386848Y-13187793D02*
X9434467Y-13187793D01*
X9434467Y-13187793D02*
X9453515Y-13178269D01*
X9548753Y-13130650D02*
X9548753Y-13330650D01*
X9548753Y-13140174D02*
X9567801Y-13130650D01*
X9567801Y-13130650D02*
X9605896Y-13130650D01*
X9605896Y-13130650D02*
X9624944Y-13140174D01*
X9624944Y-13140174D02*
X9634467Y-13149698D01*
X9634467Y-13149698D02*
X9643991Y-13168746D01*
X9643991Y-13168746D02*
X9643991Y-13225888D01*
X9643991Y-13225888D02*
X9634467Y-13244936D01*
X9634467Y-13244936D02*
X9624944Y-13254460D01*
X9624944Y-13254460D02*
X9605896Y-13263984D01*
X9605896Y-13263984D02*
X9567801Y-13263984D01*
X9567801Y-13263984D02*
X9548753Y-13254460D01*
X9729705Y-13244936D02*
X9739229Y-13254460D01*
X9739229Y-13254460D02*
X9729705Y-13263984D01*
X9729705Y-13263984D02*
X9720182Y-13254460D01*
X9720182Y-13254460D02*
X9729705Y-13244936D01*
X9729705Y-13244936D02*
X9729705Y-13263984D01*
X9729705Y-13140174D02*
X9739229Y-13149698D01*
X9739229Y-13149698D02*
X9729705Y-13159222D01*
X9729705Y-13159222D02*
X9720182Y-13149698D01*
X9720182Y-13149698D02*
X9729705Y-13140174D01*
X9729705Y-13140174D02*
X9729705Y-13159222D01*
D14*
X7997500Y-13542500D02*
X8097500Y-13642500D01*
X8097500Y-13542500D02*
X7997500Y-13642500D01*
D13*
X8463039Y-13683984D02*
X8348753Y-13683984D01*
X8405896Y-13683984D02*
X8405896Y-13483984D01*
X8405896Y-13483984D02*
X8386848Y-13512555D01*
X8386848Y-13512555D02*
X8367801Y-13531603D01*
X8367801Y-13531603D02*
X8348753Y-13541127D01*
X8548753Y-13664936D02*
X8558277Y-13674460D01*
X8558277Y-13674460D02*
X8548753Y-13683984D01*
X8548753Y-13683984D02*
X8539229Y-13674460D01*
X8539229Y-13674460D02*
X8548753Y-13664936D01*
X8548753Y-13664936D02*
X8548753Y-13683984D01*
X8682086Y-13483984D02*
X8701134Y-13483984D01*
X8701134Y-13483984D02*
X8720182Y-13493508D01*
X8720182Y-13493508D02*
X8729705Y-13503031D01*
X8729705Y-13503031D02*
X8739229Y-13522079D01*
X8739229Y-13522079D02*
X8748753Y-13560174D01*
X8748753Y-13560174D02*
X8748753Y-13607793D01*
X8748753Y-13607793D02*
X8739229Y-13645888D01*
X8739229Y-13645888D02*
X8729705Y-13664936D01*
X8729705Y-13664936D02*
X8720182Y-13674460D01*
X8720182Y-13674460D02*
X8701134Y-13683984D01*
X8701134Y-13683984D02*
X8682086Y-13683984D01*
X8682086Y-13683984D02*
X8663039Y-13674460D01*
X8663039Y-13674460D02*
X8653515Y-13664936D01*
X8653515Y-13664936D02*
X8643991Y-13645888D01*
X8643991Y-13645888D02*
X8634467Y-13607793D01*
X8634467Y-13607793D02*
X8634467Y-13560174D01*
X8634467Y-13560174D02*
X8643991Y-13522079D01*
X8643991Y-13522079D02*
X8653515Y-13503031D01*
X8653515Y-13503031D02*
X8663039Y-13493508D01*
X8663039Y-13493508D02*
X8682086Y-13483984D01*
X8872563Y-13483984D02*
X8891610Y-13483984D01*
X8891610Y-13483984D02*
X8910658Y-13493508D01*
X8910658Y-13493508D02*
X8920182Y-13503031D01*
X8920182Y-13503031D02*
X8929705Y-13522079D01*
X8929705Y-13522079D02*
X8939229Y-13560174D01*
X8939229Y-13560174D02*
X8939229Y-13607793D01*
X8939229Y-13607793D02*
X8929705Y-13645888D01*
X8929705Y-13645888D02*
X8920182Y-13664936D01*
X8920182Y-13664936D02*
X8910658Y-13674460D01*
X8910658Y-13674460D02*
X8891610Y-13683984D01*
X8891610Y-13683984D02*
X8872563Y-13683984D01*
X8872563Y-13683984D02*
X8853515Y-13674460D01*
X8853515Y-13674460D02*
X8843991Y-13664936D01*
X8843991Y-13664936D02*
X8834467Y-13645888D01*
X8834467Y-13645888D02*
X8824944Y-13607793D01*
X8824944Y-13607793D02*
X8824944Y-13560174D01*
X8824944Y-13560174D02*
X8834467Y-13522079D01*
X8834467Y-13522079D02*
X8843991Y-13503031D01*
X8843991Y-13503031D02*
X8853515Y-13493508D01*
X8853515Y-13493508D02*
X8872563Y-13483984D01*
X9063039Y-13483984D02*
X9082086Y-13483984D01*
X9082086Y-13483984D02*
X9101134Y-13493508D01*
X9101134Y-13493508D02*
X9110658Y-13503031D01*
X9110658Y-13503031D02*
X9120182Y-13522079D01*
X9120182Y-13522079D02*
X9129705Y-13560174D01*
X9129705Y-13560174D02*
X9129705Y-13607793D01*
X9129705Y-13607793D02*
X9120182Y-13645888D01*
X9120182Y-13645888D02*
X9110658Y-13664936D01*
X9110658Y-13664936D02*
X9101134Y-13674460D01*
X9101134Y-13674460D02*
X9082086Y-13683984D01*
X9082086Y-13683984D02*
X9063039Y-13683984D01*
X9063039Y-13683984D02*
X9043991Y-13674460D01*
X9043991Y-13674460D02*
X9034467Y-13664936D01*
X9034467Y-13664936D02*
X9024944Y-13645888D01*
X9024944Y-13645888D02*
X9015420Y-13607793D01*
X9015420Y-13607793D02*
X9015420Y-13560174D01*
X9015420Y-13560174D02*
X9024944Y-13522079D01*
X9024944Y-13522079D02*
X9034467Y-13503031D01*
X9034467Y-13503031D02*
X9043991Y-13493508D01*
X9043991Y-13493508D02*
X9063039Y-13483984D01*
X9215420Y-13683984D02*
X9215420Y-13550650D01*
X9215420Y-13569698D02*
X9224944Y-13560174D01*
X9224944Y-13560174D02*
X9243991Y-13550650D01*
X9243991Y-13550650D02*
X9272563Y-13550650D01*
X9272563Y-13550650D02*
X9291610Y-13560174D01*
X9291610Y-13560174D02*
X9301134Y-13579222D01*
X9301134Y-13579222D02*
X9301134Y-13683984D01*
X9301134Y-13579222D02*
X9310658Y-13560174D01*
X9310658Y-13560174D02*
X9329705Y-13550650D01*
X9329705Y-13550650D02*
X9358277Y-13550650D01*
X9358277Y-13550650D02*
X9377325Y-13560174D01*
X9377325Y-13560174D02*
X9386848Y-13579222D01*
X9386848Y-13579222D02*
X9386848Y-13683984D01*
X9482086Y-13683984D02*
X9482086Y-13550650D01*
X9482086Y-13569698D02*
X9491610Y-13560174D01*
X9491610Y-13560174D02*
X9510658Y-13550650D01*
X9510658Y-13550650D02*
X9539229Y-13550650D01*
X9539229Y-13550650D02*
X9558277Y-13560174D01*
X9558277Y-13560174D02*
X9567801Y-13579222D01*
X9567801Y-13579222D02*
X9567801Y-13683984D01*
X9567801Y-13579222D02*
X9577325Y-13560174D01*
X9577325Y-13560174D02*
X9596372Y-13550650D01*
X9596372Y-13550650D02*
X9624944Y-13550650D01*
X9624944Y-13550650D02*
X9643991Y-13560174D01*
X9643991Y-13560174D02*
X9653515Y-13579222D01*
X9653515Y-13579222D02*
X9653515Y-13683984D01*
X10043991Y-13474460D02*
X9872563Y-13731603D01*
X10301134Y-13483984D02*
X10320182Y-13483984D01*
X10320182Y-13483984D02*
X10339229Y-13493508D01*
X10339229Y-13493508D02*
X10348753Y-13503031D01*
X10348753Y-13503031D02*
X10358277Y-13522079D01*
X10358277Y-13522079D02*
X10367801Y-13560174D01*
X10367801Y-13560174D02*
X10367801Y-13607793D01*
X10367801Y-13607793D02*
X10358277Y-13645888D01*
X10358277Y-13645888D02*
X10348753Y-13664936D01*
X10348753Y-13664936D02*
X10339229Y-13674460D01*
X10339229Y-13674460D02*
X10320182Y-13683984D01*
X10320182Y-13683984D02*
X10301134Y-13683984D01*
X10301134Y-13683984D02*
X10282087Y-13674460D01*
X10282087Y-13674460D02*
X10272563Y-13664936D01*
X10272563Y-13664936D02*
X10263039Y-13645888D01*
X10263039Y-13645888D02*
X10253515Y-13607793D01*
X10253515Y-13607793D02*
X10253515Y-13560174D01*
X10253515Y-13560174D02*
X10263039Y-13522079D01*
X10263039Y-13522079D02*
X10272563Y-13503031D01*
X10272563Y-13503031D02*
X10282087Y-13493508D01*
X10282087Y-13493508D02*
X10301134Y-13483984D01*
X10453515Y-13664936D02*
X10463039Y-13674460D01*
X10463039Y-13674460D02*
X10453515Y-13683984D01*
X10453515Y-13683984D02*
X10443991Y-13674460D01*
X10443991Y-13674460D02*
X10453515Y-13664936D01*
X10453515Y-13664936D02*
X10453515Y-13683984D01*
X10586848Y-13483984D02*
X10605896Y-13483984D01*
X10605896Y-13483984D02*
X10624944Y-13493508D01*
X10624944Y-13493508D02*
X10634468Y-13503031D01*
X10634468Y-13503031D02*
X10643991Y-13522079D01*
X10643991Y-13522079D02*
X10653515Y-13560174D01*
X10653515Y-13560174D02*
X10653515Y-13607793D01*
X10653515Y-13607793D02*
X10643991Y-13645888D01*
X10643991Y-13645888D02*
X10634468Y-13664936D01*
X10634468Y-13664936D02*
X10624944Y-13674460D01*
X10624944Y-13674460D02*
X10605896Y-13683984D01*
X10605896Y-13683984D02*
X10586848Y-13683984D01*
X10586848Y-13683984D02*
X10567801Y-13674460D01*
X10567801Y-13674460D02*
X10558277Y-13664936D01*
X10558277Y-13664936D02*
X10548753Y-13645888D01*
X10548753Y-13645888D02*
X10539229Y-13607793D01*
X10539229Y-13607793D02*
X10539229Y-13560174D01*
X10539229Y-13560174D02*
X10548753Y-13522079D01*
X10548753Y-13522079D02*
X10558277Y-13503031D01*
X10558277Y-13503031D02*
X10567801Y-13493508D01*
X10567801Y-13493508D02*
X10586848Y-13483984D01*
X10720182Y-13483984D02*
X10843991Y-13483984D01*
X10843991Y-13483984D02*
X10777325Y-13560174D01*
X10777325Y-13560174D02*
X10805896Y-13560174D01*
X10805896Y-13560174D02*
X10824944Y-13569698D01*
X10824944Y-13569698D02*
X10834468Y-13579222D01*
X10834468Y-13579222D02*
X10843991Y-13598269D01*
X10843991Y-13598269D02*
X10843991Y-13645888D01*
X10843991Y-13645888D02*
X10834468Y-13664936D01*
X10834468Y-13664936D02*
X10824944Y-13674460D01*
X10824944Y-13674460D02*
X10805896Y-13683984D01*
X10805896Y-13683984D02*
X10748753Y-13683984D01*
X10748753Y-13683984D02*
X10729706Y-13674460D01*
X10729706Y-13674460D02*
X10720182Y-13664936D01*
X10939229Y-13683984D02*
X10977325Y-13683984D01*
X10977325Y-13683984D02*
X10996372Y-13674460D01*
X10996372Y-13674460D02*
X11005896Y-13664936D01*
X11005896Y-13664936D02*
X11024944Y-13636365D01*
X11024944Y-13636365D02*
X11034468Y-13598269D01*
X11034468Y-13598269D02*
X11034468Y-13522079D01*
X11034468Y-13522079D02*
X11024944Y-13503031D01*
X11024944Y-13503031D02*
X11015420Y-13493508D01*
X11015420Y-13493508D02*
X10996372Y-13483984D01*
X10996372Y-13483984D02*
X10958277Y-13483984D01*
X10958277Y-13483984D02*
X10939229Y-13493508D01*
X10939229Y-13493508D02*
X10929706Y-13503031D01*
X10929706Y-13503031D02*
X10920182Y-13522079D01*
X10920182Y-13522079D02*
X10920182Y-13569698D01*
X10920182Y-13569698D02*
X10929706Y-13588746D01*
X10929706Y-13588746D02*
X10939229Y-13598269D01*
X10939229Y-13598269D02*
X10958277Y-13607793D01*
X10958277Y-13607793D02*
X10996372Y-13607793D01*
X10996372Y-13607793D02*
X11015420Y-13598269D01*
X11015420Y-13598269D02*
X11024944Y-13588746D01*
X11024944Y-13588746D02*
X11034468Y-13569698D01*
X11205896Y-13550650D02*
X11205896Y-13683984D01*
X11158277Y-13474460D02*
X11110658Y-13617317D01*
X11110658Y-13617317D02*
X11234467Y-13617317D01*
X11301134Y-13483984D02*
X11301134Y-13522079D01*
X11377325Y-13483984D02*
X11377325Y-13522079D01*
X11672563Y-13760174D02*
X11663039Y-13750650D01*
X11663039Y-13750650D02*
X11643991Y-13722079D01*
X11643991Y-13722079D02*
X11634468Y-13703031D01*
X11634468Y-13703031D02*
X11624944Y-13674460D01*
X11624944Y-13674460D02*
X11615420Y-13626841D01*
X11615420Y-13626841D02*
X11615420Y-13588746D01*
X11615420Y-13588746D02*
X11624944Y-13541127D01*
X11624944Y-13541127D02*
X11634468Y-13512555D01*
X11634468Y-13512555D02*
X11643991Y-13493508D01*
X11643991Y-13493508D02*
X11663039Y-13464936D01*
X11663039Y-13464936D02*
X11672563Y-13455412D01*
X11739229Y-13503031D02*
X11748753Y-13493508D01*
X11748753Y-13493508D02*
X11767801Y-13483984D01*
X11767801Y-13483984D02*
X11815420Y-13483984D01*
X11815420Y-13483984D02*
X11834468Y-13493508D01*
X11834468Y-13493508D02*
X11843991Y-13503031D01*
X11843991Y-13503031D02*
X11853515Y-13522079D01*
X11853515Y-13522079D02*
X11853515Y-13541127D01*
X11853515Y-13541127D02*
X11843991Y-13569698D01*
X11843991Y-13569698D02*
X11729706Y-13683984D01*
X11729706Y-13683984D02*
X11853515Y-13683984D01*
X12091610Y-13683984D02*
X12091610Y-13483984D01*
X12177325Y-13683984D02*
X12177325Y-13579222D01*
X12177325Y-13579222D02*
X12167801Y-13560174D01*
X12167801Y-13560174D02*
X12148753Y-13550650D01*
X12148753Y-13550650D02*
X12120182Y-13550650D01*
X12120182Y-13550650D02*
X12101134Y-13560174D01*
X12101134Y-13560174D02*
X12091610Y-13569698D01*
X12301134Y-13683984D02*
X12282087Y-13674460D01*
X12282087Y-13674460D02*
X12272563Y-13664936D01*
X12272563Y-13664936D02*
X12263039Y-13645888D01*
X12263039Y-13645888D02*
X12263039Y-13588746D01*
X12263039Y-13588746D02*
X12272563Y-13569698D01*
X12272563Y-13569698D02*
X12282087Y-13560174D01*
X12282087Y-13560174D02*
X12301134Y-13550650D01*
X12301134Y-13550650D02*
X12329706Y-13550650D01*
X12329706Y-13550650D02*
X12348753Y-13560174D01*
X12348753Y-13560174D02*
X12358277Y-13569698D01*
X12358277Y-13569698D02*
X12367801Y-13588746D01*
X12367801Y-13588746D02*
X12367801Y-13645888D01*
X12367801Y-13645888D02*
X12358277Y-13664936D01*
X12358277Y-13664936D02*
X12348753Y-13674460D01*
X12348753Y-13674460D02*
X12329706Y-13683984D01*
X12329706Y-13683984D02*
X12301134Y-13683984D01*
X12482087Y-13683984D02*
X12463039Y-13674460D01*
X12463039Y-13674460D02*
X12453515Y-13655412D01*
X12453515Y-13655412D02*
X12453515Y-13483984D01*
X12634468Y-13674460D02*
X12615420Y-13683984D01*
X12615420Y-13683984D02*
X12577325Y-13683984D01*
X12577325Y-13683984D02*
X12558277Y-13674460D01*
X12558277Y-13674460D02*
X12548753Y-13655412D01*
X12548753Y-13655412D02*
X12548753Y-13579222D01*
X12548753Y-13579222D02*
X12558277Y-13560174D01*
X12558277Y-13560174D02*
X12577325Y-13550650D01*
X12577325Y-13550650D02*
X12615420Y-13550650D01*
X12615420Y-13550650D02*
X12634468Y-13560174D01*
X12634468Y-13560174D02*
X12643991Y-13579222D01*
X12643991Y-13579222D02*
X12643991Y-13598269D01*
X12643991Y-13598269D02*
X12548753Y-13617317D01*
X12720182Y-13674460D02*
X12739230Y-13683984D01*
X12739230Y-13683984D02*
X12777325Y-13683984D01*
X12777325Y-13683984D02*
X12796372Y-13674460D01*
X12796372Y-13674460D02*
X12805896Y-13655412D01*
X12805896Y-13655412D02*
X12805896Y-13645888D01*
X12805896Y-13645888D02*
X12796372Y-13626841D01*
X12796372Y-13626841D02*
X12777325Y-13617317D01*
X12777325Y-13617317D02*
X12748753Y-13617317D01*
X12748753Y-13617317D02*
X12729706Y-13607793D01*
X12729706Y-13607793D02*
X12720182Y-13588746D01*
X12720182Y-13588746D02*
X12720182Y-13579222D01*
X12720182Y-13579222D02*
X12729706Y-13560174D01*
X12729706Y-13560174D02*
X12748753Y-13550650D01*
X12748753Y-13550650D02*
X12777325Y-13550650D01*
X12777325Y-13550650D02*
X12796372Y-13560174D01*
X12872563Y-13760174D02*
X12882087Y-13750650D01*
X12882087Y-13750650D02*
X12901134Y-13722079D01*
X12901134Y-13722079D02*
X12910658Y-13703031D01*
X12910658Y-13703031D02*
X12920182Y-13674460D01*
X12920182Y-13674460D02*
X12929706Y-13626841D01*
X12929706Y-13626841D02*
X12929706Y-13588746D01*
X12929706Y-13588746D02*
X12920182Y-13541127D01*
X12920182Y-13541127D02*
X12910658Y-13512555D01*
X12910658Y-13512555D02*
X12901134Y-13493508D01*
X12901134Y-13493508D02*
X12882087Y-13464936D01*
X12882087Y-13464936D02*
X12872563Y-13455412D01*
X13234468Y-13760174D02*
X13224944Y-13750650D01*
X13224944Y-13750650D02*
X13205896Y-13722079D01*
X13205896Y-13722079D02*
X13196372Y-13703031D01*
X13196372Y-13703031D02*
X13186849Y-13674460D01*
X13186849Y-13674460D02*
X13177325Y-13626841D01*
X13177325Y-13626841D02*
X13177325Y-13588746D01*
X13177325Y-13588746D02*
X13186849Y-13541127D01*
X13186849Y-13541127D02*
X13196372Y-13512555D01*
X13196372Y-13512555D02*
X13205896Y-13493508D01*
X13205896Y-13493508D02*
X13224944Y-13464936D01*
X13224944Y-13464936D02*
X13234468Y-13455412D01*
X13310658Y-13550650D02*
X13310658Y-13683984D01*
X13310658Y-13569698D02*
X13320182Y-13560174D01*
X13320182Y-13560174D02*
X13339230Y-13550650D01*
X13339230Y-13550650D02*
X13367801Y-13550650D01*
X13367801Y-13550650D02*
X13386849Y-13560174D01*
X13386849Y-13560174D02*
X13396372Y-13579222D01*
X13396372Y-13579222D02*
X13396372Y-13683984D01*
X13520182Y-13683984D02*
X13501134Y-13674460D01*
X13501134Y-13674460D02*
X13491611Y-13664936D01*
X13491611Y-13664936D02*
X13482087Y-13645888D01*
X13482087Y-13645888D02*
X13482087Y-13588746D01*
X13482087Y-13588746D02*
X13491611Y-13569698D01*
X13491611Y-13569698D02*
X13501134Y-13560174D01*
X13501134Y-13560174D02*
X13520182Y-13550650D01*
X13520182Y-13550650D02*
X13548753Y-13550650D01*
X13548753Y-13550650D02*
X13567801Y-13560174D01*
X13567801Y-13560174D02*
X13577325Y-13569698D01*
X13577325Y-13569698D02*
X13586849Y-13588746D01*
X13586849Y-13588746D02*
X13586849Y-13645888D01*
X13586849Y-13645888D02*
X13577325Y-13664936D01*
X13577325Y-13664936D02*
X13567801Y-13674460D01*
X13567801Y-13674460D02*
X13548753Y-13683984D01*
X13548753Y-13683984D02*
X13520182Y-13683984D01*
X13643992Y-13550650D02*
X13720182Y-13550650D01*
X13672563Y-13483984D02*
X13672563Y-13655412D01*
X13672563Y-13655412D02*
X13682087Y-13674460D01*
X13682087Y-13674460D02*
X13701134Y-13683984D01*
X13701134Y-13683984D02*
X13720182Y-13683984D01*
X13939230Y-13550650D02*
X13939230Y-13750650D01*
X13939230Y-13560174D02*
X13958277Y-13550650D01*
X13958277Y-13550650D02*
X13996373Y-13550650D01*
X13996373Y-13550650D02*
X14015420Y-13560174D01*
X14015420Y-13560174D02*
X14024944Y-13569698D01*
X14024944Y-13569698D02*
X14034468Y-13588746D01*
X14034468Y-13588746D02*
X14034468Y-13645888D01*
X14034468Y-13645888D02*
X14024944Y-13664936D01*
X14024944Y-13664936D02*
X14015420Y-13674460D01*
X14015420Y-13674460D02*
X13996373Y-13683984D01*
X13996373Y-13683984D02*
X13958277Y-13683984D01*
X13958277Y-13683984D02*
X13939230Y-13674460D01*
X14148753Y-13683984D02*
X14129706Y-13674460D01*
X14129706Y-13674460D02*
X14120182Y-13655412D01*
X14120182Y-13655412D02*
X14120182Y-13483984D01*
X14310658Y-13683984D02*
X14310658Y-13579222D01*
X14310658Y-13579222D02*
X14301134Y-13560174D01*
X14301134Y-13560174D02*
X14282087Y-13550650D01*
X14282087Y-13550650D02*
X14243992Y-13550650D01*
X14243992Y-13550650D02*
X14224944Y-13560174D01*
X14310658Y-13674460D02*
X14291611Y-13683984D01*
X14291611Y-13683984D02*
X14243992Y-13683984D01*
X14243992Y-13683984D02*
X14224944Y-13674460D01*
X14224944Y-13674460D02*
X14215420Y-13655412D01*
X14215420Y-13655412D02*
X14215420Y-13636365D01*
X14215420Y-13636365D02*
X14224944Y-13617317D01*
X14224944Y-13617317D02*
X14243992Y-13607793D01*
X14243992Y-13607793D02*
X14291611Y-13607793D01*
X14291611Y-13607793D02*
X14310658Y-13598269D01*
X14377325Y-13550650D02*
X14453515Y-13550650D01*
X14405896Y-13483984D02*
X14405896Y-13655412D01*
X14405896Y-13655412D02*
X14415420Y-13674460D01*
X14415420Y-13674460D02*
X14434468Y-13683984D01*
X14434468Y-13683984D02*
X14453515Y-13683984D01*
X14596373Y-13674460D02*
X14577325Y-13683984D01*
X14577325Y-13683984D02*
X14539230Y-13683984D01*
X14539230Y-13683984D02*
X14520182Y-13674460D01*
X14520182Y-13674460D02*
X14510658Y-13655412D01*
X14510658Y-13655412D02*
X14510658Y-13579222D01*
X14510658Y-13579222D02*
X14520182Y-13560174D01*
X14520182Y-13560174D02*
X14539230Y-13550650D01*
X14539230Y-13550650D02*
X14577325Y-13550650D01*
X14577325Y-13550650D02*
X14596373Y-13560174D01*
X14596373Y-13560174D02*
X14605896Y-13579222D01*
X14605896Y-13579222D02*
X14605896Y-13598269D01*
X14605896Y-13598269D02*
X14510658Y-13617317D01*
X14777325Y-13683984D02*
X14777325Y-13483984D01*
X14777325Y-13674460D02*
X14758277Y-13683984D01*
X14758277Y-13683984D02*
X14720182Y-13683984D01*
X14720182Y-13683984D02*
X14701134Y-13674460D01*
X14701134Y-13674460D02*
X14691611Y-13664936D01*
X14691611Y-13664936D02*
X14682087Y-13645888D01*
X14682087Y-13645888D02*
X14682087Y-13588746D01*
X14682087Y-13588746D02*
X14691611Y-13569698D01*
X14691611Y-13569698D02*
X14701134Y-13560174D01*
X14701134Y-13560174D02*
X14720182Y-13550650D01*
X14720182Y-13550650D02*
X14758277Y-13550650D01*
X14758277Y-13550650D02*
X14777325Y-13560174D01*
X14853515Y-13760174D02*
X14863039Y-13750650D01*
X14863039Y-13750650D02*
X14882087Y-13722079D01*
X14882087Y-13722079D02*
X14891611Y-13703031D01*
X14891611Y-13703031D02*
X14901134Y-13674460D01*
X14901134Y-13674460D02*
X14910658Y-13626841D01*
X14910658Y-13626841D02*
X14910658Y-13588746D01*
X14910658Y-13588746D02*
X14901134Y-13541127D01*
X14901134Y-13541127D02*
X14891611Y-13512555D01*
X14891611Y-13512555D02*
X14882087Y-13493508D01*
X14882087Y-13493508D02*
X14863039Y-13464936D01*
X14863039Y-13464936D02*
X14853515Y-13455412D01*
M02*
