G04 #@! TF.GenerationSoftware,KiCad,Pcbnew,9.0.3*
G04 #@! TF.CreationDate,2025-08-23T15:15:08+02:00*
G04 #@! TF.ProjectId,fw-anwesenheit,66772d61-6e77-4657-9365-6e686569742e,rev?*
G04 #@! TF.SameCoordinates,Original*
G04 #@! TF.FileFunction,Copper,L1,Top*
G04 #@! TF.FilePolarity,Positive*
%FSLAX46Y46*%
G04 Gerber Fmt 4.6, Leading zero omitted, Abs format (unit mm)*
G04 Created by KiCad (PCBNEW 9.0.3) date 2025-08-23 15:15:08*
%MOMM*%
%LPD*%
G01*
G04 APERTURE LIST*
G04 Aperture macros list*
%AMRoundRect*
0 Rectangle with rounded corners*
0 $1 Rounding radius*
0 $2 $3 $4 $5 $6 $7 $8 $9 X,Y pos of 4 corners*
0 Add a 4 corners polygon primitive as box body*
4,1,4,$2,$3,$4,$5,$6,$7,$8,$9,$2,$3,0*
0 Add four circle primitives for the rounded corners*
1,1,$1+$1,$2,$3*
1,1,$1+$1,$4,$5*
1,1,$1+$1,$6,$7*
1,1,$1+$1,$8,$9*
0 Add four rect primitives between the rounded corners*
20,1,$1+$1,$2,$3,$4,$5,0*
20,1,$1+$1,$4,$5,$6,$7,0*
20,1,$1+$1,$6,$7,$8,$9,0*
20,1,$1+$1,$8,$9,$2,$3,0*%
%AMOutline5P*
0 Free polygon, 5 corners , with rotation*
0 The origin of the aperture is its center*
0 number of corners: always 5*
0 $1 to $10 corner X, Y*
0 $11 Rotation angle, in degrees counterclockwise*
0 create outline with 5 corners*
4,1,5,$1,$2,$3,$4,$5,$6,$7,$8,$9,$10,$1,$2,$11*%
%AMOutline6P*
0 Free polygon, 6 corners , with rotation*
0 The origin of the aperture is its center*
0 number of corners: always 6*
0 $1 to $12 corner X, Y*
0 $13 Rotation angle, in degrees counterclockwise*
0 create outline with 6 corners*
4,1,6,$1,$2,$3,$4,$5,$6,$7,$8,$9,$10,$11,$12,$1,$2,$13*%
%AMOutline7P*
0 Free polygon, 7 corners , with rotation*
0 The origin of the aperture is its center*
0 number of corners: always 7*
0 $1 to $14 corner X, Y*
0 $15 Rotation angle, in degrees counterclockwise*
0 create outline with 7 corners*
4,1,7,$1,$2,$3,$4,$5,$6,$7,$8,$9,$10,$11,$12,$13,$14,$1,$2,$15*%
%AMOutline8P*
0 Free polygon, 8 corners , with rotation*
0 The origin of the aperture is its center*
0 number of corners: always 8*
0 $1 to $16 corner X, Y*
0 $17 Rotation angle, in degrees counterclockwise*
0 create outline with 8 corners*
4,1,8,$1,$2,$3,$4,$5,$6,$7,$8,$9,$10,$11,$12,$13,$14,$15,$16,$1,$2,$17*%
%AMFreePoly0*
4,1,6,1.000000,0.000000,0.500000,-0.750000,-0.500000,-0.750000,-0.500000,0.750000,0.500000,0.750000,1.000000,0.000000,1.000000,0.000000,$1*%
%AMFreePoly1*
4,1,6,0.500000,-0.750000,-0.650000,-0.750000,-0.150000,0.000000,-0.650000,0.750000,0.500000,0.750000,0.500000,-0.750000,0.500000,-0.750000,$1*%
G04 Aperture macros list end*
G04 #@! TA.AperFunction,SMDPad,CuDef*
%ADD10RoundRect,0.225000X0.225000X0.250000X-0.225000X0.250000X-0.225000X-0.250000X0.225000X-0.250000X0*%
G04 #@! TD*
G04 #@! TA.AperFunction,SMDPad,CuDef*
%ADD11Outline5P,-1.250000X0.510000X-0.910000X0.850000X1.250000X0.850000X1.250000X-0.850000X-1.250000X-0.850000X0.000000*%
G04 #@! TD*
G04 #@! TA.AperFunction,SMDPad,CuDef*
%ADD12RoundRect,0.170000X-1.080000X-0.680000X1.080000X-0.680000X1.080000X0.680000X-1.080000X0.680000X0*%
G04 #@! TD*
G04 #@! TA.AperFunction,SMDPad,CuDef*
%ADD13RoundRect,0.250000X-1.000000X-0.600000X1.000000X-0.600000X1.000000X0.600000X-1.000000X0.600000X0*%
G04 #@! TD*
G04 #@! TA.AperFunction,SMDPad,CuDef*
%ADD14RoundRect,0.500000X0.875000X0.500000X-0.875000X0.500000X-0.875000X-0.500000X0.875000X-0.500000X0*%
G04 #@! TD*
G04 #@! TA.AperFunction,SMDPad,CuDef*
%ADD15RoundRect,0.275000X0.275000X-0.975000X0.275000X0.975000X-0.275000X0.975000X-0.275000X-0.975000X0*%
G04 #@! TD*
G04 #@! TA.AperFunction,SMDPad,CuDef*
%ADD16C,1.700000*%
G04 #@! TD*
G04 #@! TA.AperFunction,SMDPad,CuDef*
%ADD17C,1.500000*%
G04 #@! TD*
G04 #@! TA.AperFunction,SMDPad,CuDef*
%ADD18RoundRect,0.218750X0.256250X-0.218750X0.256250X0.218750X-0.256250X0.218750X-0.256250X-0.218750X0*%
G04 #@! TD*
G04 #@! TA.AperFunction,SMDPad,CuDef*
%ADD19RoundRect,0.237500X0.237500X-0.250000X0.237500X0.250000X-0.237500X0.250000X-0.237500X-0.250000X0*%
G04 #@! TD*
G04 #@! TA.AperFunction,SMDPad,CuDef*
%ADD20RoundRect,0.237500X-0.237500X0.250000X-0.237500X-0.250000X0.237500X-0.250000X0.237500X0.250000X0*%
G04 #@! TD*
G04 #@! TA.AperFunction,SMDPad,CuDef*
%ADD21RoundRect,0.225000X-0.225000X-0.250000X0.225000X-0.250000X0.225000X0.250000X-0.225000X0.250000X0*%
G04 #@! TD*
G04 #@! TA.AperFunction,SMDPad,CuDef*
%ADD22RoundRect,0.150000X-0.875000X-0.150000X0.875000X-0.150000X0.875000X0.150000X-0.875000X0.150000X0*%
G04 #@! TD*
G04 #@! TA.AperFunction,ComponentPad*
%ADD23R,1.350000X1.350000*%
G04 #@! TD*
G04 #@! TA.AperFunction,ComponentPad*
%ADD24C,1.350000*%
G04 #@! TD*
G04 #@! TA.AperFunction,SMDPad,CuDef*
%ADD25FreePoly0,0.000000*%
G04 #@! TD*
G04 #@! TA.AperFunction,SMDPad,CuDef*
%ADD26FreePoly1,0.000000*%
G04 #@! TD*
G04 #@! TA.AperFunction,ComponentPad*
%ADD27C,2.100000*%
G04 #@! TD*
G04 #@! TA.AperFunction,ComponentPad*
%ADD28R,2.100000X2.100000*%
G04 #@! TD*
G04 #@! TA.AperFunction,SMDPad,CuDef*
%ADD29RoundRect,0.237500X0.250000X0.237500X-0.250000X0.237500X-0.250000X-0.237500X0.250000X-0.237500X0*%
G04 #@! TD*
G04 #@! TA.AperFunction,SMDPad,CuDef*
%ADD30R,1.270000X0.558800*%
G04 #@! TD*
G04 #@! TA.AperFunction,SMDPad,CuDef*
%ADD31RoundRect,0.237500X-0.250000X-0.237500X0.250000X-0.237500X0.250000X0.237500X-0.250000X0.237500X0*%
G04 #@! TD*
G04 #@! TA.AperFunction,SMDPad,CuDef*
%ADD32RoundRect,0.225000X0.250000X-0.225000X0.250000X0.225000X-0.250000X0.225000X-0.250000X-0.225000X0*%
G04 #@! TD*
G04 #@! TA.AperFunction,SMDPad,CuDef*
%ADD33R,0.700000X1.900000*%
G04 #@! TD*
G04 #@! TA.AperFunction,SMDPad,CuDef*
%ADD34R,1.700000X1.800000*%
G04 #@! TD*
G04 #@! TA.AperFunction,SMDPad,CuDef*
%ADD35R,1.400000X2.600000*%
G04 #@! TD*
G04 #@! TA.AperFunction,SMDPad,CuDef*
%ADD36RoundRect,0.225000X-0.250000X0.225000X-0.250000X-0.225000X0.250000X-0.225000X0.250000X0.225000X0*%
G04 #@! TD*
G04 #@! TA.AperFunction,ComponentPad*
%ADD37R,1.600000X2.000000*%
G04 #@! TD*
G04 #@! TA.AperFunction,ComponentPad*
%ADD38O,1.600000X2.000000*%
G04 #@! TD*
G04 #@! TA.AperFunction,ViaPad*
%ADD39C,0.400000*%
G04 #@! TD*
G04 #@! TA.AperFunction,Conductor*
%ADD40C,0.200000*%
G04 #@! TD*
G04 #@! TA.AperFunction,Conductor*
%ADD41C,1.500000*%
G04 #@! TD*
G04 APERTURE END LIST*
D10*
X123775000Y-97500000D03*
X122225000Y-97500000D03*
D11*
X128778000Y-111252000D03*
D12*
X128778000Y-113792000D03*
D13*
X128778000Y-116332000D03*
D14*
X113821600Y-126598500D03*
X113821600Y-124058500D03*
X113821600Y-121518500D03*
X113821600Y-118978500D03*
X113821600Y-116438500D03*
X113821600Y-113898500D03*
X113821600Y-111358500D03*
X97656600Y-111358500D03*
X97656600Y-113898500D03*
X97656600Y-116438500D03*
X97656600Y-118978500D03*
X97656600Y-121518500D03*
X97656600Y-124058500D03*
X97656600Y-126598500D03*
D15*
X107548000Y-113446800D03*
X105008000Y-113446800D03*
D16*
X107040000Y-127620000D03*
X104500000Y-127620000D03*
X107040000Y-125080000D03*
X104500000Y-125080000D03*
X107040000Y-122540000D03*
X104500000Y-122540000D03*
X107040000Y-120000000D03*
X104592600Y-120056800D03*
D17*
X83000000Y-127500000D03*
D18*
X83500000Y-93787500D03*
X83500000Y-92212500D03*
D19*
X120000000Y-102412500D03*
X120000000Y-100587500D03*
X122000000Y-102412500D03*
X122000000Y-100587500D03*
D20*
X90000000Y-109087500D03*
X90000000Y-110912500D03*
D21*
X95618000Y-98552000D03*
X97168000Y-98552000D03*
D17*
X84000000Y-103500000D03*
D22*
X99871000Y-97282000D03*
X99871000Y-98552000D03*
X99871000Y-99822000D03*
X99871000Y-101092000D03*
X99871000Y-102362000D03*
X99871000Y-103632000D03*
X99871000Y-104902000D03*
X99871000Y-106172000D03*
X109171000Y-106172000D03*
X109171000Y-104902000D03*
X109171000Y-103632000D03*
X109171000Y-102362000D03*
X109171000Y-101092000D03*
X109171000Y-99822000D03*
X109171000Y-98552000D03*
X109171000Y-97282000D03*
D23*
X89916000Y-118888000D03*
D24*
X89916000Y-120888000D03*
D19*
X116000000Y-102412500D03*
X116000000Y-100587500D03*
D17*
X86175000Y-118373000D03*
D25*
X117983000Y-127000000D03*
D26*
X119433000Y-127000000D03*
D27*
X89500000Y-59520000D03*
D28*
X89500000Y-62060000D03*
D27*
X104740000Y-87460000D03*
X104740000Y-84920000D03*
X89500000Y-87460000D03*
D28*
X89500000Y-92540000D03*
D27*
X104740000Y-90000000D03*
D28*
X104740000Y-92540000D03*
D27*
X104740000Y-82380000D03*
X89500000Y-90000000D03*
D29*
X90412500Y-97000000D03*
X88587500Y-97000000D03*
X90412500Y-99000000D03*
X88587500Y-99000000D03*
D30*
X117704600Y-113560200D03*
X117704600Y-114500000D03*
X117704600Y-115439800D03*
X120295400Y-115439800D03*
X120295400Y-113560200D03*
D21*
X118225000Y-111000000D03*
X119775000Y-111000000D03*
D20*
X86000000Y-92087500D03*
X86000000Y-93912500D03*
D31*
X123087500Y-111000000D03*
X124912500Y-111000000D03*
D19*
X124000000Y-102412500D03*
X124000000Y-100587500D03*
D17*
X84000000Y-100500000D03*
X86500000Y-127500000D03*
X90000000Y-127500000D03*
D19*
X128000000Y-102500000D03*
X128000000Y-100675000D03*
D17*
X124500000Y-108500000D03*
D19*
X118000000Y-102412500D03*
X118000000Y-100587500D03*
D32*
X125984000Y-115583000D03*
X125984000Y-114033000D03*
D19*
X122500000Y-120912500D03*
X122500000Y-119087500D03*
D20*
X90000000Y-113087500D03*
X90000000Y-114912500D03*
D17*
X84000000Y-97500000D03*
D33*
X118550000Y-94650000D03*
X119650000Y-94650000D03*
X120750000Y-94650000D03*
X121850000Y-94650000D03*
X122950000Y-94650000D03*
X124050000Y-94650000D03*
X125150000Y-94650000D03*
X126250000Y-94650000D03*
X127350000Y-94650000D03*
D34*
X128900000Y-93600000D03*
X113400000Y-93600000D03*
D35*
X128650000Y-84000000D03*
X112950000Y-84000000D03*
D19*
X126000000Y-102412500D03*
X126000000Y-100587500D03*
D17*
X86175000Y-115373000D03*
D19*
X120000000Y-120927500D03*
X120000000Y-119102500D03*
D36*
X94500000Y-124225000D03*
X94500000Y-125775000D03*
D37*
X113411000Y-103378000D03*
D38*
X92911000Y-103378000D03*
D39*
X90000000Y-114912500D03*
X121285000Y-128397000D03*
X118237000Y-110998000D03*
X119253000Y-80645000D03*
X112903000Y-83947000D03*
X110744000Y-102362000D03*
X122529600Y-126949200D03*
X129413000Y-80645000D03*
X98552000Y-124079000D03*
X86741000Y-80645000D03*
X102997000Y-128397000D03*
X113157000Y-80645000D03*
X124079000Y-94234000D03*
X125730000Y-92837000D03*
X92710000Y-98044000D03*
X107442000Y-107950000D03*
X103886000Y-107950000D03*
X123825000Y-97536000D03*
X104521000Y-125095000D03*
X98552000Y-124714000D03*
X88519000Y-103124000D03*
X129794000Y-115824000D03*
X119761000Y-92329000D03*
X122174000Y-127381000D03*
X88773000Y-80645000D03*
X83950000Y-112960000D03*
X110744000Y-106172000D03*
X113411000Y-93853000D03*
X117704600Y-115443000D03*
X97663000Y-123444000D03*
X121285000Y-80645000D03*
X125984000Y-115570000D03*
X129000000Y-116270000D03*
X86487000Y-99822000D03*
X125349000Y-80645000D03*
X98933000Y-128397000D03*
X108839000Y-120396000D03*
X98044000Y-104902000D03*
X128270000Y-116713000D03*
X122174000Y-126619000D03*
X129413000Y-128397000D03*
X94488000Y-124206000D03*
X90805000Y-80645000D03*
X98044000Y-106172000D03*
X84328000Y-126873000D03*
X126873000Y-97536000D03*
X127381000Y-80645000D03*
X84709000Y-80645000D03*
X113157000Y-128397000D03*
X110744000Y-101092000D03*
X110744000Y-104902000D03*
X109093000Y-80645000D03*
X120015000Y-99441000D03*
X117704600Y-113560200D03*
X105029000Y-80645000D03*
X104648000Y-97663000D03*
X122936000Y-126619000D03*
X94869000Y-80645000D03*
X94869000Y-128397000D03*
X128905000Y-93599000D03*
X82677000Y-80645000D03*
X95377000Y-118364000D03*
X115443000Y-91821000D03*
X119253000Y-128397000D03*
X122936000Y-127381000D03*
X98933000Y-80645000D03*
X111379000Y-107950000D03*
X96901000Y-80645000D03*
X115189000Y-80645000D03*
X117221000Y-80645000D03*
X96774000Y-123444000D03*
X118491000Y-99060000D03*
X111125000Y-128397000D03*
X123317000Y-80645000D03*
X115189000Y-128397000D03*
X111125000Y-80645000D03*
X127381000Y-128397000D03*
X129794000Y-116713000D03*
X117221000Y-128397000D03*
X98552000Y-123444000D03*
X122047000Y-99060000D03*
X110490000Y-115189000D03*
X123317000Y-128397000D03*
X102997000Y-80645000D03*
X92837000Y-80645000D03*
X125349000Y-128397000D03*
X128651000Y-83947000D03*
X105029000Y-113411000D03*
X107061000Y-80645000D03*
X98044000Y-102362000D03*
X110744000Y-103632000D03*
X96774000Y-124079000D03*
X96901000Y-128397000D03*
X105029000Y-112522000D03*
X120015000Y-119253000D03*
X109093000Y-128397000D03*
X105475000Y-105000000D03*
X128270000Y-115824000D03*
X124079000Y-94996000D03*
X100965000Y-80645000D03*
X95618000Y-98552000D03*
X100965000Y-128397000D03*
X97663000Y-124714000D03*
X98044000Y-103632000D03*
X97663000Y-124079000D03*
X122500000Y-119087500D03*
X96774000Y-124714000D03*
X128219200Y-114198400D03*
X98602800Y-127203200D03*
X128219200Y-113284000D03*
X97688400Y-127203200D03*
X129641600Y-113334800D03*
X120294400Y-113588800D03*
X96926400Y-126644400D03*
X94488000Y-125730000D03*
X98602800Y-126085600D03*
X87505500Y-126494500D03*
X129641600Y-114249200D03*
X98602800Y-126644400D03*
X119761000Y-110998000D03*
X97688400Y-126085600D03*
X97688400Y-126644400D03*
X125984000Y-114046000D03*
X128981200Y-113741200D03*
X96926400Y-127203200D03*
X96926400Y-126085600D03*
X104267000Y-120396000D03*
X83500000Y-92212500D03*
X126000000Y-102412500D03*
X97168000Y-98552000D03*
X102616000Y-94361000D03*
X120000000Y-121000000D03*
X90412500Y-99000000D03*
X121920000Y-95123000D03*
X118000000Y-102412500D03*
X110109000Y-123571000D03*
X102743000Y-123317000D03*
X98552000Y-94361000D03*
X117729000Y-123571000D03*
X122301000Y-111887000D03*
X104902000Y-120396000D03*
X122000000Y-102412500D03*
X97663000Y-120904000D03*
X121920000Y-94234000D03*
X104902000Y-119761000D03*
X118364000Y-123571000D03*
X98552000Y-121539000D03*
X104267000Y-119761000D03*
X122174000Y-97536000D03*
X128000000Y-102500000D03*
X110871000Y-123571000D03*
X97663000Y-122174000D03*
X97663000Y-121539000D03*
X98552000Y-122174000D03*
X116000000Y-102412500D03*
X102489000Y-98552000D03*
X83185000Y-110490000D03*
X90412500Y-97000000D03*
X124000000Y-102412500D03*
X120000000Y-102412500D03*
X98552000Y-120904000D03*
X96774000Y-122174000D03*
X122500000Y-120912500D03*
X96774000Y-121539000D03*
X91694000Y-127889000D03*
X96774000Y-120904000D03*
X122301000Y-115697000D03*
X90000000Y-109087500D03*
X127350000Y-94650000D03*
X113792000Y-126746000D03*
X97663000Y-116332000D03*
X125150000Y-94650000D03*
X122936000Y-94650000D03*
X97663000Y-114046000D03*
X122000000Y-100587500D03*
X95250000Y-113157000D03*
X120750000Y-94650000D03*
X117475000Y-116840000D03*
X119650000Y-94650000D03*
X112903000Y-118491000D03*
X92583000Y-119888000D03*
X116078000Y-118491000D03*
X109220000Y-97282000D03*
X115951000Y-117094000D03*
X109791500Y-110680500D03*
X88011000Y-117475000D03*
X108966000Y-112014000D03*
X108966000Y-98552000D03*
X113821600Y-116438500D03*
X84582000Y-116967000D03*
X118550000Y-94650000D03*
X126250000Y-94650000D03*
X119634000Y-126492000D03*
X119634000Y-127000000D03*
X119634000Y-127508000D03*
X85979000Y-97790000D03*
X95885000Y-101092000D03*
X107823000Y-114300000D03*
X116332000Y-125984000D03*
X107315000Y-114300000D03*
X107315000Y-113665000D03*
X107823000Y-112903000D03*
X116967000Y-125349000D03*
X107315000Y-112903000D03*
X116459000Y-125476000D03*
X107823000Y-113665000D03*
D40*
X109171000Y-101092000D02*
X110744000Y-101092000D01*
X109171000Y-102362000D02*
X110744000Y-102362000D01*
X99871000Y-102362000D02*
X98044000Y-102362000D01*
X110744000Y-104902000D02*
X109171000Y-104902000D01*
X98044000Y-106172000D02*
X99871000Y-106172000D01*
X98044000Y-103632000D02*
X99871000Y-103632000D01*
X84328000Y-126873000D02*
X83627000Y-126873000D01*
X98044000Y-104902000D02*
X99871000Y-104902000D01*
X110744000Y-103632000D02*
X109171000Y-103632000D01*
X83627000Y-126873000D02*
X83000000Y-127500000D01*
X110744000Y-106172000D02*
X109171000Y-106172000D01*
X87505500Y-126494500D02*
X86500000Y-127500000D01*
X91305000Y-127500000D02*
X91694000Y-127889000D01*
X99871000Y-98552000D02*
X102489000Y-98552000D01*
X90000000Y-127500000D02*
X91305000Y-127500000D01*
X97676000Y-98552000D02*
X99871000Y-98552000D01*
X123087500Y-111000000D02*
X123087500Y-112647700D01*
X123087500Y-112647700D02*
X120295400Y-115439800D01*
X124912500Y-108912500D02*
X124500000Y-108500000D01*
X124912500Y-111000000D02*
X124912500Y-108912500D01*
X124912500Y-111000000D02*
X128810000Y-111000000D01*
X128810000Y-111000000D02*
X129000000Y-111190000D01*
X88460500Y-113087500D02*
X90000000Y-113087500D01*
X90000000Y-113087500D02*
X90000000Y-110912500D01*
X90000000Y-110912500D02*
X97210600Y-110912500D01*
X86175000Y-115373000D02*
X88460500Y-113087500D01*
X97210600Y-110912500D02*
X97656600Y-111358500D01*
X128000000Y-95300000D02*
X127350000Y-94650000D01*
X128000000Y-100675000D02*
X128000000Y-95300000D01*
X125150000Y-99437500D02*
X124000000Y-100587500D01*
X125150000Y-94650000D02*
X125150000Y-99437500D01*
X97134500Y-118978500D02*
X95250000Y-117094000D01*
X97656600Y-118978500D02*
X97134500Y-118978500D01*
X95250000Y-117094000D02*
X95250000Y-113157000D01*
X120750000Y-99837500D02*
X120000000Y-100587500D01*
X120750000Y-94650000D02*
X120750000Y-99837500D01*
X119650000Y-98937500D02*
X118000000Y-100587500D01*
X115336500Y-121518500D02*
X117475000Y-119380000D01*
X119650000Y-94650000D02*
X119650000Y-98937500D01*
X117475000Y-119380000D02*
X117475000Y-116840000D01*
X113821600Y-121518500D02*
X115336500Y-121518500D01*
X83625000Y-93912500D02*
X83500000Y-93787500D01*
X86000000Y-93912500D02*
X83625000Y-93912500D01*
X113821600Y-124058500D02*
X118872000Y-119008100D01*
X118872000Y-115189000D02*
X118183000Y-114500000D01*
X118183000Y-114500000D02*
X117704600Y-114500000D01*
X118872000Y-119008100D02*
X118872000Y-115189000D01*
X116459000Y-118110000D02*
X116459000Y-113995900D01*
X116459000Y-113995900D02*
X113821600Y-111358500D01*
X116078000Y-118491000D02*
X116459000Y-118110000D01*
X87690000Y-119888000D02*
X92583000Y-119888000D01*
X86302000Y-118500000D02*
X87690000Y-119888000D01*
X109791500Y-111950500D02*
X112014000Y-114173000D01*
X113547100Y-114173000D02*
X113821600Y-113898500D01*
X109791500Y-110680500D02*
X109791500Y-111950500D01*
X115951000Y-116027900D02*
X113821600Y-113898500D01*
X115951000Y-117094000D02*
X115951000Y-116027900D01*
X112014000Y-114173000D02*
X113547100Y-114173000D01*
X113390500Y-116438500D02*
X113821600Y-116438500D01*
X108966000Y-112014000D02*
X113390500Y-116438500D01*
X118550000Y-94650000D02*
X118550000Y-98037500D01*
X118550000Y-98037500D02*
X116000000Y-100587500D01*
X126250000Y-100337500D02*
X126000000Y-100587500D01*
X126250000Y-94650000D02*
X126250000Y-100337500D01*
X86000000Y-92087500D02*
X89047500Y-92087500D01*
X89047500Y-92087500D02*
X89500000Y-92540000D01*
X113411000Y-101981000D02*
X113411000Y-103378000D01*
X111252000Y-99822000D02*
X113411000Y-101981000D01*
X109171000Y-99822000D02*
X111252000Y-99822000D01*
X95631000Y-97282000D02*
X99871000Y-97282000D01*
X94361000Y-96012000D02*
X89575500Y-96012000D01*
X94361000Y-96012000D02*
X95631000Y-97282000D01*
X84539000Y-100500000D02*
X88039000Y-97000000D01*
X88039000Y-97000000D02*
X88587500Y-97000000D01*
X89575500Y-96012000D02*
X88587500Y-97000000D01*
X84000000Y-100500000D02*
X84539000Y-100500000D01*
X91821000Y-99822000D02*
X91440000Y-100203000D01*
X84000000Y-103500000D02*
X88500000Y-99000000D01*
X88500000Y-99000000D02*
X88587500Y-99000000D01*
X99871000Y-99822000D02*
X91821000Y-99822000D01*
X89790500Y-100203000D02*
X88587500Y-99000000D01*
X91440000Y-100203000D02*
X89790500Y-100203000D01*
X85979000Y-97790000D02*
X85689000Y-97500000D01*
X99871000Y-101092000D02*
X95885000Y-101092000D01*
X85689000Y-97500000D02*
X84000000Y-97500000D01*
D41*
X117983000Y-127000000D02*
X116459000Y-125476000D01*
G04 #@! TA.AperFunction,Conductor*
G36*
X94127942Y-96632185D02*
G01*
X94148584Y-96648819D01*
X95008076Y-97508311D01*
X95041561Y-97569634D01*
X95036577Y-97639326D01*
X94994705Y-97695259D01*
X94985495Y-97701529D01*
X94940267Y-97729427D01*
X94820427Y-97849267D01*
X94820424Y-97849271D01*
X94731457Y-97993507D01*
X94731452Y-97993518D01*
X94678144Y-98154393D01*
X94668000Y-98253677D01*
X94668000Y-98302000D01*
X95494000Y-98302000D01*
X95561039Y-98321685D01*
X95606794Y-98374489D01*
X95618000Y-98426000D01*
X95618000Y-98678000D01*
X95598315Y-98745039D01*
X95545511Y-98790794D01*
X95494000Y-98802000D01*
X94668001Y-98802000D01*
X94668001Y-98850322D01*
X94678144Y-98949607D01*
X94714226Y-99058496D01*
X94716628Y-99128325D01*
X94680896Y-99188366D01*
X94618375Y-99219559D01*
X94596520Y-99221500D01*
X91741941Y-99221500D01*
X91703558Y-99231784D01*
X91703559Y-99231785D01*
X91589214Y-99262423D01*
X91589211Y-99262425D01*
X91586494Y-99263994D01*
X91583912Y-99264620D01*
X91581706Y-99265534D01*
X91581563Y-99265189D01*
X91518593Y-99280463D01*
X91452567Y-99257608D01*
X91409379Y-99202685D01*
X91400499Y-99156608D01*
X91400499Y-98713324D01*
X91390174Y-98612247D01*
X91335908Y-98448484D01*
X91245340Y-98301650D01*
X91123350Y-98179660D01*
X91003178Y-98105537D01*
X90956456Y-98053591D01*
X90945233Y-97984628D01*
X90973077Y-97920546D01*
X91003177Y-97894462D01*
X91123350Y-97820340D01*
X91245340Y-97698350D01*
X91335908Y-97551516D01*
X91390174Y-97387753D01*
X91400500Y-97286677D01*
X91400499Y-96736499D01*
X91420183Y-96669461D01*
X91472987Y-96623706D01*
X91524499Y-96612500D01*
X94060903Y-96612500D01*
X94127942Y-96632185D01*
G37*
G04 #@! TD.AperFunction*
G04 #@! TA.AperFunction,Conductor*
G36*
X127342539Y-96120184D02*
G01*
X127388294Y-96172988D01*
X127399500Y-96224499D01*
X127399500Y-99712598D01*
X127379815Y-99779637D01*
X127340598Y-99818136D01*
X127301650Y-99842159D01*
X127179660Y-99964149D01*
X127179657Y-99964153D01*
X127131585Y-100042090D01*
X127129064Y-100044356D01*
X127127998Y-100047576D01*
X127103274Y-100067553D01*
X127079637Y-100088815D01*
X127076289Y-100089359D01*
X127073653Y-100091490D01*
X127042053Y-100094930D01*
X127010674Y-100100036D01*
X127007564Y-100098685D01*
X127004194Y-100099052D01*
X126975750Y-100084861D01*
X126946593Y-100072193D01*
X126943806Y-100068925D01*
X126941673Y-100067861D01*
X126934507Y-100058019D01*
X126919490Y-100040409D01*
X126912780Y-100029135D01*
X126910908Y-100023484D01*
X126868461Y-99954667D01*
X126867943Y-99953796D01*
X126862781Y-99933687D01*
X126850500Y-99890380D01*
X126850500Y-96224499D01*
X126870185Y-96157460D01*
X126922989Y-96111705D01*
X126974495Y-96100499D01*
X127275500Y-96100499D01*
X127342539Y-96120184D01*
G37*
G04 #@! TD.AperFunction*
G04 #@! TA.AperFunction,Conductor*
G36*
X130487539Y-80022185D02*
G01*
X130533294Y-80074989D01*
X130544500Y-80126500D01*
X130544500Y-109915724D01*
X130524815Y-109982763D01*
X130472011Y-110028518D01*
X130402853Y-110038462D01*
X130346189Y-110014991D01*
X130270331Y-109958204D01*
X130270328Y-109958202D01*
X130135482Y-109907908D01*
X130135483Y-109907908D01*
X130075883Y-109901501D01*
X130075864Y-109901499D01*
X127827025Y-109901499D01*
X127742953Y-109912059D01*
X127742949Y-109912060D01*
X127609984Y-109967136D01*
X127543065Y-110019121D01*
X127543059Y-110019126D01*
X127199006Y-110363181D01*
X127137683Y-110396666D01*
X127111325Y-110399500D01*
X125874901Y-110399500D01*
X125807862Y-110379815D01*
X125769362Y-110340596D01*
X125745340Y-110301650D01*
X125623349Y-110179659D01*
X125571902Y-110147926D01*
X125525178Y-110095978D01*
X125513000Y-110042388D01*
X125513000Y-109273493D01*
X125532685Y-109206454D01*
X125536683Y-109200607D01*
X125569521Y-109155409D01*
X125569520Y-109155409D01*
X125569524Y-109155405D01*
X125658884Y-108980025D01*
X125719709Y-108792826D01*
X125736431Y-108687247D01*
X125750500Y-108598422D01*
X125750500Y-108401577D01*
X125719709Y-108207173D01*
X125691487Y-108120317D01*
X125658884Y-108019975D01*
X125658882Y-108019972D01*
X125658882Y-108019970D01*
X125569523Y-107844594D01*
X125453828Y-107685354D01*
X125314646Y-107546172D01*
X125155405Y-107430476D01*
X124980029Y-107341117D01*
X124792826Y-107280290D01*
X124598422Y-107249500D01*
X124598417Y-107249500D01*
X124401583Y-107249500D01*
X124401578Y-107249500D01*
X124207173Y-107280290D01*
X124019970Y-107341117D01*
X123844594Y-107430476D01*
X123753741Y-107496485D01*
X123685354Y-107546172D01*
X123685352Y-107546174D01*
X123685351Y-107546174D01*
X123546174Y-107685351D01*
X123546174Y-107685352D01*
X123546172Y-107685354D01*
X123496485Y-107753741D01*
X123430476Y-107844594D01*
X123341117Y-108019970D01*
X123280290Y-108207173D01*
X123249500Y-108401577D01*
X123249500Y-108598422D01*
X123280290Y-108792826D01*
X123341117Y-108980029D01*
X123430476Y-109155405D01*
X123546172Y-109314646D01*
X123685354Y-109453828D01*
X123844595Y-109569524D01*
X123927455Y-109611743D01*
X124019970Y-109658882D01*
X124019972Y-109658882D01*
X124019975Y-109658884D01*
X124207168Y-109719707D01*
X124207169Y-109719707D01*
X124207174Y-109719709D01*
X124207389Y-109719743D01*
X124207463Y-109719778D01*
X124211900Y-109720843D01*
X124211676Y-109721774D01*
X124238171Y-109734332D01*
X124269203Y-109748504D01*
X124269698Y-109749274D01*
X124270524Y-109749666D01*
X124288535Y-109778586D01*
X124306977Y-109807282D01*
X124307148Y-109808471D01*
X124307461Y-109808974D01*
X124312000Y-109842217D01*
X124312000Y-110042388D01*
X124292315Y-110109427D01*
X124253098Y-110147926D01*
X124201650Y-110179659D01*
X124201649Y-110179660D01*
X124087681Y-110293629D01*
X124026358Y-110327114D01*
X123956666Y-110322130D01*
X123912319Y-110293629D01*
X123798351Y-110179661D01*
X123798350Y-110179660D01*
X123651516Y-110089092D01*
X123487753Y-110034826D01*
X123487751Y-110034825D01*
X123386678Y-110024500D01*
X122788330Y-110024500D01*
X122788312Y-110024501D01*
X122687247Y-110034825D01*
X122523484Y-110089092D01*
X122523481Y-110089093D01*
X122376648Y-110179661D01*
X122254661Y-110301648D01*
X122164093Y-110448481D01*
X122164091Y-110448486D01*
X122154917Y-110476172D01*
X122109826Y-110612247D01*
X122109826Y-110612248D01*
X122109825Y-110612248D01*
X122099500Y-110713315D01*
X122099500Y-111129394D01*
X122079815Y-111196433D01*
X122027011Y-111242188D01*
X122022953Y-111243955D01*
X121969191Y-111266223D01*
X121969182Y-111266228D01*
X121854458Y-111342885D01*
X121854454Y-111342888D01*
X121756888Y-111440454D01*
X121756885Y-111440458D01*
X121680228Y-111555182D01*
X121680221Y-111555195D01*
X121627421Y-111682667D01*
X121627418Y-111682677D01*
X121600500Y-111818004D01*
X121600500Y-111818007D01*
X121600500Y-111955993D01*
X121600500Y-111955995D01*
X121600499Y-111955995D01*
X121627418Y-112091322D01*
X121627421Y-112091332D01*
X121680221Y-112218804D01*
X121680228Y-112218817D01*
X121756885Y-112333541D01*
X121756888Y-112333545D01*
X121854454Y-112431111D01*
X121854458Y-112431114D01*
X121969182Y-112507771D01*
X121969195Y-112507778D01*
X122086942Y-112556550D01*
X122141346Y-112600391D01*
X122163411Y-112666685D01*
X122146132Y-112734384D01*
X122127171Y-112758792D01*
X121635729Y-113250234D01*
X121574406Y-113283719D01*
X121504714Y-113278735D01*
X121448781Y-113236863D01*
X121426711Y-113180765D01*
X121426276Y-113180868D01*
X121425560Y-113177840D01*
X121424757Y-113175800D01*
X121424491Y-113173317D01*
X121401956Y-113112898D01*
X121374197Y-113038471D01*
X121374193Y-113038464D01*
X121287947Y-112923255D01*
X121287944Y-112923252D01*
X121172735Y-112837006D01*
X121172728Y-112837002D01*
X121037882Y-112786708D01*
X121037883Y-112786708D01*
X120978283Y-112780301D01*
X120978281Y-112780300D01*
X120978273Y-112780300D01*
X120978264Y-112780300D01*
X119612529Y-112780300D01*
X119612523Y-112780301D01*
X119552916Y-112786708D01*
X119418071Y-112837002D01*
X119418064Y-112837006D01*
X119302855Y-112923252D01*
X119302852Y-112923255D01*
X119216606Y-113038464D01*
X119216602Y-113038471D01*
X119176497Y-113146001D01*
X119166309Y-113173317D01*
X119159900Y-113232927D01*
X119159900Y-113232934D01*
X119159900Y-113232935D01*
X119159900Y-113887470D01*
X119159901Y-113887476D01*
X119166308Y-113947083D01*
X119216602Y-114081928D01*
X119216606Y-114081935D01*
X119302852Y-114197144D01*
X119302855Y-114197147D01*
X119418064Y-114283393D01*
X119418071Y-114283397D01*
X119552917Y-114333691D01*
X119552916Y-114333691D01*
X119559844Y-114334435D01*
X119612527Y-114340100D01*
X120246503Y-114340099D01*
X120267748Y-114346337D01*
X120289836Y-114347917D01*
X120300618Y-114355988D01*
X120313541Y-114359783D01*
X120328042Y-114376519D01*
X120345769Y-114389789D01*
X120350475Y-114402407D01*
X120359296Y-114412587D01*
X120362447Y-114434505D01*
X120370186Y-114455253D01*
X120367323Y-114468413D01*
X120369240Y-114481746D01*
X120360040Y-114501889D01*
X120355334Y-114523526D01*
X120342065Y-114541251D01*
X120340215Y-114545302D01*
X120334183Y-114551780D01*
X120262382Y-114623581D01*
X120201059Y-114657066D01*
X120174701Y-114659900D01*
X119612529Y-114659900D01*
X119612523Y-114659901D01*
X119552916Y-114666308D01*
X119418071Y-114716602D01*
X119418063Y-114716607D01*
X119407316Y-114724651D01*
X119407315Y-114724653D01*
X119407313Y-114724653D01*
X119407298Y-114724665D01*
X119375071Y-114736683D01*
X119341853Y-114749077D01*
X119341843Y-114749074D01*
X119341832Y-114749079D01*
X119306403Y-114741369D01*
X119273578Y-114734233D01*
X119273566Y-114734224D01*
X119273560Y-114734223D01*
X119245322Y-114713085D01*
X119236384Y-114704149D01*
X119236383Y-114704147D01*
X119236374Y-114704139D01*
X118876418Y-114344183D01*
X118842933Y-114282860D01*
X118840099Y-114256502D01*
X118840099Y-114172729D01*
X118840098Y-114172723D01*
X118840056Y-114172333D01*
X118833691Y-114113117D01*
X118818622Y-114072717D01*
X118813639Y-114003027D01*
X118818624Y-113986049D01*
X118833198Y-113946976D01*
X118839599Y-113887444D01*
X118839600Y-113887427D01*
X118839600Y-113810200D01*
X118667814Y-113810200D01*
X118600775Y-113790515D01*
X118593502Y-113785466D01*
X118581931Y-113776804D01*
X118581928Y-113776802D01*
X118447082Y-113726508D01*
X118447083Y-113726508D01*
X118387483Y-113720101D01*
X118387481Y-113720100D01*
X118387473Y-113720100D01*
X118387465Y-113720100D01*
X117828600Y-113720100D01*
X117761561Y-113700415D01*
X117715806Y-113647611D01*
X117704600Y-113596100D01*
X117704600Y-113560200D01*
X117578600Y-113560200D01*
X117511561Y-113540515D01*
X117465806Y-113487711D01*
X117454600Y-113436200D01*
X117454600Y-113310200D01*
X117954600Y-113310200D01*
X118839600Y-113310200D01*
X118839600Y-113232972D01*
X118839599Y-113232955D01*
X118833198Y-113173427D01*
X118833196Y-113173420D01*
X118782954Y-113038713D01*
X118782950Y-113038706D01*
X118696790Y-112923612D01*
X118696787Y-112923609D01*
X118581693Y-112837449D01*
X118581686Y-112837445D01*
X118446979Y-112787203D01*
X118446972Y-112787201D01*
X118387444Y-112780800D01*
X117954600Y-112780800D01*
X117954600Y-113310200D01*
X117454600Y-113310200D01*
X117454600Y-112780800D01*
X117021755Y-112780800D01*
X116962227Y-112787201D01*
X116962220Y-112787203D01*
X116827513Y-112837445D01*
X116827506Y-112837449D01*
X116712412Y-112923609D01*
X116712409Y-112923612D01*
X116626249Y-113038706D01*
X116626246Y-113038712D01*
X116618913Y-113058372D01*
X116577040Y-113114304D01*
X116511575Y-113138719D01*
X116443302Y-113123866D01*
X116415051Y-113102716D01*
X115662852Y-112350517D01*
X115629367Y-112289194D01*
X115631317Y-112228724D01*
X115634152Y-112218817D01*
X115686486Y-112035918D01*
X115697100Y-111916537D01*
X115697099Y-111298322D01*
X117275001Y-111298322D01*
X117285144Y-111397607D01*
X117338452Y-111558481D01*
X117338457Y-111558492D01*
X117427424Y-111702728D01*
X117427427Y-111702732D01*
X117547267Y-111822572D01*
X117547271Y-111822575D01*
X117691507Y-111911542D01*
X117691518Y-111911547D01*
X117852393Y-111964855D01*
X117951683Y-111974999D01*
X117975000Y-111974998D01*
X117975000Y-111250000D01*
X117275001Y-111250000D01*
X117275001Y-111298322D01*
X115697099Y-111298322D01*
X115697099Y-110800464D01*
X115688317Y-110701677D01*
X117275000Y-110701677D01*
X117275000Y-110750000D01*
X117975000Y-110750000D01*
X117975000Y-110025000D01*
X118475000Y-110025000D01*
X118475000Y-111974999D01*
X118498308Y-111974999D01*
X118498322Y-111974998D01*
X118597607Y-111964855D01*
X118758481Y-111911547D01*
X118758492Y-111911542D01*
X118902731Y-111822573D01*
X118911959Y-111813345D01*
X118973279Y-111779856D01*
X119042971Y-111784835D01*
X119087327Y-111813339D01*
X119096955Y-111822967D01*
X119096959Y-111822970D01*
X119241294Y-111911998D01*
X119241297Y-111911999D01*
X119241303Y-111912003D01*
X119402292Y-111965349D01*
X119501655Y-111975500D01*
X120048344Y-111975499D01*
X120048352Y-111975498D01*
X120048355Y-111975498D01*
X120102760Y-111969940D01*
X120147708Y-111965349D01*
X120308697Y-111912003D01*
X120453044Y-111822968D01*
X120572968Y-111703044D01*
X120662003Y-111558697D01*
X120715349Y-111397708D01*
X120725500Y-111298345D01*
X120725499Y-110701656D01*
X120724750Y-110694328D01*
X120715349Y-110602292D01*
X120715348Y-110602289D01*
X120701001Y-110558993D01*
X120662003Y-110441303D01*
X120661999Y-110441297D01*
X120661998Y-110441294D01*
X120572970Y-110296959D01*
X120572967Y-110296955D01*
X120453044Y-110177032D01*
X120453040Y-110177029D01*
X120308705Y-110088001D01*
X120308699Y-110087998D01*
X120308697Y-110087997D01*
X120288755Y-110081389D01*
X120147709Y-110034651D01*
X120048346Y-110024500D01*
X119501662Y-110024500D01*
X119501644Y-110024501D01*
X119402292Y-110034650D01*
X119402289Y-110034651D01*
X119241305Y-110087996D01*
X119241294Y-110088001D01*
X119096959Y-110177029D01*
X119096953Y-110177033D01*
X119087324Y-110186663D01*
X119026000Y-110220146D01*
X118956308Y-110215159D01*
X118911965Y-110186660D01*
X118902732Y-110177427D01*
X118902728Y-110177424D01*
X118758492Y-110088457D01*
X118758481Y-110088452D01*
X118597606Y-110035144D01*
X118498322Y-110025000D01*
X118475000Y-110025000D01*
X117975000Y-110025000D01*
X117975000Y-110024999D01*
X117951693Y-110025000D01*
X117951674Y-110025001D01*
X117852392Y-110035144D01*
X117691518Y-110088452D01*
X117691507Y-110088457D01*
X117547271Y-110177424D01*
X117547267Y-110177427D01*
X117427427Y-110297267D01*
X117427424Y-110297271D01*
X117338457Y-110441507D01*
X117338452Y-110441518D01*
X117285144Y-110602393D01*
X117275000Y-110701677D01*
X115688317Y-110701677D01*
X115686486Y-110681082D01*
X115630509Y-110485451D01*
X115536298Y-110305093D01*
X115462967Y-110215159D01*
X115407709Y-110147390D01*
X115269659Y-110034826D01*
X115250007Y-110018802D01*
X115069649Y-109924591D01*
X115069648Y-109924590D01*
X115069645Y-109924589D01*
X114952429Y-109891050D01*
X114874018Y-109868614D01*
X114874015Y-109868613D01*
X114874013Y-109868613D01*
X114807702Y-109862717D01*
X114754637Y-109858000D01*
X114754632Y-109858000D01*
X112888571Y-109858000D01*
X112888565Y-109858000D01*
X112888564Y-109858001D01*
X112876916Y-109859036D01*
X112769184Y-109868613D01*
X112573554Y-109924589D01*
X112512146Y-109956666D01*
X112393193Y-110018802D01*
X112393191Y-110018803D01*
X112393190Y-110018804D01*
X112235490Y-110147390D01*
X112109711Y-110301648D01*
X112106902Y-110305093D01*
X112067871Y-110379815D01*
X112012689Y-110485454D01*
X111956714Y-110681083D01*
X111956713Y-110681086D01*
X111946100Y-110800466D01*
X111946100Y-111916528D01*
X111946101Y-111916534D01*
X111956713Y-112035915D01*
X112012689Y-112231545D01*
X112012690Y-112231546D01*
X112012691Y-112231549D01*
X112106902Y-112411907D01*
X112156726Y-112473011D01*
X112219615Y-112550139D01*
X112246724Y-112614536D01*
X112234715Y-112683365D01*
X112219615Y-112706861D01*
X112113135Y-112837449D01*
X112106902Y-112845093D01*
X112017410Y-113016417D01*
X112012690Y-113025453D01*
X112004562Y-113053860D01*
X111967194Y-113112898D01*
X111903840Y-113142361D01*
X111834615Y-113132895D01*
X111797665Y-113107429D01*
X110428319Y-111738083D01*
X110394834Y-111676760D01*
X110392000Y-111650402D01*
X110392000Y-111080269D01*
X110410246Y-111018127D01*
X110409406Y-111017678D01*
X110411564Y-111013640D01*
X110411685Y-111013230D01*
X110412221Y-111012410D01*
X110412271Y-111012316D01*
X110412275Y-111012311D01*
X110465080Y-110884828D01*
X110481861Y-110800464D01*
X110492000Y-110749495D01*
X110492000Y-110611504D01*
X110465081Y-110476177D01*
X110465080Y-110476176D01*
X110465080Y-110476172D01*
X110450726Y-110441518D01*
X110412278Y-110348695D01*
X110412271Y-110348682D01*
X110335614Y-110233958D01*
X110335611Y-110233954D01*
X110238045Y-110136388D01*
X110238041Y-110136385D01*
X110123317Y-110059728D01*
X110123304Y-110059721D01*
X109995832Y-110006921D01*
X109995822Y-110006918D01*
X109860495Y-109980000D01*
X109860493Y-109980000D01*
X109722507Y-109980000D01*
X109722505Y-109980000D01*
X109587177Y-110006918D01*
X109587167Y-110006921D01*
X109459695Y-110059721D01*
X109459682Y-110059728D01*
X109344958Y-110136385D01*
X109344954Y-110136388D01*
X109247388Y-110233954D01*
X109247385Y-110233958D01*
X109170728Y-110348682D01*
X109170721Y-110348695D01*
X109117921Y-110476167D01*
X109117918Y-110476177D01*
X109091000Y-110611504D01*
X109091000Y-110611507D01*
X109091000Y-110749493D01*
X109091000Y-110749495D01*
X109090999Y-110749495D01*
X109117918Y-110884822D01*
X109117921Y-110884832D01*
X109170722Y-111012306D01*
X109173594Y-111017678D01*
X109172292Y-111018374D01*
X109175752Y-111029423D01*
X109185977Y-111045334D01*
X109190428Y-111076291D01*
X109190980Y-111078054D01*
X109191000Y-111080269D01*
X109191000Y-111193437D01*
X109171315Y-111260476D01*
X109118511Y-111306231D01*
X109049353Y-111316175D01*
X109042809Y-111315054D01*
X109034997Y-111313500D01*
X109034993Y-111313500D01*
X108897007Y-111313500D01*
X108897005Y-111313500D01*
X108761677Y-111340418D01*
X108761667Y-111340421D01*
X108634195Y-111393221D01*
X108634182Y-111393228D01*
X108519458Y-111469885D01*
X108519454Y-111469888D01*
X108421888Y-111567454D01*
X108421885Y-111567458D01*
X108345228Y-111682182D01*
X108345223Y-111682191D01*
X108335012Y-111706843D01*
X108291169Y-111761245D01*
X108224874Y-111783308D01*
X108166654Y-111771109D01*
X108161604Y-111768677D01*
X107996658Y-111710959D01*
X107996648Y-111710957D01*
X107866558Y-111696300D01*
X107866552Y-111696300D01*
X107229448Y-111696300D01*
X107229441Y-111696300D01*
X107099351Y-111710957D01*
X107099341Y-111710959D01*
X106934395Y-111768677D01*
X106786423Y-111861653D01*
X106662853Y-111985223D01*
X106569877Y-112133195D01*
X106512159Y-112298141D01*
X106512157Y-112298151D01*
X106497500Y-112428241D01*
X106497500Y-114465358D01*
X106512157Y-114595448D01*
X106512159Y-114595458D01*
X106565958Y-114749203D01*
X106569878Y-114760406D01*
X106662853Y-114908376D01*
X106786424Y-115031947D01*
X106934394Y-115124922D01*
X107099343Y-115182641D01*
X107099349Y-115182641D01*
X107099351Y-115182642D01*
X107140750Y-115187306D01*
X107229442Y-115197299D01*
X107229445Y-115197300D01*
X107229448Y-115197300D01*
X107866555Y-115197300D01*
X107866556Y-115197299D01*
X107996657Y-115182641D01*
X108161606Y-115124922D01*
X108309576Y-115031947D01*
X108433147Y-114908376D01*
X108526122Y-114760406D01*
X108583841Y-114595457D01*
X108598500Y-114465352D01*
X108598500Y-112805276D01*
X108605524Y-112781354D01*
X108608455Y-112756597D01*
X108615197Y-112748411D01*
X108618185Y-112738237D01*
X108637024Y-112721912D01*
X108652877Y-112702667D01*
X108662975Y-112699425D01*
X108670989Y-112692482D01*
X108695665Y-112688933D01*
X108719404Y-112681315D01*
X108734455Y-112683356D01*
X108740147Y-112682538D01*
X108754453Y-112685464D01*
X108760379Y-112687044D01*
X108761672Y-112687580D01*
X108764485Y-112688139D01*
X108768334Y-112689166D01*
X108794906Y-112705320D01*
X108822474Y-112719737D01*
X108824062Y-112721297D01*
X111909781Y-115807016D01*
X111943266Y-115868339D01*
X111946100Y-115894697D01*
X111946100Y-116996528D01*
X111946101Y-116996534D01*
X111956713Y-117115915D01*
X112012689Y-117311545D01*
X112012690Y-117311548D01*
X112012691Y-117311549D01*
X112106902Y-117491907D01*
X112133327Y-117524315D01*
X112219615Y-117630139D01*
X112246724Y-117694536D01*
X112234715Y-117763365D01*
X112219615Y-117786861D01*
X112108890Y-117922655D01*
X112106902Y-117925093D01*
X112083098Y-117970664D01*
X112012689Y-118105454D01*
X111956714Y-118301083D01*
X111956713Y-118301086D01*
X111946100Y-118420466D01*
X111946100Y-119536528D01*
X111946100Y-119536533D01*
X111946101Y-119536536D01*
X111946266Y-119538388D01*
X111956713Y-119655915D01*
X112012689Y-119851545D01*
X112012690Y-119851548D01*
X112012691Y-119851549D01*
X112106902Y-120031907D01*
X112152091Y-120087327D01*
X112219615Y-120170139D01*
X112246724Y-120234536D01*
X112234715Y-120303365D01*
X112219615Y-120326861D01*
X112121188Y-120447573D01*
X112106902Y-120465093D01*
X112074436Y-120527246D01*
X112012689Y-120645454D01*
X111974247Y-120779806D01*
X111958358Y-120835339D01*
X111956714Y-120841083D01*
X111956713Y-120841086D01*
X111946100Y-120960466D01*
X111946100Y-122076528D01*
X111946101Y-122076534D01*
X111956713Y-122195915D01*
X112012689Y-122391545D01*
X112012690Y-122391548D01*
X112012691Y-122391549D01*
X112106902Y-122571907D01*
X112106904Y-122571909D01*
X112219615Y-122710139D01*
X112246724Y-122774536D01*
X112234715Y-122843365D01*
X112219615Y-122866861D01*
X112123127Y-122985195D01*
X112106902Y-123005093D01*
X112074836Y-123066481D01*
X112012689Y-123185454D01*
X111956714Y-123381083D01*
X111956713Y-123381086D01*
X111946100Y-123500466D01*
X111946100Y-124616528D01*
X111946101Y-124616534D01*
X111956713Y-124735915D01*
X112012689Y-124931545D01*
X112012690Y-124931548D01*
X112012691Y-124931549D01*
X112106902Y-125111907D01*
X112106904Y-125111909D01*
X112219615Y-125250139D01*
X112246724Y-125314536D01*
X112234715Y-125383365D01*
X112219615Y-125406861D01*
X112106907Y-125545087D01*
X112106902Y-125545093D01*
X112059796Y-125635272D01*
X112012689Y-125725454D01*
X111956714Y-125921083D01*
X111956713Y-125921086D01*
X111954108Y-125950388D01*
X111946141Y-126040008D01*
X111946100Y-126040466D01*
X111946100Y-127156528D01*
X111946101Y-127156534D01*
X111956713Y-127275915D01*
X112012689Y-127471545D01*
X112012690Y-127471548D01*
X112012691Y-127471549D01*
X112106902Y-127651907D01*
X112106904Y-127651909D01*
X112235490Y-127809609D01*
X112289384Y-127853553D01*
X112393193Y-127938198D01*
X112573551Y-128032409D01*
X112769182Y-128088386D01*
X112888563Y-128099000D01*
X114754636Y-128098999D01*
X114874018Y-128088386D01*
X115069649Y-128032409D01*
X115250007Y-127938198D01*
X115407709Y-127809609D01*
X115536298Y-127651907D01*
X115630509Y-127471549D01*
X115686486Y-127275918D01*
X115697100Y-127156537D01*
X115697099Y-126781933D01*
X115716783Y-126714896D01*
X115769587Y-126669141D01*
X115838746Y-126659197D01*
X115902301Y-126688222D01*
X115908780Y-126694254D01*
X116945795Y-127731269D01*
X116979280Y-127792592D01*
X116981798Y-127810102D01*
X116982644Y-127821940D01*
X117011338Y-127919660D01*
X117016206Y-127936239D01*
X117023182Y-127959994D01*
X117100967Y-128081030D01*
X117100971Y-128081034D01*
X117186497Y-128155143D01*
X117209706Y-128175254D01*
X117242269Y-128190125D01*
X117340580Y-128235023D01*
X117340583Y-128235023D01*
X117340584Y-128235024D01*
X117483000Y-128255500D01*
X117483003Y-128255500D01*
X118482984Y-128255500D01*
X118483000Y-128255500D01*
X118546522Y-128251493D01*
X118546526Y-128251492D01*
X118546527Y-128251492D01*
X118566755Y-128245919D01*
X118593104Y-128238660D01*
X118643680Y-128235469D01*
X118783000Y-128255500D01*
X118783003Y-128255500D01*
X119933000Y-128255500D01*
X120004940Y-128250355D01*
X120142992Y-128209819D01*
X120264032Y-128132031D01*
X120358254Y-128023294D01*
X120418024Y-127892416D01*
X120438500Y-127750000D01*
X120438500Y-126250000D01*
X120433355Y-126178060D01*
X120428843Y-126162695D01*
X120424442Y-126147707D01*
X120392819Y-126040008D01*
X120341263Y-125959786D01*
X120315032Y-125918969D01*
X120315028Y-125918965D01*
X120206299Y-125824750D01*
X120206297Y-125824748D01*
X120206294Y-125824746D01*
X120206290Y-125824744D01*
X120075419Y-125764976D01*
X120075414Y-125764975D01*
X119933000Y-125744500D01*
X118783000Y-125744500D01*
X118782978Y-125744500D01*
X118702669Y-125750923D01*
X118702658Y-125750925D01*
X118674253Y-125759787D01*
X118662463Y-125760729D01*
X118654972Y-125764151D01*
X118619678Y-125764151D01*
X118539001Y-125752551D01*
X118475446Y-125723526D01*
X118468968Y-125717494D01*
X117273648Y-124522174D01*
X117273646Y-124522172D01*
X117114405Y-124406476D01*
X117065385Y-124381499D01*
X116939030Y-124317117D01*
X116751826Y-124256290D01*
X116557422Y-124225500D01*
X116557417Y-124225500D01*
X116360583Y-124225500D01*
X116360578Y-124225500D01*
X116166173Y-124256290D01*
X115978966Y-124317118D01*
X115877393Y-124368873D01*
X115808724Y-124381769D01*
X115743984Y-124355492D01*
X115703727Y-124298386D01*
X115697099Y-124258388D01*
X115697099Y-123639995D01*
X117028499Y-123639995D01*
X117055418Y-123775322D01*
X117055421Y-123775332D01*
X117108221Y-123902804D01*
X117108228Y-123902817D01*
X117184885Y-124017541D01*
X117184888Y-124017545D01*
X117282454Y-124115111D01*
X117282458Y-124115114D01*
X117397182Y-124191771D01*
X117397195Y-124191778D01*
X117524667Y-124244578D01*
X117524672Y-124244580D01*
X117524676Y-124244580D01*
X117524677Y-124244581D01*
X117660004Y-124271500D01*
X117660007Y-124271500D01*
X117797995Y-124271500D01*
X117889041Y-124253389D01*
X117933328Y-124244580D01*
X117999047Y-124217357D01*
X118068515Y-124209888D01*
X118093951Y-124217357D01*
X118121556Y-124228791D01*
X118159666Y-124244578D01*
X118159669Y-124244578D01*
X118159672Y-124244580D01*
X118159676Y-124244580D01*
X118159677Y-124244581D01*
X118295004Y-124271500D01*
X118295007Y-124271500D01*
X118432995Y-124271500D01*
X118524041Y-124253389D01*
X118568328Y-124244580D01*
X118675343Y-124200253D01*
X118695804Y-124191778D01*
X118695804Y-124191777D01*
X118695811Y-124191775D01*
X118810542Y-124115114D01*
X118908114Y-124017542D01*
X118984775Y-123902811D01*
X119037580Y-123775328D01*
X119052660Y-123699516D01*
X119064500Y-123639995D01*
X119064500Y-123502004D01*
X119040447Y-123381086D01*
X119037580Y-123366672D01*
X119034057Y-123358166D01*
X124474500Y-123358166D01*
X124474500Y-123641833D01*
X124506258Y-123923690D01*
X124506259Y-123923699D01*
X124506260Y-123923703D01*
X124515624Y-123964728D01*
X124569380Y-124200253D01*
X124569383Y-124200261D01*
X124663067Y-124467993D01*
X124786139Y-124723554D01*
X124786141Y-124723557D01*
X124937056Y-124963737D01*
X125113914Y-125185510D01*
X125314490Y-125386086D01*
X125536263Y-125562944D01*
X125776443Y-125713859D01*
X126032010Y-125836934D01*
X126137162Y-125873728D01*
X126299738Y-125930616D01*
X126299746Y-125930619D01*
X126299749Y-125930619D01*
X126299750Y-125930620D01*
X126576297Y-125993740D01*
X126858166Y-126025499D01*
X126858167Y-126025500D01*
X126858171Y-126025500D01*
X127141833Y-126025500D01*
X127141833Y-126025499D01*
X127423703Y-125993740D01*
X127700250Y-125930620D01*
X127967990Y-125836934D01*
X128223557Y-125713859D01*
X128463737Y-125562944D01*
X128685510Y-125386086D01*
X128886086Y-125185510D01*
X129062944Y-124963737D01*
X129213859Y-124723557D01*
X129336934Y-124467990D01*
X129430620Y-124200250D01*
X129493740Y-123923703D01*
X129525500Y-123641829D01*
X129525500Y-123358171D01*
X129493740Y-123076297D01*
X129430620Y-122799750D01*
X129426683Y-122788500D01*
X129383231Y-122664321D01*
X129336934Y-122532010D01*
X129213859Y-122276443D01*
X129062944Y-122036263D01*
X128886086Y-121814490D01*
X128685510Y-121613914D01*
X128463737Y-121437056D01*
X128289779Y-121327751D01*
X128223554Y-121286139D01*
X127967993Y-121163067D01*
X127700261Y-121069383D01*
X127700253Y-121069380D01*
X127492839Y-121022040D01*
X127423703Y-121006260D01*
X127423699Y-121006259D01*
X127423690Y-121006258D01*
X127141833Y-120974500D01*
X127141829Y-120974500D01*
X126858171Y-120974500D01*
X126858167Y-120974500D01*
X126576309Y-121006258D01*
X126576297Y-121006260D01*
X126299746Y-121069380D01*
X126299738Y-121069383D01*
X126032006Y-121163067D01*
X125776445Y-121286139D01*
X125536264Y-121437055D01*
X125314490Y-121613913D01*
X125113913Y-121814490D01*
X124937055Y-122036264D01*
X124786139Y-122276445D01*
X124663067Y-122532006D01*
X124569383Y-122799738D01*
X124569380Y-122799746D01*
X124506260Y-123076297D01*
X124506258Y-123076309D01*
X124474500Y-123358166D01*
X119034057Y-123358166D01*
X118999609Y-123275001D01*
X118984778Y-123239195D01*
X118984771Y-123239182D01*
X118908114Y-123124458D01*
X118908111Y-123124454D01*
X118810545Y-123026888D01*
X118810541Y-123026885D01*
X118695817Y-122950228D01*
X118695804Y-122950221D01*
X118568332Y-122897421D01*
X118568322Y-122897418D01*
X118432995Y-122870500D01*
X118432993Y-122870500D01*
X118295007Y-122870500D01*
X118295005Y-122870500D01*
X118159677Y-122897418D01*
X118159676Y-122897419D01*
X118159675Y-122897419D01*
X118159672Y-122897420D01*
X118093952Y-122924642D01*
X118024482Y-122932110D01*
X117999048Y-122924642D01*
X117933328Y-122897420D01*
X117933323Y-122897419D01*
X117933322Y-122897418D01*
X117797995Y-122870500D01*
X117797993Y-122870500D01*
X117660007Y-122870500D01*
X117660005Y-122870500D01*
X117524677Y-122897418D01*
X117524667Y-122897421D01*
X117397195Y-122950221D01*
X117397182Y-122950228D01*
X117282458Y-123026885D01*
X117282454Y-123026888D01*
X117184888Y-123124454D01*
X117184885Y-123124458D01*
X117108228Y-123239182D01*
X117108221Y-123239195D01*
X117055421Y-123366667D01*
X117055418Y-123366677D01*
X117028500Y-123502004D01*
X117028500Y-123502007D01*
X117028500Y-123639993D01*
X117028500Y-123639995D01*
X117028499Y-123639995D01*
X115697099Y-123639995D01*
X115697099Y-123500470D01*
X115697099Y-123500464D01*
X115686486Y-123381082D01*
X115631316Y-123188271D01*
X115631799Y-123118406D01*
X115662848Y-123066485D01*
X118968544Y-119760789D01*
X119029863Y-119727307D01*
X119099555Y-119732291D01*
X119148245Y-119765361D01*
X119298325Y-119931534D01*
X119312176Y-119960284D01*
X119327467Y-119988288D01*
X119327234Y-119991541D01*
X119328650Y-119994480D01*
X119324759Y-120026145D01*
X119322483Y-120057980D01*
X119320462Y-120061124D01*
X119320130Y-120063828D01*
X119313932Y-120071284D01*
X119293983Y-120102327D01*
X119179659Y-120216651D01*
X119089093Y-120363481D01*
X119089091Y-120363486D01*
X119085924Y-120373043D01*
X119034826Y-120527247D01*
X119034826Y-120527248D01*
X119034825Y-120527248D01*
X119024500Y-120628315D01*
X119024500Y-121226669D01*
X119024501Y-121226687D01*
X119034825Y-121327752D01*
X119068666Y-121429875D01*
X119084121Y-121476516D01*
X119089092Y-121491515D01*
X119089093Y-121491518D01*
X119123395Y-121547129D01*
X119179660Y-121638350D01*
X119301650Y-121760340D01*
X119448484Y-121850908D01*
X119612247Y-121905174D01*
X119713323Y-121915500D01*
X120286676Y-121915499D01*
X120286684Y-121915498D01*
X120286687Y-121915498D01*
X120342030Y-121909844D01*
X120387753Y-121905174D01*
X120551516Y-121850908D01*
X120698350Y-121760340D01*
X120820340Y-121638350D01*
X120910908Y-121491516D01*
X120965174Y-121327753D01*
X120975500Y-121226677D01*
X120975499Y-120628324D01*
X120973967Y-120613330D01*
X120973965Y-120613315D01*
X121524500Y-120613315D01*
X121524500Y-121211669D01*
X121524501Y-121211687D01*
X121534825Y-121312752D01*
X121558750Y-121384951D01*
X121589092Y-121476516D01*
X121679660Y-121623350D01*
X121801650Y-121745340D01*
X121948484Y-121835908D01*
X122112247Y-121890174D01*
X122213323Y-121900500D01*
X122786676Y-121900499D01*
X122786684Y-121900498D01*
X122786687Y-121900498D01*
X122860587Y-121892949D01*
X122887753Y-121890174D01*
X123051516Y-121835908D01*
X123198350Y-121745340D01*
X123320340Y-121623350D01*
X123410908Y-121476516D01*
X123465174Y-121312753D01*
X123475500Y-121211677D01*
X123475499Y-120613324D01*
X123470213Y-120561581D01*
X123465174Y-120512247D01*
X123450500Y-120467965D01*
X123410908Y-120348484D01*
X123320340Y-120201650D01*
X123206017Y-120087327D01*
X123172532Y-120026004D01*
X123177516Y-119956312D01*
X123206017Y-119911964D01*
X123319948Y-119798033D01*
X123410448Y-119651311D01*
X123410453Y-119651300D01*
X123464680Y-119487652D01*
X123474999Y-119386654D01*
X123475000Y-119386641D01*
X123475000Y-119337500D01*
X121525001Y-119337500D01*
X121525001Y-119386654D01*
X121535319Y-119487652D01*
X121589546Y-119651300D01*
X121589551Y-119651311D01*
X121680052Y-119798034D01*
X121680055Y-119798038D01*
X121793982Y-119911965D01*
X121827467Y-119973288D01*
X121822483Y-120042980D01*
X121793983Y-120087327D01*
X121679659Y-120201651D01*
X121589093Y-120348481D01*
X121589091Y-120348486D01*
X121582452Y-120368521D01*
X121534826Y-120512247D01*
X121534826Y-120512248D01*
X121534825Y-120512248D01*
X121524500Y-120613315D01*
X120973965Y-120613315D01*
X120970074Y-120575214D01*
X120965174Y-120527247D01*
X120910908Y-120363484D01*
X120820340Y-120216650D01*
X120706017Y-120102327D01*
X120672532Y-120041004D01*
X120677516Y-119971312D01*
X120706017Y-119926964D01*
X120819948Y-119813033D01*
X120910448Y-119666311D01*
X120910453Y-119666300D01*
X120964680Y-119502652D01*
X120974999Y-119401654D01*
X120975000Y-119401641D01*
X120975000Y-119352500D01*
X120124000Y-119352500D01*
X120056961Y-119332815D01*
X120011206Y-119280011D01*
X120000000Y-119228500D01*
X120000000Y-119102500D01*
X119874000Y-119102500D01*
X119806961Y-119082815D01*
X119761206Y-119030011D01*
X119750000Y-118978500D01*
X119750000Y-118852500D01*
X120250000Y-118852500D01*
X120974999Y-118852500D01*
X120974999Y-118803360D01*
X120974998Y-118803347D01*
X120974431Y-118797791D01*
X120974431Y-118797790D01*
X120973466Y-118788345D01*
X121525000Y-118788345D01*
X121525000Y-118837500D01*
X122250000Y-118837500D01*
X122750000Y-118837500D01*
X123474999Y-118837500D01*
X123474999Y-118788360D01*
X123474998Y-118788345D01*
X123464680Y-118687347D01*
X123410453Y-118523699D01*
X123410448Y-118523688D01*
X123319947Y-118376965D01*
X123319944Y-118376961D01*
X123198038Y-118255055D01*
X123198034Y-118255052D01*
X123051311Y-118164551D01*
X123051300Y-118164546D01*
X122887652Y-118110319D01*
X122786654Y-118100000D01*
X122750000Y-118100000D01*
X122750000Y-118837500D01*
X122250000Y-118837500D01*
X122250000Y-118100000D01*
X122213361Y-118100000D01*
X122213343Y-118100001D01*
X122112347Y-118110319D01*
X121948699Y-118164546D01*
X121948688Y-118164551D01*
X121801965Y-118255052D01*
X121801961Y-118255055D01*
X121680055Y-118376961D01*
X121680052Y-118376965D01*
X121589551Y-118523688D01*
X121589546Y-118523699D01*
X121535319Y-118687347D01*
X121525000Y-118788345D01*
X120973466Y-118788345D01*
X120964680Y-118702347D01*
X120910453Y-118538699D01*
X120910448Y-118538688D01*
X120819947Y-118391965D01*
X120819944Y-118391961D01*
X120698038Y-118270055D01*
X120698034Y-118270052D01*
X120551311Y-118179551D01*
X120551300Y-118179546D01*
X120387652Y-118125319D01*
X120286654Y-118115000D01*
X120250000Y-118115000D01*
X120250000Y-118852500D01*
X119750000Y-118852500D01*
X119750000Y-118115000D01*
X119713361Y-118115000D01*
X119713340Y-118115001D01*
X119609101Y-118125650D01*
X119540408Y-118112880D01*
X119489524Y-118064999D01*
X119472500Y-118002292D01*
X119472500Y-116981986D01*
X127028001Y-116981986D01*
X127038494Y-117084697D01*
X127093641Y-117251119D01*
X127093643Y-117251124D01*
X127185684Y-117400345D01*
X127309654Y-117524315D01*
X127458875Y-117616356D01*
X127458880Y-117616358D01*
X127625302Y-117671505D01*
X127625309Y-117671506D01*
X127728019Y-117681999D01*
X128527999Y-117681999D01*
X128528000Y-117681998D01*
X128528000Y-116582000D01*
X127028001Y-116582000D01*
X127028001Y-116981986D01*
X119472500Y-116981986D01*
X119472500Y-116342691D01*
X119492185Y-116275652D01*
X119544989Y-116229897D01*
X119609756Y-116219402D01*
X119612527Y-116219700D01*
X120978272Y-116219699D01*
X121037883Y-116213291D01*
X121172731Y-116162996D01*
X121287946Y-116076746D01*
X121374196Y-115961531D01*
X121395854Y-115903463D01*
X121437724Y-115847529D01*
X121503188Y-115823111D01*
X121571461Y-115837962D01*
X121620867Y-115887367D01*
X121626597Y-115899342D01*
X121680223Y-116028808D01*
X121680228Y-116028817D01*
X121756885Y-116143541D01*
X121756888Y-116143545D01*
X121854454Y-116241111D01*
X121854458Y-116241114D01*
X121969182Y-116317771D01*
X121969195Y-116317778D01*
X122051055Y-116351685D01*
X122096672Y-116370580D01*
X122096676Y-116370580D01*
X122096677Y-116370581D01*
X122232004Y-116397500D01*
X122232007Y-116397500D01*
X122369995Y-116397500D01*
X122461041Y-116379389D01*
X122505328Y-116370580D01*
X122632811Y-116317775D01*
X122747542Y-116241114D01*
X122845114Y-116143542D01*
X122921775Y-116028811D01*
X122974580Y-115901328D01*
X122983532Y-115856322D01*
X125009001Y-115856322D01*
X125019144Y-115955607D01*
X125072452Y-116116481D01*
X125072457Y-116116492D01*
X125161424Y-116260728D01*
X125161427Y-116260732D01*
X125281267Y-116380572D01*
X125281271Y-116380575D01*
X125425507Y-116469542D01*
X125425518Y-116469547D01*
X125586393Y-116522855D01*
X125685683Y-116532999D01*
X125733999Y-116532998D01*
X125734000Y-116532998D01*
X125734000Y-115833000D01*
X125009001Y-115833000D01*
X125009001Y-115856322D01*
X122983532Y-115856322D01*
X123001500Y-115765993D01*
X123001500Y-115628007D01*
X123001500Y-115628004D01*
X122974581Y-115492677D01*
X122974580Y-115492676D01*
X122974580Y-115492672D01*
X122957056Y-115450365D01*
X122921778Y-115365195D01*
X122921771Y-115365182D01*
X122845114Y-115250458D01*
X122845111Y-115250454D01*
X122747545Y-115152888D01*
X122747541Y-115152885D01*
X122632817Y-115076228D01*
X122632804Y-115076221D01*
X122505332Y-115023421D01*
X122505322Y-115023418D01*
X122369995Y-114996500D01*
X122369993Y-114996500D01*
X122232007Y-114996500D01*
X122232005Y-114996500D01*
X122096677Y-115023418D01*
X122096667Y-115023421D01*
X121969195Y-115076221D01*
X121969182Y-115076228D01*
X121854458Y-115152885D01*
X121854454Y-115152888D01*
X121756888Y-115250454D01*
X121756885Y-115250458D01*
X121680228Y-115365182D01*
X121680223Y-115365192D01*
X121669460Y-115391177D01*
X121625618Y-115445581D01*
X121559324Y-115467645D01*
X121491625Y-115450365D01*
X121444015Y-115399228D01*
X121430899Y-115343724D01*
X121430899Y-115204897D01*
X121450584Y-115137858D01*
X121467213Y-115117221D01*
X123568020Y-113016416D01*
X123647077Y-112879484D01*
X123688001Y-112726757D01*
X123688001Y-112568642D01*
X123688001Y-112561047D01*
X123688000Y-112561029D01*
X123688000Y-111957610D01*
X123707685Y-111890571D01*
X123730611Y-111864059D01*
X123738263Y-111857401D01*
X123798350Y-111820340D01*
X123915365Y-111703324D01*
X123918611Y-111700501D01*
X123946610Y-111687646D01*
X123973642Y-111672886D01*
X123978071Y-111673202D01*
X123982109Y-111671349D01*
X124012607Y-111675672D01*
X124043334Y-111677870D01*
X124047643Y-111680639D01*
X124051287Y-111681156D01*
X124059571Y-111688305D01*
X124087681Y-111706371D01*
X124201650Y-111820340D01*
X124348484Y-111910908D01*
X124512247Y-111965174D01*
X124613323Y-111975500D01*
X125211676Y-111975499D01*
X125211684Y-111975498D01*
X125211687Y-111975498D01*
X125267030Y-111969844D01*
X125312753Y-111965174D01*
X125476516Y-111910908D01*
X125623350Y-111820340D01*
X125745340Y-111698350D01*
X125769362Y-111659404D01*
X125821310Y-111612679D01*
X125874901Y-111600500D01*
X126903501Y-111600500D01*
X126970540Y-111620185D01*
X127016295Y-111672989D01*
X127027501Y-111724500D01*
X127027501Y-112149876D01*
X127033908Y-112209483D01*
X127084202Y-112344328D01*
X127084206Y-112344335D01*
X127170452Y-112459544D01*
X127170453Y-112459544D01*
X127170454Y-112459546D01*
X127188441Y-112473011D01*
X127230311Y-112528945D01*
X127235295Y-112598637D01*
X127201811Y-112659957D01*
X127166320Y-112695447D01*
X127166319Y-112695449D01*
X127082080Y-112834796D01*
X127033638Y-112990254D01*
X127027500Y-113057807D01*
X127027500Y-113277117D01*
X127007815Y-113344156D01*
X126955011Y-113389911D01*
X126885853Y-113399855D01*
X126822297Y-113370830D01*
X126810450Y-113358438D01*
X126687044Y-113235032D01*
X126687040Y-113235029D01*
X126542705Y-113146001D01*
X126542699Y-113145998D01*
X126542697Y-113145997D01*
X126520733Y-113138719D01*
X126381709Y-113092651D01*
X126282346Y-113082500D01*
X125685662Y-113082500D01*
X125685644Y-113082501D01*
X125586292Y-113092650D01*
X125586289Y-113092651D01*
X125425305Y-113145996D01*
X125425294Y-113146001D01*
X125280959Y-113235029D01*
X125280955Y-113235032D01*
X125161032Y-113354955D01*
X125161029Y-113354959D01*
X125072001Y-113499294D01*
X125071996Y-113499305D01*
X125018651Y-113660290D01*
X125008500Y-113759647D01*
X125008500Y-114306337D01*
X125008501Y-114306355D01*
X125018650Y-114405707D01*
X125018651Y-114405710D01*
X125071996Y-114566694D01*
X125072001Y-114566705D01*
X125161029Y-114711040D01*
X125161032Y-114711044D01*
X125170660Y-114720672D01*
X125204145Y-114781995D01*
X125199161Y-114851687D01*
X125170663Y-114896031D01*
X125161428Y-114905265D01*
X125161424Y-114905271D01*
X125072457Y-115049507D01*
X125072452Y-115049518D01*
X125019144Y-115210393D01*
X125009000Y-115309677D01*
X125009000Y-115333000D01*
X125860000Y-115333000D01*
X125927039Y-115352685D01*
X125972794Y-115405489D01*
X125984000Y-115457000D01*
X125984000Y-115583000D01*
X126110000Y-115583000D01*
X126177039Y-115602685D01*
X126222794Y-115655489D01*
X126234000Y-115707000D01*
X126234000Y-116532999D01*
X126282308Y-116532999D01*
X126282322Y-116532998D01*
X126381607Y-116522855D01*
X126542481Y-116469547D01*
X126542492Y-116469542D01*
X126614544Y-116425100D01*
X126686728Y-116380575D01*
X126686732Y-116380572D01*
X126806573Y-116260731D01*
X126880486Y-116140902D01*
X126932434Y-116094178D01*
X126986024Y-116082000D01*
X128654000Y-116082000D01*
X128721039Y-116101685D01*
X128766794Y-116154489D01*
X128778000Y-116206000D01*
X128778000Y-116332000D01*
X128904000Y-116332000D01*
X128971039Y-116351685D01*
X129016794Y-116404489D01*
X129028000Y-116456000D01*
X129028000Y-117681999D01*
X129827972Y-117681999D01*
X129827986Y-117681998D01*
X129930697Y-117671505D01*
X130097119Y-117616358D01*
X130097124Y-117616356D01*
X130246345Y-117524315D01*
X130332819Y-117437842D01*
X130394142Y-117404357D01*
X130463834Y-117409341D01*
X130519767Y-117451213D01*
X130544184Y-117516677D01*
X130544500Y-117525523D01*
X130544500Y-128877500D01*
X130524815Y-128944539D01*
X130472011Y-128990294D01*
X130420500Y-129001500D01*
X107817769Y-129001500D01*
X107750730Y-128981815D01*
X107704975Y-128929011D01*
X107695031Y-128859853D01*
X107724056Y-128796297D01*
X107744884Y-128777182D01*
X107919785Y-128650109D01*
X107919783Y-128650109D01*
X107919792Y-128650104D01*
X108070104Y-128499792D01*
X108070106Y-128499788D01*
X108070109Y-128499786D01*
X108195048Y-128327820D01*
X108195047Y-128327820D01*
X108195051Y-128327816D01*
X108291557Y-128138412D01*
X108357246Y-127936243D01*
X108390500Y-127726287D01*
X108390500Y-127513713D01*
X108357246Y-127303757D01*
X108291557Y-127101588D01*
X108195051Y-126912184D01*
X108195049Y-126912181D01*
X108195048Y-126912179D01*
X108070109Y-126740213D01*
X107919786Y-126589890D01*
X107747820Y-126464951D01*
X107747115Y-126464591D01*
X107739054Y-126460485D01*
X107688259Y-126412512D01*
X107671463Y-126344692D01*
X107693999Y-126278556D01*
X107739054Y-126239515D01*
X107747816Y-126235051D01*
X107826258Y-126178060D01*
X107919786Y-126110109D01*
X107919788Y-126110106D01*
X107919792Y-126110104D01*
X108070104Y-125959792D01*
X108070106Y-125959788D01*
X108070109Y-125959786D01*
X108195048Y-125787820D01*
X108195050Y-125787817D01*
X108195051Y-125787816D01*
X108291557Y-125598412D01*
X108357246Y-125396243D01*
X108390500Y-125186287D01*
X108390500Y-124973713D01*
X108357246Y-124763757D01*
X108291557Y-124561588D01*
X108195051Y-124372184D01*
X108195049Y-124372181D01*
X108195048Y-124372179D01*
X108070109Y-124200213D01*
X107919786Y-124049890D01*
X107747820Y-123924951D01*
X107745384Y-123923710D01*
X107739054Y-123920485D01*
X107688259Y-123872512D01*
X107671463Y-123804692D01*
X107693999Y-123738556D01*
X107739054Y-123699515D01*
X107747816Y-123695051D01*
X107811458Y-123648813D01*
X107823595Y-123639995D01*
X109408499Y-123639995D01*
X109435418Y-123775322D01*
X109435421Y-123775332D01*
X109488221Y-123902804D01*
X109488228Y-123902817D01*
X109564885Y-124017541D01*
X109564888Y-124017545D01*
X109662454Y-124115111D01*
X109662458Y-124115114D01*
X109777182Y-124191771D01*
X109777195Y-124191778D01*
X109904667Y-124244578D01*
X109904672Y-124244580D01*
X109904676Y-124244580D01*
X109904677Y-124244581D01*
X110040004Y-124271500D01*
X110040007Y-124271500D01*
X110177995Y-124271500D01*
X110269041Y-124253389D01*
X110313328Y-124244580D01*
X110379048Y-124217358D01*
X110442548Y-124191056D01*
X110512017Y-124183587D01*
X110537452Y-124191056D01*
X110666667Y-124244578D01*
X110666672Y-124244580D01*
X110666676Y-124244580D01*
X110666677Y-124244581D01*
X110802004Y-124271500D01*
X110802007Y-124271500D01*
X110939995Y-124271500D01*
X111031041Y-124253389D01*
X111075328Y-124244580D01*
X111182343Y-124200253D01*
X111202804Y-124191778D01*
X111202804Y-124191777D01*
X111202811Y-124191775D01*
X111317542Y-124115114D01*
X111415114Y-124017542D01*
X111491775Y-123902811D01*
X111544580Y-123775328D01*
X111559660Y-123699516D01*
X111571500Y-123639995D01*
X111571500Y-123502004D01*
X111544581Y-123366677D01*
X111544580Y-123366674D01*
X111544580Y-123366672D01*
X111506609Y-123275001D01*
X111491778Y-123239195D01*
X111491771Y-123239182D01*
X111415114Y-123124458D01*
X111415111Y-123124454D01*
X111317545Y-123026888D01*
X111317541Y-123026885D01*
X111202817Y-122950228D01*
X111202804Y-122950221D01*
X111075332Y-122897421D01*
X111075322Y-122897418D01*
X110939995Y-122870500D01*
X110939993Y-122870500D01*
X110802007Y-122870500D01*
X110802005Y-122870500D01*
X110666677Y-122897418D01*
X110666667Y-122897421D01*
X110537452Y-122950943D01*
X110467982Y-122958412D01*
X110442548Y-122950943D01*
X110313332Y-122897421D01*
X110313322Y-122897418D01*
X110177995Y-122870500D01*
X110177993Y-122870500D01*
X110040007Y-122870500D01*
X110040005Y-122870500D01*
X109904677Y-122897418D01*
X109904667Y-122897421D01*
X109777195Y-122950221D01*
X109777182Y-122950228D01*
X109662458Y-123026885D01*
X109662454Y-123026888D01*
X109564888Y-123124454D01*
X109564885Y-123124458D01*
X109488228Y-123239182D01*
X109488221Y-123239195D01*
X109435421Y-123366667D01*
X109435418Y-123366677D01*
X109408500Y-123502004D01*
X109408500Y-123502007D01*
X109408500Y-123639993D01*
X109408500Y-123639995D01*
X109408499Y-123639995D01*
X107823595Y-123639995D01*
X107919786Y-123570109D01*
X107919788Y-123570106D01*
X107919792Y-123570104D01*
X108070104Y-123419792D01*
X108195051Y-123247816D01*
X108291557Y-123058412D01*
X108357246Y-122856243D01*
X108390500Y-122646287D01*
X108390500Y-122433713D01*
X108357246Y-122223757D01*
X108291557Y-122021588D01*
X108195051Y-121832184D01*
X108195049Y-121832181D01*
X108195048Y-121832179D01*
X108070109Y-121660213D01*
X107919786Y-121509890D01*
X107747820Y-121384951D01*
X107747115Y-121384591D01*
X107739054Y-121380485D01*
X107688259Y-121332512D01*
X107671463Y-121264692D01*
X107693999Y-121198556D01*
X107739054Y-121159515D01*
X107747816Y-121155051D01*
X107841613Y-121086904D01*
X107919786Y-121030109D01*
X107919788Y-121030106D01*
X107919792Y-121030104D01*
X108070104Y-120879792D01*
X108070106Y-120879788D01*
X108070109Y-120879786D01*
X108195048Y-120707820D01*
X108195047Y-120707820D01*
X108195051Y-120707816D01*
X108291557Y-120518412D01*
X108357246Y-120316243D01*
X108390500Y-120106287D01*
X108390500Y-119893713D01*
X108357246Y-119683757D01*
X108291557Y-119481588D01*
X108195051Y-119292184D01*
X108195049Y-119292181D01*
X108195048Y-119292179D01*
X108070109Y-119120213D01*
X107919786Y-118969890D01*
X107747820Y-118844951D01*
X107558414Y-118748444D01*
X107558413Y-118748443D01*
X107558412Y-118748443D01*
X107356243Y-118682754D01*
X107356241Y-118682753D01*
X107356240Y-118682753D01*
X107194957Y-118657208D01*
X107146287Y-118649500D01*
X106933713Y-118649500D01*
X106885042Y-118657208D01*
X106723760Y-118682753D01*
X106723757Y-118682754D01*
X106548949Y-118739553D01*
X106521585Y-118748444D01*
X106332179Y-118844951D01*
X106160213Y-118969890D01*
X106009894Y-119120209D01*
X106009890Y-119120214D01*
X105895984Y-119276993D01*
X105840654Y-119319659D01*
X105771041Y-119325638D01*
X105709246Y-119293032D01*
X105695348Y-119276993D01*
X105622709Y-119177014D01*
X105622705Y-119177009D01*
X105472386Y-119026690D01*
X105300420Y-118901751D01*
X105111014Y-118805244D01*
X105111013Y-118805243D01*
X105111012Y-118805243D01*
X104908843Y-118739554D01*
X104908841Y-118739553D01*
X104908840Y-118739553D01*
X104747557Y-118714008D01*
X104698887Y-118706300D01*
X104486313Y-118706300D01*
X104437642Y-118714008D01*
X104276360Y-118739553D01*
X104074185Y-118805244D01*
X103884779Y-118901751D01*
X103712813Y-119026690D01*
X103562490Y-119177013D01*
X103437551Y-119348979D01*
X103341044Y-119538385D01*
X103275353Y-119740560D01*
X103242100Y-119950513D01*
X103242100Y-120163086D01*
X103274637Y-120368521D01*
X103275354Y-120373043D01*
X103325458Y-120527248D01*
X103341044Y-120575214D01*
X103437551Y-120764620D01*
X103562490Y-120936586D01*
X103562496Y-120936592D01*
X103712808Y-121086904D01*
X103822946Y-121166923D01*
X103865612Y-121222253D01*
X103871591Y-121291867D01*
X103838986Y-121353662D01*
X103806361Y-121377724D01*
X103792183Y-121384948D01*
X103620213Y-121509890D01*
X103469890Y-121660213D01*
X103344951Y-121832179D01*
X103248444Y-122021585D01*
X103182753Y-122223760D01*
X103149500Y-122433713D01*
X103149500Y-122541583D01*
X103129815Y-122608622D01*
X103077011Y-122654377D01*
X103007853Y-122664321D01*
X102978050Y-122656145D01*
X102947328Y-122643420D01*
X102947323Y-122643419D01*
X102947322Y-122643418D01*
X102811995Y-122616500D01*
X102811993Y-122616500D01*
X102674007Y-122616500D01*
X102674005Y-122616500D01*
X102538677Y-122643418D01*
X102538667Y-122643421D01*
X102411195Y-122696221D01*
X102411182Y-122696228D01*
X102296458Y-122772885D01*
X102296454Y-122772888D01*
X102198888Y-122870454D01*
X102198885Y-122870458D01*
X102122228Y-122985182D01*
X102122221Y-122985195D01*
X102069421Y-123112667D01*
X102069418Y-123112677D01*
X102042500Y-123248004D01*
X102042500Y-123248007D01*
X102042500Y-123385993D01*
X102042500Y-123385995D01*
X102042499Y-123385995D01*
X102069418Y-123521322D01*
X102069421Y-123521332D01*
X102122221Y-123648804D01*
X102122228Y-123648817D01*
X102198885Y-123763541D01*
X102198888Y-123763545D01*
X102296454Y-123861111D01*
X102296458Y-123861114D01*
X102411182Y-123937771D01*
X102411195Y-123937778D01*
X102501058Y-123975000D01*
X102538672Y-123990580D01*
X102538676Y-123990580D01*
X102538677Y-123990581D01*
X102674004Y-124017500D01*
X102674007Y-124017500D01*
X102811995Y-124017500D01*
X102903041Y-123999389D01*
X102947328Y-123990580D01*
X103074811Y-123937775D01*
X103189542Y-123861114D01*
X103287114Y-123763542D01*
X103363775Y-123648811D01*
X103390918Y-123583281D01*
X103434757Y-123528880D01*
X103501051Y-123506815D01*
X103568750Y-123524094D01*
X103593159Y-123543055D01*
X103620213Y-123570109D01*
X103792179Y-123695048D01*
X103792181Y-123695049D01*
X103792184Y-123695051D01*
X103801493Y-123699794D01*
X103852290Y-123747766D01*
X103869087Y-123815587D01*
X103846552Y-123881722D01*
X103801505Y-123920760D01*
X103792446Y-123925376D01*
X103792440Y-123925380D01*
X103738282Y-123964727D01*
X103738282Y-123964728D01*
X104500000Y-124726446D01*
X104500001Y-124726446D01*
X105261716Y-123964728D01*
X105207547Y-123925373D01*
X105207547Y-123925372D01*
X105198500Y-123920763D01*
X105147706Y-123872788D01*
X105130912Y-123804966D01*
X105153451Y-123738832D01*
X105198508Y-123699793D01*
X105207816Y-123695051D01*
X105287007Y-123637515D01*
X105379786Y-123570109D01*
X105379788Y-123570106D01*
X105379792Y-123570104D01*
X105530104Y-123419792D01*
X105530106Y-123419788D01*
X105530109Y-123419786D01*
X105655048Y-123247820D01*
X105655049Y-123247819D01*
X105655051Y-123247816D01*
X105659514Y-123239054D01*
X105707488Y-123188259D01*
X105775308Y-123171463D01*
X105841444Y-123193999D01*
X105880484Y-123239054D01*
X105884591Y-123247115D01*
X105884951Y-123247820D01*
X106009890Y-123419786D01*
X106160213Y-123570109D01*
X106332182Y-123695050D01*
X106340946Y-123699516D01*
X106391742Y-123747491D01*
X106408536Y-123815312D01*
X106385998Y-123881447D01*
X106340946Y-123920484D01*
X106332182Y-123924949D01*
X106160213Y-124049890D01*
X106009890Y-124200213D01*
X105884949Y-124372182D01*
X105880202Y-124381499D01*
X105832227Y-124432293D01*
X105764405Y-124449087D01*
X105698271Y-124426548D01*
X105659234Y-124381495D01*
X105654626Y-124372452D01*
X105615270Y-124318282D01*
X105615269Y-124318282D01*
X104853554Y-125079999D01*
X104853554Y-125080000D01*
X105615270Y-125841717D01*
X105615270Y-125841716D01*
X105654622Y-125787555D01*
X105659232Y-125778507D01*
X105707205Y-125727709D01*
X105775025Y-125710912D01*
X105841161Y-125733447D01*
X105880204Y-125778504D01*
X105884949Y-125787817D01*
X106009890Y-125959786D01*
X106160213Y-126110109D01*
X106332182Y-126235050D01*
X106340946Y-126239516D01*
X106391742Y-126287491D01*
X106408536Y-126355312D01*
X106385998Y-126421447D01*
X106340946Y-126460484D01*
X106332182Y-126464949D01*
X106160213Y-126589890D01*
X106009890Y-126740213D01*
X105884949Y-126912182D01*
X105880484Y-126920946D01*
X105832509Y-126971742D01*
X105764688Y-126988536D01*
X105698553Y-126965998D01*
X105659516Y-126920946D01*
X105655050Y-126912182D01*
X105530109Y-126740213D01*
X105379786Y-126589890D01*
X105207817Y-126464949D01*
X105198504Y-126460204D01*
X105147707Y-126412230D01*
X105130912Y-126344409D01*
X105153449Y-126278274D01*
X105198507Y-126239232D01*
X105207555Y-126234622D01*
X105261716Y-126195270D01*
X105261717Y-126195270D01*
X104500000Y-125433554D01*
X103738282Y-126195269D01*
X103738282Y-126195270D01*
X103792452Y-126234626D01*
X103792451Y-126234626D01*
X103801495Y-126239234D01*
X103852292Y-126287208D01*
X103869087Y-126355029D01*
X103846550Y-126421164D01*
X103801499Y-126460202D01*
X103792182Y-126464949D01*
X103620213Y-126589890D01*
X103469890Y-126740213D01*
X103344951Y-126912179D01*
X103248444Y-127101585D01*
X103248443Y-127101587D01*
X103248443Y-127101588D01*
X103236498Y-127138352D01*
X103182753Y-127303760D01*
X103149500Y-127513713D01*
X103149500Y-127726286D01*
X103169331Y-127851498D01*
X103182754Y-127936243D01*
X103235637Y-128099000D01*
X103248444Y-128138414D01*
X103344951Y-128327820D01*
X103469890Y-128499786D01*
X103620209Y-128650105D01*
X103620214Y-128650109D01*
X103795116Y-128777182D01*
X103837782Y-128832511D01*
X103843761Y-128902125D01*
X103811156Y-128963920D01*
X103750317Y-128998277D01*
X103722231Y-129001500D01*
X81669500Y-129001500D01*
X81602461Y-128981815D01*
X81556706Y-128929011D01*
X81545500Y-128877500D01*
X81545500Y-128543677D01*
X82309873Y-128543677D01*
X82309873Y-128543678D01*
X82344858Y-128569096D01*
X82520164Y-128658418D01*
X82707294Y-128719221D01*
X82901618Y-128750000D01*
X83098382Y-128750000D01*
X83292705Y-128719221D01*
X83479835Y-128658418D01*
X83655143Y-128569095D01*
X83690125Y-128543678D01*
X83690126Y-128543678D01*
X83000001Y-127853553D01*
X83000000Y-127853553D01*
X82309873Y-128543677D01*
X81545500Y-128543677D01*
X81545500Y-127851498D01*
X81565185Y-127784459D01*
X81617989Y-127738704D01*
X81687147Y-127728760D01*
X81750703Y-127757785D01*
X81787431Y-127813180D01*
X81841581Y-127979835D01*
X81930905Y-128155145D01*
X81956319Y-128190125D01*
X81956320Y-128190125D01*
X82646446Y-127500000D01*
X82646446Y-127499999D01*
X83353553Y-127499999D01*
X83353553Y-127500000D01*
X84043678Y-128190126D01*
X84043678Y-128190125D01*
X84069095Y-128155143D01*
X84158418Y-127979835D01*
X84219221Y-127792705D01*
X84250000Y-127598382D01*
X84250000Y-127401617D01*
X84249994Y-127401577D01*
X85249500Y-127401577D01*
X85249500Y-127598422D01*
X85280290Y-127792826D01*
X85341117Y-127980029D01*
X85396328Y-128088386D01*
X85430476Y-128155405D01*
X85546172Y-128314646D01*
X85685354Y-128453828D01*
X85844595Y-128569524D01*
X85927455Y-128611743D01*
X86019970Y-128658882D01*
X86019972Y-128658882D01*
X86019975Y-128658884D01*
X86120317Y-128691487D01*
X86207173Y-128719709D01*
X86401578Y-128750500D01*
X86401583Y-128750500D01*
X86598422Y-128750500D01*
X86792826Y-128719709D01*
X86794328Y-128719221D01*
X86980025Y-128658884D01*
X87155405Y-128569524D01*
X87314646Y-128453828D01*
X87453828Y-128314646D01*
X87569524Y-128155405D01*
X87658884Y-127980025D01*
X87719709Y-127792826D01*
X87726492Y-127750000D01*
X87750500Y-127598422D01*
X87750500Y-127406163D01*
X87750500Y-127401583D01*
X87750499Y-127401577D01*
X88749500Y-127401577D01*
X88749500Y-127598422D01*
X88780290Y-127792826D01*
X88841117Y-127980029D01*
X88896328Y-128088386D01*
X88930476Y-128155405D01*
X89046172Y-128314646D01*
X89185354Y-128453828D01*
X89344595Y-128569524D01*
X89427455Y-128611743D01*
X89519970Y-128658882D01*
X89519972Y-128658882D01*
X89519975Y-128658884D01*
X89620317Y-128691487D01*
X89707173Y-128719709D01*
X89901578Y-128750500D01*
X89901583Y-128750500D01*
X90098422Y-128750500D01*
X90292826Y-128719709D01*
X90294328Y-128719221D01*
X90480025Y-128658884D01*
X90655405Y-128569524D01*
X90814646Y-128453828D01*
X90953828Y-128314646D01*
X90953833Y-128314638D01*
X90956145Y-128312327D01*
X91017468Y-128278842D01*
X91087160Y-128283826D01*
X91143094Y-128325697D01*
X91146929Y-128331117D01*
X91149885Y-128335542D01*
X91247454Y-128433111D01*
X91247458Y-128433114D01*
X91362182Y-128509771D01*
X91362195Y-128509778D01*
X91444038Y-128543678D01*
X91489672Y-128562580D01*
X91489676Y-128562580D01*
X91489677Y-128562581D01*
X91625004Y-128589500D01*
X91625007Y-128589500D01*
X91762995Y-128589500D01*
X91865575Y-128569095D01*
X91898328Y-128562580D01*
X92025811Y-128509775D01*
X92140542Y-128433114D01*
X92238114Y-128335542D01*
X92314775Y-128220811D01*
X92367580Y-128093328D01*
X92376389Y-128049041D01*
X92394500Y-127957995D01*
X92394500Y-127820004D01*
X92367581Y-127684677D01*
X92367580Y-127684676D01*
X92367580Y-127684672D01*
X92354009Y-127651909D01*
X92314778Y-127557195D01*
X92314771Y-127557182D01*
X92238114Y-127442458D01*
X92238111Y-127442454D01*
X92140545Y-127344888D01*
X92140541Y-127344885D01*
X92025817Y-127268228D01*
X92025804Y-127268221D01*
X91898330Y-127215420D01*
X91892494Y-127213650D01*
X91892921Y-127212239D01*
X91882660Y-127206870D01*
X91864190Y-127202852D01*
X91839129Y-127184091D01*
X91837502Y-127183240D01*
X91835936Y-127181701D01*
X91792590Y-127138355D01*
X91792588Y-127138352D01*
X91673717Y-127019481D01*
X91673716Y-127019480D01*
X91586904Y-126969360D01*
X91586904Y-126969359D01*
X91586900Y-126969358D01*
X91536785Y-126940423D01*
X91384057Y-126899499D01*
X91225943Y-126899499D01*
X91218347Y-126899499D01*
X91218331Y-126899500D01*
X91172596Y-126899500D01*
X91105557Y-126879815D01*
X91072278Y-126848386D01*
X91056244Y-126826317D01*
X90953828Y-126685354D01*
X90814646Y-126546172D01*
X90655405Y-126430476D01*
X90645647Y-126425504D01*
X90480029Y-126341117D01*
X90292826Y-126280290D01*
X90098422Y-126249500D01*
X90098417Y-126249500D01*
X89901583Y-126249500D01*
X89901578Y-126249500D01*
X89707173Y-126280290D01*
X89519970Y-126341117D01*
X89344594Y-126430476D01*
X89297147Y-126464949D01*
X89185354Y-126546172D01*
X89185352Y-126546174D01*
X89185351Y-126546174D01*
X89046174Y-126685351D01*
X89046174Y-126685352D01*
X89046172Y-126685354D01*
X89017006Y-126725498D01*
X88930476Y-126844594D01*
X88841117Y-127019970D01*
X88780290Y-127207173D01*
X88749500Y-127401577D01*
X87750499Y-127401577D01*
X87728519Y-127262801D01*
X87728487Y-127262590D01*
X87733093Y-127228282D01*
X87737536Y-127193903D01*
X87737742Y-127193657D01*
X87737785Y-127193342D01*
X87760202Y-127166976D01*
X87782532Y-127140451D01*
X87782942Y-127140232D01*
X87783044Y-127140113D01*
X87783330Y-127140025D01*
X87803601Y-127129237D01*
X87837311Y-127115275D01*
X87952042Y-127038614D01*
X88049614Y-126941042D01*
X88126275Y-126826311D01*
X88179080Y-126698828D01*
X88200748Y-126589896D01*
X88206000Y-126563495D01*
X88206000Y-126425504D01*
X88179081Y-126290177D01*
X88179080Y-126290176D01*
X88179080Y-126290172D01*
X88179078Y-126290167D01*
X88126278Y-126162695D01*
X88126271Y-126162682D01*
X88049614Y-126047958D01*
X88049611Y-126047954D01*
X87952045Y-125950388D01*
X87952041Y-125950385D01*
X87837317Y-125873728D01*
X87837304Y-125873721D01*
X87709832Y-125820921D01*
X87709822Y-125820918D01*
X87574495Y-125794000D01*
X87574493Y-125794000D01*
X87436507Y-125794000D01*
X87436505Y-125794000D01*
X87301177Y-125820918D01*
X87301167Y-125820921D01*
X87173695Y-125873721D01*
X87173682Y-125873728D01*
X87058958Y-125950385D01*
X87058954Y-125950388D01*
X86961388Y-126047954D01*
X86961385Y-126047958D01*
X86884728Y-126162682D01*
X86884725Y-126162689D01*
X86870762Y-126196398D01*
X86826920Y-126250801D01*
X86760626Y-126272865D01*
X86736803Y-126271417D01*
X86598422Y-126249500D01*
X86598417Y-126249500D01*
X86401583Y-126249500D01*
X86401578Y-126249500D01*
X86207173Y-126280290D01*
X86019970Y-126341117D01*
X85844594Y-126430476D01*
X85797147Y-126464949D01*
X85685354Y-126546172D01*
X85685352Y-126546174D01*
X85685351Y-126546174D01*
X85546174Y-126685351D01*
X85546174Y-126685352D01*
X85546172Y-126685354D01*
X85517006Y-126725498D01*
X85430476Y-126844594D01*
X85341117Y-127019970D01*
X85280290Y-127207173D01*
X85249500Y-127401577D01*
X84249994Y-127401577D01*
X84219221Y-127207294D01*
X84158418Y-127020164D01*
X84069096Y-126844858D01*
X84043678Y-126809873D01*
X84043677Y-126809873D01*
X83353553Y-127499999D01*
X82646446Y-127499999D01*
X81956320Y-126809872D01*
X81956320Y-126809873D01*
X81930902Y-126844859D01*
X81930899Y-126844863D01*
X81841582Y-127020159D01*
X81787431Y-127186820D01*
X81747993Y-127244495D01*
X81683634Y-127271693D01*
X81614788Y-127259778D01*
X81563312Y-127212534D01*
X81545500Y-127148501D01*
X81545500Y-126456320D01*
X82309872Y-126456320D01*
X83000000Y-127146446D01*
X83000001Y-127146446D01*
X83690125Y-126456320D01*
X83690125Y-126456319D01*
X83655145Y-126430905D01*
X83479835Y-126341581D01*
X83292705Y-126280778D01*
X83098382Y-126250000D01*
X82901618Y-126250000D01*
X82707294Y-126280778D01*
X82520161Y-126341582D01*
X82344863Y-126430899D01*
X82344859Y-126430902D01*
X82309873Y-126456320D01*
X82309872Y-126456320D01*
X81545500Y-126456320D01*
X81545500Y-123358166D01*
X82474500Y-123358166D01*
X82474500Y-123641833D01*
X82506258Y-123923690D01*
X82506259Y-123923699D01*
X82506260Y-123923703D01*
X82515624Y-123964728D01*
X82569380Y-124200253D01*
X82569383Y-124200261D01*
X82663067Y-124467993D01*
X82786139Y-124723554D01*
X82786141Y-124723557D01*
X82937056Y-124963737D01*
X83113914Y-125185510D01*
X83314490Y-125386086D01*
X83536263Y-125562944D01*
X83776443Y-125713859D01*
X84032010Y-125836934D01*
X84137162Y-125873728D01*
X84299738Y-125930616D01*
X84299746Y-125930619D01*
X84299749Y-125930619D01*
X84299750Y-125930620D01*
X84576297Y-125993740D01*
X84858166Y-126025499D01*
X84858167Y-126025500D01*
X84858171Y-126025500D01*
X85141833Y-126025500D01*
X85141833Y-126025499D01*
X85423703Y-125993740D01*
X85700250Y-125930620D01*
X85967990Y-125836934D01*
X86223557Y-125713859D01*
X86463737Y-125562944D01*
X86540601Y-125501647D01*
X93524500Y-125501647D01*
X93524500Y-126048337D01*
X93524501Y-126048355D01*
X93534650Y-126147707D01*
X93534651Y-126147710D01*
X93587996Y-126308694D01*
X93588001Y-126308705D01*
X93677029Y-126453040D01*
X93677032Y-126453044D01*
X93796955Y-126572967D01*
X93796959Y-126572970D01*
X93941294Y-126661998D01*
X93941297Y-126661999D01*
X93941303Y-126662003D01*
X94102292Y-126715349D01*
X94201655Y-126725500D01*
X94798344Y-126725499D01*
X94798352Y-126725498D01*
X94798355Y-126725498D01*
X94852760Y-126719940D01*
X94897708Y-126715349D01*
X95058697Y-126662003D01*
X95203044Y-126572968D01*
X95322968Y-126453044D01*
X95412003Y-126308697D01*
X95465349Y-126147708D01*
X95475500Y-126048345D01*
X95475499Y-125501656D01*
X95465349Y-125402292D01*
X95412003Y-125241303D01*
X95411999Y-125241297D01*
X95411998Y-125241294D01*
X95322970Y-125096959D01*
X95322967Y-125096955D01*
X95313339Y-125087327D01*
X95279854Y-125026004D01*
X95284838Y-124956312D01*
X95313345Y-124911959D01*
X95322573Y-124902731D01*
X95411542Y-124758492D01*
X95411547Y-124758481D01*
X95464855Y-124597606D01*
X95474999Y-124498322D01*
X95475000Y-124498309D01*
X95475000Y-124475000D01*
X93525001Y-124475000D01*
X93525001Y-124498322D01*
X93535144Y-124597607D01*
X93588452Y-124758481D01*
X93588457Y-124758492D01*
X93677424Y-124902728D01*
X93677427Y-124902732D01*
X93686660Y-124911965D01*
X93720145Y-124973288D01*
X93715161Y-125042980D01*
X93686663Y-125087324D01*
X93677033Y-125096953D01*
X93677029Y-125096959D01*
X93588001Y-125241294D01*
X93587996Y-125241305D01*
X93534651Y-125402290D01*
X93524500Y-125501647D01*
X86540601Y-125501647D01*
X86659958Y-125406463D01*
X86666118Y-125401551D01*
X86672919Y-125396127D01*
X86685510Y-125386086D01*
X86886086Y-125185510D01*
X87062944Y-124963737D01*
X87213859Y-124723557D01*
X87336934Y-124467990D01*
X87430620Y-124200250D01*
X87487355Y-123951677D01*
X93525000Y-123951677D01*
X93525000Y-123975000D01*
X94250000Y-123975000D01*
X94750000Y-123975000D01*
X95474999Y-123975000D01*
X95474999Y-123951692D01*
X95474998Y-123951677D01*
X95464855Y-123852392D01*
X95411547Y-123691518D01*
X95411542Y-123691507D01*
X95322575Y-123547271D01*
X95322572Y-123547267D01*
X95202732Y-123427427D01*
X95202728Y-123427424D01*
X95058492Y-123338457D01*
X95058481Y-123338452D01*
X94897606Y-123285144D01*
X94798322Y-123275000D01*
X94750000Y-123275000D01*
X94750000Y-123975000D01*
X94250000Y-123975000D01*
X94250000Y-123275000D01*
X94249999Y-123274999D01*
X94201693Y-123275000D01*
X94201675Y-123275001D01*
X94102392Y-123285144D01*
X93941518Y-123338452D01*
X93941507Y-123338457D01*
X93797271Y-123427424D01*
X93797267Y-123427427D01*
X93677427Y-123547267D01*
X93677424Y-123547271D01*
X93588457Y-123691507D01*
X93588452Y-123691518D01*
X93535144Y-123852393D01*
X93525000Y-123951677D01*
X87487355Y-123951677D01*
X87493740Y-123923703D01*
X87525500Y-123641829D01*
X87525500Y-123358171D01*
X87493740Y-123076297D01*
X87430620Y-122799750D01*
X87426683Y-122788500D01*
X87383231Y-122664321D01*
X87336934Y-122532010D01*
X87213859Y-122276443D01*
X87062944Y-122036263D01*
X86886086Y-121814490D01*
X86685510Y-121613914D01*
X86463737Y-121437056D01*
X86289779Y-121327751D01*
X86223554Y-121286139D01*
X85967993Y-121163067D01*
X85700261Y-121069383D01*
X85700253Y-121069380D01*
X85492839Y-121022040D01*
X85423703Y-121006260D01*
X85423699Y-121006259D01*
X85423690Y-121006258D01*
X85141833Y-120974500D01*
X85141829Y-120974500D01*
X84858171Y-120974500D01*
X84858167Y-120974500D01*
X84576309Y-121006258D01*
X84576297Y-121006260D01*
X84299746Y-121069380D01*
X84299738Y-121069383D01*
X84032006Y-121163067D01*
X83776445Y-121286139D01*
X83536264Y-121437055D01*
X83314490Y-121613913D01*
X83113913Y-121814490D01*
X82937055Y-122036264D01*
X82786139Y-122276445D01*
X82663067Y-122532006D01*
X82569383Y-122799738D01*
X82569380Y-122799746D01*
X82506260Y-123076297D01*
X82506258Y-123076309D01*
X82474500Y-123358166D01*
X81545500Y-123358166D01*
X81545500Y-117035995D01*
X83881499Y-117035995D01*
X83908418Y-117171322D01*
X83908421Y-117171332D01*
X83961221Y-117298804D01*
X83961228Y-117298817D01*
X84037885Y-117413541D01*
X84037888Y-117413545D01*
X84135454Y-117511111D01*
X84135458Y-117511114D01*
X84250182Y-117587771D01*
X84250195Y-117587778D01*
X84376470Y-117640082D01*
X84377672Y-117640580D01*
X84377676Y-117640580D01*
X84377677Y-117640581D01*
X84513004Y-117667500D01*
X84513007Y-117667500D01*
X84650995Y-117667500D01*
X84742041Y-117649389D01*
X84786328Y-117640580D01*
X84884924Y-117599740D01*
X84913804Y-117587778D01*
X84913804Y-117587777D01*
X84913811Y-117587775D01*
X84913816Y-117587771D01*
X84919186Y-117584902D01*
X84920426Y-117587222D01*
X84976164Y-117569717D01*
X85043560Y-117588144D01*
X85090295Y-117640082D01*
X85101531Y-117709043D01*
X85088969Y-117749989D01*
X85016118Y-117892967D01*
X84955290Y-118080173D01*
X84924500Y-118274577D01*
X84924500Y-118471422D01*
X84955290Y-118665826D01*
X85016117Y-118853029D01*
X85068260Y-118955365D01*
X85105476Y-119028405D01*
X85221172Y-119187646D01*
X85360354Y-119326828D01*
X85519595Y-119442524D01*
X85596257Y-119481585D01*
X85694970Y-119531882D01*
X85694972Y-119531882D01*
X85694975Y-119531884D01*
X85769756Y-119556182D01*
X85882173Y-119592709D01*
X86076578Y-119623500D01*
X86076583Y-119623500D01*
X86273422Y-119623500D01*
X86472454Y-119591976D01*
X86541747Y-119600930D01*
X86579533Y-119626768D01*
X87205139Y-120252374D01*
X87205149Y-120252385D01*
X87209479Y-120256715D01*
X87209480Y-120256716D01*
X87321284Y-120368520D01*
X87321286Y-120368521D01*
X87321290Y-120368524D01*
X87431428Y-120432111D01*
X87458216Y-120447577D01*
X87560773Y-120475057D01*
X87610942Y-120488500D01*
X87610943Y-120488500D01*
X88644444Y-120488500D01*
X88711483Y-120508185D01*
X88757238Y-120560989D01*
X88767182Y-120630147D01*
X88766917Y-120631898D01*
X88741000Y-120795527D01*
X88741000Y-120980473D01*
X88769933Y-121163147D01*
X88827083Y-121339040D01*
X88827084Y-121339043D01*
X88911050Y-121503834D01*
X88926015Y-121524430D01*
X89516000Y-120934445D01*
X89516000Y-120940661D01*
X89543259Y-121042394D01*
X89595920Y-121133606D01*
X89670394Y-121208080D01*
X89761606Y-121260741D01*
X89863339Y-121288000D01*
X89869553Y-121288000D01*
X89279568Y-121877983D01*
X89279568Y-121877984D01*
X89300165Y-121892949D01*
X89464956Y-121976915D01*
X89464959Y-121976916D01*
X89640852Y-122034066D01*
X89823527Y-122063000D01*
X90008473Y-122063000D01*
X90191147Y-122034066D01*
X90367040Y-121976916D01*
X90367043Y-121976915D01*
X90531836Y-121892947D01*
X90531845Y-121892942D01*
X90552430Y-121877984D01*
X90552431Y-121877983D01*
X89962448Y-121288000D01*
X89968661Y-121288000D01*
X90070394Y-121260741D01*
X90161606Y-121208080D01*
X90236080Y-121133606D01*
X90288741Y-121042394D01*
X90316000Y-120940661D01*
X90316000Y-120934447D01*
X90905983Y-121524430D01*
X90905984Y-121524430D01*
X90920942Y-121503845D01*
X90920947Y-121503836D01*
X91004915Y-121339043D01*
X91004916Y-121339040D01*
X91062066Y-121163147D01*
X91091000Y-120980473D01*
X91091000Y-120795527D01*
X91065083Y-120631898D01*
X91074037Y-120562605D01*
X91119033Y-120509153D01*
X91185785Y-120488513D01*
X91187556Y-120488500D01*
X92183230Y-120488500D01*
X92245369Y-120506746D01*
X92245819Y-120505905D01*
X92249859Y-120508064D01*
X92250269Y-120508185D01*
X92251087Y-120508721D01*
X92251190Y-120508776D01*
X92377245Y-120560989D01*
X92378672Y-120561580D01*
X92378676Y-120561580D01*
X92378677Y-120561581D01*
X92514004Y-120588500D01*
X92514007Y-120588500D01*
X92651995Y-120588500D01*
X92755455Y-120567920D01*
X92787328Y-120561580D01*
X92899157Y-120515259D01*
X92914804Y-120508778D01*
X92914804Y-120508777D01*
X92914811Y-120508775D01*
X93029542Y-120432114D01*
X93127114Y-120334542D01*
X93203775Y-120219811D01*
X93256580Y-120092328D01*
X93269773Y-120026004D01*
X93283500Y-119956995D01*
X93283500Y-119819004D01*
X93256581Y-119683677D01*
X93256580Y-119683676D01*
X93256580Y-119683672D01*
X93231656Y-119623500D01*
X93203778Y-119556195D01*
X93203771Y-119556182D01*
X93127114Y-119441458D01*
X93127111Y-119441454D01*
X93029545Y-119343888D01*
X93029541Y-119343885D01*
X92914817Y-119267228D01*
X92914804Y-119267221D01*
X92787332Y-119214421D01*
X92787322Y-119214418D01*
X92651995Y-119187500D01*
X92651993Y-119187500D01*
X92514007Y-119187500D01*
X92514005Y-119187500D01*
X92378677Y-119214418D01*
X92378667Y-119214421D01*
X92251190Y-119267223D01*
X92245819Y-119270095D01*
X92245123Y-119268794D01*
X92185438Y-119287480D01*
X92183230Y-119287500D01*
X91215500Y-119287500D01*
X91148461Y-119267815D01*
X91102706Y-119215011D01*
X91091500Y-119163500D01*
X91091499Y-118165129D01*
X91091498Y-118165123D01*
X91091497Y-118165116D01*
X91086110Y-118115000D01*
X91085091Y-118105516D01*
X91034797Y-117970671D01*
X91034793Y-117970664D01*
X90948547Y-117855455D01*
X90948544Y-117855452D01*
X90833335Y-117769206D01*
X90833328Y-117769202D01*
X90698482Y-117718908D01*
X90698483Y-117718908D01*
X90638883Y-117712501D01*
X90638881Y-117712500D01*
X90638873Y-117712500D01*
X90638864Y-117712500D01*
X89193129Y-117712500D01*
X89193123Y-117712501D01*
X89133516Y-117718908D01*
X88998671Y-117769202D01*
X88998664Y-117769206D01*
X88883455Y-117855452D01*
X88870730Y-117872450D01*
X88870727Y-117872454D01*
X88797204Y-117970669D01*
X88769007Y-118046268D01*
X88769000Y-118046281D01*
X88746909Y-118105514D01*
X88746908Y-118105516D01*
X88744744Y-118125650D01*
X88740500Y-118165127D01*
X88740500Y-118724431D01*
X88740501Y-119163500D01*
X88720817Y-119230539D01*
X88668013Y-119276294D01*
X88616501Y-119287500D01*
X87990097Y-119287500D01*
X87923058Y-119267815D01*
X87902416Y-119251181D01*
X87428768Y-118777533D01*
X87395283Y-118716210D01*
X87393976Y-118670454D01*
X87425500Y-118471422D01*
X87425500Y-118274578D01*
X87408150Y-118165039D01*
X87417104Y-118095745D01*
X87462100Y-118042293D01*
X87528852Y-118021653D01*
X87596165Y-118040378D01*
X87599514Y-118042538D01*
X87679182Y-118095771D01*
X87679195Y-118095778D01*
X87806667Y-118148578D01*
X87806672Y-118148580D01*
X87806676Y-118148580D01*
X87806677Y-118148581D01*
X87942004Y-118175500D01*
X87942007Y-118175500D01*
X88079995Y-118175500D01*
X88171041Y-118157389D01*
X88215328Y-118148580D01*
X88319451Y-118105451D01*
X88342804Y-118095778D01*
X88342804Y-118095777D01*
X88342811Y-118095775D01*
X88457542Y-118019114D01*
X88555114Y-117921542D01*
X88631775Y-117806811D01*
X88684580Y-117679328D01*
X88703363Y-117584902D01*
X88711500Y-117543995D01*
X88711500Y-117406004D01*
X88684581Y-117270677D01*
X88684580Y-117270676D01*
X88684580Y-117270672D01*
X88676481Y-117251119D01*
X88631778Y-117143195D01*
X88631771Y-117143182D01*
X88555114Y-117028458D01*
X88555111Y-117028454D01*
X88457545Y-116930888D01*
X88457541Y-116930885D01*
X88342817Y-116854228D01*
X88342804Y-116854221D01*
X88215332Y-116801421D01*
X88215322Y-116801418D01*
X88079995Y-116774500D01*
X88079993Y-116774500D01*
X87942007Y-116774500D01*
X87942005Y-116774500D01*
X87806677Y-116801418D01*
X87806667Y-116801421D01*
X87679195Y-116854221D01*
X87679182Y-116854228D01*
X87564458Y-116930885D01*
X87564454Y-116930888D01*
X87466888Y-117028454D01*
X87466885Y-117028458D01*
X87390228Y-117143182D01*
X87390221Y-117143195D01*
X87337421Y-117270667D01*
X87337418Y-117270677D01*
X87310500Y-117406004D01*
X87310500Y-117440664D01*
X87290815Y-117507703D01*
X87238011Y-117553458D01*
X87168853Y-117563402D01*
X87105297Y-117534377D01*
X87098819Y-117528345D01*
X86989648Y-117419174D01*
X86989646Y-117419172D01*
X86830405Y-117303476D01*
X86821236Y-117298804D01*
X86655029Y-117214117D01*
X86467826Y-117153290D01*
X86273422Y-117122500D01*
X86273417Y-117122500D01*
X86076583Y-117122500D01*
X86076578Y-117122500D01*
X85882173Y-117153290D01*
X85694970Y-117214117D01*
X85519594Y-117303476D01*
X85419321Y-117376330D01*
X85353515Y-117399810D01*
X85285461Y-117383985D01*
X85236766Y-117333879D01*
X85222890Y-117265401D01*
X85231874Y-117228559D01*
X85237856Y-117214117D01*
X85255580Y-117171328D01*
X85282500Y-117035993D01*
X85282500Y-116898007D01*
X85282500Y-116898004D01*
X85255581Y-116762677D01*
X85255580Y-116762676D01*
X85255580Y-116762672D01*
X85255578Y-116762667D01*
X85202778Y-116635195D01*
X85202771Y-116635182D01*
X85126114Y-116520458D01*
X85126111Y-116520454D01*
X85028545Y-116422888D01*
X85028541Y-116422885D01*
X84913817Y-116346228D01*
X84913804Y-116346221D01*
X84786332Y-116293421D01*
X84786322Y-116293418D01*
X84650995Y-116266500D01*
X84650993Y-116266500D01*
X84513007Y-116266500D01*
X84513005Y-116266500D01*
X84377677Y-116293418D01*
X84377667Y-116293421D01*
X84250195Y-116346221D01*
X84250182Y-116346228D01*
X84135458Y-116422885D01*
X84135454Y-116422888D01*
X84037888Y-116520454D01*
X84037885Y-116520458D01*
X83961228Y-116635182D01*
X83961221Y-116635195D01*
X83908421Y-116762667D01*
X83908418Y-116762677D01*
X83881500Y-116898004D01*
X83881500Y-116898007D01*
X83881500Y-117035993D01*
X83881500Y-117035995D01*
X83881499Y-117035995D01*
X81545500Y-117035995D01*
X81545500Y-115274577D01*
X84924500Y-115274577D01*
X84924500Y-115471422D01*
X84955290Y-115665826D01*
X85016117Y-115853029D01*
X85071402Y-115961531D01*
X85105476Y-116028405D01*
X85221172Y-116187646D01*
X85360354Y-116326828D01*
X85519595Y-116442524D01*
X85572621Y-116469542D01*
X85694970Y-116531882D01*
X85694972Y-116531882D01*
X85694975Y-116531884D01*
X85795317Y-116564487D01*
X85882173Y-116592709D01*
X86076578Y-116623500D01*
X86076583Y-116623500D01*
X86273422Y-116623500D01*
X86467826Y-116592709D01*
X86655025Y-116531884D01*
X86830405Y-116442524D01*
X86989646Y-116326828D01*
X87128828Y-116187646D01*
X87244524Y-116028405D01*
X87333884Y-115853025D01*
X87394709Y-115665826D01*
X87400699Y-115628007D01*
X87425500Y-115471422D01*
X87425500Y-115274578D01*
X87415533Y-115211654D01*
X89025001Y-115211654D01*
X89035319Y-115312652D01*
X89089546Y-115476300D01*
X89089551Y-115476311D01*
X89180052Y-115623034D01*
X89180055Y-115623038D01*
X89301961Y-115744944D01*
X89301965Y-115744947D01*
X89448688Y-115835448D01*
X89448699Y-115835453D01*
X89612347Y-115889680D01*
X89713352Y-115899999D01*
X89750000Y-115899999D01*
X90250000Y-115899999D01*
X90286640Y-115899999D01*
X90286654Y-115899998D01*
X90387652Y-115889680D01*
X90551300Y-115835453D01*
X90551311Y-115835448D01*
X90698034Y-115744947D01*
X90698038Y-115744944D01*
X90819944Y-115623038D01*
X90819947Y-115623034D01*
X90910448Y-115476311D01*
X90910453Y-115476300D01*
X90964680Y-115312652D01*
X90974999Y-115211654D01*
X90975000Y-115211641D01*
X90975000Y-115162500D01*
X90250000Y-115162500D01*
X90250000Y-115899999D01*
X89750000Y-115899999D01*
X89750000Y-115162500D01*
X89025001Y-115162500D01*
X89025001Y-115211654D01*
X87415533Y-115211654D01*
X87406328Y-115153536D01*
X87394709Y-115080174D01*
X87394707Y-115080169D01*
X87393975Y-115075545D01*
X87402929Y-115006252D01*
X87428764Y-114968469D01*
X88672916Y-113724319D01*
X88734239Y-113690834D01*
X88760597Y-113688000D01*
X89042389Y-113688000D01*
X89109428Y-113707685D01*
X89147928Y-113746904D01*
X89179659Y-113798349D01*
X89293982Y-113912672D01*
X89327467Y-113973995D01*
X89322483Y-114043687D01*
X89293983Y-114088034D01*
X89180052Y-114201965D01*
X89089551Y-114348688D01*
X89089546Y-114348699D01*
X89035319Y-114512347D01*
X89025000Y-114613345D01*
X89025000Y-114662500D01*
X90974999Y-114662500D01*
X90974999Y-114613360D01*
X90974998Y-114613345D01*
X90964680Y-114512347D01*
X90910453Y-114348699D01*
X90910448Y-114348688D01*
X90819947Y-114201965D01*
X90819944Y-114201961D01*
X90706017Y-114088034D01*
X90672532Y-114026711D01*
X90677516Y-113957019D01*
X90706013Y-113912676D01*
X90820340Y-113798350D01*
X90910908Y-113651516D01*
X90965174Y-113487753D01*
X90975500Y-113386677D01*
X90975499Y-112788324D01*
X90975384Y-112787203D01*
X90965174Y-112687247D01*
X90951321Y-112645443D01*
X90910908Y-112523484D01*
X90820340Y-112376650D01*
X90698350Y-112254660D01*
X90698349Y-112254659D01*
X90659402Y-112230636D01*
X90612678Y-112178687D01*
X90600500Y-112125098D01*
X90600500Y-111874900D01*
X90620185Y-111807861D01*
X90659401Y-111769363D01*
X90698350Y-111745340D01*
X90820340Y-111623350D01*
X90852072Y-111571904D01*
X90904020Y-111525179D01*
X90957611Y-111513000D01*
X95657101Y-111513000D01*
X95724140Y-111532685D01*
X95769895Y-111585489D01*
X95781101Y-111637000D01*
X95781101Y-111916534D01*
X95791713Y-112035915D01*
X95847689Y-112231545D01*
X95847690Y-112231546D01*
X95847691Y-112231549D01*
X95941902Y-112411907D01*
X95991726Y-112473011D01*
X96054615Y-112550139D01*
X96066785Y-112579049D01*
X96080668Y-112607188D01*
X96080235Y-112611000D01*
X96081724Y-112614536D01*
X96076331Y-112645443D01*
X96072798Y-112676613D01*
X96070114Y-112681077D01*
X96069715Y-112683365D01*
X96054615Y-112706861D01*
X96054614Y-112706862D01*
X96016125Y-112754064D01*
X95958504Y-112793580D01*
X95888665Y-112795671D01*
X95828783Y-112759673D01*
X95816925Y-112744597D01*
X95794114Y-112710458D01*
X95794112Y-112710455D01*
X95696545Y-112612888D01*
X95696541Y-112612885D01*
X95581817Y-112536228D01*
X95581804Y-112536221D01*
X95454332Y-112483421D01*
X95454322Y-112483418D01*
X95318995Y-112456500D01*
X95318993Y-112456500D01*
X95181007Y-112456500D01*
X95181005Y-112456500D01*
X95045677Y-112483418D01*
X95045667Y-112483421D01*
X94918195Y-112536221D01*
X94918182Y-112536228D01*
X94803458Y-112612885D01*
X94803454Y-112612888D01*
X94705888Y-112710454D01*
X94705885Y-112710458D01*
X94629228Y-112825182D01*
X94629221Y-112825195D01*
X94576421Y-112952667D01*
X94576418Y-112952677D01*
X94549500Y-113088004D01*
X94549500Y-113088007D01*
X94549500Y-113225993D01*
X94549500Y-113225995D01*
X94549499Y-113225995D01*
X94576418Y-113361322D01*
X94576421Y-113361332D01*
X94629222Y-113488806D01*
X94632094Y-113494178D01*
X94630792Y-113494874D01*
X94649480Y-113554554D01*
X94649500Y-113556769D01*
X94649500Y-117007330D01*
X94649499Y-117007348D01*
X94649499Y-117173054D01*
X94649498Y-117173054D01*
X94690423Y-117325787D01*
X94696156Y-117335716D01*
X94696158Y-117335718D01*
X94769477Y-117462712D01*
X94769481Y-117462717D01*
X94888349Y-117581585D01*
X94888355Y-117581590D01*
X95744781Y-118438016D01*
X95778266Y-118499339D01*
X95781100Y-118525697D01*
X95781100Y-119536528D01*
X95781100Y-119536533D01*
X95781101Y-119536536D01*
X95781266Y-119538388D01*
X95791713Y-119655915D01*
X95847689Y-119851545D01*
X95847690Y-119851548D01*
X95847691Y-119851549D01*
X95941902Y-120031907D01*
X95987091Y-120087327D01*
X96054615Y-120170139D01*
X96081724Y-120234536D01*
X96069715Y-120303365D01*
X96054615Y-120326861D01*
X95956188Y-120447573D01*
X95941902Y-120465093D01*
X95909436Y-120527246D01*
X95847689Y-120645454D01*
X95809247Y-120779806D01*
X95793358Y-120835339D01*
X95791714Y-120841083D01*
X95791713Y-120841086D01*
X95781100Y-120960466D01*
X95781100Y-122076528D01*
X95781101Y-122076534D01*
X95791713Y-122195915D01*
X95847689Y-122391545D01*
X95847690Y-122391548D01*
X95847691Y-122391549D01*
X95941902Y-122571907D01*
X95941904Y-122571909D01*
X96054938Y-122710535D01*
X96082047Y-122774932D01*
X96070038Y-122843761D01*
X96054938Y-122867257D01*
X95942321Y-123005370D01*
X95848157Y-123185638D01*
X95792209Y-123381171D01*
X95792208Y-123381174D01*
X95781600Y-123500499D01*
X95781600Y-124616500D01*
X95792208Y-124735825D01*
X95792209Y-124735828D01*
X95848157Y-124931361D01*
X95942321Y-125111629D01*
X96054938Y-125249742D01*
X96082047Y-125314138D01*
X96070038Y-125382968D01*
X96054938Y-125406463D01*
X95941905Y-125545087D01*
X95847689Y-125725454D01*
X95791714Y-125921083D01*
X95791713Y-125921086D01*
X95789108Y-125950388D01*
X95781141Y-126040008D01*
X95781100Y-126040466D01*
X95781100Y-127156528D01*
X95781101Y-127156534D01*
X95791713Y-127275915D01*
X95847689Y-127471545D01*
X95847690Y-127471548D01*
X95847691Y-127471549D01*
X95941902Y-127651907D01*
X95941904Y-127651909D01*
X96070490Y-127809609D01*
X96124384Y-127853553D01*
X96228193Y-127938198D01*
X96408551Y-128032409D01*
X96604182Y-128088386D01*
X96723563Y-128099000D01*
X98589636Y-128098999D01*
X98709018Y-128088386D01*
X98904649Y-128032409D01*
X99085007Y-127938198D01*
X99242709Y-127809609D01*
X99371298Y-127651907D01*
X99465509Y-127471549D01*
X99521486Y-127275918D01*
X99532100Y-127156537D01*
X99532099Y-126040464D01*
X99521486Y-125921082D01*
X99465509Y-125725451D01*
X99371298Y-125545093D01*
X99258261Y-125406464D01*
X99231152Y-125342068D01*
X99243161Y-125273238D01*
X99258262Y-125249741D01*
X99370878Y-125111630D01*
X99442899Y-124973753D01*
X103150000Y-124973753D01*
X103150000Y-125186246D01*
X103183242Y-125396127D01*
X103183242Y-125396130D01*
X103248904Y-125598217D01*
X103345375Y-125787550D01*
X103384728Y-125841716D01*
X104146446Y-125080000D01*
X103384728Y-124318282D01*
X103384727Y-124318282D01*
X103345380Y-124372439D01*
X103248904Y-124561782D01*
X103183242Y-124763869D01*
X103183242Y-124763872D01*
X103150000Y-124973753D01*
X99442899Y-124973753D01*
X99465041Y-124931364D01*
X99520991Y-124735825D01*
X99531599Y-124616500D01*
X99531600Y-124616498D01*
X99531600Y-123500502D01*
X99531599Y-123500499D01*
X99520991Y-123381174D01*
X99520990Y-123381171D01*
X99465042Y-123185638D01*
X99370878Y-123005370D01*
X99258261Y-122867257D01*
X99231152Y-122802861D01*
X99243161Y-122734031D01*
X99258258Y-122710539D01*
X99371298Y-122571907D01*
X99465509Y-122391549D01*
X99521486Y-122195918D01*
X99532100Y-122076537D01*
X99532099Y-120960464D01*
X99521486Y-120841082D01*
X99465509Y-120645451D01*
X99371298Y-120465093D01*
X99258583Y-120326859D01*
X99231475Y-120262465D01*
X99243484Y-120193635D01*
X99258581Y-120170142D01*
X99371298Y-120031907D01*
X99465509Y-119851549D01*
X99521486Y-119655918D01*
X99532100Y-119536537D01*
X99532099Y-118420464D01*
X99521486Y-118301082D01*
X99465509Y-118105451D01*
X99371298Y-117925093D01*
X99258583Y-117786859D01*
X99231475Y-117722465D01*
X99243484Y-117653635D01*
X99258581Y-117630142D01*
X99371298Y-117491907D01*
X99465509Y-117311549D01*
X99521486Y-117115918D01*
X99532100Y-116996537D01*
X99532099Y-115880464D01*
X99521486Y-115761082D01*
X99465509Y-115565451D01*
X99371298Y-115385093D01*
X99258583Y-115246859D01*
X99231475Y-115182465D01*
X99243484Y-115113635D01*
X99258581Y-115090142D01*
X99371298Y-114951907D01*
X99465509Y-114771549D01*
X99465627Y-114771138D01*
X104037212Y-114771138D01*
X104123246Y-114908062D01*
X104246737Y-115031553D01*
X104394613Y-115124469D01*
X104559460Y-115182151D01*
X104689469Y-115196799D01*
X104689473Y-115196800D01*
X105326527Y-115196800D01*
X105326530Y-115196799D01*
X105456539Y-115182151D01*
X105621386Y-115124469D01*
X105769262Y-115031553D01*
X105892753Y-114908062D01*
X105892755Y-114908059D01*
X105978786Y-114771138D01*
X105008000Y-113800352D01*
X104037212Y-114771138D01*
X99465627Y-114771138D01*
X99521486Y-114575918D01*
X99532100Y-114456537D01*
X99532100Y-114143248D01*
X103958000Y-114143248D01*
X104654448Y-113446800D01*
X104654448Y-113446799D01*
X105361552Y-113446799D01*
X105361552Y-113446800D01*
X106057999Y-114143248D01*
X106058000Y-114143247D01*
X106058000Y-112750352D01*
X106057999Y-112750351D01*
X105361552Y-113446799D01*
X104654448Y-113446799D01*
X103958000Y-112750351D01*
X103958000Y-114143248D01*
X99532100Y-114143248D01*
X99532099Y-113340464D01*
X99521486Y-113221082D01*
X99469304Y-113038713D01*
X99465510Y-113025454D01*
X99465509Y-113025453D01*
X99465509Y-113025451D01*
X99371298Y-112845093D01*
X99258583Y-112706859D01*
X99231475Y-112642465D01*
X99243484Y-112573635D01*
X99258581Y-112550142D01*
X99371298Y-112411907D01*
X99465509Y-112231549D01*
X99496723Y-112122460D01*
X104037212Y-112122460D01*
X105008000Y-113093248D01*
X105008001Y-113093248D01*
X105978787Y-112122460D01*
X105978787Y-112122459D01*
X105892756Y-111985540D01*
X105769262Y-111862046D01*
X105621386Y-111769130D01*
X105456539Y-111711448D01*
X105326530Y-111696800D01*
X104689469Y-111696800D01*
X104559460Y-111711448D01*
X104394613Y-111769130D01*
X104246737Y-111862046D01*
X104123246Y-111985537D01*
X104037212Y-112122460D01*
X99496723Y-112122460D01*
X99521486Y-112035918D01*
X99532100Y-111916537D01*
X99532099Y-110800464D01*
X99521486Y-110681082D01*
X99465509Y-110485451D01*
X99371298Y-110305093D01*
X99297967Y-110215159D01*
X99242709Y-110147390D01*
X99104659Y-110034826D01*
X99085007Y-110018802D01*
X98904649Y-109924591D01*
X98904648Y-109924590D01*
X98904645Y-109924589D01*
X98787429Y-109891050D01*
X98709018Y-109868614D01*
X98709015Y-109868613D01*
X98709013Y-109868613D01*
X98642702Y-109862717D01*
X98589637Y-109858000D01*
X98589632Y-109858000D01*
X96723571Y-109858000D01*
X96723565Y-109858000D01*
X96723564Y-109858001D01*
X96711916Y-109859036D01*
X96604184Y-109868613D01*
X96408554Y-109924589D01*
X96347146Y-109956666D01*
X96228193Y-110018802D01*
X96228191Y-110018803D01*
X96228190Y-110018804D01*
X96070490Y-110147390D01*
X95973484Y-110266361D01*
X95915863Y-110305878D01*
X95877382Y-110312000D01*
X90957611Y-110312000D01*
X90890572Y-110292315D01*
X90864060Y-110269389D01*
X90857399Y-110261732D01*
X90820340Y-110201650D01*
X90703325Y-110084635D01*
X90700501Y-110081389D01*
X90687646Y-110053389D01*
X90672886Y-110026358D01*
X90673202Y-110021928D01*
X90671349Y-110017891D01*
X90675673Y-109987386D01*
X90677870Y-109956666D01*
X90680638Y-109952358D01*
X90681155Y-109948713D01*
X90688307Y-109940425D01*
X90706371Y-109912319D01*
X90760690Y-109858000D01*
X90820340Y-109798350D01*
X90910908Y-109651516D01*
X90965174Y-109487753D01*
X90975500Y-109386677D01*
X90975499Y-108788324D01*
X90965174Y-108687247D01*
X90910908Y-108523484D01*
X90820340Y-108376650D01*
X90698350Y-108254660D01*
X90551516Y-108164092D01*
X90387753Y-108109826D01*
X90387751Y-108109825D01*
X90286678Y-108099500D01*
X89713330Y-108099500D01*
X89713312Y-108099501D01*
X89612247Y-108109825D01*
X89448484Y-108164092D01*
X89448481Y-108164093D01*
X89301648Y-108254661D01*
X89179661Y-108376648D01*
X89089093Y-108523481D01*
X89089091Y-108523486D01*
X89064260Y-108598422D01*
X89034826Y-108687247D01*
X89034826Y-108687248D01*
X89034825Y-108687248D01*
X89024500Y-108788315D01*
X89024500Y-109386669D01*
X89024501Y-109386687D01*
X89034825Y-109487752D01*
X89089092Y-109651515D01*
X89089093Y-109651518D01*
X89123395Y-109707129D01*
X89174201Y-109789500D01*
X89179661Y-109798351D01*
X89293629Y-109912319D01*
X89327114Y-109973642D01*
X89322130Y-110043334D01*
X89293629Y-110087681D01*
X89179661Y-110201648D01*
X89089093Y-110348481D01*
X89089091Y-110348486D01*
X89084222Y-110363181D01*
X89034826Y-110512247D01*
X89034826Y-110512248D01*
X89034825Y-110512248D01*
X89024500Y-110613315D01*
X89024500Y-111211669D01*
X89024501Y-111211687D01*
X89034825Y-111312752D01*
X89061492Y-111393225D01*
X89077143Y-111440458D01*
X89089092Y-111476515D01*
X89089093Y-111476518D01*
X89119108Y-111525179D01*
X89179660Y-111623350D01*
X89301650Y-111745340D01*
X89340597Y-111769362D01*
X89387320Y-111821307D01*
X89399500Y-111874900D01*
X89399500Y-112125098D01*
X89379815Y-112192137D01*
X89340598Y-112230636D01*
X89301650Y-112254659D01*
X89179659Y-112376650D01*
X89147928Y-112428096D01*
X89095980Y-112474821D01*
X89042389Y-112487000D01*
X88381443Y-112487000D01*
X88228713Y-112527923D01*
X88188745Y-112551000D01*
X88188744Y-112551000D01*
X88091787Y-112606977D01*
X88091782Y-112606981D01*
X87979978Y-112718786D01*
X86579532Y-114119231D01*
X86518209Y-114152716D01*
X86472453Y-114154023D01*
X86273422Y-114122500D01*
X86273417Y-114122500D01*
X86076583Y-114122500D01*
X86076578Y-114122500D01*
X85882173Y-114153290D01*
X85694970Y-114214117D01*
X85519594Y-114303476D01*
X85457366Y-114348688D01*
X85360354Y-114419172D01*
X85360352Y-114419174D01*
X85360351Y-114419174D01*
X85221174Y-114558351D01*
X85221174Y-114558352D01*
X85221172Y-114558354D01*
X85181208Y-114613360D01*
X85105476Y-114717594D01*
X85016117Y-114892970D01*
X84955290Y-115080173D01*
X84924500Y-115274577D01*
X81545500Y-115274577D01*
X81545500Y-110558995D01*
X82484499Y-110558995D01*
X82511418Y-110694322D01*
X82511421Y-110694332D01*
X82564221Y-110821804D01*
X82564228Y-110821817D01*
X82640885Y-110936541D01*
X82640888Y-110936545D01*
X82738454Y-111034111D01*
X82738458Y-111034114D01*
X82853182Y-111110771D01*
X82853195Y-111110778D01*
X82898139Y-111129394D01*
X82980672Y-111163580D01*
X82980676Y-111163580D01*
X82980677Y-111163581D01*
X83116004Y-111190500D01*
X83116007Y-111190500D01*
X83253995Y-111190500D01*
X83345041Y-111172389D01*
X83389328Y-111163580D01*
X83516811Y-111110775D01*
X83631542Y-111034114D01*
X83729114Y-110936542D01*
X83805775Y-110821811D01*
X83858580Y-110694328D01*
X83885500Y-110558993D01*
X83885500Y-110421007D01*
X83885500Y-110421004D01*
X83858581Y-110285677D01*
X83858580Y-110285676D01*
X83858580Y-110285672D01*
X83858578Y-110285667D01*
X83805778Y-110158195D01*
X83805771Y-110158182D01*
X83729114Y-110043458D01*
X83729111Y-110043454D01*
X83631545Y-109945888D01*
X83631541Y-109945885D01*
X83516817Y-109869228D01*
X83516804Y-109869221D01*
X83389332Y-109816421D01*
X83389322Y-109816418D01*
X83253995Y-109789500D01*
X83253993Y-109789500D01*
X83116007Y-109789500D01*
X83116005Y-109789500D01*
X82980677Y-109816418D01*
X82980667Y-109816421D01*
X82853195Y-109869221D01*
X82853182Y-109869228D01*
X82738458Y-109945885D01*
X82738454Y-109945888D01*
X82640888Y-110043454D01*
X82640885Y-110043458D01*
X82564228Y-110158182D01*
X82564221Y-110158195D01*
X82511421Y-110285667D01*
X82511418Y-110285677D01*
X82484500Y-110421004D01*
X82484500Y-110421007D01*
X82484500Y-110558993D01*
X82484500Y-110558995D01*
X82484499Y-110558995D01*
X81545500Y-110558995D01*
X81545500Y-106422001D01*
X98348704Y-106422001D01*
X98348899Y-106424486D01*
X98394718Y-106582198D01*
X98478314Y-106723552D01*
X98478321Y-106723561D01*
X98594438Y-106839678D01*
X98594447Y-106839685D01*
X98735803Y-106923282D01*
X98735806Y-106923283D01*
X98893504Y-106969099D01*
X98893510Y-106969100D01*
X98930350Y-106971999D01*
X98930366Y-106972000D01*
X99621000Y-106972000D01*
X100121000Y-106972000D01*
X100811634Y-106972000D01*
X100811649Y-106971999D01*
X100848489Y-106969100D01*
X100848495Y-106969099D01*
X101006193Y-106923283D01*
X101006196Y-106923282D01*
X101147552Y-106839685D01*
X101147561Y-106839678D01*
X101263678Y-106723561D01*
X101263685Y-106723552D01*
X101347281Y-106582198D01*
X101393100Y-106424486D01*
X101393295Y-106422001D01*
X107648704Y-106422001D01*
X107648899Y-106424486D01*
X107694718Y-106582198D01*
X107778314Y-106723552D01*
X107778321Y-106723561D01*
X107894438Y-106839678D01*
X107894447Y-106839685D01*
X108035803Y-106923282D01*
X108035806Y-106923283D01*
X108193504Y-106969099D01*
X108193510Y-106969100D01*
X108230350Y-106971999D01*
X108230366Y-106972000D01*
X108921000Y-106972000D01*
X109421000Y-106972000D01*
X110111634Y-106972000D01*
X110111649Y-106971999D01*
X110148489Y-106969100D01*
X110148495Y-106969099D01*
X110306193Y-106923283D01*
X110306196Y-106923282D01*
X110447552Y-106839685D01*
X110447561Y-106839678D01*
X110563678Y-106723561D01*
X110563685Y-106723552D01*
X110647281Y-106582198D01*
X110693100Y-106424486D01*
X110693295Y-106422001D01*
X110693295Y-106422000D01*
X109421000Y-106422000D01*
X109421000Y-106972000D01*
X108921000Y-106972000D01*
X108921000Y-106422000D01*
X107648705Y-106422000D01*
X107648704Y-106422001D01*
X101393295Y-106422001D01*
X101393295Y-106422000D01*
X100121000Y-106422000D01*
X100121000Y-106972000D01*
X99621000Y-106972000D01*
X99621000Y-106422000D01*
X98348705Y-106422000D01*
X98348704Y-106422001D01*
X81545500Y-106422001D01*
X81545500Y-105152001D01*
X98348704Y-105152001D01*
X98348899Y-105154486D01*
X98394718Y-105312198D01*
X98478314Y-105453552D01*
X98483100Y-105459722D01*
X98480753Y-105461542D01*
X98507564Y-105510642D01*
X98502580Y-105580334D01*
X98481541Y-105613069D01*
X98483100Y-105614278D01*
X98478314Y-105620447D01*
X98394718Y-105761801D01*
X98348899Y-105919513D01*
X98348704Y-105921998D01*
X98348705Y-105922000D01*
X99621000Y-105922000D01*
X100121000Y-105922000D01*
X101393295Y-105922000D01*
X101393295Y-105921998D01*
X101393100Y-105919513D01*
X101347281Y-105761801D01*
X101263685Y-105620447D01*
X101258900Y-105614278D01*
X101261252Y-105612453D01*
X101234445Y-105563405D01*
X101239402Y-105493712D01*
X101260465Y-105460936D01*
X101258900Y-105459722D01*
X101263685Y-105453552D01*
X101347281Y-105312198D01*
X101393100Y-105154486D01*
X101393295Y-105152001D01*
X107648704Y-105152001D01*
X107648899Y-105154486D01*
X107694718Y-105312198D01*
X107778314Y-105453552D01*
X107783100Y-105459722D01*
X107780753Y-105461542D01*
X107807564Y-105510642D01*
X107802580Y-105580334D01*
X107781541Y-105613069D01*
X107783100Y-105614278D01*
X107778314Y-105620447D01*
X107694718Y-105761801D01*
X107648899Y-105919513D01*
X107648704Y-105921998D01*
X107648705Y-105922000D01*
X108921000Y-105922000D01*
X109421000Y-105922000D01*
X110693295Y-105922000D01*
X110693295Y-105921998D01*
X110693100Y-105919513D01*
X110647281Y-105761801D01*
X110563685Y-105620447D01*
X110558900Y-105614278D01*
X110561252Y-105612453D01*
X110534445Y-105563405D01*
X110539402Y-105493712D01*
X110560465Y-105460936D01*
X110558900Y-105459722D01*
X110563685Y-105453552D01*
X110647281Y-105312198D01*
X110693100Y-105154486D01*
X110693295Y-105152001D01*
X110693295Y-105152000D01*
X109421000Y-105152000D01*
X109421000Y-105922000D01*
X108921000Y-105922000D01*
X108921000Y-105152000D01*
X107648705Y-105152000D01*
X107648704Y-105152001D01*
X101393295Y-105152001D01*
X101393295Y-105152000D01*
X100121000Y-105152000D01*
X100121000Y-105922000D01*
X99621000Y-105922000D01*
X99621000Y-105152000D01*
X98348705Y-105152000D01*
X98348704Y-105152001D01*
X81545500Y-105152001D01*
X81545500Y-97401577D01*
X82749500Y-97401577D01*
X82749500Y-97598422D01*
X82780290Y-97792826D01*
X82841117Y-97980029D01*
X82923445Y-98141606D01*
X82930476Y-98155405D01*
X83046172Y-98314646D01*
X83185354Y-98453828D01*
X83344595Y-98569524D01*
X83416413Y-98606117D01*
X83519970Y-98658882D01*
X83519972Y-98658882D01*
X83519975Y-98658884D01*
X83578808Y-98678000D01*
X83707173Y-98719709D01*
X83901578Y-98750500D01*
X83901583Y-98750500D01*
X84098422Y-98750500D01*
X84292826Y-98719709D01*
X84312480Y-98713323D01*
X84480025Y-98658884D01*
X84655405Y-98569524D01*
X84814646Y-98453828D01*
X84953828Y-98314646D01*
X85069524Y-98155405D01*
X85069524Y-98155403D01*
X85072278Y-98151614D01*
X85076610Y-98148273D01*
X85078883Y-98143297D01*
X85103982Y-98127166D01*
X85127608Y-98108949D01*
X85134279Y-98107696D01*
X85137661Y-98105523D01*
X85172596Y-98100500D01*
X85277706Y-98100500D01*
X85344745Y-98120185D01*
X85380808Y-98155609D01*
X85434885Y-98236541D01*
X85434888Y-98236545D01*
X85532454Y-98334111D01*
X85532462Y-98334117D01*
X85600566Y-98379623D01*
X85645372Y-98433235D01*
X85654079Y-98502560D01*
X85623925Y-98565587D01*
X85619357Y-98570406D01*
X84787927Y-99401836D01*
X84726604Y-99435321D01*
X84656912Y-99430337D01*
X84643951Y-99424640D01*
X84480029Y-99341117D01*
X84292826Y-99280290D01*
X84098422Y-99249500D01*
X84098417Y-99249500D01*
X83901583Y-99249500D01*
X83901578Y-99249500D01*
X83707173Y-99280290D01*
X83519970Y-99341117D01*
X83344594Y-99430476D01*
X83253741Y-99496485D01*
X83185354Y-99546172D01*
X83185352Y-99546174D01*
X83185351Y-99546174D01*
X83046174Y-99685351D01*
X83046174Y-99685352D01*
X83046172Y-99685354D01*
X83026378Y-99712598D01*
X82930476Y-99844594D01*
X82841117Y-100019970D01*
X82780290Y-100207173D01*
X82749500Y-100401577D01*
X82749500Y-100598422D01*
X82780290Y-100792826D01*
X82841117Y-100980029D01*
X82912555Y-101120233D01*
X82930476Y-101155405D01*
X83046172Y-101314646D01*
X83185354Y-101453828D01*
X83344595Y-101569524D01*
X83427455Y-101611743D01*
X83519970Y-101658882D01*
X83519972Y-101658882D01*
X83519975Y-101658884D01*
X83597526Y-101684082D01*
X83707173Y-101719709D01*
X83901578Y-101750500D01*
X83901583Y-101750500D01*
X84098422Y-101750500D01*
X84292826Y-101719709D01*
X84314163Y-101712776D01*
X84480025Y-101658884D01*
X84655405Y-101569524D01*
X84814646Y-101453828D01*
X84953828Y-101314646D01*
X85069524Y-101155405D01*
X85158884Y-100980025D01*
X85219709Y-100792826D01*
X85236798Y-100684924D01*
X85266725Y-100621794D01*
X85271571Y-100616662D01*
X87405317Y-98482916D01*
X87466638Y-98449433D01*
X87536330Y-98454417D01*
X87592263Y-98496289D01*
X87616680Y-98561753D01*
X87611200Y-98605620D01*
X87611243Y-98605630D01*
X87611138Y-98606117D01*
X87610704Y-98609597D01*
X87609826Y-98612245D01*
X87609825Y-98612248D01*
X87599500Y-98713315D01*
X87599500Y-98999902D01*
X87579815Y-99066941D01*
X87563181Y-99087583D01*
X84404532Y-102246231D01*
X84343209Y-102279716D01*
X84297453Y-102281023D01*
X84098422Y-102249500D01*
X84098417Y-102249500D01*
X83901583Y-102249500D01*
X83901578Y-102249500D01*
X83707173Y-102280290D01*
X83519970Y-102341117D01*
X83344594Y-102430476D01*
X83253741Y-102496485D01*
X83185354Y-102546172D01*
X83185352Y-102546174D01*
X83185351Y-102546174D01*
X83046174Y-102685351D01*
X83046174Y-102685352D01*
X83046172Y-102685354D01*
X83027053Y-102711669D01*
X82930476Y-102844594D01*
X82841117Y-103019970D01*
X82780290Y-103207173D01*
X82749500Y-103401577D01*
X82749500Y-103598422D01*
X82780290Y-103792826D01*
X82841117Y-103980029D01*
X82930476Y-104155405D01*
X83046172Y-104314646D01*
X83185354Y-104453828D01*
X83344595Y-104569524D01*
X83427455Y-104611743D01*
X83519970Y-104658882D01*
X83519972Y-104658882D01*
X83519975Y-104658884D01*
X83615306Y-104689859D01*
X83707173Y-104719709D01*
X83901578Y-104750500D01*
X83901583Y-104750500D01*
X84098422Y-104750500D01*
X84292826Y-104719709D01*
X84480025Y-104658884D01*
X84655405Y-104569524D01*
X84814646Y-104453828D01*
X84953828Y-104314646D01*
X85069524Y-104155405D01*
X85158884Y-103980025D01*
X85219709Y-103792826D01*
X85231547Y-103718084D01*
X85250500Y-103598422D01*
X85250500Y-103401578D01*
X85236609Y-103313882D01*
X85219709Y-103207174D01*
X85219707Y-103207168D01*
X85218975Y-103202546D01*
X85219676Y-103197119D01*
X85217764Y-103191993D01*
X85224105Y-103162842D01*
X85227929Y-103133252D01*
X85231761Y-103127646D01*
X85232616Y-103123720D01*
X85253764Y-103095469D01*
X85273551Y-103075682D01*
X91611000Y-103075682D01*
X91611000Y-103128000D01*
X92564590Y-103128000D01*
X92514963Y-103213956D01*
X92486000Y-103322048D01*
X92486000Y-103433952D01*
X92514963Y-103542044D01*
X92564590Y-103628000D01*
X91611000Y-103628000D01*
X91611000Y-103680317D01*
X91643009Y-103882417D01*
X91706244Y-104077031D01*
X91799140Y-104259349D01*
X91919417Y-104424894D01*
X91919417Y-104424895D01*
X92064104Y-104569582D01*
X92229650Y-104689859D01*
X92411968Y-104782754D01*
X92606578Y-104845988D01*
X92661000Y-104854607D01*
X92661000Y-103724409D01*
X92746956Y-103774037D01*
X92855048Y-103803000D01*
X92966952Y-103803000D01*
X93075044Y-103774037D01*
X93161000Y-103724409D01*
X93161000Y-104854606D01*
X93215421Y-104845988D01*
X93410031Y-104782754D01*
X93592349Y-104689859D01*
X93757894Y-104569582D01*
X93757895Y-104569582D01*
X93902582Y-104424895D01*
X93902582Y-104424894D01*
X94022859Y-104259349D01*
X94115755Y-104077031D01*
X94178990Y-103882417D01*
X94179056Y-103882001D01*
X98348704Y-103882001D01*
X98348899Y-103884486D01*
X98394718Y-104042198D01*
X98478314Y-104183552D01*
X98483100Y-104189722D01*
X98480753Y-104191542D01*
X98507564Y-104240642D01*
X98502580Y-104310334D01*
X98481541Y-104343069D01*
X98483100Y-104344278D01*
X98478314Y-104350447D01*
X98394718Y-104491801D01*
X98348899Y-104649513D01*
X98348704Y-104651998D01*
X98348705Y-104652000D01*
X99621000Y-104652000D01*
X100121000Y-104652000D01*
X101393295Y-104652000D01*
X101393295Y-104651998D01*
X101393100Y-104649513D01*
X101347281Y-104491801D01*
X101263685Y-104350447D01*
X101258900Y-104344278D01*
X101261252Y-104342453D01*
X101234445Y-104293405D01*
X101239402Y-104223712D01*
X101260465Y-104190936D01*
X101258900Y-104189722D01*
X101263685Y-104183552D01*
X101347281Y-104042198D01*
X101393100Y-103884486D01*
X101393295Y-103882001D01*
X107648704Y-103882001D01*
X107648899Y-103884486D01*
X107694718Y-104042198D01*
X107778314Y-104183552D01*
X107783100Y-104189722D01*
X107780753Y-104191542D01*
X107807564Y-104240642D01*
X107802580Y-104310334D01*
X107781541Y-104343069D01*
X107783100Y-104344278D01*
X107778314Y-104350447D01*
X107694718Y-104491801D01*
X107648899Y-104649513D01*
X107648704Y-104651998D01*
X107648705Y-104652000D01*
X108921000Y-104652000D01*
X109421000Y-104652000D01*
X110693295Y-104652000D01*
X110693295Y-104651998D01*
X110693100Y-104649513D01*
X110647281Y-104491801D01*
X110563685Y-104350447D01*
X110558900Y-104344278D01*
X110561252Y-104342453D01*
X110534445Y-104293405D01*
X110539402Y-104223712D01*
X110560465Y-104190936D01*
X110558900Y-104189722D01*
X110563685Y-104183552D01*
X110647281Y-104042198D01*
X110693100Y-103884486D01*
X110693295Y-103882001D01*
X110693295Y-103882000D01*
X109421000Y-103882000D01*
X109421000Y-104652000D01*
X108921000Y-104652000D01*
X108921000Y-103882000D01*
X107648705Y-103882000D01*
X107648704Y-103882001D01*
X101393295Y-103882001D01*
X101393295Y-103882000D01*
X100121000Y-103882000D01*
X100121000Y-104652000D01*
X99621000Y-104652000D01*
X99621000Y-103882000D01*
X98348705Y-103882000D01*
X98348704Y-103882001D01*
X94179056Y-103882001D01*
X94189152Y-103818258D01*
X94211000Y-103680317D01*
X94211000Y-103628000D01*
X93257410Y-103628000D01*
X93307037Y-103542044D01*
X93336000Y-103433952D01*
X93336000Y-103322048D01*
X93307037Y-103213956D01*
X93257410Y-103128000D01*
X94211000Y-103128000D01*
X94211000Y-103075682D01*
X94178990Y-102873582D01*
X94115755Y-102678968D01*
X94087722Y-102623951D01*
X94081633Y-102612001D01*
X98348704Y-102612001D01*
X98348899Y-102614486D01*
X98394718Y-102772198D01*
X98478314Y-102913552D01*
X98483100Y-102919722D01*
X98480753Y-102921542D01*
X98507564Y-102970642D01*
X98502580Y-103040334D01*
X98481541Y-103073069D01*
X98483100Y-103074278D01*
X98478314Y-103080447D01*
X98394718Y-103221801D01*
X98348899Y-103379513D01*
X98348704Y-103381998D01*
X98348705Y-103382000D01*
X99621000Y-103382000D01*
X100121000Y-103382000D01*
X101393295Y-103382000D01*
X101393295Y-103381998D01*
X101393100Y-103379513D01*
X101347281Y-103221801D01*
X101263685Y-103080447D01*
X101258900Y-103074278D01*
X101261252Y-103072453D01*
X101234445Y-103023405D01*
X101239402Y-102953712D01*
X101260465Y-102920936D01*
X101258900Y-102919722D01*
X101263685Y-102913552D01*
X101347281Y-102772198D01*
X101393100Y-102614486D01*
X101393295Y-102612001D01*
X107648704Y-102612001D01*
X107648899Y-102614486D01*
X107694718Y-102772198D01*
X107778314Y-102913552D01*
X107783100Y-102919722D01*
X107780753Y-102921542D01*
X107807564Y-102970642D01*
X107802580Y-103040334D01*
X107781541Y-103073069D01*
X107783100Y-103074278D01*
X107778314Y-103080447D01*
X107694718Y-103221801D01*
X107648899Y-103379513D01*
X107648704Y-103381998D01*
X107648705Y-103382000D01*
X108921000Y-103382000D01*
X109421000Y-103382000D01*
X110693295Y-103382000D01*
X110693295Y-103381998D01*
X110693100Y-103379513D01*
X110647281Y-103221801D01*
X110563685Y-103080447D01*
X110558900Y-103074278D01*
X110561252Y-103072453D01*
X110534445Y-103023405D01*
X110539402Y-102953712D01*
X110560465Y-102920936D01*
X110558900Y-102919722D01*
X110563685Y-102913552D01*
X110647281Y-102772198D01*
X110693100Y-102614486D01*
X110693295Y-102612001D01*
X110693295Y-102612000D01*
X109421000Y-102612000D01*
X109421000Y-103382000D01*
X108921000Y-103382000D01*
X108921000Y-102612000D01*
X107648705Y-102612000D01*
X107648704Y-102612001D01*
X101393295Y-102612001D01*
X101393295Y-102612000D01*
X100121000Y-102612000D01*
X100121000Y-103382000D01*
X99621000Y-103382000D01*
X99621000Y-102612000D01*
X98348705Y-102612000D01*
X98348704Y-102612001D01*
X94081633Y-102612001D01*
X94022859Y-102496650D01*
X93902582Y-102331105D01*
X93902582Y-102331104D01*
X93757895Y-102186417D01*
X93592349Y-102066140D01*
X93410029Y-101973244D01*
X93215413Y-101910009D01*
X93161000Y-101901390D01*
X93161000Y-103031590D01*
X93075044Y-102981963D01*
X92966952Y-102953000D01*
X92855048Y-102953000D01*
X92746956Y-102981963D01*
X92661000Y-103031590D01*
X92661000Y-101901390D01*
X92606586Y-101910009D01*
X92411970Y-101973244D01*
X92229650Y-102066140D01*
X92064105Y-102186417D01*
X92064104Y-102186417D01*
X91919417Y-102331104D01*
X91919417Y-102331105D01*
X91799140Y-102496650D01*
X91706244Y-102678968D01*
X91643009Y-102873582D01*
X91611000Y-103075682D01*
X85273551Y-103075682D01*
X88337416Y-100011818D01*
X88398739Y-99978333D01*
X88425097Y-99975499D01*
X88662402Y-99975499D01*
X88729441Y-99995184D01*
X88750083Y-100011818D01*
X89305639Y-100567374D01*
X89305649Y-100567385D01*
X89309979Y-100571715D01*
X89309980Y-100571716D01*
X89421784Y-100683520D01*
X89505382Y-100731785D01*
X89558715Y-100762577D01*
X89711443Y-100803501D01*
X89711446Y-100803501D01*
X89877153Y-100803501D01*
X89877169Y-100803500D01*
X91353331Y-100803500D01*
X91353347Y-100803501D01*
X91360943Y-100803501D01*
X91519054Y-100803501D01*
X91519057Y-100803501D01*
X91671785Y-100762577D01*
X91725118Y-100731785D01*
X91808716Y-100683520D01*
X91920520Y-100571716D01*
X91920520Y-100571714D01*
X91930725Y-100561510D01*
X91930731Y-100561503D01*
X92033418Y-100458818D01*
X92094741Y-100425334D01*
X92121098Y-100422500D01*
X95264481Y-100422500D01*
X95331520Y-100442185D01*
X95377275Y-100494989D01*
X95387219Y-100564147D01*
X95358194Y-100627703D01*
X95352162Y-100634181D01*
X95340888Y-100645454D01*
X95340885Y-100645458D01*
X95264228Y-100760182D01*
X95264221Y-100760195D01*
X95211421Y-100887667D01*
X95211418Y-100887677D01*
X95184500Y-101023004D01*
X95184500Y-101023007D01*
X95184500Y-101160993D01*
X95184500Y-101160995D01*
X95184499Y-101160995D01*
X95211418Y-101296322D01*
X95211421Y-101296332D01*
X95264221Y-101423804D01*
X95264228Y-101423817D01*
X95340885Y-101538541D01*
X95340888Y-101538545D01*
X95438454Y-101636111D01*
X95438458Y-101636114D01*
X95553182Y-101712771D01*
X95553195Y-101712778D01*
X95667396Y-101760081D01*
X95680672Y-101765580D01*
X95680676Y-101765580D01*
X95680677Y-101765581D01*
X95816004Y-101792500D01*
X95816007Y-101792500D01*
X95953995Y-101792500D01*
X96045041Y-101774389D01*
X96089328Y-101765580D01*
X96216811Y-101712775D01*
X96216811Y-101712774D01*
X96222181Y-101709905D01*
X96222876Y-101711205D01*
X96282562Y-101692520D01*
X96284770Y-101692500D01*
X98330674Y-101692500D01*
X98397713Y-101712185D01*
X98443468Y-101764989D01*
X98453412Y-101834147D01*
X98437406Y-101879621D01*
X98394718Y-101951801D01*
X98348899Y-102109513D01*
X98348704Y-102111998D01*
X98348705Y-102112000D01*
X101393295Y-102112000D01*
X101393295Y-102111998D01*
X101393100Y-102109513D01*
X101347281Y-101951801D01*
X101263685Y-101810447D01*
X101258900Y-101804278D01*
X101261366Y-101802364D01*
X101234802Y-101753776D01*
X101239749Y-101684082D01*
X101260856Y-101651232D01*
X101259301Y-101650026D01*
X101264077Y-101643868D01*
X101264081Y-101643865D01*
X101347744Y-101502398D01*
X101393598Y-101344569D01*
X101393800Y-101342001D01*
X107648704Y-101342001D01*
X107648899Y-101344486D01*
X107694718Y-101502198D01*
X107778314Y-101643552D01*
X107783100Y-101649722D01*
X107780753Y-101651542D01*
X107807564Y-101700642D01*
X107802580Y-101770334D01*
X107781541Y-101803069D01*
X107783100Y-101804278D01*
X107778314Y-101810447D01*
X107694718Y-101951801D01*
X107648899Y-102109513D01*
X107648704Y-102111998D01*
X107648705Y-102112000D01*
X108921000Y-102112000D01*
X109421000Y-102112000D01*
X110693295Y-102112000D01*
X110693295Y-102111998D01*
X110693100Y-102109513D01*
X110647281Y-101951801D01*
X110563685Y-101810447D01*
X110558900Y-101804278D01*
X110561252Y-101802453D01*
X110534445Y-101753405D01*
X110539402Y-101683712D01*
X110560465Y-101650936D01*
X110558900Y-101649722D01*
X110563685Y-101643552D01*
X110647281Y-101502198D01*
X110693100Y-101344486D01*
X110693295Y-101342001D01*
X110693295Y-101342000D01*
X109421000Y-101342000D01*
X109421000Y-102112000D01*
X108921000Y-102112000D01*
X108921000Y-101342000D01*
X107648705Y-101342000D01*
X107648704Y-101342001D01*
X101393800Y-101342001D01*
X101396500Y-101307694D01*
X101396500Y-100876306D01*
X101393598Y-100839431D01*
X101383159Y-100803501D01*
X101359836Y-100723224D01*
X101347744Y-100681602D01*
X101264081Y-100540135D01*
X101264078Y-100540132D01*
X101259298Y-100533969D01*
X101261750Y-100532066D01*
X101235155Y-100483421D01*
X101240104Y-100413726D01*
X101260940Y-100381304D01*
X101259298Y-100380031D01*
X101264075Y-100373870D01*
X101264081Y-100373865D01*
X101347744Y-100232398D01*
X101393598Y-100074569D01*
X101396500Y-100037694D01*
X101396500Y-99606306D01*
X101393598Y-99569431D01*
X101391782Y-99563181D01*
X101349609Y-99418021D01*
X101347744Y-99411602D01*
X101333640Y-99387753D01*
X101305175Y-99339620D01*
X101287992Y-99271896D01*
X101310152Y-99205634D01*
X101364619Y-99161871D01*
X101411907Y-99152500D01*
X102089230Y-99152500D01*
X102151369Y-99170746D01*
X102151819Y-99169905D01*
X102155859Y-99172064D01*
X102156269Y-99172185D01*
X102157087Y-99172721D01*
X102157190Y-99172776D01*
X102274822Y-99221500D01*
X102284672Y-99225580D01*
X102284676Y-99225580D01*
X102284677Y-99225581D01*
X102420004Y-99252500D01*
X102420007Y-99252500D01*
X102557995Y-99252500D01*
X102649041Y-99234389D01*
X102693328Y-99225580D01*
X102820811Y-99172775D01*
X102935542Y-99096114D01*
X103033114Y-98998542D01*
X103109775Y-98883811D01*
X103162580Y-98756328D01*
X103181963Y-98658884D01*
X103189500Y-98620995D01*
X103189500Y-98483004D01*
X103162581Y-98347677D01*
X103162580Y-98347676D01*
X103162580Y-98347672D01*
X103148900Y-98314646D01*
X103109778Y-98220195D01*
X103109771Y-98220182D01*
X103033114Y-98105458D01*
X103033111Y-98105454D01*
X102935545Y-98007888D01*
X102935541Y-98007885D01*
X102820817Y-97931228D01*
X102820804Y-97931221D01*
X102693332Y-97878421D01*
X102693322Y-97878418D01*
X102557995Y-97851500D01*
X102557993Y-97851500D01*
X102420007Y-97851500D01*
X102420005Y-97851500D01*
X102284677Y-97878418D01*
X102284667Y-97878421D01*
X102157190Y-97931223D01*
X102151819Y-97934095D01*
X102151123Y-97932794D01*
X102091438Y-97951480D01*
X102089230Y-97951500D01*
X101411907Y-97951500D01*
X101344868Y-97931815D01*
X101299113Y-97879011D01*
X101289169Y-97809853D01*
X101305175Y-97764380D01*
X101339480Y-97706371D01*
X101347744Y-97692398D01*
X101393598Y-97534569D01*
X101396500Y-97497694D01*
X101396500Y-97066306D01*
X101396499Y-97066298D01*
X107645500Y-97066298D01*
X107645500Y-97497701D01*
X107648401Y-97534567D01*
X107648402Y-97534573D01*
X107694254Y-97692393D01*
X107694255Y-97692396D01*
X107777917Y-97833862D01*
X107782702Y-97840031D01*
X107780256Y-97841927D01*
X107806857Y-97890642D01*
X107801873Y-97960334D01*
X107781069Y-97992703D01*
X107782702Y-97993969D01*
X107777917Y-98000137D01*
X107694255Y-98141603D01*
X107694254Y-98141606D01*
X107648402Y-98299426D01*
X107648401Y-98299432D01*
X107645500Y-98336298D01*
X107645500Y-98767701D01*
X107648401Y-98804567D01*
X107648402Y-98804573D01*
X107694254Y-98962393D01*
X107694255Y-98962396D01*
X107777917Y-99103862D01*
X107782702Y-99110031D01*
X107780256Y-99111927D01*
X107806857Y-99160642D01*
X107801873Y-99230334D01*
X107781069Y-99262703D01*
X107782702Y-99263969D01*
X107777919Y-99270135D01*
X107694255Y-99411603D01*
X107694254Y-99411606D01*
X107648402Y-99569426D01*
X107648401Y-99569432D01*
X107645500Y-99606298D01*
X107645500Y-100037701D01*
X107648401Y-100074567D01*
X107648402Y-100074573D01*
X107694254Y-100232393D01*
X107694255Y-100232396D01*
X107777917Y-100373862D01*
X107782702Y-100380031D01*
X107780369Y-100381840D01*
X107807210Y-100430995D01*
X107802226Y-100500687D01*
X107781470Y-100533021D01*
X107783097Y-100534283D01*
X107778313Y-100540449D01*
X107694718Y-100681801D01*
X107648899Y-100839513D01*
X107648704Y-100841998D01*
X107648705Y-100842000D01*
X110693295Y-100842000D01*
X110693295Y-100841998D01*
X110693100Y-100839513D01*
X110647281Y-100681801D01*
X110604594Y-100609621D01*
X110602938Y-100603096D01*
X110598532Y-100598011D01*
X110594456Y-100569664D01*
X110587411Y-100541897D01*
X110589545Y-100535513D01*
X110588588Y-100528853D01*
X110600486Y-100502798D01*
X110609571Y-100475635D01*
X110614816Y-100471420D01*
X110617613Y-100465297D01*
X110641710Y-100449810D01*
X110664037Y-100431871D01*
X110672116Y-100430269D01*
X110676391Y-100427523D01*
X110711326Y-100422500D01*
X110951903Y-100422500D01*
X111018942Y-100442185D01*
X111039584Y-100458819D01*
X112351147Y-101770382D01*
X112384632Y-101831705D01*
X112379648Y-101901397D01*
X112337777Y-101957329D01*
X112253455Y-102020452D01*
X112253452Y-102020455D01*
X112167206Y-102135664D01*
X112167202Y-102135671D01*
X112116908Y-102270517D01*
X112110501Y-102330116D01*
X112110501Y-102330123D01*
X112110500Y-102330135D01*
X112110500Y-104425870D01*
X112110501Y-104425876D01*
X112116908Y-104485483D01*
X112167202Y-104620328D01*
X112167206Y-104620335D01*
X112253452Y-104735544D01*
X112253455Y-104735547D01*
X112368664Y-104821793D01*
X112368671Y-104821797D01*
X112503517Y-104872091D01*
X112503516Y-104872091D01*
X112510444Y-104872835D01*
X112563127Y-104878500D01*
X114258872Y-104878499D01*
X114318483Y-104872091D01*
X114453331Y-104821796D01*
X114568546Y-104735546D01*
X114654796Y-104620331D01*
X114705091Y-104485483D01*
X114711500Y-104425873D01*
X114711499Y-102330128D01*
X114705091Y-102270517D01*
X114697252Y-102249500D01*
X114654797Y-102135671D01*
X114654793Y-102135664D01*
X114568547Y-102020455D01*
X114568544Y-102020452D01*
X114453335Y-101934206D01*
X114453328Y-101934202D01*
X114318482Y-101883908D01*
X114318483Y-101883908D01*
X114258883Y-101877501D01*
X114258881Y-101877500D01*
X114258873Y-101877500D01*
X114258865Y-101877500D01*
X114100099Y-101877500D01*
X114033060Y-101857815D01*
X113987815Y-101806114D01*
X113983162Y-101796185D01*
X113970577Y-101749215D01*
X113923202Y-101667160D01*
X113891520Y-101612284D01*
X113779716Y-101500480D01*
X113779715Y-101500479D01*
X113775385Y-101496149D01*
X113775374Y-101496139D01*
X112567550Y-100288315D01*
X115024500Y-100288315D01*
X115024500Y-100886669D01*
X115024501Y-100886687D01*
X115034825Y-100987752D01*
X115046507Y-101023004D01*
X115087952Y-101148077D01*
X115089092Y-101151515D01*
X115089093Y-101151518D01*
X115102766Y-101173685D01*
X115179659Y-101298349D01*
X115179661Y-101298351D01*
X115293629Y-101412319D01*
X115327114Y-101473642D01*
X115322130Y-101543334D01*
X115293629Y-101587681D01*
X115179661Y-101701648D01*
X115089093Y-101848481D01*
X115089091Y-101848486D01*
X115067443Y-101913815D01*
X115034826Y-102012247D01*
X115034826Y-102012248D01*
X115034825Y-102012248D01*
X115024500Y-102113315D01*
X115024500Y-102711669D01*
X115024501Y-102711687D01*
X115034825Y-102812752D01*
X115070875Y-102921542D01*
X115087952Y-102973077D01*
X115089092Y-102976515D01*
X115089093Y-102976518D01*
X115102766Y-102998685D01*
X115179660Y-103123350D01*
X115301650Y-103245340D01*
X115448484Y-103335908D01*
X115612247Y-103390174D01*
X115713323Y-103400500D01*
X116286676Y-103400499D01*
X116286684Y-103400498D01*
X116286687Y-103400498D01*
X116342030Y-103394844D01*
X116387753Y-103390174D01*
X116551516Y-103335908D01*
X116698350Y-103245340D01*
X116820340Y-103123350D01*
X116894462Y-103003178D01*
X116946409Y-102956456D01*
X117015372Y-102945233D01*
X117079454Y-102973077D01*
X117105537Y-103003177D01*
X117179660Y-103123350D01*
X117301650Y-103245340D01*
X117448484Y-103335908D01*
X117612247Y-103390174D01*
X117713323Y-103400500D01*
X118286676Y-103400499D01*
X118286684Y-103400498D01*
X118286687Y-103400498D01*
X118342030Y-103394844D01*
X118387753Y-103390174D01*
X118551516Y-103335908D01*
X118698350Y-103245340D01*
X118820340Y-103123350D01*
X118894462Y-103003178D01*
X118946409Y-102956456D01*
X119015372Y-102945233D01*
X119079454Y-102973077D01*
X119105537Y-103003177D01*
X119179660Y-103123350D01*
X119301650Y-103245340D01*
X119448484Y-103335908D01*
X119612247Y-103390174D01*
X119713323Y-103400500D01*
X120286676Y-103400499D01*
X120286684Y-103400498D01*
X120286687Y-103400498D01*
X120342030Y-103394844D01*
X120387753Y-103390174D01*
X120551516Y-103335908D01*
X120698350Y-103245340D01*
X120820340Y-103123350D01*
X120894462Y-103003178D01*
X120946409Y-102956456D01*
X121015372Y-102945233D01*
X121079454Y-102973077D01*
X121105537Y-103003177D01*
X121179660Y-103123350D01*
X121301650Y-103245340D01*
X121448484Y-103335908D01*
X121612247Y-103390174D01*
X121713323Y-103400500D01*
X122286676Y-103400499D01*
X122286684Y-103400498D01*
X122286687Y-103400498D01*
X122342030Y-103394844D01*
X122387753Y-103390174D01*
X122551516Y-103335908D01*
X122698350Y-103245340D01*
X122820340Y-103123350D01*
X122894462Y-103003178D01*
X122946409Y-102956456D01*
X123015372Y-102945233D01*
X123079454Y-102973077D01*
X123105537Y-103003177D01*
X123179660Y-103123350D01*
X123301650Y-103245340D01*
X123448484Y-103335908D01*
X123612247Y-103390174D01*
X123713323Y-103400500D01*
X124286676Y-103400499D01*
X124286684Y-103400498D01*
X124286687Y-103400498D01*
X124342030Y-103394844D01*
X124387753Y-103390174D01*
X124551516Y-103335908D01*
X124698350Y-103245340D01*
X124820340Y-103123350D01*
X124894462Y-103003178D01*
X124946409Y-102956456D01*
X125015372Y-102945233D01*
X125079454Y-102973077D01*
X125105537Y-103003177D01*
X125179660Y-103123350D01*
X125301650Y-103245340D01*
X125448484Y-103335908D01*
X125612247Y-103390174D01*
X125713323Y-103400500D01*
X126286676Y-103400499D01*
X126286684Y-103400498D01*
X126286687Y-103400498D01*
X126342030Y-103394844D01*
X126387753Y-103390174D01*
X126551516Y-103335908D01*
X126698350Y-103245340D01*
X126820340Y-103123350D01*
X126868414Y-103045408D01*
X126920360Y-102998685D01*
X126989323Y-102987462D01*
X127053405Y-103015305D01*
X127086335Y-103058103D01*
X127089091Y-103064013D01*
X127089092Y-103064016D01*
X127179660Y-103210850D01*
X127301650Y-103332840D01*
X127448484Y-103423408D01*
X127612247Y-103477674D01*
X127713323Y-103488000D01*
X128286676Y-103487999D01*
X128286684Y-103487998D01*
X128286687Y-103487998D01*
X128342030Y-103482344D01*
X128387753Y-103477674D01*
X128551516Y-103423408D01*
X128698350Y-103332840D01*
X128820340Y-103210850D01*
X128910908Y-103064016D01*
X128965174Y-102900253D01*
X128975500Y-102799177D01*
X128975499Y-102200824D01*
X128974027Y-102186417D01*
X128965174Y-102099747D01*
X128910908Y-101935984D01*
X128820340Y-101789150D01*
X128706371Y-101675181D01*
X128672886Y-101613858D01*
X128677870Y-101544166D01*
X128706371Y-101499819D01*
X128752365Y-101453825D01*
X128820340Y-101385850D01*
X128910908Y-101239016D01*
X128965174Y-101075253D01*
X128975500Y-100974177D01*
X128975499Y-100375824D01*
X128965174Y-100274747D01*
X128910908Y-100110984D01*
X128820340Y-99964150D01*
X128698350Y-99842160D01*
X128698349Y-99842159D01*
X128659402Y-99818136D01*
X128612678Y-99766187D01*
X128600500Y-99712598D01*
X128600500Y-95389059D01*
X128600501Y-95389046D01*
X128600501Y-95220945D01*
X128600501Y-95220943D01*
X128582799Y-95154879D01*
X128584462Y-95085031D01*
X128614893Y-95035105D01*
X128649998Y-95000000D01*
X129150000Y-95000000D01*
X129797828Y-95000000D01*
X129797844Y-94999999D01*
X129857372Y-94993598D01*
X129857379Y-94993596D01*
X129992086Y-94943354D01*
X129992093Y-94943350D01*
X130107187Y-94857190D01*
X130107190Y-94857187D01*
X130193350Y-94742093D01*
X130193354Y-94742086D01*
X130243596Y-94607379D01*
X130243598Y-94607372D01*
X130249999Y-94547844D01*
X130250000Y-94547827D01*
X130250000Y-93850000D01*
X129150000Y-93850000D01*
X129150000Y-95000000D01*
X128649998Y-95000000D01*
X128650000Y-94999998D01*
X128650000Y-93350000D01*
X129150000Y-93350000D01*
X130250000Y-93350000D01*
X130250000Y-92652172D01*
X130249999Y-92652155D01*
X130243598Y-92592627D01*
X130243596Y-92592620D01*
X130193354Y-92457913D01*
X130193350Y-92457906D01*
X130107190Y-92342812D01*
X130107187Y-92342809D01*
X129992093Y-92256649D01*
X129992086Y-92256645D01*
X129857379Y-92206403D01*
X129857372Y-92206401D01*
X129797844Y-92200000D01*
X129150000Y-92200000D01*
X129150000Y-93350000D01*
X128650000Y-93350000D01*
X128650000Y-92200000D01*
X128002155Y-92200000D01*
X127942627Y-92206401D01*
X127942620Y-92206403D01*
X127807913Y-92256645D01*
X127807906Y-92256649D01*
X127692812Y-92342809D01*
X127692809Y-92342812D01*
X127606649Y-92457906D01*
X127606645Y-92457913D01*
X127556403Y-92592620D01*
X127556401Y-92592627D01*
X127550000Y-92652155D01*
X127550000Y-93075500D01*
X127530315Y-93142539D01*
X127477511Y-93188294D01*
X127426000Y-93199500D01*
X126952129Y-93199500D01*
X126952123Y-93199501D01*
X126892516Y-93205908D01*
X126843332Y-93224253D01*
X126773640Y-93229237D01*
X126756667Y-93224253D01*
X126707482Y-93205908D01*
X126707483Y-93205908D01*
X126647883Y-93199501D01*
X126647881Y-93199500D01*
X126647873Y-93199500D01*
X126647864Y-93199500D01*
X125852129Y-93199500D01*
X125852123Y-93199501D01*
X125792516Y-93205908D01*
X125743332Y-93224253D01*
X125673640Y-93229237D01*
X125656667Y-93224253D01*
X125607482Y-93205908D01*
X125607483Y-93205908D01*
X125547883Y-93199501D01*
X125547881Y-93199500D01*
X125547873Y-93199500D01*
X125547864Y-93199500D01*
X124752129Y-93199500D01*
X124752123Y-93199501D01*
X124692517Y-93205908D01*
X124642616Y-93224520D01*
X124572925Y-93229503D01*
X124555953Y-93224519D01*
X124507383Y-93206403D01*
X124507372Y-93206401D01*
X124447844Y-93200000D01*
X124300000Y-93200000D01*
X124300000Y-93640826D01*
X124299572Y-93648798D01*
X124299678Y-93648804D01*
X124299501Y-93652116D01*
X124299500Y-93652127D01*
X124299501Y-95647872D01*
X124299501Y-95647880D01*
X124299679Y-95651180D01*
X124299572Y-95651185D01*
X124300000Y-95659156D01*
X124300000Y-96100000D01*
X124425500Y-96100000D01*
X124492539Y-96119685D01*
X124538294Y-96172489D01*
X124549500Y-96224000D01*
X124549500Y-96514938D01*
X124529815Y-96581977D01*
X124477011Y-96627732D01*
X124407853Y-96637676D01*
X124360404Y-96620477D01*
X124308490Y-96588456D01*
X124308481Y-96588452D01*
X124147606Y-96535144D01*
X124048322Y-96525000D01*
X124025000Y-96525000D01*
X124025000Y-98474999D01*
X124048308Y-98474999D01*
X124048322Y-98474998D01*
X124147607Y-98464855D01*
X124308481Y-98411547D01*
X124308488Y-98411544D01*
X124360402Y-98379523D01*
X124427795Y-98361082D01*
X124494458Y-98382004D01*
X124539228Y-98435646D01*
X124549500Y-98485061D01*
X124549500Y-99137402D01*
X124529815Y-99204441D01*
X124513181Y-99225083D01*
X124175082Y-99563181D01*
X124113759Y-99596666D01*
X124087401Y-99599500D01*
X123713330Y-99599500D01*
X123713312Y-99599501D01*
X123612247Y-99609825D01*
X123448484Y-99664092D01*
X123448481Y-99664093D01*
X123301648Y-99754661D01*
X123179660Y-99876649D01*
X123179657Y-99876653D01*
X123105538Y-99996819D01*
X123053590Y-100043544D01*
X122984628Y-100054765D01*
X122920546Y-100026922D01*
X122894462Y-99996819D01*
X122820342Y-99876653D01*
X122820339Y-99876649D01*
X122698351Y-99754661D01*
X122698350Y-99754660D01*
X122551516Y-99664092D01*
X122387753Y-99609826D01*
X122387751Y-99609825D01*
X122286678Y-99599500D01*
X121713330Y-99599500D01*
X121713312Y-99599501D01*
X121612247Y-99609825D01*
X121612244Y-99609826D01*
X121513504Y-99642546D01*
X121443676Y-99644948D01*
X121383634Y-99609216D01*
X121352441Y-99546696D01*
X121350500Y-99524840D01*
X121350500Y-98423756D01*
X121370185Y-98356717D01*
X121422989Y-98310962D01*
X121492147Y-98301018D01*
X121539460Y-98321362D01*
X121540809Y-98319177D01*
X121691294Y-98411998D01*
X121691297Y-98411999D01*
X121691303Y-98412003D01*
X121852292Y-98465349D01*
X121951655Y-98475500D01*
X122498344Y-98475499D01*
X122498352Y-98475498D01*
X122498355Y-98475498D01*
X122552760Y-98469940D01*
X122597708Y-98465349D01*
X122758697Y-98412003D01*
X122903044Y-98322968D01*
X122912668Y-98313343D01*
X122973987Y-98279856D01*
X123043679Y-98284835D01*
X123088034Y-98313339D01*
X123097267Y-98322572D01*
X123097271Y-98322575D01*
X123241507Y-98411542D01*
X123241518Y-98411547D01*
X123402393Y-98464855D01*
X123501683Y-98474999D01*
X123525000Y-98474998D01*
X123525000Y-96524999D01*
X123501693Y-96525000D01*
X123501674Y-96525001D01*
X123402392Y-96535144D01*
X123241518Y-96588452D01*
X123241507Y-96588457D01*
X123097271Y-96677424D01*
X123097265Y-96677428D01*
X123088031Y-96686663D01*
X123026707Y-96720146D01*
X122957015Y-96715159D01*
X122912672Y-96686660D01*
X122903044Y-96677032D01*
X122903040Y-96677029D01*
X122758705Y-96588001D01*
X122758699Y-96587998D01*
X122758697Y-96587997D01*
X122740530Y-96581977D01*
X122597709Y-96534651D01*
X122498346Y-96524500D01*
X121951662Y-96524500D01*
X121951644Y-96524501D01*
X121852292Y-96534650D01*
X121852289Y-96534651D01*
X121691305Y-96587996D01*
X121691294Y-96588001D01*
X121540809Y-96680823D01*
X121539311Y-96678394D01*
X121486593Y-96699652D01*
X121417953Y-96686599D01*
X121367267Y-96638509D01*
X121350500Y-96576243D01*
X121350500Y-96224499D01*
X121370185Y-96157460D01*
X121422989Y-96111705D01*
X121474495Y-96100499D01*
X122247872Y-96100499D01*
X122307483Y-96094091D01*
X122356665Y-96075746D01*
X122426355Y-96070761D01*
X122443333Y-96075747D01*
X122492508Y-96094088D01*
X122492511Y-96094088D01*
X122492517Y-96094091D01*
X122552127Y-96100500D01*
X123347872Y-96100499D01*
X123407483Y-96094091D01*
X123457382Y-96075479D01*
X123527069Y-96070494D01*
X123544048Y-96075479D01*
X123592628Y-96093598D01*
X123592627Y-96093598D01*
X123652155Y-96099999D01*
X123652172Y-96100000D01*
X123800000Y-96100000D01*
X123800000Y-95659167D01*
X123800427Y-95651188D01*
X123800322Y-95651183D01*
X123800497Y-95647898D01*
X123800500Y-95647873D01*
X123800499Y-93652128D01*
X123800498Y-93652116D01*
X123800321Y-93648804D01*
X123800426Y-93648798D01*
X123800000Y-93640836D01*
X123800000Y-93200000D01*
X123652155Y-93200000D01*
X123592627Y-93206401D01*
X123592623Y-93206402D01*
X123544046Y-93224520D01*
X123474354Y-93229503D01*
X123457382Y-93224519D01*
X123407485Y-93205909D01*
X123407483Y-93205908D01*
X123347883Y-93199501D01*
X123347881Y-93199500D01*
X123347873Y-93199500D01*
X123347864Y-93199500D01*
X122552129Y-93199500D01*
X122552123Y-93199501D01*
X122492516Y-93205908D01*
X122443332Y-93224253D01*
X122373640Y-93229237D01*
X122356667Y-93224253D01*
X122307482Y-93205908D01*
X122307483Y-93205908D01*
X122247883Y-93199501D01*
X122247881Y-93199500D01*
X122247873Y-93199500D01*
X122247864Y-93199500D01*
X121452129Y-93199500D01*
X121452123Y-93199501D01*
X121392516Y-93205908D01*
X121343332Y-93224253D01*
X121273640Y-93229237D01*
X121256667Y-93224253D01*
X121207482Y-93205908D01*
X121207483Y-93205908D01*
X121147883Y-93199501D01*
X121147881Y-93199500D01*
X121147873Y-93199500D01*
X121147864Y-93199500D01*
X120352129Y-93199500D01*
X120352123Y-93199501D01*
X120292516Y-93205908D01*
X120243332Y-93224253D01*
X120173640Y-93229237D01*
X120156667Y-93224253D01*
X120107482Y-93205908D01*
X120107483Y-93205908D01*
X120047883Y-93199501D01*
X120047881Y-93199500D01*
X120047873Y-93199500D01*
X120047864Y-93199500D01*
X119252129Y-93199500D01*
X119252123Y-93199501D01*
X119192516Y-93205908D01*
X119143332Y-93224253D01*
X119073640Y-93229237D01*
X119056667Y-93224253D01*
X119007482Y-93205908D01*
X119007483Y-93205908D01*
X118947883Y-93199501D01*
X118947881Y-93199500D01*
X118947873Y-93199500D01*
X118947864Y-93199500D01*
X118152129Y-93199500D01*
X118152123Y-93199501D01*
X118092516Y-93205908D01*
X117957671Y-93256202D01*
X117957664Y-93256206D01*
X117842455Y-93342452D01*
X117842452Y-93342455D01*
X117756206Y-93457664D01*
X117756202Y-93457671D01*
X117705908Y-93592517D01*
X117699501Y-93652116D01*
X117699500Y-93652135D01*
X117699500Y-95647870D01*
X117699501Y-95647876D01*
X117705908Y-95707483D01*
X117756202Y-95842328D01*
X117756203Y-95842329D01*
X117756204Y-95842331D01*
X117842454Y-95957546D01*
X117883377Y-95988181D01*
X117899810Y-96000482D01*
X117941682Y-96056415D01*
X117949500Y-96099749D01*
X117949500Y-97737402D01*
X117929815Y-97804441D01*
X117913181Y-97825083D01*
X116175082Y-99563181D01*
X116113759Y-99596666D01*
X116087401Y-99599500D01*
X115713330Y-99599500D01*
X115713312Y-99599501D01*
X115612247Y-99609825D01*
X115448484Y-99664092D01*
X115448481Y-99664093D01*
X115301648Y-99754661D01*
X115179661Y-99876648D01*
X115089093Y-100023481D01*
X115089091Y-100023486D01*
X115067443Y-100088815D01*
X115034826Y-100187247D01*
X115034826Y-100187248D01*
X115034825Y-100187248D01*
X115024500Y-100288315D01*
X112567550Y-100288315D01*
X111739590Y-99460355D01*
X111739588Y-99460352D01*
X111620717Y-99341481D01*
X111620709Y-99341475D01*
X111497143Y-99270135D01*
X111497140Y-99270134D01*
X111483785Y-99262423D01*
X111435556Y-99249500D01*
X111331057Y-99221499D01*
X111172943Y-99221499D01*
X111165347Y-99221499D01*
X111165331Y-99221500D01*
X110711907Y-99221500D01*
X110644868Y-99201815D01*
X110599113Y-99149011D01*
X110589169Y-99079853D01*
X110605175Y-99034380D01*
X110626973Y-98997518D01*
X110647744Y-98962398D01*
X110693598Y-98804569D01*
X110696500Y-98767694D01*
X110696500Y-98336306D01*
X110693598Y-98299431D01*
X110691912Y-98293629D01*
X110647745Y-98141606D01*
X110647744Y-98141603D01*
X110647744Y-98141602D01*
X110564081Y-98000135D01*
X110564078Y-98000132D01*
X110559298Y-97993969D01*
X110561750Y-97992066D01*
X110535155Y-97943421D01*
X110540104Y-97873726D01*
X110560940Y-97841304D01*
X110559298Y-97840031D01*
X110564075Y-97833870D01*
X110564081Y-97833865D01*
X110647744Y-97692398D01*
X110693598Y-97534569D01*
X110696500Y-97497694D01*
X110696500Y-97066306D01*
X110693598Y-97029431D01*
X110690849Y-97019970D01*
X110647745Y-96871606D01*
X110647744Y-96871603D01*
X110647744Y-96871602D01*
X110564081Y-96730135D01*
X110564079Y-96730133D01*
X110564076Y-96730129D01*
X110447870Y-96613923D01*
X110447862Y-96613917D01*
X110333314Y-96546174D01*
X110306398Y-96530256D01*
X110306397Y-96530255D01*
X110306396Y-96530255D01*
X110306393Y-96530254D01*
X110148573Y-96484402D01*
X110148567Y-96484401D01*
X110111701Y-96481500D01*
X110111694Y-96481500D01*
X108230306Y-96481500D01*
X108230298Y-96481500D01*
X108193432Y-96484401D01*
X108193426Y-96484402D01*
X108035606Y-96530254D01*
X108035603Y-96530255D01*
X107894137Y-96613917D01*
X107894129Y-96613923D01*
X107777923Y-96730129D01*
X107777917Y-96730137D01*
X107694255Y-96871603D01*
X107694254Y-96871606D01*
X107648402Y-97029426D01*
X107648401Y-97029432D01*
X107645500Y-97066298D01*
X101396499Y-97066298D01*
X101393598Y-97029431D01*
X101390849Y-97019970D01*
X101347745Y-96871606D01*
X101347744Y-96871603D01*
X101347744Y-96871602D01*
X101264081Y-96730135D01*
X101264079Y-96730133D01*
X101264076Y-96730129D01*
X101147870Y-96613923D01*
X101147862Y-96613917D01*
X101033314Y-96546174D01*
X101006398Y-96530256D01*
X101006397Y-96530255D01*
X101006396Y-96530255D01*
X101006393Y-96530254D01*
X100848573Y-96484402D01*
X100848567Y-96484401D01*
X100811701Y-96481500D01*
X100811694Y-96481500D01*
X98930306Y-96481500D01*
X98930298Y-96481500D01*
X98893432Y-96484401D01*
X98893426Y-96484402D01*
X98735606Y-96530254D01*
X98735603Y-96530255D01*
X98594137Y-96613917D01*
X98594129Y-96613923D01*
X98562874Y-96645180D01*
X98501552Y-96678666D01*
X98475192Y-96681500D01*
X95931097Y-96681500D01*
X95864058Y-96661815D01*
X95843416Y-96645181D01*
X94848590Y-95650355D01*
X94848588Y-95650352D01*
X94729717Y-95531481D01*
X94729716Y-95531480D01*
X94642904Y-95481360D01*
X94642904Y-95481359D01*
X94642900Y-95481358D01*
X94592785Y-95452423D01*
X94440057Y-95411499D01*
X94281943Y-95411499D01*
X94274347Y-95411499D01*
X94274331Y-95411500D01*
X89662169Y-95411500D01*
X89662153Y-95411499D01*
X89654557Y-95411499D01*
X89496443Y-95411499D01*
X89389087Y-95440265D01*
X89343710Y-95452424D01*
X89343709Y-95452425D01*
X89293596Y-95481359D01*
X89293595Y-95481360D01*
X89250189Y-95506420D01*
X89206785Y-95531479D01*
X89206782Y-95531481D01*
X89094978Y-95643286D01*
X88750082Y-95988181D01*
X88688759Y-96021666D01*
X88662401Y-96024500D01*
X88288330Y-96024500D01*
X88288312Y-96024501D01*
X88187247Y-96034825D01*
X88023484Y-96089092D01*
X88023481Y-96089093D01*
X87876648Y-96179661D01*
X87754661Y-96301648D01*
X87664092Y-96448484D01*
X87635082Y-96536028D01*
X87628237Y-96547124D01*
X87626210Y-96556446D01*
X87605061Y-96584699D01*
X87605060Y-96584701D01*
X87558481Y-96631283D01*
X87558479Y-96631283D01*
X87558478Y-96631286D01*
X86759406Y-97430357D01*
X86698083Y-97463842D01*
X86628391Y-97458858D01*
X86572458Y-97416986D01*
X86568623Y-97411566D01*
X86523117Y-97343462D01*
X86523111Y-97343454D01*
X86425545Y-97245888D01*
X86425541Y-97245885D01*
X86310817Y-97169228D01*
X86310804Y-97169221D01*
X86183330Y-97116420D01*
X86177494Y-97114650D01*
X86177794Y-97113659D01*
X86173274Y-97111628D01*
X86164649Y-97110964D01*
X86148377Y-97100443D01*
X86133766Y-97093879D01*
X86126966Y-97088730D01*
X86057716Y-97019480D01*
X85970904Y-96969360D01*
X85920785Y-96940423D01*
X85768057Y-96899499D01*
X85609943Y-96899499D01*
X85602347Y-96899499D01*
X85602331Y-96899500D01*
X85172596Y-96899500D01*
X85105557Y-96879815D01*
X85072278Y-96848386D01*
X85069523Y-96844594D01*
X84953828Y-96685354D01*
X84814646Y-96546172D01*
X84655405Y-96430476D01*
X84480029Y-96341117D01*
X84292826Y-96280290D01*
X84098422Y-96249500D01*
X84098417Y-96249500D01*
X83901583Y-96249500D01*
X83901578Y-96249500D01*
X83707173Y-96280290D01*
X83519970Y-96341117D01*
X83344594Y-96430476D01*
X83253741Y-96496485D01*
X83185354Y-96546172D01*
X83185352Y-96546174D01*
X83185351Y-96546174D01*
X83046174Y-96685351D01*
X83046174Y-96685352D01*
X83046172Y-96685354D01*
X83020894Y-96720146D01*
X82930476Y-96844594D01*
X82841117Y-97019970D01*
X82780290Y-97207173D01*
X82749500Y-97401577D01*
X81545500Y-97401577D01*
X81545500Y-91945818D01*
X82524500Y-91945818D01*
X82524500Y-92479181D01*
X82534563Y-92577683D01*
X82587450Y-92737284D01*
X82587455Y-92737295D01*
X82675716Y-92880387D01*
X82675719Y-92880391D01*
X82707647Y-92912319D01*
X82741132Y-92973642D01*
X82736148Y-93043334D01*
X82707647Y-93087681D01*
X82675719Y-93119608D01*
X82675716Y-93119612D01*
X82587455Y-93262704D01*
X82587450Y-93262715D01*
X82574267Y-93302499D01*
X82534564Y-93422315D01*
X82534564Y-93422316D01*
X82534563Y-93422316D01*
X82524500Y-93520818D01*
X82524500Y-94054181D01*
X82534563Y-94152683D01*
X82587450Y-94312284D01*
X82587455Y-94312295D01*
X82675716Y-94455387D01*
X82675719Y-94455391D01*
X82794608Y-94574280D01*
X82794612Y-94574283D01*
X82937704Y-94662544D01*
X82937707Y-94662545D01*
X82937713Y-94662549D01*
X83097315Y-94715436D01*
X83195826Y-94725500D01*
X83195831Y-94725500D01*
X83804169Y-94725500D01*
X83804174Y-94725500D01*
X83902685Y-94715436D01*
X84062287Y-94662549D01*
X84205391Y-94574281D01*
X84230353Y-94549319D01*
X84291676Y-94515834D01*
X84318034Y-94513000D01*
X85042389Y-94513000D01*
X85109428Y-94532685D01*
X85147928Y-94571904D01*
X85169804Y-94607372D01*
X85179660Y-94623350D01*
X85301650Y-94745340D01*
X85448484Y-94835908D01*
X85612247Y-94890174D01*
X85713323Y-94900500D01*
X86286676Y-94900499D01*
X86286684Y-94900498D01*
X86286687Y-94900498D01*
X86342030Y-94894844D01*
X86387753Y-94890174D01*
X86551516Y-94835908D01*
X86698350Y-94745340D01*
X86820340Y-94623350D01*
X86910908Y-94476516D01*
X86926324Y-94429995D01*
X97851499Y-94429995D01*
X97878418Y-94565322D01*
X97878421Y-94565332D01*
X97931221Y-94692804D01*
X97931228Y-94692817D01*
X98007885Y-94807541D01*
X98007888Y-94807545D01*
X98105454Y-94905111D01*
X98105458Y-94905114D01*
X98220182Y-94981771D01*
X98220195Y-94981778D01*
X98347667Y-95034578D01*
X98347672Y-95034580D01*
X98347676Y-95034580D01*
X98347677Y-95034581D01*
X98483004Y-95061500D01*
X98483007Y-95061500D01*
X98620995Y-95061500D01*
X98712041Y-95043389D01*
X98756328Y-95034580D01*
X98883811Y-94981775D01*
X98998542Y-94905114D01*
X99096114Y-94807542D01*
X99172775Y-94692811D01*
X99225580Y-94565328D01*
X99252500Y-94429995D01*
X101915499Y-94429995D01*
X101942418Y-94565322D01*
X101942421Y-94565332D01*
X101995221Y-94692804D01*
X101995228Y-94692817D01*
X102071885Y-94807541D01*
X102071888Y-94807545D01*
X102169454Y-94905111D01*
X102169458Y-94905114D01*
X102284182Y-94981771D01*
X102284195Y-94981778D01*
X102411667Y-95034578D01*
X102411672Y-95034580D01*
X102411676Y-95034580D01*
X102411677Y-95034581D01*
X102547004Y-95061500D01*
X102547007Y-95061500D01*
X102684995Y-95061500D01*
X102776041Y-95043389D01*
X102820328Y-95034580D01*
X102947811Y-94981775D01*
X103062542Y-94905114D01*
X103160114Y-94807542D01*
X103236775Y-94692811D01*
X103289580Y-94565328D01*
X103293058Y-94547844D01*
X112050000Y-94547844D01*
X112056401Y-94607372D01*
X112056403Y-94607379D01*
X112106645Y-94742086D01*
X112106649Y-94742093D01*
X112192809Y-94857187D01*
X112192812Y-94857190D01*
X112307906Y-94943350D01*
X112307913Y-94943354D01*
X112442620Y-94993596D01*
X112442627Y-94993598D01*
X112502155Y-94999999D01*
X112502172Y-95000000D01*
X113150000Y-95000000D01*
X113650000Y-95000000D01*
X114297828Y-95000000D01*
X114297844Y-94999999D01*
X114357372Y-94993598D01*
X114357379Y-94993596D01*
X114492086Y-94943354D01*
X114492093Y-94943350D01*
X114607187Y-94857190D01*
X114607190Y-94857187D01*
X114693350Y-94742093D01*
X114693354Y-94742086D01*
X114743596Y-94607379D01*
X114743598Y-94607372D01*
X114749999Y-94547844D01*
X114750000Y-94547827D01*
X114750000Y-93850000D01*
X113650000Y-93850000D01*
X113650000Y-95000000D01*
X113150000Y-95000000D01*
X113150000Y-93850000D01*
X112050000Y-93850000D01*
X112050000Y-94547844D01*
X103293058Y-94547844D01*
X103316500Y-94429993D01*
X103316500Y-94292007D01*
X103316500Y-94292004D01*
X103293889Y-94178336D01*
X103300116Y-94108744D01*
X103342978Y-94053567D01*
X103408868Y-94030322D01*
X103458838Y-94037961D01*
X103502324Y-94054181D01*
X103582517Y-94084091D01*
X103582516Y-94084091D01*
X103589444Y-94084835D01*
X103642127Y-94090500D01*
X105837872Y-94090499D01*
X105897483Y-94084091D01*
X106032331Y-94033796D01*
X106147546Y-93947546D01*
X106233796Y-93832331D01*
X106284091Y-93697483D01*
X106290500Y-93637873D01*
X106290499Y-92652155D01*
X112050000Y-92652155D01*
X112050000Y-93350000D01*
X113150000Y-93350000D01*
X113650000Y-93350000D01*
X114750000Y-93350000D01*
X114750000Y-92652172D01*
X114749999Y-92652155D01*
X114743598Y-92592627D01*
X114743596Y-92592620D01*
X114693354Y-92457913D01*
X114693350Y-92457906D01*
X114607190Y-92342812D01*
X114607187Y-92342809D01*
X114492093Y-92256649D01*
X114492086Y-92256645D01*
X114357379Y-92206403D01*
X114357372Y-92206401D01*
X114297844Y-92200000D01*
X113650000Y-92200000D01*
X113650000Y-93350000D01*
X113150000Y-93350000D01*
X113150000Y-92200000D01*
X112502155Y-92200000D01*
X112442627Y-92206401D01*
X112442620Y-92206403D01*
X112307913Y-92256645D01*
X112307906Y-92256649D01*
X112192812Y-92342809D01*
X112192809Y-92342812D01*
X112106649Y-92457906D01*
X112106645Y-92457913D01*
X112056403Y-92592620D01*
X112056401Y-92592627D01*
X112050000Y-92652155D01*
X106290499Y-92652155D01*
X106290499Y-92487753D01*
X106290499Y-91442129D01*
X106290498Y-91442123D01*
X106290497Y-91442116D01*
X106284902Y-91390062D01*
X106284091Y-91382516D01*
X106233797Y-91247671D01*
X106233793Y-91247664D01*
X106147547Y-91132455D01*
X106147544Y-91132452D01*
X106042152Y-91053555D01*
X106000281Y-90997621D01*
X105995297Y-90927930D01*
X106016146Y-90881403D01*
X106066103Y-90812643D01*
X106066104Y-90812642D01*
X106066106Y-90812639D01*
X106176904Y-90595185D01*
X106252321Y-90363076D01*
X106290500Y-90122027D01*
X106290500Y-89877973D01*
X106252321Y-89636924D01*
X106176904Y-89404815D01*
X106066106Y-89187361D01*
X106047779Y-89162136D01*
X105922660Y-88989923D01*
X105922656Y-88989918D01*
X105750419Y-88817681D01*
X105716934Y-88756358D01*
X105721918Y-88686666D01*
X105750419Y-88642319D01*
X105829642Y-88563096D01*
X105922655Y-88470083D01*
X106066106Y-88272639D01*
X106176904Y-88055185D01*
X106252321Y-87823076D01*
X106290500Y-87582027D01*
X106290500Y-87337973D01*
X106252321Y-87096924D01*
X106176904Y-86864815D01*
X106066106Y-86647361D01*
X106047779Y-86622136D01*
X105922660Y-86449923D01*
X105922656Y-86449918D01*
X105750081Y-86277343D01*
X105750076Y-86277339D01*
X105699410Y-86240528D01*
X105673919Y-86207471D01*
X105025757Y-85559309D01*
X105071574Y-85540332D01*
X105186224Y-85463726D01*
X105283726Y-85366224D01*
X105360332Y-85251574D01*
X105379309Y-85205757D01*
X105998454Y-85824902D01*
X105998454Y-85824901D01*
X106065678Y-85732377D01*
X106176439Y-85514996D01*
X106251959Y-85282573D01*
X106291397Y-85224897D01*
X106355755Y-85197699D01*
X106424601Y-85209614D01*
X106476077Y-85256858D01*
X106493110Y-85307006D01*
X106506258Y-85423692D01*
X106506260Y-85423702D01*
X106569380Y-85700253D01*
X106569383Y-85700261D01*
X106663067Y-85967993D01*
X106786139Y-86223554D01*
X106819934Y-86277339D01*
X106937056Y-86463737D01*
X107009913Y-86555097D01*
X107083702Y-86647626D01*
X107113914Y-86685510D01*
X107314490Y-86886086D01*
X107536263Y-87062944D01*
X107776443Y-87213859D01*
X107776445Y-87213860D01*
X107861632Y-87254884D01*
X108032010Y-87336934D01*
X108233092Y-87407295D01*
X108299738Y-87430616D01*
X108299746Y-87430619D01*
X108299749Y-87430619D01*
X108299750Y-87430620D01*
X108576297Y-87493740D01*
X108858166Y-87525499D01*
X108858167Y-87525500D01*
X108858171Y-87525500D01*
X109141833Y-87525500D01*
X109141833Y-87525499D01*
X109423703Y-87493740D01*
X109700250Y-87430620D01*
X109967990Y-87336934D01*
X110223557Y-87213859D01*
X110463737Y-87062944D01*
X110685510Y-86886086D01*
X110886086Y-86685510D01*
X111062944Y-86463737D01*
X111213859Y-86223557D01*
X111336934Y-85967990D01*
X111430620Y-85700250D01*
X111493740Y-85423703D01*
X111493741Y-85423692D01*
X111493742Y-85423689D01*
X111503005Y-85341476D01*
X111530071Y-85277062D01*
X111587666Y-85237507D01*
X111657503Y-85235369D01*
X111717409Y-85271327D01*
X111748365Y-85333965D01*
X111749570Y-85344532D01*
X111749644Y-85344525D01*
X111756401Y-85407372D01*
X111756403Y-85407379D01*
X111806645Y-85542086D01*
X111806649Y-85542093D01*
X111892809Y-85657187D01*
X111892812Y-85657190D01*
X112007906Y-85743350D01*
X112007913Y-85743354D01*
X112142620Y-85793596D01*
X112142627Y-85793598D01*
X112202155Y-85799999D01*
X112202172Y-85800000D01*
X112700000Y-85800000D01*
X113200000Y-85800000D01*
X113697828Y-85800000D01*
X113697844Y-85799999D01*
X113757372Y-85793598D01*
X113757379Y-85793596D01*
X113892086Y-85743354D01*
X113892093Y-85743350D01*
X114007187Y-85657190D01*
X114007190Y-85657187D01*
X114093350Y-85542093D01*
X114093354Y-85542086D01*
X114143596Y-85407379D01*
X114143598Y-85407372D01*
X114149999Y-85347844D01*
X127450000Y-85347844D01*
X127456401Y-85407372D01*
X127456403Y-85407379D01*
X127506645Y-85542086D01*
X127506649Y-85542093D01*
X127592809Y-85657187D01*
X127592812Y-85657190D01*
X127707906Y-85743350D01*
X127707913Y-85743354D01*
X127842620Y-85793596D01*
X127842627Y-85793598D01*
X127902155Y-85799999D01*
X127902172Y-85800000D01*
X128400000Y-85800000D01*
X128900000Y-85800000D01*
X129397828Y-85800000D01*
X129397844Y-85799999D01*
X129457372Y-85793598D01*
X129457379Y-85793596D01*
X129592086Y-85743354D01*
X129592093Y-85743350D01*
X129707187Y-85657190D01*
X129707190Y-85657187D01*
X129793350Y-85542093D01*
X129793354Y-85542086D01*
X129843596Y-85407379D01*
X129843598Y-85407372D01*
X129849999Y-85347844D01*
X129850000Y-85347827D01*
X129850000Y-84250000D01*
X128900000Y-84250000D01*
X128900000Y-85800000D01*
X128400000Y-85800000D01*
X128400000Y-84250000D01*
X127450000Y-84250000D01*
X127450000Y-85347844D01*
X114149999Y-85347844D01*
X114150000Y-85347827D01*
X114150000Y-84250000D01*
X113200000Y-84250000D01*
X113200000Y-85800000D01*
X112700000Y-85800000D01*
X112700000Y-84250000D01*
X111750000Y-84250000D01*
X111750000Y-84642639D01*
X111730315Y-84709678D01*
X111677511Y-84755433D01*
X111608353Y-84765377D01*
X111544797Y-84736352D01*
X111507023Y-84677574D01*
X111502780Y-84656523D01*
X111495739Y-84594041D01*
X111493740Y-84576297D01*
X111430620Y-84299750D01*
X111430591Y-84299668D01*
X111387337Y-84176055D01*
X111336934Y-84032010D01*
X111213859Y-83776443D01*
X111062944Y-83536263D01*
X110886086Y-83314490D01*
X110685510Y-83113914D01*
X110463737Y-82937056D01*
X110223557Y-82786141D01*
X110223554Y-82786139D01*
X110170461Y-82760571D01*
X109967993Y-82663067D01*
X109936808Y-82652155D01*
X111750000Y-82652155D01*
X111750000Y-83750000D01*
X112700000Y-83750000D01*
X113200000Y-83750000D01*
X114150000Y-83750000D01*
X114150000Y-83512465D01*
X116399500Y-83512465D01*
X116399500Y-83687534D01*
X116429898Y-83859937D01*
X116489775Y-84024446D01*
X116577309Y-84176057D01*
X116689836Y-84310163D01*
X116823942Y-84422690D01*
X116823943Y-84422691D01*
X116823945Y-84422692D01*
X116975555Y-84510225D01*
X117140062Y-84570101D01*
X117312468Y-84600500D01*
X117312472Y-84600500D01*
X118187528Y-84600500D01*
X118187532Y-84600500D01*
X118359938Y-84570101D01*
X118524445Y-84510225D01*
X118676055Y-84422692D01*
X118810163Y-84310163D01*
X118922692Y-84176055D01*
X119010225Y-84024445D01*
X119070101Y-83859938D01*
X119100500Y-83687532D01*
X119100500Y-83673920D01*
X124999499Y-83673920D01*
X125028340Y-83818907D01*
X125028343Y-83818917D01*
X125084912Y-83955488D01*
X125084919Y-83955501D01*
X125167048Y-84078415D01*
X125167051Y-84078419D01*
X125271580Y-84182948D01*
X125271584Y-84182951D01*
X125394498Y-84265080D01*
X125394511Y-84265087D01*
X125531082Y-84321656D01*
X125531087Y-84321658D01*
X125531091Y-84321658D01*
X125531092Y-84321659D01*
X125676079Y-84350500D01*
X125676082Y-84350500D01*
X125823920Y-84350500D01*
X125921462Y-84331096D01*
X125968913Y-84321658D01*
X126105495Y-84265084D01*
X126228416Y-84182951D01*
X126235312Y-84176055D01*
X126300411Y-84110957D01*
X126332948Y-84078419D01*
X126332951Y-84078416D01*
X126415084Y-83955495D01*
X126471658Y-83818913D01*
X126485366Y-83750000D01*
X126500500Y-83673920D01*
X126500500Y-83526079D01*
X126471659Y-83381092D01*
X126471658Y-83381091D01*
X126471658Y-83381087D01*
X126444073Y-83314490D01*
X126415087Y-83244511D01*
X126415080Y-83244498D01*
X126332951Y-83121584D01*
X126332948Y-83121580D01*
X126228419Y-83017051D01*
X126228415Y-83017048D01*
X126105501Y-82934919D01*
X126105488Y-82934912D01*
X125968917Y-82878343D01*
X125968907Y-82878340D01*
X125823920Y-82849500D01*
X125823918Y-82849500D01*
X125676082Y-82849500D01*
X125676080Y-82849500D01*
X125531092Y-82878340D01*
X125531082Y-82878343D01*
X125394511Y-82934912D01*
X125394498Y-82934919D01*
X125271584Y-83017048D01*
X125271580Y-83017051D01*
X125167051Y-83121580D01*
X125167048Y-83121584D01*
X125084919Y-83244498D01*
X125084912Y-83244511D01*
X125028343Y-83381082D01*
X125028340Y-83381092D01*
X124999500Y-83526079D01*
X124999500Y-83526082D01*
X124999500Y-83673918D01*
X124999500Y-83673920D01*
X124999499Y-83673920D01*
X119100500Y-83673920D01*
X119100500Y-83600000D01*
X119100500Y-83534108D01*
X119100500Y-83512468D01*
X119070101Y-83340062D01*
X119010225Y-83175555D01*
X118979064Y-83121584D01*
X118922690Y-83023942D01*
X118810163Y-82889836D01*
X118676057Y-82777309D01*
X118639561Y-82756238D01*
X118639559Y-82756236D01*
X118524449Y-82689777D01*
X118524448Y-82689776D01*
X118421087Y-82652155D01*
X127450000Y-82652155D01*
X127450000Y-83750000D01*
X128400000Y-83750000D01*
X128900000Y-83750000D01*
X129850000Y-83750000D01*
X129850000Y-82652172D01*
X129849999Y-82652155D01*
X129843598Y-82592627D01*
X129843596Y-82592620D01*
X129793354Y-82457913D01*
X129793350Y-82457906D01*
X129707190Y-82342812D01*
X129707187Y-82342809D01*
X129592093Y-82256649D01*
X129592086Y-82256645D01*
X129457379Y-82206403D01*
X129457372Y-82206401D01*
X129397844Y-82200000D01*
X128900000Y-82200000D01*
X128900000Y-83750000D01*
X128400000Y-83750000D01*
X128400000Y-82200000D01*
X127902155Y-82200000D01*
X127842627Y-82206401D01*
X127842620Y-82206403D01*
X127707913Y-82256645D01*
X127707906Y-82256649D01*
X127592812Y-82342809D01*
X127592809Y-82342812D01*
X127506649Y-82457906D01*
X127506645Y-82457913D01*
X127456403Y-82592620D01*
X127456401Y-82592627D01*
X127450000Y-82652155D01*
X118421087Y-82652155D01*
X118359937Y-82629898D01*
X118187534Y-82599500D01*
X118187532Y-82599500D01*
X118165892Y-82599500D01*
X117465892Y-82599500D01*
X117400000Y-82599500D01*
X117312468Y-82599500D01*
X117312465Y-82599500D01*
X117140062Y-82629898D01*
X116975553Y-82689775D01*
X116823942Y-82777309D01*
X116689836Y-82889836D01*
X116577309Y-83023942D01*
X116489775Y-83175553D01*
X116429898Y-83340062D01*
X116399500Y-83512465D01*
X114150000Y-83512465D01*
X114150000Y-82652172D01*
X114149999Y-82652155D01*
X114143598Y-82592627D01*
X114143596Y-82592620D01*
X114093354Y-82457913D01*
X114093350Y-82457906D01*
X114007190Y-82342812D01*
X114007187Y-82342809D01*
X113892093Y-82256649D01*
X113892086Y-82256645D01*
X113757379Y-82206403D01*
X113757372Y-82206401D01*
X113697844Y-82200000D01*
X113200000Y-82200000D01*
X113200000Y-83750000D01*
X112700000Y-83750000D01*
X112700000Y-82200000D01*
X112202155Y-82200000D01*
X112142627Y-82206401D01*
X112142620Y-82206403D01*
X112007913Y-82256645D01*
X112007906Y-82256649D01*
X111892812Y-82342809D01*
X111892809Y-82342812D01*
X111806649Y-82457906D01*
X111806645Y-82457913D01*
X111756403Y-82592620D01*
X111756401Y-82592627D01*
X111750000Y-82652155D01*
X109936808Y-82652155D01*
X109700261Y-82569383D01*
X109700253Y-82569380D01*
X109492839Y-82522040D01*
X109423703Y-82506260D01*
X109423699Y-82506259D01*
X109423690Y-82506258D01*
X109141833Y-82474500D01*
X109141829Y-82474500D01*
X108858171Y-82474500D01*
X108858167Y-82474500D01*
X108576309Y-82506258D01*
X108576297Y-82506260D01*
X108299746Y-82569380D01*
X108299738Y-82569383D01*
X108032006Y-82663067D01*
X107776445Y-82786139D01*
X107536264Y-82937055D01*
X107314490Y-83113913D01*
X107113913Y-83314490D01*
X106937055Y-83536264D01*
X106786139Y-83776445D01*
X106663067Y-84032006D01*
X106569383Y-84299738D01*
X106569380Y-84299746D01*
X106506260Y-84576297D01*
X106506258Y-84576304D01*
X106504260Y-84594041D01*
X106477191Y-84658454D01*
X106419596Y-84698008D01*
X106349759Y-84700143D01*
X106289853Y-84664184D01*
X106258899Y-84601545D01*
X106258567Y-84599551D01*
X106251834Y-84557041D01*
X106251834Y-84557040D01*
X106176439Y-84325001D01*
X106065676Y-84107619D01*
X105998456Y-84015097D01*
X105998454Y-84015096D01*
X105379309Y-84634241D01*
X105360332Y-84588426D01*
X105283726Y-84473776D01*
X105186224Y-84376274D01*
X105071574Y-84299668D01*
X105025755Y-84280689D01*
X105662437Y-83644009D01*
X105663039Y-83641145D01*
X105699408Y-83599472D01*
X105750083Y-83562655D01*
X105922655Y-83390083D01*
X106066106Y-83192639D01*
X106176904Y-82975185D01*
X106252321Y-82743076D01*
X106290500Y-82502027D01*
X106290500Y-82257973D01*
X106252321Y-82016924D01*
X106176904Y-81784815D01*
X106066106Y-81567361D01*
X106047779Y-81542136D01*
X105922660Y-81369923D01*
X105922656Y-81369918D01*
X105750081Y-81197343D01*
X105750076Y-81197339D01*
X105552642Y-81053896D01*
X105552641Y-81053895D01*
X105552639Y-81053894D01*
X105335185Y-80943096D01*
X105103076Y-80867679D01*
X105103074Y-80867678D01*
X105103072Y-80867678D01*
X104934769Y-80841021D01*
X104862027Y-80829500D01*
X104617973Y-80829500D01*
X104562093Y-80838350D01*
X104376927Y-80867678D01*
X104144812Y-80943097D01*
X103927357Y-81053896D01*
X103729923Y-81197339D01*
X103729918Y-81197343D01*
X103557343Y-81369918D01*
X103557339Y-81369923D01*
X103413896Y-81567357D01*
X103303097Y-81784812D01*
X103227678Y-82016927D01*
X103198682Y-82200000D01*
X103189500Y-82257973D01*
X103189500Y-82502027D01*
X103200168Y-82569380D01*
X103215006Y-82663067D01*
X103227679Y-82743076D01*
X103303096Y-82975185D01*
X103405189Y-83175555D01*
X103413896Y-83192642D01*
X103557339Y-83390076D01*
X103557343Y-83390081D01*
X103557345Y-83390083D01*
X103729917Y-83562655D01*
X103780588Y-83599470D01*
X103806081Y-83632529D01*
X104454242Y-84280690D01*
X104408426Y-84299668D01*
X104293776Y-84376274D01*
X104196274Y-84473776D01*
X104119668Y-84588426D01*
X104100690Y-84634243D01*
X103481544Y-84015097D01*
X103414319Y-84107626D01*
X103303560Y-84325001D01*
X103228165Y-84557040D01*
X103190000Y-84798006D01*
X103190000Y-85041993D01*
X103228165Y-85282959D01*
X103303560Y-85514998D01*
X103414323Y-85732380D01*
X103481543Y-85824901D01*
X103481544Y-85824902D01*
X104100690Y-85205756D01*
X104119668Y-85251574D01*
X104196274Y-85366224D01*
X104293776Y-85463726D01*
X104408426Y-85540332D01*
X104454242Y-85559309D01*
X103817556Y-86195994D01*
X103816953Y-86198866D01*
X103780590Y-86240528D01*
X103729917Y-86277344D01*
X103557343Y-86449918D01*
X103557339Y-86449923D01*
X103413896Y-86647357D01*
X103303097Y-86864812D01*
X103227678Y-87096927D01*
X103189500Y-87337973D01*
X103189500Y-87582026D01*
X103226170Y-87813553D01*
X103227679Y-87823076D01*
X103303096Y-88055185D01*
X103413762Y-88272380D01*
X103413896Y-88272642D01*
X103557339Y-88470076D01*
X103557343Y-88470081D01*
X103729581Y-88642319D01*
X103763066Y-88703642D01*
X103758082Y-88773334D01*
X103729581Y-88817681D01*
X103557343Y-88989918D01*
X103557339Y-88989923D01*
X103413896Y-89187357D01*
X103303097Y-89404812D01*
X103227678Y-89636927D01*
X103189500Y-89877973D01*
X103189500Y-90122026D01*
X103227678Y-90363072D01*
X103303097Y-90595187D01*
X103413896Y-90812642D01*
X103463854Y-90881404D01*
X103487334Y-90947210D01*
X103471509Y-91015264D01*
X103437848Y-91053555D01*
X103332452Y-91132455D01*
X103246206Y-91247664D01*
X103246202Y-91247671D01*
X103195908Y-91382517D01*
X103189642Y-91440806D01*
X103189501Y-91442123D01*
X103189500Y-91442135D01*
X103189500Y-93637870D01*
X103189501Y-93637879D01*
X103191710Y-93658427D01*
X103179302Y-93727187D01*
X103131690Y-93778323D01*
X103063991Y-93795600D01*
X102999530Y-93774781D01*
X102947822Y-93740231D01*
X102947804Y-93740221D01*
X102820332Y-93687421D01*
X102820322Y-93687418D01*
X102684995Y-93660500D01*
X102684993Y-93660500D01*
X102547007Y-93660500D01*
X102547005Y-93660500D01*
X102411677Y-93687418D01*
X102411667Y-93687421D01*
X102284195Y-93740221D01*
X102284182Y-93740228D01*
X102169458Y-93816885D01*
X102169454Y-93816888D01*
X102071888Y-93914454D01*
X102071885Y-93914458D01*
X101995228Y-94029182D01*
X101995221Y-94029195D01*
X101942421Y-94156667D01*
X101942418Y-94156677D01*
X101915500Y-94292004D01*
X101915500Y-94292007D01*
X101915500Y-94429993D01*
X101915500Y-94429995D01*
X101915499Y-94429995D01*
X99252500Y-94429995D01*
X99252500Y-94429993D01*
X99252500Y-94292007D01*
X99252500Y-94292004D01*
X99225581Y-94156677D01*
X99225580Y-94156676D01*
X99225580Y-94156672D01*
X99198171Y-94090500D01*
X99172778Y-94029195D01*
X99172771Y-94029182D01*
X99096114Y-93914458D01*
X99096111Y-93914454D01*
X98998545Y-93816888D01*
X98998541Y-93816885D01*
X98883817Y-93740228D01*
X98883804Y-93740221D01*
X98756332Y-93687421D01*
X98756322Y-93687418D01*
X98620995Y-93660500D01*
X98620993Y-93660500D01*
X98483007Y-93660500D01*
X98483005Y-93660500D01*
X98347677Y-93687418D01*
X98347667Y-93687421D01*
X98220195Y-93740221D01*
X98220182Y-93740228D01*
X98105458Y-93816885D01*
X98105454Y-93816888D01*
X98007888Y-93914454D01*
X98007885Y-93914458D01*
X97931228Y-94029182D01*
X97931221Y-94029195D01*
X97878421Y-94156667D01*
X97878418Y-94156677D01*
X97851500Y-94292004D01*
X97851500Y-94292007D01*
X97851500Y-94429993D01*
X97851500Y-94429995D01*
X97851499Y-94429995D01*
X86926324Y-94429995D01*
X86965174Y-94312753D01*
X86975500Y-94211677D01*
X86975499Y-93613324D01*
X86965174Y-93512247D01*
X86910908Y-93348484D01*
X86820340Y-93201650D01*
X86706371Y-93087681D01*
X86704121Y-93083561D01*
X86700178Y-93081016D01*
X86687533Y-93053183D01*
X86672886Y-93026358D01*
X86673220Y-93021677D01*
X86671279Y-93017403D01*
X86675689Y-92987152D01*
X86677870Y-92956666D01*
X86680870Y-92951620D01*
X86681360Y-92948264D01*
X86691726Y-92933365D01*
X86700501Y-92918611D01*
X86703325Y-92915364D01*
X86820340Y-92798350D01*
X86857399Y-92738267D01*
X86864060Y-92730611D01*
X86885285Y-92717029D01*
X86904020Y-92700179D01*
X86915808Y-92697500D01*
X86922913Y-92692954D01*
X86935700Y-92692979D01*
X86957611Y-92688000D01*
X87825501Y-92688000D01*
X87892540Y-92707685D01*
X87938295Y-92760489D01*
X87949501Y-92812000D01*
X87949501Y-93637876D01*
X87955908Y-93697483D01*
X88006202Y-93832328D01*
X88006206Y-93832335D01*
X88092452Y-93947544D01*
X88092455Y-93947547D01*
X88207664Y-94033793D01*
X88207671Y-94033797D01*
X88342517Y-94084091D01*
X88342516Y-94084091D01*
X88349444Y-94084835D01*
X88402127Y-94090500D01*
X90597872Y-94090499D01*
X90657483Y-94084091D01*
X90792331Y-94033796D01*
X90907546Y-93947546D01*
X90993796Y-93832331D01*
X91044091Y-93697483D01*
X91050500Y-93637873D01*
X91050499Y-91442128D01*
X91044902Y-91390062D01*
X91044091Y-91382516D01*
X90993797Y-91247671D01*
X90993793Y-91247664D01*
X90907547Y-91132455D01*
X90907544Y-91132452D01*
X90802152Y-91053555D01*
X90760281Y-90997621D01*
X90755297Y-90927930D01*
X90776146Y-90881403D01*
X90826103Y-90812643D01*
X90826104Y-90812642D01*
X90826106Y-90812639D01*
X90936904Y-90595185D01*
X91012321Y-90363076D01*
X91050500Y-90122027D01*
X91050500Y-89877973D01*
X91012321Y-89636924D01*
X90936904Y-89404815D01*
X90826106Y-89187361D01*
X90807779Y-89162136D01*
X90682660Y-88989923D01*
X90682656Y-88989918D01*
X90510081Y-88817343D01*
X90510076Y-88817339D01*
X90459410Y-88780528D01*
X90433919Y-88747471D01*
X89785757Y-88099309D01*
X89831574Y-88080332D01*
X89946224Y-88003726D01*
X90043726Y-87906224D01*
X90120332Y-87791574D01*
X90139309Y-87745757D01*
X90758454Y-88364902D01*
X90758454Y-88364901D01*
X90825678Y-88272377D01*
X90936439Y-88054998D01*
X91011834Y-87822959D01*
X91050000Y-87581993D01*
X91050000Y-87338006D01*
X91011834Y-87097040D01*
X90936439Y-86865001D01*
X90825676Y-86647619D01*
X90758456Y-86555097D01*
X90758454Y-86555096D01*
X90139309Y-87174241D01*
X90120332Y-87128426D01*
X90043726Y-87013776D01*
X89946224Y-86916274D01*
X89831574Y-86839668D01*
X89785756Y-86820689D01*
X90404902Y-86201544D01*
X90404901Y-86201543D01*
X90312380Y-86134323D01*
X90094998Y-86023560D01*
X89862959Y-85948165D01*
X89621993Y-85910000D01*
X89378007Y-85910000D01*
X89137040Y-85948165D01*
X88905001Y-86023560D01*
X88687626Y-86134319D01*
X88595097Y-86201544D01*
X89214243Y-86820689D01*
X89168426Y-86839668D01*
X89053776Y-86916274D01*
X88956274Y-87013776D01*
X88879668Y-87128426D01*
X88860690Y-87174243D01*
X88241544Y-86555097D01*
X88174319Y-86647626D01*
X88063560Y-86865001D01*
X87988165Y-87097040D01*
X87950000Y-87338006D01*
X87950000Y-87581993D01*
X87988165Y-87822959D01*
X88063560Y-88054998D01*
X88174323Y-88272380D01*
X88241543Y-88364901D01*
X88241544Y-88364902D01*
X88860690Y-87745756D01*
X88879668Y-87791574D01*
X88956274Y-87906224D01*
X89053776Y-88003726D01*
X89168426Y-88080332D01*
X89214242Y-88099309D01*
X88577556Y-88735994D01*
X88576953Y-88738866D01*
X88540590Y-88780528D01*
X88489917Y-88817344D01*
X88317343Y-88989918D01*
X88317339Y-88989923D01*
X88173896Y-89187357D01*
X88063097Y-89404812D01*
X87987678Y-89636927D01*
X87949500Y-89877973D01*
X87949500Y-90122026D01*
X87987678Y-90363072D01*
X88063097Y-90595187D01*
X88173896Y-90812642D01*
X88223854Y-90881404D01*
X88247334Y-90947210D01*
X88231509Y-91015264D01*
X88197848Y-91053555D01*
X88092452Y-91132455D01*
X88006206Y-91247664D01*
X88006202Y-91247671D01*
X87955908Y-91382517D01*
X87954126Y-91390062D01*
X87951154Y-91389359D01*
X87929844Y-91440806D01*
X87872452Y-91480654D01*
X87833293Y-91487000D01*
X86957611Y-91487000D01*
X86890572Y-91467315D01*
X86852072Y-91428096D01*
X86820340Y-91376650D01*
X86698351Y-91254661D01*
X86698350Y-91254660D01*
X86551516Y-91164092D01*
X86387753Y-91109826D01*
X86387751Y-91109825D01*
X86286678Y-91099500D01*
X85713330Y-91099500D01*
X85713312Y-91099501D01*
X85612247Y-91109825D01*
X85448484Y-91164092D01*
X85448481Y-91164093D01*
X85301648Y-91254661D01*
X85179661Y-91376648D01*
X85089093Y-91523481D01*
X85089092Y-91523484D01*
X85034826Y-91687247D01*
X85034826Y-91687248D01*
X85034825Y-91687248D01*
X85024500Y-91788315D01*
X85024500Y-92386669D01*
X85024501Y-92386687D01*
X85034825Y-92487752D01*
X85089092Y-92651515D01*
X85089093Y-92651518D01*
X85179661Y-92798351D01*
X85293629Y-92912319D01*
X85295878Y-92916438D01*
X85299822Y-92918984D01*
X85312466Y-92946816D01*
X85327114Y-92973642D01*
X85326779Y-92978322D01*
X85328721Y-92982597D01*
X85324310Y-93012847D01*
X85322130Y-93043334D01*
X85319129Y-93048379D01*
X85318640Y-93051736D01*
X85308273Y-93066634D01*
X85299499Y-93081389D01*
X85296674Y-93084635D01*
X85179660Y-93201650D01*
X85142600Y-93261732D01*
X85135940Y-93269389D01*
X85114714Y-93282970D01*
X85095980Y-93299821D01*
X85084191Y-93302499D01*
X85077087Y-93307046D01*
X85064299Y-93307020D01*
X85042389Y-93312000D01*
X84512156Y-93312000D01*
X84445117Y-93292315D01*
X84406619Y-93253099D01*
X84324281Y-93119609D01*
X84292353Y-93087681D01*
X84258868Y-93026358D01*
X84263852Y-92956666D01*
X84292353Y-92912319D01*
X84324281Y-92880391D01*
X84412549Y-92737287D01*
X84465436Y-92577685D01*
X84475500Y-92479174D01*
X84475500Y-91945826D01*
X84465436Y-91847315D01*
X84412549Y-91687713D01*
X84412545Y-91687707D01*
X84412544Y-91687704D01*
X84324283Y-91544612D01*
X84324280Y-91544608D01*
X84205391Y-91425719D01*
X84205387Y-91425716D01*
X84062295Y-91337455D01*
X84062289Y-91337452D01*
X84062287Y-91337451D01*
X83902685Y-91284564D01*
X83902683Y-91284563D01*
X83804181Y-91274500D01*
X83804174Y-91274500D01*
X83195826Y-91274500D01*
X83195818Y-91274500D01*
X83097316Y-91284563D01*
X83097315Y-91284564D01*
X83018219Y-91310773D01*
X82937715Y-91337450D01*
X82937704Y-91337455D01*
X82794612Y-91425716D01*
X82794608Y-91425719D01*
X82675719Y-91544608D01*
X82675716Y-91544612D01*
X82587455Y-91687704D01*
X82587451Y-91687713D01*
X82534564Y-91847315D01*
X82534564Y-91847316D01*
X82534563Y-91847316D01*
X82524500Y-91945818D01*
X81545500Y-91945818D01*
X81545500Y-84858166D01*
X82474500Y-84858166D01*
X82474500Y-85141833D01*
X82506258Y-85423690D01*
X82506260Y-85423702D01*
X82569380Y-85700253D01*
X82569383Y-85700261D01*
X82663067Y-85967993D01*
X82786139Y-86223554D01*
X82819934Y-86277339D01*
X82937056Y-86463737D01*
X83009913Y-86555097D01*
X83083702Y-86647626D01*
X83113914Y-86685510D01*
X83314490Y-86886086D01*
X83536263Y-87062944D01*
X83776443Y-87213859D01*
X83776445Y-87213860D01*
X83861632Y-87254884D01*
X84032010Y-87336934D01*
X84233092Y-87407295D01*
X84299738Y-87430616D01*
X84299746Y-87430619D01*
X84299749Y-87430619D01*
X84299750Y-87430620D01*
X84576297Y-87493740D01*
X84858166Y-87525499D01*
X84858167Y-87525500D01*
X84858171Y-87525500D01*
X85141833Y-87525500D01*
X85141833Y-87525499D01*
X85423703Y-87493740D01*
X85700250Y-87430620D01*
X85967990Y-87336934D01*
X86136429Y-87255818D01*
X86207857Y-87221420D01*
X86213544Y-87218680D01*
X86223557Y-87213859D01*
X86463737Y-87062944D01*
X86685510Y-86886086D01*
X86886086Y-86685510D01*
X87062944Y-86463737D01*
X87213859Y-86223557D01*
X87224460Y-86201544D01*
X87227611Y-86195002D01*
X87227611Y-86195001D01*
X87257039Y-86133894D01*
X87336934Y-85967990D01*
X87430620Y-85700250D01*
X87493740Y-85423703D01*
X87525500Y-85141829D01*
X87525500Y-84858171D01*
X87525499Y-84858166D01*
X87525499Y-84858163D01*
X87519738Y-84807023D01*
X87495739Y-84594041D01*
X87493740Y-84576297D01*
X87430620Y-84299750D01*
X87430591Y-84299668D01*
X87387337Y-84176055D01*
X87336934Y-84032010D01*
X87213859Y-83776443D01*
X87062944Y-83536263D01*
X86886086Y-83314490D01*
X86685510Y-83113914D01*
X86463737Y-82937056D01*
X86223557Y-82786141D01*
X86223554Y-82786139D01*
X85967993Y-82663067D01*
X85700261Y-82569383D01*
X85700253Y-82569380D01*
X85492839Y-82522040D01*
X85423703Y-82506260D01*
X85423699Y-82506259D01*
X85423690Y-82506258D01*
X85141833Y-82474500D01*
X85141829Y-82474500D01*
X84858171Y-82474500D01*
X84858167Y-82474500D01*
X84576309Y-82506258D01*
X84576297Y-82506260D01*
X84299746Y-82569380D01*
X84299738Y-82569383D01*
X84032006Y-82663067D01*
X83776445Y-82786139D01*
X83536264Y-82937055D01*
X83314490Y-83113913D01*
X83113913Y-83314490D01*
X82937055Y-83536264D01*
X82786139Y-83776445D01*
X82663067Y-84032006D01*
X82569383Y-84299738D01*
X82569380Y-84299746D01*
X82506260Y-84576297D01*
X82506258Y-84576309D01*
X82474500Y-84858166D01*
X81545500Y-84858166D01*
X81545500Y-80126500D01*
X81565185Y-80059461D01*
X81617989Y-80013706D01*
X81669500Y-80002500D01*
X130420500Y-80002500D01*
X130487539Y-80022185D01*
G37*
G04 #@! TD.AperFunction*
M02*
