G04 #@! TF.GenerationSoftware,KiCad,Pcbnew,9.0.3*
G04 #@! TF.CreationDate,2025-08-16T00:12:18+02:00*
G04 #@! TF.ProjectId,fw-anwesenheit,66772d61-6e77-4657-9365-6e686569742e,rev?*
G04 #@! TF.SameCoordinates,Original*
G04 #@! TF.FileFunction,Soldermask,Top*
G04 #@! TF.FilePolarity,Negative*
%FSLAX46Y46*%
G04 Gerber Fmt 4.6, Leading zero omitted, Abs format (unit mm)*
G04 Created by KiCad (PCBNEW 9.0.3) date 2025-08-16 00:12:18*
%MOMM*%
%LPD*%
G01*
G04 APERTURE LIST*
G04 Aperture macros list*
%AMRoundRect*
0 Rectangle with rounded corners*
0 $1 Rounding radius*
0 $2 $3 $4 $5 $6 $7 $8 $9 X,Y pos of 4 corners*
0 Add a 4 corners polygon primitive as box body*
4,1,4,$2,$3,$4,$5,$6,$7,$8,$9,$2,$3,0*
0 Add four circle primitives for the rounded corners*
1,1,$1+$1,$2,$3*
1,1,$1+$1,$4,$5*
1,1,$1+$1,$6,$7*
1,1,$1+$1,$8,$9*
0 Add four rect primitives between the rounded corners*
20,1,$1+$1,$2,$3,$4,$5,0*
20,1,$1+$1,$4,$5,$6,$7,0*
20,1,$1+$1,$6,$7,$8,$9,0*
20,1,$1+$1,$8,$9,$2,$3,0*%
%AMOutline5P*
0 Free polygon, 5 corners , with rotation*
0 The origin of the aperture is its center*
0 number of corners: always 5*
0 $1 to $10 corner X, Y*
0 $11 Rotation angle, in degrees counterclockwise*
0 create outline with 5 corners*
4,1,5,$1,$2,$3,$4,$5,$6,$7,$8,$9,$10,$1,$2,$11*%
%AMOutline6P*
0 Free polygon, 6 corners , with rotation*
0 The origin of the aperture is its center*
0 number of corners: always 6*
0 $1 to $12 corner X, Y*
0 $13 Rotation angle, in degrees counterclockwise*
0 create outline with 6 corners*
4,1,6,$1,$2,$3,$4,$5,$6,$7,$8,$9,$10,$11,$12,$1,$2,$13*%
%AMOutline7P*
0 Free polygon, 7 corners , with rotation*
0 The origin of the aperture is its center*
0 number of corners: always 7*
0 $1 to $14 corner X, Y*
0 $15 Rotation angle, in degrees counterclockwise*
0 create outline with 7 corners*
4,1,7,$1,$2,$3,$4,$5,$6,$7,$8,$9,$10,$11,$12,$13,$14,$1,$2,$15*%
%AMOutline8P*
0 Free polygon, 8 corners , with rotation*
0 The origin of the aperture is its center*
0 number of corners: always 8*
0 $1 to $16 corner X, Y*
0 $17 Rotation angle, in degrees counterclockwise*
0 create outline with 8 corners*
4,1,8,$1,$2,$3,$4,$5,$6,$7,$8,$9,$10,$11,$12,$13,$14,$15,$16,$1,$2,$17*%
%AMFreePoly0*
4,1,6,1.000000,0.000000,0.500000,-0.750000,-0.500000,-0.750000,-0.500000,0.750000,0.500000,0.750000,1.000000,0.000000,1.000000,0.000000,$1*%
%AMFreePoly1*
4,1,6,0.500000,-0.750000,-0.650000,-0.750000,-0.150000,0.000000,-0.650000,0.750000,0.500000,0.750000,0.500000,-0.750000,0.500000,-0.750000,$1*%
G04 Aperture macros list end*
%ADD10RoundRect,0.225000X0.225000X0.250000X-0.225000X0.250000X-0.225000X-0.250000X0.225000X-0.250000X0*%
%ADD11Outline5P,-1.250000X0.510000X-0.910000X0.850000X1.250000X0.850000X1.250000X-0.850000X-1.250000X-0.850000X0.000000*%
%ADD12RoundRect,0.170000X-1.080000X-0.680000X1.080000X-0.680000X1.080000X0.680000X-1.080000X0.680000X0*%
%ADD13RoundRect,0.250000X-1.000000X-0.600000X1.000000X-0.600000X1.000000X0.600000X-1.000000X0.600000X0*%
%ADD14RoundRect,0.525400X0.900400X0.525400X-0.900400X0.525400X-0.900400X-0.525400X0.900400X-0.525400X0*%
%ADD15RoundRect,0.300400X0.300400X-1.000400X0.300400X1.000400X-0.300400X1.000400X-0.300400X-1.000400X0*%
%ADD16C,1.700000*%
%ADD17C,1.500000*%
%ADD18RoundRect,0.150000X-0.825000X-0.150000X0.825000X-0.150000X0.825000X0.150000X-0.825000X0.150000X0*%
%ADD19RoundRect,0.218750X0.256250X-0.218750X0.256250X0.218750X-0.256250X0.218750X-0.256250X-0.218750X0*%
%ADD20RoundRect,0.237500X0.237500X-0.250000X0.237500X0.250000X-0.237500X0.250000X-0.237500X-0.250000X0*%
%ADD21RoundRect,0.237500X-0.237500X0.250000X-0.237500X-0.250000X0.237500X-0.250000X0.237500X0.250000X0*%
%ADD22R,1.350000X1.350000*%
%ADD23C,1.350000*%
%ADD24FreePoly0,0.000000*%
%ADD25FreePoly1,0.000000*%
%ADD26C,2.304000*%
%ADD27RoundRect,0.102000X-1.050000X1.050000X-1.050000X-1.050000X1.050000X-1.050000X1.050000X1.050000X0*%
%ADD28RoundRect,0.237500X0.250000X0.237500X-0.250000X0.237500X-0.250000X-0.237500X0.250000X-0.237500X0*%
%ADD29RoundRect,0.102000X-0.635000X-0.279400X0.635000X-0.279400X0.635000X0.279400X-0.635000X0.279400X0*%
%ADD30RoundRect,0.225000X-0.225000X-0.250000X0.225000X-0.250000X0.225000X0.250000X-0.225000X0.250000X0*%
%ADD31RoundRect,0.237500X-0.250000X-0.237500X0.250000X-0.237500X0.250000X0.237500X-0.250000X0.237500X0*%
%ADD32RoundRect,0.225000X0.250000X-0.225000X0.250000X0.225000X-0.250000X0.225000X-0.250000X-0.225000X0*%
%ADD33C,1.000000*%
%ADD34RoundRect,0.102000X0.350000X0.950000X-0.350000X0.950000X-0.350000X-0.950000X0.350000X-0.950000X0*%
%ADD35RoundRect,0.102000X0.850000X0.900000X-0.850000X0.900000X-0.850000X-0.900000X0.850000X-0.900000X0*%
%ADD36RoundRect,0.102000X0.700000X1.300000X-0.700000X1.300000X-0.700000X-1.300000X0.700000X-1.300000X0*%
%ADD37RoundRect,0.225000X-0.250000X0.225000X-0.250000X-0.225000X0.250000X-0.225000X0.250000X0.225000X0*%
%ADD38R,1.600000X2.000000*%
%ADD39O,1.600000X2.000000*%
G04 APERTURE END LIST*
G36*
X117483000Y-126250000D02*
G01*
X119933000Y-126250000D01*
X119933000Y-127750000D01*
X117483000Y-127750000D01*
X117483000Y-126250000D01*
G37*
D10*
X123775000Y-97500000D03*
X122225000Y-97500000D03*
D11*
X129000000Y-111190000D03*
D12*
X129000000Y-113730000D03*
D13*
X129000000Y-116270000D03*
D14*
X113821600Y-126598500D03*
X113821600Y-124058500D03*
X113821600Y-121518500D03*
X113821600Y-118978500D03*
X113821600Y-116438500D03*
X113821600Y-113898500D03*
X113821600Y-111358500D03*
X97656600Y-111358500D03*
X97656600Y-113898500D03*
X97656600Y-116438500D03*
X97656600Y-118978500D03*
X97656600Y-121518500D03*
X97656600Y-124058500D03*
X97656600Y-126598500D03*
D15*
X107548000Y-113446800D03*
X105008000Y-113446800D03*
D16*
X107040000Y-127620000D03*
X104500000Y-127620000D03*
X107040000Y-125080000D03*
X104500000Y-125080000D03*
X107040000Y-122540000D03*
X104500000Y-122540000D03*
X107040000Y-120000000D03*
X104592600Y-120056800D03*
D17*
X83000000Y-127500000D03*
D18*
X100525000Y-101190000D03*
X100525000Y-102460000D03*
X100525000Y-103730000D03*
X100525000Y-105000000D03*
X105475000Y-105000000D03*
X105475000Y-103730000D03*
X105475000Y-102460000D03*
X105475000Y-101190000D03*
D19*
X83500000Y-93787500D03*
X83500000Y-92212500D03*
D20*
X120000000Y-102412500D03*
X120000000Y-100587500D03*
X122000000Y-102412500D03*
X122000000Y-100587500D03*
D21*
X90000000Y-109087500D03*
X90000000Y-110912500D03*
D10*
X103500000Y-98500000D03*
X101950000Y-98500000D03*
D17*
X84000000Y-103500000D03*
D22*
X89916000Y-118888000D03*
D23*
X89916000Y-120888000D03*
D20*
X116000000Y-102412500D03*
X116000000Y-100587500D03*
D17*
X86175000Y-118373000D03*
D24*
X117983000Y-127000000D03*
D25*
X119433000Y-127000000D03*
D26*
X89500000Y-59520000D03*
D27*
X89500000Y-62060000D03*
D26*
X104740000Y-87460000D03*
X104740000Y-84920000D03*
X89500000Y-87460000D03*
D27*
X89500000Y-92540000D03*
D26*
X104740000Y-90000000D03*
D27*
X104740000Y-92540000D03*
D26*
X104740000Y-82380000D03*
X89500000Y-90000000D03*
D28*
X90412500Y-97000000D03*
X88587500Y-97000000D03*
X90412500Y-99000000D03*
X88587500Y-99000000D03*
D29*
X117704600Y-113560200D03*
X117704600Y-114500000D03*
X117704600Y-115439800D03*
X120295400Y-115439800D03*
X120295400Y-113560200D03*
D30*
X118225000Y-111000000D03*
X119775000Y-111000000D03*
D21*
X86000000Y-92087500D03*
X86000000Y-93912500D03*
D31*
X123087500Y-111000000D03*
X124912500Y-111000000D03*
D20*
X124000000Y-102412500D03*
X124000000Y-100587500D03*
D17*
X84000000Y-100500000D03*
X86500000Y-127500000D03*
X90000000Y-127500000D03*
D20*
X128000000Y-102500000D03*
X128000000Y-100675000D03*
D17*
X124500000Y-108500000D03*
D20*
X118000000Y-102412500D03*
X118000000Y-100587500D03*
D32*
X125984000Y-115583000D03*
X125984000Y-114033000D03*
D20*
X122500000Y-120912500D03*
X122500000Y-119087500D03*
D21*
X90000000Y-113087500D03*
X90000000Y-114912500D03*
D17*
X84000000Y-97500000D03*
D33*
X125750000Y-83600000D03*
X117750000Y-83600000D03*
D34*
X118550000Y-94650000D03*
X119650000Y-94650000D03*
X120750000Y-94650000D03*
X121850000Y-94650000D03*
X122950000Y-94650000D03*
X124050000Y-94650000D03*
X125150000Y-94650000D03*
X126250000Y-94650000D03*
X127350000Y-94650000D03*
D35*
X128900000Y-93600000D03*
X113400000Y-93600000D03*
D36*
X128650000Y-84000000D03*
X112950000Y-84000000D03*
D20*
X126000000Y-102412500D03*
X126000000Y-100587500D03*
D17*
X86175000Y-115373000D03*
D20*
X120000000Y-121000000D03*
X120000000Y-119175000D03*
D37*
X94500000Y-124225000D03*
X94500000Y-125775000D03*
D38*
X92000000Y-103500000D03*
D39*
X112500000Y-103500000D03*
M02*
