G04 #@! TF.GenerationSoftware,KiCad,Pcbnew,9.0.3*
G04 #@! TF.CreationDate,2025-08-16T00:12:18+02:00*
G04 #@! TF.ProjectId,fw-anwesenheit,66772d61-6e77-4657-9365-6e686569742e,rev?*
G04 #@! TF.SameCoordinates,Original*
G04 #@! TF.FileFunction,Copper,L2,Inr*
G04 #@! TF.FilePolarity,Positive*
%FSLAX46Y46*%
G04 Gerber Fmt 4.6, Leading zero omitted, Abs format (unit mm)*
G04 Created by KiCad (PCBNEW 9.0.3) date 2025-08-16 00:12:18*
%MOMM*%
%LPD*%
G01*
G04 APERTURE LIST*
G04 #@! TA.AperFunction,ComponentPad*
%ADD10R,1.350000X1.350000*%
G04 #@! TD*
G04 #@! TA.AperFunction,ComponentPad*
%ADD11C,1.350000*%
G04 #@! TD*
G04 #@! TA.AperFunction,ComponentPad*
%ADD12C,2.100000*%
G04 #@! TD*
G04 #@! TA.AperFunction,ComponentPad*
%ADD13R,2.100000X2.100000*%
G04 #@! TD*
G04 #@! TA.AperFunction,ComponentPad*
%ADD14R,1.600000X2.000000*%
G04 #@! TD*
G04 #@! TA.AperFunction,ComponentPad*
%ADD15O,1.600000X2.000000*%
G04 #@! TD*
G04 #@! TA.AperFunction,ViaPad*
%ADD16C,0.400000*%
G04 #@! TD*
G04 APERTURE END LIST*
D10*
X89916000Y-118888000D03*
D11*
X89916000Y-120888000D03*
D12*
X89500000Y-59520000D03*
D13*
X89500000Y-62060000D03*
D12*
X104740000Y-87460000D03*
X104740000Y-84920000D03*
X89500000Y-87460000D03*
D13*
X89500000Y-92540000D03*
D12*
X104740000Y-90000000D03*
D13*
X104740000Y-92540000D03*
D12*
X104740000Y-82380000D03*
X89500000Y-90000000D03*
D14*
X92000000Y-103500000D03*
D15*
X112500000Y-103500000D03*
D16*
X115443000Y-91821000D03*
X110490000Y-115189000D03*
X126873000Y-97536000D03*
X120015000Y-99441000D03*
X118491000Y-99060000D03*
X95631000Y-100965000D03*
X92710000Y-98044000D03*
X86487000Y-99822000D03*
X88519000Y-103124000D03*
X117475000Y-116840000D03*
X117704600Y-115443000D03*
X90000000Y-114912500D03*
X118237000Y-110998000D03*
X112903000Y-83947000D03*
X122529600Y-126949200D03*
X98552000Y-124079000D03*
X124079000Y-94234000D03*
X123825000Y-97536000D03*
X104521000Y-125095000D03*
X98552000Y-124714000D03*
X129794000Y-115824000D03*
X122174000Y-127381000D03*
X83950000Y-112960000D03*
X113411000Y-93853000D03*
X97663000Y-123444000D03*
X125984000Y-115570000D03*
X129000000Y-116270000D03*
X128270000Y-116713000D03*
X122174000Y-126619000D03*
X84328000Y-126873000D03*
X117704600Y-113560200D03*
X103505000Y-98552000D03*
X122936000Y-126619000D03*
X128905000Y-93599000D03*
X122936000Y-127381000D03*
X96774000Y-123444000D03*
X129794000Y-116713000D03*
X98552000Y-123444000D03*
X128651000Y-83947000D03*
X105029000Y-113411000D03*
X96774000Y-124079000D03*
X105029000Y-112522000D03*
X120015000Y-119253000D03*
X105475000Y-105000000D03*
X128270000Y-115824000D03*
X124079000Y-94996000D03*
X97663000Y-124714000D03*
X97663000Y-124079000D03*
X122500000Y-119087500D03*
X96774000Y-124714000D03*
X128219200Y-114198400D03*
X98602800Y-127203200D03*
X128219200Y-113284000D03*
X97688400Y-127203200D03*
X129641600Y-113334800D03*
X120294400Y-113588800D03*
X96926400Y-126644400D03*
X94488000Y-125730000D03*
X98602800Y-126085600D03*
X87505500Y-126494500D03*
X129641600Y-114249200D03*
X98602800Y-126644400D03*
X119761000Y-110998000D03*
X97688400Y-126085600D03*
X97688400Y-126644400D03*
X125984000Y-114046000D03*
X128981200Y-113741200D03*
X96926400Y-127203200D03*
X96926400Y-126085600D03*
X104267000Y-120396000D03*
X98552000Y-102489000D03*
X83500000Y-92212500D03*
X126000000Y-102412500D03*
X102108000Y-98552000D03*
X120000000Y-121000000D03*
X90412500Y-99000000D03*
X121920000Y-95123000D03*
X118000000Y-102412500D03*
X104902000Y-120396000D03*
X122000000Y-102412500D03*
X97663000Y-120904000D03*
X121920000Y-94234000D03*
X104902000Y-119761000D03*
X98552000Y-121539000D03*
X104267000Y-119761000D03*
X122174000Y-97536000D03*
X128000000Y-102500000D03*
X97663000Y-122174000D03*
X97663000Y-121539000D03*
X98552000Y-122174000D03*
X116000000Y-102412500D03*
X83185000Y-110490000D03*
X90412500Y-97000000D03*
X124000000Y-102412500D03*
X120000000Y-102412500D03*
X98552000Y-120904000D03*
X96774000Y-122174000D03*
X122500000Y-120912500D03*
X96774000Y-121539000D03*
X91694000Y-127889000D03*
X96774000Y-120904000D03*
X119634000Y-126492000D03*
X119634000Y-127000000D03*
X119634000Y-127508000D03*
X107823000Y-114300000D03*
X116332000Y-125984000D03*
X107315000Y-114300000D03*
X107315000Y-113665000D03*
X107823000Y-112903000D03*
X116967000Y-125349000D03*
X107315000Y-112903000D03*
X116459000Y-125476000D03*
X107823000Y-113665000D03*
X90000000Y-109087500D03*
X127350000Y-94650000D03*
X113792000Y-126746000D03*
X97663000Y-116332000D03*
X125150000Y-94650000D03*
X122936000Y-94650000D03*
X97663000Y-114046000D03*
X122000000Y-100587500D03*
X95250000Y-113157000D03*
X120750000Y-94650000D03*
X119650000Y-94650000D03*
X112903000Y-118491000D03*
X92583000Y-119888000D03*
X116078000Y-118491000D03*
X115951000Y-117094000D03*
X88011000Y-117475000D03*
X113821600Y-116438500D03*
X84582000Y-116967000D03*
X118550000Y-94650000D03*
X126250000Y-94650000D03*
G04 #@! TA.AperFunction,Conductor*
G36*
X130442539Y-80020185D02*
G01*
X130488294Y-80072989D01*
X130499500Y-80124500D01*
X130499500Y-112952068D01*
X130479815Y-113019107D01*
X130427011Y-113064862D01*
X130357853Y-113074806D01*
X130294297Y-113045781D01*
X130266735Y-113007562D01*
X130265245Y-113008359D01*
X130262371Y-113002982D01*
X130185714Y-112888258D01*
X130185711Y-112888254D01*
X130088145Y-112790688D01*
X130088141Y-112790685D01*
X129973417Y-112714028D01*
X129973404Y-112714021D01*
X129845932Y-112661221D01*
X129845922Y-112661218D01*
X129710595Y-112634300D01*
X129710593Y-112634300D01*
X129572607Y-112634300D01*
X129572605Y-112634300D01*
X129437277Y-112661218D01*
X129437267Y-112661221D01*
X129309795Y-112714021D01*
X129309782Y-112714028D01*
X129195058Y-112790685D01*
X129195054Y-112790688D01*
X129097488Y-112888254D01*
X129050372Y-112958768D01*
X128996759Y-113003572D01*
X128927434Y-113012279D01*
X128864407Y-112982124D01*
X128844381Y-112956571D01*
X128843360Y-112957254D01*
X128763314Y-112837458D01*
X128763311Y-112837454D01*
X128665745Y-112739888D01*
X128665741Y-112739885D01*
X128551017Y-112663228D01*
X128551004Y-112663221D01*
X128423532Y-112610421D01*
X128423522Y-112610418D01*
X128288195Y-112583500D01*
X128288193Y-112583500D01*
X128150207Y-112583500D01*
X128150205Y-112583500D01*
X128014877Y-112610418D01*
X128014867Y-112610421D01*
X127887395Y-112663221D01*
X127887382Y-112663228D01*
X127772658Y-112739885D01*
X127772654Y-112739888D01*
X127675088Y-112837454D01*
X127675085Y-112837458D01*
X127598428Y-112952182D01*
X127598421Y-112952195D01*
X127545621Y-113079667D01*
X127545618Y-113079677D01*
X127518700Y-113215004D01*
X127518700Y-113215007D01*
X127518700Y-113352993D01*
X127518700Y-113352995D01*
X127518699Y-113352995D01*
X127545618Y-113488322D01*
X127545621Y-113488332D01*
X127598421Y-113615804D01*
X127598428Y-113615817D01*
X127636175Y-113672309D01*
X127657053Y-113738987D01*
X127638568Y-113806367D01*
X127636175Y-113810091D01*
X127598428Y-113866582D01*
X127598421Y-113866595D01*
X127545621Y-113994067D01*
X127545618Y-113994077D01*
X127518700Y-114129404D01*
X127518700Y-114129407D01*
X127518700Y-114267393D01*
X127518700Y-114267395D01*
X127518699Y-114267395D01*
X127545618Y-114402722D01*
X127545621Y-114402732D01*
X127598421Y-114530204D01*
X127598428Y-114530217D01*
X127675085Y-114644941D01*
X127675088Y-114644945D01*
X127772654Y-114742511D01*
X127772658Y-114742514D01*
X127887382Y-114819171D01*
X127887395Y-114819178D01*
X127947597Y-114844114D01*
X128014872Y-114871980D01*
X128014876Y-114871980D01*
X128014877Y-114871981D01*
X128150204Y-114898900D01*
X128150207Y-114898900D01*
X128288195Y-114898900D01*
X128379241Y-114880789D01*
X128423528Y-114871980D01*
X128551011Y-114819175D01*
X128665742Y-114742514D01*
X128763314Y-114644942D01*
X128810427Y-114574431D01*
X128864038Y-114529627D01*
X128933363Y-114520920D01*
X128996391Y-114551074D01*
X129016421Y-114576626D01*
X129017440Y-114575946D01*
X129097485Y-114695741D01*
X129097488Y-114695745D01*
X129195054Y-114793311D01*
X129195058Y-114793314D01*
X129309782Y-114869971D01*
X129309795Y-114869978D01*
X129379620Y-114898900D01*
X129437272Y-114922780D01*
X129437276Y-114922780D01*
X129437277Y-114922781D01*
X129572604Y-114949700D01*
X129572607Y-114949700D01*
X129710595Y-114949700D01*
X129801641Y-114931589D01*
X129845928Y-114922780D01*
X129968568Y-114871981D01*
X129973404Y-114869978D01*
X129973404Y-114869977D01*
X129973411Y-114869975D01*
X130088142Y-114793314D01*
X130185714Y-114695742D01*
X130262375Y-114581011D01*
X130262377Y-114581004D01*
X130265245Y-114575641D01*
X130267213Y-114576693D01*
X130304775Y-114530078D01*
X130371068Y-114508010D01*
X130438769Y-114525286D01*
X130486381Y-114576421D01*
X130499500Y-114631931D01*
X130499500Y-128875500D01*
X130479815Y-128942539D01*
X130427011Y-128988294D01*
X130375500Y-128999500D01*
X81624500Y-128999500D01*
X81557461Y-128979815D01*
X81511706Y-128927011D01*
X81500500Y-128875500D01*
X81500500Y-127957995D01*
X90993499Y-127957995D01*
X91020418Y-128093322D01*
X91020421Y-128093332D01*
X91073221Y-128220804D01*
X91073228Y-128220817D01*
X91149885Y-128335541D01*
X91149888Y-128335545D01*
X91247454Y-128433111D01*
X91247458Y-128433114D01*
X91362182Y-128509771D01*
X91362195Y-128509778D01*
X91489667Y-128562578D01*
X91489672Y-128562580D01*
X91489676Y-128562580D01*
X91489677Y-128562581D01*
X91625004Y-128589500D01*
X91625007Y-128589500D01*
X91762995Y-128589500D01*
X91854041Y-128571389D01*
X91898328Y-128562580D01*
X92025811Y-128509775D01*
X92140542Y-128433114D01*
X92238114Y-128335542D01*
X92314775Y-128220811D01*
X92367580Y-128093328D01*
X92394500Y-127957993D01*
X92394500Y-127820007D01*
X92394500Y-127820004D01*
X92367581Y-127684677D01*
X92367580Y-127684676D01*
X92367580Y-127684672D01*
X92322979Y-127576995D01*
X92314778Y-127557195D01*
X92314771Y-127557182D01*
X92238114Y-127442458D01*
X92238111Y-127442454D01*
X92140545Y-127344888D01*
X92140541Y-127344885D01*
X92025817Y-127268228D01*
X92025804Y-127268221D01*
X91898332Y-127215421D01*
X91898322Y-127215418D01*
X91762995Y-127188500D01*
X91762993Y-127188500D01*
X91625007Y-127188500D01*
X91625005Y-127188500D01*
X91489677Y-127215418D01*
X91489667Y-127215421D01*
X91362195Y-127268221D01*
X91362182Y-127268228D01*
X91247458Y-127344885D01*
X91247454Y-127344888D01*
X91149888Y-127442454D01*
X91149885Y-127442458D01*
X91073228Y-127557182D01*
X91073221Y-127557195D01*
X91020421Y-127684667D01*
X91020418Y-127684677D01*
X90993500Y-127820004D01*
X90993500Y-127820007D01*
X90993500Y-127957993D01*
X90993500Y-127957995D01*
X90993499Y-127957995D01*
X81500500Y-127957995D01*
X81500500Y-126563495D01*
X86804999Y-126563495D01*
X86831918Y-126698822D01*
X86831921Y-126698832D01*
X86884721Y-126826304D01*
X86884728Y-126826317D01*
X86961385Y-126941041D01*
X86961388Y-126941045D01*
X87058954Y-127038611D01*
X87058958Y-127038614D01*
X87173682Y-127115271D01*
X87173695Y-127115278D01*
X87301167Y-127168078D01*
X87301172Y-127168080D01*
X87301176Y-127168080D01*
X87301177Y-127168081D01*
X87436504Y-127195000D01*
X87436507Y-127195000D01*
X87574495Y-127195000D01*
X87665541Y-127176889D01*
X87709828Y-127168080D01*
X87837311Y-127115275D01*
X87952042Y-127038614D01*
X88049614Y-126941042D01*
X88126275Y-126826311D01*
X88179080Y-126698828D01*
X88197788Y-126604778D01*
X88206000Y-126563495D01*
X88206000Y-126425504D01*
X88179081Y-126290177D01*
X88179080Y-126290176D01*
X88179080Y-126290172D01*
X88178978Y-126289926D01*
X88126278Y-126162695D01*
X88126271Y-126162682D01*
X88049614Y-126047958D01*
X88049611Y-126047954D01*
X87952045Y-125950388D01*
X87952041Y-125950385D01*
X87837317Y-125873728D01*
X87837304Y-125873721D01*
X87709832Y-125820921D01*
X87709822Y-125820918D01*
X87599607Y-125798995D01*
X93787499Y-125798995D01*
X93814418Y-125934322D01*
X93814421Y-125934332D01*
X93867221Y-126061804D01*
X93867228Y-126061817D01*
X93943885Y-126176541D01*
X93943888Y-126176545D01*
X94041454Y-126274111D01*
X94041458Y-126274114D01*
X94156182Y-126350771D01*
X94156195Y-126350778D01*
X94243690Y-126387019D01*
X94283672Y-126403580D01*
X94283676Y-126403580D01*
X94283677Y-126403581D01*
X94419004Y-126430500D01*
X94419007Y-126430500D01*
X94556995Y-126430500D01*
X94648041Y-126412389D01*
X94692328Y-126403580D01*
X94819811Y-126350775D01*
X94934542Y-126274114D01*
X95032114Y-126176542D01*
X95046779Y-126154595D01*
X96225899Y-126154595D01*
X96252819Y-126289926D01*
X96252821Y-126289932D01*
X96264260Y-126317550D01*
X96271727Y-126387019D01*
X96264260Y-126412450D01*
X96252821Y-126440067D01*
X96252819Y-126440073D01*
X96225900Y-126575404D01*
X96225900Y-126575407D01*
X96225900Y-126713393D01*
X96225900Y-126713395D01*
X96225899Y-126713395D01*
X96252819Y-126848726D01*
X96252821Y-126848732D01*
X96264260Y-126876350D01*
X96271727Y-126945819D01*
X96264260Y-126971250D01*
X96252821Y-126998867D01*
X96252819Y-126998873D01*
X96225900Y-127134204D01*
X96225900Y-127134207D01*
X96225900Y-127272193D01*
X96225900Y-127272195D01*
X96225899Y-127272195D01*
X96252818Y-127407522D01*
X96252821Y-127407532D01*
X96305621Y-127535004D01*
X96305628Y-127535017D01*
X96382285Y-127649741D01*
X96382288Y-127649745D01*
X96479854Y-127747311D01*
X96479858Y-127747314D01*
X96594582Y-127823971D01*
X96594595Y-127823978D01*
X96722067Y-127876778D01*
X96722072Y-127876780D01*
X96722076Y-127876780D01*
X96722077Y-127876781D01*
X96857404Y-127903700D01*
X96857407Y-127903700D01*
X96995395Y-127903700D01*
X97086441Y-127885589D01*
X97130728Y-127876780D01*
X97219965Y-127839817D01*
X97259948Y-127823256D01*
X97329417Y-127815787D01*
X97354852Y-127823256D01*
X97484067Y-127876778D01*
X97484072Y-127876780D01*
X97484076Y-127876780D01*
X97484077Y-127876781D01*
X97619404Y-127903700D01*
X97619407Y-127903700D01*
X97757395Y-127903700D01*
X97848441Y-127885589D01*
X97892728Y-127876780D01*
X98020211Y-127823975D01*
X98076710Y-127786223D01*
X98143385Y-127765346D01*
X98210766Y-127783830D01*
X98214460Y-127786203D01*
X98270989Y-127823975D01*
X98270991Y-127823976D01*
X98270995Y-127823978D01*
X98398467Y-127876778D01*
X98398472Y-127876780D01*
X98398476Y-127876780D01*
X98398477Y-127876781D01*
X98533804Y-127903700D01*
X98533807Y-127903700D01*
X98671795Y-127903700D01*
X98762841Y-127885589D01*
X98807128Y-127876780D01*
X98934611Y-127823975D01*
X99049342Y-127747314D01*
X99146914Y-127649742D01*
X99223575Y-127535011D01*
X99276380Y-127407528D01*
X99297038Y-127303673D01*
X99303300Y-127272195D01*
X99303300Y-127134204D01*
X99276381Y-126998877D01*
X99276379Y-126998870D01*
X99276378Y-126998867D01*
X99264939Y-126971250D01*
X99257470Y-126901785D01*
X99264938Y-126876350D01*
X99276380Y-126848728D01*
X99283090Y-126814995D01*
X113091499Y-126814995D01*
X113118418Y-126950322D01*
X113118421Y-126950332D01*
X113171221Y-127077804D01*
X113171228Y-127077817D01*
X113247885Y-127192541D01*
X113247888Y-127192545D01*
X113345454Y-127290111D01*
X113345458Y-127290114D01*
X113460182Y-127366771D01*
X113460195Y-127366778D01*
X113558585Y-127407532D01*
X113587672Y-127419580D01*
X113587676Y-127419580D01*
X113587677Y-127419581D01*
X113723004Y-127446500D01*
X113723007Y-127446500D01*
X113860995Y-127446500D01*
X113952041Y-127428389D01*
X113996328Y-127419580D01*
X114123811Y-127366775D01*
X114238542Y-127290114D01*
X114336114Y-127192542D01*
X114412775Y-127077811D01*
X114465580Y-126950328D01*
X114485789Y-126848732D01*
X114492500Y-126814995D01*
X114492500Y-126677004D01*
X114465581Y-126541677D01*
X114465580Y-126541676D01*
X114465580Y-126541672D01*
X114459963Y-126528111D01*
X114412778Y-126414195D01*
X114412771Y-126414182D01*
X114336114Y-126299458D01*
X114336111Y-126299454D01*
X114238545Y-126201888D01*
X114238541Y-126201885D01*
X114123817Y-126125228D01*
X114123804Y-126125221D01*
X113996332Y-126072421D01*
X113996322Y-126072418D01*
X113898675Y-126052995D01*
X115631499Y-126052995D01*
X115658418Y-126188322D01*
X115658421Y-126188332D01*
X115711221Y-126315804D01*
X115711228Y-126315817D01*
X115787885Y-126430541D01*
X115787888Y-126430545D01*
X115885454Y-126528111D01*
X115885458Y-126528114D01*
X116000182Y-126604771D01*
X116000195Y-126604778D01*
X116127667Y-126657578D01*
X116127672Y-126657580D01*
X116127676Y-126657580D01*
X116127677Y-126657581D01*
X116263004Y-126684500D01*
X116263007Y-126684500D01*
X116400995Y-126684500D01*
X116492041Y-126666389D01*
X116536328Y-126657580D01*
X116663811Y-126604775D01*
X116729332Y-126560995D01*
X118933499Y-126560995D01*
X118960419Y-126696326D01*
X118960422Y-126696335D01*
X118961342Y-126698557D01*
X118961476Y-126699813D01*
X118962189Y-126702161D01*
X118961743Y-126702296D01*
X118968805Y-126768027D01*
X118961342Y-126793443D01*
X118960422Y-126795664D01*
X118960419Y-126795673D01*
X118933500Y-126931004D01*
X118933500Y-126931007D01*
X118933500Y-127068993D01*
X118933500Y-127068995D01*
X118933499Y-127068995D01*
X118960419Y-127204326D01*
X118960422Y-127204335D01*
X118961342Y-127206557D01*
X118961476Y-127207813D01*
X118962189Y-127210161D01*
X118961743Y-127210296D01*
X118968805Y-127276027D01*
X118961342Y-127301443D01*
X118960422Y-127303664D01*
X118960419Y-127303673D01*
X118933500Y-127439004D01*
X118933500Y-127439007D01*
X118933500Y-127576993D01*
X118933500Y-127576995D01*
X118933499Y-127576995D01*
X118960418Y-127712322D01*
X118960421Y-127712332D01*
X119013221Y-127839804D01*
X119013228Y-127839817D01*
X119089885Y-127954541D01*
X119089888Y-127954545D01*
X119187454Y-128052111D01*
X119187458Y-128052114D01*
X119302182Y-128128771D01*
X119302195Y-128128778D01*
X119429667Y-128181578D01*
X119429672Y-128181580D01*
X119429676Y-128181580D01*
X119429677Y-128181581D01*
X119565004Y-128208500D01*
X119565007Y-128208500D01*
X119702995Y-128208500D01*
X119794041Y-128190389D01*
X119838328Y-128181580D01*
X119965811Y-128128775D01*
X120080542Y-128052114D01*
X120178114Y-127954542D01*
X120254775Y-127839811D01*
X120261335Y-127823975D01*
X120293088Y-127747314D01*
X120307580Y-127712328D01*
X120334500Y-127576993D01*
X120334500Y-127439007D01*
X120334500Y-127439004D01*
X120307581Y-127303678D01*
X120307580Y-127303672D01*
X120306662Y-127301457D01*
X120306527Y-127300204D01*
X120305812Y-127297845D01*
X120306259Y-127297709D01*
X120299190Y-127231992D01*
X120306660Y-127206548D01*
X120307580Y-127204328D01*
X120332746Y-127077811D01*
X120334500Y-127068995D01*
X120334500Y-126931004D01*
X120307581Y-126795678D01*
X120307580Y-126795672D01*
X120306662Y-126793457D01*
X120306527Y-126792204D01*
X120305812Y-126789845D01*
X120306259Y-126789709D01*
X120299190Y-126723992D01*
X120306660Y-126698548D01*
X120307580Y-126696328D01*
X120331633Y-126575407D01*
X120334500Y-126560995D01*
X120334500Y-126423004D01*
X120307581Y-126287677D01*
X120307580Y-126287676D01*
X120307580Y-126287672D01*
X120301963Y-126274111D01*
X120254778Y-126160195D01*
X120254771Y-126160182D01*
X120178114Y-126045458D01*
X120178111Y-126045454D01*
X120080545Y-125947888D01*
X120080541Y-125947885D01*
X119965817Y-125871228D01*
X119965804Y-125871221D01*
X119838332Y-125818421D01*
X119838322Y-125818418D01*
X119702995Y-125791500D01*
X119702993Y-125791500D01*
X119565007Y-125791500D01*
X119565005Y-125791500D01*
X119429677Y-125818418D01*
X119429667Y-125818421D01*
X119302195Y-125871221D01*
X119302182Y-125871228D01*
X119187458Y-125947885D01*
X119187454Y-125947888D01*
X119089888Y-126045454D01*
X119089885Y-126045458D01*
X119013228Y-126160182D01*
X119013221Y-126160195D01*
X118960421Y-126287667D01*
X118960418Y-126287677D01*
X118933500Y-126423004D01*
X118933500Y-126423007D01*
X118933500Y-126560993D01*
X118933500Y-126560995D01*
X118933499Y-126560995D01*
X116729332Y-126560995D01*
X116778542Y-126528114D01*
X116876114Y-126430542D01*
X116894129Y-126403581D01*
X116931251Y-126348024D01*
X116931251Y-126348023D01*
X116951613Y-126317550D01*
X116952770Y-126315819D01*
X116952771Y-126315816D01*
X116952775Y-126315811D01*
X117005580Y-126188328D01*
X117016915Y-126131339D01*
X117049298Y-126069431D01*
X117110014Y-126034856D01*
X117114283Y-126033926D01*
X117171328Y-126022580D01*
X117298811Y-125969775D01*
X117413542Y-125893114D01*
X117511114Y-125795542D01*
X117587775Y-125680811D01*
X117640580Y-125553328D01*
X117650199Y-125504968D01*
X117667500Y-125417995D01*
X117667500Y-125280004D01*
X117640581Y-125144677D01*
X117640580Y-125144676D01*
X117640580Y-125144672D01*
X117625899Y-125109228D01*
X117587778Y-125017195D01*
X117587771Y-125017182D01*
X117511114Y-124902458D01*
X117511111Y-124902454D01*
X117413545Y-124804888D01*
X117413541Y-124804885D01*
X117298817Y-124728228D01*
X117298804Y-124728221D01*
X117171332Y-124675421D01*
X117171322Y-124675418D01*
X117035995Y-124648500D01*
X117035993Y-124648500D01*
X116898007Y-124648500D01*
X116898005Y-124648500D01*
X116762677Y-124675418D01*
X116762667Y-124675421D01*
X116635192Y-124728223D01*
X116595711Y-124754603D01*
X116529033Y-124775480D01*
X116526821Y-124775500D01*
X116390005Y-124775500D01*
X116254677Y-124802418D01*
X116254667Y-124802421D01*
X116127195Y-124855221D01*
X116127182Y-124855228D01*
X116012458Y-124931885D01*
X116012454Y-124931888D01*
X115914888Y-125029454D01*
X115914885Y-125029458D01*
X115838228Y-125144182D01*
X115838221Y-125144195D01*
X115785421Y-125271667D01*
X115785418Y-125271677D01*
X115758500Y-125407004D01*
X115758500Y-125543821D01*
X115738815Y-125610860D01*
X115737603Y-125612711D01*
X115711223Y-125652192D01*
X115658421Y-125779667D01*
X115658418Y-125779677D01*
X115631500Y-125915004D01*
X115631500Y-125915007D01*
X115631500Y-126052993D01*
X115631500Y-126052995D01*
X115631499Y-126052995D01*
X113898675Y-126052995D01*
X113860995Y-126045500D01*
X113860993Y-126045500D01*
X113723007Y-126045500D01*
X113723005Y-126045500D01*
X113587677Y-126072418D01*
X113587667Y-126072421D01*
X113460195Y-126125221D01*
X113460182Y-126125228D01*
X113345458Y-126201885D01*
X113345454Y-126201888D01*
X113247888Y-126299454D01*
X113247885Y-126299458D01*
X113171228Y-126414182D01*
X113171221Y-126414195D01*
X113118421Y-126541667D01*
X113118418Y-126541677D01*
X113091500Y-126677004D01*
X113091500Y-126677007D01*
X113091500Y-126814993D01*
X113091500Y-126814995D01*
X113091499Y-126814995D01*
X99283090Y-126814995D01*
X99303300Y-126713393D01*
X99303300Y-126575407D01*
X99303300Y-126575404D01*
X99276381Y-126440077D01*
X99276379Y-126440070D01*
X99276378Y-126440067D01*
X99264939Y-126412450D01*
X99257470Y-126342985D01*
X99264938Y-126317550D01*
X99276380Y-126289928D01*
X99285189Y-126245641D01*
X99303300Y-126154595D01*
X99303300Y-126016604D01*
X99286691Y-125933107D01*
X99286691Y-125933106D01*
X99280905Y-125904023D01*
X99276380Y-125881272D01*
X99272220Y-125871228D01*
X99223578Y-125753795D01*
X99223571Y-125753782D01*
X99146914Y-125639058D01*
X99146911Y-125639054D01*
X99049345Y-125541488D01*
X99049341Y-125541485D01*
X98934617Y-125464828D01*
X98934604Y-125464821D01*
X98807132Y-125412021D01*
X98807122Y-125412018D01*
X98671795Y-125385100D01*
X98671793Y-125385100D01*
X98533807Y-125385100D01*
X98533805Y-125385100D01*
X98398477Y-125412018D01*
X98398467Y-125412021D01*
X98270995Y-125464821D01*
X98270982Y-125464828D01*
X98214491Y-125502575D01*
X98147813Y-125523453D01*
X98080433Y-125504968D01*
X98076709Y-125502575D01*
X98020217Y-125464828D01*
X98020204Y-125464821D01*
X97892732Y-125412021D01*
X97892722Y-125412018D01*
X97757395Y-125385100D01*
X97757393Y-125385100D01*
X97619407Y-125385100D01*
X97619405Y-125385100D01*
X97484077Y-125412018D01*
X97484067Y-125412021D01*
X97354852Y-125465543D01*
X97285382Y-125473012D01*
X97259948Y-125465543D01*
X97130732Y-125412021D01*
X97130722Y-125412018D01*
X96995395Y-125385100D01*
X96995393Y-125385100D01*
X96857407Y-125385100D01*
X96857405Y-125385100D01*
X96722077Y-125412018D01*
X96722067Y-125412021D01*
X96594595Y-125464821D01*
X96594582Y-125464828D01*
X96479858Y-125541485D01*
X96479854Y-125541488D01*
X96382288Y-125639054D01*
X96382285Y-125639058D01*
X96305628Y-125753782D01*
X96305621Y-125753795D01*
X96252821Y-125881267D01*
X96252818Y-125881277D01*
X96225900Y-126016604D01*
X96225900Y-126016607D01*
X96225900Y-126154593D01*
X96225900Y-126154595D01*
X96225899Y-126154595D01*
X95046779Y-126154595D01*
X95108775Y-126061811D01*
X95112428Y-126052993D01*
X95149678Y-125963063D01*
X95161578Y-125934332D01*
X95161580Y-125934328D01*
X95173636Y-125873721D01*
X95188500Y-125798995D01*
X95188500Y-125661004D01*
X95161581Y-125525677D01*
X95161580Y-125525676D01*
X95161580Y-125525672D01*
X95152013Y-125502575D01*
X95108778Y-125398195D01*
X95108771Y-125398182D01*
X95032114Y-125283458D01*
X95032111Y-125283454D01*
X94934545Y-125185888D01*
X94934541Y-125185885D01*
X94819817Y-125109228D01*
X94819804Y-125109221D01*
X94692332Y-125056421D01*
X94692322Y-125056418D01*
X94556995Y-125029500D01*
X94556993Y-125029500D01*
X94419007Y-125029500D01*
X94419005Y-125029500D01*
X94283677Y-125056418D01*
X94283667Y-125056421D01*
X94156195Y-125109221D01*
X94156182Y-125109228D01*
X94041458Y-125185885D01*
X94041454Y-125185888D01*
X93943888Y-125283454D01*
X93943885Y-125283458D01*
X93867228Y-125398182D01*
X93867221Y-125398195D01*
X93814421Y-125525667D01*
X93814418Y-125525677D01*
X93787500Y-125661004D01*
X93787500Y-125661007D01*
X93787500Y-125798993D01*
X93787500Y-125798995D01*
X93787499Y-125798995D01*
X87599607Y-125798995D01*
X87574495Y-125794000D01*
X87574493Y-125794000D01*
X87436507Y-125794000D01*
X87436505Y-125794000D01*
X87301177Y-125820918D01*
X87301167Y-125820921D01*
X87173695Y-125873721D01*
X87173682Y-125873728D01*
X87058958Y-125950385D01*
X87058954Y-125950388D01*
X86961388Y-126047954D01*
X86961385Y-126047958D01*
X86884728Y-126162682D01*
X86884721Y-126162695D01*
X86831921Y-126290167D01*
X86831918Y-126290177D01*
X86805000Y-126425504D01*
X86805000Y-126425507D01*
X86805000Y-126563493D01*
X86805000Y-126563495D01*
X86804999Y-126563495D01*
X81500500Y-126563495D01*
X81500500Y-123358166D01*
X82474500Y-123358166D01*
X82474500Y-123641833D01*
X82506258Y-123923690D01*
X82506260Y-123923702D01*
X82569380Y-124200253D01*
X82569383Y-124200261D01*
X82663067Y-124467993D01*
X82786139Y-124723554D01*
X82789073Y-124728223D01*
X82937056Y-124963737D01*
X83113914Y-125185510D01*
X83314490Y-125386086D01*
X83536263Y-125562944D01*
X83776443Y-125713859D01*
X84032010Y-125836934D01*
X84192555Y-125893111D01*
X84299738Y-125930616D01*
X84299746Y-125930619D01*
X84299749Y-125930619D01*
X84299750Y-125930620D01*
X84576297Y-125993740D01*
X84858166Y-126025499D01*
X84858167Y-126025500D01*
X84858171Y-126025500D01*
X85141833Y-126025500D01*
X85141833Y-126025499D01*
X85423703Y-125993740D01*
X85700250Y-125930620D01*
X85967990Y-125836934D01*
X86223557Y-125713859D01*
X86463737Y-125562944D01*
X86465266Y-125561724D01*
X86469980Y-125557966D01*
X86585874Y-125465543D01*
X86685510Y-125386086D01*
X86886086Y-125185510D01*
X87062944Y-124963737D01*
X87213859Y-124723557D01*
X87336934Y-124467990D01*
X87430620Y-124200250D01*
X87493740Y-123923703D01*
X87525500Y-123641829D01*
X87525500Y-123358171D01*
X87525499Y-123358166D01*
X124474500Y-123358166D01*
X124474500Y-123641833D01*
X124506258Y-123923690D01*
X124506260Y-123923702D01*
X124569380Y-124200253D01*
X124569383Y-124200261D01*
X124663067Y-124467993D01*
X124786139Y-124723554D01*
X124789073Y-124728223D01*
X124937056Y-124963737D01*
X125113914Y-125185510D01*
X125314490Y-125386086D01*
X125536263Y-125562944D01*
X125776443Y-125713859D01*
X126032010Y-125836934D01*
X126192555Y-125893111D01*
X126299738Y-125930616D01*
X126299746Y-125930619D01*
X126299749Y-125930619D01*
X126299750Y-125930620D01*
X126576297Y-125993740D01*
X126858166Y-126025499D01*
X126858167Y-126025500D01*
X126858171Y-126025500D01*
X127141833Y-126025500D01*
X127141833Y-126025499D01*
X127423703Y-125993740D01*
X127700250Y-125930620D01*
X127967990Y-125836934D01*
X128223557Y-125713859D01*
X128463737Y-125562944D01*
X128685510Y-125386086D01*
X128886086Y-125185510D01*
X129062944Y-124963737D01*
X129213859Y-124723557D01*
X129336934Y-124467990D01*
X129430620Y-124200250D01*
X129493740Y-123923703D01*
X129525500Y-123641829D01*
X129525500Y-123358171D01*
X129493740Y-123076297D01*
X129430620Y-122799750D01*
X129336934Y-122532010D01*
X129213859Y-122276443D01*
X129062944Y-122036263D01*
X128886086Y-121814490D01*
X128685510Y-121613914D01*
X128678085Y-121607993D01*
X128629187Y-121568998D01*
X128463737Y-121437056D01*
X128223557Y-121286141D01*
X128223554Y-121286139D01*
X127967993Y-121163067D01*
X127700261Y-121069383D01*
X127700253Y-121069380D01*
X127469772Y-121016775D01*
X127423703Y-121006260D01*
X127423699Y-121006259D01*
X127423690Y-121006258D01*
X127141833Y-120974500D01*
X127141829Y-120974500D01*
X126858171Y-120974500D01*
X126858167Y-120974500D01*
X126576309Y-121006258D01*
X126576297Y-121006260D01*
X126299746Y-121069380D01*
X126299738Y-121069383D01*
X126032006Y-121163067D01*
X125776445Y-121286139D01*
X125536264Y-121437055D01*
X125314490Y-121613913D01*
X125113913Y-121814490D01*
X124937055Y-122036264D01*
X124786139Y-122276445D01*
X124663067Y-122532006D01*
X124569383Y-122799738D01*
X124569380Y-122799746D01*
X124506260Y-123076297D01*
X124506258Y-123076309D01*
X124474500Y-123358166D01*
X87525499Y-123358166D01*
X87493740Y-123076297D01*
X87430620Y-122799750D01*
X87336934Y-122532010D01*
X87213859Y-122276443D01*
X87062944Y-122036263D01*
X86886086Y-121814490D01*
X86685510Y-121613914D01*
X86678085Y-121607993D01*
X86629187Y-121568998D01*
X86463737Y-121437056D01*
X86223557Y-121286141D01*
X86223554Y-121286139D01*
X85967993Y-121163067D01*
X85700261Y-121069383D01*
X85700253Y-121069380D01*
X85469772Y-121016775D01*
X85423703Y-121006260D01*
X85423699Y-121006259D01*
X85423690Y-121006258D01*
X85141833Y-120974500D01*
X85141829Y-120974500D01*
X84858171Y-120974500D01*
X84858167Y-120974500D01*
X84576309Y-121006258D01*
X84576297Y-121006260D01*
X84299746Y-121069380D01*
X84299738Y-121069383D01*
X84032006Y-121163067D01*
X83776445Y-121286139D01*
X83536264Y-121437055D01*
X83314490Y-121613913D01*
X83113913Y-121814490D01*
X82937055Y-122036264D01*
X82786139Y-122276445D01*
X82663067Y-122532006D01*
X82569383Y-122799738D01*
X82569380Y-122799746D01*
X82506260Y-123076297D01*
X82506258Y-123076309D01*
X82474500Y-123358166D01*
X81500500Y-123358166D01*
X81500500Y-117035995D01*
X83881499Y-117035995D01*
X83908418Y-117171322D01*
X83908421Y-117171332D01*
X83961221Y-117298804D01*
X83961228Y-117298817D01*
X84037885Y-117413541D01*
X84037888Y-117413545D01*
X84135454Y-117511111D01*
X84135458Y-117511114D01*
X84250182Y-117587771D01*
X84250195Y-117587778D01*
X84377667Y-117640578D01*
X84377672Y-117640580D01*
X84377676Y-117640580D01*
X84377677Y-117640581D01*
X84513004Y-117667500D01*
X84513007Y-117667500D01*
X84650995Y-117667500D01*
X84742113Y-117649375D01*
X84786328Y-117640580D01*
X84913811Y-117587775D01*
X84979332Y-117543995D01*
X87310499Y-117543995D01*
X87337418Y-117679322D01*
X87337421Y-117679332D01*
X87390221Y-117806804D01*
X87390228Y-117806817D01*
X87466885Y-117921541D01*
X87466888Y-117921545D01*
X87564454Y-118019111D01*
X87564458Y-118019114D01*
X87679182Y-118095771D01*
X87679195Y-118095778D01*
X87806667Y-118148578D01*
X87806672Y-118148580D01*
X87806676Y-118148580D01*
X87806677Y-118148581D01*
X87942004Y-118175500D01*
X87942007Y-118175500D01*
X88079995Y-118175500D01*
X88132101Y-118165135D01*
X88740500Y-118165135D01*
X88740500Y-119610870D01*
X88740501Y-119610876D01*
X88746908Y-119670483D01*
X88797202Y-119805328D01*
X88797206Y-119805335D01*
X88883452Y-119920544D01*
X88883455Y-119920547D01*
X88968938Y-119984540D01*
X89010809Y-120040473D01*
X89015793Y-120110165D01*
X88994946Y-120156690D01*
X88911051Y-120272163D01*
X88827084Y-120436956D01*
X88827083Y-120436959D01*
X88769933Y-120612852D01*
X88741000Y-120795526D01*
X88741000Y-120980473D01*
X88769933Y-121163147D01*
X88827083Y-121339040D01*
X88827084Y-121339043D01*
X88911050Y-121503834D01*
X88926015Y-121524430D01*
X89516000Y-120934445D01*
X89516000Y-120940661D01*
X89543259Y-121042394D01*
X89595920Y-121133606D01*
X89670394Y-121208080D01*
X89761606Y-121260741D01*
X89863339Y-121288000D01*
X89869553Y-121288000D01*
X89279568Y-121877983D01*
X89279568Y-121877984D01*
X89300165Y-121892949D01*
X89464956Y-121976915D01*
X89464959Y-121976916D01*
X89640852Y-122034066D01*
X89823527Y-122063000D01*
X90008473Y-122063000D01*
X90191147Y-122034066D01*
X90367040Y-121976916D01*
X90367043Y-121976915D01*
X90531836Y-121892947D01*
X90531845Y-121892942D01*
X90552430Y-121877984D01*
X90552431Y-121877983D01*
X89962448Y-121288000D01*
X89968661Y-121288000D01*
X90070394Y-121260741D01*
X90161606Y-121208080D01*
X90236080Y-121133606D01*
X90288741Y-121042394D01*
X90316000Y-120940661D01*
X90316000Y-120934447D01*
X90905983Y-121524430D01*
X90905984Y-121524430D01*
X90920942Y-121503845D01*
X90920947Y-121503836D01*
X91004915Y-121339043D01*
X91004916Y-121339040D01*
X91062066Y-121163147D01*
X91091000Y-120980473D01*
X91091000Y-120972995D01*
X96073499Y-120972995D01*
X96100418Y-121108322D01*
X96100419Y-121108323D01*
X96100420Y-121108328D01*
X96123127Y-121163147D01*
X96127642Y-121174048D01*
X96135110Y-121243518D01*
X96127642Y-121268951D01*
X96100420Y-121334672D01*
X96100419Y-121334675D01*
X96100419Y-121334676D01*
X96100418Y-121334677D01*
X96073500Y-121470004D01*
X96073500Y-121470007D01*
X96073500Y-121607993D01*
X96073500Y-121607995D01*
X96073499Y-121607995D01*
X96100418Y-121743322D01*
X96100419Y-121743323D01*
X96100420Y-121743328D01*
X96127641Y-121809046D01*
X96127642Y-121809048D01*
X96135110Y-121878518D01*
X96127642Y-121903951D01*
X96100420Y-121969672D01*
X96100419Y-121969675D01*
X96100419Y-121969676D01*
X96100418Y-121969677D01*
X96073500Y-122105004D01*
X96073500Y-122105007D01*
X96073500Y-122242993D01*
X96073500Y-122242995D01*
X96073499Y-122242995D01*
X96100418Y-122378322D01*
X96100421Y-122378332D01*
X96153221Y-122505804D01*
X96153228Y-122505817D01*
X96229885Y-122620541D01*
X96229888Y-122620545D01*
X96327454Y-122718111D01*
X96327458Y-122718114D01*
X96442182Y-122794771D01*
X96442195Y-122794778D01*
X96569667Y-122847578D01*
X96569672Y-122847580D01*
X96569676Y-122847580D01*
X96569677Y-122847581D01*
X96705004Y-122874500D01*
X96705007Y-122874500D01*
X96842995Y-122874500D01*
X96934041Y-122856389D01*
X96978328Y-122847580D01*
X97105811Y-122794775D01*
X97149609Y-122765509D01*
X97216285Y-122744631D01*
X97283666Y-122763115D01*
X97287370Y-122765496D01*
X97331189Y-122794775D01*
X97331191Y-122794776D01*
X97331193Y-122794777D01*
X97458667Y-122847578D01*
X97458672Y-122847580D01*
X97458676Y-122847580D01*
X97458677Y-122847581D01*
X97594004Y-122874500D01*
X97594007Y-122874500D01*
X97731995Y-122874500D01*
X97823041Y-122856389D01*
X97867328Y-122847580D01*
X97994811Y-122794775D01*
X98038609Y-122765509D01*
X98105285Y-122744631D01*
X98172666Y-122763115D01*
X98176370Y-122765496D01*
X98220189Y-122794775D01*
X98220191Y-122794776D01*
X98220193Y-122794777D01*
X98347667Y-122847578D01*
X98347672Y-122847580D01*
X98347676Y-122847580D01*
X98347677Y-122847581D01*
X98483004Y-122874500D01*
X98483007Y-122874500D01*
X98620995Y-122874500D01*
X98712041Y-122856389D01*
X98756328Y-122847580D01*
X98883811Y-122794775D01*
X98998542Y-122718114D01*
X99096114Y-122620542D01*
X99172775Y-122505811D01*
X99225580Y-122378328D01*
X99245846Y-122276445D01*
X99252500Y-122242995D01*
X99252500Y-122105004D01*
X99225581Y-121969677D01*
X99225578Y-121969666D01*
X99209791Y-121931556D01*
X99198357Y-121903952D01*
X99190888Y-121834485D01*
X99198357Y-121809048D01*
X99225580Y-121743328D01*
X99249957Y-121620778D01*
X99252500Y-121607995D01*
X99252500Y-121470004D01*
X99225581Y-121334677D01*
X99225578Y-121334666D01*
X99209791Y-121296556D01*
X99198357Y-121268952D01*
X99190888Y-121199485D01*
X99198357Y-121174048D01*
X99225580Y-121108328D01*
X99250809Y-120981495D01*
X99252500Y-120972995D01*
X99252500Y-120835004D01*
X99225581Y-120699677D01*
X99225580Y-120699676D01*
X99225580Y-120699672D01*
X99212542Y-120668195D01*
X99172778Y-120572195D01*
X99172771Y-120572182D01*
X99096114Y-120457458D01*
X99096111Y-120457454D01*
X98998545Y-120359888D01*
X98998541Y-120359885D01*
X98883817Y-120283228D01*
X98883804Y-120283221D01*
X98756332Y-120230421D01*
X98756322Y-120230418D01*
X98620995Y-120203500D01*
X98620993Y-120203500D01*
X98483007Y-120203500D01*
X98483005Y-120203500D01*
X98347677Y-120230418D01*
X98347667Y-120230421D01*
X98220191Y-120283223D01*
X98176391Y-120312490D01*
X98109713Y-120333368D01*
X98042333Y-120314884D01*
X98038609Y-120312490D01*
X97994808Y-120283223D01*
X97867332Y-120230421D01*
X97867322Y-120230418D01*
X97731995Y-120203500D01*
X97731993Y-120203500D01*
X97594007Y-120203500D01*
X97594005Y-120203500D01*
X97458677Y-120230418D01*
X97458667Y-120230421D01*
X97331191Y-120283223D01*
X97287391Y-120312490D01*
X97220713Y-120333368D01*
X97153333Y-120314884D01*
X97149609Y-120312490D01*
X97105808Y-120283223D01*
X96978332Y-120230421D01*
X96978322Y-120230418D01*
X96842995Y-120203500D01*
X96842993Y-120203500D01*
X96705007Y-120203500D01*
X96705005Y-120203500D01*
X96569677Y-120230418D01*
X96569667Y-120230421D01*
X96442195Y-120283221D01*
X96442182Y-120283228D01*
X96327458Y-120359885D01*
X96327454Y-120359888D01*
X96229888Y-120457454D01*
X96229885Y-120457458D01*
X96153228Y-120572182D01*
X96153221Y-120572195D01*
X96100421Y-120699667D01*
X96100418Y-120699677D01*
X96073500Y-120835004D01*
X96073500Y-120835007D01*
X96073500Y-120972993D01*
X96073500Y-120972995D01*
X96073499Y-120972995D01*
X91091000Y-120972995D01*
X91091000Y-120795526D01*
X91062066Y-120612852D01*
X91004916Y-120436959D01*
X91004915Y-120436956D01*
X90920947Y-120272161D01*
X90837054Y-120156691D01*
X90813574Y-120090884D01*
X90829400Y-120022831D01*
X90863058Y-119984542D01*
X90899856Y-119956995D01*
X91882499Y-119956995D01*
X91909418Y-120092322D01*
X91909421Y-120092332D01*
X91962221Y-120219804D01*
X91962228Y-120219817D01*
X92038885Y-120334541D01*
X92038888Y-120334545D01*
X92136454Y-120432111D01*
X92136458Y-120432114D01*
X92251182Y-120508771D01*
X92251195Y-120508778D01*
X92378667Y-120561578D01*
X92378672Y-120561580D01*
X92378676Y-120561580D01*
X92378677Y-120561581D01*
X92514004Y-120588500D01*
X92514007Y-120588500D01*
X92651995Y-120588500D01*
X92755455Y-120567920D01*
X92787328Y-120561580D01*
X92914811Y-120508775D01*
X93029542Y-120432114D01*
X93127114Y-120334542D01*
X93203775Y-120219811D01*
X93256580Y-120092328D01*
X93266895Y-120040473D01*
X93283500Y-119956995D01*
X93283500Y-119829995D01*
X103566499Y-119829995D01*
X103593418Y-119965322D01*
X103593419Y-119965323D01*
X103593420Y-119965328D01*
X103620641Y-120031046D01*
X103620642Y-120031048D01*
X103628110Y-120100518D01*
X103620642Y-120125951D01*
X103593420Y-120191672D01*
X103593419Y-120191675D01*
X103593419Y-120191676D01*
X103593418Y-120191677D01*
X103566500Y-120327004D01*
X103566500Y-120327007D01*
X103566500Y-120464993D01*
X103566500Y-120464995D01*
X103566499Y-120464995D01*
X103593418Y-120600322D01*
X103593421Y-120600332D01*
X103646221Y-120727804D01*
X103646228Y-120727817D01*
X103722885Y-120842541D01*
X103722888Y-120842545D01*
X103820454Y-120940111D01*
X103820458Y-120940114D01*
X103935182Y-121016771D01*
X103935195Y-121016778D01*
X104062189Y-121069380D01*
X104062672Y-121069580D01*
X104062676Y-121069580D01*
X104062677Y-121069581D01*
X104198004Y-121096500D01*
X104198007Y-121096500D01*
X104335995Y-121096500D01*
X104427041Y-121078389D01*
X104471328Y-121069580D01*
X104537047Y-121042357D01*
X104606515Y-121034888D01*
X104631951Y-121042357D01*
X104659556Y-121053791D01*
X104697666Y-121069578D01*
X104697669Y-121069578D01*
X104697672Y-121069580D01*
X104697676Y-121069580D01*
X104697677Y-121069581D01*
X104833004Y-121096500D01*
X104833007Y-121096500D01*
X104970995Y-121096500D01*
X105062041Y-121078389D01*
X105106328Y-121069580D01*
X105107740Y-121068995D01*
X119299499Y-121068995D01*
X119326418Y-121204322D01*
X119326421Y-121204332D01*
X119379221Y-121331804D01*
X119379228Y-121331817D01*
X119455885Y-121446541D01*
X119455888Y-121446545D01*
X119553454Y-121544111D01*
X119553458Y-121544114D01*
X119668182Y-121620771D01*
X119668195Y-121620778D01*
X119795667Y-121673578D01*
X119795672Y-121673580D01*
X119795676Y-121673580D01*
X119795677Y-121673581D01*
X119931004Y-121700500D01*
X119931007Y-121700500D01*
X120068995Y-121700500D01*
X120160041Y-121682389D01*
X120204328Y-121673580D01*
X120331811Y-121620775D01*
X120446542Y-121544114D01*
X120544114Y-121446542D01*
X120620775Y-121331811D01*
X120673580Y-121204328D01*
X120692677Y-121108322D01*
X120700500Y-121068995D01*
X120700500Y-120981495D01*
X121799499Y-120981495D01*
X121826418Y-121116822D01*
X121826421Y-121116832D01*
X121879221Y-121244304D01*
X121879228Y-121244317D01*
X121955885Y-121359041D01*
X121955888Y-121359045D01*
X122053454Y-121456611D01*
X122053458Y-121456614D01*
X122168182Y-121533271D01*
X122168195Y-121533278D01*
X122295667Y-121586078D01*
X122295672Y-121586080D01*
X122295676Y-121586080D01*
X122295677Y-121586081D01*
X122431004Y-121613000D01*
X122431007Y-121613000D01*
X122568995Y-121613000D01*
X122660041Y-121594889D01*
X122704328Y-121586080D01*
X122805643Y-121544114D01*
X122831804Y-121533278D01*
X122831804Y-121533277D01*
X122831811Y-121533275D01*
X122946542Y-121456614D01*
X123044114Y-121359042D01*
X123120775Y-121244311D01*
X123121104Y-121243518D01*
X123149879Y-121174048D01*
X123173580Y-121116828D01*
X123192303Y-121022702D01*
X123200500Y-120981495D01*
X123200500Y-120843504D01*
X123173581Y-120708177D01*
X123173580Y-120708176D01*
X123173580Y-120708172D01*
X123146334Y-120642394D01*
X123120778Y-120580695D01*
X123120771Y-120580682D01*
X123044114Y-120465958D01*
X123044111Y-120465954D01*
X122946545Y-120368388D01*
X122946541Y-120368385D01*
X122831817Y-120291728D01*
X122831804Y-120291721D01*
X122704332Y-120238921D01*
X122704322Y-120238918D01*
X122568995Y-120212000D01*
X122568993Y-120212000D01*
X122431007Y-120212000D01*
X122431005Y-120212000D01*
X122295677Y-120238918D01*
X122295667Y-120238921D01*
X122168195Y-120291721D01*
X122168182Y-120291728D01*
X122053458Y-120368385D01*
X122053454Y-120368388D01*
X121955888Y-120465954D01*
X121955885Y-120465958D01*
X121879228Y-120580682D01*
X121879221Y-120580695D01*
X121826421Y-120708167D01*
X121826418Y-120708177D01*
X121799500Y-120843504D01*
X121799500Y-120843507D01*
X121799500Y-120981493D01*
X121799500Y-120981495D01*
X121799499Y-120981495D01*
X120700500Y-120981495D01*
X120700500Y-120931004D01*
X120700499Y-120931002D01*
X120686696Y-120861606D01*
X120673581Y-120795677D01*
X120673580Y-120795676D01*
X120673580Y-120795672D01*
X120645471Y-120727811D01*
X120620778Y-120668195D01*
X120620771Y-120668182D01*
X120544114Y-120553458D01*
X120544111Y-120553454D01*
X120446545Y-120455888D01*
X120446541Y-120455885D01*
X120331817Y-120379228D01*
X120331804Y-120379221D01*
X120204332Y-120326421D01*
X120204322Y-120326418D01*
X120068995Y-120299500D01*
X120068993Y-120299500D01*
X119931007Y-120299500D01*
X119931005Y-120299500D01*
X119795677Y-120326418D01*
X119795667Y-120326421D01*
X119668195Y-120379221D01*
X119668182Y-120379228D01*
X119553458Y-120455885D01*
X119553454Y-120455888D01*
X119455888Y-120553454D01*
X119455885Y-120553458D01*
X119379228Y-120668182D01*
X119379221Y-120668195D01*
X119326421Y-120795667D01*
X119326418Y-120795677D01*
X119299500Y-120931004D01*
X119299500Y-120931007D01*
X119299500Y-121068993D01*
X119299500Y-121068995D01*
X119299499Y-121068995D01*
X105107740Y-121068995D01*
X105233811Y-121016775D01*
X105348542Y-120940114D01*
X105446114Y-120842542D01*
X105522775Y-120727811D01*
X105575580Y-120600328D01*
X105584904Y-120553454D01*
X105602500Y-120464995D01*
X105602500Y-120327004D01*
X105575581Y-120191677D01*
X105575578Y-120191666D01*
X105548358Y-120125954D01*
X105540888Y-120056485D01*
X105548357Y-120031048D01*
X105575580Y-119965328D01*
X105602500Y-119829993D01*
X105602500Y-119692007D01*
X105602500Y-119692004D01*
X105575581Y-119556677D01*
X105575580Y-119556676D01*
X105575580Y-119556672D01*
X105527857Y-119441458D01*
X105522778Y-119429195D01*
X105522771Y-119429182D01*
X105446114Y-119314458D01*
X105446111Y-119314454D01*
X105348545Y-119216888D01*
X105348541Y-119216885D01*
X105233817Y-119140228D01*
X105233804Y-119140221D01*
X105106332Y-119087421D01*
X105106322Y-119087418D01*
X104970995Y-119060500D01*
X104970993Y-119060500D01*
X104833007Y-119060500D01*
X104833005Y-119060500D01*
X104697677Y-119087418D01*
X104697676Y-119087419D01*
X104697675Y-119087419D01*
X104697672Y-119087420D01*
X104631952Y-119114642D01*
X104562482Y-119122110D01*
X104537048Y-119114642D01*
X104471328Y-119087420D01*
X104471323Y-119087419D01*
X104471322Y-119087418D01*
X104335995Y-119060500D01*
X104335993Y-119060500D01*
X104198007Y-119060500D01*
X104198005Y-119060500D01*
X104062677Y-119087418D01*
X104062667Y-119087421D01*
X103935195Y-119140221D01*
X103935182Y-119140228D01*
X103820458Y-119216885D01*
X103820454Y-119216888D01*
X103722888Y-119314454D01*
X103722885Y-119314458D01*
X103646228Y-119429182D01*
X103646221Y-119429195D01*
X103593421Y-119556667D01*
X103593418Y-119556677D01*
X103566500Y-119692004D01*
X103566500Y-119692007D01*
X103566500Y-119829993D01*
X103566500Y-119829995D01*
X103566499Y-119829995D01*
X93283500Y-119829995D01*
X93283500Y-119819004D01*
X93283499Y-119819002D01*
X93261839Y-119710106D01*
X93256581Y-119683676D01*
X93256578Y-119683667D01*
X93203778Y-119556195D01*
X93203771Y-119556182D01*
X93127114Y-119441458D01*
X93127111Y-119441454D01*
X93029545Y-119343888D01*
X93029541Y-119343885D01*
X92914817Y-119267228D01*
X92914804Y-119267221D01*
X92787332Y-119214421D01*
X92787322Y-119214418D01*
X92651995Y-119187500D01*
X92651993Y-119187500D01*
X92514007Y-119187500D01*
X92514005Y-119187500D01*
X92378677Y-119214418D01*
X92378667Y-119214421D01*
X92251195Y-119267221D01*
X92251182Y-119267228D01*
X92136458Y-119343885D01*
X92136454Y-119343888D01*
X92038888Y-119441454D01*
X92038885Y-119441458D01*
X91962228Y-119556182D01*
X91962221Y-119556195D01*
X91909421Y-119683667D01*
X91909418Y-119683677D01*
X91882500Y-119819004D01*
X91882500Y-119819007D01*
X91882500Y-119956993D01*
X91882500Y-119956995D01*
X91882499Y-119956995D01*
X90899856Y-119956995D01*
X90948546Y-119920546D01*
X91034796Y-119805331D01*
X91085091Y-119670483D01*
X91091500Y-119610873D01*
X91091499Y-118559995D01*
X112202499Y-118559995D01*
X112229418Y-118695322D01*
X112229421Y-118695332D01*
X112282221Y-118822804D01*
X112282228Y-118822817D01*
X112358885Y-118937541D01*
X112358888Y-118937545D01*
X112456454Y-119035111D01*
X112456458Y-119035114D01*
X112571182Y-119111771D01*
X112571195Y-119111778D01*
X112698667Y-119164578D01*
X112698672Y-119164580D01*
X112698676Y-119164580D01*
X112698677Y-119164581D01*
X112834004Y-119191500D01*
X112834007Y-119191500D01*
X112971995Y-119191500D01*
X113063041Y-119173389D01*
X113107328Y-119164580D01*
X113209860Y-119122110D01*
X113234804Y-119111778D01*
X113234804Y-119111777D01*
X113234811Y-119111775D01*
X113349542Y-119035114D01*
X113447114Y-118937542D01*
X113523775Y-118822811D01*
X113576580Y-118695328D01*
X113603500Y-118559993D01*
X113603500Y-118422007D01*
X113603500Y-118422004D01*
X113576581Y-118286677D01*
X113576580Y-118286676D01*
X113576580Y-118286672D01*
X113576578Y-118286667D01*
X113523778Y-118159195D01*
X113523771Y-118159182D01*
X113447114Y-118044458D01*
X113447111Y-118044454D01*
X113349545Y-117946888D01*
X113349541Y-117946885D01*
X113234817Y-117870228D01*
X113234804Y-117870221D01*
X113107332Y-117817421D01*
X113107322Y-117817418D01*
X112971995Y-117790500D01*
X112971993Y-117790500D01*
X112834007Y-117790500D01*
X112834005Y-117790500D01*
X112698677Y-117817418D01*
X112698667Y-117817421D01*
X112571195Y-117870221D01*
X112571182Y-117870228D01*
X112456458Y-117946885D01*
X112456454Y-117946888D01*
X112358888Y-118044454D01*
X112358885Y-118044458D01*
X112282228Y-118159182D01*
X112282221Y-118159195D01*
X112229421Y-118286667D01*
X112229418Y-118286677D01*
X112202500Y-118422004D01*
X112202500Y-118422007D01*
X112202500Y-118559993D01*
X112202500Y-118559995D01*
X112202499Y-118559995D01*
X91091499Y-118559995D01*
X91091499Y-118165128D01*
X91085091Y-118105517D01*
X91081457Y-118095775D01*
X91034797Y-117970671D01*
X91034793Y-117970664D01*
X90948547Y-117855455D01*
X90948544Y-117855452D01*
X90833335Y-117769206D01*
X90833328Y-117769202D01*
X90698482Y-117718908D01*
X90698483Y-117718908D01*
X90638883Y-117712501D01*
X90638881Y-117712500D01*
X90638873Y-117712500D01*
X90638864Y-117712500D01*
X89193129Y-117712500D01*
X89193123Y-117712501D01*
X89133516Y-117718908D01*
X88998671Y-117769202D01*
X88998664Y-117769206D01*
X88883455Y-117855452D01*
X88870730Y-117872450D01*
X88870727Y-117872454D01*
X88797204Y-117970669D01*
X88769007Y-118046268D01*
X88769000Y-118046281D01*
X88746909Y-118105514D01*
X88746908Y-118105516D01*
X88742279Y-118148578D01*
X88740501Y-118165123D01*
X88740500Y-118165135D01*
X88132101Y-118165135D01*
X88171041Y-118157389D01*
X88215328Y-118148580D01*
X88342811Y-118095775D01*
X88457542Y-118019114D01*
X88555114Y-117921542D01*
X88631775Y-117806811D01*
X88684580Y-117679328D01*
X88711500Y-117543993D01*
X88711500Y-117406007D01*
X88711500Y-117406004D01*
X88684581Y-117270677D01*
X88684580Y-117270676D01*
X88684580Y-117270672D01*
X88684578Y-117270667D01*
X88639979Y-117162995D01*
X115250499Y-117162995D01*
X115277418Y-117298322D01*
X115277421Y-117298332D01*
X115330221Y-117425804D01*
X115330228Y-117425817D01*
X115406885Y-117540541D01*
X115406888Y-117540545D01*
X115504454Y-117638111D01*
X115504458Y-117638114D01*
X115619182Y-117714771D01*
X115619189Y-117714775D01*
X115626874Y-117717958D01*
X115681278Y-117761798D01*
X115703344Y-117828092D01*
X115686066Y-117895792D01*
X115648316Y-117935620D01*
X115631463Y-117946881D01*
X115631454Y-117946888D01*
X115533888Y-118044454D01*
X115533885Y-118044458D01*
X115457228Y-118159182D01*
X115457221Y-118159195D01*
X115404421Y-118286667D01*
X115404418Y-118286677D01*
X115377500Y-118422004D01*
X115377500Y-118422007D01*
X115377500Y-118559993D01*
X115377500Y-118559995D01*
X115377499Y-118559995D01*
X115404418Y-118695322D01*
X115404421Y-118695332D01*
X115457221Y-118822804D01*
X115457228Y-118822817D01*
X115533885Y-118937541D01*
X115533888Y-118937545D01*
X115631454Y-119035111D01*
X115631458Y-119035114D01*
X115746182Y-119111771D01*
X115746195Y-119111778D01*
X115873667Y-119164578D01*
X115873672Y-119164580D01*
X115873676Y-119164580D01*
X115873677Y-119164581D01*
X116009004Y-119191500D01*
X116009007Y-119191500D01*
X116146995Y-119191500D01*
X116238041Y-119173389D01*
X116282328Y-119164580D01*
X116384860Y-119122110D01*
X116409804Y-119111778D01*
X116409804Y-119111777D01*
X116409811Y-119111775D01*
X116524542Y-119035114D01*
X116622114Y-118937542D01*
X116698775Y-118822811D01*
X116751580Y-118695328D01*
X116778500Y-118559993D01*
X116778500Y-118422007D01*
X116778500Y-118422004D01*
X116751581Y-118286677D01*
X116751580Y-118286676D01*
X116751580Y-118286672D01*
X116751578Y-118286667D01*
X116698778Y-118159195D01*
X116698771Y-118159182D01*
X116622114Y-118044458D01*
X116622111Y-118044454D01*
X116524545Y-117946888D01*
X116524541Y-117946885D01*
X116409817Y-117870228D01*
X116409805Y-117870222D01*
X116402121Y-117867039D01*
X116347718Y-117823197D01*
X116325655Y-117756902D01*
X116342936Y-117689203D01*
X116380686Y-117649376D01*
X116397542Y-117638114D01*
X116495114Y-117540542D01*
X116571775Y-117425811D01*
X116624580Y-117298328D01*
X116638251Y-117229600D01*
X116670635Y-117167689D01*
X116731351Y-117133115D01*
X116801120Y-117136854D01*
X116857793Y-117177720D01*
X116862970Y-117184900D01*
X116930885Y-117286541D01*
X116930888Y-117286545D01*
X117028454Y-117384111D01*
X117028458Y-117384114D01*
X117143182Y-117460771D01*
X117143195Y-117460778D01*
X117270667Y-117513578D01*
X117270672Y-117513580D01*
X117270676Y-117513580D01*
X117270677Y-117513581D01*
X117406004Y-117540500D01*
X117406007Y-117540500D01*
X117543995Y-117540500D01*
X117635041Y-117522389D01*
X117679328Y-117513580D01*
X117806811Y-117460775D01*
X117921542Y-117384114D01*
X118019114Y-117286542D01*
X118095775Y-117171811D01*
X118095974Y-117171332D01*
X118120517Y-117112078D01*
X118148580Y-117044328D01*
X118171145Y-116930886D01*
X118175500Y-116908995D01*
X118175500Y-116771004D01*
X118148581Y-116635677D01*
X118148580Y-116635676D01*
X118148580Y-116635672D01*
X118148377Y-116635182D01*
X118095778Y-116508195D01*
X118095771Y-116508182D01*
X118019114Y-116393458D01*
X118019111Y-116393454D01*
X117921545Y-116295888D01*
X117921541Y-116295885D01*
X117806817Y-116219228D01*
X117806804Y-116219221D01*
X117679332Y-116166421D01*
X117679322Y-116166418D01*
X117543995Y-116139500D01*
X117543993Y-116139500D01*
X117406007Y-116139500D01*
X117406005Y-116139500D01*
X117270677Y-116166418D01*
X117270667Y-116166421D01*
X117143195Y-116219221D01*
X117143182Y-116219228D01*
X117028458Y-116295885D01*
X117028454Y-116295888D01*
X116930888Y-116393454D01*
X116930885Y-116393458D01*
X116854228Y-116508182D01*
X116854221Y-116508195D01*
X116801421Y-116635667D01*
X116801419Y-116635676D01*
X116787748Y-116704401D01*
X116755362Y-116766311D01*
X116694646Y-116800885D01*
X116624877Y-116797144D01*
X116568205Y-116756277D01*
X116563029Y-116749099D01*
X116495114Y-116647458D01*
X116495111Y-116647454D01*
X116397545Y-116549888D01*
X116397541Y-116549885D01*
X116282817Y-116473228D01*
X116282804Y-116473221D01*
X116155332Y-116420421D01*
X116155322Y-116420418D01*
X116019995Y-116393500D01*
X116019993Y-116393500D01*
X115882007Y-116393500D01*
X115882005Y-116393500D01*
X115746677Y-116420418D01*
X115746667Y-116420421D01*
X115619195Y-116473221D01*
X115619182Y-116473228D01*
X115504458Y-116549885D01*
X115504454Y-116549888D01*
X115406888Y-116647454D01*
X115406885Y-116647458D01*
X115330228Y-116762182D01*
X115330221Y-116762195D01*
X115277421Y-116889667D01*
X115277418Y-116889677D01*
X115250500Y-117025004D01*
X115250500Y-117025007D01*
X115250500Y-117162993D01*
X115250500Y-117162995D01*
X115250499Y-117162995D01*
X88639979Y-117162995D01*
X88631778Y-117143195D01*
X88631771Y-117143182D01*
X88555114Y-117028458D01*
X88555111Y-117028454D01*
X88457545Y-116930888D01*
X88457541Y-116930885D01*
X88342817Y-116854228D01*
X88342804Y-116854221D01*
X88215332Y-116801421D01*
X88215322Y-116801418D01*
X88079995Y-116774500D01*
X88079993Y-116774500D01*
X87942007Y-116774500D01*
X87942005Y-116774500D01*
X87806677Y-116801418D01*
X87806667Y-116801421D01*
X87679195Y-116854221D01*
X87679182Y-116854228D01*
X87564458Y-116930885D01*
X87564454Y-116930888D01*
X87466888Y-117028454D01*
X87466885Y-117028458D01*
X87390228Y-117143182D01*
X87390221Y-117143195D01*
X87337421Y-117270667D01*
X87337418Y-117270677D01*
X87310500Y-117406004D01*
X87310500Y-117406007D01*
X87310500Y-117543993D01*
X87310500Y-117543995D01*
X87310499Y-117543995D01*
X84979332Y-117543995D01*
X85028542Y-117511114D01*
X85126114Y-117413542D01*
X85202775Y-117298811D01*
X85202974Y-117298332D01*
X85255380Y-117171811D01*
X85255580Y-117171328D01*
X85267366Y-117112078D01*
X85282500Y-117035995D01*
X85282500Y-116898004D01*
X85255581Y-116762677D01*
X85255580Y-116762676D01*
X85255580Y-116762672D01*
X85249958Y-116749099D01*
X85202778Y-116635195D01*
X85202771Y-116635182D01*
X85126114Y-116520458D01*
X85126111Y-116520454D01*
X85028545Y-116422888D01*
X85028541Y-116422885D01*
X84995781Y-116400995D01*
X96962499Y-116400995D01*
X96989418Y-116536322D01*
X96989421Y-116536332D01*
X97042221Y-116663804D01*
X97042228Y-116663817D01*
X97118885Y-116778541D01*
X97118888Y-116778545D01*
X97216454Y-116876111D01*
X97216458Y-116876114D01*
X97331182Y-116952771D01*
X97331195Y-116952778D01*
X97458667Y-117005578D01*
X97458672Y-117005580D01*
X97458676Y-117005580D01*
X97458677Y-117005581D01*
X97594004Y-117032500D01*
X97594007Y-117032500D01*
X97731995Y-117032500D01*
X97823041Y-117014389D01*
X97867328Y-117005580D01*
X97994811Y-116952775D01*
X98109542Y-116876114D01*
X98207114Y-116778542D01*
X98283775Y-116663811D01*
X98336580Y-116536328D01*
X98342315Y-116507495D01*
X113121099Y-116507495D01*
X113148018Y-116642822D01*
X113148021Y-116642832D01*
X113200821Y-116770304D01*
X113200828Y-116770317D01*
X113277485Y-116885041D01*
X113277488Y-116885045D01*
X113375054Y-116982611D01*
X113375058Y-116982614D01*
X113489782Y-117059271D01*
X113489795Y-117059278D01*
X113617267Y-117112078D01*
X113617272Y-117112080D01*
X113617276Y-117112080D01*
X113617277Y-117112081D01*
X113752604Y-117139000D01*
X113752607Y-117139000D01*
X113890595Y-117139000D01*
X113981641Y-117120889D01*
X114025928Y-117112080D01*
X114153411Y-117059275D01*
X114268142Y-116982614D01*
X114268145Y-116982611D01*
X114319523Y-116931234D01*
X114365711Y-116885045D01*
X114365714Y-116885042D01*
X114442375Y-116770311D01*
X114495180Y-116642828D01*
X114513667Y-116549888D01*
X114522100Y-116507495D01*
X114522100Y-116369504D01*
X114495181Y-116234177D01*
X114495180Y-116234176D01*
X114495180Y-116234172D01*
X114467117Y-116166421D01*
X114442378Y-116106695D01*
X114442371Y-116106682D01*
X114365714Y-115991958D01*
X114365711Y-115991954D01*
X114268145Y-115894388D01*
X114268141Y-115894385D01*
X114153417Y-115817728D01*
X114153404Y-115817721D01*
X114025932Y-115764921D01*
X114025922Y-115764918D01*
X113890595Y-115738000D01*
X113890593Y-115738000D01*
X113752607Y-115738000D01*
X113752605Y-115738000D01*
X113617277Y-115764918D01*
X113617267Y-115764921D01*
X113489795Y-115817721D01*
X113489782Y-115817728D01*
X113375058Y-115894385D01*
X113375054Y-115894388D01*
X113277488Y-115991954D01*
X113277485Y-115991958D01*
X113200828Y-116106682D01*
X113200821Y-116106695D01*
X113148021Y-116234167D01*
X113148018Y-116234177D01*
X113121100Y-116369504D01*
X113121100Y-116369507D01*
X113121100Y-116507493D01*
X113121100Y-116507495D01*
X113121099Y-116507495D01*
X98342315Y-116507495D01*
X98345389Y-116492041D01*
X98363500Y-116400995D01*
X98363500Y-116263004D01*
X98336581Y-116127677D01*
X98336580Y-116127676D01*
X98336580Y-116127672D01*
X98327886Y-116106682D01*
X98283778Y-116000195D01*
X98283771Y-116000182D01*
X98207114Y-115885458D01*
X98207111Y-115885454D01*
X98109545Y-115787888D01*
X98109541Y-115787885D01*
X97994817Y-115711228D01*
X97994804Y-115711221D01*
X97867332Y-115658421D01*
X97867322Y-115658418D01*
X97731995Y-115631500D01*
X97731993Y-115631500D01*
X97594007Y-115631500D01*
X97594005Y-115631500D01*
X97458677Y-115658418D01*
X97458667Y-115658421D01*
X97331195Y-115711221D01*
X97331182Y-115711228D01*
X97216458Y-115787885D01*
X97216454Y-115787888D01*
X97118888Y-115885454D01*
X97118885Y-115885458D01*
X97042228Y-116000182D01*
X97042221Y-116000195D01*
X96989421Y-116127667D01*
X96989418Y-116127677D01*
X96962500Y-116263004D01*
X96962500Y-116263007D01*
X96962500Y-116400993D01*
X96962500Y-116400995D01*
X96962499Y-116400995D01*
X84995781Y-116400995D01*
X84934453Y-116360017D01*
X84913817Y-116346228D01*
X84913804Y-116346221D01*
X84786332Y-116293421D01*
X84786322Y-116293418D01*
X84650995Y-116266500D01*
X84650993Y-116266500D01*
X84513007Y-116266500D01*
X84513005Y-116266500D01*
X84377677Y-116293418D01*
X84377667Y-116293421D01*
X84250195Y-116346221D01*
X84250182Y-116346228D01*
X84135458Y-116422885D01*
X84135454Y-116422888D01*
X84037888Y-116520454D01*
X84037885Y-116520458D01*
X83961228Y-116635182D01*
X83961221Y-116635195D01*
X83908421Y-116762667D01*
X83908418Y-116762677D01*
X83881500Y-116898004D01*
X83881500Y-116898007D01*
X83881500Y-117035993D01*
X83881500Y-117035995D01*
X83881499Y-117035995D01*
X81500500Y-117035995D01*
X81500500Y-114114995D01*
X96962499Y-114114995D01*
X96989418Y-114250322D01*
X96989421Y-114250332D01*
X97042221Y-114377804D01*
X97042228Y-114377817D01*
X97118885Y-114492541D01*
X97118888Y-114492545D01*
X97216454Y-114590111D01*
X97216458Y-114590114D01*
X97331182Y-114666771D01*
X97331195Y-114666778D01*
X97458667Y-114719578D01*
X97458672Y-114719580D01*
X97458676Y-114719580D01*
X97458677Y-114719581D01*
X97594004Y-114746500D01*
X97594007Y-114746500D01*
X97731995Y-114746500D01*
X97823041Y-114728389D01*
X97867328Y-114719580D01*
X97994811Y-114666775D01*
X98109542Y-114590114D01*
X98207114Y-114492542D01*
X98283775Y-114377811D01*
X98336580Y-114250328D01*
X98350528Y-114180207D01*
X98363500Y-114114995D01*
X98363500Y-113977004D01*
X98336581Y-113841677D01*
X98336580Y-113841676D01*
X98336580Y-113841672D01*
X98316474Y-113793132D01*
X98283778Y-113714195D01*
X98283771Y-113714182D01*
X98207114Y-113599458D01*
X98207111Y-113599454D01*
X98109545Y-113501888D01*
X98109541Y-113501885D01*
X97994817Y-113425228D01*
X97994804Y-113425221D01*
X97867332Y-113372421D01*
X97867322Y-113372418D01*
X97731995Y-113345500D01*
X97731993Y-113345500D01*
X97594007Y-113345500D01*
X97594005Y-113345500D01*
X97458677Y-113372418D01*
X97458667Y-113372421D01*
X97331195Y-113425221D01*
X97331182Y-113425228D01*
X97216458Y-113501885D01*
X97216454Y-113501888D01*
X97118888Y-113599454D01*
X97118885Y-113599458D01*
X97042228Y-113714182D01*
X97042221Y-113714195D01*
X96989421Y-113841667D01*
X96989418Y-113841677D01*
X96962500Y-113977004D01*
X96962500Y-113977007D01*
X96962500Y-114114993D01*
X96962500Y-114114995D01*
X96962499Y-114114995D01*
X81500500Y-114114995D01*
X81500500Y-113225995D01*
X94549499Y-113225995D01*
X94576418Y-113361322D01*
X94576421Y-113361332D01*
X94629221Y-113488804D01*
X94629228Y-113488817D01*
X94705885Y-113603541D01*
X94705888Y-113603545D01*
X94803454Y-113701111D01*
X94803458Y-113701114D01*
X94918182Y-113777771D01*
X94918195Y-113777778D01*
X95045667Y-113830578D01*
X95045672Y-113830580D01*
X95045676Y-113830580D01*
X95045677Y-113830581D01*
X95181004Y-113857500D01*
X95181007Y-113857500D01*
X95318995Y-113857500D01*
X95360229Y-113849298D01*
X95360229Y-113849297D01*
X95454328Y-113830580D01*
X95552924Y-113789740D01*
X95581804Y-113777778D01*
X95581804Y-113777777D01*
X95581811Y-113777775D01*
X95696542Y-113701114D01*
X95794114Y-113603542D01*
X95870775Y-113488811D01*
X95870974Y-113488332D01*
X95913993Y-113384472D01*
X95923580Y-113361328D01*
X95938962Y-113284000D01*
X95950500Y-113225995D01*
X95950500Y-113088004D01*
X95927424Y-112971995D01*
X106614499Y-112971995D01*
X106641418Y-113107322D01*
X106641421Y-113107332D01*
X106694943Y-113236548D01*
X106702412Y-113306018D01*
X106694943Y-113331452D01*
X106641421Y-113460667D01*
X106641418Y-113460677D01*
X106614500Y-113596004D01*
X106614500Y-113596007D01*
X106614500Y-113733993D01*
X106614500Y-113733995D01*
X106614499Y-113733995D01*
X106641418Y-113869322D01*
X106641419Y-113869323D01*
X106641420Y-113869328D01*
X106668641Y-113935046D01*
X106668642Y-113935048D01*
X106676110Y-114004518D01*
X106668642Y-114029951D01*
X106641420Y-114095672D01*
X106641419Y-114095675D01*
X106641419Y-114095676D01*
X106641418Y-114095677D01*
X106614500Y-114231004D01*
X106614500Y-114231007D01*
X106614500Y-114368993D01*
X106614500Y-114368995D01*
X106614499Y-114368995D01*
X106641418Y-114504322D01*
X106641421Y-114504332D01*
X106694221Y-114631804D01*
X106694228Y-114631817D01*
X106770885Y-114746541D01*
X106770888Y-114746545D01*
X106868454Y-114844111D01*
X106868458Y-114844114D01*
X106983182Y-114920771D01*
X106983195Y-114920778D01*
X107107483Y-114972259D01*
X107110672Y-114973580D01*
X107110676Y-114973580D01*
X107110677Y-114973581D01*
X107246004Y-115000500D01*
X107246007Y-115000500D01*
X107383995Y-115000500D01*
X107452123Y-114986947D01*
X107519328Y-114973580D01*
X107521542Y-114972662D01*
X107522795Y-114972527D01*
X107525155Y-114971812D01*
X107525290Y-114972259D01*
X107591008Y-114965190D01*
X107616451Y-114972660D01*
X107618672Y-114973580D01*
X107618677Y-114973581D01*
X107754004Y-115000500D01*
X107754007Y-115000500D01*
X107891995Y-115000500D01*
X107983041Y-114982389D01*
X108027328Y-114973580D01*
X108149968Y-114922781D01*
X108154804Y-114920778D01*
X108154804Y-114920777D01*
X108154811Y-114920775D01*
X108269542Y-114844114D01*
X108367114Y-114746542D01*
X108443775Y-114631811D01*
X108496580Y-114504328D01*
X108521746Y-114377811D01*
X108523500Y-114368995D01*
X108523500Y-114231004D01*
X108496581Y-114095677D01*
X108496578Y-114095666D01*
X108471590Y-114035342D01*
X108469357Y-114029952D01*
X108461888Y-113960485D01*
X108469357Y-113935048D01*
X108496580Y-113869328D01*
X108509842Y-113802658D01*
X108523500Y-113733995D01*
X108523500Y-113657795D01*
X119593899Y-113657795D01*
X119620818Y-113793122D01*
X119620821Y-113793132D01*
X119673621Y-113920604D01*
X119673628Y-113920617D01*
X119750285Y-114035341D01*
X119750288Y-114035345D01*
X119847854Y-114132911D01*
X119847858Y-114132914D01*
X119962582Y-114209571D01*
X119962595Y-114209578D01*
X120060985Y-114250332D01*
X120090072Y-114262380D01*
X120090076Y-114262380D01*
X120090077Y-114262381D01*
X120225404Y-114289300D01*
X120225407Y-114289300D01*
X120363395Y-114289300D01*
X120473526Y-114267393D01*
X120498728Y-114262380D01*
X120626211Y-114209575D01*
X120740942Y-114132914D01*
X120758861Y-114114995D01*
X125283499Y-114114995D01*
X125310418Y-114250322D01*
X125310421Y-114250332D01*
X125363221Y-114377804D01*
X125363228Y-114377817D01*
X125439885Y-114492541D01*
X125439888Y-114492545D01*
X125537454Y-114590111D01*
X125537458Y-114590114D01*
X125652182Y-114666771D01*
X125652195Y-114666778D01*
X125779667Y-114719578D01*
X125779672Y-114719580D01*
X125779676Y-114719580D01*
X125779677Y-114719581D01*
X125915004Y-114746500D01*
X125915007Y-114746500D01*
X126052995Y-114746500D01*
X126144041Y-114728389D01*
X126188328Y-114719580D01*
X126315811Y-114666775D01*
X126430542Y-114590114D01*
X126528114Y-114492542D01*
X126604775Y-114377811D01*
X126657580Y-114250328D01*
X126671528Y-114180207D01*
X126684500Y-114114995D01*
X126684500Y-113977004D01*
X126657581Y-113841677D01*
X126657580Y-113841676D01*
X126657580Y-113841672D01*
X126637474Y-113793132D01*
X126604778Y-113714195D01*
X126604771Y-113714182D01*
X126528114Y-113599458D01*
X126528111Y-113599454D01*
X126430545Y-113501888D01*
X126430541Y-113501885D01*
X126315817Y-113425228D01*
X126315804Y-113425221D01*
X126188332Y-113372421D01*
X126188322Y-113372418D01*
X126052995Y-113345500D01*
X126052993Y-113345500D01*
X125915007Y-113345500D01*
X125915005Y-113345500D01*
X125779677Y-113372418D01*
X125779667Y-113372421D01*
X125652195Y-113425221D01*
X125652182Y-113425228D01*
X125537458Y-113501885D01*
X125537454Y-113501888D01*
X125439888Y-113599454D01*
X125439885Y-113599458D01*
X125363228Y-113714182D01*
X125363221Y-113714195D01*
X125310421Y-113841667D01*
X125310418Y-113841677D01*
X125283500Y-113977004D01*
X125283500Y-113977007D01*
X125283500Y-114114993D01*
X125283500Y-114114995D01*
X125283499Y-114114995D01*
X120758861Y-114114995D01*
X120838514Y-114035342D01*
X120915175Y-113920611D01*
X120967980Y-113793128D01*
X120983682Y-113714189D01*
X120994900Y-113657795D01*
X120994900Y-113519804D01*
X120967981Y-113384477D01*
X120967980Y-113384476D01*
X120967980Y-113384472D01*
X120958395Y-113361332D01*
X120915178Y-113256995D01*
X120915171Y-113256982D01*
X120838514Y-113142258D01*
X120838511Y-113142254D01*
X120740945Y-113044688D01*
X120740941Y-113044685D01*
X120626217Y-112968028D01*
X120626204Y-112968021D01*
X120498732Y-112915221D01*
X120498722Y-112915218D01*
X120363395Y-112888300D01*
X120363393Y-112888300D01*
X120225407Y-112888300D01*
X120225405Y-112888300D01*
X120090077Y-112915218D01*
X120090067Y-112915221D01*
X119962595Y-112968021D01*
X119962582Y-112968028D01*
X119847858Y-113044685D01*
X119847854Y-113044688D01*
X119750288Y-113142254D01*
X119750285Y-113142258D01*
X119673628Y-113256982D01*
X119673621Y-113256995D01*
X119620821Y-113384467D01*
X119620818Y-113384477D01*
X119593900Y-113519804D01*
X119593900Y-113519807D01*
X119593900Y-113657793D01*
X119593900Y-113657795D01*
X119593899Y-113657795D01*
X108523500Y-113657795D01*
X108523500Y-113596004D01*
X108523499Y-113596002D01*
X108513433Y-113545396D01*
X108513432Y-113545394D01*
X108496580Y-113460672D01*
X108443775Y-113333189D01*
X108442791Y-113331716D01*
X108439884Y-113322923D01*
X108438854Y-113292375D01*
X108435587Y-113261983D01*
X108437599Y-113255129D01*
X108437531Y-113253093D01*
X108438844Y-113250888D01*
X108443056Y-113236548D01*
X108474438Y-113160783D01*
X108496580Y-113107328D01*
X108509833Y-113040700D01*
X108523500Y-112971995D01*
X108523500Y-112834004D01*
X108496581Y-112698677D01*
X108496580Y-112698676D01*
X108496580Y-112698672D01*
X108481899Y-112663228D01*
X108443778Y-112571195D01*
X108443771Y-112571182D01*
X108367114Y-112456458D01*
X108367111Y-112456454D01*
X108269545Y-112358888D01*
X108269541Y-112358885D01*
X108154817Y-112282228D01*
X108154804Y-112282221D01*
X108027332Y-112229421D01*
X108027322Y-112229418D01*
X107891995Y-112202500D01*
X107891993Y-112202500D01*
X107754007Y-112202500D01*
X107754005Y-112202500D01*
X107618673Y-112229419D01*
X107618664Y-112229422D01*
X107616443Y-112230342D01*
X107615186Y-112230476D01*
X107612839Y-112231189D01*
X107612703Y-112230743D01*
X107546973Y-112237805D01*
X107521557Y-112230342D01*
X107519335Y-112229422D01*
X107519326Y-112229419D01*
X107383995Y-112202500D01*
X107383993Y-112202500D01*
X107246007Y-112202500D01*
X107246005Y-112202500D01*
X107110677Y-112229418D01*
X107110667Y-112229421D01*
X106983195Y-112282221D01*
X106983182Y-112282228D01*
X106868458Y-112358885D01*
X106868454Y-112358888D01*
X106770888Y-112456454D01*
X106770885Y-112456458D01*
X106694228Y-112571182D01*
X106694221Y-112571195D01*
X106641421Y-112698667D01*
X106641418Y-112698677D01*
X106614500Y-112834004D01*
X106614500Y-112834007D01*
X106614500Y-112971993D01*
X106614500Y-112971995D01*
X106614499Y-112971995D01*
X95927424Y-112971995D01*
X95923581Y-112952677D01*
X95923580Y-112952676D01*
X95923580Y-112952672D01*
X95923330Y-112952068D01*
X95891560Y-112875367D01*
X95870776Y-112825191D01*
X95870771Y-112825182D01*
X95794114Y-112710458D01*
X95794111Y-112710454D01*
X95696545Y-112612888D01*
X95696541Y-112612885D01*
X95581817Y-112536228D01*
X95581804Y-112536221D01*
X95454332Y-112483421D01*
X95454322Y-112483418D01*
X95318995Y-112456500D01*
X95318993Y-112456500D01*
X95181007Y-112456500D01*
X95181005Y-112456500D01*
X95045677Y-112483418D01*
X95045667Y-112483421D01*
X94918195Y-112536221D01*
X94918182Y-112536228D01*
X94803458Y-112612885D01*
X94803454Y-112612888D01*
X94705888Y-112710454D01*
X94705885Y-112710458D01*
X94629228Y-112825182D01*
X94629221Y-112825195D01*
X94576421Y-112952667D01*
X94576418Y-112952677D01*
X94549500Y-113088004D01*
X94549500Y-113088007D01*
X94549500Y-113225993D01*
X94549500Y-113225995D01*
X94549499Y-113225995D01*
X81500500Y-113225995D01*
X81500500Y-110558995D01*
X82484499Y-110558995D01*
X82511418Y-110694322D01*
X82511421Y-110694332D01*
X82564221Y-110821804D01*
X82564228Y-110821817D01*
X82640885Y-110936541D01*
X82640888Y-110936545D01*
X82738454Y-111034111D01*
X82738458Y-111034114D01*
X82853182Y-111110771D01*
X82853195Y-111110778D01*
X82980667Y-111163578D01*
X82980672Y-111163580D01*
X82980676Y-111163580D01*
X82980677Y-111163581D01*
X83116004Y-111190500D01*
X83116007Y-111190500D01*
X83253995Y-111190500D01*
X83345041Y-111172389D01*
X83389328Y-111163580D01*
X83516811Y-111110775D01*
X83582332Y-111066995D01*
X119060499Y-111066995D01*
X119087418Y-111202322D01*
X119087421Y-111202332D01*
X119140221Y-111329804D01*
X119140228Y-111329817D01*
X119216885Y-111444541D01*
X119216888Y-111444545D01*
X119314454Y-111542111D01*
X119314458Y-111542114D01*
X119429182Y-111618771D01*
X119429195Y-111618778D01*
X119556667Y-111671578D01*
X119556672Y-111671580D01*
X119556676Y-111671580D01*
X119556677Y-111671581D01*
X119692004Y-111698500D01*
X119692007Y-111698500D01*
X119829995Y-111698500D01*
X119921041Y-111680389D01*
X119965328Y-111671580D01*
X120092811Y-111618775D01*
X120207542Y-111542114D01*
X120305114Y-111444542D01*
X120381775Y-111329811D01*
X120434580Y-111202328D01*
X120461500Y-111066993D01*
X120461500Y-110929007D01*
X120461500Y-110929004D01*
X120434581Y-110793677D01*
X120434580Y-110793676D01*
X120434580Y-110793672D01*
X120434578Y-110793667D01*
X120381778Y-110666195D01*
X120381771Y-110666182D01*
X120305114Y-110551458D01*
X120305111Y-110551454D01*
X120207545Y-110453888D01*
X120207541Y-110453885D01*
X120092817Y-110377228D01*
X120092804Y-110377221D01*
X119965332Y-110324421D01*
X119965322Y-110324418D01*
X119829995Y-110297500D01*
X119829993Y-110297500D01*
X119692007Y-110297500D01*
X119692005Y-110297500D01*
X119556677Y-110324418D01*
X119556667Y-110324421D01*
X119429195Y-110377221D01*
X119429182Y-110377228D01*
X119314458Y-110453885D01*
X119314454Y-110453888D01*
X119216888Y-110551454D01*
X119216885Y-110551458D01*
X119140228Y-110666182D01*
X119140221Y-110666195D01*
X119087421Y-110793667D01*
X119087418Y-110793677D01*
X119060500Y-110929004D01*
X119060500Y-110929007D01*
X119060500Y-111066993D01*
X119060500Y-111066995D01*
X119060499Y-111066995D01*
X83582332Y-111066995D01*
X83631542Y-111034114D01*
X83729114Y-110936542D01*
X83805775Y-110821811D01*
X83858580Y-110694328D01*
X83885500Y-110558993D01*
X83885500Y-110421007D01*
X83885500Y-110421004D01*
X83858581Y-110285677D01*
X83858580Y-110285676D01*
X83858580Y-110285672D01*
X83858578Y-110285667D01*
X83805778Y-110158195D01*
X83805771Y-110158182D01*
X83729114Y-110043458D01*
X83729111Y-110043454D01*
X83631545Y-109945888D01*
X83631541Y-109945885D01*
X83516817Y-109869228D01*
X83516804Y-109869221D01*
X83389332Y-109816421D01*
X83389322Y-109816418D01*
X83253995Y-109789500D01*
X83253993Y-109789500D01*
X83116007Y-109789500D01*
X83116005Y-109789500D01*
X82980677Y-109816418D01*
X82980667Y-109816421D01*
X82853195Y-109869221D01*
X82853182Y-109869228D01*
X82738458Y-109945885D01*
X82738454Y-109945888D01*
X82640888Y-110043454D01*
X82640885Y-110043458D01*
X82564228Y-110158182D01*
X82564221Y-110158195D01*
X82511421Y-110285667D01*
X82511418Y-110285677D01*
X82484500Y-110421004D01*
X82484500Y-110421007D01*
X82484500Y-110558993D01*
X82484500Y-110558995D01*
X82484499Y-110558995D01*
X81500500Y-110558995D01*
X81500500Y-109156495D01*
X89299499Y-109156495D01*
X89326418Y-109291822D01*
X89326421Y-109291832D01*
X89379221Y-109419304D01*
X89379228Y-109419317D01*
X89455885Y-109534041D01*
X89455888Y-109534045D01*
X89553454Y-109631611D01*
X89553458Y-109631614D01*
X89668182Y-109708271D01*
X89668195Y-109708278D01*
X89795667Y-109761078D01*
X89795672Y-109761080D01*
X89795676Y-109761080D01*
X89795677Y-109761081D01*
X89931004Y-109788000D01*
X89931007Y-109788000D01*
X90068995Y-109788000D01*
X90160041Y-109769889D01*
X90204328Y-109761080D01*
X90331811Y-109708275D01*
X90446542Y-109631614D01*
X90544114Y-109534042D01*
X90620775Y-109419311D01*
X90673580Y-109291828D01*
X90700500Y-109156493D01*
X90700500Y-109018507D01*
X90700500Y-109018504D01*
X90673581Y-108883177D01*
X90673580Y-108883176D01*
X90673580Y-108883172D01*
X90673578Y-108883167D01*
X90620778Y-108755695D01*
X90620771Y-108755682D01*
X90544114Y-108640958D01*
X90544111Y-108640954D01*
X90446545Y-108543388D01*
X90446541Y-108543385D01*
X90331817Y-108466728D01*
X90331804Y-108466721D01*
X90204332Y-108413921D01*
X90204322Y-108413918D01*
X90068995Y-108387000D01*
X90068993Y-108387000D01*
X89931007Y-108387000D01*
X89931005Y-108387000D01*
X89795677Y-108413918D01*
X89795667Y-108413921D01*
X89668195Y-108466721D01*
X89668182Y-108466728D01*
X89553458Y-108543385D01*
X89553454Y-108543388D01*
X89455888Y-108640954D01*
X89455885Y-108640958D01*
X89379228Y-108755682D01*
X89379221Y-108755695D01*
X89326421Y-108883167D01*
X89326418Y-108883177D01*
X89299500Y-109018504D01*
X89299500Y-109018507D01*
X89299500Y-109156493D01*
X89299500Y-109156495D01*
X89299499Y-109156495D01*
X81500500Y-109156495D01*
X81500500Y-102452135D01*
X90699500Y-102452135D01*
X90699500Y-104547870D01*
X90699501Y-104547876D01*
X90705908Y-104607483D01*
X90756202Y-104742328D01*
X90756206Y-104742335D01*
X90842452Y-104857544D01*
X90842455Y-104857547D01*
X90957664Y-104943793D01*
X90957671Y-104943797D01*
X91092517Y-104994091D01*
X91092516Y-104994091D01*
X91099444Y-104994835D01*
X91152127Y-105000500D01*
X92847872Y-105000499D01*
X92907483Y-104994091D01*
X93042331Y-104943796D01*
X93157546Y-104857546D01*
X93243796Y-104742331D01*
X93294091Y-104607483D01*
X93300500Y-104547873D01*
X93300499Y-103444048D01*
X93300499Y-103197682D01*
X111200000Y-103197682D01*
X111200000Y-103250000D01*
X112153590Y-103250000D01*
X112103963Y-103335956D01*
X112075000Y-103444048D01*
X112075000Y-103555952D01*
X112103963Y-103664044D01*
X112153590Y-103750000D01*
X111200000Y-103750000D01*
X111200000Y-103802317D01*
X111232009Y-104004417D01*
X111295244Y-104199031D01*
X111388140Y-104381349D01*
X111508417Y-104546894D01*
X111508417Y-104546895D01*
X111653104Y-104691582D01*
X111818650Y-104811859D01*
X112000968Y-104904754D01*
X112195578Y-104967988D01*
X112250000Y-104976607D01*
X112250000Y-103846409D01*
X112335956Y-103896037D01*
X112444048Y-103925000D01*
X112555952Y-103925000D01*
X112664044Y-103896037D01*
X112750000Y-103846409D01*
X112750000Y-104976606D01*
X112804421Y-104967988D01*
X112999031Y-104904754D01*
X113181349Y-104811859D01*
X113346894Y-104691582D01*
X113346895Y-104691582D01*
X113491582Y-104546895D01*
X113491582Y-104546894D01*
X113611859Y-104381349D01*
X113704755Y-104199031D01*
X113767990Y-104004417D01*
X113800000Y-103802317D01*
X113800000Y-103750000D01*
X112846410Y-103750000D01*
X112896037Y-103664044D01*
X112925000Y-103555952D01*
X112925000Y-103444048D01*
X112896037Y-103335956D01*
X112846410Y-103250000D01*
X113800000Y-103250000D01*
X113800000Y-103197682D01*
X113767990Y-102995582D01*
X113704755Y-102800968D01*
X113611859Y-102618650D01*
X113512209Y-102481495D01*
X115299499Y-102481495D01*
X115326418Y-102616822D01*
X115326421Y-102616832D01*
X115379221Y-102744304D01*
X115379228Y-102744317D01*
X115455885Y-102859041D01*
X115455888Y-102859045D01*
X115553454Y-102956611D01*
X115553458Y-102956614D01*
X115668182Y-103033271D01*
X115668195Y-103033278D01*
X115768922Y-103075000D01*
X115795672Y-103086080D01*
X115795676Y-103086080D01*
X115795677Y-103086081D01*
X115931004Y-103113000D01*
X115931007Y-103113000D01*
X116068995Y-103113000D01*
X116160041Y-103094889D01*
X116204328Y-103086080D01*
X116305643Y-103044114D01*
X116331804Y-103033278D01*
X116331804Y-103033277D01*
X116331811Y-103033275D01*
X116446542Y-102956614D01*
X116544114Y-102859042D01*
X116620775Y-102744311D01*
X116673580Y-102616828D01*
X116700500Y-102481495D01*
X117299499Y-102481495D01*
X117326418Y-102616822D01*
X117326421Y-102616832D01*
X117379221Y-102744304D01*
X117379228Y-102744317D01*
X117455885Y-102859041D01*
X117455888Y-102859045D01*
X117553454Y-102956611D01*
X117553458Y-102956614D01*
X117668182Y-103033271D01*
X117668195Y-103033278D01*
X117768922Y-103075000D01*
X117795672Y-103086080D01*
X117795676Y-103086080D01*
X117795677Y-103086081D01*
X117931004Y-103113000D01*
X117931007Y-103113000D01*
X118068995Y-103113000D01*
X118160041Y-103094889D01*
X118204328Y-103086080D01*
X118305643Y-103044114D01*
X118331804Y-103033278D01*
X118331804Y-103033277D01*
X118331811Y-103033275D01*
X118446542Y-102956614D01*
X118544114Y-102859042D01*
X118620775Y-102744311D01*
X118673580Y-102616828D01*
X118700500Y-102481495D01*
X119299499Y-102481495D01*
X119326418Y-102616822D01*
X119326421Y-102616832D01*
X119379221Y-102744304D01*
X119379228Y-102744317D01*
X119455885Y-102859041D01*
X119455888Y-102859045D01*
X119553454Y-102956611D01*
X119553458Y-102956614D01*
X119668182Y-103033271D01*
X119668195Y-103033278D01*
X119768922Y-103075000D01*
X119795672Y-103086080D01*
X119795676Y-103086080D01*
X119795677Y-103086081D01*
X119931004Y-103113000D01*
X119931007Y-103113000D01*
X120068995Y-103113000D01*
X120160041Y-103094889D01*
X120204328Y-103086080D01*
X120305643Y-103044114D01*
X120331804Y-103033278D01*
X120331804Y-103033277D01*
X120331811Y-103033275D01*
X120446542Y-102956614D01*
X120544114Y-102859042D01*
X120620775Y-102744311D01*
X120673580Y-102616828D01*
X120700500Y-102481495D01*
X121299499Y-102481495D01*
X121326418Y-102616822D01*
X121326421Y-102616832D01*
X121379221Y-102744304D01*
X121379228Y-102744317D01*
X121455885Y-102859041D01*
X121455888Y-102859045D01*
X121553454Y-102956611D01*
X121553458Y-102956614D01*
X121668182Y-103033271D01*
X121668195Y-103033278D01*
X121768922Y-103075000D01*
X121795672Y-103086080D01*
X121795676Y-103086080D01*
X121795677Y-103086081D01*
X121931004Y-103113000D01*
X121931007Y-103113000D01*
X122068995Y-103113000D01*
X122160041Y-103094889D01*
X122204328Y-103086080D01*
X122305643Y-103044114D01*
X122331804Y-103033278D01*
X122331804Y-103033277D01*
X122331811Y-103033275D01*
X122446542Y-102956614D01*
X122544114Y-102859042D01*
X122620775Y-102744311D01*
X122673580Y-102616828D01*
X122700500Y-102481495D01*
X123299499Y-102481495D01*
X123326418Y-102616822D01*
X123326421Y-102616832D01*
X123379221Y-102744304D01*
X123379228Y-102744317D01*
X123455885Y-102859041D01*
X123455888Y-102859045D01*
X123553454Y-102956611D01*
X123553458Y-102956614D01*
X123668182Y-103033271D01*
X123668195Y-103033278D01*
X123768922Y-103075000D01*
X123795672Y-103086080D01*
X123795676Y-103086080D01*
X123795677Y-103086081D01*
X123931004Y-103113000D01*
X123931007Y-103113000D01*
X124068995Y-103113000D01*
X124160041Y-103094889D01*
X124204328Y-103086080D01*
X124305643Y-103044114D01*
X124331804Y-103033278D01*
X124331804Y-103033277D01*
X124331811Y-103033275D01*
X124446542Y-102956614D01*
X124544114Y-102859042D01*
X124620775Y-102744311D01*
X124673580Y-102616828D01*
X124700500Y-102481495D01*
X125299499Y-102481495D01*
X125326418Y-102616822D01*
X125326421Y-102616832D01*
X125379221Y-102744304D01*
X125379228Y-102744317D01*
X125455885Y-102859041D01*
X125455888Y-102859045D01*
X125553454Y-102956611D01*
X125553458Y-102956614D01*
X125668182Y-103033271D01*
X125668195Y-103033278D01*
X125768922Y-103075000D01*
X125795672Y-103086080D01*
X125795676Y-103086080D01*
X125795677Y-103086081D01*
X125931004Y-103113000D01*
X125931007Y-103113000D01*
X126068995Y-103113000D01*
X126160041Y-103094889D01*
X126204328Y-103086080D01*
X126305643Y-103044114D01*
X126331804Y-103033278D01*
X126331804Y-103033277D01*
X126331811Y-103033275D01*
X126446542Y-102956614D01*
X126544114Y-102859042D01*
X126620775Y-102744311D01*
X126673580Y-102616828D01*
X126683095Y-102568995D01*
X127299499Y-102568995D01*
X127326418Y-102704322D01*
X127326421Y-102704332D01*
X127379221Y-102831804D01*
X127379228Y-102831817D01*
X127455885Y-102946541D01*
X127455888Y-102946545D01*
X127553454Y-103044111D01*
X127553458Y-103044114D01*
X127668182Y-103120771D01*
X127668195Y-103120778D01*
X127769118Y-103162581D01*
X127795672Y-103173580D01*
X127795676Y-103173580D01*
X127795677Y-103173581D01*
X127931004Y-103200500D01*
X127931007Y-103200500D01*
X128068995Y-103200500D01*
X128160041Y-103182389D01*
X128204328Y-103173580D01*
X128331811Y-103120775D01*
X128446542Y-103044114D01*
X128544114Y-102946542D01*
X128620775Y-102831811D01*
X128673580Y-102704328D01*
X128700500Y-102568993D01*
X128700500Y-102431007D01*
X128700500Y-102431004D01*
X128673581Y-102295677D01*
X128673580Y-102295676D01*
X128673580Y-102295672D01*
X128637339Y-102208177D01*
X128620778Y-102168195D01*
X128620771Y-102168182D01*
X128544114Y-102053458D01*
X128544111Y-102053454D01*
X128446545Y-101955888D01*
X128446541Y-101955885D01*
X128331817Y-101879228D01*
X128331804Y-101879221D01*
X128204332Y-101826421D01*
X128204322Y-101826418D01*
X128068995Y-101799500D01*
X128068993Y-101799500D01*
X127931007Y-101799500D01*
X127931005Y-101799500D01*
X127795677Y-101826418D01*
X127795667Y-101826421D01*
X127668195Y-101879221D01*
X127668182Y-101879228D01*
X127553458Y-101955885D01*
X127553454Y-101955888D01*
X127455888Y-102053454D01*
X127455885Y-102053458D01*
X127379228Y-102168182D01*
X127379221Y-102168195D01*
X127326421Y-102295667D01*
X127326418Y-102295677D01*
X127299500Y-102431004D01*
X127299500Y-102431007D01*
X127299500Y-102568993D01*
X127299500Y-102568995D01*
X127299499Y-102568995D01*
X126683095Y-102568995D01*
X126700500Y-102481493D01*
X126700500Y-102343507D01*
X126700500Y-102343504D01*
X126673581Y-102208177D01*
X126673580Y-102208176D01*
X126673580Y-102208172D01*
X126652462Y-102157189D01*
X126620778Y-102080695D01*
X126620771Y-102080682D01*
X126544114Y-101965958D01*
X126544111Y-101965954D01*
X126446545Y-101868388D01*
X126446541Y-101868385D01*
X126331817Y-101791728D01*
X126331804Y-101791721D01*
X126204332Y-101738921D01*
X126204322Y-101738918D01*
X126068995Y-101712000D01*
X126068993Y-101712000D01*
X125931007Y-101712000D01*
X125931005Y-101712000D01*
X125795677Y-101738918D01*
X125795667Y-101738921D01*
X125668195Y-101791721D01*
X125668182Y-101791728D01*
X125553458Y-101868385D01*
X125553454Y-101868388D01*
X125455888Y-101965954D01*
X125455885Y-101965958D01*
X125379228Y-102080682D01*
X125379221Y-102080695D01*
X125326421Y-102208167D01*
X125326418Y-102208177D01*
X125299500Y-102343504D01*
X125299500Y-102343507D01*
X125299500Y-102481493D01*
X125299500Y-102481495D01*
X125299499Y-102481495D01*
X124700500Y-102481495D01*
X124700500Y-102481493D01*
X124700500Y-102343507D01*
X124700500Y-102343504D01*
X124673581Y-102208177D01*
X124673580Y-102208176D01*
X124673580Y-102208172D01*
X124652462Y-102157189D01*
X124620778Y-102080695D01*
X124620771Y-102080682D01*
X124544114Y-101965958D01*
X124544111Y-101965954D01*
X124446545Y-101868388D01*
X124446541Y-101868385D01*
X124331817Y-101791728D01*
X124331804Y-101791721D01*
X124204332Y-101738921D01*
X124204322Y-101738918D01*
X124068995Y-101712000D01*
X124068993Y-101712000D01*
X123931007Y-101712000D01*
X123931005Y-101712000D01*
X123795677Y-101738918D01*
X123795667Y-101738921D01*
X123668195Y-101791721D01*
X123668182Y-101791728D01*
X123553458Y-101868385D01*
X123553454Y-101868388D01*
X123455888Y-101965954D01*
X123455885Y-101965958D01*
X123379228Y-102080682D01*
X123379221Y-102080695D01*
X123326421Y-102208167D01*
X123326418Y-102208177D01*
X123299500Y-102343504D01*
X123299500Y-102343507D01*
X123299500Y-102481493D01*
X123299500Y-102481495D01*
X123299499Y-102481495D01*
X122700500Y-102481495D01*
X122700500Y-102481493D01*
X122700500Y-102343507D01*
X122700500Y-102343504D01*
X122673581Y-102208177D01*
X122673580Y-102208176D01*
X122673580Y-102208172D01*
X122652462Y-102157189D01*
X122620778Y-102080695D01*
X122620771Y-102080682D01*
X122544114Y-101965958D01*
X122544111Y-101965954D01*
X122446545Y-101868388D01*
X122446541Y-101868385D01*
X122331817Y-101791728D01*
X122331804Y-101791721D01*
X122204332Y-101738921D01*
X122204322Y-101738918D01*
X122068995Y-101712000D01*
X122068993Y-101712000D01*
X121931007Y-101712000D01*
X121931005Y-101712000D01*
X121795677Y-101738918D01*
X121795667Y-101738921D01*
X121668195Y-101791721D01*
X121668182Y-101791728D01*
X121553458Y-101868385D01*
X121553454Y-101868388D01*
X121455888Y-101965954D01*
X121455885Y-101965958D01*
X121379228Y-102080682D01*
X121379221Y-102080695D01*
X121326421Y-102208167D01*
X121326418Y-102208177D01*
X121299500Y-102343504D01*
X121299500Y-102343507D01*
X121299500Y-102481493D01*
X121299500Y-102481495D01*
X121299499Y-102481495D01*
X120700500Y-102481495D01*
X120700500Y-102481493D01*
X120700500Y-102343507D01*
X120700500Y-102343504D01*
X120673581Y-102208177D01*
X120673580Y-102208176D01*
X120673580Y-102208172D01*
X120652462Y-102157189D01*
X120620778Y-102080695D01*
X120620771Y-102080682D01*
X120544114Y-101965958D01*
X120544111Y-101965954D01*
X120446545Y-101868388D01*
X120446541Y-101868385D01*
X120331817Y-101791728D01*
X120331804Y-101791721D01*
X120204332Y-101738921D01*
X120204322Y-101738918D01*
X120068995Y-101712000D01*
X120068993Y-101712000D01*
X119931007Y-101712000D01*
X119931005Y-101712000D01*
X119795677Y-101738918D01*
X119795667Y-101738921D01*
X119668195Y-101791721D01*
X119668182Y-101791728D01*
X119553458Y-101868385D01*
X119553454Y-101868388D01*
X119455888Y-101965954D01*
X119455885Y-101965958D01*
X119379228Y-102080682D01*
X119379221Y-102080695D01*
X119326421Y-102208167D01*
X119326418Y-102208177D01*
X119299500Y-102343504D01*
X119299500Y-102343507D01*
X119299500Y-102481493D01*
X119299500Y-102481495D01*
X119299499Y-102481495D01*
X118700500Y-102481495D01*
X118700500Y-102481493D01*
X118700500Y-102343507D01*
X118700500Y-102343504D01*
X118673581Y-102208177D01*
X118673580Y-102208176D01*
X118673580Y-102208172D01*
X118652462Y-102157189D01*
X118620778Y-102080695D01*
X118620771Y-102080682D01*
X118544114Y-101965958D01*
X118544111Y-101965954D01*
X118446545Y-101868388D01*
X118446541Y-101868385D01*
X118331817Y-101791728D01*
X118331804Y-101791721D01*
X118204332Y-101738921D01*
X118204322Y-101738918D01*
X118068995Y-101712000D01*
X118068993Y-101712000D01*
X117931007Y-101712000D01*
X117931005Y-101712000D01*
X117795677Y-101738918D01*
X117795667Y-101738921D01*
X117668195Y-101791721D01*
X117668182Y-101791728D01*
X117553458Y-101868385D01*
X117553454Y-101868388D01*
X117455888Y-101965954D01*
X117455885Y-101965958D01*
X117379228Y-102080682D01*
X117379221Y-102080695D01*
X117326421Y-102208167D01*
X117326418Y-102208177D01*
X117299500Y-102343504D01*
X117299500Y-102343507D01*
X117299500Y-102481493D01*
X117299500Y-102481495D01*
X117299499Y-102481495D01*
X116700500Y-102481495D01*
X116700500Y-102481493D01*
X116700500Y-102343507D01*
X116700500Y-102343504D01*
X116673581Y-102208177D01*
X116673580Y-102208176D01*
X116673580Y-102208172D01*
X116652462Y-102157189D01*
X116620778Y-102080695D01*
X116620771Y-102080682D01*
X116544114Y-101965958D01*
X116544111Y-101965954D01*
X116446545Y-101868388D01*
X116446541Y-101868385D01*
X116331817Y-101791728D01*
X116331804Y-101791721D01*
X116204332Y-101738921D01*
X116204322Y-101738918D01*
X116068995Y-101712000D01*
X116068993Y-101712000D01*
X115931007Y-101712000D01*
X115931005Y-101712000D01*
X115795677Y-101738918D01*
X115795667Y-101738921D01*
X115668195Y-101791721D01*
X115668182Y-101791728D01*
X115553458Y-101868385D01*
X115553454Y-101868388D01*
X115455888Y-101965954D01*
X115455885Y-101965958D01*
X115379228Y-102080682D01*
X115379221Y-102080695D01*
X115326421Y-102208167D01*
X115326418Y-102208177D01*
X115299500Y-102343504D01*
X115299500Y-102343507D01*
X115299500Y-102481493D01*
X115299500Y-102481495D01*
X115299499Y-102481495D01*
X113512209Y-102481495D01*
X113491582Y-102453105D01*
X113491582Y-102453104D01*
X113346895Y-102308417D01*
X113181349Y-102188140D01*
X112999029Y-102095244D01*
X112804413Y-102032009D01*
X112750000Y-102023390D01*
X112750000Y-103153590D01*
X112664044Y-103103963D01*
X112555952Y-103075000D01*
X112444048Y-103075000D01*
X112335956Y-103103963D01*
X112250000Y-103153590D01*
X112250000Y-102023390D01*
X112195586Y-102032009D01*
X112000970Y-102095244D01*
X111818650Y-102188140D01*
X111653105Y-102308417D01*
X111653104Y-102308417D01*
X111508417Y-102453104D01*
X111508417Y-102453105D01*
X111388140Y-102618650D01*
X111295244Y-102800968D01*
X111232009Y-102995582D01*
X111200000Y-103197682D01*
X93300499Y-103197682D01*
X93300499Y-102557995D01*
X97851499Y-102557995D01*
X97878418Y-102693322D01*
X97878421Y-102693332D01*
X97931221Y-102820804D01*
X97931228Y-102820817D01*
X98007885Y-102935541D01*
X98007888Y-102935545D01*
X98105454Y-103033111D01*
X98105458Y-103033114D01*
X98220182Y-103109771D01*
X98220195Y-103109778D01*
X98347667Y-103162578D01*
X98347672Y-103162580D01*
X98347676Y-103162580D01*
X98347677Y-103162581D01*
X98483004Y-103189500D01*
X98483007Y-103189500D01*
X98620995Y-103189500D01*
X98712041Y-103171389D01*
X98756328Y-103162580D01*
X98883811Y-103109775D01*
X98901705Y-103097818D01*
X98913835Y-103089714D01*
X98982079Y-103044114D01*
X98998542Y-103033114D01*
X99096114Y-102935542D01*
X99172775Y-102820811D01*
X99225580Y-102693328D01*
X99234389Y-102649041D01*
X99252500Y-102557995D01*
X99252500Y-102420004D01*
X99225581Y-102284677D01*
X99225580Y-102284676D01*
X99225580Y-102284672D01*
X99193891Y-102208167D01*
X99172778Y-102157195D01*
X99172771Y-102157182D01*
X99096114Y-102042458D01*
X99096111Y-102042454D01*
X98998545Y-101944888D01*
X98998541Y-101944885D01*
X98883817Y-101868228D01*
X98883804Y-101868221D01*
X98756332Y-101815421D01*
X98756322Y-101815418D01*
X98620995Y-101788500D01*
X98620993Y-101788500D01*
X98483007Y-101788500D01*
X98483005Y-101788500D01*
X98347677Y-101815418D01*
X98347667Y-101815421D01*
X98220195Y-101868221D01*
X98220182Y-101868228D01*
X98105458Y-101944885D01*
X98105454Y-101944888D01*
X98007888Y-102042454D01*
X98007885Y-102042458D01*
X97931228Y-102157182D01*
X97931221Y-102157195D01*
X97878421Y-102284667D01*
X97878418Y-102284677D01*
X97851500Y-102420004D01*
X97851500Y-102420007D01*
X97851500Y-102557993D01*
X97851500Y-102557995D01*
X97851499Y-102557995D01*
X93300499Y-102557995D01*
X93300499Y-102452129D01*
X93300498Y-102452123D01*
X93300497Y-102452116D01*
X93294091Y-102392517D01*
X93275811Y-102343507D01*
X93243797Y-102257671D01*
X93243793Y-102257664D01*
X93157547Y-102142455D01*
X93157544Y-102142452D01*
X93042335Y-102056206D01*
X93042328Y-102056202D01*
X92907482Y-102005908D01*
X92907483Y-102005908D01*
X92847883Y-101999501D01*
X92847881Y-101999500D01*
X92847873Y-101999500D01*
X92847864Y-101999500D01*
X91152129Y-101999500D01*
X91152123Y-101999501D01*
X91092516Y-102005908D01*
X90957671Y-102056202D01*
X90957664Y-102056206D01*
X90842455Y-102142452D01*
X90842452Y-102142455D01*
X90756206Y-102257664D01*
X90756202Y-102257671D01*
X90705908Y-102392517D01*
X90699501Y-102452116D01*
X90699501Y-102452123D01*
X90699500Y-102452135D01*
X81500500Y-102452135D01*
X81500500Y-100656495D01*
X121299499Y-100656495D01*
X121326418Y-100791822D01*
X121326421Y-100791832D01*
X121379221Y-100919304D01*
X121379228Y-100919317D01*
X121455885Y-101034041D01*
X121455888Y-101034045D01*
X121553454Y-101131611D01*
X121553458Y-101131614D01*
X121668182Y-101208271D01*
X121668195Y-101208278D01*
X121795667Y-101261078D01*
X121795672Y-101261080D01*
X121795676Y-101261080D01*
X121795677Y-101261081D01*
X121931004Y-101288000D01*
X121931007Y-101288000D01*
X122068995Y-101288000D01*
X122160041Y-101269889D01*
X122204328Y-101261080D01*
X122331811Y-101208275D01*
X122446542Y-101131614D01*
X122544114Y-101034042D01*
X122620775Y-100919311D01*
X122673580Y-100791828D01*
X122700500Y-100656493D01*
X122700500Y-100518507D01*
X122700500Y-100518504D01*
X122673581Y-100383177D01*
X122673580Y-100383176D01*
X122673580Y-100383172D01*
X122673578Y-100383167D01*
X122620778Y-100255695D01*
X122620771Y-100255682D01*
X122544114Y-100140958D01*
X122544111Y-100140954D01*
X122446545Y-100043388D01*
X122446541Y-100043385D01*
X122331817Y-99966728D01*
X122331804Y-99966721D01*
X122204332Y-99913921D01*
X122204322Y-99913918D01*
X122068995Y-99887000D01*
X122068993Y-99887000D01*
X121931007Y-99887000D01*
X121931005Y-99887000D01*
X121795677Y-99913918D01*
X121795667Y-99913921D01*
X121668195Y-99966721D01*
X121668182Y-99966728D01*
X121553458Y-100043385D01*
X121553454Y-100043388D01*
X121455888Y-100140954D01*
X121455885Y-100140958D01*
X121379228Y-100255682D01*
X121379221Y-100255695D01*
X121326421Y-100383167D01*
X121326418Y-100383177D01*
X121299500Y-100518504D01*
X121299500Y-100518507D01*
X121299500Y-100656493D01*
X121299500Y-100656495D01*
X121299499Y-100656495D01*
X81500500Y-100656495D01*
X81500500Y-99068995D01*
X89711999Y-99068995D01*
X89738918Y-99204322D01*
X89738921Y-99204332D01*
X89791721Y-99331804D01*
X89791728Y-99331817D01*
X89868385Y-99446541D01*
X89868388Y-99446545D01*
X89965954Y-99544111D01*
X89965958Y-99544114D01*
X90080682Y-99620771D01*
X90080695Y-99620778D01*
X90208167Y-99673578D01*
X90208172Y-99673580D01*
X90208176Y-99673580D01*
X90208177Y-99673581D01*
X90343504Y-99700500D01*
X90343507Y-99700500D01*
X90481495Y-99700500D01*
X90572541Y-99682389D01*
X90616828Y-99673580D01*
X90744311Y-99620775D01*
X90859042Y-99544114D01*
X90956614Y-99446542D01*
X91033275Y-99331811D01*
X91086080Y-99204328D01*
X91094889Y-99160041D01*
X91113000Y-99068995D01*
X91113000Y-98931004D01*
X91086081Y-98795677D01*
X91086080Y-98795676D01*
X91086080Y-98795672D01*
X91069781Y-98756322D01*
X91033278Y-98668195D01*
X91033271Y-98668182D01*
X91001742Y-98620995D01*
X101407499Y-98620995D01*
X101434418Y-98756322D01*
X101434421Y-98756332D01*
X101487221Y-98883804D01*
X101487228Y-98883817D01*
X101563885Y-98998541D01*
X101563888Y-98998545D01*
X101661454Y-99096111D01*
X101661458Y-99096114D01*
X101776182Y-99172771D01*
X101776195Y-99172778D01*
X101903667Y-99225578D01*
X101903672Y-99225580D01*
X101903676Y-99225580D01*
X101903677Y-99225581D01*
X102039004Y-99252500D01*
X102039007Y-99252500D01*
X102176995Y-99252500D01*
X102268041Y-99234389D01*
X102312328Y-99225580D01*
X102439811Y-99172775D01*
X102554542Y-99096114D01*
X102652114Y-98998542D01*
X102728775Y-98883811D01*
X102781580Y-98756328D01*
X102799112Y-98668189D01*
X102808500Y-98620995D01*
X102808500Y-98483004D01*
X102781581Y-98347677D01*
X102781580Y-98347676D01*
X102781580Y-98347672D01*
X102761627Y-98299500D01*
X102728778Y-98220195D01*
X102728771Y-98220182D01*
X102652114Y-98105458D01*
X102652111Y-98105454D01*
X102554545Y-98007888D01*
X102554541Y-98007885D01*
X102439817Y-97931228D01*
X102439804Y-97931221D01*
X102312332Y-97878421D01*
X102312322Y-97878418D01*
X102176995Y-97851500D01*
X102176993Y-97851500D01*
X102039007Y-97851500D01*
X102039005Y-97851500D01*
X101903677Y-97878418D01*
X101903667Y-97878421D01*
X101776195Y-97931221D01*
X101776182Y-97931228D01*
X101661458Y-98007885D01*
X101661454Y-98007888D01*
X101563888Y-98105454D01*
X101563885Y-98105458D01*
X101487228Y-98220182D01*
X101487221Y-98220195D01*
X101434421Y-98347667D01*
X101434418Y-98347677D01*
X101407500Y-98483004D01*
X101407500Y-98483007D01*
X101407500Y-98620993D01*
X101407500Y-98620995D01*
X101407499Y-98620995D01*
X91001742Y-98620995D01*
X90956614Y-98553457D01*
X90859045Y-98455888D01*
X90859041Y-98455885D01*
X90744317Y-98379228D01*
X90744304Y-98379221D01*
X90616832Y-98326421D01*
X90616822Y-98326418D01*
X90481495Y-98299500D01*
X90481493Y-98299500D01*
X90343507Y-98299500D01*
X90343505Y-98299500D01*
X90208177Y-98326418D01*
X90208167Y-98326421D01*
X90080695Y-98379221D01*
X90080682Y-98379228D01*
X89965958Y-98455885D01*
X89965954Y-98455888D01*
X89868388Y-98553454D01*
X89868385Y-98553458D01*
X89791728Y-98668182D01*
X89791721Y-98668195D01*
X89738921Y-98795667D01*
X89738918Y-98795677D01*
X89712000Y-98931004D01*
X89712000Y-98931007D01*
X89712000Y-99068993D01*
X89712000Y-99068995D01*
X89711999Y-99068995D01*
X81500500Y-99068995D01*
X81500500Y-97068995D01*
X89711999Y-97068995D01*
X89738918Y-97204322D01*
X89738921Y-97204332D01*
X89791721Y-97331804D01*
X89791728Y-97331817D01*
X89868385Y-97446541D01*
X89868388Y-97446545D01*
X89965954Y-97544111D01*
X89965958Y-97544114D01*
X90080682Y-97620771D01*
X90080695Y-97620778D01*
X90208167Y-97673578D01*
X90208172Y-97673580D01*
X90208176Y-97673580D01*
X90208177Y-97673581D01*
X90343504Y-97700500D01*
X90343507Y-97700500D01*
X90481495Y-97700500D01*
X90572541Y-97682389D01*
X90616828Y-97673580D01*
X90744311Y-97620775D01*
X90767927Y-97604995D01*
X121473499Y-97604995D01*
X121500418Y-97740322D01*
X121500421Y-97740332D01*
X121553221Y-97867804D01*
X121553228Y-97867817D01*
X121629885Y-97982541D01*
X121629888Y-97982545D01*
X121727454Y-98080111D01*
X121727458Y-98080114D01*
X121842182Y-98156771D01*
X121842195Y-98156778D01*
X121969667Y-98209578D01*
X121969672Y-98209580D01*
X121969676Y-98209580D01*
X121969677Y-98209581D01*
X122105004Y-98236500D01*
X122105007Y-98236500D01*
X122242995Y-98236500D01*
X122334041Y-98218389D01*
X122378328Y-98209580D01*
X122505811Y-98156775D01*
X122620542Y-98080114D01*
X122718114Y-97982542D01*
X122794775Y-97867811D01*
X122847580Y-97740328D01*
X122860857Y-97673580D01*
X122874500Y-97604995D01*
X122874500Y-97467004D01*
X122847581Y-97331677D01*
X122847580Y-97331676D01*
X122847580Y-97331672D01*
X122847578Y-97331667D01*
X122794778Y-97204195D01*
X122794771Y-97204182D01*
X122718114Y-97089458D01*
X122718111Y-97089454D01*
X122620545Y-96991888D01*
X122620541Y-96991885D01*
X122505817Y-96915228D01*
X122505804Y-96915221D01*
X122378332Y-96862421D01*
X122378322Y-96862418D01*
X122242995Y-96835500D01*
X122242993Y-96835500D01*
X122105007Y-96835500D01*
X122105005Y-96835500D01*
X121969677Y-96862418D01*
X121969667Y-96862421D01*
X121842195Y-96915221D01*
X121842182Y-96915228D01*
X121727458Y-96991885D01*
X121727454Y-96991888D01*
X121629888Y-97089454D01*
X121629885Y-97089458D01*
X121553228Y-97204182D01*
X121553221Y-97204195D01*
X121500421Y-97331667D01*
X121500418Y-97331677D01*
X121473500Y-97467004D01*
X121473500Y-97467007D01*
X121473500Y-97604993D01*
X121473500Y-97604995D01*
X121473499Y-97604995D01*
X90767927Y-97604995D01*
X90859042Y-97544114D01*
X90956614Y-97446542D01*
X91033275Y-97331811D01*
X91086080Y-97204328D01*
X91094889Y-97160041D01*
X91113000Y-97068995D01*
X91113000Y-96931004D01*
X91086081Y-96795677D01*
X91086080Y-96795676D01*
X91086080Y-96795672D01*
X91086078Y-96795667D01*
X91033278Y-96668195D01*
X91033271Y-96668182D01*
X90956614Y-96553458D01*
X90956611Y-96553454D01*
X90859045Y-96455888D01*
X90859041Y-96455885D01*
X90744317Y-96379228D01*
X90744304Y-96379221D01*
X90616832Y-96326421D01*
X90616822Y-96326418D01*
X90481495Y-96299500D01*
X90481493Y-96299500D01*
X90343507Y-96299500D01*
X90343505Y-96299500D01*
X90208177Y-96326418D01*
X90208167Y-96326421D01*
X90080695Y-96379221D01*
X90080682Y-96379228D01*
X89965958Y-96455885D01*
X89965954Y-96455888D01*
X89868388Y-96553454D01*
X89868385Y-96553458D01*
X89791728Y-96668182D01*
X89791721Y-96668195D01*
X89738921Y-96795667D01*
X89738918Y-96795677D01*
X89712000Y-96931004D01*
X89712000Y-96931007D01*
X89712000Y-97068993D01*
X89712000Y-97068995D01*
X89711999Y-97068995D01*
X81500500Y-97068995D01*
X81500500Y-94718995D01*
X117849499Y-94718995D01*
X117876418Y-94854322D01*
X117876421Y-94854332D01*
X117929221Y-94981804D01*
X117929228Y-94981817D01*
X118005885Y-95096541D01*
X118005888Y-95096545D01*
X118103454Y-95194111D01*
X118103458Y-95194114D01*
X118218182Y-95270771D01*
X118218195Y-95270778D01*
X118343692Y-95322760D01*
X118345672Y-95323580D01*
X118345676Y-95323580D01*
X118345677Y-95323581D01*
X118481004Y-95350500D01*
X118481007Y-95350500D01*
X118618995Y-95350500D01*
X118710041Y-95332389D01*
X118754328Y-95323580D01*
X118881811Y-95270775D01*
X118996542Y-95194114D01*
X118998663Y-95191993D01*
X119012319Y-95178338D01*
X119073642Y-95144853D01*
X119143334Y-95149837D01*
X119187681Y-95178338D01*
X119203454Y-95194111D01*
X119203458Y-95194114D01*
X119318182Y-95270771D01*
X119318195Y-95270778D01*
X119443692Y-95322760D01*
X119445672Y-95323580D01*
X119445676Y-95323580D01*
X119445677Y-95323581D01*
X119581004Y-95350500D01*
X119581007Y-95350500D01*
X119718995Y-95350500D01*
X119810041Y-95332389D01*
X119854328Y-95323580D01*
X119981811Y-95270775D01*
X120096542Y-95194114D01*
X120098663Y-95191993D01*
X120112319Y-95178338D01*
X120173642Y-95144853D01*
X120243334Y-95149837D01*
X120287681Y-95178338D01*
X120303454Y-95194111D01*
X120303458Y-95194114D01*
X120418182Y-95270771D01*
X120418195Y-95270778D01*
X120543692Y-95322760D01*
X120545672Y-95323580D01*
X120545676Y-95323580D01*
X120545677Y-95323581D01*
X120681004Y-95350500D01*
X120681007Y-95350500D01*
X120818995Y-95350500D01*
X120910041Y-95332389D01*
X120954328Y-95323580D01*
X121002768Y-95303515D01*
X121087440Y-95268444D01*
X121088534Y-95271085D01*
X121144840Y-95259217D01*
X121210146Y-95284055D01*
X121249758Y-95335388D01*
X121299223Y-95454807D01*
X121299228Y-95454817D01*
X121375885Y-95569541D01*
X121375888Y-95569545D01*
X121473454Y-95667111D01*
X121473458Y-95667114D01*
X121588182Y-95743771D01*
X121588195Y-95743778D01*
X121715667Y-95796578D01*
X121715672Y-95796580D01*
X121715676Y-95796580D01*
X121715677Y-95796581D01*
X121851004Y-95823500D01*
X121851007Y-95823500D01*
X121988995Y-95823500D01*
X122080041Y-95805389D01*
X122124328Y-95796580D01*
X122251811Y-95743775D01*
X122366542Y-95667114D01*
X122464114Y-95569542D01*
X122540775Y-95454811D01*
X122567676Y-95389864D01*
X122611514Y-95335464D01*
X122677808Y-95313398D01*
X122725772Y-95322052D01*
X122725845Y-95321812D01*
X122727907Y-95322437D01*
X122729691Y-95322759D01*
X122731672Y-95323580D01*
X122731676Y-95323580D01*
X122731677Y-95323581D01*
X122867004Y-95350500D01*
X122867007Y-95350500D01*
X123004995Y-95350500D01*
X123096041Y-95332389D01*
X123140328Y-95323580D01*
X123267811Y-95270775D01*
X123382542Y-95194114D01*
X123480114Y-95096542D01*
X123556775Y-94981811D01*
X123609580Y-94854328D01*
X123636500Y-94718995D01*
X124449499Y-94718995D01*
X124476418Y-94854322D01*
X124476421Y-94854332D01*
X124529221Y-94981804D01*
X124529228Y-94981817D01*
X124605885Y-95096541D01*
X124605888Y-95096545D01*
X124703454Y-95194111D01*
X124703458Y-95194114D01*
X124818182Y-95270771D01*
X124818195Y-95270778D01*
X124943692Y-95322760D01*
X124945672Y-95323580D01*
X124945676Y-95323580D01*
X124945677Y-95323581D01*
X125081004Y-95350500D01*
X125081007Y-95350500D01*
X125218995Y-95350500D01*
X125310041Y-95332389D01*
X125354328Y-95323580D01*
X125481811Y-95270775D01*
X125596542Y-95194114D01*
X125598663Y-95191993D01*
X125612319Y-95178338D01*
X125673642Y-95144853D01*
X125743334Y-95149837D01*
X125787681Y-95178338D01*
X125803454Y-95194111D01*
X125803458Y-95194114D01*
X125918182Y-95270771D01*
X125918195Y-95270778D01*
X126043692Y-95322760D01*
X126045672Y-95323580D01*
X126045676Y-95323580D01*
X126045677Y-95323581D01*
X126181004Y-95350500D01*
X126181007Y-95350500D01*
X126318995Y-95350500D01*
X126410041Y-95332389D01*
X126454328Y-95323580D01*
X126581811Y-95270775D01*
X126696542Y-95194114D01*
X126698663Y-95191993D01*
X126712319Y-95178338D01*
X126773642Y-95144853D01*
X126843334Y-95149837D01*
X126887681Y-95178338D01*
X126903454Y-95194111D01*
X126903458Y-95194114D01*
X127018182Y-95270771D01*
X127018195Y-95270778D01*
X127143692Y-95322760D01*
X127145672Y-95323580D01*
X127145676Y-95323580D01*
X127145677Y-95323581D01*
X127281004Y-95350500D01*
X127281007Y-95350500D01*
X127418995Y-95350500D01*
X127510041Y-95332389D01*
X127554328Y-95323580D01*
X127681811Y-95270775D01*
X127796542Y-95194114D01*
X127894114Y-95096542D01*
X127970775Y-94981811D01*
X128023580Y-94854328D01*
X128050500Y-94718993D01*
X128050500Y-94581007D01*
X128050500Y-94581004D01*
X128023581Y-94445677D01*
X128023580Y-94445676D01*
X128023580Y-94445672D01*
X128023578Y-94445667D01*
X127970778Y-94318195D01*
X127970771Y-94318182D01*
X127894114Y-94203458D01*
X127894111Y-94203454D01*
X127796545Y-94105888D01*
X127796541Y-94105885D01*
X127681817Y-94029228D01*
X127681804Y-94029221D01*
X127554332Y-93976421D01*
X127554322Y-93976418D01*
X127418995Y-93949500D01*
X127418993Y-93949500D01*
X127281007Y-93949500D01*
X127281005Y-93949500D01*
X127145677Y-93976418D01*
X127145667Y-93976421D01*
X127018195Y-94029221D01*
X127018182Y-94029228D01*
X126903458Y-94105885D01*
X126903454Y-94105888D01*
X126887681Y-94121662D01*
X126826358Y-94155147D01*
X126756666Y-94150163D01*
X126712319Y-94121662D01*
X126696545Y-94105888D01*
X126696541Y-94105885D01*
X126581817Y-94029228D01*
X126581804Y-94029221D01*
X126454332Y-93976421D01*
X126454322Y-93976418D01*
X126318995Y-93949500D01*
X126318993Y-93949500D01*
X126181007Y-93949500D01*
X126181005Y-93949500D01*
X126045677Y-93976418D01*
X126045667Y-93976421D01*
X125918195Y-94029221D01*
X125918182Y-94029228D01*
X125803458Y-94105885D01*
X125803454Y-94105888D01*
X125787681Y-94121662D01*
X125726358Y-94155147D01*
X125656666Y-94150163D01*
X125612319Y-94121662D01*
X125596545Y-94105888D01*
X125596541Y-94105885D01*
X125481817Y-94029228D01*
X125481804Y-94029221D01*
X125354332Y-93976421D01*
X125354322Y-93976418D01*
X125218995Y-93949500D01*
X125218993Y-93949500D01*
X125081007Y-93949500D01*
X125081005Y-93949500D01*
X124945677Y-93976418D01*
X124945667Y-93976421D01*
X124818195Y-94029221D01*
X124818182Y-94029228D01*
X124703458Y-94105885D01*
X124703454Y-94105888D01*
X124605888Y-94203454D01*
X124605885Y-94203458D01*
X124529228Y-94318182D01*
X124529221Y-94318195D01*
X124476421Y-94445667D01*
X124476418Y-94445677D01*
X124449500Y-94581004D01*
X124449500Y-94581007D01*
X124449500Y-94718993D01*
X124449500Y-94718995D01*
X124449499Y-94718995D01*
X123636500Y-94718995D01*
X123636500Y-94718993D01*
X123636500Y-94581007D01*
X123636500Y-94581004D01*
X123609581Y-94445677D01*
X123609580Y-94445676D01*
X123609580Y-94445672D01*
X123609578Y-94445667D01*
X123556778Y-94318195D01*
X123556771Y-94318182D01*
X123480114Y-94203458D01*
X123480111Y-94203454D01*
X123382545Y-94105888D01*
X123382541Y-94105885D01*
X123267817Y-94029228D01*
X123267804Y-94029221D01*
X123140332Y-93976421D01*
X123140322Y-93976418D01*
X123004995Y-93949500D01*
X123004993Y-93949500D01*
X122867007Y-93949500D01*
X122867005Y-93949500D01*
X122731677Y-93976418D01*
X122731667Y-93976421D01*
X122709534Y-93985589D01*
X122640064Y-93993056D01*
X122577586Y-93961780D01*
X122547523Y-93918479D01*
X122540778Y-93902195D01*
X122540771Y-93902182D01*
X122464114Y-93787458D01*
X122464111Y-93787454D01*
X122366545Y-93689888D01*
X122366541Y-93689885D01*
X122251817Y-93613228D01*
X122251804Y-93613221D01*
X122124332Y-93560421D01*
X122124322Y-93560418D01*
X121988995Y-93533500D01*
X121988993Y-93533500D01*
X121851007Y-93533500D01*
X121851005Y-93533500D01*
X121715677Y-93560418D01*
X121715667Y-93560421D01*
X121588195Y-93613221D01*
X121588182Y-93613228D01*
X121473458Y-93689885D01*
X121473454Y-93689888D01*
X121375888Y-93787454D01*
X121375885Y-93787458D01*
X121299228Y-93902182D01*
X121299223Y-93902192D01*
X121268703Y-93975874D01*
X121224861Y-94030278D01*
X121158567Y-94052342D01*
X121090868Y-94035062D01*
X121085250Y-94031522D01*
X121081819Y-94029229D01*
X121081804Y-94029221D01*
X120954332Y-93976421D01*
X120954322Y-93976418D01*
X120818995Y-93949500D01*
X120818993Y-93949500D01*
X120681007Y-93949500D01*
X120681005Y-93949500D01*
X120545677Y-93976418D01*
X120545667Y-93976421D01*
X120418195Y-94029221D01*
X120418182Y-94029228D01*
X120303458Y-94105885D01*
X120303454Y-94105888D01*
X120287681Y-94121662D01*
X120226358Y-94155147D01*
X120156666Y-94150163D01*
X120112319Y-94121662D01*
X120096545Y-94105888D01*
X120096541Y-94105885D01*
X119981817Y-94029228D01*
X119981804Y-94029221D01*
X119854332Y-93976421D01*
X119854322Y-93976418D01*
X119718995Y-93949500D01*
X119718993Y-93949500D01*
X119581007Y-93949500D01*
X119581005Y-93949500D01*
X119445677Y-93976418D01*
X119445667Y-93976421D01*
X119318195Y-94029221D01*
X119318182Y-94029228D01*
X119203458Y-94105885D01*
X119203454Y-94105888D01*
X119187681Y-94121662D01*
X119126358Y-94155147D01*
X119056666Y-94150163D01*
X119012319Y-94121662D01*
X118996545Y-94105888D01*
X118996541Y-94105885D01*
X118881817Y-94029228D01*
X118881804Y-94029221D01*
X118754332Y-93976421D01*
X118754322Y-93976418D01*
X118618995Y-93949500D01*
X118618993Y-93949500D01*
X118481007Y-93949500D01*
X118481005Y-93949500D01*
X118345677Y-93976418D01*
X118345667Y-93976421D01*
X118218195Y-94029221D01*
X118218182Y-94029228D01*
X118103458Y-94105885D01*
X118103454Y-94105888D01*
X118005888Y-94203454D01*
X118005885Y-94203458D01*
X117929228Y-94318182D01*
X117929221Y-94318195D01*
X117876421Y-94445667D01*
X117876418Y-94445677D01*
X117849500Y-94581004D01*
X117849500Y-94581007D01*
X117849500Y-94718993D01*
X117849500Y-94718995D01*
X117849499Y-94718995D01*
X81500500Y-94718995D01*
X81500500Y-92281495D01*
X82799499Y-92281495D01*
X82826418Y-92416822D01*
X82826421Y-92416832D01*
X82879221Y-92544304D01*
X82879228Y-92544317D01*
X82955885Y-92659041D01*
X82955888Y-92659045D01*
X83053454Y-92756611D01*
X83053458Y-92756614D01*
X83168182Y-92833271D01*
X83168195Y-92833278D01*
X83295667Y-92886078D01*
X83295672Y-92886080D01*
X83295676Y-92886080D01*
X83295677Y-92886081D01*
X83431004Y-92913000D01*
X83431007Y-92913000D01*
X83568995Y-92913000D01*
X83660041Y-92894889D01*
X83704328Y-92886080D01*
X83831811Y-92833275D01*
X83946542Y-92756614D01*
X84044114Y-92659042D01*
X84120775Y-92544311D01*
X84173580Y-92416828D01*
X84200500Y-92281493D01*
X84200500Y-92143507D01*
X84200500Y-92143504D01*
X84173581Y-92008177D01*
X84173580Y-92008176D01*
X84173580Y-92008172D01*
X84173578Y-92008167D01*
X84120778Y-91880695D01*
X84120771Y-91880682D01*
X84044114Y-91765958D01*
X84044111Y-91765954D01*
X83946545Y-91668388D01*
X83946541Y-91668385D01*
X83831817Y-91591728D01*
X83831804Y-91591721D01*
X83704332Y-91538921D01*
X83704322Y-91538918D01*
X83568995Y-91512000D01*
X83568993Y-91512000D01*
X83431007Y-91512000D01*
X83431005Y-91512000D01*
X83295677Y-91538918D01*
X83295667Y-91538921D01*
X83168195Y-91591721D01*
X83168182Y-91591728D01*
X83053458Y-91668385D01*
X83053454Y-91668388D01*
X82955888Y-91765954D01*
X82955885Y-91765958D01*
X82879228Y-91880682D01*
X82879221Y-91880695D01*
X82826421Y-92008167D01*
X82826418Y-92008177D01*
X82799500Y-92143504D01*
X82799500Y-92143507D01*
X82799500Y-92281493D01*
X82799500Y-92281495D01*
X82799499Y-92281495D01*
X81500500Y-92281495D01*
X81500500Y-89877973D01*
X87949500Y-89877973D01*
X87949500Y-90122026D01*
X87987678Y-90363072D01*
X88063097Y-90595187D01*
X88173896Y-90812642D01*
X88223854Y-90881404D01*
X88247334Y-90947210D01*
X88231509Y-91015264D01*
X88197848Y-91053555D01*
X88092452Y-91132455D01*
X88006206Y-91247664D01*
X88006202Y-91247671D01*
X87955908Y-91382517D01*
X87949501Y-91442116D01*
X87949501Y-91442123D01*
X87949500Y-91442135D01*
X87949500Y-93637870D01*
X87949501Y-93637876D01*
X87955908Y-93697483D01*
X88006202Y-93832328D01*
X88006206Y-93832335D01*
X88092452Y-93947544D01*
X88092455Y-93947547D01*
X88207664Y-94033793D01*
X88207671Y-94033797D01*
X88342517Y-94084091D01*
X88342516Y-94084091D01*
X88349444Y-94084835D01*
X88402127Y-94090500D01*
X90597872Y-94090499D01*
X90657483Y-94084091D01*
X90792331Y-94033796D01*
X90907546Y-93947546D01*
X90993796Y-93832331D01*
X91044091Y-93697483D01*
X91050500Y-93637873D01*
X91050499Y-91442128D01*
X91044091Y-91382517D01*
X90993796Y-91247669D01*
X90993795Y-91247668D01*
X90993793Y-91247664D01*
X90907547Y-91132455D01*
X90907544Y-91132452D01*
X90802152Y-91053555D01*
X90760281Y-90997621D01*
X90755297Y-90927930D01*
X90776146Y-90881403D01*
X90826103Y-90812643D01*
X90826104Y-90812642D01*
X90826106Y-90812639D01*
X90936904Y-90595185D01*
X91012321Y-90363076D01*
X91050500Y-90122027D01*
X91050500Y-89877973D01*
X91012321Y-89636924D01*
X90936904Y-89404815D01*
X90826106Y-89187361D01*
X90807779Y-89162136D01*
X90682660Y-88989923D01*
X90682656Y-88989918D01*
X90510081Y-88817343D01*
X90510076Y-88817339D01*
X90459410Y-88780528D01*
X90433919Y-88747471D01*
X89785757Y-88099309D01*
X89831574Y-88080332D01*
X89946224Y-88003726D01*
X90043726Y-87906224D01*
X90120332Y-87791574D01*
X90139309Y-87745757D01*
X90758454Y-88364902D01*
X90758454Y-88364901D01*
X90825678Y-88272377D01*
X90936439Y-88054998D01*
X91011834Y-87822959D01*
X91050000Y-87581993D01*
X91050000Y-87338006D01*
X91011834Y-87097040D01*
X90936439Y-86865001D01*
X90825676Y-86647619D01*
X90758456Y-86555097D01*
X90758454Y-86555096D01*
X90139309Y-87174241D01*
X90120332Y-87128426D01*
X90043726Y-87013776D01*
X89946224Y-86916274D01*
X89831574Y-86839668D01*
X89785756Y-86820689D01*
X90404902Y-86201544D01*
X90404901Y-86201543D01*
X90312380Y-86134323D01*
X90094998Y-86023560D01*
X89862959Y-85948165D01*
X89621993Y-85910000D01*
X89378007Y-85910000D01*
X89137040Y-85948165D01*
X88905001Y-86023560D01*
X88687626Y-86134319D01*
X88595097Y-86201544D01*
X89214243Y-86820689D01*
X89168426Y-86839668D01*
X89053776Y-86916274D01*
X88956274Y-87013776D01*
X88879668Y-87128426D01*
X88860690Y-87174243D01*
X88241544Y-86555097D01*
X88174319Y-86647626D01*
X88063560Y-86865001D01*
X87988165Y-87097040D01*
X87950000Y-87338006D01*
X87950000Y-87581993D01*
X87988165Y-87822959D01*
X88063560Y-88054998D01*
X88174323Y-88272380D01*
X88241543Y-88364901D01*
X88241544Y-88364902D01*
X88860690Y-87745756D01*
X88879668Y-87791574D01*
X88956274Y-87906224D01*
X89053776Y-88003726D01*
X89168426Y-88080332D01*
X89214242Y-88099309D01*
X88577556Y-88735994D01*
X88576953Y-88738866D01*
X88540590Y-88780528D01*
X88489917Y-88817344D01*
X88317343Y-88989918D01*
X88317339Y-88989923D01*
X88173896Y-89187357D01*
X88063097Y-89404812D01*
X87987678Y-89636927D01*
X87949500Y-89877973D01*
X81500500Y-89877973D01*
X81500500Y-84858166D01*
X82474500Y-84858166D01*
X82474500Y-85141833D01*
X82506258Y-85423690D01*
X82506260Y-85423702D01*
X82569380Y-85700253D01*
X82569383Y-85700261D01*
X82663067Y-85967993D01*
X82786139Y-86223554D01*
X82819934Y-86277339D01*
X82937056Y-86463737D01*
X83009913Y-86555097D01*
X83083702Y-86647626D01*
X83113914Y-86685510D01*
X83314490Y-86886086D01*
X83536263Y-87062944D01*
X83776443Y-87213859D01*
X83776445Y-87213860D01*
X83861632Y-87254884D01*
X84032010Y-87336934D01*
X84233092Y-87407295D01*
X84299738Y-87430616D01*
X84299746Y-87430619D01*
X84299749Y-87430619D01*
X84299750Y-87430620D01*
X84576297Y-87493740D01*
X84858166Y-87525499D01*
X84858167Y-87525500D01*
X84858171Y-87525500D01*
X85141833Y-87525500D01*
X85141833Y-87525499D01*
X85423703Y-87493740D01*
X85700250Y-87430620D01*
X85967990Y-87336934D01*
X86136429Y-87255818D01*
X86207857Y-87221420D01*
X86213544Y-87218680D01*
X86223557Y-87213859D01*
X86463737Y-87062944D01*
X86685510Y-86886086D01*
X86886086Y-86685510D01*
X87062944Y-86463737D01*
X87213859Y-86223557D01*
X87224460Y-86201544D01*
X87227611Y-86195002D01*
X87227611Y-86195001D01*
X87257039Y-86133894D01*
X87336934Y-85967990D01*
X87430620Y-85700250D01*
X87493740Y-85423703D01*
X87525500Y-85141829D01*
X87525500Y-84858171D01*
X87525499Y-84858166D01*
X87525499Y-84858163D01*
X87519738Y-84807023D01*
X87495739Y-84594041D01*
X87493740Y-84576297D01*
X87430620Y-84299750D01*
X87430591Y-84299668D01*
X87363393Y-84107626D01*
X87336934Y-84032010D01*
X87213859Y-83776443D01*
X87062944Y-83536263D01*
X86886086Y-83314490D01*
X86685510Y-83113914D01*
X86463737Y-82937056D01*
X86223557Y-82786141D01*
X86223554Y-82786139D01*
X85967993Y-82663067D01*
X85700261Y-82569383D01*
X85700253Y-82569380D01*
X85492839Y-82522040D01*
X85423703Y-82506260D01*
X85423699Y-82506259D01*
X85423690Y-82506258D01*
X85141833Y-82474500D01*
X85141829Y-82474500D01*
X84858171Y-82474500D01*
X84858167Y-82474500D01*
X84576309Y-82506258D01*
X84576297Y-82506260D01*
X84299746Y-82569380D01*
X84299738Y-82569383D01*
X84032006Y-82663067D01*
X83776445Y-82786139D01*
X83536264Y-82937055D01*
X83314490Y-83113913D01*
X83113913Y-83314490D01*
X82937055Y-83536264D01*
X82786139Y-83776445D01*
X82663067Y-84032006D01*
X82569383Y-84299738D01*
X82569380Y-84299746D01*
X82506260Y-84576297D01*
X82506258Y-84576309D01*
X82474500Y-84858166D01*
X81500500Y-84858166D01*
X81500500Y-82257973D01*
X103189500Y-82257973D01*
X103189500Y-82502027D01*
X103200168Y-82569380D01*
X103215006Y-82663067D01*
X103227679Y-82743076D01*
X103303096Y-82975185D01*
X103405189Y-83175555D01*
X103413896Y-83192642D01*
X103557339Y-83390076D01*
X103557343Y-83390081D01*
X103557345Y-83390083D01*
X103729917Y-83562655D01*
X103780588Y-83599470D01*
X103806081Y-83632529D01*
X104454242Y-84280690D01*
X104408426Y-84299668D01*
X104293776Y-84376274D01*
X104196274Y-84473776D01*
X104119668Y-84588426D01*
X104100690Y-84634243D01*
X103481544Y-84015097D01*
X103414319Y-84107626D01*
X103303560Y-84325001D01*
X103228165Y-84557040D01*
X103190000Y-84798006D01*
X103190000Y-85041993D01*
X103228165Y-85282959D01*
X103303560Y-85514998D01*
X103414323Y-85732380D01*
X103481543Y-85824901D01*
X103481544Y-85824902D01*
X104100690Y-85205756D01*
X104119668Y-85251574D01*
X104196274Y-85366224D01*
X104293776Y-85463726D01*
X104408426Y-85540332D01*
X104454242Y-85559309D01*
X103817556Y-86195994D01*
X103816953Y-86198866D01*
X103780590Y-86240528D01*
X103729917Y-86277344D01*
X103557343Y-86449918D01*
X103557339Y-86449923D01*
X103413896Y-86647357D01*
X103303097Y-86864812D01*
X103227678Y-87096927D01*
X103189500Y-87337973D01*
X103189500Y-87582026D01*
X103226170Y-87813553D01*
X103227679Y-87823076D01*
X103303096Y-88055185D01*
X103413762Y-88272380D01*
X103413896Y-88272642D01*
X103557339Y-88470076D01*
X103557343Y-88470081D01*
X103729581Y-88642319D01*
X103763066Y-88703642D01*
X103758082Y-88773334D01*
X103729581Y-88817681D01*
X103557343Y-88989918D01*
X103557339Y-88989923D01*
X103413896Y-89187357D01*
X103303097Y-89404812D01*
X103227678Y-89636927D01*
X103189500Y-89877973D01*
X103189500Y-90122026D01*
X103227678Y-90363072D01*
X103303097Y-90595187D01*
X103413896Y-90812642D01*
X103463854Y-90881404D01*
X103487334Y-90947210D01*
X103471509Y-91015264D01*
X103437848Y-91053555D01*
X103332452Y-91132455D01*
X103246206Y-91247664D01*
X103246202Y-91247671D01*
X103195908Y-91382517D01*
X103189501Y-91442116D01*
X103189501Y-91442123D01*
X103189500Y-91442135D01*
X103189500Y-93637870D01*
X103189501Y-93637876D01*
X103195908Y-93697483D01*
X103246202Y-93832328D01*
X103246206Y-93832335D01*
X103332452Y-93947544D01*
X103332455Y-93947547D01*
X103447664Y-94033793D01*
X103447671Y-94033797D01*
X103582517Y-94084091D01*
X103582516Y-94084091D01*
X103589444Y-94084835D01*
X103642127Y-94090500D01*
X105837872Y-94090499D01*
X105897483Y-94084091D01*
X106032331Y-94033796D01*
X106147546Y-93947546D01*
X106233796Y-93832331D01*
X106284091Y-93697483D01*
X106290500Y-93637873D01*
X106290499Y-91442128D01*
X106284091Y-91382517D01*
X106233796Y-91247669D01*
X106233795Y-91247668D01*
X106233793Y-91247664D01*
X106147547Y-91132455D01*
X106147544Y-91132452D01*
X106042152Y-91053555D01*
X106000281Y-90997621D01*
X105995297Y-90927930D01*
X106016146Y-90881403D01*
X106066103Y-90812643D01*
X106066104Y-90812642D01*
X106066106Y-90812639D01*
X106176904Y-90595185D01*
X106252321Y-90363076D01*
X106290500Y-90122027D01*
X106290500Y-89877973D01*
X106252321Y-89636924D01*
X106176904Y-89404815D01*
X106066106Y-89187361D01*
X106047779Y-89162136D01*
X105922660Y-88989923D01*
X105922656Y-88989918D01*
X105750419Y-88817681D01*
X105716934Y-88756358D01*
X105721918Y-88686666D01*
X105750419Y-88642319D01*
X105829642Y-88563096D01*
X105922655Y-88470083D01*
X106066106Y-88272639D01*
X106176904Y-88055185D01*
X106252321Y-87823076D01*
X106290500Y-87582027D01*
X106290500Y-87337973D01*
X106252321Y-87096924D01*
X106176904Y-86864815D01*
X106066106Y-86647361D01*
X106047779Y-86622136D01*
X105922660Y-86449923D01*
X105922656Y-86449918D01*
X105750081Y-86277343D01*
X105750076Y-86277339D01*
X105699410Y-86240528D01*
X105673919Y-86207471D01*
X105025757Y-85559309D01*
X105071574Y-85540332D01*
X105186224Y-85463726D01*
X105283726Y-85366224D01*
X105360332Y-85251574D01*
X105379309Y-85205757D01*
X105998454Y-85824902D01*
X105998454Y-85824901D01*
X106065678Y-85732377D01*
X106176439Y-85514996D01*
X106251959Y-85282573D01*
X106291397Y-85224897D01*
X106355755Y-85197699D01*
X106424601Y-85209614D01*
X106476077Y-85256858D01*
X106493110Y-85307006D01*
X106506258Y-85423692D01*
X106506260Y-85423702D01*
X106569380Y-85700253D01*
X106569383Y-85700261D01*
X106663067Y-85967993D01*
X106786139Y-86223554D01*
X106819934Y-86277339D01*
X106937056Y-86463737D01*
X107009913Y-86555097D01*
X107083702Y-86647626D01*
X107113914Y-86685510D01*
X107314490Y-86886086D01*
X107536263Y-87062944D01*
X107776443Y-87213859D01*
X107776445Y-87213860D01*
X107861632Y-87254884D01*
X108032010Y-87336934D01*
X108233092Y-87407295D01*
X108299738Y-87430616D01*
X108299746Y-87430619D01*
X108299749Y-87430619D01*
X108299750Y-87430620D01*
X108576297Y-87493740D01*
X108858166Y-87525499D01*
X108858167Y-87525500D01*
X108858171Y-87525500D01*
X109141833Y-87525500D01*
X109141833Y-87525499D01*
X109423703Y-87493740D01*
X109700250Y-87430620D01*
X109967990Y-87336934D01*
X110223557Y-87213859D01*
X110463737Y-87062944D01*
X110685510Y-86886086D01*
X110886086Y-86685510D01*
X111062944Y-86463737D01*
X111213859Y-86223557D01*
X111336934Y-85967990D01*
X111430620Y-85700250D01*
X111493740Y-85423703D01*
X111525500Y-85141829D01*
X111525500Y-84858171D01*
X111493740Y-84576297D01*
X111430620Y-84299750D01*
X111430591Y-84299668D01*
X111363393Y-84107626D01*
X111336934Y-84032010D01*
X111213859Y-83776443D01*
X111062944Y-83536263D01*
X111043966Y-83512465D01*
X116399500Y-83512465D01*
X116399500Y-83687534D01*
X116429898Y-83859937D01*
X116489775Y-84024446D01*
X116577309Y-84176057D01*
X116689836Y-84310163D01*
X116823942Y-84422690D01*
X116823943Y-84422691D01*
X116823945Y-84422692D01*
X116975555Y-84510225D01*
X117140062Y-84570101D01*
X117312468Y-84600500D01*
X117312472Y-84600500D01*
X118187528Y-84600500D01*
X118187532Y-84600500D01*
X118359938Y-84570101D01*
X118524445Y-84510225D01*
X118676055Y-84422692D01*
X118810163Y-84310163D01*
X118922692Y-84176055D01*
X119010225Y-84024445D01*
X119070101Y-83859938D01*
X119100500Y-83687532D01*
X119100500Y-83673920D01*
X124999499Y-83673920D01*
X125028340Y-83818907D01*
X125028343Y-83818917D01*
X125084912Y-83955488D01*
X125084919Y-83955501D01*
X125167048Y-84078415D01*
X125167051Y-84078419D01*
X125271580Y-84182948D01*
X125271584Y-84182951D01*
X125394498Y-84265080D01*
X125394511Y-84265087D01*
X125531082Y-84321656D01*
X125531087Y-84321658D01*
X125531091Y-84321658D01*
X125531092Y-84321659D01*
X125676079Y-84350500D01*
X125676082Y-84350500D01*
X125823920Y-84350500D01*
X125921462Y-84331096D01*
X125968913Y-84321658D01*
X126105495Y-84265084D01*
X126228416Y-84182951D01*
X126332951Y-84078416D01*
X126415084Y-83955495D01*
X126471658Y-83818913D01*
X126481096Y-83771462D01*
X126500500Y-83673920D01*
X126500500Y-83526079D01*
X126471659Y-83381092D01*
X126471658Y-83381091D01*
X126471658Y-83381087D01*
X126444073Y-83314490D01*
X126415087Y-83244511D01*
X126415080Y-83244498D01*
X126332951Y-83121584D01*
X126332948Y-83121580D01*
X126228419Y-83017051D01*
X126228415Y-83017048D01*
X126105501Y-82934919D01*
X126105488Y-82934912D01*
X125968917Y-82878343D01*
X125968907Y-82878340D01*
X125823920Y-82849500D01*
X125823918Y-82849500D01*
X125676082Y-82849500D01*
X125676080Y-82849500D01*
X125531092Y-82878340D01*
X125531082Y-82878343D01*
X125394511Y-82934912D01*
X125394498Y-82934919D01*
X125271584Y-83017048D01*
X125271580Y-83017051D01*
X125167051Y-83121580D01*
X125167048Y-83121584D01*
X125084919Y-83244498D01*
X125084912Y-83244511D01*
X125028343Y-83381082D01*
X125028340Y-83381092D01*
X124999500Y-83526079D01*
X124999500Y-83526082D01*
X124999500Y-83673918D01*
X124999500Y-83673920D01*
X124999499Y-83673920D01*
X119100500Y-83673920D01*
X119100500Y-83600000D01*
X119100500Y-83534108D01*
X119100500Y-83512468D01*
X119070101Y-83340062D01*
X119010225Y-83175555D01*
X118979064Y-83121584D01*
X118922690Y-83023942D01*
X118810163Y-82889836D01*
X118676057Y-82777309D01*
X118524446Y-82689775D01*
X118359937Y-82629898D01*
X118187534Y-82599500D01*
X118187532Y-82599500D01*
X118165892Y-82599500D01*
X117465892Y-82599500D01*
X117400000Y-82599500D01*
X117312468Y-82599500D01*
X117312465Y-82599500D01*
X117140062Y-82629898D01*
X116975553Y-82689775D01*
X116823942Y-82777309D01*
X116689836Y-82889836D01*
X116577309Y-83023942D01*
X116489775Y-83175553D01*
X116429898Y-83340062D01*
X116399500Y-83512465D01*
X111043966Y-83512465D01*
X110886086Y-83314490D01*
X110685510Y-83113914D01*
X110463737Y-82937056D01*
X110223557Y-82786141D01*
X110223554Y-82786139D01*
X109967993Y-82663067D01*
X109700261Y-82569383D01*
X109700253Y-82569380D01*
X109492839Y-82522040D01*
X109423703Y-82506260D01*
X109423699Y-82506259D01*
X109423690Y-82506258D01*
X109141833Y-82474500D01*
X109141829Y-82474500D01*
X108858171Y-82474500D01*
X108858167Y-82474500D01*
X108576309Y-82506258D01*
X108576297Y-82506260D01*
X108299746Y-82569380D01*
X108299738Y-82569383D01*
X108032006Y-82663067D01*
X107776445Y-82786139D01*
X107536264Y-82937055D01*
X107314490Y-83113913D01*
X107113913Y-83314490D01*
X106937055Y-83536264D01*
X106786139Y-83776445D01*
X106663067Y-84032006D01*
X106569383Y-84299738D01*
X106569380Y-84299746D01*
X106506260Y-84576297D01*
X106506258Y-84576304D01*
X106504260Y-84594041D01*
X106477191Y-84658454D01*
X106419596Y-84698008D01*
X106349759Y-84700143D01*
X106289853Y-84664184D01*
X106258899Y-84601545D01*
X106258567Y-84599551D01*
X106251834Y-84557041D01*
X106251834Y-84557040D01*
X106176439Y-84325001D01*
X106065676Y-84107619D01*
X105998456Y-84015097D01*
X105998454Y-84015096D01*
X105379309Y-84634241D01*
X105360332Y-84588426D01*
X105283726Y-84473776D01*
X105186224Y-84376274D01*
X105071574Y-84299668D01*
X105025755Y-84280689D01*
X105662437Y-83644009D01*
X105663039Y-83641145D01*
X105699408Y-83599472D01*
X105750083Y-83562655D01*
X105922655Y-83390083D01*
X106066106Y-83192639D01*
X106176904Y-82975185D01*
X106252321Y-82743076D01*
X106290500Y-82502027D01*
X106290500Y-82257973D01*
X106252321Y-82016924D01*
X106176904Y-81784815D01*
X106066106Y-81567361D01*
X106047779Y-81542136D01*
X105922660Y-81369923D01*
X105922656Y-81369918D01*
X105750081Y-81197343D01*
X105750076Y-81197339D01*
X105552642Y-81053896D01*
X105552641Y-81053895D01*
X105552639Y-81053894D01*
X105335185Y-80943096D01*
X105103076Y-80867679D01*
X105103074Y-80867678D01*
X105103072Y-80867678D01*
X104934769Y-80841021D01*
X104862027Y-80829500D01*
X104617973Y-80829500D01*
X104562093Y-80838350D01*
X104376927Y-80867678D01*
X104144812Y-80943097D01*
X103927357Y-81053896D01*
X103729923Y-81197339D01*
X103729918Y-81197343D01*
X103557343Y-81369918D01*
X103557339Y-81369923D01*
X103413896Y-81567357D01*
X103303097Y-81784812D01*
X103227678Y-82016927D01*
X103189500Y-82257973D01*
X81500500Y-82257973D01*
X81500500Y-80124500D01*
X81520185Y-80057461D01*
X81572989Y-80011706D01*
X81624500Y-80000500D01*
X130375500Y-80000500D01*
X130442539Y-80020185D01*
G37*
G04 #@! TD.AperFunction*
M02*
