M48
; DRILL file {KiCad 9.0.3} date 2025-08-16T00:15:59+0200
; FORMAT={-:-/ absolute / metric / decimal}
; #@! TF.CreationDate,2025-08-16T00:15:59+02:00
; #@! TF.GenerationSoftware,Kicad,Pcbnew,9.0.3
; #@! TF.FileFunction,Plated,1,6,PTH
FMAT,2
METRIC
; #@! TA.AperFunction,Plated,PTH,ViaDrill
T1C0.200
; #@! TA.AperFunction,Plated,PTH,ComponentDrill
T2C0.800
; #@! TA.AperFunction,Plated,PTH,ComponentDrill
T3C0.850
; #@! TA.AperFunction,Plated,PTH,ComponentDrill
T4C1.400
%
G90
G05
T1
X83.185Y-110.49
X83.5Y-92.212
X83.95Y-112.96
X84.328Y-126.873
X84.582Y-116.967
X86.487Y-99.822
X87.505Y-126.494
X88.011Y-117.475
X88.519Y-103.124
X90.0Y-109.087
X90.0Y-114.912
X90.412Y-97.0
X90.412Y-99.0
X91.694Y-127.889
X92.583Y-119.888
X92.71Y-98.044
X94.488Y-125.73
X95.25Y-113.157
X95.631Y-100.965
X96.774Y-120.904
X96.774Y-121.539
X96.774Y-122.174
X96.774Y-123.444
X96.774Y-124.079
X96.774Y-124.714
X96.926Y-126.086
X96.926Y-126.644
X96.926Y-127.203
X97.663Y-114.046
X97.663Y-116.332
X97.663Y-120.904
X97.663Y-121.539
X97.663Y-122.174
X97.663Y-123.444
X97.663Y-124.079
X97.663Y-124.714
X97.688Y-126.086
X97.688Y-126.644
X97.688Y-127.203
X98.552Y-102.489
X98.552Y-120.904
X98.552Y-121.539
X98.552Y-122.174
X98.552Y-123.444
X98.552Y-124.079
X98.552Y-124.714
X98.603Y-126.086
X98.603Y-126.644
X98.603Y-127.203
X102.108Y-98.552
X103.505Y-98.552
X104.267Y-119.761
X104.267Y-120.396
X104.521Y-125.095
X104.902Y-119.761
X104.902Y-120.396
X105.029Y-112.522
X105.029Y-113.411
X105.475Y-105.0
X107.315Y-112.903
X107.315Y-113.665
X107.315Y-114.3
X107.823Y-112.903
X107.823Y-113.665
X107.823Y-114.3
X110.49Y-115.189
X112.903Y-83.947
X112.903Y-118.491
X113.411Y-93.853
X113.792Y-126.746
X113.822Y-116.438
X115.443Y-91.821
X115.951Y-117.094
X116.0Y-102.412
X116.078Y-118.491
X116.332Y-125.984
X116.459Y-125.476
X116.967Y-125.349
X117.475Y-116.84
X117.705Y-113.56
X117.705Y-115.443
X118.0Y-102.412
X118.237Y-110.998
X118.491Y-99.06
X118.55Y-94.65
X119.634Y-126.492
X119.634Y-127.0
X119.634Y-127.508
X119.65Y-94.65
X119.761Y-110.998
X120.0Y-102.412
X120.0Y-121.0
X120.015Y-99.441
X120.015Y-119.253
X120.294Y-113.589
X120.75Y-94.65
X121.92Y-94.234
X121.92Y-95.123
X122.0Y-100.587
X122.0Y-102.412
X122.174Y-97.536
X122.174Y-126.619
X122.174Y-127.381
X122.5Y-119.087
X122.5Y-120.912
X122.53Y-126.949
X122.936Y-94.65
X122.936Y-126.619
X122.936Y-127.381
X123.825Y-97.536
X124.0Y-102.412
X124.079Y-94.234
X124.079Y-94.996
X125.15Y-94.65
X125.984Y-114.046
X125.984Y-115.57
X126.0Y-102.412
X126.25Y-94.65
X126.873Y-97.536
X127.35Y-94.65
X128.0Y-102.5
X128.219Y-113.284
X128.219Y-114.198
X128.27Y-115.824
X128.27Y-116.713
X128.651Y-83.947
X128.905Y-93.599
X128.981Y-113.741
X129.0Y-116.27
X129.642Y-113.335
X129.642Y-114.249
X129.794Y-115.824
X129.794Y-116.713
T2
X89.916Y-118.888
X89.916Y-120.888
T3
X92.0Y-103.5
X112.5Y-103.5
T4
X89.5Y-59.52
X89.5Y-62.06
X89.5Y-87.46
X89.5Y-90.0
X89.5Y-92.54
X104.74Y-82.38
X104.74Y-84.92
X104.74Y-87.46
X104.74Y-90.0
X104.74Y-92.54
M30
