G04 #@! TF.GenerationSoftware,KiCad,Pcbnew,9.0.3*
G04 #@! TF.CreationDate,2025-08-16T00:12:18+02:00*
G04 #@! TF.ProjectId,fw-anwesenheit,66772d61-6e77-4657-9365-6e686569742e,rev?*
G04 #@! TF.SameCoordinates,Original*
G04 #@! TF.FileFunction,Paste,Top*
G04 #@! TF.FilePolarity,Positive*
%FSLAX46Y46*%
G04 Gerber Fmt 4.6, Leading zero omitted, Abs format (unit mm)*
G04 Created by KiCad (PCBNEW 9.0.3) date 2025-08-16 00:12:18*
%MOMM*%
%LPD*%
G01*
G04 APERTURE LIST*
G04 Aperture macros list*
%AMRoundRect*
0 Rectangle with rounded corners*
0 $1 Rounding radius*
0 $2 $3 $4 $5 $6 $7 $8 $9 X,Y pos of 4 corners*
0 Add a 4 corners polygon primitive as box body*
4,1,4,$2,$3,$4,$5,$6,$7,$8,$9,$2,$3,0*
0 Add four circle primitives for the rounded corners*
1,1,$1+$1,$2,$3*
1,1,$1+$1,$4,$5*
1,1,$1+$1,$6,$7*
1,1,$1+$1,$8,$9*
0 Add four rect primitives between the rounded corners*
20,1,$1+$1,$2,$3,$4,$5,0*
20,1,$1+$1,$4,$5,$6,$7,0*
20,1,$1+$1,$6,$7,$8,$9,0*
20,1,$1+$1,$8,$9,$2,$3,0*%
%AMOutline5P*
0 Free polygon, 5 corners , with rotation*
0 The origin of the aperture is its center*
0 number of corners: always 5*
0 $1 to $10 corner X, Y*
0 $11 Rotation angle, in degrees counterclockwise*
0 create outline with 5 corners*
4,1,5,$1,$2,$3,$4,$5,$6,$7,$8,$9,$10,$1,$2,$11*%
%AMOutline6P*
0 Free polygon, 6 corners , with rotation*
0 The origin of the aperture is its center*
0 number of corners: always 6*
0 $1 to $12 corner X, Y*
0 $13 Rotation angle, in degrees counterclockwise*
0 create outline with 6 corners*
4,1,6,$1,$2,$3,$4,$5,$6,$7,$8,$9,$10,$11,$12,$1,$2,$13*%
%AMOutline7P*
0 Free polygon, 7 corners , with rotation*
0 The origin of the aperture is its center*
0 number of corners: always 7*
0 $1 to $14 corner X, Y*
0 $15 Rotation angle, in degrees counterclockwise*
0 create outline with 7 corners*
4,1,7,$1,$2,$3,$4,$5,$6,$7,$8,$9,$10,$11,$12,$13,$14,$1,$2,$15*%
%AMOutline8P*
0 Free polygon, 8 corners , with rotation*
0 The origin of the aperture is its center*
0 number of corners: always 8*
0 $1 to $16 corner X, Y*
0 $17 Rotation angle, in degrees counterclockwise*
0 create outline with 8 corners*
4,1,8,$1,$2,$3,$4,$5,$6,$7,$8,$9,$10,$11,$12,$13,$14,$15,$16,$1,$2,$17*%
G04 Aperture macros list end*
%ADD10RoundRect,0.225000X0.225000X0.250000X-0.225000X0.250000X-0.225000X-0.250000X0.225000X-0.250000X0*%
%ADD11Outline5P,-1.250000X0.510000X-0.910000X0.850000X1.250000X0.850000X1.250000X-0.850000X-1.250000X-0.850000X0.000000*%
%ADD12RoundRect,0.170000X-1.080000X-0.680000X1.080000X-0.680000X1.080000X0.680000X-1.080000X0.680000X0*%
%ADD13RoundRect,0.250000X-1.000000X-0.600000X1.000000X-0.600000X1.000000X0.600000X-1.000000X0.600000X0*%
%ADD14RoundRect,0.500000X0.875000X0.500000X-0.875000X0.500000X-0.875000X-0.500000X0.875000X-0.500000X0*%
%ADD15RoundRect,0.275000X0.275000X-0.975000X0.275000X0.975000X-0.275000X0.975000X-0.275000X-0.975000X0*%
%ADD16C,1.700000*%
%ADD17RoundRect,0.150000X-0.825000X-0.150000X0.825000X-0.150000X0.825000X0.150000X-0.825000X0.150000X0*%
%ADD18RoundRect,0.218750X0.256250X-0.218750X0.256250X0.218750X-0.256250X0.218750X-0.256250X-0.218750X0*%
%ADD19RoundRect,0.237500X0.237500X-0.250000X0.237500X0.250000X-0.237500X0.250000X-0.237500X-0.250000X0*%
%ADD20RoundRect,0.237500X-0.237500X0.250000X-0.237500X-0.250000X0.237500X-0.250000X0.237500X0.250000X0*%
%ADD21RoundRect,0.237500X0.250000X0.237500X-0.250000X0.237500X-0.250000X-0.237500X0.250000X-0.237500X0*%
%ADD22R,1.270000X0.558800*%
%ADD23RoundRect,0.225000X-0.225000X-0.250000X0.225000X-0.250000X0.225000X0.250000X-0.225000X0.250000X0*%
%ADD24RoundRect,0.237500X-0.250000X-0.237500X0.250000X-0.237500X0.250000X0.237500X-0.250000X0.237500X0*%
%ADD25RoundRect,0.225000X0.250000X-0.225000X0.250000X0.225000X-0.250000X0.225000X-0.250000X-0.225000X0*%
%ADD26R,0.700000X1.900000*%
%ADD27R,1.700000X1.800000*%
%ADD28R,1.400000X2.600000*%
%ADD29RoundRect,0.225000X-0.250000X0.225000X-0.250000X-0.225000X0.250000X-0.225000X0.250000X0.225000X0*%
G04 APERTURE END LIST*
D10*
X123775000Y-97500000D03*
X122225000Y-97500000D03*
D11*
X129000000Y-111190000D03*
D12*
X129000000Y-113730000D03*
D13*
X129000000Y-116270000D03*
D14*
X113821600Y-126598500D03*
X113821600Y-124058500D03*
X113821600Y-121518500D03*
X113821600Y-118978500D03*
X113821600Y-116438500D03*
X113821600Y-113898500D03*
X113821600Y-111358500D03*
X97656600Y-111358500D03*
X97656600Y-113898500D03*
X97656600Y-116438500D03*
X97656600Y-118978500D03*
X97656600Y-121518500D03*
X97656600Y-124058500D03*
X97656600Y-126598500D03*
D15*
X107548000Y-113446800D03*
X105008000Y-113446800D03*
D16*
X107040000Y-127620000D03*
X104500000Y-127620000D03*
X107040000Y-125080000D03*
X104500000Y-125080000D03*
X107040000Y-122540000D03*
X104500000Y-122540000D03*
X107040000Y-120000000D03*
X104592600Y-120056800D03*
D17*
X100525000Y-101190000D03*
X100525000Y-102460000D03*
X100525000Y-103730000D03*
X100525000Y-105000000D03*
X105475000Y-105000000D03*
X105475000Y-103730000D03*
X105475000Y-102460000D03*
X105475000Y-101190000D03*
D18*
X83500000Y-93787500D03*
X83500000Y-92212500D03*
D19*
X120000000Y-102412500D03*
X120000000Y-100587500D03*
X122000000Y-102412500D03*
X122000000Y-100587500D03*
D20*
X90000000Y-109087500D03*
X90000000Y-110912500D03*
D10*
X103500000Y-98500000D03*
X101950000Y-98500000D03*
D19*
X116000000Y-102412500D03*
X116000000Y-100587500D03*
D21*
X90412500Y-97000000D03*
X88587500Y-97000000D03*
X90412500Y-99000000D03*
X88587500Y-99000000D03*
D22*
X117704600Y-113560200D03*
X117704600Y-114500000D03*
X117704600Y-115439800D03*
X120295400Y-115439800D03*
X120295400Y-113560200D03*
D23*
X118225000Y-111000000D03*
X119775000Y-111000000D03*
D20*
X86000000Y-92087500D03*
X86000000Y-93912500D03*
D24*
X123087500Y-111000000D03*
X124912500Y-111000000D03*
D19*
X124000000Y-102412500D03*
X124000000Y-100587500D03*
X128000000Y-102500000D03*
X128000000Y-100675000D03*
X118000000Y-102412500D03*
X118000000Y-100587500D03*
D25*
X125984000Y-115583000D03*
X125984000Y-114033000D03*
D19*
X122500000Y-120912500D03*
X122500000Y-119087500D03*
D20*
X90000000Y-113087500D03*
X90000000Y-114912500D03*
D26*
X118550000Y-94650000D03*
X119650000Y-94650000D03*
X120750000Y-94650000D03*
X121850000Y-94650000D03*
X122950000Y-94650000D03*
X124050000Y-94650000D03*
X125150000Y-94650000D03*
X126250000Y-94650000D03*
X127350000Y-94650000D03*
D27*
X128900000Y-93600000D03*
X113400000Y-93600000D03*
D28*
X128650000Y-84000000D03*
X112950000Y-84000000D03*
D19*
X126000000Y-102412500D03*
X126000000Y-100587500D03*
X120000000Y-121000000D03*
X120000000Y-119175000D03*
D29*
X94500000Y-124225000D03*
X94500000Y-125775000D03*
M02*
