M48
; DRILL file {KiCad 9.0.3} date 2025-08-23T15:15:25+0200
; FORMAT={-:-/ absolute / metric / decimal}
; #@! TF.CreationDate,2025-08-23T15:15:25+02:00
; #@! TF.GenerationSoftware,Kicad,Pcbnew,9.0.3
; #@! TF.FileFunction,Plated,1,6,PTH
FMAT,2
METRIC
; #@! TA.AperFunction,Plated,PTH,ViaDrill
T1C0.200
; #@! TA.AperFunction,Plated,PTH,ComponentDrill
T2C0.800
; #@! TA.AperFunction,Plated,PTH,ComponentDrill
T3C0.850
; #@! TA.AperFunction,Plated,PTH,ComponentDrill
T4C1.400
%
G90
G05
T1
X82.677Y-80.645
X83.185Y-110.49
X83.5Y-92.212
X83.95Y-112.96
X84.328Y-126.873
X84.582Y-116.967
X84.709Y-80.645
X85.979Y-97.79
X86.487Y-99.822
X86.741Y-80.645
X87.505Y-126.494
X88.011Y-117.475
X88.519Y-103.124
X88.773Y-80.645
X90.0Y-109.087
X90.0Y-114.912
X90.412Y-97.0
X90.412Y-99.0
X90.805Y-80.645
X91.694Y-127.889
X92.583Y-119.888
X92.71Y-98.044
X92.837Y-80.645
X94.488Y-124.206
X94.488Y-125.73
X94.869Y-80.645
X94.869Y-128.397
X95.25Y-113.157
X95.377Y-118.364
X95.618Y-98.552
X95.885Y-101.092
X96.774Y-120.904
X96.774Y-121.539
X96.774Y-122.174
X96.774Y-123.444
X96.774Y-124.079
X96.774Y-124.714
X96.901Y-80.645
X96.901Y-128.397
X96.926Y-126.086
X96.926Y-126.644
X96.926Y-127.203
X97.168Y-98.552
X97.663Y-114.046
X97.663Y-116.332
X97.663Y-120.904
X97.663Y-121.539
X97.663Y-122.174
X97.663Y-123.444
X97.663Y-124.079
X97.663Y-124.714
X97.688Y-126.086
X97.688Y-126.644
X97.688Y-127.203
X98.044Y-102.362
X98.044Y-103.632
X98.044Y-104.902
X98.044Y-106.172
X98.552Y-94.361
X98.552Y-120.904
X98.552Y-121.539
X98.552Y-122.174
X98.552Y-123.444
X98.552Y-124.079
X98.552Y-124.714
X98.603Y-126.086
X98.603Y-126.644
X98.603Y-127.203
X98.933Y-80.645
X98.933Y-128.397
X100.965Y-80.645
X100.965Y-128.397
X102.489Y-98.552
X102.616Y-94.361
X102.743Y-123.317
X102.997Y-80.645
X102.997Y-128.397
X103.886Y-107.95
X104.267Y-119.761
X104.267Y-120.396
X104.521Y-125.095
X104.648Y-97.663
X104.902Y-119.761
X104.902Y-120.396
X105.029Y-80.645
X105.029Y-112.522
X105.029Y-113.411
X105.475Y-105.0
X107.061Y-80.645
X107.315Y-112.903
X107.315Y-113.665
X107.315Y-114.3
X107.442Y-107.95
X107.823Y-112.903
X107.823Y-113.665
X107.823Y-114.3
X108.839Y-120.396
X108.966Y-98.552
X108.966Y-112.014
X109.093Y-80.645
X109.093Y-128.397
X109.22Y-97.282
X109.791Y-110.68
X110.109Y-123.571
X110.49Y-115.189
X110.744Y-101.092
X110.744Y-102.362
X110.744Y-103.632
X110.744Y-104.902
X110.744Y-106.172
X110.871Y-123.571
X111.125Y-80.645
X111.125Y-128.397
X111.379Y-107.95
X112.903Y-83.947
X112.903Y-118.491
X113.157Y-80.645
X113.157Y-128.397
X113.411Y-93.853
X113.792Y-126.746
X113.822Y-116.438
X115.189Y-80.645
X115.189Y-128.397
X115.443Y-91.821
X115.951Y-117.094
X116.0Y-102.412
X116.078Y-118.491
X116.332Y-125.984
X116.459Y-125.476
X116.967Y-125.349
X117.221Y-80.645
X117.221Y-128.397
X117.475Y-116.84
X117.705Y-113.56
X117.705Y-115.443
X117.729Y-123.571
X118.0Y-102.412
X118.237Y-110.998
X118.364Y-123.571
X118.491Y-99.06
X118.55Y-94.65
X119.253Y-80.645
X119.253Y-128.397
X119.634Y-126.492
X119.634Y-127.0
X119.634Y-127.508
X119.65Y-94.65
X119.761Y-92.329
X119.761Y-110.998
X120.0Y-102.412
X120.0Y-121.0
X120.015Y-99.441
X120.015Y-119.253
X120.294Y-113.589
X120.75Y-94.65
X121.285Y-80.645
X121.285Y-128.397
X121.92Y-94.234
X121.92Y-95.123
X122.0Y-100.587
X122.0Y-102.412
X122.047Y-99.06
X122.174Y-97.536
X122.174Y-126.619
X122.174Y-127.381
X122.301Y-111.887
X122.301Y-115.697
X122.5Y-119.087
X122.5Y-120.912
X122.53Y-126.949
X122.936Y-94.65
X122.936Y-126.619
X122.936Y-127.381
X123.317Y-80.645
X123.317Y-128.397
X123.825Y-97.536
X124.0Y-102.412
X124.079Y-94.234
X124.079Y-94.996
X125.15Y-94.65
X125.349Y-80.645
X125.349Y-128.397
X125.73Y-92.837
X125.984Y-114.046
X125.984Y-115.57
X126.0Y-102.412
X126.25Y-94.65
X126.873Y-97.536
X127.35Y-94.65
X127.381Y-80.645
X127.381Y-128.397
X128.0Y-102.5
X128.219Y-113.284
X128.219Y-114.198
X128.27Y-115.824
X128.27Y-116.713
X128.651Y-83.947
X128.905Y-93.599
X128.981Y-113.741
X129.0Y-116.27
X129.413Y-80.645
X129.413Y-128.397
X129.642Y-113.335
X129.642Y-114.249
X129.794Y-115.824
X129.794Y-116.713
T2
X89.916Y-118.888
X89.916Y-120.888
T3
X92.911Y-103.378
X113.411Y-103.378
T4
X89.5Y-59.52
X89.5Y-62.06
X89.5Y-87.46
X89.5Y-90.0
X89.5Y-92.54
X104.74Y-82.38
X104.74Y-84.92
X104.74Y-87.46
X104.74Y-90.0
X104.74Y-92.54
M30
