G04 #@! TF.GenerationSoftware,KiCad,Pcbnew,9.0.3*
G04 #@! TF.CreationDate,2025-08-16T00:12:18+02:00*
G04 #@! TF.ProjectId,fw-anwesenheit,66772d61-6e77-4657-9365-6e686569742e,rev?*
G04 #@! TF.SameCoordinates,Original*
G04 #@! TF.FileFunction,Legend,Bot*
G04 #@! TF.FilePolarity,Positive*
%FSLAX46Y46*%
G04 Gerber Fmt 4.6, Leading zero omitted, Abs format (unit mm)*
G04 Created by KiCad (PCBNEW 9.0.3) date 2025-08-16 00:12:18*
%MOMM*%
%LPD*%
G01*
G04 APERTURE LIST*
G04 Aperture macros list*
%AMRoundRect*
0 Rectangle with rounded corners*
0 $1 Rounding radius*
0 $2 $3 $4 $5 $6 $7 $8 $9 X,Y pos of 4 corners*
0 Add a 4 corners polygon primitive as box body*
4,1,4,$2,$3,$4,$5,$6,$7,$8,$9,$2,$3,0*
0 Add four circle primitives for the rounded corners*
1,1,$1+$1,$2,$3*
1,1,$1+$1,$4,$5*
1,1,$1+$1,$6,$7*
1,1,$1+$1,$8,$9*
0 Add four rect primitives between the rounded corners*
20,1,$1+$1,$2,$3,$4,$5,0*
20,1,$1+$1,$4,$5,$6,$7,0*
20,1,$1+$1,$6,$7,$8,$9,0*
20,1,$1+$1,$8,$9,$2,$3,0*%
G04 Aperture macros list end*
%ADD10C,0.300000*%
%ADD11C,0.100000*%
%ADD12C,0.150000*%
%ADD13C,0.120000*%
%ADD14R,1.350000X1.350000*%
%ADD15C,1.350000*%
%ADD16C,2.304000*%
%ADD17RoundRect,0.102000X-1.050000X1.050000X-1.050000X-1.050000X1.050000X-1.050000X1.050000X1.050000X0*%
%ADD18R,1.700000X1.700000*%
%ADD19C,1.700000*%
%ADD20C,1.000000*%
%ADD21C,1.500000*%
%ADD22R,1.600000X2.000000*%
%ADD23O,1.600000X2.000000*%
G04 APERTURE END LIST*
D10*
G36*
X84914859Y-110627667D02*
G01*
X85193571Y-110590053D01*
X85208516Y-110666572D01*
X85232734Y-110725832D01*
X85265287Y-110771281D01*
X85307214Y-110806225D01*
X85353807Y-110826862D01*
X85406703Y-110833905D01*
X85463194Y-110825834D01*
X85512595Y-110802142D01*
X85556821Y-110761707D01*
X85589757Y-110709981D01*
X85610419Y-110646117D01*
X85617821Y-110566801D01*
X85610730Y-110491785D01*
X85590945Y-110431528D01*
X85559386Y-110382838D01*
X85517137Y-110344783D01*
X85470248Y-110322510D01*
X85416962Y-110314938D01*
X85359456Y-110320134D01*
X85284796Y-110337897D01*
X85316578Y-110089844D01*
X85392751Y-110084550D01*
X85450756Y-110065992D01*
X85494814Y-110036110D01*
X85528798Y-109994261D01*
X85549227Y-109944537D01*
X85556363Y-109884484D01*
X85550986Y-109832877D01*
X85535820Y-109790864D01*
X85511209Y-109756306D01*
X85478677Y-109730183D01*
X85439386Y-109714117D01*
X85391408Y-109708434D01*
X85344247Y-109714551D01*
X85302681Y-109732450D01*
X85265287Y-109762656D01*
X85236256Y-109802131D01*
X85214823Y-109853875D01*
X85201814Y-109921023D01*
X84936383Y-109873347D01*
X84959491Y-109777207D01*
X84987619Y-109700344D01*
X85019914Y-109639655D01*
X85061345Y-109586268D01*
X85112806Y-109540541D01*
X85175619Y-109502196D01*
X85243668Y-109474739D01*
X85317948Y-109457880D01*
X85399559Y-109452077D01*
X85503763Y-109461755D01*
X85593547Y-109489403D01*
X85671591Y-109534093D01*
X85739820Y-109596473D01*
X85787036Y-109659133D01*
X85819576Y-109723841D01*
X85838851Y-109791508D01*
X85845333Y-109863382D01*
X85837087Y-109942550D01*
X85812806Y-110014254D01*
X85771848Y-110080463D01*
X85711881Y-110142361D01*
X85629087Y-110200242D01*
X85710576Y-110228678D01*
X85778672Y-110272638D01*
X85835533Y-110332719D01*
X85878102Y-110405079D01*
X85903966Y-110487038D01*
X85912927Y-110581163D01*
X85903760Y-110683645D01*
X85876927Y-110776545D01*
X85832324Y-110861967D01*
X85768397Y-110941372D01*
X85692076Y-111006293D01*
X85607868Y-111052379D01*
X85514177Y-111080535D01*
X85408810Y-111090263D01*
X85308179Y-111081746D01*
X85219558Y-111057259D01*
X85140879Y-111017580D01*
X85070564Y-110962377D01*
X85010882Y-110893974D01*
X84965347Y-110816417D01*
X84933252Y-110728312D01*
X84914859Y-110627667D01*
G37*
G36*
X86145935Y-110752621D02*
G01*
X86433897Y-110752621D01*
X86433897Y-110971756D01*
X86427774Y-111097612D01*
X86412373Y-111181512D01*
X86381723Y-111253610D01*
X86330857Y-111319460D01*
X86264452Y-111372975D01*
X86178725Y-111415399D01*
X86122396Y-111284094D01*
X86200175Y-111246431D01*
X86246410Y-111201930D01*
X86273756Y-111143078D01*
X86285337Y-111059000D01*
X86145935Y-111059000D01*
X86145935Y-110752621D01*
G37*
G36*
X86664615Y-110627667D02*
G01*
X86943327Y-110590053D01*
X86958272Y-110666572D01*
X86982490Y-110725832D01*
X87015043Y-110771281D01*
X87056970Y-110806225D01*
X87103562Y-110826862D01*
X87156459Y-110833905D01*
X87212949Y-110825834D01*
X87262351Y-110802142D01*
X87306577Y-110761707D01*
X87339513Y-110709981D01*
X87360175Y-110646117D01*
X87367577Y-110566801D01*
X87360486Y-110491785D01*
X87340700Y-110431528D01*
X87309142Y-110382838D01*
X87266893Y-110344783D01*
X87220004Y-110322510D01*
X87166717Y-110314938D01*
X87109212Y-110320134D01*
X87034551Y-110337897D01*
X87066334Y-110089844D01*
X87142507Y-110084550D01*
X87200512Y-110065992D01*
X87244570Y-110036110D01*
X87278553Y-109994261D01*
X87298983Y-109944537D01*
X87306119Y-109884484D01*
X87300742Y-109832877D01*
X87285576Y-109790864D01*
X87260965Y-109756306D01*
X87228433Y-109730183D01*
X87189142Y-109714117D01*
X87141163Y-109708434D01*
X87094003Y-109714551D01*
X87052437Y-109732450D01*
X87015043Y-109762656D01*
X86986012Y-109802131D01*
X86964578Y-109853875D01*
X86951570Y-109921023D01*
X86686139Y-109873347D01*
X86709247Y-109777207D01*
X86737375Y-109700344D01*
X86769670Y-109639655D01*
X86811101Y-109586268D01*
X86862562Y-109540541D01*
X86925375Y-109502196D01*
X86993423Y-109474739D01*
X87067704Y-109457880D01*
X87149315Y-109452077D01*
X87253519Y-109461755D01*
X87343303Y-109489403D01*
X87421347Y-109534093D01*
X87489576Y-109596473D01*
X87536792Y-109659133D01*
X87569332Y-109723841D01*
X87588607Y-109791508D01*
X87595089Y-109863382D01*
X87586843Y-109942550D01*
X87562562Y-110014254D01*
X87521604Y-110080463D01*
X87461637Y-110142361D01*
X87378842Y-110200242D01*
X87460332Y-110228678D01*
X87528427Y-110272638D01*
X87585289Y-110332719D01*
X87627858Y-110405079D01*
X87653721Y-110487038D01*
X87662683Y-110581163D01*
X87653516Y-110683645D01*
X87626682Y-110776545D01*
X87582080Y-110861967D01*
X87518152Y-110941372D01*
X87441831Y-111006293D01*
X87357624Y-111052379D01*
X87263932Y-111080535D01*
X87158566Y-111090263D01*
X87057934Y-111081746D01*
X86969313Y-111057259D01*
X86890635Y-111017580D01*
X86820320Y-110962377D01*
X86760638Y-110893974D01*
X86715103Y-110816417D01*
X86683008Y-110728312D01*
X86664615Y-110627667D01*
G37*
G36*
X88288158Y-111059000D02*
G01*
X87751252Y-109452077D01*
X88080155Y-109452077D01*
X88460350Y-110640074D01*
X88828179Y-109452077D01*
X89149939Y-109452077D01*
X88611933Y-111059000D01*
X88288158Y-111059000D01*
G37*
G36*
X85687522Y-113159254D02*
G01*
X85687522Y-112890391D01*
X86341207Y-112890391D01*
X86341207Y-113531382D01*
X86273557Y-113590101D01*
X86183082Y-113647740D01*
X86065060Y-113703817D01*
X85942937Y-113745452D01*
X85821105Y-113770089D01*
X85698696Y-113778263D01*
X85580940Y-113771198D01*
X85474105Y-113750759D01*
X85376799Y-113717739D01*
X85287818Y-113672457D01*
X85205443Y-113613636D01*
X85134640Y-113544088D01*
X85074469Y-113463136D01*
X85024494Y-113369595D01*
X84975849Y-113235541D01*
X84946397Y-113093323D01*
X84936383Y-112941193D01*
X84942869Y-112815847D01*
X84961748Y-112700458D01*
X84992439Y-112593778D01*
X85034752Y-112494718D01*
X85089682Y-112402698D01*
X85155462Y-112322668D01*
X85232755Y-112253650D01*
X85322714Y-112195178D01*
X85421790Y-112152311D01*
X85540393Y-112124881D01*
X85682393Y-112115066D01*
X85824053Y-112124084D01*
X85941608Y-112149176D01*
X86038956Y-112188097D01*
X86119374Y-112239630D01*
X86190644Y-112307420D01*
X86247701Y-112386392D01*
X86291431Y-112477901D01*
X86321790Y-112584013D01*
X86020547Y-112646539D01*
X85992664Y-112571915D01*
X85953041Y-112510002D01*
X85901112Y-112458960D01*
X85839793Y-112421610D01*
X85767742Y-112398376D01*
X85682393Y-112390182D01*
X85584738Y-112399310D01*
X85501136Y-112425324D01*
X85428953Y-112467284D01*
X85366312Y-112525785D01*
X85317799Y-112596432D01*
X85281241Y-112684359D01*
X85257563Y-112793299D01*
X85248984Y-112927907D01*
X85257785Y-113073826D01*
X85281960Y-113191065D01*
X85319027Y-113284822D01*
X85367777Y-113359337D01*
X85431686Y-113422143D01*
X85503687Y-113466541D01*
X85585416Y-113493707D01*
X85679278Y-113503147D01*
X85773839Y-113493249D01*
X85870429Y-113462799D01*
X85961149Y-113417125D01*
X86034835Y-113364906D01*
X86034835Y-113159254D01*
X85687522Y-113159254D01*
G37*
G36*
X86624315Y-113747000D02*
G01*
X86624315Y-112140077D01*
X86919422Y-112140077D01*
X87534181Y-113215820D01*
X87534181Y-112140077D01*
X87816006Y-112140077D01*
X87816006Y-113747000D01*
X87511649Y-113747000D01*
X86906049Y-112687279D01*
X86906049Y-113747000D01*
X86624315Y-113747000D01*
G37*
G36*
X88866090Y-112148999D02*
G01*
X88975641Y-112170754D01*
X89059852Y-112205836D01*
X89134969Y-112254937D01*
X89202146Y-112318765D01*
X89259135Y-112393651D01*
X89306959Y-112479961D01*
X89345577Y-112579128D01*
X89371652Y-112683094D01*
X89388638Y-112808479D01*
X89394762Y-112958877D01*
X89389145Y-113090757D01*
X89373349Y-113203954D01*
X89348691Y-113300914D01*
X89304213Y-113413586D01*
X89250481Y-113507364D01*
X89187766Y-113584725D01*
X89131599Y-113633676D01*
X89061363Y-113676592D01*
X88974633Y-113713001D01*
X88865571Y-113737415D01*
X88706180Y-113747000D01*
X88135476Y-113747000D01*
X88135476Y-113478137D01*
X88438734Y-113478137D01*
X88665239Y-113478137D01*
X88783452Y-113473481D01*
X88848604Y-113462701D01*
X88917239Y-113435394D01*
X88971061Y-113395583D01*
X88999216Y-113360831D01*
X89025866Y-113310328D01*
X89050471Y-113239756D01*
X89072499Y-113121329D01*
X89081245Y-112944124D01*
X89072348Y-112767959D01*
X89050471Y-112656699D01*
X89012180Y-112564937D01*
X88964375Y-112500384D01*
X88902774Y-112453914D01*
X88824058Y-112424376D01*
X88745385Y-112413844D01*
X88575022Y-112408939D01*
X88438734Y-112408939D01*
X88438734Y-113478137D01*
X88135476Y-113478137D01*
X88135476Y-112140077D01*
X88689785Y-112140077D01*
X88866090Y-112148999D01*
G37*
G36*
X84911837Y-115922285D02*
G01*
X85206943Y-115891022D01*
X85232675Y-115990353D01*
X85269056Y-116064457D01*
X85315021Y-116118558D01*
X85372945Y-116157552D01*
X85444971Y-116182253D01*
X85534839Y-116191147D01*
X85630889Y-116182721D01*
X85702631Y-116160140D01*
X85755665Y-116125983D01*
X85798108Y-116078347D01*
X85822037Y-116028161D01*
X85829946Y-115973576D01*
X85821971Y-115921267D01*
X85798713Y-115878321D01*
X85759646Y-115844045D01*
X85689537Y-115809933D01*
X85446729Y-115738810D01*
X85285405Y-115685996D01*
X85175508Y-115632073D01*
X85104453Y-115578489D01*
X85043008Y-115506867D01*
X85000398Y-115429851D01*
X84974863Y-115346089D01*
X84966150Y-115253548D01*
X84973333Y-115173356D01*
X84994794Y-115096906D01*
X85031180Y-115022885D01*
X85080160Y-114957806D01*
X85142063Y-114903409D01*
X85218759Y-114859242D01*
X85302033Y-114829121D01*
X85399731Y-114809900D01*
X85514323Y-114803066D01*
X85657748Y-114812891D01*
X85773344Y-114839914D01*
X85866109Y-114881404D01*
X85940130Y-114936032D01*
X86002722Y-115007454D01*
X86048231Y-115089004D01*
X86077590Y-115182541D01*
X86090248Y-115290771D01*
X85786898Y-115303276D01*
X85767350Y-115224224D01*
X85739178Y-115166705D01*
X85703367Y-115125956D01*
X85657797Y-115097774D01*
X85595464Y-115078981D01*
X85511300Y-115071929D01*
X85424567Y-115079270D01*
X85356894Y-115099292D01*
X85304305Y-115130059D01*
X85277296Y-115158022D01*
X85261541Y-115190689D01*
X85256128Y-115229710D01*
X85267107Y-115282012D01*
X85301191Y-115327309D01*
X85344353Y-115355597D01*
X85430103Y-115391311D01*
X85579902Y-115435460D01*
X85785635Y-115497667D01*
X85907249Y-115551817D01*
X85973482Y-115596958D01*
X86028435Y-115651111D01*
X86073212Y-115714874D01*
X86105602Y-115786477D01*
X86125984Y-115870766D01*
X86133204Y-115970450D01*
X86125280Y-116060171D01*
X86101604Y-116145797D01*
X86061488Y-116228761D01*
X86007492Y-116301684D01*
X85940458Y-116361082D01*
X85858614Y-116407742D01*
X85769470Y-116438831D01*
X85661649Y-116458996D01*
X85531725Y-116466263D01*
X85387948Y-116456196D01*
X85269929Y-116428264D01*
X85173220Y-116384940D01*
X85094195Y-116327337D01*
X85027651Y-116252821D01*
X84974942Y-116162426D01*
X84935962Y-116053459D01*
X84911837Y-115922285D01*
G37*
G36*
X87117800Y-114836999D02*
G01*
X87227351Y-114858754D01*
X87311562Y-114893836D01*
X87386679Y-114942937D01*
X87453855Y-115006765D01*
X87510845Y-115081651D01*
X87558668Y-115167961D01*
X87597287Y-115267128D01*
X87623362Y-115371094D01*
X87640347Y-115496479D01*
X87646471Y-115646877D01*
X87640855Y-115778757D01*
X87625058Y-115891954D01*
X87600401Y-115988914D01*
X87555923Y-116101586D01*
X87502191Y-116195364D01*
X87439476Y-116272725D01*
X87383309Y-116321676D01*
X87313073Y-116364592D01*
X87226343Y-116401001D01*
X87117281Y-116425415D01*
X86957890Y-116435000D01*
X86387186Y-116435000D01*
X86387186Y-116166137D01*
X86690444Y-116166137D01*
X86916949Y-116166137D01*
X87035162Y-116161481D01*
X87100314Y-116150701D01*
X87168949Y-116123394D01*
X87222771Y-116083583D01*
X87250926Y-116048831D01*
X87277576Y-115998328D01*
X87302181Y-115927756D01*
X87324209Y-115809329D01*
X87332955Y-115632124D01*
X87324057Y-115455959D01*
X87302181Y-115344699D01*
X87263889Y-115252937D01*
X87216085Y-115188384D01*
X87154484Y-115141914D01*
X87075767Y-115112376D01*
X86997094Y-115101844D01*
X86826731Y-115096939D01*
X86690444Y-115096939D01*
X86690444Y-116166137D01*
X86387186Y-116166137D01*
X86387186Y-114828077D01*
X86941495Y-114828077D01*
X87117800Y-114836999D01*
G37*
G36*
X89258108Y-116435000D02*
G01*
X88928105Y-116435000D01*
X88796947Y-116072348D01*
X88196567Y-116072348D01*
X88072553Y-116435000D01*
X87750794Y-116435000D01*
X87980730Y-115803485D01*
X88289807Y-115803485D01*
X88699677Y-115803485D01*
X88492681Y-115203234D01*
X88289807Y-115803485D01*
X87980730Y-115803485D01*
X88335877Y-114828077D01*
X88656629Y-114828077D01*
X89258108Y-116435000D01*
G37*
G36*
X84911837Y-118610285D02*
G01*
X85206943Y-118579022D01*
X85232675Y-118678353D01*
X85269056Y-118752457D01*
X85315021Y-118806558D01*
X85372945Y-118845552D01*
X85444971Y-118870253D01*
X85534839Y-118879147D01*
X85630889Y-118870721D01*
X85702631Y-118848140D01*
X85755665Y-118813983D01*
X85798108Y-118766347D01*
X85822037Y-118716161D01*
X85829946Y-118661576D01*
X85821971Y-118609267D01*
X85798713Y-118566321D01*
X85759646Y-118532045D01*
X85689537Y-118497933D01*
X85446729Y-118426810D01*
X85285405Y-118373996D01*
X85175508Y-118320073D01*
X85104453Y-118266489D01*
X85043008Y-118194867D01*
X85000398Y-118117851D01*
X84974863Y-118034089D01*
X84966150Y-117941548D01*
X84973333Y-117861356D01*
X84994794Y-117784906D01*
X85031180Y-117710885D01*
X85080160Y-117645806D01*
X85142063Y-117591409D01*
X85218759Y-117547242D01*
X85302033Y-117517121D01*
X85399731Y-117497900D01*
X85514323Y-117491066D01*
X85657748Y-117500891D01*
X85773344Y-117527914D01*
X85866109Y-117569404D01*
X85940130Y-117624032D01*
X86002722Y-117695454D01*
X86048231Y-117777004D01*
X86077590Y-117870541D01*
X86090248Y-117978771D01*
X85786898Y-117991276D01*
X85767350Y-117912224D01*
X85739178Y-117854705D01*
X85703367Y-117813956D01*
X85657797Y-117785774D01*
X85595464Y-117766981D01*
X85511300Y-117759929D01*
X85424567Y-117767270D01*
X85356894Y-117787292D01*
X85304305Y-117818059D01*
X85277296Y-117846022D01*
X85261541Y-117878689D01*
X85256128Y-117917710D01*
X85267107Y-117970012D01*
X85301191Y-118015309D01*
X85344353Y-118043597D01*
X85430103Y-118079311D01*
X85579902Y-118123460D01*
X85785635Y-118185667D01*
X85907249Y-118239817D01*
X85973482Y-118284958D01*
X86028435Y-118339111D01*
X86073212Y-118402874D01*
X86105602Y-118474477D01*
X86125984Y-118558766D01*
X86133204Y-118658450D01*
X86125280Y-118748171D01*
X86101604Y-118833797D01*
X86061488Y-118916761D01*
X86007492Y-118989684D01*
X85940458Y-119049082D01*
X85858614Y-119095742D01*
X85769470Y-119126831D01*
X85661649Y-119146996D01*
X85531725Y-119154263D01*
X85387948Y-119144196D01*
X85269929Y-119116264D01*
X85173220Y-119072940D01*
X85094195Y-119015337D01*
X85027651Y-118940821D01*
X84974942Y-118850426D01*
X84935962Y-118741459D01*
X84911837Y-118610285D01*
G37*
G36*
X87349350Y-118529001D02*
G01*
X87643449Y-118629043D01*
X87601486Y-118758667D01*
X87549659Y-118864936D01*
X87488679Y-118951251D01*
X87418501Y-119020222D01*
X87337407Y-119074603D01*
X87245223Y-119114398D01*
X87140023Y-119139286D01*
X87019439Y-119148010D01*
X86901082Y-119138822D01*
X86794396Y-119112194D01*
X86697498Y-119068831D01*
X86608882Y-119008480D01*
X86527503Y-118929950D01*
X86460412Y-118839949D01*
X86407352Y-118737392D01*
X86368174Y-118620462D01*
X86343540Y-118486822D01*
X86334887Y-118333704D01*
X86343745Y-118170786D01*
X86368822Y-118030131D01*
X86408431Y-117908567D01*
X86461679Y-117803385D01*
X86528511Y-117712448D01*
X86610154Y-117633336D01*
X86700445Y-117572165D01*
X86800603Y-117527916D01*
X86912354Y-117500560D01*
X87037849Y-117491066D01*
X87173927Y-117502772D01*
X87291939Y-117536224D01*
X87395048Y-117590133D01*
X87485637Y-117664870D01*
X87545614Y-117739264D01*
X87597111Y-117836113D01*
X87639327Y-117960013D01*
X87339092Y-118035044D01*
X87314238Y-117956317D01*
X87277265Y-117891506D01*
X87227900Y-117838380D01*
X87168425Y-117798732D01*
X87100672Y-117774573D01*
X87022461Y-117766182D01*
X86941260Y-117774544D01*
X86870277Y-117798667D01*
X86807436Y-117838239D01*
X86751352Y-117894458D01*
X86709700Y-117960454D01*
X86677184Y-118047892D01*
X86655456Y-118162144D01*
X86647396Y-118309671D01*
X86655517Y-118467274D01*
X86677223Y-118587328D01*
X86709327Y-118677350D01*
X86749886Y-118743642D01*
X86805305Y-118800463D01*
X86867173Y-118840305D01*
X86936831Y-118864518D01*
X87016325Y-118872895D01*
X87093960Y-118863478D01*
X87162570Y-118835994D01*
X87224328Y-118789950D01*
X87273944Y-118728858D01*
X87316027Y-118643930D01*
X87349350Y-118529001D01*
G37*
G36*
X87911628Y-119123000D02*
G01*
X87911628Y-117534835D01*
X88214977Y-117534835D01*
X88214977Y-118854137D01*
X88969138Y-118854137D01*
X88969138Y-119123000D01*
X87911628Y-119123000D01*
G37*
D11*
X120064400Y-123968000D02*
X122251600Y-123968000D01*
X122251600Y-124968000D01*
X120064400Y-124968000D01*
X120064400Y-123968000D01*
G36*
X121865286Y-124610854D02*
G01*
X121460881Y-124610854D01*
X121460881Y-124395920D01*
X121865286Y-124395920D01*
X121865286Y-124610854D01*
G37*
G36*
X122578868Y-123798000D02*
G01*
X122044648Y-123798000D01*
X121905979Y-123784322D01*
X121833001Y-123769732D01*
X121788498Y-123751471D01*
X121749437Y-123724333D01*
X121716592Y-123691676D01*
X121689458Y-123653041D01*
X121669509Y-123610250D01*
X121657397Y-123563799D01*
X121653249Y-123512846D01*
X121656596Y-123478408D01*
X121963376Y-123478408D01*
X121967197Y-123508823D01*
X121978099Y-123533818D01*
X121996166Y-123554673D01*
X122019943Y-123569094D01*
X122056000Y-123579147D01*
X122108884Y-123583066D01*
X122266665Y-123583066D01*
X122266665Y-123379856D01*
X122109555Y-123379856D01*
X122055591Y-123383640D01*
X122019317Y-123393269D01*
X121995860Y-123406906D01*
X121977841Y-123426803D01*
X121967105Y-123450255D01*
X121963376Y-123478408D01*
X121656596Y-123478408D01*
X121659278Y-123450806D01*
X121676420Y-123398460D01*
X121704173Y-123353844D01*
X121742109Y-123317513D01*
X121793906Y-123287560D01*
X121862931Y-123264573D01*
X121817254Y-123245197D01*
X121781839Y-123222872D01*
X121754976Y-123197834D01*
X121724342Y-123153047D01*
X121705970Y-123102980D01*
X121704815Y-123092565D01*
X122003004Y-123092565D01*
X122006439Y-123122316D01*
X122015985Y-123145537D01*
X122031337Y-123163762D01*
X122051946Y-123176163D01*
X122084046Y-123184921D01*
X122132087Y-123188369D01*
X122266665Y-123188369D01*
X122266665Y-123000791D01*
X122130072Y-123000791D01*
X122083414Y-123004170D01*
X122051884Y-123012798D01*
X122031337Y-123025093D01*
X122015829Y-123043016D01*
X122006360Y-123065085D01*
X122003004Y-123092565D01*
X121704815Y-123092565D01*
X121699655Y-123046037D01*
X121704608Y-122994881D01*
X121719045Y-122949034D01*
X121742966Y-122907358D01*
X121777202Y-122869083D01*
X121817692Y-122839234D01*
X121866972Y-122816975D01*
X121926845Y-122802707D01*
X121999585Y-122797581D01*
X122578868Y-122797581D01*
X122578868Y-123798000D01*
G37*
G36*
X121615757Y-123798000D02*
G01*
X121299463Y-123798000D01*
X121250920Y-123633868D01*
X120898477Y-123633868D01*
X120849262Y-123798000D01*
X120525457Y-123798000D01*
X120668092Y-123418935D01*
X120963385Y-123418935D01*
X121183997Y-123418935D01*
X121074027Y-123057883D01*
X120963385Y-123418935D01*
X120668092Y-123418935D01*
X120901897Y-122797581D01*
X121239318Y-122797581D01*
X121615757Y-123798000D01*
G37*
G36*
X120593357Y-122797581D02*
G01*
X119652717Y-122797581D01*
X119652717Y-123043778D01*
X119968339Y-123043778D01*
X119968339Y-123798000D01*
X120277795Y-123798000D01*
X120277795Y-123043778D01*
X120593357Y-123043778D01*
X120593357Y-122797581D01*
G37*
G36*
X121082143Y-124960169D02*
G01*
X120114675Y-124960169D01*
X120114675Y-124368388D01*
X120225786Y-124368388D01*
X120225786Y-124587230D01*
X120488775Y-124587230D01*
X120488775Y-124849058D01*
X120709387Y-124849058D01*
X120709387Y-124587230D01*
X120971032Y-124587230D01*
X120971032Y-124368388D01*
X120709387Y-124368388D01*
X120709387Y-124106560D01*
X120488775Y-124106560D01*
X120488775Y-124368388D01*
X120225786Y-124368388D01*
X120114675Y-124368388D01*
X120114675Y-123995449D01*
X121082143Y-123995449D01*
X121082143Y-124960169D01*
G37*
D12*
G36*
X109128122Y-88665000D02*
G01*
X108766765Y-88665000D01*
X108678689Y-88660462D01*
X108605931Y-88647903D01*
X108539591Y-88626123D01*
X108486374Y-88597527D01*
X108439850Y-88559165D01*
X108395210Y-88506425D01*
X108358419Y-88443349D01*
X108326884Y-88360184D01*
X108312488Y-88300668D01*
X108303392Y-88233382D01*
X108300200Y-88157341D01*
X108300309Y-88155265D01*
X108436854Y-88155265D01*
X108440102Y-88231417D01*
X108449165Y-88295770D01*
X108463171Y-88349926D01*
X108483916Y-88401728D01*
X108508461Y-88443886D01*
X108536566Y-88477787D01*
X108574492Y-88507028D01*
X108626386Y-88530177D01*
X108688202Y-88543449D01*
X108781786Y-88548740D01*
X108995620Y-88548740D01*
X108995620Y-87776933D01*
X108785205Y-87776933D01*
X108705549Y-87779857D01*
X108650354Y-87787319D01*
X108613747Y-87797632D01*
X108568586Y-87822070D01*
X108526967Y-87859302D01*
X108488450Y-87911693D01*
X108467587Y-87954343D01*
X108451394Y-88007671D01*
X108440736Y-88073827D01*
X108436854Y-88155265D01*
X108300309Y-88155265D01*
X108304856Y-88068466D01*
X108318201Y-87989288D01*
X108339523Y-87918593D01*
X108370635Y-87852222D01*
X108410041Y-87795395D01*
X108457981Y-87747013D01*
X108500685Y-87716260D01*
X108549358Y-87692270D01*
X108604893Y-87675083D01*
X108673285Y-87664864D01*
X108783190Y-87660673D01*
X109128122Y-87660673D01*
X109128122Y-88665000D01*
G37*
G36*
X108227965Y-88665000D02*
G01*
X108087220Y-88665000D01*
X107977250Y-88360184D01*
X107558496Y-88360184D01*
X107441686Y-88665000D01*
X107290683Y-88665000D01*
X107459747Y-88250764D01*
X107599467Y-88250764D01*
X107938965Y-88250764D01*
X107828994Y-87957123D01*
X107797971Y-87861495D01*
X107775017Y-87765881D01*
X107747682Y-87852490D01*
X107704003Y-87973487D01*
X107599467Y-88250764D01*
X107459747Y-88250764D01*
X107700584Y-87660673D01*
X107843344Y-87660673D01*
X108227965Y-88665000D01*
G37*
G36*
X107033679Y-88665000D02*
G01*
X107033679Y-87776933D01*
X107363651Y-87776933D01*
X107363651Y-87660673D01*
X106569862Y-87660673D01*
X106569862Y-87776933D01*
X106901177Y-87776933D01*
X106901177Y-88665000D01*
X107033679Y-88665000D01*
G37*
G36*
X105837316Y-88548740D02*
G01*
X105837316Y-88665000D01*
X106499214Y-88665000D01*
X106496319Y-88621464D01*
X106484865Y-88579759D01*
X106452890Y-88514260D01*
X106403960Y-88446830D01*
X106340590Y-88380701D01*
X106243065Y-88295460D01*
X106135010Y-88201983D01*
X106064614Y-88132639D01*
X106022452Y-88082358D01*
X105989035Y-88027811D01*
X105970773Y-87978742D01*
X105965055Y-87933675D01*
X105970954Y-87886954D01*
X105988187Y-87846183D01*
X106017323Y-87809844D01*
X106054848Y-87782230D01*
X106099578Y-87765306D01*
X106153550Y-87759347D01*
X106210552Y-87765719D01*
X106257163Y-87783727D01*
X106295699Y-87813019D01*
X106324540Y-87851835D01*
X106342764Y-87900430D01*
X106349616Y-87961580D01*
X106476011Y-87948513D01*
X106464161Y-87878076D01*
X106443560Y-87819685D01*
X106414945Y-87771312D01*
X106378314Y-87731442D01*
X106334167Y-87699812D01*
X106282547Y-87676586D01*
X106222044Y-87661947D01*
X106150863Y-87656765D01*
X106079258Y-87662312D01*
X106018555Y-87677994D01*
X105966848Y-87702946D01*
X105922679Y-87737121D01*
X105885729Y-87779946D01*
X105859783Y-87826753D01*
X105844064Y-87878413D01*
X105838659Y-87936179D01*
X105844740Y-87995719D01*
X105863267Y-88054942D01*
X105894349Y-88112384D01*
X105944905Y-88177857D01*
X106012773Y-88246822D01*
X106134438Y-88354933D01*
X106234715Y-88441807D01*
X106276587Y-88481756D01*
X106305731Y-88515777D01*
X106328427Y-88548740D01*
X105837316Y-88548740D01*
G37*
G36*
X111149110Y-91813290D02*
G01*
X111016608Y-91846751D01*
X111042896Y-91926513D01*
X111076818Y-91993386D01*
X111117996Y-92049153D01*
X111166573Y-92095146D01*
X111222702Y-92132004D01*
X111284769Y-92158572D01*
X111353843Y-92174954D01*
X111431271Y-92180631D01*
X111512930Y-92175991D01*
X111582965Y-92162901D01*
X111643052Y-92142309D01*
X111694626Y-92114747D01*
X111741587Y-92078732D01*
X111782811Y-92035414D01*
X111818606Y-91984102D01*
X111848988Y-91923810D01*
X111878223Y-91839049D01*
X111895923Y-91749848D01*
X111901927Y-91655326D01*
X111894855Y-91552440D01*
X111874619Y-91462128D01*
X111842149Y-91382445D01*
X111808633Y-91327037D01*
X111769307Y-91279515D01*
X111723944Y-91239145D01*
X111672034Y-91205491D01*
X111596501Y-91172075D01*
X111515964Y-91151903D01*
X111429195Y-91145041D01*
X111354465Y-91150155D01*
X111288259Y-91164844D01*
X111229277Y-91188507D01*
X111176465Y-91221062D01*
X111129801Y-91262186D01*
X111090609Y-91310870D01*
X111058545Y-91367973D01*
X111033705Y-91434713D01*
X111164131Y-91465488D01*
X111192669Y-91396018D01*
X111226509Y-91344319D01*
X111265247Y-91307035D01*
X111311721Y-91280099D01*
X111366607Y-91263321D01*
X111431943Y-91257393D01*
X111507167Y-91264012D01*
X111570768Y-91282775D01*
X111624956Y-91312897D01*
X111671407Y-91353986D01*
X111707517Y-91403226D01*
X111733888Y-91461824D01*
X111751322Y-91524781D01*
X111761772Y-91588917D01*
X111765273Y-91654593D01*
X111760812Y-91739435D01*
X111748138Y-91813516D01*
X111728087Y-91878258D01*
X111697891Y-91937770D01*
X111659437Y-91984777D01*
X111612316Y-92021018D01*
X111558325Y-92047336D01*
X111501919Y-92063004D01*
X111442201Y-92068279D01*
X111387256Y-92064043D01*
X111338135Y-92051795D01*
X111293853Y-92031854D01*
X111253646Y-92004043D01*
X111219521Y-91969664D01*
X111190640Y-91927301D01*
X111167021Y-91875713D01*
X111149110Y-91813290D01*
G37*
G36*
X110898578Y-91839912D02*
G01*
X110773525Y-91828921D01*
X110764458Y-91879120D01*
X110750517Y-91920566D01*
X110732248Y-91954645D01*
X110707718Y-91984220D01*
X110674661Y-92010705D01*
X110631498Y-92034085D01*
X110585055Y-92050635D01*
X110534053Y-92060845D01*
X110477747Y-92064371D01*
X110404700Y-92058438D01*
X110343902Y-92041779D01*
X110307031Y-92023987D01*
X110278693Y-92003302D01*
X110257501Y-91979802D01*
X110236131Y-91938343D01*
X110229108Y-91893768D01*
X110236047Y-91849214D01*
X110256463Y-91811275D01*
X110290235Y-91780414D01*
X110346589Y-91751985D01*
X110399177Y-91735246D01*
X110524886Y-91703014D01*
X110651912Y-91667522D01*
X110718204Y-91640305D01*
X110763444Y-91612085D01*
X110798617Y-91580948D01*
X110825122Y-91546821D01*
X110844583Y-91508329D01*
X110856300Y-91466927D01*
X110860293Y-91421830D01*
X110855543Y-91372358D01*
X110841356Y-91325248D01*
X110817306Y-91279680D01*
X110784867Y-91239793D01*
X110743422Y-91206406D01*
X110691582Y-91179296D01*
X110635519Y-91160551D01*
X110574511Y-91149013D01*
X110507789Y-91145041D01*
X110434254Y-91149297D01*
X110369179Y-91161478D01*
X110311418Y-91180945D01*
X110258114Y-91209235D01*
X110214944Y-91244308D01*
X110180626Y-91286458D01*
X110154945Y-91334584D01*
X110138540Y-91386838D01*
X110131411Y-91444178D01*
X110258478Y-91453764D01*
X110271544Y-91393122D01*
X110294818Y-91346135D01*
X110327843Y-91309966D01*
X110369994Y-91284418D01*
X110426721Y-91267573D01*
X110502355Y-91261301D01*
X110581723Y-91267223D01*
X110638242Y-91282706D01*
X110677599Y-91305387D01*
X110708844Y-91337780D01*
X110726620Y-91372762D01*
X110732554Y-91411693D01*
X110728119Y-91445941D01*
X110715258Y-91475139D01*
X110693597Y-91500537D01*
X110664272Y-91519337D01*
X110603370Y-91542977D01*
X110493806Y-91571978D01*
X110345438Y-91609804D01*
X110272156Y-91635847D01*
X110216729Y-91666619D01*
X110174389Y-91700702D01*
X110143073Y-91738063D01*
X110120086Y-91780946D01*
X110106154Y-91828092D01*
X110101369Y-91880579D01*
X110106400Y-91932590D01*
X110121486Y-91982559D01*
X110147164Y-92031338D01*
X110181473Y-92074350D01*
X110224870Y-92110942D01*
X110278628Y-92141369D01*
X110336965Y-92162838D01*
X110400981Y-92176066D01*
X110471641Y-92180631D01*
X110561755Y-92175712D01*
X110636923Y-92162021D01*
X110699459Y-92140819D01*
X110756852Y-92109396D01*
X110804523Y-92069620D01*
X110843562Y-92020957D01*
X110872753Y-91965631D01*
X110891090Y-91905658D01*
X110898578Y-91839912D01*
G37*
G36*
X130320161Y-88426000D02*
G01*
X129958804Y-88426000D01*
X129870728Y-88421462D01*
X129797970Y-88408903D01*
X129731630Y-88387123D01*
X129678413Y-88358527D01*
X129631889Y-88320165D01*
X129587249Y-88267425D01*
X129550458Y-88204349D01*
X129518923Y-88121184D01*
X129504527Y-88061668D01*
X129495431Y-87994382D01*
X129492239Y-87918341D01*
X129492348Y-87916265D01*
X129628893Y-87916265D01*
X129632141Y-87992417D01*
X129641204Y-88056770D01*
X129655210Y-88110926D01*
X129675955Y-88162728D01*
X129700500Y-88204886D01*
X129728605Y-88238787D01*
X129766531Y-88268028D01*
X129818425Y-88291177D01*
X129880241Y-88304449D01*
X129973825Y-88309740D01*
X130187659Y-88309740D01*
X130187659Y-87537933D01*
X129977244Y-87537933D01*
X129897588Y-87540857D01*
X129842393Y-87548319D01*
X129805786Y-87558632D01*
X129760625Y-87583070D01*
X129719006Y-87620302D01*
X129680489Y-87672693D01*
X129659626Y-87715343D01*
X129643433Y-87768671D01*
X129632775Y-87834827D01*
X129628893Y-87916265D01*
X129492348Y-87916265D01*
X129496895Y-87829466D01*
X129510240Y-87750288D01*
X129531562Y-87679593D01*
X129562674Y-87613222D01*
X129602080Y-87556395D01*
X129650020Y-87508013D01*
X129692724Y-87477260D01*
X129741397Y-87453270D01*
X129796932Y-87436083D01*
X129865324Y-87425864D01*
X129975229Y-87421673D01*
X130320161Y-87421673D01*
X130320161Y-88426000D01*
G37*
G36*
X129307286Y-88426000D02*
G01*
X129307286Y-87421673D01*
X128583167Y-87421673D01*
X128583167Y-87537933D01*
X129174723Y-87537933D01*
X129174723Y-87847632D01*
X128620719Y-87847632D01*
X128620719Y-87963892D01*
X129174723Y-87963892D01*
X129174723Y-88309740D01*
X128559903Y-88309740D01*
X128559903Y-88426000D01*
X129307286Y-88426000D01*
G37*
G36*
X127662433Y-88074290D02*
G01*
X127529931Y-88107751D01*
X127556219Y-88187513D01*
X127590141Y-88254386D01*
X127631319Y-88310153D01*
X127679896Y-88356146D01*
X127736025Y-88393004D01*
X127798091Y-88419572D01*
X127867166Y-88435954D01*
X127944594Y-88441631D01*
X128026253Y-88436991D01*
X128096288Y-88423901D01*
X128156375Y-88403309D01*
X128207949Y-88375747D01*
X128254910Y-88339732D01*
X128296134Y-88296414D01*
X128331929Y-88245102D01*
X128362310Y-88184810D01*
X128391546Y-88100049D01*
X128409246Y-88010848D01*
X128415250Y-87916326D01*
X128408178Y-87813440D01*
X128387942Y-87723128D01*
X128355472Y-87643445D01*
X128321956Y-87588037D01*
X128282630Y-87540515D01*
X128237267Y-87500145D01*
X128185357Y-87466491D01*
X128109824Y-87433075D01*
X128029287Y-87412903D01*
X127942518Y-87406041D01*
X127867788Y-87411155D01*
X127801582Y-87425844D01*
X127742600Y-87449507D01*
X127689788Y-87482062D01*
X127643124Y-87523186D01*
X127603932Y-87571870D01*
X127571868Y-87628973D01*
X127547028Y-87695713D01*
X127677454Y-87726488D01*
X127705992Y-87657018D01*
X127739832Y-87605319D01*
X127778570Y-87568035D01*
X127825044Y-87541099D01*
X127879930Y-87524321D01*
X127945266Y-87518393D01*
X128020490Y-87525012D01*
X128084091Y-87543775D01*
X128138279Y-87573897D01*
X128184730Y-87614986D01*
X128220840Y-87664226D01*
X128247211Y-87722824D01*
X128264645Y-87785781D01*
X128275095Y-87849917D01*
X128278596Y-87915593D01*
X128274135Y-88000435D01*
X128261461Y-88074516D01*
X128241410Y-88139258D01*
X128211214Y-88198770D01*
X128172760Y-88245777D01*
X128125639Y-88282018D01*
X128071647Y-88308336D01*
X128015242Y-88324004D01*
X127955524Y-88329279D01*
X127900579Y-88325043D01*
X127851457Y-88312795D01*
X127807176Y-88292854D01*
X127766969Y-88265043D01*
X127732844Y-88230664D01*
X127703962Y-88188301D01*
X127680344Y-88136713D01*
X127662433Y-88074290D01*
G37*
G36*
X127111970Y-88426000D02*
G01*
X127111970Y-87537933D01*
X127441942Y-87537933D01*
X127441942Y-87421673D01*
X126648153Y-87421673D01*
X126648153Y-87537933D01*
X126979469Y-87537933D01*
X126979469Y-88426000D01*
X127111970Y-88426000D01*
G37*
G36*
X104536639Y-104047000D02*
G01*
X104002419Y-104047000D01*
X103863750Y-104033322D01*
X103790772Y-104018732D01*
X103746269Y-104000471D01*
X103707208Y-103973333D01*
X103674363Y-103940676D01*
X103647229Y-103902041D01*
X103627280Y-103859250D01*
X103615168Y-103812799D01*
X103611020Y-103761846D01*
X103614367Y-103727408D01*
X103921147Y-103727408D01*
X103924968Y-103757823D01*
X103935870Y-103782818D01*
X103953937Y-103803673D01*
X103977714Y-103818094D01*
X104013771Y-103828147D01*
X104066655Y-103832066D01*
X104224436Y-103832066D01*
X104224436Y-103628856D01*
X104067326Y-103628856D01*
X104013362Y-103632640D01*
X103977088Y-103642269D01*
X103953631Y-103655906D01*
X103935612Y-103675803D01*
X103924876Y-103699255D01*
X103921147Y-103727408D01*
X103614367Y-103727408D01*
X103617049Y-103699806D01*
X103634191Y-103647460D01*
X103661944Y-103602844D01*
X103699880Y-103566513D01*
X103751677Y-103536560D01*
X103820702Y-103513573D01*
X103775025Y-103494197D01*
X103739610Y-103471872D01*
X103712747Y-103446834D01*
X103682113Y-103402047D01*
X103663741Y-103351980D01*
X103662586Y-103341565D01*
X103960775Y-103341565D01*
X103964210Y-103371316D01*
X103973756Y-103394537D01*
X103989108Y-103412762D01*
X104009717Y-103425163D01*
X104041817Y-103433921D01*
X104089858Y-103437369D01*
X104224436Y-103437369D01*
X104224436Y-103249791D01*
X104087843Y-103249791D01*
X104041185Y-103253170D01*
X104009655Y-103261798D01*
X103989108Y-103274093D01*
X103973600Y-103292016D01*
X103964131Y-103314085D01*
X103960775Y-103341565D01*
X103662586Y-103341565D01*
X103657426Y-103295037D01*
X103662379Y-103243881D01*
X103676816Y-103198034D01*
X103700737Y-103156358D01*
X103734973Y-103118083D01*
X103775463Y-103088234D01*
X103824743Y-103065975D01*
X103884616Y-103051707D01*
X103957356Y-103046581D01*
X104536639Y-103046581D01*
X104536639Y-104047000D01*
G37*
G36*
X103519306Y-103046581D02*
G01*
X102578666Y-103046581D01*
X102578666Y-103292778D01*
X102894289Y-103292778D01*
X102894289Y-104047000D01*
X103203745Y-104047000D01*
X103203745Y-103292778D01*
X103519306Y-103292778D01*
X103519306Y-103046581D01*
G37*
G36*
X101853326Y-103030949D02*
G01*
X101853326Y-104047000D01*
X102134755Y-104047000D01*
X102134755Y-103382720D01*
X102203539Y-103430376D01*
X102266951Y-103466190D01*
X102335354Y-103496017D01*
X102427175Y-103527251D01*
X102427175Y-103300593D01*
X102333967Y-103265473D01*
X102261574Y-103228482D01*
X102206501Y-103190135D01*
X102158038Y-103143931D01*
X102117157Y-103091089D01*
X102083525Y-103030949D01*
X101853326Y-103030949D01*
G37*
X94603428Y-103741700D02*
X93460571Y-103741700D01*
X94031999Y-104313128D02*
X94031999Y-103170271D01*
G36*
X126628122Y-92415000D02*
G01*
X126266765Y-92415000D01*
X126178689Y-92410462D01*
X126105931Y-92397903D01*
X126039591Y-92376123D01*
X125986374Y-92347527D01*
X125939850Y-92309165D01*
X125895210Y-92256425D01*
X125858419Y-92193349D01*
X125826884Y-92110184D01*
X125812488Y-92050668D01*
X125803392Y-91983382D01*
X125800200Y-91907341D01*
X125800309Y-91905265D01*
X125936854Y-91905265D01*
X125940102Y-91981417D01*
X125949165Y-92045770D01*
X125963171Y-92099926D01*
X125983916Y-92151728D01*
X126008461Y-92193886D01*
X126036566Y-92227787D01*
X126074492Y-92257028D01*
X126126386Y-92280177D01*
X126188202Y-92293449D01*
X126281786Y-92298740D01*
X126495620Y-92298740D01*
X126495620Y-91526933D01*
X126285205Y-91526933D01*
X126205549Y-91529857D01*
X126150354Y-91537319D01*
X126113747Y-91547632D01*
X126068586Y-91572070D01*
X126026967Y-91609302D01*
X125988450Y-91661693D01*
X125967587Y-91704343D01*
X125951394Y-91757671D01*
X125940736Y-91823827D01*
X125936854Y-91905265D01*
X125800309Y-91905265D01*
X125804856Y-91818466D01*
X125818201Y-91739288D01*
X125839523Y-91668593D01*
X125870635Y-91602222D01*
X125910041Y-91545395D01*
X125957981Y-91497013D01*
X126000685Y-91466260D01*
X126049358Y-91442270D01*
X126104893Y-91425083D01*
X126173285Y-91414864D01*
X126283190Y-91410673D01*
X126628122Y-91410673D01*
X126628122Y-92415000D01*
G37*
G36*
X125727965Y-92415000D02*
G01*
X125587220Y-92415000D01*
X125477250Y-92110184D01*
X125058496Y-92110184D01*
X124941686Y-92415000D01*
X124790683Y-92415000D01*
X124959747Y-92000764D01*
X125099467Y-92000764D01*
X125438965Y-92000764D01*
X125328994Y-91707123D01*
X125297971Y-91611495D01*
X125275017Y-91515881D01*
X125247682Y-91602490D01*
X125204003Y-91723487D01*
X125099467Y-92000764D01*
X124959747Y-92000764D01*
X125200584Y-91410673D01*
X125343344Y-91410673D01*
X125727965Y-92415000D01*
G37*
G36*
X124533679Y-92415000D02*
G01*
X124533679Y-91526933D01*
X124863651Y-91526933D01*
X124863651Y-91410673D01*
X124069862Y-91410673D01*
X124069862Y-91526933D01*
X124401177Y-91526933D01*
X124401177Y-92415000D01*
X124533679Y-92415000D01*
G37*
G36*
X123520376Y-92415000D02*
G01*
X123643352Y-92415000D01*
X123643352Y-91629392D01*
X123692287Y-91670107D01*
X123759795Y-91714328D01*
X123830840Y-91752769D01*
X123889244Y-91778014D01*
X123889244Y-91660778D01*
X123822361Y-91625197D01*
X123762439Y-91585621D01*
X123708932Y-91542076D01*
X123659842Y-91493154D01*
X123624140Y-91448243D01*
X123599633Y-91406765D01*
X123520376Y-91406765D01*
X123520376Y-92415000D01*
G37*
G36*
X116183992Y-88415000D02*
G01*
X116183992Y-87410673D01*
X115984568Y-87410673D01*
X115747530Y-88122091D01*
X115699720Y-88270835D01*
X115646414Y-88109757D01*
X115406628Y-87410673D01*
X115228331Y-87410673D01*
X115228331Y-88415000D01*
X115356070Y-88415000D01*
X115356070Y-87573949D01*
X115647085Y-88415000D01*
X115766642Y-88415000D01*
X116056253Y-87559600D01*
X116056253Y-88415000D01*
X116183992Y-88415000D01*
G37*
G36*
X114659169Y-87401034D02*
G01*
X114734513Y-87418356D01*
X114802560Y-87446473D01*
X114864409Y-87485468D01*
X114920829Y-87536031D01*
X114967312Y-87594169D01*
X115004157Y-87660828D01*
X115031430Y-87737258D01*
X115048622Y-87825065D01*
X115054674Y-87926147D01*
X115048273Y-88012681D01*
X115029223Y-88095661D01*
X114997338Y-88176008D01*
X114965059Y-88232254D01*
X114926404Y-88281707D01*
X114881106Y-88324960D01*
X114828628Y-88362365D01*
X114771661Y-88391973D01*
X114710986Y-88413227D01*
X114645962Y-88426198D01*
X114575836Y-88430631D01*
X114490428Y-88423700D01*
X114409736Y-88403162D01*
X114332631Y-88368838D01*
X114279655Y-88334431D01*
X114233261Y-88293013D01*
X114192943Y-88244108D01*
X114158486Y-88186938D01*
X114124814Y-88104813D01*
X114104132Y-88014529D01*
X114096998Y-87914546D01*
X114097069Y-87913508D01*
X114233591Y-87913508D01*
X114240484Y-88010719D01*
X114259715Y-88091154D01*
X114289800Y-88157747D01*
X114330250Y-88212827D01*
X114382007Y-88259048D01*
X114439426Y-88291608D01*
X114503687Y-88311429D01*
X114576508Y-88318279D01*
X114647920Y-88311543D01*
X114711440Y-88291985D01*
X114768680Y-88259749D01*
X114820751Y-88213866D01*
X114861957Y-88159127D01*
X114892207Y-88094583D01*
X114911304Y-88018330D01*
X114918082Y-87927918D01*
X114913028Y-87833167D01*
X114899120Y-87756130D01*
X114877878Y-87693893D01*
X114850273Y-87643950D01*
X114816660Y-87604296D01*
X114762991Y-87561590D01*
X114705417Y-87531635D01*
X114643011Y-87513566D01*
X114574493Y-87507393D01*
X114509898Y-87513118D01*
X114450724Y-87529906D01*
X114395829Y-87557768D01*
X114347371Y-87595562D01*
X114307231Y-87642434D01*
X114274929Y-87699551D01*
X114252554Y-87761789D01*
X114238515Y-87832630D01*
X114233591Y-87913508D01*
X114097069Y-87913508D01*
X114103796Y-87815781D01*
X114123474Y-87726743D01*
X114155433Y-87645940D01*
X114188242Y-87589523D01*
X114227259Y-87540330D01*
X114272732Y-87497715D01*
X114325182Y-87461292D01*
X114382065Y-87432511D01*
X114442281Y-87411884D01*
X114506419Y-87399324D01*
X114575165Y-87395041D01*
X114659169Y-87401034D01*
G37*
G36*
X113971152Y-88089912D02*
G01*
X113846100Y-88078921D01*
X113837033Y-88129120D01*
X113823091Y-88170566D01*
X113804823Y-88204645D01*
X113780292Y-88234220D01*
X113747235Y-88260705D01*
X113704072Y-88284085D01*
X113657629Y-88300635D01*
X113606627Y-88310845D01*
X113550322Y-88314371D01*
X113477275Y-88308438D01*
X113416477Y-88291779D01*
X113379605Y-88273987D01*
X113351268Y-88253302D01*
X113330076Y-88229802D01*
X113308706Y-88188343D01*
X113301682Y-88143768D01*
X113308621Y-88099214D01*
X113329038Y-88061275D01*
X113362809Y-88030414D01*
X113419163Y-88001985D01*
X113471752Y-87985246D01*
X113597460Y-87953014D01*
X113724487Y-87917522D01*
X113790779Y-87890305D01*
X113836019Y-87862085D01*
X113871192Y-87830948D01*
X113897696Y-87796821D01*
X113917157Y-87758329D01*
X113928875Y-87716927D01*
X113932867Y-87671830D01*
X113928118Y-87622358D01*
X113913931Y-87575248D01*
X113889880Y-87529680D01*
X113857442Y-87489793D01*
X113815997Y-87456406D01*
X113764156Y-87429296D01*
X113708093Y-87410551D01*
X113647086Y-87399013D01*
X113580363Y-87395041D01*
X113506828Y-87399297D01*
X113441753Y-87411478D01*
X113383992Y-87430945D01*
X113330689Y-87459235D01*
X113287519Y-87494308D01*
X113253200Y-87536458D01*
X113227519Y-87584584D01*
X113211114Y-87636838D01*
X113203985Y-87694178D01*
X113331053Y-87703764D01*
X113344118Y-87643122D01*
X113367393Y-87596135D01*
X113400418Y-87559966D01*
X113442568Y-87534418D01*
X113499296Y-87517573D01*
X113574929Y-87511301D01*
X113654297Y-87517223D01*
X113710817Y-87532706D01*
X113750173Y-87555387D01*
X113781419Y-87587780D01*
X113799195Y-87622762D01*
X113805128Y-87661693D01*
X113800693Y-87695941D01*
X113787833Y-87725139D01*
X113766171Y-87750537D01*
X113736846Y-87769337D01*
X113675945Y-87792977D01*
X113566381Y-87821978D01*
X113418012Y-87859804D01*
X113344730Y-87885847D01*
X113289304Y-87916619D01*
X113246963Y-87950702D01*
X113215648Y-87988063D01*
X113192660Y-88030946D01*
X113178729Y-88078092D01*
X113173943Y-88130579D01*
X113178974Y-88182590D01*
X113194060Y-88232559D01*
X113219739Y-88281338D01*
X113254048Y-88324350D01*
X113297444Y-88360942D01*
X113351203Y-88391369D01*
X113409539Y-88412838D01*
X113473556Y-88426066D01*
X113544216Y-88430631D01*
X113634329Y-88425712D01*
X113709498Y-88412021D01*
X113772033Y-88390819D01*
X113829426Y-88359396D01*
X113877097Y-88319620D01*
X113916136Y-88270957D01*
X113945328Y-88215631D01*
X113963665Y-88155658D01*
X113971152Y-88089912D01*
G37*
G36*
X112970489Y-88415000D02*
G01*
X112970489Y-87410673D01*
X112837987Y-87410673D01*
X112837987Y-88415000D01*
X112970489Y-88415000D01*
G37*
G36*
X84334079Y-108307742D02*
G01*
X81709057Y-108307742D01*
X81709057Y-107852920D01*
X81820168Y-107852920D01*
X81842760Y-107926829D01*
X81871588Y-107989645D01*
X81906264Y-108042819D01*
X81948743Y-108089622D01*
X81997162Y-108127788D01*
X82052138Y-108157857D01*
X82111482Y-108178379D01*
X82184470Y-108191773D01*
X82273788Y-108196631D01*
X82382174Y-108190676D01*
X82469932Y-108174321D01*
X82540563Y-108149370D01*
X82588849Y-108122392D01*
X82634557Y-108086407D01*
X82677988Y-108040423D01*
X82719226Y-107983102D01*
X82734217Y-107954342D01*
X82921948Y-107954342D01*
X82921948Y-108181000D01*
X83756709Y-108181000D01*
X83912841Y-108181000D01*
X84222968Y-108181000D01*
X84222968Y-107180581D01*
X83912841Y-107180581D01*
X83912841Y-108181000D01*
X83756709Y-108181000D01*
X83740801Y-108100907D01*
X83712004Y-108023849D01*
X83669636Y-107948969D01*
X83615322Y-107881125D01*
X83527715Y-107796877D01*
X83396695Y-107692758D01*
X83287311Y-107605129D01*
X83240257Y-107555494D01*
X83213960Y-107507951D01*
X83206124Y-107466528D01*
X83209896Y-107437592D01*
X83221001Y-107411967D01*
X83239952Y-107388737D01*
X83264169Y-107370938D01*
X83292155Y-107360177D01*
X83325010Y-107356436D01*
X83359115Y-107360360D01*
X83387725Y-107371586D01*
X83412082Y-107390080D01*
X83430367Y-107414879D01*
X83445895Y-107452940D01*
X83457511Y-107508843D01*
X83736192Y-107486190D01*
X83720977Y-107408317D01*
X83700597Y-107347961D01*
X83676109Y-107301908D01*
X83643438Y-107261636D01*
X83602709Y-107227864D01*
X83552827Y-107200303D01*
X83498445Y-107181993D01*
X83426417Y-107169587D01*
X83332520Y-107164949D01*
X83234231Y-107169374D01*
X83159609Y-107181142D01*
X83104031Y-107198349D01*
X83052914Y-107224966D01*
X83010449Y-107259036D01*
X82975620Y-107300993D01*
X82949631Y-107348902D01*
X82934072Y-107400250D01*
X82928787Y-107456087D01*
X82934621Y-107515471D01*
X82952227Y-107573338D01*
X82982398Y-107630659D01*
X83022628Y-107682175D01*
X83085528Y-107742420D01*
X83177426Y-107812987D01*
X83289839Y-107893892D01*
X83356395Y-107954342D01*
X82921948Y-107954342D01*
X82734217Y-107954342D01*
X82750720Y-107922682D01*
X82774193Y-107852831D01*
X82789073Y-107772006D01*
X82794331Y-107678409D01*
X82788271Y-107577668D01*
X82771147Y-107491181D01*
X82744130Y-107416846D01*
X82707804Y-107352890D01*
X82662134Y-107297939D01*
X82607331Y-107251774D01*
X82543993Y-107215200D01*
X82470846Y-107188105D01*
X82386224Y-107170990D01*
X82288138Y-107164949D01*
X82192206Y-107170466D01*
X82112263Y-107185834D01*
X82045790Y-107209679D01*
X81990650Y-107241214D01*
X81941734Y-107282661D01*
X81898631Y-107334495D01*
X81861202Y-107398132D01*
X81829755Y-107475443D01*
X82103002Y-107536198D01*
X82118870Y-107494008D01*
X82133043Y-107469276D01*
X82162074Y-107437704D01*
X82196608Y-107414627D01*
X82235882Y-107400408D01*
X82280627Y-107395515D01*
X82331234Y-107401041D01*
X82373941Y-107416842D01*
X82410476Y-107442757D01*
X82441827Y-107479961D01*
X82463469Y-107524040D01*
X82478448Y-107587542D01*
X82484204Y-107676699D01*
X82479985Y-107763966D01*
X82468936Y-107827736D01*
X82453052Y-107873124D01*
X82433645Y-107904456D01*
X82406253Y-107931069D01*
X82374142Y-107950094D01*
X82336372Y-107961903D01*
X82291557Y-107966066D01*
X82234489Y-107959885D01*
X82190806Y-107942911D01*
X82157346Y-107916057D01*
X82131346Y-107880277D01*
X82109134Y-107832719D01*
X82091400Y-107770672D01*
X81820168Y-107852920D01*
X81709057Y-107852920D01*
X81709057Y-107053838D01*
X84334079Y-107053838D01*
X84334079Y-108307742D01*
G37*
G36*
X123183992Y-88415000D02*
G01*
X123183992Y-87410673D01*
X122984568Y-87410673D01*
X122747530Y-88122091D01*
X122699720Y-88270835D01*
X122646414Y-88109757D01*
X122406628Y-87410673D01*
X122228331Y-87410673D01*
X122228331Y-88415000D01*
X122356070Y-88415000D01*
X122356070Y-87573949D01*
X122647085Y-88415000D01*
X122766642Y-88415000D01*
X123056253Y-87559600D01*
X123056253Y-88415000D01*
X123183992Y-88415000D01*
G37*
G36*
X121991843Y-88415000D02*
G01*
X121991843Y-87410673D01*
X121859341Y-87410673D01*
X121859341Y-88415000D01*
X121991843Y-88415000D01*
G37*
G36*
X121670664Y-88089912D02*
G01*
X121545611Y-88078921D01*
X121536544Y-88129120D01*
X121522603Y-88170566D01*
X121504334Y-88204645D01*
X121479804Y-88234220D01*
X121446746Y-88260705D01*
X121403584Y-88284085D01*
X121357140Y-88300635D01*
X121306139Y-88310845D01*
X121249833Y-88314371D01*
X121176786Y-88308438D01*
X121115988Y-88291779D01*
X121079117Y-88273987D01*
X121050779Y-88253302D01*
X121029587Y-88229802D01*
X121008217Y-88188343D01*
X121001194Y-88143768D01*
X121008133Y-88099214D01*
X121028549Y-88061275D01*
X121062321Y-88030414D01*
X121118675Y-88001985D01*
X121171263Y-87985246D01*
X121296972Y-87953014D01*
X121423998Y-87917522D01*
X121490290Y-87890305D01*
X121535530Y-87862085D01*
X121570703Y-87830948D01*
X121597208Y-87796821D01*
X121616669Y-87758329D01*
X121628386Y-87716927D01*
X121632378Y-87671830D01*
X121627629Y-87622358D01*
X121613442Y-87575248D01*
X121589392Y-87529680D01*
X121556953Y-87489793D01*
X121515508Y-87456406D01*
X121463668Y-87429296D01*
X121407605Y-87410551D01*
X121346597Y-87399013D01*
X121279875Y-87395041D01*
X121206340Y-87399297D01*
X121141264Y-87411478D01*
X121083504Y-87430945D01*
X121030200Y-87459235D01*
X120987030Y-87494308D01*
X120952712Y-87536458D01*
X120927030Y-87584584D01*
X120910626Y-87636838D01*
X120903497Y-87694178D01*
X121030564Y-87703764D01*
X121043630Y-87643122D01*
X121066904Y-87596135D01*
X121099929Y-87559966D01*
X121142080Y-87534418D01*
X121198807Y-87517573D01*
X121274441Y-87511301D01*
X121353809Y-87517223D01*
X121410328Y-87532706D01*
X121449685Y-87555387D01*
X121480930Y-87587780D01*
X121498706Y-87622762D01*
X121504639Y-87661693D01*
X121500205Y-87695941D01*
X121487344Y-87725139D01*
X121465683Y-87750537D01*
X121436358Y-87769337D01*
X121375456Y-87792977D01*
X121265892Y-87821978D01*
X121117523Y-87859804D01*
X121044242Y-87885847D01*
X120988815Y-87916619D01*
X120946475Y-87950702D01*
X120915159Y-87988063D01*
X120892172Y-88030946D01*
X120878240Y-88078092D01*
X120873455Y-88130579D01*
X120878486Y-88182590D01*
X120893572Y-88232559D01*
X120919250Y-88281338D01*
X120953559Y-88324350D01*
X120996956Y-88360942D01*
X121050714Y-88391369D01*
X121109051Y-88412838D01*
X121173067Y-88426066D01*
X121243727Y-88430631D01*
X121333841Y-88425712D01*
X121409009Y-88412021D01*
X121471545Y-88390819D01*
X121528938Y-88359396D01*
X121576609Y-88319620D01*
X121615648Y-88270957D01*
X121644839Y-88215631D01*
X121663176Y-88155658D01*
X121670664Y-88089912D01*
G37*
G36*
X120337327Y-87401034D02*
G01*
X120412671Y-87418356D01*
X120480718Y-87446473D01*
X120542566Y-87485468D01*
X120598987Y-87536031D01*
X120645470Y-87594169D01*
X120682315Y-87660828D01*
X120709588Y-87737258D01*
X120726780Y-87825065D01*
X120732832Y-87926147D01*
X120726430Y-88012681D01*
X120707380Y-88095661D01*
X120675496Y-88176008D01*
X120643217Y-88232254D01*
X120604562Y-88281707D01*
X120559263Y-88324960D01*
X120506785Y-88362365D01*
X120449819Y-88391973D01*
X120389144Y-88413227D01*
X120324120Y-88426198D01*
X120253994Y-88430631D01*
X120168586Y-88423700D01*
X120087894Y-88403162D01*
X120010789Y-88368838D01*
X119957812Y-88334431D01*
X119911418Y-88293013D01*
X119871100Y-88244108D01*
X119836644Y-88186938D01*
X119802972Y-88104813D01*
X119782290Y-88014529D01*
X119775156Y-87914546D01*
X119775227Y-87913508D01*
X119911749Y-87913508D01*
X119918641Y-88010719D01*
X119937872Y-88091154D01*
X119967958Y-88157747D01*
X120008408Y-88212827D01*
X120060165Y-88259048D01*
X120117584Y-88291608D01*
X120181845Y-88311429D01*
X120254666Y-88318279D01*
X120326077Y-88311543D01*
X120389597Y-88291985D01*
X120446838Y-88259749D01*
X120498908Y-88213866D01*
X120540114Y-88159127D01*
X120570365Y-88094583D01*
X120589462Y-88018330D01*
X120596239Y-87927918D01*
X120591185Y-87833167D01*
X120577278Y-87756130D01*
X120556036Y-87693893D01*
X120528431Y-87643950D01*
X120494817Y-87604296D01*
X120441148Y-87561590D01*
X120383575Y-87531635D01*
X120321169Y-87513566D01*
X120252651Y-87507393D01*
X120188055Y-87513118D01*
X120128882Y-87529906D01*
X120073987Y-87557768D01*
X120025529Y-87595562D01*
X119985388Y-87642434D01*
X119953087Y-87699551D01*
X119930712Y-87761789D01*
X119916672Y-87832630D01*
X119911749Y-87913508D01*
X119775227Y-87913508D01*
X119781954Y-87815781D01*
X119801632Y-87726743D01*
X119833591Y-87645940D01*
X119866400Y-87589523D01*
X119905417Y-87540330D01*
X119950890Y-87497715D01*
X120003340Y-87461292D01*
X120060222Y-87432511D01*
X120120439Y-87411884D01*
X120184577Y-87399324D01*
X120253322Y-87395041D01*
X120337327Y-87401034D01*
G37*
G36*
X119297600Y-91839912D02*
G01*
X119172548Y-91828921D01*
X119163481Y-91879120D01*
X119149539Y-91920566D01*
X119131271Y-91954645D01*
X119106740Y-91984220D01*
X119073683Y-92010705D01*
X119030520Y-92034085D01*
X118984077Y-92050635D01*
X118933075Y-92060845D01*
X118876770Y-92064371D01*
X118803723Y-92058438D01*
X118742925Y-92041779D01*
X118706053Y-92023987D01*
X118677716Y-92003302D01*
X118656524Y-91979802D01*
X118635154Y-91938343D01*
X118628130Y-91893768D01*
X118635069Y-91849214D01*
X118655486Y-91811275D01*
X118689257Y-91780414D01*
X118745611Y-91751985D01*
X118798200Y-91735246D01*
X118923908Y-91703014D01*
X119050935Y-91667522D01*
X119117227Y-91640305D01*
X119162467Y-91612085D01*
X119197640Y-91580948D01*
X119224144Y-91546821D01*
X119243605Y-91508329D01*
X119255323Y-91466927D01*
X119259315Y-91421830D01*
X119254566Y-91372358D01*
X119240379Y-91325248D01*
X119216328Y-91279680D01*
X119183890Y-91239793D01*
X119142445Y-91206406D01*
X119090604Y-91179296D01*
X119034541Y-91160551D01*
X118973534Y-91149013D01*
X118906811Y-91145041D01*
X118833276Y-91149297D01*
X118768201Y-91161478D01*
X118710440Y-91180945D01*
X118657137Y-91209235D01*
X118613967Y-91244308D01*
X118579648Y-91286458D01*
X118553967Y-91334584D01*
X118537562Y-91386838D01*
X118530433Y-91444178D01*
X118657501Y-91453764D01*
X118670566Y-91393122D01*
X118693841Y-91346135D01*
X118726866Y-91309966D01*
X118769016Y-91284418D01*
X118825744Y-91267573D01*
X118901377Y-91261301D01*
X118980745Y-91267223D01*
X119037265Y-91282706D01*
X119076621Y-91305387D01*
X119107867Y-91337780D01*
X119125643Y-91372762D01*
X119131576Y-91411693D01*
X119127141Y-91445941D01*
X119114281Y-91475139D01*
X119092619Y-91500537D01*
X119063294Y-91519337D01*
X119002393Y-91542977D01*
X118892829Y-91571978D01*
X118744460Y-91609804D01*
X118671178Y-91635847D01*
X118615752Y-91666619D01*
X118573411Y-91700702D01*
X118542096Y-91738063D01*
X118519108Y-91780946D01*
X118505176Y-91828092D01*
X118500391Y-91880579D01*
X118505422Y-91932590D01*
X118520508Y-91982559D01*
X118546187Y-92031338D01*
X118580496Y-92074350D01*
X118623892Y-92110942D01*
X118677651Y-92141369D01*
X118735987Y-92162838D01*
X118800004Y-92176066D01*
X118870664Y-92180631D01*
X118960777Y-92175712D01*
X119035946Y-92162021D01*
X119098481Y-92140819D01*
X119155874Y-92109396D01*
X119203545Y-92069620D01*
X119242584Y-92020957D01*
X119271776Y-91965631D01*
X119290113Y-91905658D01*
X119297600Y-91839912D01*
G37*
G36*
X117604936Y-91813290D02*
G01*
X117472434Y-91846751D01*
X117498723Y-91926513D01*
X117532644Y-91993386D01*
X117573822Y-92049153D01*
X117622399Y-92095146D01*
X117678528Y-92132004D01*
X117740595Y-92158572D01*
X117809669Y-92174954D01*
X117887098Y-92180631D01*
X117968757Y-92175991D01*
X118038791Y-92162901D01*
X118098878Y-92142309D01*
X118150452Y-92114747D01*
X118197414Y-92078732D01*
X118238637Y-92035414D01*
X118274433Y-91984102D01*
X118304814Y-91923810D01*
X118334050Y-91839049D01*
X118351749Y-91749848D01*
X118357754Y-91655326D01*
X118350681Y-91552440D01*
X118330445Y-91462128D01*
X118297975Y-91382445D01*
X118264459Y-91327037D01*
X118225133Y-91279515D01*
X118179770Y-91239145D01*
X118127860Y-91205491D01*
X118052327Y-91172075D01*
X117971790Y-91151903D01*
X117885022Y-91145041D01*
X117810292Y-91150155D01*
X117744085Y-91164844D01*
X117685104Y-91188507D01*
X117632291Y-91221062D01*
X117585628Y-91262186D01*
X117546436Y-91310870D01*
X117514372Y-91367973D01*
X117489531Y-91434713D01*
X117619957Y-91465488D01*
X117648495Y-91396018D01*
X117682336Y-91344319D01*
X117721074Y-91307035D01*
X117767547Y-91280099D01*
X117822433Y-91263321D01*
X117887769Y-91257393D01*
X117962994Y-91264012D01*
X118026595Y-91282775D01*
X118080782Y-91312897D01*
X118127233Y-91353986D01*
X118163343Y-91403226D01*
X118189714Y-91461824D01*
X118207148Y-91524781D01*
X118217598Y-91588917D01*
X118221100Y-91654593D01*
X118216638Y-91739435D01*
X118203965Y-91813516D01*
X118183914Y-91878258D01*
X118153718Y-91937770D01*
X118115264Y-91984777D01*
X118068143Y-92021018D01*
X118014151Y-92047336D01*
X117957745Y-92063004D01*
X117898027Y-92068279D01*
X117843082Y-92064043D01*
X117793961Y-92051795D01*
X117749679Y-92031854D01*
X117709472Y-92004043D01*
X117675348Y-91969664D01*
X117646466Y-91927301D01*
X117622847Y-91875713D01*
X117604936Y-91813290D01*
G37*
G36*
X117314776Y-92165000D02*
G01*
X117314776Y-91160673D01*
X117182213Y-91160673D01*
X117182213Y-92048740D01*
X116689025Y-92048740D01*
X116689025Y-92165000D01*
X117314776Y-92165000D01*
G37*
D13*
X118630000Y-125620000D02*
X118630000Y-127000000D01*
X120010000Y-125620000D02*
X118630000Y-125620000D01*
X121280000Y-125620000D02*
X123930000Y-125620000D01*
X121280000Y-125620000D02*
X121280000Y-128380000D01*
X123930000Y-125620000D02*
X123930000Y-128380000D01*
X121280000Y-128380000D02*
X123930000Y-128380000D01*
X108450000Y-90000000D02*
G75*
G02*
X106550000Y-90000000I-950000J0D01*
G01*
X106550000Y-90000000D02*
G75*
G02*
X108450000Y-90000000I950000J0D01*
G01*
X111950000Y-90000000D02*
G75*
G02*
X110050000Y-90000000I-950000J0D01*
G01*
X110050000Y-90000000D02*
G75*
G02*
X111950000Y-90000000I950000J0D01*
G01*
X129450000Y-90000000D02*
G75*
G02*
X127550000Y-90000000I-950000J0D01*
G01*
X127550000Y-90000000D02*
G75*
G02*
X129450000Y-90000000I950000J0D01*
G01*
X91850000Y-101350000D02*
X91850000Y-101850000D01*
X91850000Y-101350000D02*
X93000000Y-101350000D01*
X91850000Y-105650000D02*
X91850000Y-105150000D01*
X91850000Y-105650000D02*
X93000000Y-105650000D01*
X93000000Y-101350000D02*
X93000000Y-101850000D01*
X93000000Y-105650000D02*
X93000000Y-105150000D01*
X92590000Y-101350000D02*
G75*
G02*
X112550000Y-102150000I9909758J-2152544D01*
G01*
X112550000Y-104850000D02*
G75*
G02*
X92590000Y-105650000I-10050242J1352544D01*
G01*
X125950000Y-90000000D02*
G75*
G02*
X124050000Y-90000000I-950000J0D01*
G01*
X124050000Y-90000000D02*
G75*
G02*
X125950000Y-90000000I950000J0D01*
G01*
X115450000Y-90000000D02*
G75*
G02*
X113550000Y-90000000I-950000J0D01*
G01*
X113550000Y-90000000D02*
G75*
G02*
X115450000Y-90000000I950000J0D01*
G01*
X81805000Y-111760000D02*
X81805000Y-119490000D01*
X84565000Y-109110000D02*
X83185000Y-109110000D01*
X84565000Y-110490000D02*
X84565000Y-109110000D01*
X84565000Y-111760000D02*
X81805000Y-111760000D01*
X84565000Y-111760000D02*
X84565000Y-119490000D01*
X84565000Y-119490000D02*
X81805000Y-119490000D01*
X122450000Y-90000000D02*
G75*
G02*
X120550000Y-90000000I-950000J0D01*
G01*
X120550000Y-90000000D02*
G75*
G02*
X122450000Y-90000000I950000J0D01*
G01*
X118950000Y-90000000D02*
G75*
G02*
X117050000Y-90000000I-950000J0D01*
G01*
X117050000Y-90000000D02*
G75*
G02*
X118950000Y-90000000I950000J0D01*
G01*
%LPC*%
D14*
X89916000Y-118888000D03*
D15*
X89916000Y-120888000D03*
D16*
X89500000Y-59520000D03*
D17*
X89500000Y-62060000D03*
D16*
X104740000Y-87460000D03*
X104740000Y-84920000D03*
X89500000Y-87460000D03*
D17*
X89500000Y-92540000D03*
D16*
X104740000Y-90000000D03*
D17*
X104740000Y-92540000D03*
D16*
X104740000Y-82380000D03*
X89500000Y-90000000D03*
D18*
X120010000Y-127000000D03*
D19*
X122550000Y-127000000D03*
D20*
X125750000Y-83600000D03*
X117750000Y-83600000D03*
D21*
X107500000Y-90000000D03*
X111000000Y-90000000D03*
X128500000Y-90000000D03*
D22*
X92000000Y-103500000D03*
D23*
X112500000Y-103500000D03*
D21*
X125000000Y-90000000D03*
X114500000Y-90000000D03*
D18*
X83185000Y-110490000D03*
D19*
X83185000Y-113030000D03*
X83185000Y-115570000D03*
X83185000Y-118110000D03*
D21*
X121500000Y-90000000D03*
X118000000Y-90000000D03*
%LPD*%
M02*
