G04 #@! TF.GenerationSoftware,KiCad,Pcbnew,9.0.3*
G04 #@! TF.CreationDate,2025-08-23T15:15:08+02:00*
G04 #@! TF.ProjectId,fw-anwesenheit,66772d61-6e77-4657-9365-6e686569742e,rev?*
G04 #@! TF.SameCoordinates,Original*
G04 #@! TF.FileFunction,Copper,L6,Bot*
G04 #@! TF.FilePolarity,Positive*
%FSLAX46Y46*%
G04 Gerber Fmt 4.6, Leading zero omitted, Abs format (unit mm)*
G04 Created by KiCad (PCBNEW 9.0.3) date 2025-08-23 15:15:08*
%MOMM*%
%LPD*%
G01*
G04 APERTURE LIST*
G04 #@! TA.AperFunction,ComponentPad*
%ADD10R,1.350000X1.350000*%
G04 #@! TD*
G04 #@! TA.AperFunction,ComponentPad*
%ADD11C,1.350000*%
G04 #@! TD*
G04 #@! TA.AperFunction,ComponentPad*
%ADD12C,2.100000*%
G04 #@! TD*
G04 #@! TA.AperFunction,ComponentPad*
%ADD13R,2.100000X2.100000*%
G04 #@! TD*
G04 #@! TA.AperFunction,TestPad*
%ADD14C,1.500000*%
G04 #@! TD*
G04 #@! TA.AperFunction,SMDPad,CuDef*
%ADD15C,1.500000*%
G04 #@! TD*
G04 #@! TA.AperFunction,ComponentPad*
%ADD16R,1.600000X2.000000*%
G04 #@! TD*
G04 #@! TA.AperFunction,ComponentPad*
%ADD17O,1.600000X2.000000*%
G04 #@! TD*
G04 #@! TA.AperFunction,SMDPad,CuDef*
%ADD18R,1.700000X1.700000*%
G04 #@! TD*
G04 #@! TA.AperFunction,SMDPad,CuDef*
%ADD19C,1.700000*%
G04 #@! TD*
G04 #@! TA.AperFunction,ViaPad*
%ADD20C,0.400000*%
G04 #@! TD*
G04 #@! TA.AperFunction,Conductor*
%ADD21C,0.200000*%
G04 #@! TD*
G04 #@! TA.AperFunction,Conductor*
%ADD22C,1.500000*%
G04 #@! TD*
G04 APERTURE END LIST*
D10*
X89916000Y-118888000D03*
D11*
X89916000Y-120888000D03*
D12*
X89500000Y-59520000D03*
D13*
X89500000Y-62060000D03*
D12*
X104740000Y-87460000D03*
X104740000Y-84920000D03*
X89500000Y-87460000D03*
D13*
X89500000Y-92540000D03*
D12*
X104740000Y-90000000D03*
D13*
X104740000Y-92540000D03*
D12*
X104740000Y-82380000D03*
X89500000Y-90000000D03*
D14*
X107500000Y-90000000D03*
D15*
X111000000Y-90000000D03*
D14*
X128500000Y-90000000D03*
D16*
X113411000Y-103378000D03*
D17*
X92911000Y-103378000D03*
D14*
X125000000Y-90000000D03*
D18*
X120010000Y-127000000D03*
D19*
X122550000Y-127000000D03*
D14*
X114500000Y-90000000D03*
D18*
X83185000Y-110490000D03*
D19*
X83185000Y-113030000D03*
X83185000Y-115570000D03*
X83185000Y-118110000D03*
D14*
X121500000Y-90000000D03*
X118000000Y-90000000D03*
D20*
X90000000Y-114912500D03*
X121285000Y-128397000D03*
X118237000Y-110998000D03*
X119253000Y-80645000D03*
X112903000Y-83947000D03*
X110744000Y-102362000D03*
X122529600Y-126949200D03*
X129413000Y-80645000D03*
X98552000Y-124079000D03*
X86741000Y-80645000D03*
X102997000Y-128397000D03*
X113157000Y-80645000D03*
X124079000Y-94234000D03*
X125730000Y-92837000D03*
X92710000Y-98044000D03*
X107442000Y-107950000D03*
X103886000Y-107950000D03*
X123825000Y-97536000D03*
X104521000Y-125095000D03*
X98552000Y-124714000D03*
X88519000Y-103124000D03*
X129794000Y-115824000D03*
X119761000Y-92329000D03*
X122174000Y-127381000D03*
X88773000Y-80645000D03*
X83950000Y-112960000D03*
X110744000Y-106172000D03*
X113411000Y-93853000D03*
X117704600Y-115443000D03*
X97663000Y-123444000D03*
X121285000Y-80645000D03*
X125984000Y-115570000D03*
X129000000Y-116270000D03*
X86487000Y-99822000D03*
X125349000Y-80645000D03*
X98933000Y-128397000D03*
X108839000Y-120396000D03*
X98044000Y-104902000D03*
X128270000Y-116713000D03*
X122174000Y-126619000D03*
X129413000Y-128397000D03*
X94488000Y-124206000D03*
X90805000Y-80645000D03*
X98044000Y-106172000D03*
X84328000Y-126873000D03*
X126873000Y-97536000D03*
X127381000Y-80645000D03*
X84709000Y-80645000D03*
X113157000Y-128397000D03*
X110744000Y-101092000D03*
X110744000Y-104902000D03*
X109093000Y-80645000D03*
X120015000Y-99441000D03*
X117704600Y-113560200D03*
X105029000Y-80645000D03*
X104648000Y-97663000D03*
X122936000Y-126619000D03*
X94869000Y-80645000D03*
X94869000Y-128397000D03*
X128905000Y-93599000D03*
X82677000Y-80645000D03*
X95377000Y-118364000D03*
X115443000Y-91821000D03*
X119253000Y-128397000D03*
X122936000Y-127381000D03*
X98933000Y-80645000D03*
X111379000Y-107950000D03*
X96901000Y-80645000D03*
X115189000Y-80645000D03*
X117221000Y-80645000D03*
X96774000Y-123444000D03*
X118491000Y-99060000D03*
X111125000Y-128397000D03*
X123317000Y-80645000D03*
X115189000Y-128397000D03*
X111125000Y-80645000D03*
X127381000Y-128397000D03*
X129794000Y-116713000D03*
X117221000Y-128397000D03*
X98552000Y-123444000D03*
X122047000Y-99060000D03*
X110490000Y-115189000D03*
X123317000Y-128397000D03*
X102997000Y-80645000D03*
X92837000Y-80645000D03*
X125349000Y-128397000D03*
X128651000Y-83947000D03*
X105029000Y-113411000D03*
X107061000Y-80645000D03*
X98044000Y-102362000D03*
X110744000Y-103632000D03*
X96774000Y-124079000D03*
X96901000Y-128397000D03*
X105029000Y-112522000D03*
X120015000Y-119253000D03*
X109093000Y-128397000D03*
X105475000Y-105000000D03*
X128270000Y-115824000D03*
X124079000Y-94996000D03*
X100965000Y-80645000D03*
X95618000Y-98552000D03*
X100965000Y-128397000D03*
X97663000Y-124714000D03*
X98044000Y-103632000D03*
X97663000Y-124079000D03*
X122500000Y-119087500D03*
X96774000Y-124714000D03*
X128219200Y-114198400D03*
X98602800Y-127203200D03*
X128219200Y-113284000D03*
X97688400Y-127203200D03*
X129641600Y-113334800D03*
X120294400Y-113588800D03*
X96926400Y-126644400D03*
X94488000Y-125730000D03*
X98602800Y-126085600D03*
X87505500Y-126494500D03*
X129641600Y-114249200D03*
X98602800Y-126644400D03*
X119761000Y-110998000D03*
X97688400Y-126085600D03*
X97688400Y-126644400D03*
X125984000Y-114046000D03*
X128981200Y-113741200D03*
X96926400Y-127203200D03*
X96926400Y-126085600D03*
X104267000Y-120396000D03*
X83500000Y-92212500D03*
X126000000Y-102412500D03*
X97168000Y-98552000D03*
X102616000Y-94361000D03*
X120000000Y-121000000D03*
X90412500Y-99000000D03*
X121920000Y-95123000D03*
X118000000Y-102412500D03*
X110109000Y-123571000D03*
X102743000Y-123317000D03*
X98552000Y-94361000D03*
X117729000Y-123571000D03*
X122301000Y-111887000D03*
X104902000Y-120396000D03*
X122000000Y-102412500D03*
X97663000Y-120904000D03*
X121920000Y-94234000D03*
X104902000Y-119761000D03*
X118364000Y-123571000D03*
X98552000Y-121539000D03*
X104267000Y-119761000D03*
X122174000Y-97536000D03*
X128000000Y-102500000D03*
X110871000Y-123571000D03*
X97663000Y-122174000D03*
X97663000Y-121539000D03*
X98552000Y-122174000D03*
X116000000Y-102412500D03*
X102489000Y-98552000D03*
X83185000Y-110490000D03*
X90412500Y-97000000D03*
X124000000Y-102412500D03*
X120000000Y-102412500D03*
X98552000Y-120904000D03*
X96774000Y-122174000D03*
X122500000Y-120912500D03*
X96774000Y-121539000D03*
X91694000Y-127889000D03*
X96774000Y-120904000D03*
X122301000Y-115697000D03*
X90000000Y-109087500D03*
X127350000Y-94650000D03*
X113792000Y-126746000D03*
X97663000Y-116332000D03*
X125150000Y-94650000D03*
X122936000Y-94650000D03*
X97663000Y-114046000D03*
X122000000Y-100587500D03*
X95250000Y-113157000D03*
X120750000Y-94650000D03*
X117475000Y-116840000D03*
X119650000Y-94650000D03*
X112903000Y-118491000D03*
X92583000Y-119888000D03*
X116078000Y-118491000D03*
X109220000Y-97282000D03*
X115951000Y-117094000D03*
X109791500Y-110680500D03*
X88011000Y-117475000D03*
X108966000Y-112014000D03*
X108966000Y-98552000D03*
X113821600Y-116438500D03*
X84582000Y-116967000D03*
X118550000Y-94650000D03*
X126250000Y-94650000D03*
X119634000Y-126492000D03*
X119634000Y-127000000D03*
X119634000Y-127508000D03*
X85979000Y-97790000D03*
X95885000Y-101092000D03*
X107823000Y-114300000D03*
X116332000Y-125984000D03*
X107315000Y-114300000D03*
X107315000Y-113665000D03*
X107823000Y-112903000D03*
X116967000Y-125349000D03*
X107315000Y-112903000D03*
X116459000Y-125476000D03*
X107823000Y-113665000D03*
D21*
X90000000Y-109087500D02*
X104740000Y-94347500D01*
X104740000Y-94347500D02*
X104740000Y-92540000D01*
X129173796Y-95299000D02*
X130019414Y-95299000D01*
X128016000Y-96139000D02*
X129794000Y-96139000D01*
X129794000Y-91294000D02*
X129794000Y-93873598D01*
X129173796Y-94699000D02*
X130019402Y-94699000D01*
X127350000Y-95473000D02*
X128016000Y-96139000D01*
X130244804Y-94473598D02*
X130244804Y-94324402D01*
X130244828Y-95688172D02*
X130244828Y-95524414D01*
X128500000Y-90000000D02*
X129794000Y-91294000D01*
X127350000Y-94650000D02*
X127350000Y-95473000D01*
X128933796Y-95059000D02*
X128933796Y-94939000D01*
X130244828Y-95524414D02*
G75*
G03*
X130019414Y-95298972I-225428J14D01*
G01*
X130019414Y-95913586D02*
G75*
G03*
X130244786Y-95688172I-14J225386D01*
G01*
X128933796Y-94939000D02*
G75*
G02*
X129173796Y-94698996I240004J0D01*
G01*
X129794000Y-96139000D02*
G75*
G02*
X130019414Y-95913600I225400J0D01*
G01*
X130244804Y-94324402D02*
G75*
G03*
X130019402Y-94098996I-225404J2D01*
G01*
X129173796Y-95299000D02*
G75*
G02*
X128933800Y-95059000I4J240000D01*
G01*
X130019402Y-94699000D02*
G75*
G03*
X130244800Y-94473598I-2J225400D01*
G01*
X130019402Y-94099000D02*
G75*
G02*
X129794000Y-93873598I-2J225400D01*
G01*
X123161795Y-91661795D02*
X122848562Y-91975025D01*
X124889215Y-92140559D02*
X124804360Y-92055704D01*
X125150000Y-94650000D02*
X125150000Y-93650000D01*
X124010327Y-92510327D02*
X123697107Y-92823544D01*
X124010325Y-92510326D02*
X124464948Y-92055704D01*
X123616398Y-91207190D02*
X123161793Y-91661794D01*
X125150000Y-93650000D02*
X124604299Y-93104299D01*
X122737529Y-91237529D02*
X123192155Y-90782902D01*
X122767890Y-90358637D02*
X122482969Y-90643557D01*
X122509152Y-91975026D02*
X122424297Y-91890171D01*
X123161793Y-91661794D02*
X123161795Y-91661795D01*
X124604299Y-92764887D02*
X124889215Y-92479970D01*
X124010325Y-92510326D02*
X124010327Y-92510327D01*
X123192155Y-90443491D02*
X123107301Y-90358637D01*
X123586061Y-92086061D02*
X124040665Y-91631456D01*
X123586059Y-92086058D02*
X123586061Y-92086061D01*
X122737527Y-91237526D02*
X122737529Y-91237529D01*
X121779700Y-90279700D02*
X121500000Y-90000000D01*
X122058705Y-90558705D02*
X121779700Y-90279700D01*
X122424297Y-91550759D02*
X122737527Y-91237526D01*
X122143557Y-90643557D02*
X122058705Y-90558705D01*
X124040665Y-91292045D02*
X123955810Y-91207190D01*
X123272842Y-92399278D02*
X123586059Y-92086058D01*
X123357697Y-92823545D02*
X123272842Y-92738690D01*
X123107301Y-90358637D02*
G75*
G03*
X122767889Y-90358636I-169706J-169703D01*
G01*
X124804360Y-92055704D02*
G75*
G03*
X124464948Y-92055704I-169706J-169704D01*
G01*
X124889215Y-92479970D02*
G75*
G03*
X124889180Y-92140595I-169715J169670D01*
G01*
X123272842Y-92738690D02*
G75*
G02*
X123272858Y-92399294I169658J169690D01*
G01*
X122848562Y-91975025D02*
G75*
G02*
X122509196Y-91974983I-169662J169725D01*
G01*
X124604299Y-93104299D02*
G75*
G02*
X124604306Y-92764894I169701J169699D01*
G01*
X124040665Y-91631456D02*
G75*
G03*
X124040616Y-91292095I-169665J169656D01*
G01*
X122424297Y-91890171D02*
G75*
G02*
X122424332Y-91550794I169703J169671D01*
G01*
X123697107Y-92823544D02*
G75*
G02*
X123357696Y-92823546I-169707J169744D01*
G01*
X123955810Y-91207190D02*
G75*
G03*
X123616398Y-91207190I-169706J-169704D01*
G01*
X122482969Y-90643557D02*
G75*
G02*
X122143557Y-90643557I-169706J169704D01*
G01*
X123192155Y-90782902D02*
G75*
G03*
X123192152Y-90443495I-169655J169702D01*
G01*
X121379973Y-92681396D02*
X121747669Y-92313700D01*
X122935609Y-93162230D02*
X123020461Y-93247082D01*
X122936000Y-94576834D02*
X122936000Y-94650000D01*
X120672868Y-93388504D02*
X121210269Y-92851102D01*
X121210269Y-92851102D02*
X121210269Y-92851103D01*
X122936000Y-99651500D02*
X122000000Y-100587500D01*
X121804237Y-93445071D02*
X121889091Y-93529925D01*
X122936000Y-94650000D02*
X122936000Y-99651500D01*
X122171933Y-92737965D02*
X121804238Y-93105661D01*
X122829164Y-94469998D02*
X122936000Y-94576834D01*
X122652765Y-94293600D02*
X122737619Y-94378453D01*
X122087081Y-92313701D02*
X122171933Y-92398553D01*
X121210269Y-92851103D02*
X121379973Y-92681396D01*
X123020461Y-93586494D02*
X122652764Y-93954188D01*
X120786006Y-92426840D02*
X120248604Y-92964241D01*
X120248604Y-93303652D02*
X120333456Y-93388504D01*
X120531450Y-91832873D02*
X120899144Y-91465176D01*
X122737619Y-94378453D02*
X122829164Y-94469998D01*
X120786005Y-92426841D02*
X120786006Y-92426840D01*
X121238556Y-91465177D02*
X121323408Y-91550029D01*
X122228503Y-93529926D02*
X122596197Y-93162229D01*
X118000000Y-90000000D02*
X118359166Y-90000000D01*
X120786005Y-92426841D02*
X121323408Y-91889441D01*
X118359166Y-90000000D02*
X120192038Y-91832872D01*
X121747669Y-92313700D02*
G75*
G02*
X122087106Y-92313675I169731J-169700D01*
G01*
X120248604Y-92964241D02*
G75*
G03*
X120248650Y-93303605I169696J-169659D01*
G01*
X121323408Y-91550029D02*
G75*
G02*
X121323373Y-91889406I-169708J-169671D01*
G01*
X120333456Y-93388504D02*
G75*
G03*
X120672868Y-93388504I169706J169704D01*
G01*
X121889091Y-93529925D02*
G75*
G03*
X122228505Y-93529928I169709J169725D01*
G01*
X123020461Y-93247082D02*
G75*
G02*
X123020473Y-93586506I-169661J-169718D01*
G01*
X121804238Y-93105661D02*
G75*
G03*
X121804203Y-93445105I169662J-169739D01*
G01*
X122596197Y-93162229D02*
G75*
G02*
X122935606Y-93162233I169703J-169671D01*
G01*
X120899144Y-91465176D02*
G75*
G02*
X121238506Y-91465226I169656J-169724D01*
G01*
X122171933Y-92398553D02*
G75*
G02*
X122171974Y-92738006I-169733J-169747D01*
G01*
X120192038Y-91832872D02*
G75*
G03*
X120531405Y-91832829I169662J169672D01*
G01*
X122652764Y-93954188D02*
G75*
G03*
X122652758Y-94293606I169736J-169712D01*
G01*
X117635787Y-92927074D02*
X117550930Y-92842217D01*
X116787239Y-92078559D02*
X116702385Y-91993705D01*
X116100000Y-90000000D02*
X117058633Y-90958633D01*
X117482898Y-91722309D02*
X117126649Y-92078558D01*
X120750000Y-94650000D02*
X118670844Y-92570844D01*
X118076867Y-91976868D02*
X118076871Y-91976871D01*
X117550931Y-92502807D02*
X118076867Y-91976868D01*
X118072512Y-91132695D02*
X117652603Y-91552603D01*
X118331432Y-92570844D02*
X117975199Y-92927074D01*
X117652605Y-91552605D02*
X117482898Y-91722309D01*
X117652603Y-91552603D02*
X117652605Y-91552605D01*
X114500000Y-90000000D02*
X116100000Y-90000000D01*
X116702384Y-91654293D02*
X117058633Y-91298045D01*
X118076871Y-91976871D02*
X118496779Y-91556962D01*
X118496779Y-91217550D02*
X118411924Y-91132695D01*
X117975199Y-92927074D02*
G75*
G02*
X117635787Y-92927074I-169706J169701D01*
G01*
X118411924Y-91132695D02*
G75*
G03*
X118072512Y-91132695I-169706J-169704D01*
G01*
X118670844Y-92570844D02*
G75*
G03*
X118331432Y-92570844I-169706J-169701D01*
G01*
X117058633Y-91298045D02*
G75*
G03*
X117058672Y-90958594I-169733J169745D01*
G01*
X118496779Y-91556962D02*
G75*
G03*
X118496735Y-91217594I-169679J169662D01*
G01*
X116702385Y-91993705D02*
G75*
G02*
X116702386Y-91654294I169715J169705D01*
G01*
X117126649Y-92078558D02*
G75*
G02*
X116787195Y-92078603I-169749J169658D01*
G01*
X117550930Y-92842217D02*
G75*
G02*
X117550918Y-92502794I169670J169717D01*
G01*
X113433620Y-91374032D02*
X113518472Y-91458884D01*
X112798311Y-92857865D02*
X112883163Y-92942717D01*
X113158384Y-92158385D02*
X113158383Y-92158383D01*
X112798311Y-92518454D02*
X113158383Y-92158383D01*
X117475000Y-116840000D02*
X118999000Y-115316000D01*
X121158000Y-96158000D02*
X119650000Y-94650000D01*
X118999000Y-115316000D02*
X118999000Y-113030000D01*
X118808000Y-93808000D02*
X119650000Y-94650000D01*
X113222575Y-92942717D02*
X113412940Y-92752351D01*
X118999000Y-113030000D02*
X121158000Y-110871000D01*
X112903827Y-91564416D02*
X113094208Y-91374032D01*
X113158384Y-92158385D02*
X113518472Y-91798296D01*
X111000000Y-90000000D02*
X112564415Y-91564415D01*
X114808000Y-93808000D02*
X118808000Y-93808000D01*
X113752352Y-92752351D02*
X114808000Y-93808000D01*
X121158000Y-110871000D02*
X121158000Y-96158000D01*
X113094208Y-91374032D02*
G75*
G02*
X113433620Y-91374032I169706J-169708D01*
G01*
X113412940Y-92752351D02*
G75*
G02*
X113752352Y-92752351I169706J-169704D01*
G01*
X112883163Y-92942717D02*
G75*
G03*
X113222575Y-92942717I169706J169704D01*
G01*
X113518472Y-91458884D02*
G75*
G02*
X113518482Y-91798306I-169672J-169716D01*
G01*
X112798311Y-92518454D02*
G75*
G03*
X112798270Y-92857905I169689J-169746D01*
G01*
X112564415Y-91564415D02*
G75*
G03*
X112903805Y-91564395I169685J169715D01*
G01*
X83185000Y-118110000D02*
X87376000Y-118110000D01*
X87376000Y-118110000D02*
X88011000Y-117475000D01*
X83185000Y-115570000D02*
X84582000Y-116967000D01*
X107500000Y-90000000D02*
X112150000Y-94650000D01*
X112150000Y-94650000D02*
X118550000Y-94650000D01*
X126184309Y-90186486D02*
X125855103Y-90515691D01*
X127762000Y-92762000D02*
X127552169Y-92552169D01*
X126250000Y-94603000D02*
X127762000Y-93091000D01*
X126544144Y-92881370D02*
X126459287Y-92796513D01*
X125430839Y-90430839D02*
X125215000Y-90215000D01*
X127457135Y-91119845D02*
X127372280Y-91034990D01*
X126533928Y-91533929D02*
X126533930Y-91533930D01*
X126109662Y-91109662D02*
X126109663Y-91109663D01*
X127212757Y-92552169D02*
X126883554Y-92881369D01*
X126250000Y-94650000D02*
X126250000Y-94603000D01*
X126109663Y-91109663D02*
X126608574Y-90610751D01*
X127032868Y-91034990D02*
X126533928Y-91533929D01*
X126958193Y-91958195D02*
X126958196Y-91958196D01*
X125515692Y-90515691D02*
X125430839Y-90430839D01*
X125695581Y-92032867D02*
X125610725Y-91948011D01*
X125610724Y-91608599D02*
X126109662Y-91109662D01*
X125215000Y-90215000D02*
X125000000Y-90000000D01*
X126958196Y-91958196D02*
X127457135Y-91459256D01*
X126608574Y-90271340D02*
X126523720Y-90186486D01*
X127762000Y-93091000D02*
X127762000Y-92762000D01*
X126533930Y-91533930D02*
X126034991Y-92032866D01*
X126459286Y-92457101D02*
X126958193Y-91958195D01*
X126459287Y-92796513D02*
G75*
G02*
X126459279Y-92457095I169713J169713D01*
G01*
X126883554Y-92881369D02*
G75*
G02*
X126544095Y-92881419I-169754J169669D01*
G01*
X127457135Y-91459256D02*
G75*
G03*
X127457086Y-91119894I-169735J169656D01*
G01*
X125855103Y-90515691D02*
G75*
G02*
X125515691Y-90515692I-169706J169703D01*
G01*
X125610725Y-91948011D02*
G75*
G02*
X125610719Y-91608594I169675J169711D01*
G01*
X127372280Y-91034990D02*
G75*
G03*
X127032868Y-91034990I-169706J-169704D01*
G01*
X126523720Y-90186486D02*
G75*
G03*
X126184308Y-90186485I-169706J-169703D01*
G01*
X126034991Y-92032866D02*
G75*
G02*
X125695596Y-92032853I-169691J169666D01*
G01*
X126608574Y-90610751D02*
G75*
G03*
X126608620Y-90271294I-169674J169751D01*
G01*
X127552169Y-92552169D02*
G75*
G03*
X127212757Y-92552169I-169706J-169701D01*
G01*
D22*
X116459000Y-125476000D02*
X107569000Y-116586000D01*
X107569000Y-116586000D02*
X107569000Y-113030000D01*
G04 #@! TA.AperFunction,Conductor*
G36*
X130487539Y-80022185D02*
G01*
X130533294Y-80074989D01*
X130544500Y-80126500D01*
X130544500Y-90930129D01*
X130524815Y-90997168D01*
X130472011Y-91042923D01*
X130402853Y-91052867D01*
X130339297Y-91023842D01*
X130313113Y-90992129D01*
X130274522Y-90925287D01*
X130274521Y-90925286D01*
X130274520Y-90925284D01*
X130162716Y-90813480D01*
X130162715Y-90813479D01*
X130158385Y-90809149D01*
X130158374Y-90809139D01*
X129753768Y-90404533D01*
X129720283Y-90343210D01*
X129718976Y-90297454D01*
X129750500Y-90098422D01*
X129750500Y-89901577D01*
X129719709Y-89707173D01*
X129687560Y-89608231D01*
X129658884Y-89519975D01*
X129658882Y-89519972D01*
X129658882Y-89519970D01*
X129587469Y-89379815D01*
X129569524Y-89344595D01*
X129453828Y-89185354D01*
X129314646Y-89046172D01*
X129155405Y-88930476D01*
X128980029Y-88841117D01*
X128792826Y-88780290D01*
X128598422Y-88749500D01*
X128598417Y-88749500D01*
X128401583Y-88749500D01*
X128401578Y-88749500D01*
X128207173Y-88780290D01*
X128019970Y-88841117D01*
X127844594Y-88930476D01*
X127762774Y-88989923D01*
X127685354Y-89046172D01*
X127685352Y-89046174D01*
X127685351Y-89046174D01*
X127546174Y-89185351D01*
X127546174Y-89185352D01*
X127546172Y-89185354D01*
X127544717Y-89187357D01*
X127430476Y-89344594D01*
X127341117Y-89519970D01*
X127280291Y-89707172D01*
X127265495Y-89800588D01*
X127260102Y-89811963D01*
X127259204Y-89824521D01*
X127245418Y-89842936D01*
X127235565Y-89863722D01*
X127224878Y-89870375D01*
X127217334Y-89880455D01*
X127195780Y-89888494D01*
X127176254Y-89900653D01*
X127163665Y-89900473D01*
X127151870Y-89904873D01*
X127129392Y-89899983D01*
X127106391Y-89899655D01*
X127094264Y-89892342D01*
X127083597Y-89890022D01*
X127055342Y-89868871D01*
X127016809Y-89830339D01*
X127016808Y-89830338D01*
X126981653Y-89795180D01*
X126981651Y-89795179D01*
X126977341Y-89790868D01*
X126977309Y-89790839D01*
X126892436Y-89705967D01*
X126892436Y-89705966D01*
X126892432Y-89705963D01*
X126889805Y-89703336D01*
X126889804Y-89703335D01*
X126889802Y-89703333D01*
X126752140Y-89611350D01*
X126599181Y-89547993D01*
X126599175Y-89547991D01*
X126436800Y-89515692D01*
X126436798Y-89515692D01*
X126271233Y-89515692D01*
X126271232Y-89515692D01*
X126259300Y-89518065D01*
X126189708Y-89511836D01*
X126134532Y-89468971D01*
X126124627Y-89452741D01*
X126069525Y-89344596D01*
X126052144Y-89320674D01*
X125953828Y-89185354D01*
X125814646Y-89046172D01*
X125655405Y-88930476D01*
X125480029Y-88841117D01*
X125292826Y-88780290D01*
X125098422Y-88749500D01*
X125098417Y-88749500D01*
X124901583Y-88749500D01*
X124901578Y-88749500D01*
X124707173Y-88780290D01*
X124519970Y-88841117D01*
X124344594Y-88930476D01*
X124262774Y-88989923D01*
X124185354Y-89046172D01*
X124185352Y-89046174D01*
X124185351Y-89046174D01*
X124046174Y-89185351D01*
X124046174Y-89185352D01*
X124046172Y-89185354D01*
X124044717Y-89187357D01*
X123930476Y-89344594D01*
X123841117Y-89519970D01*
X123780291Y-89707172D01*
X123753384Y-89877049D01*
X123747991Y-89888424D01*
X123747093Y-89900984D01*
X123733306Y-89919399D01*
X123723454Y-89940183D01*
X123712766Y-89946837D01*
X123705221Y-89956917D01*
X123683668Y-89964955D01*
X123664142Y-89977114D01*
X123651553Y-89976934D01*
X123639757Y-89981334D01*
X123617280Y-89976444D01*
X123594280Y-89976116D01*
X123582152Y-89968802D01*
X123571484Y-89966482D01*
X123543230Y-89945331D01*
X123476016Y-89878117D01*
X123473386Y-89875487D01*
X123473385Y-89875486D01*
X123473383Y-89875484D01*
X123335721Y-89783501D01*
X123182762Y-89720144D01*
X123182756Y-89720142D01*
X123020381Y-89687843D01*
X123020379Y-89687843D01*
X122854814Y-89687843D01*
X122854810Y-89687843D01*
X122830078Y-89692762D01*
X122760487Y-89686532D01*
X122705311Y-89643668D01*
X122687960Y-89609462D01*
X122687560Y-89608231D01*
X122658884Y-89519975D01*
X122569524Y-89344595D01*
X122453828Y-89185354D01*
X122314646Y-89046172D01*
X122155405Y-88930476D01*
X121980029Y-88841117D01*
X121792826Y-88780290D01*
X121598422Y-88749500D01*
X121598417Y-88749500D01*
X121401583Y-88749500D01*
X121401578Y-88749500D01*
X121207173Y-88780290D01*
X121019970Y-88841117D01*
X120844594Y-88930476D01*
X120762774Y-88989923D01*
X120685354Y-89046172D01*
X120685352Y-89046174D01*
X120685351Y-89046174D01*
X120546174Y-89185351D01*
X120546174Y-89185352D01*
X120546172Y-89185354D01*
X120544717Y-89187357D01*
X120430476Y-89344594D01*
X120341117Y-89519970D01*
X120280290Y-89707173D01*
X120249500Y-89901577D01*
X120249500Y-90098422D01*
X120280290Y-90292826D01*
X120341117Y-90480029D01*
X120421006Y-90636819D01*
X120430476Y-90655405D01*
X120545789Y-90814119D01*
X120548849Y-90818330D01*
X120560230Y-90850227D01*
X120572177Y-90881853D01*
X120571929Y-90883015D01*
X120572329Y-90884136D01*
X120564664Y-90917094D01*
X120557611Y-90950187D01*
X120556677Y-90951445D01*
X120556504Y-90952190D01*
X120536578Y-90978530D01*
X120536459Y-90978650D01*
X120535960Y-90979090D01*
X120535977Y-90979107D01*
X120474608Y-91040476D01*
X120449399Y-91065674D01*
X120388069Y-91099146D01*
X120318378Y-91094146D01*
X120274056Y-91065655D01*
X119286819Y-90078418D01*
X119253334Y-90017095D01*
X119250500Y-89990737D01*
X119250500Y-89901577D01*
X119219709Y-89707173D01*
X119187560Y-89608231D01*
X119158884Y-89519975D01*
X119158882Y-89519972D01*
X119158882Y-89519970D01*
X119087469Y-89379815D01*
X119069524Y-89344595D01*
X118953828Y-89185354D01*
X118814646Y-89046172D01*
X118655405Y-88930476D01*
X118480029Y-88841117D01*
X118292826Y-88780290D01*
X118098422Y-88749500D01*
X118098417Y-88749500D01*
X117901583Y-88749500D01*
X117901578Y-88749500D01*
X117707173Y-88780290D01*
X117519970Y-88841117D01*
X117344594Y-88930476D01*
X117262774Y-88989923D01*
X117185354Y-89046172D01*
X117185352Y-89046174D01*
X117185351Y-89046174D01*
X117046174Y-89185351D01*
X117046174Y-89185352D01*
X117046172Y-89185354D01*
X117044717Y-89187357D01*
X116930476Y-89344594D01*
X116841117Y-89519970D01*
X116812440Y-89608231D01*
X116810887Y-89610501D01*
X116810691Y-89613246D01*
X116791283Y-89639170D01*
X116773002Y-89665906D01*
X116770467Y-89666977D01*
X116768819Y-89669179D01*
X116738479Y-89680495D01*
X116708643Y-89693104D01*
X116705932Y-89692634D01*
X116703355Y-89693596D01*
X116671712Y-89686712D01*
X116639797Y-89681189D01*
X116636947Y-89679149D01*
X116635082Y-89678744D01*
X116606828Y-89657593D01*
X116587590Y-89638355D01*
X116587588Y-89638352D01*
X116468717Y-89519481D01*
X116468716Y-89519480D01*
X116381904Y-89469360D01*
X116381904Y-89469359D01*
X116381900Y-89469358D01*
X116331785Y-89440423D01*
X116179057Y-89399499D01*
X116020943Y-89399499D01*
X116013347Y-89399499D01*
X116013331Y-89399500D01*
X115672596Y-89399500D01*
X115605557Y-89379815D01*
X115572278Y-89348386D01*
X115569524Y-89344596D01*
X115569524Y-89344595D01*
X115453828Y-89185354D01*
X115314646Y-89046172D01*
X115155405Y-88930476D01*
X114980029Y-88841117D01*
X114792826Y-88780290D01*
X114598422Y-88749500D01*
X114598417Y-88749500D01*
X114401583Y-88749500D01*
X114401578Y-88749500D01*
X114207173Y-88780290D01*
X114019970Y-88841117D01*
X113844594Y-88930476D01*
X113762774Y-88989923D01*
X113685354Y-89046172D01*
X113685352Y-89046174D01*
X113685351Y-89046174D01*
X113546174Y-89185351D01*
X113546174Y-89185352D01*
X113546172Y-89185354D01*
X113544717Y-89187357D01*
X113430476Y-89344594D01*
X113341117Y-89519970D01*
X113280290Y-89707173D01*
X113249500Y-89901577D01*
X113249500Y-90098422D01*
X113280290Y-90292826D01*
X113341117Y-90480029D01*
X113362984Y-90522944D01*
X113375880Y-90591614D01*
X113349603Y-90656354D01*
X113292497Y-90696611D01*
X113252499Y-90703239D01*
X113181127Y-90703239D01*
X113018759Y-90735536D01*
X113018747Y-90735539D01*
X112865797Y-90798892D01*
X112865781Y-90798901D01*
X112819924Y-90829541D01*
X112753246Y-90850418D01*
X112685866Y-90831932D01*
X112663354Y-90814119D01*
X112253768Y-90404533D01*
X112220283Y-90343210D01*
X112218976Y-90297454D01*
X112250500Y-90098422D01*
X112250500Y-89901577D01*
X112219709Y-89707173D01*
X112187560Y-89608231D01*
X112158884Y-89519975D01*
X112158882Y-89519972D01*
X112158882Y-89519970D01*
X112087469Y-89379815D01*
X112069524Y-89344595D01*
X111953828Y-89185354D01*
X111814646Y-89046172D01*
X111655405Y-88930476D01*
X111480029Y-88841117D01*
X111292826Y-88780290D01*
X111098422Y-88749500D01*
X111098417Y-88749500D01*
X110901583Y-88749500D01*
X110901578Y-88749500D01*
X110707173Y-88780290D01*
X110519970Y-88841117D01*
X110344594Y-88930476D01*
X110262774Y-88989923D01*
X110185354Y-89046172D01*
X110185352Y-89046174D01*
X110185351Y-89046174D01*
X110046174Y-89185351D01*
X110046174Y-89185352D01*
X110046172Y-89185354D01*
X110044717Y-89187357D01*
X109930476Y-89344594D01*
X109841117Y-89519970D01*
X109780290Y-89707173D01*
X109749500Y-89901577D01*
X109749500Y-90098422D01*
X109780290Y-90292826D01*
X109841117Y-90480029D01*
X109921006Y-90636819D01*
X109930476Y-90655405D01*
X110046172Y-90814646D01*
X110185354Y-90953828D01*
X110344595Y-91069524D01*
X110392919Y-91094146D01*
X110519970Y-91158882D01*
X110519972Y-91158882D01*
X110519975Y-91158884D01*
X110579202Y-91178128D01*
X110707173Y-91219709D01*
X110901578Y-91250500D01*
X110901583Y-91250500D01*
X111098422Y-91250500D01*
X111297454Y-91218976D01*
X111366747Y-91227930D01*
X111404533Y-91253768D01*
X112083017Y-91932252D01*
X112088262Y-91937499D01*
X112088273Y-91937517D01*
X112101037Y-91950279D01*
X112101644Y-91950886D01*
X112103490Y-91952732D01*
X112103491Y-91952734D01*
X112103513Y-91952756D01*
X112103561Y-91952844D01*
X112198352Y-92047620D01*
X112198359Y-92047626D01*
X112224422Y-92065037D01*
X112269232Y-92118645D01*
X112277946Y-92187969D01*
X112258633Y-92237052D01*
X112223252Y-92289984D01*
X112159873Y-92442935D01*
X112159871Y-92442940D01*
X112127551Y-92605317D01*
X112127530Y-92770882D01*
X112159813Y-92933269D01*
X112189240Y-93004330D01*
X112223159Y-93086241D01*
X112313273Y-93221130D01*
X112315136Y-93223918D01*
X112317783Y-93226565D01*
X112317792Y-93226581D01*
X112361064Y-93269853D01*
X112373663Y-93282452D01*
X112373663Y-93282453D01*
X112425218Y-93334014D01*
X112425219Y-93334014D01*
X112430759Y-93339555D01*
X112430817Y-93339606D01*
X112432990Y-93341779D01*
X112458543Y-93367332D01*
X112517079Y-93425869D01*
X112517082Y-93425871D01*
X112517084Y-93425873D01*
X112517086Y-93425874D01*
X112623043Y-93496672D01*
X112654741Y-93517852D01*
X112807703Y-93581212D01*
X112970081Y-93613511D01*
X112970084Y-93613512D01*
X112970086Y-93613512D01*
X113135654Y-93613512D01*
X113135655Y-93613511D01*
X113298035Y-93581212D01*
X113450997Y-93517852D01*
X113496836Y-93487222D01*
X113563512Y-93466344D01*
X113630892Y-93484828D01*
X113653408Y-93502643D01*
X113988584Y-93837819D01*
X114022069Y-93899142D01*
X114017085Y-93968834D01*
X113975213Y-94024767D01*
X113909749Y-94049184D01*
X113900903Y-94049500D01*
X112450097Y-94049500D01*
X112383058Y-94029815D01*
X112362416Y-94013181D01*
X108753768Y-90404533D01*
X108720283Y-90343210D01*
X108718976Y-90297454D01*
X108750500Y-90098422D01*
X108750500Y-89901577D01*
X108719709Y-89707173D01*
X108687560Y-89608231D01*
X108658884Y-89519975D01*
X108658882Y-89519972D01*
X108658882Y-89519970D01*
X108587469Y-89379815D01*
X108569524Y-89344595D01*
X108453828Y-89185354D01*
X108314646Y-89046172D01*
X108155405Y-88930476D01*
X107980029Y-88841117D01*
X107792826Y-88780290D01*
X107598422Y-88749500D01*
X107598417Y-88749500D01*
X107401583Y-88749500D01*
X107401578Y-88749500D01*
X107207173Y-88780290D01*
X107019970Y-88841117D01*
X106844594Y-88930476D01*
X106762774Y-88989923D01*
X106685354Y-89046172D01*
X106685352Y-89046174D01*
X106685351Y-89046174D01*
X106546174Y-89185351D01*
X106546174Y-89185352D01*
X106546172Y-89185354D01*
X106544717Y-89187357D01*
X106430474Y-89344597D01*
X106398832Y-89406698D01*
X106350858Y-89457493D01*
X106283037Y-89474288D01*
X106216902Y-89451750D01*
X106177863Y-89406697D01*
X106146220Y-89344594D01*
X106066106Y-89187361D01*
X105963527Y-89046172D01*
X105922660Y-88989923D01*
X105922656Y-88989918D01*
X105750419Y-88817681D01*
X105716934Y-88756358D01*
X105721918Y-88686666D01*
X105750419Y-88642319D01*
X105829642Y-88563096D01*
X105922655Y-88470083D01*
X106066106Y-88272639D01*
X106176904Y-88055185D01*
X106252321Y-87823076D01*
X106290500Y-87582027D01*
X106290500Y-87337973D01*
X106252321Y-87096924D01*
X106176904Y-86864815D01*
X106066106Y-86647361D01*
X106047779Y-86622136D01*
X105922660Y-86449923D01*
X105922656Y-86449918D01*
X105750081Y-86277343D01*
X105750076Y-86277339D01*
X105699410Y-86240528D01*
X105673919Y-86207471D01*
X105025757Y-85559309D01*
X105071574Y-85540332D01*
X105186224Y-85463726D01*
X105283726Y-85366224D01*
X105360332Y-85251574D01*
X105379309Y-85205757D01*
X105998454Y-85824902D01*
X105998454Y-85824901D01*
X106065678Y-85732377D01*
X106176439Y-85514996D01*
X106251959Y-85282573D01*
X106291397Y-85224897D01*
X106355755Y-85197699D01*
X106424601Y-85209614D01*
X106476077Y-85256858D01*
X106493110Y-85307006D01*
X106506258Y-85423692D01*
X106506260Y-85423702D01*
X106569380Y-85700253D01*
X106569383Y-85700261D01*
X106663067Y-85967993D01*
X106786139Y-86223554D01*
X106819934Y-86277339D01*
X106937056Y-86463737D01*
X107009913Y-86555097D01*
X107083702Y-86647626D01*
X107113914Y-86685510D01*
X107314490Y-86886086D01*
X107536263Y-87062944D01*
X107776443Y-87213859D01*
X107776445Y-87213860D01*
X107861632Y-87254884D01*
X108032010Y-87336934D01*
X108233092Y-87407295D01*
X108299738Y-87430616D01*
X108299746Y-87430619D01*
X108299749Y-87430619D01*
X108299750Y-87430620D01*
X108576297Y-87493740D01*
X108858166Y-87525499D01*
X108858167Y-87525500D01*
X108858171Y-87525500D01*
X109141833Y-87525500D01*
X109141833Y-87525499D01*
X109423703Y-87493740D01*
X109700250Y-87430620D01*
X109967990Y-87336934D01*
X110223557Y-87213859D01*
X110463737Y-87062944D01*
X110685510Y-86886086D01*
X110886086Y-86685510D01*
X111062944Y-86463737D01*
X111213859Y-86223557D01*
X111336934Y-85967990D01*
X111430620Y-85700250D01*
X111493740Y-85423703D01*
X111525500Y-85141829D01*
X111525500Y-84858171D01*
X111493740Y-84576297D01*
X111430620Y-84299750D01*
X111430591Y-84299668D01*
X111363393Y-84107626D01*
X111336934Y-84032010D01*
X111213859Y-83776443D01*
X111062944Y-83536263D01*
X111043966Y-83512465D01*
X116399500Y-83512465D01*
X116399500Y-83687534D01*
X116429898Y-83859937D01*
X116489775Y-84024446D01*
X116577309Y-84176057D01*
X116689836Y-84310163D01*
X116823942Y-84422690D01*
X116823943Y-84422691D01*
X116823945Y-84422692D01*
X116975555Y-84510225D01*
X117140062Y-84570101D01*
X117312468Y-84600500D01*
X117312472Y-84600500D01*
X118187528Y-84600500D01*
X118187532Y-84600500D01*
X118359938Y-84570101D01*
X118524445Y-84510225D01*
X118676055Y-84422692D01*
X118810163Y-84310163D01*
X118922692Y-84176055D01*
X119010225Y-84024445D01*
X119070101Y-83859938D01*
X119100500Y-83687532D01*
X119100500Y-83673920D01*
X124999499Y-83673920D01*
X125028340Y-83818907D01*
X125028343Y-83818917D01*
X125084912Y-83955488D01*
X125084919Y-83955501D01*
X125167048Y-84078415D01*
X125167051Y-84078419D01*
X125271580Y-84182948D01*
X125271584Y-84182951D01*
X125394498Y-84265080D01*
X125394511Y-84265087D01*
X125531082Y-84321656D01*
X125531087Y-84321658D01*
X125531091Y-84321658D01*
X125531092Y-84321659D01*
X125676079Y-84350500D01*
X125676082Y-84350500D01*
X125823920Y-84350500D01*
X125921462Y-84331096D01*
X125968913Y-84321658D01*
X126105495Y-84265084D01*
X126228416Y-84182951D01*
X126332951Y-84078416D01*
X126415084Y-83955495D01*
X126471658Y-83818913D01*
X126481096Y-83771462D01*
X126500500Y-83673920D01*
X126500500Y-83526079D01*
X126471659Y-83381092D01*
X126471658Y-83381091D01*
X126471658Y-83381087D01*
X126444073Y-83314490D01*
X126415087Y-83244511D01*
X126415080Y-83244498D01*
X126332951Y-83121584D01*
X126332948Y-83121580D01*
X126228419Y-83017051D01*
X126228415Y-83017048D01*
X126105501Y-82934919D01*
X126105488Y-82934912D01*
X125968917Y-82878343D01*
X125968907Y-82878340D01*
X125823920Y-82849500D01*
X125823918Y-82849500D01*
X125676082Y-82849500D01*
X125676080Y-82849500D01*
X125531092Y-82878340D01*
X125531082Y-82878343D01*
X125394511Y-82934912D01*
X125394498Y-82934919D01*
X125271584Y-83017048D01*
X125271580Y-83017051D01*
X125167051Y-83121580D01*
X125167048Y-83121584D01*
X125084919Y-83244498D01*
X125084912Y-83244511D01*
X125028343Y-83381082D01*
X125028340Y-83381092D01*
X124999500Y-83526079D01*
X124999500Y-83526082D01*
X124999500Y-83673918D01*
X124999500Y-83673920D01*
X124999499Y-83673920D01*
X119100500Y-83673920D01*
X119100500Y-83600000D01*
X119100500Y-83534108D01*
X119100500Y-83512468D01*
X119070101Y-83340062D01*
X119010225Y-83175555D01*
X118979064Y-83121584D01*
X118922690Y-83023942D01*
X118810163Y-82889836D01*
X118676057Y-82777309D01*
X118524446Y-82689775D01*
X118359937Y-82629898D01*
X118187534Y-82599500D01*
X118187532Y-82599500D01*
X118165892Y-82599500D01*
X117465892Y-82599500D01*
X117400000Y-82599500D01*
X117312468Y-82599500D01*
X117312465Y-82599500D01*
X117140062Y-82629898D01*
X116975553Y-82689775D01*
X116823942Y-82777309D01*
X116689836Y-82889836D01*
X116577309Y-83023942D01*
X116489775Y-83175553D01*
X116429898Y-83340062D01*
X116399500Y-83512465D01*
X111043966Y-83512465D01*
X110886086Y-83314490D01*
X110685510Y-83113914D01*
X110463737Y-82937056D01*
X110223557Y-82786141D01*
X110223554Y-82786139D01*
X109967993Y-82663067D01*
X109700261Y-82569383D01*
X109700253Y-82569380D01*
X109492839Y-82522040D01*
X109423703Y-82506260D01*
X109423699Y-82506259D01*
X109423690Y-82506258D01*
X109141833Y-82474500D01*
X109141829Y-82474500D01*
X108858171Y-82474500D01*
X108858167Y-82474500D01*
X108576309Y-82506258D01*
X108576297Y-82506260D01*
X108299746Y-82569380D01*
X108299738Y-82569383D01*
X108032006Y-82663067D01*
X107776445Y-82786139D01*
X107536264Y-82937055D01*
X107314490Y-83113913D01*
X107113913Y-83314490D01*
X106937055Y-83536264D01*
X106786139Y-83776445D01*
X106663067Y-84032006D01*
X106569383Y-84299738D01*
X106569380Y-84299746D01*
X106506260Y-84576297D01*
X106506258Y-84576304D01*
X106504260Y-84594041D01*
X106477191Y-84658454D01*
X106419596Y-84698008D01*
X106349759Y-84700143D01*
X106289853Y-84664184D01*
X106258899Y-84601545D01*
X106258567Y-84599551D01*
X106251834Y-84557041D01*
X106251834Y-84557040D01*
X106176439Y-84325001D01*
X106065676Y-84107619D01*
X105998456Y-84015097D01*
X105998454Y-84015096D01*
X105379309Y-84634241D01*
X105360332Y-84588426D01*
X105283726Y-84473776D01*
X105186224Y-84376274D01*
X105071574Y-84299668D01*
X105025755Y-84280689D01*
X105662437Y-83644009D01*
X105663039Y-83641145D01*
X105699408Y-83599472D01*
X105750083Y-83562655D01*
X105922655Y-83390083D01*
X106066106Y-83192639D01*
X106176904Y-82975185D01*
X106252321Y-82743076D01*
X106290500Y-82502027D01*
X106290500Y-82257973D01*
X106252321Y-82016924D01*
X106176904Y-81784815D01*
X106066106Y-81567361D01*
X106047779Y-81542136D01*
X105922660Y-81369923D01*
X105922656Y-81369918D01*
X105750081Y-81197343D01*
X105750076Y-81197339D01*
X105552642Y-81053896D01*
X105552641Y-81053895D01*
X105552639Y-81053894D01*
X105335185Y-80943096D01*
X105103076Y-80867679D01*
X105103074Y-80867678D01*
X105103072Y-80867678D01*
X104934769Y-80841021D01*
X104862027Y-80829500D01*
X104617973Y-80829500D01*
X104562093Y-80838350D01*
X104376927Y-80867678D01*
X104144812Y-80943097D01*
X103927357Y-81053896D01*
X103729923Y-81197339D01*
X103729918Y-81197343D01*
X103557343Y-81369918D01*
X103557339Y-81369923D01*
X103413896Y-81567357D01*
X103303097Y-81784812D01*
X103227678Y-82016927D01*
X103189500Y-82257973D01*
X103189500Y-82502027D01*
X103200168Y-82569380D01*
X103215006Y-82663067D01*
X103227679Y-82743076D01*
X103303096Y-82975185D01*
X103405189Y-83175555D01*
X103413896Y-83192642D01*
X103557339Y-83390076D01*
X103557343Y-83390081D01*
X103557345Y-83390083D01*
X103729917Y-83562655D01*
X103780588Y-83599470D01*
X103806081Y-83632529D01*
X104454242Y-84280690D01*
X104408426Y-84299668D01*
X104293776Y-84376274D01*
X104196274Y-84473776D01*
X104119668Y-84588426D01*
X104100690Y-84634243D01*
X103481544Y-84015097D01*
X103414319Y-84107626D01*
X103303560Y-84325001D01*
X103228165Y-84557040D01*
X103190000Y-84798006D01*
X103190000Y-85041993D01*
X103228165Y-85282959D01*
X103303560Y-85514998D01*
X103414323Y-85732380D01*
X103481543Y-85824901D01*
X103481544Y-85824902D01*
X104100690Y-85205756D01*
X104119668Y-85251574D01*
X104196274Y-85366224D01*
X104293776Y-85463726D01*
X104408426Y-85540332D01*
X104454242Y-85559309D01*
X103817556Y-86195994D01*
X103816953Y-86198866D01*
X103780590Y-86240528D01*
X103729917Y-86277344D01*
X103557343Y-86449918D01*
X103557339Y-86449923D01*
X103413896Y-86647357D01*
X103303097Y-86864812D01*
X103227678Y-87096927D01*
X103189500Y-87337973D01*
X103189500Y-87582026D01*
X103226170Y-87813553D01*
X103227679Y-87823076D01*
X103303096Y-88055185D01*
X103413762Y-88272380D01*
X103413896Y-88272642D01*
X103557339Y-88470076D01*
X103557343Y-88470081D01*
X103729581Y-88642319D01*
X103763066Y-88703642D01*
X103758082Y-88773334D01*
X103729581Y-88817681D01*
X103557343Y-88989918D01*
X103557339Y-88989923D01*
X103413896Y-89187357D01*
X103303097Y-89404812D01*
X103303096Y-89404814D01*
X103303096Y-89404815D01*
X103302484Y-89406698D01*
X103227678Y-89636927D01*
X103189500Y-89877973D01*
X103189500Y-90122026D01*
X103226926Y-90358326D01*
X103227679Y-90363076D01*
X103303096Y-90595185D01*
X103406894Y-90798901D01*
X103413896Y-90812642D01*
X103463854Y-90881404D01*
X103487334Y-90947210D01*
X103471509Y-91015264D01*
X103437848Y-91053555D01*
X103332452Y-91132455D01*
X103246206Y-91247664D01*
X103246202Y-91247671D01*
X103195908Y-91382517D01*
X103192179Y-91417209D01*
X103189501Y-91442123D01*
X103189500Y-91442135D01*
X103189500Y-93637870D01*
X103189501Y-93637879D01*
X103191710Y-93658427D01*
X103179302Y-93727187D01*
X103131690Y-93778323D01*
X103063991Y-93795600D01*
X102999530Y-93774781D01*
X102947822Y-93740231D01*
X102947804Y-93740221D01*
X102820332Y-93687421D01*
X102820322Y-93687418D01*
X102684995Y-93660500D01*
X102684993Y-93660500D01*
X102547007Y-93660500D01*
X102547005Y-93660500D01*
X102411677Y-93687418D01*
X102411667Y-93687421D01*
X102284195Y-93740221D01*
X102284182Y-93740228D01*
X102169458Y-93816885D01*
X102169454Y-93816888D01*
X102071888Y-93914454D01*
X102071885Y-93914458D01*
X101995228Y-94029182D01*
X101995221Y-94029195D01*
X101942421Y-94156667D01*
X101942418Y-94156677D01*
X101915500Y-94292004D01*
X101915500Y-94292007D01*
X101915500Y-94429993D01*
X101915500Y-94429995D01*
X101915499Y-94429995D01*
X101942418Y-94565322D01*
X101942421Y-94565332D01*
X101995221Y-94692804D01*
X101995228Y-94692817D01*
X102071885Y-94807541D01*
X102071888Y-94807545D01*
X102169454Y-94905111D01*
X102169458Y-94905114D01*
X102284182Y-94981771D01*
X102284195Y-94981778D01*
X102411667Y-95034578D01*
X102411672Y-95034580D01*
X102411676Y-95034580D01*
X102411677Y-95034581D01*
X102547004Y-95061500D01*
X102547007Y-95061500D01*
X102684995Y-95061500D01*
X102776041Y-95043389D01*
X102820328Y-95034580D01*
X102898825Y-95002065D01*
X102968289Y-94994597D01*
X103030769Y-95025871D01*
X103066422Y-95085960D01*
X103063929Y-95155785D01*
X103033955Y-95204308D01*
X96728309Y-101509953D01*
X96666986Y-101543438D01*
X96597294Y-101538454D01*
X96541361Y-101496582D01*
X96516944Y-101431118D01*
X96526066Y-101374823D01*
X96558580Y-101296328D01*
X96568654Y-101245682D01*
X96585500Y-101160995D01*
X96585500Y-101023004D01*
X96558581Y-100887677D01*
X96558580Y-100887676D01*
X96558580Y-100887672D01*
X96558578Y-100887667D01*
X96505778Y-100760195D01*
X96505771Y-100760182D01*
X96429114Y-100645458D01*
X96429111Y-100645454D01*
X96331545Y-100547888D01*
X96331541Y-100547885D01*
X96216817Y-100471228D01*
X96216804Y-100471221D01*
X96089332Y-100418421D01*
X96089322Y-100418418D01*
X95953995Y-100391500D01*
X95953993Y-100391500D01*
X95816007Y-100391500D01*
X95816005Y-100391500D01*
X95680677Y-100418418D01*
X95680667Y-100418421D01*
X95553195Y-100471221D01*
X95553182Y-100471228D01*
X95438458Y-100547885D01*
X95438454Y-100547888D01*
X95340888Y-100645454D01*
X95340885Y-100645458D01*
X95264228Y-100760182D01*
X95264221Y-100760195D01*
X95211421Y-100887667D01*
X95211418Y-100887677D01*
X95184500Y-101023004D01*
X95184500Y-101023007D01*
X95184500Y-101160993D01*
X95184500Y-101160995D01*
X95184499Y-101160995D01*
X95211418Y-101296322D01*
X95211421Y-101296332D01*
X95264221Y-101423804D01*
X95264228Y-101423817D01*
X95340885Y-101538541D01*
X95340888Y-101538545D01*
X95438454Y-101636111D01*
X95438458Y-101636114D01*
X95553182Y-101712771D01*
X95553195Y-101712778D01*
X95659649Y-101756872D01*
X95680672Y-101765580D01*
X95680676Y-101765580D01*
X95680677Y-101765581D01*
X95816004Y-101792500D01*
X95816007Y-101792500D01*
X95953995Y-101792500D01*
X96045041Y-101774389D01*
X96089328Y-101765580D01*
X96167822Y-101733066D01*
X96237288Y-101725598D01*
X96299767Y-101756872D01*
X96335420Y-101816961D01*
X96332927Y-101886786D01*
X96302953Y-101935309D01*
X94415562Y-103822700D01*
X94354239Y-103856185D01*
X94284547Y-103851201D01*
X94228614Y-103809329D01*
X94204197Y-103743865D01*
X94205408Y-103715620D01*
X94211000Y-103680316D01*
X94211000Y-103628000D01*
X93257410Y-103628000D01*
X93307037Y-103542044D01*
X93336000Y-103433952D01*
X93336000Y-103322048D01*
X93307037Y-103213956D01*
X93257410Y-103128000D01*
X94211000Y-103128000D01*
X94211000Y-103075682D01*
X94178990Y-102873582D01*
X94115755Y-102678968D01*
X94022859Y-102496650D01*
X93902582Y-102331105D01*
X93902582Y-102331104D01*
X93757895Y-102186417D01*
X93592349Y-102066140D01*
X93410029Y-101973244D01*
X93215413Y-101910009D01*
X93161000Y-101901390D01*
X93161000Y-103031590D01*
X93075044Y-102981963D01*
X92966952Y-102953000D01*
X92855048Y-102953000D01*
X92746956Y-102981963D01*
X92661000Y-103031590D01*
X92661000Y-101901390D01*
X92606586Y-101910009D01*
X92411970Y-101973244D01*
X92229650Y-102066140D01*
X92064105Y-102186417D01*
X92064104Y-102186417D01*
X91919417Y-102331104D01*
X91919417Y-102331105D01*
X91799140Y-102496650D01*
X91706244Y-102678968D01*
X91643009Y-102873582D01*
X91611000Y-103075682D01*
X91611000Y-103128000D01*
X92564590Y-103128000D01*
X92514963Y-103213956D01*
X92486000Y-103322048D01*
X92486000Y-103433952D01*
X92514963Y-103542044D01*
X92564590Y-103628000D01*
X91611000Y-103628000D01*
X91611000Y-103680317D01*
X91643009Y-103882417D01*
X91706244Y-104077031D01*
X91799140Y-104259349D01*
X91919417Y-104424894D01*
X91919417Y-104424895D01*
X92064104Y-104569582D01*
X92229650Y-104689859D01*
X92411968Y-104782754D01*
X92606578Y-104845988D01*
X92661000Y-104854607D01*
X92661000Y-103724409D01*
X92746956Y-103774037D01*
X92855048Y-103803000D01*
X92966952Y-103803000D01*
X93075044Y-103774037D01*
X93161000Y-103724409D01*
X93161000Y-104854607D01*
X93179087Y-104870055D01*
X93217280Y-104928562D01*
X93217779Y-104998430D01*
X93186236Y-105052026D01*
X89858061Y-108380202D01*
X89801228Y-108411235D01*
X89801506Y-108412150D01*
X89797110Y-108413483D01*
X89796738Y-108413687D01*
X89795787Y-108413885D01*
X89795669Y-108413920D01*
X89668195Y-108466721D01*
X89668182Y-108466728D01*
X89553458Y-108543385D01*
X89553454Y-108543388D01*
X89455888Y-108640954D01*
X89455885Y-108640958D01*
X89379228Y-108755682D01*
X89379221Y-108755695D01*
X89326421Y-108883167D01*
X89326418Y-108883177D01*
X89299500Y-109018504D01*
X89299500Y-109018507D01*
X89299500Y-109156493D01*
X89299500Y-109156495D01*
X89299499Y-109156495D01*
X89326418Y-109291822D01*
X89326421Y-109291832D01*
X89379221Y-109419304D01*
X89379228Y-109419317D01*
X89455885Y-109534041D01*
X89455888Y-109534045D01*
X89553454Y-109631611D01*
X89553458Y-109631614D01*
X89668182Y-109708271D01*
X89668195Y-109708278D01*
X89795667Y-109761078D01*
X89795672Y-109761080D01*
X89795676Y-109761080D01*
X89795677Y-109761081D01*
X89931004Y-109788000D01*
X89931007Y-109788000D01*
X90068995Y-109788000D01*
X90160041Y-109769889D01*
X90204328Y-109761080D01*
X90331811Y-109708275D01*
X90446542Y-109631614D01*
X90544114Y-109534042D01*
X90620775Y-109419311D01*
X90673580Y-109291828D01*
X90673580Y-109291825D01*
X90675346Y-109286006D01*
X90676760Y-109286434D01*
X90705734Y-109231027D01*
X90707241Y-109229492D01*
X97606598Y-102330135D01*
X112110500Y-102330135D01*
X112110500Y-104425870D01*
X112110501Y-104425876D01*
X112116908Y-104485483D01*
X112167202Y-104620328D01*
X112167206Y-104620335D01*
X112253452Y-104735544D01*
X112253455Y-104735547D01*
X112368664Y-104821793D01*
X112368671Y-104821797D01*
X112503517Y-104872091D01*
X112503516Y-104872091D01*
X112510444Y-104872835D01*
X112563127Y-104878500D01*
X114258872Y-104878499D01*
X114318483Y-104872091D01*
X114453331Y-104821796D01*
X114568546Y-104735546D01*
X114654796Y-104620331D01*
X114705091Y-104485483D01*
X114711500Y-104425873D01*
X114711499Y-102481495D01*
X115299499Y-102481495D01*
X115326418Y-102616822D01*
X115326421Y-102616832D01*
X115379221Y-102744304D01*
X115379228Y-102744317D01*
X115455885Y-102859041D01*
X115455888Y-102859045D01*
X115553454Y-102956611D01*
X115553458Y-102956614D01*
X115668182Y-103033271D01*
X115668195Y-103033278D01*
X115770569Y-103075682D01*
X115795672Y-103086080D01*
X115795676Y-103086080D01*
X115795677Y-103086081D01*
X115931004Y-103113000D01*
X115931007Y-103113000D01*
X116068995Y-103113000D01*
X116160041Y-103094889D01*
X116204328Y-103086080D01*
X116305643Y-103044114D01*
X116331804Y-103033278D01*
X116331804Y-103033277D01*
X116331811Y-103033275D01*
X116446542Y-102956614D01*
X116544114Y-102859042D01*
X116620775Y-102744311D01*
X116673580Y-102616828D01*
X116700500Y-102481495D01*
X117299499Y-102481495D01*
X117326418Y-102616822D01*
X117326421Y-102616832D01*
X117379221Y-102744304D01*
X117379228Y-102744317D01*
X117455885Y-102859041D01*
X117455888Y-102859045D01*
X117553454Y-102956611D01*
X117553458Y-102956614D01*
X117668182Y-103033271D01*
X117668195Y-103033278D01*
X117770569Y-103075682D01*
X117795672Y-103086080D01*
X117795676Y-103086080D01*
X117795677Y-103086081D01*
X117931004Y-103113000D01*
X117931007Y-103113000D01*
X118068995Y-103113000D01*
X118160041Y-103094889D01*
X118204328Y-103086080D01*
X118305643Y-103044114D01*
X118331804Y-103033278D01*
X118331804Y-103033277D01*
X118331811Y-103033275D01*
X118446542Y-102956614D01*
X118544114Y-102859042D01*
X118620775Y-102744311D01*
X118673580Y-102616828D01*
X118700500Y-102481493D01*
X118700500Y-102343507D01*
X118700500Y-102343504D01*
X118673581Y-102208177D01*
X118673580Y-102208176D01*
X118673580Y-102208172D01*
X118657016Y-102168182D01*
X118620778Y-102080695D01*
X118620771Y-102080682D01*
X118544114Y-101965958D01*
X118544111Y-101965954D01*
X118446545Y-101868388D01*
X118446541Y-101868385D01*
X118331817Y-101791728D01*
X118331804Y-101791721D01*
X118204332Y-101738921D01*
X118204322Y-101738918D01*
X118068995Y-101712000D01*
X118068993Y-101712000D01*
X117931007Y-101712000D01*
X117931005Y-101712000D01*
X117795677Y-101738918D01*
X117795667Y-101738921D01*
X117668195Y-101791721D01*
X117668182Y-101791728D01*
X117553458Y-101868385D01*
X117553454Y-101868388D01*
X117455888Y-101965954D01*
X117455885Y-101965958D01*
X117379228Y-102080682D01*
X117379221Y-102080695D01*
X117326421Y-102208167D01*
X117326418Y-102208177D01*
X117299500Y-102343504D01*
X117299500Y-102343507D01*
X117299500Y-102481493D01*
X117299500Y-102481495D01*
X117299499Y-102481495D01*
X116700500Y-102481495D01*
X116700500Y-102481493D01*
X116700500Y-102343507D01*
X116700500Y-102343504D01*
X116673581Y-102208177D01*
X116673580Y-102208176D01*
X116673580Y-102208172D01*
X116657016Y-102168182D01*
X116620778Y-102080695D01*
X116620771Y-102080682D01*
X116544114Y-101965958D01*
X116544111Y-101965954D01*
X116446545Y-101868388D01*
X116446541Y-101868385D01*
X116331817Y-101791728D01*
X116331804Y-101791721D01*
X116204332Y-101738921D01*
X116204322Y-101738918D01*
X116068995Y-101712000D01*
X116068993Y-101712000D01*
X115931007Y-101712000D01*
X115931005Y-101712000D01*
X115795677Y-101738918D01*
X115795667Y-101738921D01*
X115668195Y-101791721D01*
X115668182Y-101791728D01*
X115553458Y-101868385D01*
X115553454Y-101868388D01*
X115455888Y-101965954D01*
X115455885Y-101965958D01*
X115379228Y-102080682D01*
X115379221Y-102080695D01*
X115326421Y-102208167D01*
X115326418Y-102208177D01*
X115299500Y-102343504D01*
X115299500Y-102343507D01*
X115299500Y-102481493D01*
X115299500Y-102481495D01*
X115299499Y-102481495D01*
X114711499Y-102481495D01*
X114711499Y-102330128D01*
X114705091Y-102270517D01*
X114666927Y-102168195D01*
X114654797Y-102135671D01*
X114654793Y-102135664D01*
X114568547Y-102020455D01*
X114568544Y-102020452D01*
X114453335Y-101934206D01*
X114453328Y-101934202D01*
X114318482Y-101883908D01*
X114318483Y-101883908D01*
X114258883Y-101877501D01*
X114258881Y-101877500D01*
X114258873Y-101877500D01*
X114258864Y-101877500D01*
X112563129Y-101877500D01*
X112563123Y-101877501D01*
X112503516Y-101883908D01*
X112368671Y-101934202D01*
X112368664Y-101934206D01*
X112253455Y-102020452D01*
X112253452Y-102020455D01*
X112167206Y-102135664D01*
X112167202Y-102135671D01*
X112116908Y-102270517D01*
X112110501Y-102330116D01*
X112110501Y-102330123D01*
X112110500Y-102330135D01*
X97606598Y-102330135D01*
X101582580Y-98354153D01*
X101643901Y-98320670D01*
X101713593Y-98325654D01*
X101769526Y-98367526D01*
X101793943Y-98432990D01*
X101791877Y-98466023D01*
X101788500Y-98483002D01*
X101788500Y-98483007D01*
X101788500Y-98620993D01*
X101788500Y-98620995D01*
X101788499Y-98620995D01*
X101815418Y-98756322D01*
X101815421Y-98756332D01*
X101868221Y-98883804D01*
X101868228Y-98883817D01*
X101944885Y-98998541D01*
X101944888Y-98998545D01*
X102042454Y-99096111D01*
X102042458Y-99096114D01*
X102157182Y-99172771D01*
X102157195Y-99172778D01*
X102284667Y-99225578D01*
X102284672Y-99225580D01*
X102284676Y-99225580D01*
X102284677Y-99225581D01*
X102420004Y-99252500D01*
X102420007Y-99252500D01*
X102557995Y-99252500D01*
X102649041Y-99234389D01*
X102693328Y-99225580D01*
X102820811Y-99172775D01*
X102935542Y-99096114D01*
X103033114Y-98998542D01*
X103109775Y-98883811D01*
X103162580Y-98756328D01*
X103180112Y-98668189D01*
X103189500Y-98620995D01*
X108265499Y-98620995D01*
X108292418Y-98756322D01*
X108292421Y-98756332D01*
X108345221Y-98883804D01*
X108345228Y-98883817D01*
X108421885Y-98998541D01*
X108421888Y-98998545D01*
X108519454Y-99096111D01*
X108519458Y-99096114D01*
X108634182Y-99172771D01*
X108634195Y-99172778D01*
X108761667Y-99225578D01*
X108761672Y-99225580D01*
X108761676Y-99225580D01*
X108761677Y-99225581D01*
X108897004Y-99252500D01*
X108897007Y-99252500D01*
X109034995Y-99252500D01*
X109126041Y-99234389D01*
X109170328Y-99225580D01*
X109297811Y-99172775D01*
X109412542Y-99096114D01*
X109510114Y-98998542D01*
X109586775Y-98883811D01*
X109639580Y-98756328D01*
X109657112Y-98668189D01*
X109666500Y-98620995D01*
X109666500Y-98483004D01*
X109639581Y-98347677D01*
X109639580Y-98347676D01*
X109639580Y-98347672D01*
X109630460Y-98325654D01*
X109586778Y-98220195D01*
X109586771Y-98220182D01*
X109510114Y-98105458D01*
X109506249Y-98100748D01*
X109507179Y-98099984D01*
X109476748Y-98044253D01*
X109481732Y-97974561D01*
X109523604Y-97918628D01*
X109550467Y-97903332D01*
X109551806Y-97902777D01*
X109551805Y-97902777D01*
X109551811Y-97902775D01*
X109666542Y-97826114D01*
X109764114Y-97728542D01*
X109840775Y-97613811D01*
X109893580Y-97486328D01*
X109920500Y-97350993D01*
X109920500Y-97213007D01*
X109920500Y-97213004D01*
X109893581Y-97077677D01*
X109893580Y-97077676D01*
X109893580Y-97077672D01*
X109849455Y-96971144D01*
X109840778Y-96950195D01*
X109840771Y-96950182D01*
X109764114Y-96835458D01*
X109764111Y-96835454D01*
X109666545Y-96737888D01*
X109666541Y-96737885D01*
X109551817Y-96661228D01*
X109551804Y-96661221D01*
X109424332Y-96608421D01*
X109424322Y-96608418D01*
X109288995Y-96581500D01*
X109288993Y-96581500D01*
X109151007Y-96581500D01*
X109151005Y-96581500D01*
X109015677Y-96608418D01*
X109015667Y-96608421D01*
X108888195Y-96661221D01*
X108888182Y-96661228D01*
X108773458Y-96737885D01*
X108773454Y-96737888D01*
X108675888Y-96835454D01*
X108675885Y-96835458D01*
X108599228Y-96950182D01*
X108599221Y-96950195D01*
X108546421Y-97077667D01*
X108546418Y-97077677D01*
X108519500Y-97213004D01*
X108519500Y-97213007D01*
X108519500Y-97350993D01*
X108519500Y-97350995D01*
X108519499Y-97350995D01*
X108546418Y-97486322D01*
X108546421Y-97486332D01*
X108599221Y-97613804D01*
X108599228Y-97613817D01*
X108675885Y-97728541D01*
X108679751Y-97733252D01*
X108678820Y-97734016D01*
X108709251Y-97789746D01*
X108704267Y-97859438D01*
X108662395Y-97915371D01*
X108635552Y-97930659D01*
X108634200Y-97931218D01*
X108634182Y-97931228D01*
X108519458Y-98007885D01*
X108519454Y-98007888D01*
X108421888Y-98105454D01*
X108421885Y-98105458D01*
X108345228Y-98220182D01*
X108345221Y-98220195D01*
X108292421Y-98347667D01*
X108292418Y-98347677D01*
X108265500Y-98483004D01*
X108265500Y-98483007D01*
X108265500Y-98620993D01*
X108265500Y-98620995D01*
X108265499Y-98620995D01*
X103189500Y-98620995D01*
X103189500Y-98483004D01*
X103162581Y-98347677D01*
X103162580Y-98347676D01*
X103162580Y-98347672D01*
X103153460Y-98325654D01*
X103109778Y-98220195D01*
X103109771Y-98220182D01*
X103033114Y-98105458D01*
X103033111Y-98105454D01*
X102935545Y-98007888D01*
X102935541Y-98007885D01*
X102820817Y-97931228D01*
X102820804Y-97931221D01*
X102693332Y-97878421D01*
X102693322Y-97878418D01*
X102557995Y-97851500D01*
X102557993Y-97851500D01*
X102420007Y-97851500D01*
X102420002Y-97851500D01*
X102403023Y-97854877D01*
X102333432Y-97848647D01*
X102278256Y-97805782D01*
X102255014Y-97739892D01*
X102271084Y-97671895D01*
X102291151Y-97645582D01*
X105098506Y-94838228D01*
X105098511Y-94838224D01*
X105108714Y-94828020D01*
X105108716Y-94828020D01*
X105220520Y-94716216D01*
X105291782Y-94592786D01*
X105291783Y-94592785D01*
X105294945Y-94587306D01*
X105299577Y-94579285D01*
X105340501Y-94426557D01*
X105340501Y-94268443D01*
X105340501Y-94260848D01*
X105340500Y-94260830D01*
X105340500Y-94214499D01*
X105360185Y-94147460D01*
X105412989Y-94101705D01*
X105464500Y-94090499D01*
X105837871Y-94090499D01*
X105837872Y-94090499D01*
X105897483Y-94084091D01*
X106032331Y-94033796D01*
X106147546Y-93947546D01*
X106233796Y-93832331D01*
X106284091Y-93697483D01*
X106290500Y-93637873D01*
X106290499Y-91442128D01*
X106284348Y-91384909D01*
X106284091Y-91382516D01*
X106233797Y-91247671D01*
X106233793Y-91247664D01*
X106147547Y-91132455D01*
X106147544Y-91132452D01*
X106042152Y-91053555D01*
X106000281Y-90997621D01*
X105995297Y-90927930D01*
X106016146Y-90881403D01*
X106066103Y-90812643D01*
X106066104Y-90812642D01*
X106066106Y-90812639D01*
X106176904Y-90595185D01*
X106176904Y-90595182D01*
X106177863Y-90593302D01*
X106225837Y-90542506D01*
X106293658Y-90525711D01*
X106359793Y-90548248D01*
X106398833Y-90593302D01*
X106402501Y-90600500D01*
X106430476Y-90655405D01*
X106546172Y-90814646D01*
X106685354Y-90953828D01*
X106844595Y-91069524D01*
X106892919Y-91094146D01*
X107019970Y-91158882D01*
X107019972Y-91158882D01*
X107019975Y-91158884D01*
X107079202Y-91178128D01*
X107207173Y-91219709D01*
X107401578Y-91250500D01*
X107401583Y-91250500D01*
X107598422Y-91250500D01*
X107797454Y-91218976D01*
X107866747Y-91227930D01*
X107904533Y-91253768D01*
X111665139Y-95014374D01*
X111665149Y-95014385D01*
X111669479Y-95018715D01*
X111669480Y-95018716D01*
X111781284Y-95130520D01*
X111836809Y-95162577D01*
X111918215Y-95209577D01*
X112070943Y-95250500D01*
X118150230Y-95250500D01*
X118212369Y-95268746D01*
X118212819Y-95267905D01*
X118216859Y-95270064D01*
X118217269Y-95270185D01*
X118218087Y-95270721D01*
X118218190Y-95270776D01*
X118345667Y-95323578D01*
X118345672Y-95323580D01*
X118345676Y-95323580D01*
X118345677Y-95323581D01*
X118481004Y-95350500D01*
X118481007Y-95350500D01*
X118618995Y-95350500D01*
X118710041Y-95332389D01*
X118754328Y-95323580D01*
X118881811Y-95270775D01*
X118996542Y-95194114D01*
X118998663Y-95191993D01*
X119012319Y-95178338D01*
X119073642Y-95144853D01*
X119143334Y-95149837D01*
X119187681Y-95178338D01*
X119203454Y-95194111D01*
X119203458Y-95194114D01*
X119318182Y-95270771D01*
X119318195Y-95270778D01*
X119394678Y-95302458D01*
X119445672Y-95323580D01*
X119445679Y-95323581D01*
X119451505Y-95325349D01*
X119451075Y-95326765D01*
X119506474Y-95355737D01*
X119508062Y-95357297D01*
X120521181Y-96370416D01*
X120554666Y-96431739D01*
X120557500Y-96458097D01*
X120557500Y-101710537D01*
X120537815Y-101777576D01*
X120485011Y-101823331D01*
X120415853Y-101833275D01*
X120364610Y-101813640D01*
X120331815Y-101791727D01*
X120331804Y-101791721D01*
X120204332Y-101738921D01*
X120204322Y-101738918D01*
X120068995Y-101712000D01*
X120068993Y-101712000D01*
X119931007Y-101712000D01*
X119931005Y-101712000D01*
X119795677Y-101738918D01*
X119795667Y-101738921D01*
X119668195Y-101791721D01*
X119668182Y-101791728D01*
X119553458Y-101868385D01*
X119553454Y-101868388D01*
X119455888Y-101965954D01*
X119455885Y-101965958D01*
X119379228Y-102080682D01*
X119379221Y-102080695D01*
X119326421Y-102208167D01*
X119326418Y-102208177D01*
X119299500Y-102343504D01*
X119299500Y-102343507D01*
X119299500Y-102481493D01*
X119299500Y-102481495D01*
X119299499Y-102481495D01*
X119326418Y-102616822D01*
X119326421Y-102616832D01*
X119379221Y-102744304D01*
X119379228Y-102744317D01*
X119455885Y-102859041D01*
X119455888Y-102859045D01*
X119553454Y-102956611D01*
X119553458Y-102956614D01*
X119668182Y-103033271D01*
X119668195Y-103033278D01*
X119770569Y-103075682D01*
X119795672Y-103086080D01*
X119795676Y-103086080D01*
X119795677Y-103086081D01*
X119931004Y-103113000D01*
X119931007Y-103113000D01*
X120068995Y-103113000D01*
X120160041Y-103094889D01*
X120204328Y-103086080D01*
X120305643Y-103044114D01*
X120331804Y-103033278D01*
X120331804Y-103033277D01*
X120331811Y-103033275D01*
X120331816Y-103033271D01*
X120331819Y-103033270D01*
X120364608Y-103011361D01*
X120431285Y-102990482D01*
X120498665Y-103008966D01*
X120545356Y-103060944D01*
X120557500Y-103114462D01*
X120557500Y-110520406D01*
X120537815Y-110587445D01*
X120485011Y-110633200D01*
X120415853Y-110643144D01*
X120352297Y-110614119D01*
X120330398Y-110589297D01*
X120305114Y-110551458D01*
X120305111Y-110551454D01*
X120207545Y-110453888D01*
X120207541Y-110453885D01*
X120092817Y-110377228D01*
X120092804Y-110377221D01*
X119965332Y-110324421D01*
X119965322Y-110324418D01*
X119829995Y-110297500D01*
X119829993Y-110297500D01*
X119692007Y-110297500D01*
X119692005Y-110297500D01*
X119556677Y-110324418D01*
X119556667Y-110324421D01*
X119429195Y-110377221D01*
X119429182Y-110377228D01*
X119314458Y-110453885D01*
X119314454Y-110453888D01*
X119216888Y-110551454D01*
X119216885Y-110551458D01*
X119140228Y-110666182D01*
X119140221Y-110666195D01*
X119087421Y-110793667D01*
X119087418Y-110793677D01*
X119060500Y-110929004D01*
X119060500Y-110929007D01*
X119060500Y-111066993D01*
X119060500Y-111066995D01*
X119060499Y-111066995D01*
X119087418Y-111202322D01*
X119087421Y-111202332D01*
X119140221Y-111329804D01*
X119140228Y-111329817D01*
X119216885Y-111444541D01*
X119216888Y-111444545D01*
X119314454Y-111542111D01*
X119314462Y-111542117D01*
X119382566Y-111587623D01*
X119427372Y-111641235D01*
X119436079Y-111710560D01*
X119405925Y-111773587D01*
X119401357Y-111778406D01*
X118630286Y-112549478D01*
X118518481Y-112661282D01*
X118518479Y-112661285D01*
X118509726Y-112676446D01*
X118487756Y-112714500D01*
X118439423Y-112798215D01*
X118398499Y-112950943D01*
X118398499Y-112950945D01*
X118398499Y-113119046D01*
X118398500Y-113119059D01*
X118398500Y-115015902D01*
X118378815Y-115082941D01*
X118362181Y-115103583D01*
X117333061Y-116132702D01*
X117276228Y-116163735D01*
X117276506Y-116164650D01*
X117272110Y-116165983D01*
X117271738Y-116166187D01*
X117270787Y-116166385D01*
X117270669Y-116166420D01*
X117143195Y-116219221D01*
X117143182Y-116219228D01*
X117028458Y-116295885D01*
X117028454Y-116295888D01*
X116930888Y-116393454D01*
X116930885Y-116393458D01*
X116854228Y-116508182D01*
X116854221Y-116508195D01*
X116801421Y-116635667D01*
X116801419Y-116635676D01*
X116787748Y-116704401D01*
X116755362Y-116766311D01*
X116694646Y-116800885D01*
X116624877Y-116797144D01*
X116568205Y-116756277D01*
X116563029Y-116749099D01*
X116495114Y-116647458D01*
X116495111Y-116647454D01*
X116397545Y-116549888D01*
X116397541Y-116549885D01*
X116282817Y-116473228D01*
X116282804Y-116473221D01*
X116155332Y-116420421D01*
X116155322Y-116420418D01*
X116019995Y-116393500D01*
X116019993Y-116393500D01*
X115882007Y-116393500D01*
X115882005Y-116393500D01*
X115746677Y-116420418D01*
X115746667Y-116420421D01*
X115619195Y-116473221D01*
X115619182Y-116473228D01*
X115504458Y-116549885D01*
X115504454Y-116549888D01*
X115406888Y-116647454D01*
X115406885Y-116647458D01*
X115330228Y-116762182D01*
X115330221Y-116762195D01*
X115277421Y-116889667D01*
X115277418Y-116889677D01*
X115250500Y-117025004D01*
X115250500Y-117025007D01*
X115250500Y-117162993D01*
X115250500Y-117162995D01*
X115250499Y-117162995D01*
X115277418Y-117298322D01*
X115277421Y-117298332D01*
X115330221Y-117425804D01*
X115330228Y-117425817D01*
X115406885Y-117540541D01*
X115406888Y-117540545D01*
X115504454Y-117638111D01*
X115504458Y-117638114D01*
X115619182Y-117714771D01*
X115619189Y-117714775D01*
X115626874Y-117717958D01*
X115681278Y-117761798D01*
X115703344Y-117828092D01*
X115686066Y-117895792D01*
X115648316Y-117935620D01*
X115631463Y-117946881D01*
X115631454Y-117946888D01*
X115533888Y-118044454D01*
X115533885Y-118044458D01*
X115457228Y-118159182D01*
X115457221Y-118159195D01*
X115404421Y-118286667D01*
X115404418Y-118286677D01*
X115377500Y-118422004D01*
X115377500Y-118422007D01*
X115377500Y-118559993D01*
X115377500Y-118559995D01*
X115377499Y-118559995D01*
X115404418Y-118695322D01*
X115404421Y-118695332D01*
X115457221Y-118822804D01*
X115457228Y-118822817D01*
X115533885Y-118937541D01*
X115533888Y-118937545D01*
X115631454Y-119035111D01*
X115631458Y-119035114D01*
X115746182Y-119111771D01*
X115746195Y-119111778D01*
X115873667Y-119164578D01*
X115873672Y-119164580D01*
X115873676Y-119164580D01*
X115873677Y-119164581D01*
X116009004Y-119191500D01*
X116009007Y-119191500D01*
X116146995Y-119191500D01*
X116238041Y-119173389D01*
X116282328Y-119164580D01*
X116384860Y-119122110D01*
X116409804Y-119111778D01*
X116409804Y-119111777D01*
X116409811Y-119111775D01*
X116524542Y-119035114D01*
X116622114Y-118937542D01*
X116698775Y-118822811D01*
X116751580Y-118695328D01*
X116778500Y-118559993D01*
X116778500Y-118422007D01*
X116778500Y-118422004D01*
X116751581Y-118286677D01*
X116751580Y-118286676D01*
X116751580Y-118286672D01*
X116722426Y-118216287D01*
X116698778Y-118159195D01*
X116698771Y-118159182D01*
X116622114Y-118044458D01*
X116622111Y-118044454D01*
X116524545Y-117946888D01*
X116524541Y-117946885D01*
X116409817Y-117870228D01*
X116409805Y-117870222D01*
X116402121Y-117867039D01*
X116347718Y-117823197D01*
X116325655Y-117756902D01*
X116342936Y-117689203D01*
X116380686Y-117649376D01*
X116397542Y-117638114D01*
X116495114Y-117540542D01*
X116571775Y-117425811D01*
X116624580Y-117298328D01*
X116638251Y-117229600D01*
X116670635Y-117167689D01*
X116731351Y-117133115D01*
X116801120Y-117136854D01*
X116857793Y-117177720D01*
X116862970Y-117184900D01*
X116930885Y-117286541D01*
X116930888Y-117286545D01*
X117028454Y-117384111D01*
X117028458Y-117384114D01*
X117143182Y-117460771D01*
X117143195Y-117460778D01*
X117253980Y-117506666D01*
X117270672Y-117513580D01*
X117270676Y-117513580D01*
X117270677Y-117513581D01*
X117406004Y-117540500D01*
X117406007Y-117540500D01*
X117543995Y-117540500D01*
X117635041Y-117522389D01*
X117679328Y-117513580D01*
X117806811Y-117460775D01*
X117921542Y-117384114D01*
X118019114Y-117286542D01*
X118095775Y-117171811D01*
X118148580Y-117044328D01*
X118148580Y-117044325D01*
X118150346Y-117038506D01*
X118151760Y-117038934D01*
X118180734Y-116983527D01*
X118182241Y-116981992D01*
X119357506Y-115806728D01*
X119357511Y-115806724D01*
X119367714Y-115796520D01*
X119367716Y-115796520D01*
X119398241Y-115765995D01*
X121600499Y-115765995D01*
X121627418Y-115901322D01*
X121627421Y-115901332D01*
X121680221Y-116028804D01*
X121680228Y-116028817D01*
X121756885Y-116143541D01*
X121756888Y-116143545D01*
X121854454Y-116241111D01*
X121854458Y-116241114D01*
X121969182Y-116317771D01*
X121969195Y-116317778D01*
X122096667Y-116370578D01*
X122096672Y-116370580D01*
X122096676Y-116370580D01*
X122096677Y-116370581D01*
X122232004Y-116397500D01*
X122232007Y-116397500D01*
X122369995Y-116397500D01*
X122461041Y-116379389D01*
X122505328Y-116370580D01*
X122632811Y-116317775D01*
X122747542Y-116241114D01*
X122845114Y-116143542D01*
X122921775Y-116028811D01*
X122974580Y-115901328D01*
X122991211Y-115817721D01*
X123001500Y-115765995D01*
X123001500Y-115628004D01*
X122974581Y-115492677D01*
X122974580Y-115492676D01*
X122974580Y-115492672D01*
X122934147Y-115395057D01*
X122921778Y-115365195D01*
X122921771Y-115365182D01*
X122845114Y-115250458D01*
X122845111Y-115250454D01*
X122747545Y-115152888D01*
X122747541Y-115152885D01*
X122632817Y-115076228D01*
X122632804Y-115076221D01*
X122505332Y-115023421D01*
X122505322Y-115023418D01*
X122369995Y-114996500D01*
X122369993Y-114996500D01*
X122232007Y-114996500D01*
X122232005Y-114996500D01*
X122096677Y-115023418D01*
X122096667Y-115023421D01*
X121969195Y-115076221D01*
X121969182Y-115076228D01*
X121854458Y-115152885D01*
X121854454Y-115152888D01*
X121756888Y-115250454D01*
X121756885Y-115250458D01*
X121680228Y-115365182D01*
X121680221Y-115365195D01*
X121627421Y-115492667D01*
X121627418Y-115492677D01*
X121600500Y-115628004D01*
X121600500Y-115628007D01*
X121600500Y-115765993D01*
X121600500Y-115765995D01*
X121600499Y-115765995D01*
X119398241Y-115765995D01*
X119479520Y-115684716D01*
X119558577Y-115547784D01*
X119599500Y-115395057D01*
X119599500Y-114183919D01*
X119619185Y-114116880D01*
X119671989Y-114071125D01*
X119741147Y-114061181D01*
X119804703Y-114090206D01*
X119811181Y-114096238D01*
X119847854Y-114132911D01*
X119847858Y-114132914D01*
X119962582Y-114209571D01*
X119962595Y-114209578D01*
X120090067Y-114262378D01*
X120090072Y-114262380D01*
X120090076Y-114262380D01*
X120090077Y-114262381D01*
X120225404Y-114289300D01*
X120225407Y-114289300D01*
X120363395Y-114289300D01*
X120473526Y-114267393D01*
X120498728Y-114262380D01*
X120626211Y-114209575D01*
X120740942Y-114132914D01*
X120758861Y-114114995D01*
X125283499Y-114114995D01*
X125310418Y-114250322D01*
X125310421Y-114250332D01*
X125363221Y-114377804D01*
X125363228Y-114377817D01*
X125439885Y-114492541D01*
X125439888Y-114492545D01*
X125537454Y-114590111D01*
X125537458Y-114590114D01*
X125652182Y-114666771D01*
X125652195Y-114666778D01*
X125779667Y-114719578D01*
X125779672Y-114719580D01*
X125779676Y-114719580D01*
X125779677Y-114719581D01*
X125915004Y-114746500D01*
X125915007Y-114746500D01*
X126052995Y-114746500D01*
X126144041Y-114728389D01*
X126188328Y-114719580D01*
X126315811Y-114666775D01*
X126430542Y-114590114D01*
X126528114Y-114492542D01*
X126604775Y-114377811D01*
X126657580Y-114250328D01*
X126666389Y-114206041D01*
X126684500Y-114114995D01*
X126684500Y-113977004D01*
X126657581Y-113841677D01*
X126657580Y-113841676D01*
X126657580Y-113841672D01*
X126652985Y-113830578D01*
X126604778Y-113714195D01*
X126604771Y-113714182D01*
X126528114Y-113599458D01*
X126528111Y-113599454D01*
X126430545Y-113501888D01*
X126430541Y-113501885D01*
X126315817Y-113425228D01*
X126315804Y-113425221D01*
X126188332Y-113372421D01*
X126188322Y-113372418D01*
X126052995Y-113345500D01*
X126052993Y-113345500D01*
X125915007Y-113345500D01*
X125915005Y-113345500D01*
X125779677Y-113372418D01*
X125779667Y-113372421D01*
X125652195Y-113425221D01*
X125652182Y-113425228D01*
X125537458Y-113501885D01*
X125537454Y-113501888D01*
X125439888Y-113599454D01*
X125439885Y-113599458D01*
X125363228Y-113714182D01*
X125363221Y-113714195D01*
X125310421Y-113841667D01*
X125310418Y-113841677D01*
X125283500Y-113977004D01*
X125283500Y-113977007D01*
X125283500Y-114114993D01*
X125283500Y-114114995D01*
X125283499Y-114114995D01*
X120758861Y-114114995D01*
X120838514Y-114035342D01*
X120915175Y-113920611D01*
X120967980Y-113793128D01*
X120983682Y-113714189D01*
X120994900Y-113657795D01*
X120994900Y-113519804D01*
X120967981Y-113384477D01*
X120967980Y-113384476D01*
X120967980Y-113384472D01*
X120958395Y-113361332D01*
X120915178Y-113256995D01*
X120915171Y-113256982D01*
X120838514Y-113142258D01*
X120838511Y-113142254D01*
X120740945Y-113044688D01*
X120740941Y-113044685D01*
X120626217Y-112968028D01*
X120626204Y-112968021D01*
X120498732Y-112915221D01*
X120498722Y-112915218D01*
X120363395Y-112888300D01*
X120363393Y-112888300D01*
X120289297Y-112888300D01*
X120222258Y-112868615D01*
X120176503Y-112815811D01*
X120166559Y-112746653D01*
X120195584Y-112683097D01*
X120201616Y-112676619D01*
X120510759Y-112367475D01*
X121509226Y-111369007D01*
X121570547Y-111335524D01*
X121640238Y-111340508D01*
X121696172Y-111382379D01*
X121720589Y-111447844D01*
X121705737Y-111516117D01*
X121700008Y-111525579D01*
X121680230Y-111555179D01*
X121680221Y-111555195D01*
X121627421Y-111682667D01*
X121627418Y-111682677D01*
X121600500Y-111818004D01*
X121600500Y-111818007D01*
X121600500Y-111955993D01*
X121600500Y-111955995D01*
X121600499Y-111955995D01*
X121627418Y-112091322D01*
X121627421Y-112091332D01*
X121680219Y-112218799D01*
X121680228Y-112218817D01*
X121756885Y-112333541D01*
X121756888Y-112333545D01*
X121854454Y-112431111D01*
X121854458Y-112431114D01*
X121969182Y-112507771D01*
X121969195Y-112507778D01*
X122096667Y-112560578D01*
X122096672Y-112560580D01*
X122096676Y-112560580D01*
X122096677Y-112560581D01*
X122232004Y-112587500D01*
X122232007Y-112587500D01*
X122369995Y-112587500D01*
X122461041Y-112569389D01*
X122505328Y-112560580D01*
X122632811Y-112507775D01*
X122747542Y-112431114D01*
X122845114Y-112333542D01*
X122921775Y-112218811D01*
X122921776Y-112218806D01*
X122921781Y-112218799D01*
X122974578Y-112091332D01*
X122974580Y-112091328D01*
X122983389Y-112047041D01*
X123001500Y-111955995D01*
X123001500Y-111818004D01*
X122974581Y-111682677D01*
X122974580Y-111682676D01*
X122974580Y-111682672D01*
X122964103Y-111657378D01*
X122921778Y-111555195D01*
X122921771Y-111555182D01*
X122845114Y-111440458D01*
X122845111Y-111440454D01*
X122747545Y-111342888D01*
X122747541Y-111342885D01*
X122632817Y-111266228D01*
X122632804Y-111266221D01*
X122505332Y-111213421D01*
X122505322Y-111213418D01*
X122369995Y-111186500D01*
X122369993Y-111186500D01*
X122232007Y-111186500D01*
X122232005Y-111186500D01*
X122096677Y-111213418D01*
X122096667Y-111213421D01*
X121969195Y-111266221D01*
X121969182Y-111266228D01*
X121849393Y-111346270D01*
X121848095Y-111344328D01*
X121845414Y-111345466D01*
X121835817Y-111354618D01*
X121813876Y-111358846D01*
X121793305Y-111367575D01*
X121780233Y-111365331D01*
X121767210Y-111367842D01*
X121746462Y-111359536D01*
X121724442Y-111355757D01*
X121714658Y-111346803D01*
X121702345Y-111341874D01*
X121689382Y-111323671D01*
X121672899Y-111308586D01*
X121669509Y-111295764D01*
X121661816Y-111284961D01*
X121660752Y-111262638D01*
X121655042Y-111241037D01*
X121659047Y-111226858D01*
X121658491Y-111215170D01*
X121671605Y-111182409D01*
X121703572Y-111127042D01*
X121717577Y-111102785D01*
X121758500Y-110950057D01*
X121758500Y-110791943D01*
X121758500Y-103229780D01*
X121778185Y-103162741D01*
X121830989Y-103116986D01*
X121900147Y-103107042D01*
X121906658Y-103108156D01*
X121931007Y-103113000D01*
X121931008Y-103113000D01*
X122068995Y-103113000D01*
X122160041Y-103094889D01*
X122204328Y-103086080D01*
X122305643Y-103044114D01*
X122331804Y-103033278D01*
X122331804Y-103033277D01*
X122331811Y-103033275D01*
X122446542Y-102956614D01*
X122544114Y-102859042D01*
X122620775Y-102744311D01*
X122673580Y-102616828D01*
X122700500Y-102481495D01*
X123299499Y-102481495D01*
X123326418Y-102616822D01*
X123326421Y-102616832D01*
X123379221Y-102744304D01*
X123379228Y-102744317D01*
X123455885Y-102859041D01*
X123455888Y-102859045D01*
X123553454Y-102956611D01*
X123553458Y-102956614D01*
X123668182Y-103033271D01*
X123668195Y-103033278D01*
X123770569Y-103075682D01*
X123795672Y-103086080D01*
X123795676Y-103086080D01*
X123795677Y-103086081D01*
X123931004Y-103113000D01*
X123931007Y-103113000D01*
X124068995Y-103113000D01*
X124160041Y-103094889D01*
X124204328Y-103086080D01*
X124305643Y-103044114D01*
X124331804Y-103033278D01*
X124331804Y-103033277D01*
X124331811Y-103033275D01*
X124446542Y-102956614D01*
X124544114Y-102859042D01*
X124620775Y-102744311D01*
X124673580Y-102616828D01*
X124700500Y-102481495D01*
X125299499Y-102481495D01*
X125326418Y-102616822D01*
X125326421Y-102616832D01*
X125379221Y-102744304D01*
X125379228Y-102744317D01*
X125455885Y-102859041D01*
X125455888Y-102859045D01*
X125553454Y-102956611D01*
X125553458Y-102956614D01*
X125668182Y-103033271D01*
X125668195Y-103033278D01*
X125770569Y-103075682D01*
X125795672Y-103086080D01*
X125795676Y-103086080D01*
X125795677Y-103086081D01*
X125931004Y-103113000D01*
X125931007Y-103113000D01*
X126068995Y-103113000D01*
X126160041Y-103094889D01*
X126204328Y-103086080D01*
X126305643Y-103044114D01*
X126331804Y-103033278D01*
X126331804Y-103033277D01*
X126331811Y-103033275D01*
X126446542Y-102956614D01*
X126544114Y-102859042D01*
X126620775Y-102744311D01*
X126673580Y-102616828D01*
X126683095Y-102568995D01*
X127299499Y-102568995D01*
X127326418Y-102704322D01*
X127326421Y-102704332D01*
X127379221Y-102831804D01*
X127379228Y-102831817D01*
X127455885Y-102946541D01*
X127455888Y-102946545D01*
X127553454Y-103044111D01*
X127553458Y-103044114D01*
X127668182Y-103120771D01*
X127668195Y-103120778D01*
X127769504Y-103162741D01*
X127795672Y-103173580D01*
X127795676Y-103173580D01*
X127795677Y-103173581D01*
X127931004Y-103200500D01*
X127931007Y-103200500D01*
X128068995Y-103200500D01*
X128160041Y-103182389D01*
X128204328Y-103173580D01*
X128331811Y-103120775D01*
X128446542Y-103044114D01*
X128544114Y-102946542D01*
X128620775Y-102831811D01*
X128673580Y-102704328D01*
X128700500Y-102568993D01*
X128700500Y-102431007D01*
X128700500Y-102431004D01*
X128673581Y-102295677D01*
X128673580Y-102295676D01*
X128673580Y-102295672D01*
X128673578Y-102295667D01*
X128620778Y-102168195D01*
X128620771Y-102168182D01*
X128544114Y-102053458D01*
X128544111Y-102053454D01*
X128446545Y-101955888D01*
X128446541Y-101955885D01*
X128331817Y-101879228D01*
X128331804Y-101879221D01*
X128204332Y-101826421D01*
X128204322Y-101826418D01*
X128068995Y-101799500D01*
X128068993Y-101799500D01*
X127931007Y-101799500D01*
X127931005Y-101799500D01*
X127795677Y-101826418D01*
X127795667Y-101826421D01*
X127668195Y-101879221D01*
X127668182Y-101879228D01*
X127553458Y-101955885D01*
X127553454Y-101955888D01*
X127455888Y-102053454D01*
X127455885Y-102053458D01*
X127379228Y-102168182D01*
X127379221Y-102168195D01*
X127326421Y-102295667D01*
X127326418Y-102295677D01*
X127299500Y-102431004D01*
X127299500Y-102431007D01*
X127299500Y-102568993D01*
X127299500Y-102568995D01*
X127299499Y-102568995D01*
X126683095Y-102568995D01*
X126700500Y-102481493D01*
X126700500Y-102343507D01*
X126700500Y-102343504D01*
X126673581Y-102208177D01*
X126673580Y-102208176D01*
X126673580Y-102208172D01*
X126657016Y-102168182D01*
X126620778Y-102080695D01*
X126620771Y-102080682D01*
X126544114Y-101965958D01*
X126544111Y-101965954D01*
X126446545Y-101868388D01*
X126446541Y-101868385D01*
X126331817Y-101791728D01*
X126331804Y-101791721D01*
X126204332Y-101738921D01*
X126204322Y-101738918D01*
X126068995Y-101712000D01*
X126068993Y-101712000D01*
X125931007Y-101712000D01*
X125931005Y-101712000D01*
X125795677Y-101738918D01*
X125795667Y-101738921D01*
X125668195Y-101791721D01*
X125668182Y-101791728D01*
X125553458Y-101868385D01*
X125553454Y-101868388D01*
X125455888Y-101965954D01*
X125455885Y-101965958D01*
X125379228Y-102080682D01*
X125379221Y-102080695D01*
X125326421Y-102208167D01*
X125326418Y-102208177D01*
X125299500Y-102343504D01*
X125299500Y-102343507D01*
X125299500Y-102481493D01*
X125299500Y-102481495D01*
X125299499Y-102481495D01*
X124700500Y-102481495D01*
X124700500Y-102481493D01*
X124700500Y-102343507D01*
X124700500Y-102343504D01*
X124673581Y-102208177D01*
X124673580Y-102208176D01*
X124673580Y-102208172D01*
X124657016Y-102168182D01*
X124620778Y-102080695D01*
X124620771Y-102080682D01*
X124544114Y-101965958D01*
X124544111Y-101965954D01*
X124446545Y-101868388D01*
X124446541Y-101868385D01*
X124331817Y-101791728D01*
X124331804Y-101791721D01*
X124204332Y-101738921D01*
X124204322Y-101738918D01*
X124068995Y-101712000D01*
X124068993Y-101712000D01*
X123931007Y-101712000D01*
X123931005Y-101712000D01*
X123795677Y-101738918D01*
X123795667Y-101738921D01*
X123668195Y-101791721D01*
X123668182Y-101791728D01*
X123553458Y-101868385D01*
X123553454Y-101868388D01*
X123455888Y-101965954D01*
X123455885Y-101965958D01*
X123379228Y-102080682D01*
X123379221Y-102080695D01*
X123326421Y-102208167D01*
X123326418Y-102208177D01*
X123299500Y-102343504D01*
X123299500Y-102343507D01*
X123299500Y-102481493D01*
X123299500Y-102481495D01*
X123299499Y-102481495D01*
X122700500Y-102481495D01*
X122700500Y-102481493D01*
X122700500Y-102343507D01*
X122700500Y-102343504D01*
X122673581Y-102208177D01*
X122673580Y-102208176D01*
X122673580Y-102208172D01*
X122657016Y-102168182D01*
X122620778Y-102080695D01*
X122620771Y-102080682D01*
X122544114Y-101965958D01*
X122544111Y-101965954D01*
X122446545Y-101868388D01*
X122446541Y-101868385D01*
X122331817Y-101791728D01*
X122331804Y-101791721D01*
X122204332Y-101738921D01*
X122204322Y-101738918D01*
X122068995Y-101712000D01*
X122068993Y-101712000D01*
X121931007Y-101712000D01*
X121931002Y-101712000D01*
X121906691Y-101716836D01*
X121885707Y-101714958D01*
X121864853Y-101717957D01*
X121851605Y-101711907D01*
X121837099Y-101710609D01*
X121820460Y-101697683D01*
X121801297Y-101688932D01*
X121793423Y-101676680D01*
X121781922Y-101667746D01*
X121774912Y-101647877D01*
X121763523Y-101630154D01*
X121759988Y-101605570D01*
X121758678Y-101601856D01*
X121758500Y-101595219D01*
X121758500Y-101404780D01*
X121778185Y-101337741D01*
X121830989Y-101291986D01*
X121900147Y-101282042D01*
X121906658Y-101283156D01*
X121931007Y-101288000D01*
X121931008Y-101288000D01*
X122068995Y-101288000D01*
X122160041Y-101269889D01*
X122204328Y-101261080D01*
X122331811Y-101208275D01*
X122446542Y-101131614D01*
X122544114Y-101034042D01*
X122620775Y-100919311D01*
X122673580Y-100791828D01*
X122673580Y-100791825D01*
X122675346Y-100786006D01*
X122676760Y-100786434D01*
X122705734Y-100731027D01*
X122707241Y-100729492D01*
X123304713Y-100132021D01*
X123304716Y-100132020D01*
X123416520Y-100020216D01*
X123466639Y-99933404D01*
X123495577Y-99883285D01*
X123536501Y-99730557D01*
X123536501Y-99572443D01*
X123536501Y-99564848D01*
X123536500Y-99564830D01*
X123536500Y-95049769D01*
X123554746Y-94987627D01*
X123553906Y-94987178D01*
X123556064Y-94983140D01*
X123556185Y-94982730D01*
X123556721Y-94981910D01*
X123556771Y-94981816D01*
X123556775Y-94981811D01*
X123609580Y-94854328D01*
X123624573Y-94778955D01*
X123636500Y-94718995D01*
X123636500Y-94581004D01*
X123609581Y-94445677D01*
X123609580Y-94445676D01*
X123609580Y-94445672D01*
X123609578Y-94445667D01*
X123556778Y-94318195D01*
X123556771Y-94318182D01*
X123480114Y-94203458D01*
X123480111Y-94203454D01*
X123454117Y-94177460D01*
X123420632Y-94116137D01*
X123425616Y-94046445D01*
X123454124Y-94002091D01*
X123503598Y-93952626D01*
X123595602Y-93814951D01*
X123658975Y-93661970D01*
X123679539Y-93558581D01*
X123711924Y-93496672D01*
X123753348Y-93468361D01*
X123764797Y-93463576D01*
X123772544Y-93462036D01*
X123925491Y-93398692D01*
X123934536Y-93392649D01*
X123945619Y-93388018D01*
X123968878Y-93385444D01*
X123991206Y-93378451D01*
X124002954Y-93381673D01*
X124015065Y-93380333D01*
X124036022Y-93390742D01*
X124058587Y-93396931D01*
X124069307Y-93407274D01*
X124077641Y-93411414D01*
X124083146Y-93420627D01*
X124096529Y-93433540D01*
X124121143Y-93470378D01*
X124123780Y-93473015D01*
X124513181Y-93862416D01*
X124546666Y-93923739D01*
X124549500Y-93950097D01*
X124549500Y-94250230D01*
X124531253Y-94312369D01*
X124532095Y-94312819D01*
X124529935Y-94316859D01*
X124529815Y-94317269D01*
X124529278Y-94318087D01*
X124529223Y-94318190D01*
X124476421Y-94445667D01*
X124476418Y-94445677D01*
X124449500Y-94581004D01*
X124449500Y-94581007D01*
X124449500Y-94718993D01*
X124449500Y-94718995D01*
X124449499Y-94718995D01*
X124476418Y-94854322D01*
X124476421Y-94854332D01*
X124529221Y-94981804D01*
X124529228Y-94981817D01*
X124605885Y-95096541D01*
X124605888Y-95096545D01*
X124703454Y-95194111D01*
X124703458Y-95194114D01*
X124818182Y-95270771D01*
X124818195Y-95270778D01*
X124945667Y-95323578D01*
X124945672Y-95323580D01*
X124945676Y-95323580D01*
X124945677Y-95323581D01*
X125081004Y-95350500D01*
X125081007Y-95350500D01*
X125218995Y-95350500D01*
X125310041Y-95332389D01*
X125354328Y-95323580D01*
X125481811Y-95270775D01*
X125596542Y-95194114D01*
X125598663Y-95191993D01*
X125612319Y-95178338D01*
X125673642Y-95144853D01*
X125743334Y-95149837D01*
X125787681Y-95178338D01*
X125803454Y-95194111D01*
X125803458Y-95194114D01*
X125918182Y-95270771D01*
X125918195Y-95270778D01*
X126045667Y-95323578D01*
X126045672Y-95323580D01*
X126045676Y-95323580D01*
X126045677Y-95323581D01*
X126181004Y-95350500D01*
X126181007Y-95350500D01*
X126318995Y-95350500D01*
X126410041Y-95332389D01*
X126454328Y-95323580D01*
X126578047Y-95272333D01*
X126647515Y-95264865D01*
X126709995Y-95296140D01*
X126745647Y-95356229D01*
X126749499Y-95386895D01*
X126749499Y-95552054D01*
X126749498Y-95552054D01*
X126749499Y-95552057D01*
X126790423Y-95704785D01*
X126810110Y-95738883D01*
X126814903Y-95747184D01*
X126869479Y-95841715D01*
X126988349Y-95960585D01*
X126988355Y-95960590D01*
X127531139Y-96503374D01*
X127531149Y-96503385D01*
X127535479Y-96507715D01*
X127535480Y-96507716D01*
X127647284Y-96619520D01*
X127719520Y-96661225D01*
X127784215Y-96698577D01*
X127936942Y-96739500D01*
X127936943Y-96739500D01*
X129757681Y-96739500D01*
X129794000Y-96743910D01*
X129830319Y-96739500D01*
X129873057Y-96739500D01*
X129908474Y-96730009D01*
X129938764Y-96726332D01*
X129978639Y-96711209D01*
X130025784Y-96698577D01*
X130052270Y-96683284D01*
X130075116Y-96674621D01*
X130115201Y-96646952D01*
X130162716Y-96619520D01*
X130180034Y-96602201D01*
X130195130Y-96591782D01*
X130231440Y-96550795D01*
X130274520Y-96507716D01*
X130277152Y-96503155D01*
X130293694Y-96487379D01*
X130306732Y-96468599D01*
X130324348Y-96458144D01*
X130327713Y-96454936D01*
X130337066Y-96450594D01*
X130373041Y-96435690D01*
X130442508Y-96428218D01*
X130504989Y-96459488D01*
X130540646Y-96519575D01*
X130544500Y-96550249D01*
X130544500Y-113060709D01*
X130524815Y-113127748D01*
X130472011Y-113173503D01*
X130402853Y-113183447D01*
X130339297Y-113154422D01*
X130305939Y-113108162D01*
X130262376Y-113002991D01*
X130262371Y-113002982D01*
X130185714Y-112888258D01*
X130185711Y-112888254D01*
X130088145Y-112790688D01*
X130088141Y-112790685D01*
X129973417Y-112714028D01*
X129973404Y-112714021D01*
X129845932Y-112661221D01*
X129845922Y-112661218D01*
X129710595Y-112634300D01*
X129710593Y-112634300D01*
X129572607Y-112634300D01*
X129572605Y-112634300D01*
X129437277Y-112661218D01*
X129437267Y-112661221D01*
X129309795Y-112714021D01*
X129309782Y-112714028D01*
X129195058Y-112790685D01*
X129195054Y-112790688D01*
X129097488Y-112888254D01*
X129050372Y-112958768D01*
X128996759Y-113003572D01*
X128927434Y-113012279D01*
X128864407Y-112982124D01*
X128844381Y-112956571D01*
X128843360Y-112957254D01*
X128763314Y-112837458D01*
X128763311Y-112837454D01*
X128665745Y-112739888D01*
X128665741Y-112739885D01*
X128551017Y-112663228D01*
X128551004Y-112663221D01*
X128423532Y-112610421D01*
X128423522Y-112610418D01*
X128288195Y-112583500D01*
X128288193Y-112583500D01*
X128150207Y-112583500D01*
X128150205Y-112583500D01*
X128014877Y-112610418D01*
X128014867Y-112610421D01*
X127887395Y-112663221D01*
X127887382Y-112663228D01*
X127772658Y-112739885D01*
X127772654Y-112739888D01*
X127675088Y-112837454D01*
X127675085Y-112837458D01*
X127598428Y-112952182D01*
X127598421Y-112952195D01*
X127545621Y-113079667D01*
X127545618Y-113079677D01*
X127518700Y-113215004D01*
X127518700Y-113215007D01*
X127518700Y-113352993D01*
X127518700Y-113352995D01*
X127518699Y-113352995D01*
X127545618Y-113488322D01*
X127545621Y-113488332D01*
X127598421Y-113615804D01*
X127598428Y-113615817D01*
X127636175Y-113672309D01*
X127657053Y-113738987D01*
X127638568Y-113806367D01*
X127636175Y-113810091D01*
X127598428Y-113866582D01*
X127598421Y-113866595D01*
X127545621Y-113994067D01*
X127545618Y-113994077D01*
X127518700Y-114129404D01*
X127518700Y-114129407D01*
X127518700Y-114267393D01*
X127518700Y-114267395D01*
X127518699Y-114267395D01*
X127545618Y-114402722D01*
X127545621Y-114402732D01*
X127598421Y-114530204D01*
X127598428Y-114530217D01*
X127675085Y-114644941D01*
X127675088Y-114644945D01*
X127772654Y-114742511D01*
X127772658Y-114742514D01*
X127887382Y-114819171D01*
X127887395Y-114819178D01*
X127991210Y-114862179D01*
X128014872Y-114871980D01*
X128014876Y-114871980D01*
X128014877Y-114871981D01*
X128150204Y-114898900D01*
X128150207Y-114898900D01*
X128288195Y-114898900D01*
X128379241Y-114880789D01*
X128423528Y-114871980D01*
X128551011Y-114819175D01*
X128665742Y-114742514D01*
X128763314Y-114644942D01*
X128810427Y-114574431D01*
X128864038Y-114529627D01*
X128933363Y-114520920D01*
X128996391Y-114551074D01*
X129016421Y-114576626D01*
X129017440Y-114575946D01*
X129097485Y-114695741D01*
X129097488Y-114695745D01*
X129195054Y-114793311D01*
X129195058Y-114793314D01*
X129309782Y-114869971D01*
X129309795Y-114869978D01*
X129379620Y-114898900D01*
X129437272Y-114922780D01*
X129437276Y-114922780D01*
X129437277Y-114922781D01*
X129572604Y-114949700D01*
X129572607Y-114949700D01*
X129710595Y-114949700D01*
X129801641Y-114931589D01*
X129845928Y-114922780D01*
X129968568Y-114871981D01*
X129973404Y-114869978D01*
X129973404Y-114869977D01*
X129973411Y-114869975D01*
X130088142Y-114793314D01*
X130185714Y-114695742D01*
X130262375Y-114581011D01*
X130283415Y-114530217D01*
X130305939Y-114475838D01*
X130349779Y-114421434D01*
X130416073Y-114399369D01*
X130483773Y-114416648D01*
X130531384Y-114467785D01*
X130544500Y-114523290D01*
X130544500Y-128877500D01*
X130524815Y-128944539D01*
X130472011Y-128990294D01*
X130420500Y-129001500D01*
X81669500Y-129001500D01*
X81602461Y-128981815D01*
X81556706Y-128929011D01*
X81545500Y-128877500D01*
X81545500Y-127957995D01*
X90993499Y-127957995D01*
X91020418Y-128093322D01*
X91020421Y-128093332D01*
X91073221Y-128220804D01*
X91073228Y-128220817D01*
X91149885Y-128335541D01*
X91149888Y-128335545D01*
X91247454Y-128433111D01*
X91247458Y-128433114D01*
X91362182Y-128509771D01*
X91362195Y-128509778D01*
X91489667Y-128562578D01*
X91489672Y-128562580D01*
X91489676Y-128562580D01*
X91489677Y-128562581D01*
X91625004Y-128589500D01*
X91625007Y-128589500D01*
X91762995Y-128589500D01*
X91854041Y-128571389D01*
X91898328Y-128562580D01*
X92025811Y-128509775D01*
X92140542Y-128433114D01*
X92238114Y-128335542D01*
X92314775Y-128220811D01*
X92367580Y-128093328D01*
X92394500Y-127957993D01*
X92394500Y-127820007D01*
X92394500Y-127820004D01*
X92367581Y-127684677D01*
X92367580Y-127684676D01*
X92367580Y-127684672D01*
X92353111Y-127649741D01*
X92314778Y-127557195D01*
X92314771Y-127557182D01*
X92238114Y-127442458D01*
X92238111Y-127442454D01*
X92140545Y-127344888D01*
X92140541Y-127344885D01*
X92025817Y-127268228D01*
X92025804Y-127268221D01*
X91898332Y-127215421D01*
X91898322Y-127215418D01*
X91762995Y-127188500D01*
X91762993Y-127188500D01*
X91625007Y-127188500D01*
X91625005Y-127188500D01*
X91489677Y-127215418D01*
X91489667Y-127215421D01*
X91362195Y-127268221D01*
X91362182Y-127268228D01*
X91247458Y-127344885D01*
X91247454Y-127344888D01*
X91149888Y-127442454D01*
X91149885Y-127442458D01*
X91073228Y-127557182D01*
X91073221Y-127557195D01*
X91020421Y-127684667D01*
X91020418Y-127684677D01*
X90993500Y-127820004D01*
X90993500Y-127820007D01*
X90993500Y-127957993D01*
X90993500Y-127957995D01*
X90993499Y-127957995D01*
X81545500Y-127957995D01*
X81545500Y-126563495D01*
X86804999Y-126563495D01*
X86831918Y-126698822D01*
X86831921Y-126698832D01*
X86884721Y-126826304D01*
X86884728Y-126826317D01*
X86961385Y-126941041D01*
X86961388Y-126941045D01*
X87058954Y-127038611D01*
X87058958Y-127038614D01*
X87173682Y-127115271D01*
X87173695Y-127115278D01*
X87301167Y-127168078D01*
X87301172Y-127168080D01*
X87301176Y-127168080D01*
X87301177Y-127168081D01*
X87436504Y-127195000D01*
X87436507Y-127195000D01*
X87574495Y-127195000D01*
X87665541Y-127176889D01*
X87709828Y-127168080D01*
X87837311Y-127115275D01*
X87952042Y-127038614D01*
X88049614Y-126941042D01*
X88126275Y-126826311D01*
X88179080Y-126698828D01*
X88206000Y-126563493D01*
X88206000Y-126425507D01*
X88206000Y-126425504D01*
X88179081Y-126290177D01*
X88179080Y-126290176D01*
X88179080Y-126290172D01*
X88178978Y-126289926D01*
X88126278Y-126162695D01*
X88126271Y-126162682D01*
X88049614Y-126047958D01*
X88049611Y-126047954D01*
X87952045Y-125950388D01*
X87952041Y-125950385D01*
X87837317Y-125873728D01*
X87837304Y-125873721D01*
X87709832Y-125820921D01*
X87709822Y-125820918D01*
X87599607Y-125798995D01*
X93787499Y-125798995D01*
X93814418Y-125934322D01*
X93814421Y-125934332D01*
X93867221Y-126061804D01*
X93867228Y-126061817D01*
X93943885Y-126176541D01*
X93943888Y-126176545D01*
X94041454Y-126274111D01*
X94041458Y-126274114D01*
X94156182Y-126350771D01*
X94156195Y-126350778D01*
X94243690Y-126387019D01*
X94283672Y-126403580D01*
X94283676Y-126403580D01*
X94283677Y-126403581D01*
X94419004Y-126430500D01*
X94419007Y-126430500D01*
X94556995Y-126430500D01*
X94648041Y-126412389D01*
X94692328Y-126403580D01*
X94819811Y-126350775D01*
X94934542Y-126274114D01*
X95032114Y-126176542D01*
X95046779Y-126154595D01*
X96225899Y-126154595D01*
X96252819Y-126289926D01*
X96252821Y-126289932D01*
X96264260Y-126317550D01*
X96271727Y-126387019D01*
X96264260Y-126412450D01*
X96252821Y-126440067D01*
X96252819Y-126440073D01*
X96225900Y-126575404D01*
X96225900Y-126575407D01*
X96225900Y-126713393D01*
X96225900Y-126713395D01*
X96225899Y-126713395D01*
X96252819Y-126848726D01*
X96252821Y-126848732D01*
X96264260Y-126876350D01*
X96271727Y-126945819D01*
X96264260Y-126971250D01*
X96252821Y-126998867D01*
X96252819Y-126998873D01*
X96225900Y-127134204D01*
X96225900Y-127134207D01*
X96225900Y-127272193D01*
X96225900Y-127272195D01*
X96225899Y-127272195D01*
X96252818Y-127407522D01*
X96252821Y-127407532D01*
X96305621Y-127535004D01*
X96305628Y-127535017D01*
X96382285Y-127649741D01*
X96382288Y-127649745D01*
X96479854Y-127747311D01*
X96479858Y-127747314D01*
X96594582Y-127823971D01*
X96594595Y-127823978D01*
X96683886Y-127860963D01*
X96722072Y-127876780D01*
X96722076Y-127876780D01*
X96722077Y-127876781D01*
X96857404Y-127903700D01*
X96857407Y-127903700D01*
X96995395Y-127903700D01*
X97086441Y-127885589D01*
X97130728Y-127876780D01*
X97184183Y-127854638D01*
X97259948Y-127823256D01*
X97329417Y-127815787D01*
X97354852Y-127823256D01*
X97445886Y-127860963D01*
X97484072Y-127876780D01*
X97484076Y-127876780D01*
X97484077Y-127876781D01*
X97619404Y-127903700D01*
X97619407Y-127903700D01*
X97757395Y-127903700D01*
X97848441Y-127885589D01*
X97892728Y-127876780D01*
X98020211Y-127823975D01*
X98076710Y-127786223D01*
X98143385Y-127765346D01*
X98210766Y-127783830D01*
X98214460Y-127786203D01*
X98270989Y-127823975D01*
X98270991Y-127823976D01*
X98270995Y-127823978D01*
X98360286Y-127860963D01*
X98398472Y-127876780D01*
X98398476Y-127876780D01*
X98398477Y-127876781D01*
X98533804Y-127903700D01*
X98533807Y-127903700D01*
X98671795Y-127903700D01*
X98762841Y-127885589D01*
X98807128Y-127876780D01*
X98934611Y-127823975D01*
X99049342Y-127747314D01*
X99146914Y-127649742D01*
X99223575Y-127535011D01*
X99276380Y-127407528D01*
X99288841Y-127344885D01*
X99303300Y-127272195D01*
X99303300Y-127134204D01*
X99276381Y-126998877D01*
X99276379Y-126998870D01*
X99276378Y-126998867D01*
X99264939Y-126971250D01*
X99257470Y-126901785D01*
X99264938Y-126876350D01*
X99276380Y-126848728D01*
X99283090Y-126814995D01*
X113091499Y-126814995D01*
X113118418Y-126950322D01*
X113118421Y-126950332D01*
X113171221Y-127077804D01*
X113171228Y-127077817D01*
X113247885Y-127192541D01*
X113247888Y-127192545D01*
X113345454Y-127290111D01*
X113345458Y-127290114D01*
X113460182Y-127366771D01*
X113460195Y-127366778D01*
X113558585Y-127407532D01*
X113587672Y-127419580D01*
X113587676Y-127419580D01*
X113587677Y-127419581D01*
X113723004Y-127446500D01*
X113723007Y-127446500D01*
X113860995Y-127446500D01*
X113952041Y-127428389D01*
X113996328Y-127419580D01*
X114123811Y-127366775D01*
X114238542Y-127290114D01*
X114336114Y-127192542D01*
X114412775Y-127077811D01*
X114465580Y-126950328D01*
X114485789Y-126848732D01*
X114492500Y-126814995D01*
X114492500Y-126677004D01*
X114465581Y-126541677D01*
X114465580Y-126541676D01*
X114465580Y-126541672D01*
X114440773Y-126481782D01*
X114412778Y-126414195D01*
X114412771Y-126414182D01*
X114336114Y-126299458D01*
X114336111Y-126299454D01*
X114238545Y-126201888D01*
X114238541Y-126201885D01*
X114123817Y-126125228D01*
X114123804Y-126125221D01*
X113996332Y-126072421D01*
X113996322Y-126072418D01*
X113860995Y-126045500D01*
X113860993Y-126045500D01*
X113723007Y-126045500D01*
X113723005Y-126045500D01*
X113587677Y-126072418D01*
X113587667Y-126072421D01*
X113460195Y-126125221D01*
X113460182Y-126125228D01*
X113345458Y-126201885D01*
X113345454Y-126201888D01*
X113247888Y-126299454D01*
X113247885Y-126299458D01*
X113171228Y-126414182D01*
X113171221Y-126414195D01*
X113118421Y-126541667D01*
X113118418Y-126541677D01*
X113091500Y-126677004D01*
X113091500Y-126677007D01*
X113091500Y-126814993D01*
X113091500Y-126814995D01*
X113091499Y-126814995D01*
X99283090Y-126814995D01*
X99303300Y-126713393D01*
X99303300Y-126575407D01*
X99303300Y-126575404D01*
X99276381Y-126440077D01*
X99276379Y-126440070D01*
X99270347Y-126425507D01*
X99264939Y-126412450D01*
X99257470Y-126342985D01*
X99264938Y-126317550D01*
X99276380Y-126289928D01*
X99286653Y-126238282D01*
X99303300Y-126154595D01*
X99303300Y-126016604D01*
X99276381Y-125881277D01*
X99276380Y-125881276D01*
X99276380Y-125881272D01*
X99251382Y-125820921D01*
X99223578Y-125753795D01*
X99223571Y-125753782D01*
X99146914Y-125639058D01*
X99146911Y-125639054D01*
X99049345Y-125541488D01*
X99049341Y-125541485D01*
X98934617Y-125464828D01*
X98934604Y-125464821D01*
X98807132Y-125412021D01*
X98807122Y-125412018D01*
X98671795Y-125385100D01*
X98671793Y-125385100D01*
X98533807Y-125385100D01*
X98533805Y-125385100D01*
X98398477Y-125412018D01*
X98398467Y-125412021D01*
X98270995Y-125464821D01*
X98270982Y-125464828D01*
X98214491Y-125502575D01*
X98147813Y-125523453D01*
X98080433Y-125504968D01*
X98076709Y-125502575D01*
X98020217Y-125464828D01*
X98020204Y-125464821D01*
X97892732Y-125412021D01*
X97892722Y-125412018D01*
X97757395Y-125385100D01*
X97757393Y-125385100D01*
X97619407Y-125385100D01*
X97619405Y-125385100D01*
X97484077Y-125412018D01*
X97484067Y-125412021D01*
X97354852Y-125465543D01*
X97285382Y-125473012D01*
X97259948Y-125465543D01*
X97130732Y-125412021D01*
X97130722Y-125412018D01*
X96995395Y-125385100D01*
X96995393Y-125385100D01*
X96857407Y-125385100D01*
X96857405Y-125385100D01*
X96722077Y-125412018D01*
X96722067Y-125412021D01*
X96594595Y-125464821D01*
X96594582Y-125464828D01*
X96479858Y-125541485D01*
X96479854Y-125541488D01*
X96382288Y-125639054D01*
X96382285Y-125639058D01*
X96305628Y-125753782D01*
X96305621Y-125753795D01*
X96252821Y-125881267D01*
X96252818Y-125881277D01*
X96225900Y-126016604D01*
X96225900Y-126016607D01*
X96225900Y-126154593D01*
X96225900Y-126154595D01*
X96225899Y-126154595D01*
X95046779Y-126154595D01*
X95108775Y-126061811D01*
X95116769Y-126042511D01*
X95149678Y-125963063D01*
X95161578Y-125934332D01*
X95161580Y-125934328D01*
X95180953Y-125836934D01*
X95188500Y-125798995D01*
X95188500Y-125661004D01*
X95161581Y-125525677D01*
X95161580Y-125525676D01*
X95161580Y-125525672D01*
X95152013Y-125502575D01*
X95108778Y-125398195D01*
X95108771Y-125398182D01*
X95032114Y-125283458D01*
X95032111Y-125283454D01*
X94934545Y-125185888D01*
X94934541Y-125185885D01*
X94819817Y-125109228D01*
X94819804Y-125109221D01*
X94692332Y-125056421D01*
X94692322Y-125056418D01*
X94556995Y-125029500D01*
X94556993Y-125029500D01*
X94419007Y-125029500D01*
X94419005Y-125029500D01*
X94283677Y-125056418D01*
X94283667Y-125056421D01*
X94156195Y-125109221D01*
X94156182Y-125109228D01*
X94041458Y-125185885D01*
X94041454Y-125185888D01*
X93943888Y-125283454D01*
X93943885Y-125283458D01*
X93867228Y-125398182D01*
X93867221Y-125398195D01*
X93814421Y-125525667D01*
X93814418Y-125525677D01*
X93787500Y-125661004D01*
X93787500Y-125661007D01*
X93787500Y-125798993D01*
X93787500Y-125798995D01*
X93787499Y-125798995D01*
X87599607Y-125798995D01*
X87574495Y-125794000D01*
X87574493Y-125794000D01*
X87436507Y-125794000D01*
X87436505Y-125794000D01*
X87301177Y-125820918D01*
X87301167Y-125820921D01*
X87173695Y-125873721D01*
X87173682Y-125873728D01*
X87058958Y-125950385D01*
X87058954Y-125950388D01*
X86961388Y-126047954D01*
X86961385Y-126047958D01*
X86884728Y-126162682D01*
X86884721Y-126162695D01*
X86831921Y-126290167D01*
X86831918Y-126290177D01*
X86805000Y-126425504D01*
X86805000Y-126425507D01*
X86805000Y-126563493D01*
X86805000Y-126563495D01*
X86804999Y-126563495D01*
X81545500Y-126563495D01*
X81545500Y-123358166D01*
X82474500Y-123358166D01*
X82474500Y-123641833D01*
X82506258Y-123923690D01*
X82506260Y-123923702D01*
X82569380Y-124200253D01*
X82569383Y-124200261D01*
X82663067Y-124467993D01*
X82786139Y-124723554D01*
X82786141Y-124723557D01*
X82937056Y-124963737D01*
X83113914Y-125185510D01*
X83314490Y-125386086D01*
X83536263Y-125562944D01*
X83776443Y-125713859D01*
X84032010Y-125836934D01*
X84168598Y-125884728D01*
X84299738Y-125930616D01*
X84299746Y-125930619D01*
X84299749Y-125930619D01*
X84299750Y-125930620D01*
X84576297Y-125993740D01*
X84858166Y-126025499D01*
X84858167Y-126025500D01*
X84858171Y-126025500D01*
X85141833Y-126025500D01*
X85141833Y-126025499D01*
X85423703Y-125993740D01*
X85700250Y-125930620D01*
X85967990Y-125836934D01*
X86223557Y-125713859D01*
X86463737Y-125562944D01*
X86465266Y-125561724D01*
X86469980Y-125557966D01*
X86585874Y-125465543D01*
X86685510Y-125386086D01*
X86886086Y-125185510D01*
X87062944Y-124963737D01*
X87213859Y-124723557D01*
X87336934Y-124467990D01*
X87430620Y-124200250D01*
X87493740Y-123923703D01*
X87525500Y-123641829D01*
X87525500Y-123385995D01*
X102042499Y-123385995D01*
X102069418Y-123521322D01*
X102069421Y-123521332D01*
X102122221Y-123648804D01*
X102122228Y-123648817D01*
X102198885Y-123763541D01*
X102198888Y-123763545D01*
X102296454Y-123861111D01*
X102296458Y-123861114D01*
X102411182Y-123937771D01*
X102411195Y-123937778D01*
X102538667Y-123990578D01*
X102538672Y-123990580D01*
X102538676Y-123990580D01*
X102538677Y-123990581D01*
X102674004Y-124017500D01*
X102674007Y-124017500D01*
X102811995Y-124017500D01*
X102903041Y-123999389D01*
X102947328Y-123990580D01*
X103074811Y-123937775D01*
X103189542Y-123861114D01*
X103287114Y-123763542D01*
X103363775Y-123648811D01*
X103367427Y-123639995D01*
X109408499Y-123639995D01*
X109435418Y-123775322D01*
X109435421Y-123775332D01*
X109488221Y-123902804D01*
X109488228Y-123902817D01*
X109564885Y-124017541D01*
X109564888Y-124017545D01*
X109662454Y-124115111D01*
X109662458Y-124115114D01*
X109777182Y-124191771D01*
X109777195Y-124191778D01*
X109904667Y-124244578D01*
X109904672Y-124244580D01*
X109904676Y-124244580D01*
X109904677Y-124244581D01*
X110040004Y-124271500D01*
X110040007Y-124271500D01*
X110177995Y-124271500D01*
X110269041Y-124253389D01*
X110313328Y-124244580D01*
X110379048Y-124217358D01*
X110442548Y-124191056D01*
X110512017Y-124183587D01*
X110537452Y-124191056D01*
X110666667Y-124244578D01*
X110666672Y-124244580D01*
X110666676Y-124244580D01*
X110666677Y-124244581D01*
X110802004Y-124271500D01*
X110802007Y-124271500D01*
X110939995Y-124271500D01*
X111031041Y-124253389D01*
X111075328Y-124244580D01*
X111182343Y-124200253D01*
X111202804Y-124191778D01*
X111202804Y-124191777D01*
X111202811Y-124191775D01*
X111317542Y-124115114D01*
X111415114Y-124017542D01*
X111491775Y-123902811D01*
X111544580Y-123775328D01*
X111569746Y-123648811D01*
X111571500Y-123639995D01*
X111571500Y-123502004D01*
X111544581Y-123366677D01*
X111544580Y-123366674D01*
X111544580Y-123366672D01*
X111541057Y-123358166D01*
X111491778Y-123239195D01*
X111491771Y-123239182D01*
X111415114Y-123124458D01*
X111415111Y-123124454D01*
X111317545Y-123026888D01*
X111317541Y-123026885D01*
X111202817Y-122950228D01*
X111202804Y-122950221D01*
X111075332Y-122897421D01*
X111075322Y-122897418D01*
X110939995Y-122870500D01*
X110939993Y-122870500D01*
X110802007Y-122870500D01*
X110802005Y-122870500D01*
X110666677Y-122897418D01*
X110666667Y-122897421D01*
X110537452Y-122950943D01*
X110467982Y-122958412D01*
X110442548Y-122950943D01*
X110313332Y-122897421D01*
X110313322Y-122897418D01*
X110177995Y-122870500D01*
X110177993Y-122870500D01*
X110040007Y-122870500D01*
X110040005Y-122870500D01*
X109904677Y-122897418D01*
X109904667Y-122897421D01*
X109777195Y-122950221D01*
X109777182Y-122950228D01*
X109662458Y-123026885D01*
X109662454Y-123026888D01*
X109564888Y-123124454D01*
X109564885Y-123124458D01*
X109488228Y-123239182D01*
X109488221Y-123239195D01*
X109435421Y-123366667D01*
X109435418Y-123366677D01*
X109408500Y-123502004D01*
X109408500Y-123502007D01*
X109408500Y-123639993D01*
X109408500Y-123639995D01*
X109408499Y-123639995D01*
X103367427Y-123639995D01*
X103416580Y-123521328D01*
X103443500Y-123385993D01*
X103443500Y-123248007D01*
X103443500Y-123248004D01*
X103416581Y-123112677D01*
X103416580Y-123112676D01*
X103416580Y-123112672D01*
X103401513Y-123076297D01*
X103363778Y-122985195D01*
X103363771Y-122985182D01*
X103287114Y-122870458D01*
X103287111Y-122870454D01*
X103189545Y-122772888D01*
X103189541Y-122772885D01*
X103074817Y-122696228D01*
X103074804Y-122696221D01*
X102947332Y-122643421D01*
X102947322Y-122643418D01*
X102811995Y-122616500D01*
X102811993Y-122616500D01*
X102674007Y-122616500D01*
X102674005Y-122616500D01*
X102538677Y-122643418D01*
X102538667Y-122643421D01*
X102411195Y-122696221D01*
X102411182Y-122696228D01*
X102296458Y-122772885D01*
X102296454Y-122772888D01*
X102198888Y-122870454D01*
X102198885Y-122870458D01*
X102122228Y-122985182D01*
X102122221Y-122985195D01*
X102069421Y-123112667D01*
X102069418Y-123112677D01*
X102042500Y-123248004D01*
X102042500Y-123248007D01*
X102042500Y-123385993D01*
X102042500Y-123385995D01*
X102042499Y-123385995D01*
X87525500Y-123385995D01*
X87525500Y-123358171D01*
X87521105Y-123319170D01*
X87513966Y-123255799D01*
X87500448Y-123135836D01*
X87493740Y-123076297D01*
X87430620Y-122799750D01*
X87336934Y-122532010D01*
X87213859Y-122276443D01*
X87062944Y-122036263D01*
X86886086Y-121814490D01*
X86685510Y-121613914D01*
X86678085Y-121607993D01*
X86629187Y-121568998D01*
X86463737Y-121437056D01*
X86223557Y-121286141D01*
X86223554Y-121286139D01*
X85967993Y-121163067D01*
X85700261Y-121069383D01*
X85700253Y-121069380D01*
X85469772Y-121016775D01*
X85423703Y-121006260D01*
X85423699Y-121006259D01*
X85423690Y-121006258D01*
X85141833Y-120974500D01*
X85141829Y-120974500D01*
X84858171Y-120974500D01*
X84858167Y-120974500D01*
X84576309Y-121006258D01*
X84576297Y-121006260D01*
X84299746Y-121069380D01*
X84299738Y-121069383D01*
X84032006Y-121163067D01*
X83776445Y-121286139D01*
X83536264Y-121437055D01*
X83314490Y-121613913D01*
X83113913Y-121814490D01*
X82937055Y-122036264D01*
X82786139Y-122276445D01*
X82663067Y-122532006D01*
X82569383Y-122799738D01*
X82569380Y-122799746D01*
X82506260Y-123076297D01*
X82506258Y-123076309D01*
X82474500Y-123358166D01*
X81545500Y-123358166D01*
X81545500Y-115463713D01*
X81834500Y-115463713D01*
X81834500Y-115676286D01*
X81867753Y-115886239D01*
X81867753Y-115886241D01*
X81867754Y-115886243D01*
X81926819Y-116068026D01*
X81933444Y-116088414D01*
X82029951Y-116277820D01*
X82154890Y-116449786D01*
X82305213Y-116600109D01*
X82477182Y-116725050D01*
X82485946Y-116729516D01*
X82536742Y-116777491D01*
X82553536Y-116845312D01*
X82530998Y-116911447D01*
X82485946Y-116950484D01*
X82477182Y-116954949D01*
X82305213Y-117079890D01*
X82154890Y-117230213D01*
X82029951Y-117402179D01*
X81933444Y-117591585D01*
X81867753Y-117793760D01*
X81834500Y-118003713D01*
X81834500Y-118216286D01*
X81867082Y-118422004D01*
X81867754Y-118426243D01*
X81911212Y-118559993D01*
X81933444Y-118628414D01*
X82029951Y-118817820D01*
X82154890Y-118989786D01*
X82305213Y-119140109D01*
X82477179Y-119265048D01*
X82477181Y-119265049D01*
X82477184Y-119265051D01*
X82666588Y-119361557D01*
X82868757Y-119427246D01*
X83078713Y-119460500D01*
X83078714Y-119460500D01*
X83291286Y-119460500D01*
X83291287Y-119460500D01*
X83501243Y-119427246D01*
X83703412Y-119361557D01*
X83892816Y-119265051D01*
X83959110Y-119216886D01*
X84064786Y-119140109D01*
X84064788Y-119140106D01*
X84064792Y-119140104D01*
X84215104Y-118989792D01*
X84215106Y-118989788D01*
X84215109Y-118989786D01*
X84273661Y-118909193D01*
X84340051Y-118817816D01*
X84340349Y-118817230D01*
X84360235Y-118778205D01*
X84408209Y-118727409D01*
X84470719Y-118710500D01*
X87289331Y-118710500D01*
X87289347Y-118710501D01*
X87296943Y-118710501D01*
X87455054Y-118710501D01*
X87455057Y-118710501D01*
X87607785Y-118669577D01*
X87657904Y-118640639D01*
X87744716Y-118590520D01*
X87856520Y-118478716D01*
X87856520Y-118478714D01*
X87866728Y-118468507D01*
X87866729Y-118468504D01*
X88152939Y-118182295D01*
X88184365Y-118165135D01*
X88740500Y-118165135D01*
X88740500Y-119610870D01*
X88740501Y-119610876D01*
X88746908Y-119670483D01*
X88797202Y-119805328D01*
X88797206Y-119805335D01*
X88883452Y-119920544D01*
X88883455Y-119920547D01*
X88968938Y-119984540D01*
X89010809Y-120040473D01*
X89015793Y-120110165D01*
X88994946Y-120156690D01*
X88911051Y-120272163D01*
X88827084Y-120436956D01*
X88827083Y-120436959D01*
X88769933Y-120612852D01*
X88741000Y-120795526D01*
X88741000Y-120980473D01*
X88769933Y-121163147D01*
X88827083Y-121339040D01*
X88827084Y-121339043D01*
X88911050Y-121503834D01*
X88926015Y-121524430D01*
X89516000Y-120934445D01*
X89516000Y-120940661D01*
X89543259Y-121042394D01*
X89595920Y-121133606D01*
X89670394Y-121208080D01*
X89761606Y-121260741D01*
X89863339Y-121288000D01*
X89869553Y-121288000D01*
X89279568Y-121877983D01*
X89279568Y-121877984D01*
X89300165Y-121892949D01*
X89464956Y-121976915D01*
X89464959Y-121976916D01*
X89640852Y-122034066D01*
X89823527Y-122063000D01*
X90008473Y-122063000D01*
X90191147Y-122034066D01*
X90367040Y-121976916D01*
X90367043Y-121976915D01*
X90531836Y-121892947D01*
X90531845Y-121892942D01*
X90552430Y-121877984D01*
X90552431Y-121877983D01*
X89962448Y-121288000D01*
X89968661Y-121288000D01*
X90070394Y-121260741D01*
X90161606Y-121208080D01*
X90236080Y-121133606D01*
X90288741Y-121042394D01*
X90316000Y-120940661D01*
X90316000Y-120934447D01*
X90905983Y-121524430D01*
X90905984Y-121524430D01*
X90920942Y-121503845D01*
X90920947Y-121503836D01*
X91004915Y-121339043D01*
X91004916Y-121339040D01*
X91062066Y-121163147D01*
X91091000Y-120980473D01*
X91091000Y-120972995D01*
X96073499Y-120972995D01*
X96100418Y-121108322D01*
X96100419Y-121108323D01*
X96100420Y-121108328D01*
X96123127Y-121163147D01*
X96127642Y-121174048D01*
X96135110Y-121243518D01*
X96127642Y-121268951D01*
X96100420Y-121334672D01*
X96100419Y-121334675D01*
X96100419Y-121334676D01*
X96100418Y-121334677D01*
X96073500Y-121470004D01*
X96073500Y-121470007D01*
X96073500Y-121607993D01*
X96073500Y-121607995D01*
X96073499Y-121607995D01*
X96100418Y-121743322D01*
X96100419Y-121743323D01*
X96100420Y-121743328D01*
X96127641Y-121809046D01*
X96127642Y-121809048D01*
X96135110Y-121878518D01*
X96127642Y-121903951D01*
X96100420Y-121969672D01*
X96100419Y-121969675D01*
X96100419Y-121969676D01*
X96100418Y-121969677D01*
X96073500Y-122105004D01*
X96073500Y-122105007D01*
X96073500Y-122242993D01*
X96073500Y-122242995D01*
X96073499Y-122242995D01*
X96100418Y-122378322D01*
X96100421Y-122378332D01*
X96153221Y-122505804D01*
X96153228Y-122505817D01*
X96229885Y-122620541D01*
X96229888Y-122620545D01*
X96327454Y-122718111D01*
X96327458Y-122718114D01*
X96442182Y-122794771D01*
X96442195Y-122794778D01*
X96569667Y-122847578D01*
X96569672Y-122847580D01*
X96569676Y-122847580D01*
X96569677Y-122847581D01*
X96705004Y-122874500D01*
X96705007Y-122874500D01*
X96842995Y-122874500D01*
X96934041Y-122856389D01*
X96978328Y-122847580D01*
X97105811Y-122794775D01*
X97149609Y-122765509D01*
X97216285Y-122744631D01*
X97283666Y-122763115D01*
X97287370Y-122765496D01*
X97331189Y-122794775D01*
X97331191Y-122794776D01*
X97331193Y-122794777D01*
X97458667Y-122847578D01*
X97458672Y-122847580D01*
X97458676Y-122847580D01*
X97458677Y-122847581D01*
X97594004Y-122874500D01*
X97594007Y-122874500D01*
X97731995Y-122874500D01*
X97823041Y-122856389D01*
X97867328Y-122847580D01*
X97994811Y-122794775D01*
X98038609Y-122765509D01*
X98105285Y-122744631D01*
X98172666Y-122763115D01*
X98176370Y-122765496D01*
X98220189Y-122794775D01*
X98220191Y-122794776D01*
X98220193Y-122794777D01*
X98347667Y-122847578D01*
X98347672Y-122847580D01*
X98347676Y-122847580D01*
X98347677Y-122847581D01*
X98483004Y-122874500D01*
X98483007Y-122874500D01*
X98620995Y-122874500D01*
X98712041Y-122856389D01*
X98756328Y-122847580D01*
X98883811Y-122794775D01*
X98998542Y-122718114D01*
X99096114Y-122620542D01*
X99172775Y-122505811D01*
X99225580Y-122378328D01*
X99245846Y-122276445D01*
X99252500Y-122242995D01*
X99252500Y-122105004D01*
X99225581Y-121969677D01*
X99225578Y-121969666D01*
X99209791Y-121931556D01*
X99198357Y-121903952D01*
X99190888Y-121834485D01*
X99198357Y-121809048D01*
X99225580Y-121743328D01*
X99249957Y-121620778D01*
X99252500Y-121607995D01*
X99252500Y-121470004D01*
X99225581Y-121334677D01*
X99225578Y-121334666D01*
X99209791Y-121296556D01*
X99198357Y-121268952D01*
X99190888Y-121199485D01*
X99198357Y-121174048D01*
X99225580Y-121108328D01*
X99250809Y-120981495D01*
X99252500Y-120972995D01*
X99252500Y-120835004D01*
X99225581Y-120699677D01*
X99225580Y-120699676D01*
X99225580Y-120699672D01*
X99212542Y-120668195D01*
X99172778Y-120572195D01*
X99172771Y-120572182D01*
X99096114Y-120457458D01*
X99096111Y-120457454D01*
X98998545Y-120359888D01*
X98998541Y-120359885D01*
X98883817Y-120283228D01*
X98883804Y-120283221D01*
X98756332Y-120230421D01*
X98756322Y-120230418D01*
X98620995Y-120203500D01*
X98620993Y-120203500D01*
X98483007Y-120203500D01*
X98483005Y-120203500D01*
X98347677Y-120230418D01*
X98347667Y-120230421D01*
X98220191Y-120283223D01*
X98176391Y-120312490D01*
X98109713Y-120333368D01*
X98042333Y-120314884D01*
X98038609Y-120312490D01*
X97994808Y-120283223D01*
X97867332Y-120230421D01*
X97867322Y-120230418D01*
X97731995Y-120203500D01*
X97731993Y-120203500D01*
X97594007Y-120203500D01*
X97594005Y-120203500D01*
X97458677Y-120230418D01*
X97458667Y-120230421D01*
X97331191Y-120283223D01*
X97287391Y-120312490D01*
X97220713Y-120333368D01*
X97153333Y-120314884D01*
X97149609Y-120312490D01*
X97105808Y-120283223D01*
X96978332Y-120230421D01*
X96978322Y-120230418D01*
X96842995Y-120203500D01*
X96842993Y-120203500D01*
X96705007Y-120203500D01*
X96705005Y-120203500D01*
X96569677Y-120230418D01*
X96569667Y-120230421D01*
X96442195Y-120283221D01*
X96442182Y-120283228D01*
X96327458Y-120359885D01*
X96327454Y-120359888D01*
X96229888Y-120457454D01*
X96229885Y-120457458D01*
X96153228Y-120572182D01*
X96153221Y-120572195D01*
X96100421Y-120699667D01*
X96100418Y-120699677D01*
X96073500Y-120835004D01*
X96073500Y-120835007D01*
X96073500Y-120972993D01*
X96073500Y-120972995D01*
X96073499Y-120972995D01*
X91091000Y-120972995D01*
X91091000Y-120795526D01*
X91062066Y-120612852D01*
X91004916Y-120436959D01*
X91004915Y-120436956D01*
X90920947Y-120272161D01*
X90837054Y-120156691D01*
X90813574Y-120090884D01*
X90829400Y-120022831D01*
X90863058Y-119984542D01*
X90899856Y-119956995D01*
X91882499Y-119956995D01*
X91909418Y-120092322D01*
X91909421Y-120092332D01*
X91962221Y-120219804D01*
X91962228Y-120219817D01*
X92038885Y-120334541D01*
X92038888Y-120334545D01*
X92136454Y-120432111D01*
X92136458Y-120432114D01*
X92251182Y-120508771D01*
X92251195Y-120508778D01*
X92378667Y-120561578D01*
X92378672Y-120561580D01*
X92378676Y-120561580D01*
X92378677Y-120561581D01*
X92514004Y-120588500D01*
X92514007Y-120588500D01*
X92651995Y-120588500D01*
X92755455Y-120567920D01*
X92787328Y-120561580D01*
X92914811Y-120508775D01*
X93029542Y-120432114D01*
X93127114Y-120334542D01*
X93203775Y-120219811D01*
X93256580Y-120092328D01*
X93266895Y-120040473D01*
X93283500Y-119956995D01*
X93283500Y-119829995D01*
X103566499Y-119829995D01*
X103593418Y-119965322D01*
X103593419Y-119965323D01*
X103593420Y-119965328D01*
X103620641Y-120031046D01*
X103620642Y-120031048D01*
X103628110Y-120100518D01*
X103620642Y-120125951D01*
X103593420Y-120191672D01*
X103593419Y-120191675D01*
X103593419Y-120191676D01*
X103593418Y-120191677D01*
X103566500Y-120327004D01*
X103566500Y-120327007D01*
X103566500Y-120464993D01*
X103566500Y-120464995D01*
X103566499Y-120464995D01*
X103593418Y-120600322D01*
X103593421Y-120600332D01*
X103646221Y-120727804D01*
X103646228Y-120727817D01*
X103722885Y-120842541D01*
X103722888Y-120842545D01*
X103820454Y-120940111D01*
X103820458Y-120940114D01*
X103935182Y-121016771D01*
X103935195Y-121016778D01*
X104062189Y-121069380D01*
X104062672Y-121069580D01*
X104062676Y-121069580D01*
X104062677Y-121069581D01*
X104198004Y-121096500D01*
X104198007Y-121096500D01*
X104335995Y-121096500D01*
X104427041Y-121078389D01*
X104471328Y-121069580D01*
X104537047Y-121042357D01*
X104606515Y-121034888D01*
X104631951Y-121042357D01*
X104659556Y-121053791D01*
X104697666Y-121069578D01*
X104697669Y-121069578D01*
X104697672Y-121069580D01*
X104697676Y-121069580D01*
X104697677Y-121069581D01*
X104833004Y-121096500D01*
X104833007Y-121096500D01*
X104970995Y-121096500D01*
X105062041Y-121078389D01*
X105106328Y-121069580D01*
X105233811Y-121016775D01*
X105348542Y-120940114D01*
X105446114Y-120842542D01*
X105522775Y-120727811D01*
X105575580Y-120600328D01*
X105584904Y-120553454D01*
X105602500Y-120464995D01*
X105602500Y-120327004D01*
X105575581Y-120191677D01*
X105575578Y-120191666D01*
X105548358Y-120125954D01*
X105540888Y-120056485D01*
X105548357Y-120031048D01*
X105575580Y-119965328D01*
X105602500Y-119829993D01*
X105602500Y-119692007D01*
X105602500Y-119692004D01*
X105575581Y-119556677D01*
X105575580Y-119556676D01*
X105575580Y-119556672D01*
X105575377Y-119556182D01*
X105522778Y-119429195D01*
X105522771Y-119429182D01*
X105446114Y-119314458D01*
X105446111Y-119314454D01*
X105348545Y-119216888D01*
X105348541Y-119216885D01*
X105233817Y-119140228D01*
X105233804Y-119140221D01*
X105106332Y-119087421D01*
X105106322Y-119087418D01*
X104970995Y-119060500D01*
X104970993Y-119060500D01*
X104833007Y-119060500D01*
X104833005Y-119060500D01*
X104697677Y-119087418D01*
X104697676Y-119087419D01*
X104697675Y-119087419D01*
X104697672Y-119087420D01*
X104631952Y-119114642D01*
X104562482Y-119122110D01*
X104537048Y-119114642D01*
X104471328Y-119087420D01*
X104471323Y-119087419D01*
X104471322Y-119087418D01*
X104335995Y-119060500D01*
X104335993Y-119060500D01*
X104198007Y-119060500D01*
X104198005Y-119060500D01*
X104062677Y-119087418D01*
X104062667Y-119087421D01*
X103935195Y-119140221D01*
X103935182Y-119140228D01*
X103820458Y-119216885D01*
X103820454Y-119216888D01*
X103722888Y-119314454D01*
X103722885Y-119314458D01*
X103646228Y-119429182D01*
X103646221Y-119429195D01*
X103593421Y-119556667D01*
X103593418Y-119556677D01*
X103566500Y-119692004D01*
X103566500Y-119692007D01*
X103566500Y-119829993D01*
X103566500Y-119829995D01*
X103566499Y-119829995D01*
X93283500Y-119829995D01*
X93283500Y-119819004D01*
X93283499Y-119819002D01*
X93261839Y-119710106D01*
X93256581Y-119683676D01*
X93256578Y-119683667D01*
X93203778Y-119556195D01*
X93203771Y-119556182D01*
X93127114Y-119441458D01*
X93127111Y-119441454D01*
X93029545Y-119343888D01*
X93029541Y-119343885D01*
X92914817Y-119267228D01*
X92914804Y-119267221D01*
X92787332Y-119214421D01*
X92787322Y-119214418D01*
X92651995Y-119187500D01*
X92651993Y-119187500D01*
X92514007Y-119187500D01*
X92514005Y-119187500D01*
X92378677Y-119214418D01*
X92378667Y-119214421D01*
X92251195Y-119267221D01*
X92251182Y-119267228D01*
X92136458Y-119343885D01*
X92136454Y-119343888D01*
X92038888Y-119441454D01*
X92038885Y-119441458D01*
X91962228Y-119556182D01*
X91962221Y-119556195D01*
X91909421Y-119683667D01*
X91909418Y-119683677D01*
X91882500Y-119819004D01*
X91882500Y-119819007D01*
X91882500Y-119956993D01*
X91882500Y-119956995D01*
X91882499Y-119956995D01*
X90899856Y-119956995D01*
X90948546Y-119920546D01*
X91034796Y-119805331D01*
X91085091Y-119670483D01*
X91091500Y-119610873D01*
X91091499Y-118165128D01*
X91085091Y-118105517D01*
X91081457Y-118095775D01*
X91034797Y-117970671D01*
X91034793Y-117970664D01*
X90948547Y-117855455D01*
X90948544Y-117855452D01*
X90833335Y-117769206D01*
X90833328Y-117769202D01*
X90698482Y-117718908D01*
X90698483Y-117718908D01*
X90638883Y-117712501D01*
X90638881Y-117712500D01*
X90638873Y-117712500D01*
X90638864Y-117712500D01*
X89193129Y-117712500D01*
X89193123Y-117712501D01*
X89133516Y-117718908D01*
X88998671Y-117769202D01*
X88998664Y-117769206D01*
X88883455Y-117855452D01*
X88870730Y-117872450D01*
X88870727Y-117872454D01*
X88797204Y-117970669D01*
X88769007Y-118046268D01*
X88769000Y-118046281D01*
X88746909Y-118105514D01*
X88746908Y-118105516D01*
X88741139Y-118159182D01*
X88740501Y-118165123D01*
X88740500Y-118165135D01*
X88184365Y-118165135D01*
X88209772Y-118151262D01*
X88209495Y-118150349D01*
X88213883Y-118149017D01*
X88214260Y-118148812D01*
X88215222Y-118148611D01*
X88215317Y-118148582D01*
X88215328Y-118148580D01*
X88342811Y-118095775D01*
X88457542Y-118019114D01*
X88555114Y-117921542D01*
X88631775Y-117806811D01*
X88684580Y-117679328D01*
X88711500Y-117543993D01*
X88711500Y-117406007D01*
X88711500Y-117406004D01*
X88684581Y-117270677D01*
X88684580Y-117270676D01*
X88684580Y-117270672D01*
X88672457Y-117241405D01*
X88631778Y-117143195D01*
X88631771Y-117143182D01*
X88555114Y-117028458D01*
X88555111Y-117028454D01*
X88457545Y-116930888D01*
X88457541Y-116930885D01*
X88342817Y-116854228D01*
X88342804Y-116854221D01*
X88215332Y-116801421D01*
X88215322Y-116801418D01*
X88079995Y-116774500D01*
X88079993Y-116774500D01*
X87942007Y-116774500D01*
X87942005Y-116774500D01*
X87806677Y-116801418D01*
X87806667Y-116801421D01*
X87679195Y-116854221D01*
X87679182Y-116854228D01*
X87564458Y-116930885D01*
X87564454Y-116930888D01*
X87466888Y-117028454D01*
X87466885Y-117028458D01*
X87390228Y-117143182D01*
X87390221Y-117143195D01*
X87337421Y-117270667D01*
X87335653Y-117276498D01*
X87334242Y-117276070D01*
X87328872Y-117286331D01*
X87324855Y-117304803D01*
X87306092Y-117329865D01*
X87305242Y-117331492D01*
X87303704Y-117333057D01*
X87163584Y-117473180D01*
X87102261Y-117506666D01*
X87075902Y-117509500D01*
X85293985Y-117509500D01*
X85226946Y-117489815D01*
X85181191Y-117437011D01*
X85171247Y-117367853D01*
X85190884Y-117316608D01*
X85202770Y-117298819D01*
X85202771Y-117298816D01*
X85202775Y-117298811D01*
X85202974Y-117298332D01*
X85255578Y-117171332D01*
X85255580Y-117171328D01*
X85276526Y-117066026D01*
X85282500Y-117035995D01*
X85282500Y-116898004D01*
X85255581Y-116762677D01*
X85255580Y-116762676D01*
X85255580Y-116762672D01*
X85249958Y-116749099D01*
X85202778Y-116635195D01*
X85202771Y-116635182D01*
X85126114Y-116520458D01*
X85126111Y-116520454D01*
X85028545Y-116422888D01*
X85028541Y-116422885D01*
X84995781Y-116400995D01*
X96962499Y-116400995D01*
X96989418Y-116536322D01*
X96989421Y-116536332D01*
X97042221Y-116663804D01*
X97042228Y-116663817D01*
X97118885Y-116778541D01*
X97118888Y-116778545D01*
X97216454Y-116876111D01*
X97216458Y-116876114D01*
X97331182Y-116952771D01*
X97331195Y-116952778D01*
X97405431Y-116983527D01*
X97458672Y-117005580D01*
X97458676Y-117005580D01*
X97458677Y-117005581D01*
X97594004Y-117032500D01*
X97594007Y-117032500D01*
X97731995Y-117032500D01*
X97852472Y-117008535D01*
X97867328Y-117005580D01*
X97965924Y-116964740D01*
X97994804Y-116952778D01*
X97994804Y-116952777D01*
X97994811Y-116952775D01*
X98109542Y-116876114D01*
X98207114Y-116778542D01*
X98283775Y-116663811D01*
X98336580Y-116536328D01*
X98346276Y-116487583D01*
X98363500Y-116400995D01*
X98363500Y-116263004D01*
X98336581Y-116127677D01*
X98336580Y-116127676D01*
X98336580Y-116127672D01*
X98311874Y-116068026D01*
X98283778Y-116000195D01*
X98283771Y-116000182D01*
X98207114Y-115885458D01*
X98207111Y-115885454D01*
X98109545Y-115787888D01*
X98109541Y-115787885D01*
X97994817Y-115711228D01*
X97994804Y-115711221D01*
X97867332Y-115658421D01*
X97867322Y-115658418D01*
X97731995Y-115631500D01*
X97731993Y-115631500D01*
X97594007Y-115631500D01*
X97594005Y-115631500D01*
X97458677Y-115658418D01*
X97458667Y-115658421D01*
X97331195Y-115711221D01*
X97331182Y-115711228D01*
X97216458Y-115787885D01*
X97216454Y-115787888D01*
X97118888Y-115885454D01*
X97118885Y-115885458D01*
X97042228Y-116000182D01*
X97042221Y-116000195D01*
X96989421Y-116127667D01*
X96989418Y-116127677D01*
X96962500Y-116263004D01*
X96962500Y-116263007D01*
X96962500Y-116400993D01*
X96962500Y-116400995D01*
X96962499Y-116400995D01*
X84995781Y-116400995D01*
X84943353Y-116365963D01*
X84943346Y-116365960D01*
X84913811Y-116346225D01*
X84786328Y-116293420D01*
X84773966Y-116290961D01*
X84761412Y-116285402D01*
X84744793Y-116271334D01*
X84725502Y-116261240D01*
X84723936Y-116259701D01*
X84518757Y-116054522D01*
X84485272Y-115993199D01*
X84488507Y-115928523D01*
X84502246Y-115886243D01*
X84535500Y-115676287D01*
X84535500Y-115463713D01*
X84502246Y-115253757D01*
X84436557Y-115051588D01*
X84340051Y-114862184D01*
X84340049Y-114862181D01*
X84340048Y-114862179D01*
X84215109Y-114690213D01*
X84064786Y-114539890D01*
X83892817Y-114414949D01*
X83883504Y-114410204D01*
X83832707Y-114362230D01*
X83815912Y-114294409D01*
X83838449Y-114228274D01*
X83883507Y-114189232D01*
X83892555Y-114184622D01*
X83946716Y-114145270D01*
X83946717Y-114145270D01*
X83916442Y-114114995D01*
X96962499Y-114114995D01*
X96989418Y-114250322D01*
X96989421Y-114250332D01*
X97042221Y-114377804D01*
X97042228Y-114377817D01*
X97118885Y-114492541D01*
X97118888Y-114492545D01*
X97216454Y-114590111D01*
X97216458Y-114590114D01*
X97331182Y-114666771D01*
X97331195Y-114666778D01*
X97458667Y-114719578D01*
X97458672Y-114719580D01*
X97458676Y-114719580D01*
X97458677Y-114719581D01*
X97594004Y-114746500D01*
X97594007Y-114746500D01*
X97731995Y-114746500D01*
X97823041Y-114728389D01*
X97867328Y-114719580D01*
X97994811Y-114666775D01*
X98109542Y-114590114D01*
X98207114Y-114492542D01*
X98283775Y-114377811D01*
X98336580Y-114250328D01*
X98345389Y-114206041D01*
X98363500Y-114114995D01*
X98363500Y-113977004D01*
X98336581Y-113841677D01*
X98336580Y-113841676D01*
X98336580Y-113841672D01*
X98331985Y-113830578D01*
X98283778Y-113714195D01*
X98283771Y-113714182D01*
X98207114Y-113599458D01*
X98207111Y-113599454D01*
X98109545Y-113501888D01*
X98109541Y-113501885D01*
X97994817Y-113425228D01*
X97994804Y-113425221D01*
X97867332Y-113372421D01*
X97867322Y-113372418D01*
X97731995Y-113345500D01*
X97731993Y-113345500D01*
X97594007Y-113345500D01*
X97594005Y-113345500D01*
X97458677Y-113372418D01*
X97458667Y-113372421D01*
X97331195Y-113425221D01*
X97331182Y-113425228D01*
X97216458Y-113501885D01*
X97216454Y-113501888D01*
X97118888Y-113599454D01*
X97118885Y-113599458D01*
X97042228Y-113714182D01*
X97042221Y-113714195D01*
X96989421Y-113841667D01*
X96989418Y-113841677D01*
X96962500Y-113977004D01*
X96962500Y-113977007D01*
X96962500Y-114114993D01*
X96962500Y-114114995D01*
X96962499Y-114114995D01*
X83916442Y-114114995D01*
X83185000Y-113383554D01*
X82423282Y-114145269D01*
X82423282Y-114145270D01*
X82477452Y-114184626D01*
X82477451Y-114184626D01*
X82486495Y-114189234D01*
X82537292Y-114237208D01*
X82554087Y-114305029D01*
X82531550Y-114371164D01*
X82486499Y-114410202D01*
X82477182Y-114414949D01*
X82305213Y-114539890D01*
X82154890Y-114690213D01*
X82029951Y-114862179D01*
X81933444Y-115051585D01*
X81867753Y-115253760D01*
X81834500Y-115463713D01*
X81545500Y-115463713D01*
X81545500Y-112923753D01*
X81835000Y-112923753D01*
X81835000Y-113136246D01*
X81868242Y-113346127D01*
X81868242Y-113346130D01*
X81933904Y-113548217D01*
X82030375Y-113737550D01*
X82069728Y-113791716D01*
X82831446Y-113030000D01*
X82831445Y-113029999D01*
X83538554Y-113029999D01*
X83538554Y-113030001D01*
X84300270Y-113791717D01*
X84300270Y-113791716D01*
X84339622Y-113737554D01*
X84436095Y-113548217D01*
X84501757Y-113346130D01*
X84501757Y-113346127D01*
X84520785Y-113225995D01*
X94549499Y-113225995D01*
X94576418Y-113361322D01*
X94576421Y-113361332D01*
X94629221Y-113488804D01*
X94629228Y-113488817D01*
X94705885Y-113603541D01*
X94705888Y-113603545D01*
X94803454Y-113701111D01*
X94803458Y-113701114D01*
X94918182Y-113777771D01*
X94918195Y-113777778D01*
X95045667Y-113830578D01*
X95045672Y-113830580D01*
X95045676Y-113830580D01*
X95045677Y-113830581D01*
X95181004Y-113857500D01*
X95181007Y-113857500D01*
X95318995Y-113857500D01*
X95360229Y-113849298D01*
X95360229Y-113849297D01*
X95454328Y-113830580D01*
X95559895Y-113786853D01*
X95581804Y-113777778D01*
X95581804Y-113777777D01*
X95581811Y-113777775D01*
X95696542Y-113701114D01*
X95794114Y-113603542D01*
X95870775Y-113488811D01*
X95870974Y-113488332D01*
X95913993Y-113384472D01*
X95923580Y-113361328D01*
X95940009Y-113278735D01*
X95950500Y-113225995D01*
X95950500Y-113088004D01*
X95929438Y-112982124D01*
X95923580Y-112952672D01*
X95914842Y-112931577D01*
X106318500Y-112931577D01*
X106318500Y-116684422D01*
X106349290Y-116878826D01*
X106410117Y-117066030D01*
X106464016Y-117171811D01*
X106499476Y-117241405D01*
X106615172Y-117400646D01*
X115644355Y-126429829D01*
X115803595Y-126545524D01*
X115862238Y-126575404D01*
X115978970Y-126634882D01*
X115978972Y-126634882D01*
X115978975Y-126634884D01*
X116079317Y-126667487D01*
X116166173Y-126695709D01*
X116360579Y-126726500D01*
X116360584Y-126726500D01*
X116557422Y-126726500D01*
X116751827Y-126695709D01*
X116788257Y-126683872D01*
X116939026Y-126634884D01*
X117114406Y-126545524D01*
X117273646Y-126429829D01*
X117412829Y-126290646D01*
X117528524Y-126131406D01*
X117543438Y-126102135D01*
X118659500Y-126102135D01*
X118659500Y-127897870D01*
X118659501Y-127897876D01*
X118665908Y-127957483D01*
X118716202Y-128092328D01*
X118716206Y-128092335D01*
X118802452Y-128207544D01*
X118802455Y-128207547D01*
X118917664Y-128293793D01*
X118917671Y-128293797D01*
X119052517Y-128344091D01*
X119052516Y-128344091D01*
X119059444Y-128344835D01*
X119112127Y-128350500D01*
X120907872Y-128350499D01*
X120967483Y-128344091D01*
X121102331Y-128293796D01*
X121217546Y-128207546D01*
X121286625Y-128115269D01*
X121788282Y-128115269D01*
X121788282Y-128115270D01*
X121842449Y-128154624D01*
X122031782Y-128251095D01*
X122233870Y-128316757D01*
X122443754Y-128350000D01*
X122656246Y-128350000D01*
X122866127Y-128316757D01*
X122866130Y-128316757D01*
X123068217Y-128251095D01*
X123257554Y-128154622D01*
X123311716Y-128115270D01*
X123311717Y-128115270D01*
X122550000Y-127353554D01*
X121788282Y-128115269D01*
X121286625Y-128115269D01*
X121303796Y-128092331D01*
X121354091Y-127957483D01*
X121360500Y-127897873D01*
X121360499Y-127873979D01*
X121363330Y-127860963D01*
X121373940Y-127841525D01*
X121380179Y-127820275D01*
X121396803Y-127799643D01*
X121396808Y-127799636D01*
X121396811Y-127799634D01*
X121396818Y-127799626D01*
X122196446Y-127000000D01*
X122196445Y-126999999D01*
X122903554Y-126999999D01*
X122903554Y-127000001D01*
X123665270Y-127761717D01*
X123665270Y-127761716D01*
X123704622Y-127707554D01*
X123801095Y-127518217D01*
X123866757Y-127316130D01*
X123866757Y-127316127D01*
X123900000Y-127106246D01*
X123900000Y-126893753D01*
X123866757Y-126683872D01*
X123866757Y-126683869D01*
X123801095Y-126481782D01*
X123704624Y-126292449D01*
X123665270Y-126238282D01*
X123665269Y-126238282D01*
X122903554Y-126999999D01*
X122196445Y-126999999D01*
X121396818Y-126200372D01*
X121363333Y-126139049D01*
X121363330Y-126139036D01*
X121360499Y-126126015D01*
X121360499Y-126102128D01*
X121354091Y-126042517D01*
X121324457Y-125963063D01*
X121303798Y-125907673D01*
X121303793Y-125907664D01*
X121286622Y-125884727D01*
X121788282Y-125884727D01*
X121788282Y-125884728D01*
X122550000Y-126646446D01*
X122550001Y-126646446D01*
X123311716Y-125884728D01*
X123257550Y-125845375D01*
X123068217Y-125748904D01*
X122866129Y-125683242D01*
X122656246Y-125650000D01*
X122443754Y-125650000D01*
X122233872Y-125683242D01*
X122233869Y-125683242D01*
X122031782Y-125748904D01*
X121842439Y-125845380D01*
X121788282Y-125884727D01*
X121286622Y-125884727D01*
X121217547Y-125792455D01*
X121217544Y-125792452D01*
X121102335Y-125706206D01*
X121102328Y-125706202D01*
X120967482Y-125655908D01*
X120967483Y-125655908D01*
X120907883Y-125649501D01*
X120907881Y-125649500D01*
X120907873Y-125649500D01*
X120907864Y-125649500D01*
X119112129Y-125649500D01*
X119112123Y-125649501D01*
X119052516Y-125655908D01*
X118917671Y-125706202D01*
X118917664Y-125706206D01*
X118802455Y-125792452D01*
X118802452Y-125792455D01*
X118716206Y-125907664D01*
X118716202Y-125907671D01*
X118665908Y-126042517D01*
X118659501Y-126102116D01*
X118659500Y-126102135D01*
X117543438Y-126102135D01*
X117598668Y-125993739D01*
X117617882Y-125956030D01*
X117617882Y-125956029D01*
X117617884Y-125956026D01*
X117678709Y-125768827D01*
X117681092Y-125753782D01*
X117709500Y-125574422D01*
X117709500Y-125377578D01*
X117678709Y-125183173D01*
X117617882Y-124995970D01*
X117528523Y-124820594D01*
X117412829Y-124661355D01*
X116391469Y-123639995D01*
X117028499Y-123639995D01*
X117055418Y-123775322D01*
X117055421Y-123775332D01*
X117108221Y-123902804D01*
X117108228Y-123902817D01*
X117184885Y-124017541D01*
X117184888Y-124017545D01*
X117282454Y-124115111D01*
X117282458Y-124115114D01*
X117397182Y-124191771D01*
X117397195Y-124191778D01*
X117524667Y-124244578D01*
X117524672Y-124244580D01*
X117524676Y-124244580D01*
X117524677Y-124244581D01*
X117660004Y-124271500D01*
X117660007Y-124271500D01*
X117797995Y-124271500D01*
X117889041Y-124253389D01*
X117933328Y-124244580D01*
X117999047Y-124217357D01*
X118068515Y-124209888D01*
X118093951Y-124217357D01*
X118121556Y-124228791D01*
X118159666Y-124244578D01*
X118159669Y-124244578D01*
X118159672Y-124244580D01*
X118159676Y-124244580D01*
X118159677Y-124244581D01*
X118295004Y-124271500D01*
X118295007Y-124271500D01*
X118432995Y-124271500D01*
X118524041Y-124253389D01*
X118568328Y-124244580D01*
X118675343Y-124200253D01*
X118695804Y-124191778D01*
X118695804Y-124191777D01*
X118695811Y-124191775D01*
X118810542Y-124115114D01*
X118908114Y-124017542D01*
X118984775Y-123902811D01*
X119037580Y-123775328D01*
X119062746Y-123648811D01*
X119064500Y-123639995D01*
X119064500Y-123502004D01*
X119040009Y-123378884D01*
X119040009Y-123378883D01*
X119040008Y-123378880D01*
X119037580Y-123366674D01*
X119037580Y-123366672D01*
X119034057Y-123358166D01*
X124474500Y-123358166D01*
X124474500Y-123641833D01*
X124506258Y-123923690D01*
X124506260Y-123923702D01*
X124569380Y-124200253D01*
X124569383Y-124200261D01*
X124663067Y-124467993D01*
X124786139Y-124723554D01*
X124786141Y-124723557D01*
X124937056Y-124963737D01*
X125113914Y-125185510D01*
X125314490Y-125386086D01*
X125536263Y-125562944D01*
X125776443Y-125713859D01*
X126032010Y-125836934D01*
X126168598Y-125884728D01*
X126299738Y-125930616D01*
X126299746Y-125930619D01*
X126299749Y-125930619D01*
X126299750Y-125930620D01*
X126576297Y-125993740D01*
X126858166Y-126025499D01*
X126858167Y-126025500D01*
X126858171Y-126025500D01*
X127141833Y-126025500D01*
X127141833Y-126025499D01*
X127423703Y-125993740D01*
X127700250Y-125930620D01*
X127967990Y-125836934D01*
X128223557Y-125713859D01*
X128463737Y-125562944D01*
X128685510Y-125386086D01*
X128886086Y-125185510D01*
X129062944Y-124963737D01*
X129213859Y-124723557D01*
X129336934Y-124467990D01*
X129430620Y-124200250D01*
X129493740Y-123923703D01*
X129525500Y-123641829D01*
X129525500Y-123358171D01*
X129493740Y-123076297D01*
X129430620Y-122799750D01*
X129336934Y-122532010D01*
X129213859Y-122276443D01*
X129062944Y-122036263D01*
X128886086Y-121814490D01*
X128685510Y-121613914D01*
X128678085Y-121607993D01*
X128629187Y-121568998D01*
X128463737Y-121437056D01*
X128223557Y-121286141D01*
X128223554Y-121286139D01*
X127967993Y-121163067D01*
X127700261Y-121069383D01*
X127700253Y-121069380D01*
X127469772Y-121016775D01*
X127423703Y-121006260D01*
X127423699Y-121006259D01*
X127423690Y-121006258D01*
X127141833Y-120974500D01*
X127141829Y-120974500D01*
X126858171Y-120974500D01*
X126858167Y-120974500D01*
X126576309Y-121006258D01*
X126576297Y-121006260D01*
X126299746Y-121069380D01*
X126299738Y-121069383D01*
X126032006Y-121163067D01*
X125776445Y-121286139D01*
X125536264Y-121437055D01*
X125314490Y-121613913D01*
X125113913Y-121814490D01*
X124937055Y-122036264D01*
X124786139Y-122276445D01*
X124663067Y-122532006D01*
X124569383Y-122799738D01*
X124569380Y-122799746D01*
X124506260Y-123076297D01*
X124506258Y-123076309D01*
X124474500Y-123358166D01*
X119034057Y-123358166D01*
X118984778Y-123239195D01*
X118984771Y-123239182D01*
X118908114Y-123124458D01*
X118908111Y-123124454D01*
X118810545Y-123026888D01*
X118810541Y-123026885D01*
X118695817Y-122950228D01*
X118695804Y-122950221D01*
X118568332Y-122897421D01*
X118568322Y-122897418D01*
X118432995Y-122870500D01*
X118432993Y-122870500D01*
X118295007Y-122870500D01*
X118295005Y-122870500D01*
X118159677Y-122897418D01*
X118159676Y-122897419D01*
X118159675Y-122897419D01*
X118159672Y-122897420D01*
X118093952Y-122924642D01*
X118024482Y-122932110D01*
X117999048Y-122924642D01*
X117933328Y-122897420D01*
X117933323Y-122897419D01*
X117933322Y-122897418D01*
X117797995Y-122870500D01*
X117797993Y-122870500D01*
X117660007Y-122870500D01*
X117660005Y-122870500D01*
X117524677Y-122897418D01*
X117524667Y-122897421D01*
X117397195Y-122950221D01*
X117397182Y-122950228D01*
X117282458Y-123026885D01*
X117282454Y-123026888D01*
X117184888Y-123124454D01*
X117184885Y-123124458D01*
X117108228Y-123239182D01*
X117108221Y-123239195D01*
X117055421Y-123366667D01*
X117055418Y-123366677D01*
X117028500Y-123502004D01*
X117028500Y-123502007D01*
X117028500Y-123639993D01*
X117028500Y-123639995D01*
X117028499Y-123639995D01*
X116391469Y-123639995D01*
X113820469Y-121068995D01*
X119299499Y-121068995D01*
X119326418Y-121204322D01*
X119326421Y-121204332D01*
X119379221Y-121331804D01*
X119379228Y-121331817D01*
X119455885Y-121446541D01*
X119455888Y-121446545D01*
X119553454Y-121544111D01*
X119553458Y-121544114D01*
X119668182Y-121620771D01*
X119668195Y-121620778D01*
X119795667Y-121673578D01*
X119795672Y-121673580D01*
X119795676Y-121673580D01*
X119795677Y-121673581D01*
X119931004Y-121700500D01*
X119931007Y-121700500D01*
X120068995Y-121700500D01*
X120160041Y-121682389D01*
X120204328Y-121673580D01*
X120331811Y-121620775D01*
X120446542Y-121544114D01*
X120544114Y-121446542D01*
X120620775Y-121331811D01*
X120673580Y-121204328D01*
X120692677Y-121108322D01*
X120700500Y-121068995D01*
X120700500Y-120981495D01*
X121799499Y-120981495D01*
X121826418Y-121116822D01*
X121826421Y-121116832D01*
X121879221Y-121244304D01*
X121879228Y-121244317D01*
X121955885Y-121359041D01*
X121955888Y-121359045D01*
X122053454Y-121456611D01*
X122053458Y-121456614D01*
X122168182Y-121533271D01*
X122168195Y-121533278D01*
X122295667Y-121586078D01*
X122295672Y-121586080D01*
X122295676Y-121586080D01*
X122295677Y-121586081D01*
X122431004Y-121613000D01*
X122431007Y-121613000D01*
X122568995Y-121613000D01*
X122660041Y-121594889D01*
X122704328Y-121586080D01*
X122805643Y-121544114D01*
X122831804Y-121533278D01*
X122831804Y-121533277D01*
X122831811Y-121533275D01*
X122946542Y-121456614D01*
X123044114Y-121359042D01*
X123120775Y-121244311D01*
X123121104Y-121243518D01*
X123149879Y-121174048D01*
X123173580Y-121116828D01*
X123192303Y-121022702D01*
X123200500Y-120981495D01*
X123200500Y-120843504D01*
X123173581Y-120708177D01*
X123173580Y-120708176D01*
X123173580Y-120708172D01*
X123146334Y-120642394D01*
X123120778Y-120580695D01*
X123120771Y-120580682D01*
X123044114Y-120465958D01*
X123044111Y-120465954D01*
X122946545Y-120368388D01*
X122946541Y-120368385D01*
X122831817Y-120291728D01*
X122831804Y-120291721D01*
X122704332Y-120238921D01*
X122704322Y-120238918D01*
X122568995Y-120212000D01*
X122568993Y-120212000D01*
X122431007Y-120212000D01*
X122431005Y-120212000D01*
X122295677Y-120238918D01*
X122295667Y-120238921D01*
X122168195Y-120291721D01*
X122168182Y-120291728D01*
X122053458Y-120368385D01*
X122053454Y-120368388D01*
X121955888Y-120465954D01*
X121955885Y-120465958D01*
X121879228Y-120580682D01*
X121879221Y-120580695D01*
X121826421Y-120708167D01*
X121826418Y-120708177D01*
X121799500Y-120843504D01*
X121799500Y-120843507D01*
X121799500Y-120981493D01*
X121799500Y-120981495D01*
X121799499Y-120981495D01*
X120700500Y-120981495D01*
X120700500Y-120931004D01*
X120700499Y-120931002D01*
X120686696Y-120861606D01*
X120673581Y-120795677D01*
X120673580Y-120795676D01*
X120673580Y-120795672D01*
X120645471Y-120727811D01*
X120620778Y-120668195D01*
X120620771Y-120668182D01*
X120544114Y-120553458D01*
X120544111Y-120553454D01*
X120446545Y-120455888D01*
X120446541Y-120455885D01*
X120331817Y-120379228D01*
X120331804Y-120379221D01*
X120204332Y-120326421D01*
X120204322Y-120326418D01*
X120068995Y-120299500D01*
X120068993Y-120299500D01*
X119931007Y-120299500D01*
X119931005Y-120299500D01*
X119795677Y-120326418D01*
X119795667Y-120326421D01*
X119668195Y-120379221D01*
X119668182Y-120379228D01*
X119553458Y-120455885D01*
X119553454Y-120455888D01*
X119455888Y-120553454D01*
X119455885Y-120553458D01*
X119379228Y-120668182D01*
X119379221Y-120668195D01*
X119326421Y-120795667D01*
X119326418Y-120795677D01*
X119299500Y-120931004D01*
X119299500Y-120931007D01*
X119299500Y-121068993D01*
X119299500Y-121068995D01*
X119299499Y-121068995D01*
X113820469Y-121068995D01*
X111311469Y-118559995D01*
X112202499Y-118559995D01*
X112229418Y-118695322D01*
X112229421Y-118695332D01*
X112282221Y-118822804D01*
X112282228Y-118822817D01*
X112358885Y-118937541D01*
X112358888Y-118937545D01*
X112456454Y-119035111D01*
X112456458Y-119035114D01*
X112571182Y-119111771D01*
X112571195Y-119111778D01*
X112698667Y-119164578D01*
X112698672Y-119164580D01*
X112698676Y-119164580D01*
X112698677Y-119164581D01*
X112834004Y-119191500D01*
X112834007Y-119191500D01*
X112971995Y-119191500D01*
X113063041Y-119173389D01*
X113107328Y-119164580D01*
X113209860Y-119122110D01*
X113234804Y-119111778D01*
X113234804Y-119111777D01*
X113234811Y-119111775D01*
X113349542Y-119035114D01*
X113447114Y-118937542D01*
X113523775Y-118822811D01*
X113576580Y-118695328D01*
X113603500Y-118559993D01*
X113603500Y-118422007D01*
X113603500Y-118422004D01*
X113576581Y-118286677D01*
X113576580Y-118286676D01*
X113576580Y-118286672D01*
X113547426Y-118216287D01*
X113523778Y-118159195D01*
X113523771Y-118159182D01*
X113447114Y-118044458D01*
X113447111Y-118044454D01*
X113349545Y-117946888D01*
X113349541Y-117946885D01*
X113234817Y-117870228D01*
X113234804Y-117870221D01*
X113107332Y-117817421D01*
X113107322Y-117817418D01*
X112971995Y-117790500D01*
X112971993Y-117790500D01*
X112834007Y-117790500D01*
X112834005Y-117790500D01*
X112698677Y-117817418D01*
X112698667Y-117817421D01*
X112571195Y-117870221D01*
X112571182Y-117870228D01*
X112456458Y-117946885D01*
X112456454Y-117946888D01*
X112358888Y-118044454D01*
X112358885Y-118044458D01*
X112282228Y-118159182D01*
X112282221Y-118159195D01*
X112229421Y-118286667D01*
X112229418Y-118286677D01*
X112202500Y-118422004D01*
X112202500Y-118422007D01*
X112202500Y-118559993D01*
X112202500Y-118559995D01*
X112202499Y-118559995D01*
X111311469Y-118559995D01*
X109258969Y-116507495D01*
X113121099Y-116507495D01*
X113148018Y-116642822D01*
X113148021Y-116642832D01*
X113200821Y-116770304D01*
X113200828Y-116770317D01*
X113277485Y-116885041D01*
X113277488Y-116885045D01*
X113375054Y-116982611D01*
X113375058Y-116982614D01*
X113489782Y-117059271D01*
X113489795Y-117059278D01*
X113617267Y-117112078D01*
X113617272Y-117112080D01*
X113617276Y-117112080D01*
X113617277Y-117112081D01*
X113752604Y-117139000D01*
X113752607Y-117139000D01*
X113890595Y-117139000D01*
X113981641Y-117120889D01*
X114025928Y-117112080D01*
X114153411Y-117059275D01*
X114268142Y-116982614D01*
X114365714Y-116885042D01*
X114442375Y-116770311D01*
X114495180Y-116642828D01*
X114513667Y-116549888D01*
X114522100Y-116507495D01*
X114522100Y-116369504D01*
X114495181Y-116234177D01*
X114495180Y-116234176D01*
X114495180Y-116234172D01*
X114488987Y-116219221D01*
X114442378Y-116106695D01*
X114442371Y-116106682D01*
X114365714Y-115991958D01*
X114365711Y-115991954D01*
X114268145Y-115894388D01*
X114268141Y-115894385D01*
X114153417Y-115817728D01*
X114153404Y-115817721D01*
X114025932Y-115764921D01*
X114025922Y-115764918D01*
X113890595Y-115738000D01*
X113890593Y-115738000D01*
X113752607Y-115738000D01*
X113752605Y-115738000D01*
X113617277Y-115764918D01*
X113617267Y-115764921D01*
X113489795Y-115817721D01*
X113489782Y-115817728D01*
X113375058Y-115894385D01*
X113375054Y-115894388D01*
X113277488Y-115991954D01*
X113277485Y-115991958D01*
X113200828Y-116106682D01*
X113200821Y-116106695D01*
X113148021Y-116234167D01*
X113148018Y-116234177D01*
X113121100Y-116369504D01*
X113121100Y-116369507D01*
X113121100Y-116507493D01*
X113121100Y-116507495D01*
X113121099Y-116507495D01*
X109258969Y-116507495D01*
X108855819Y-116104345D01*
X108822334Y-116043022D01*
X108819500Y-116016664D01*
X108819500Y-112931577D01*
X108807830Y-112857898D01*
X108816784Y-112788605D01*
X108861780Y-112735153D01*
X108928532Y-112714513D01*
X108930303Y-112714500D01*
X109034995Y-112714500D01*
X109126041Y-112696389D01*
X109170328Y-112687580D01*
X109297811Y-112634775D01*
X109412542Y-112558114D01*
X109510114Y-112460542D01*
X109586775Y-112345811D01*
X109639580Y-112218328D01*
X109648389Y-112174041D01*
X109666500Y-112082995D01*
X109666500Y-111945004D01*
X109639581Y-111809677D01*
X109639580Y-111809676D01*
X109639580Y-111809672D01*
X109628861Y-111783793D01*
X109586778Y-111682195D01*
X109586771Y-111682182D01*
X109510114Y-111567458D01*
X109506249Y-111562748D01*
X109508256Y-111561100D01*
X109480182Y-111509687D01*
X109485166Y-111439995D01*
X109527038Y-111384062D01*
X109592502Y-111359645D01*
X109625540Y-111361712D01*
X109722504Y-111381000D01*
X109722507Y-111381000D01*
X109860495Y-111381000D01*
X109951541Y-111362889D01*
X109995828Y-111354080D01*
X110123311Y-111301275D01*
X110238042Y-111224614D01*
X110335614Y-111127042D01*
X110412275Y-111012311D01*
X110465080Y-110884828D01*
X110483556Y-110791943D01*
X110492000Y-110749495D01*
X110492000Y-110611504D01*
X110465081Y-110476177D01*
X110465080Y-110476176D01*
X110465080Y-110476172D01*
X110455849Y-110453886D01*
X110412278Y-110348695D01*
X110412271Y-110348682D01*
X110335614Y-110233958D01*
X110335611Y-110233954D01*
X110238045Y-110136388D01*
X110238041Y-110136385D01*
X110123317Y-110059728D01*
X110123304Y-110059721D01*
X109995832Y-110006921D01*
X109995822Y-110006918D01*
X109860495Y-109980000D01*
X109860493Y-109980000D01*
X109722507Y-109980000D01*
X109722505Y-109980000D01*
X109587177Y-110006918D01*
X109587167Y-110006921D01*
X109459695Y-110059721D01*
X109459682Y-110059728D01*
X109344958Y-110136385D01*
X109344954Y-110136388D01*
X109247388Y-110233954D01*
X109247385Y-110233958D01*
X109170728Y-110348682D01*
X109170721Y-110348695D01*
X109117921Y-110476167D01*
X109117918Y-110476177D01*
X109091000Y-110611504D01*
X109091000Y-110611507D01*
X109091000Y-110749493D01*
X109091000Y-110749495D01*
X109090999Y-110749495D01*
X109117918Y-110884822D01*
X109117921Y-110884832D01*
X109170721Y-111012304D01*
X109170728Y-111012317D01*
X109247385Y-111127041D01*
X109251251Y-111131752D01*
X109249243Y-111133399D01*
X109277317Y-111184812D01*
X109272333Y-111254504D01*
X109230461Y-111310437D01*
X109164997Y-111334854D01*
X109131960Y-111332787D01*
X109034997Y-111313500D01*
X109034993Y-111313500D01*
X108897007Y-111313500D01*
X108897005Y-111313500D01*
X108761677Y-111340418D01*
X108761667Y-111340421D01*
X108634195Y-111393221D01*
X108634182Y-111393228D01*
X108519458Y-111469885D01*
X108519454Y-111469888D01*
X108421888Y-111567454D01*
X108421885Y-111567458D01*
X108345228Y-111682182D01*
X108345221Y-111682195D01*
X108292421Y-111809667D01*
X108292417Y-111809680D01*
X108290880Y-111817409D01*
X108258492Y-111879319D01*
X108197775Y-111913890D01*
X108128005Y-111910147D01*
X108112969Y-111903697D01*
X108049029Y-111871117D01*
X107861826Y-111810290D01*
X107667422Y-111779500D01*
X107667417Y-111779500D01*
X107470583Y-111779500D01*
X107470578Y-111779500D01*
X107276173Y-111810290D01*
X107088970Y-111871117D01*
X106913594Y-111960476D01*
X106822741Y-112026485D01*
X106754354Y-112076172D01*
X106754352Y-112076174D01*
X106754351Y-112076174D01*
X106615174Y-112215351D01*
X106615174Y-112215352D01*
X106615172Y-112215354D01*
X106612656Y-112218817D01*
X106499476Y-112374594D01*
X106410117Y-112549970D01*
X106349290Y-112737173D01*
X106318500Y-112931577D01*
X95914842Y-112931577D01*
X95870778Y-112825195D01*
X95870771Y-112825182D01*
X95794114Y-112710458D01*
X95794111Y-112710454D01*
X95696545Y-112612888D01*
X95696541Y-112612885D01*
X95581817Y-112536228D01*
X95581804Y-112536221D01*
X95454332Y-112483421D01*
X95454322Y-112483418D01*
X95318995Y-112456500D01*
X95318993Y-112456500D01*
X95181007Y-112456500D01*
X95181005Y-112456500D01*
X95045677Y-112483418D01*
X95045667Y-112483421D01*
X94918195Y-112536221D01*
X94918182Y-112536228D01*
X94803458Y-112612885D01*
X94803454Y-112612888D01*
X94705888Y-112710454D01*
X94705885Y-112710458D01*
X94629228Y-112825182D01*
X94629221Y-112825195D01*
X94576421Y-112952667D01*
X94576418Y-112952677D01*
X94549500Y-113088004D01*
X94549500Y-113088007D01*
X94549500Y-113225993D01*
X94549500Y-113225995D01*
X94549499Y-113225995D01*
X84520785Y-113225995D01*
X84535000Y-113136246D01*
X84535000Y-112923753D01*
X84501757Y-112713872D01*
X84501757Y-112713869D01*
X84436095Y-112511782D01*
X84339624Y-112322449D01*
X84300270Y-112268282D01*
X84300269Y-112268282D01*
X83538554Y-113029999D01*
X82831445Y-113029999D01*
X82069728Y-112268282D01*
X82069727Y-112268282D01*
X82030380Y-112322439D01*
X81933904Y-112511782D01*
X81868242Y-112713869D01*
X81868242Y-112713872D01*
X81835000Y-112923753D01*
X81545500Y-112923753D01*
X81545500Y-109592135D01*
X81834500Y-109592135D01*
X81834500Y-111387870D01*
X81834501Y-111387876D01*
X81840908Y-111447483D01*
X81891202Y-111582328D01*
X81891206Y-111582335D01*
X81977452Y-111697544D01*
X81977455Y-111697547D01*
X82092664Y-111783793D01*
X82092671Y-111783797D01*
X82137618Y-111800561D01*
X82227517Y-111834091D01*
X82287127Y-111840500D01*
X82297685Y-111840499D01*
X82364723Y-111860179D01*
X82385372Y-111876818D01*
X83185000Y-112676446D01*
X83185001Y-112676446D01*
X83984627Y-111876818D01*
X84045950Y-111843333D01*
X84072307Y-111840499D01*
X84082872Y-111840499D01*
X84142483Y-111834091D01*
X84277331Y-111783796D01*
X84392546Y-111697546D01*
X84478796Y-111582331D01*
X84529091Y-111447483D01*
X84535500Y-111387873D01*
X84535499Y-109592128D01*
X84529091Y-109532517D01*
X84486865Y-109419304D01*
X84478797Y-109397671D01*
X84478793Y-109397664D01*
X84392547Y-109282455D01*
X84392544Y-109282452D01*
X84277335Y-109196206D01*
X84277328Y-109196202D01*
X84142482Y-109145908D01*
X84142483Y-109145908D01*
X84082883Y-109139501D01*
X84082881Y-109139500D01*
X84082873Y-109139500D01*
X84082864Y-109139500D01*
X82287129Y-109139500D01*
X82287123Y-109139501D01*
X82227516Y-109145908D01*
X82092671Y-109196202D01*
X82092664Y-109196206D01*
X81977455Y-109282452D01*
X81977452Y-109282455D01*
X81891206Y-109397664D01*
X81891202Y-109397671D01*
X81840908Y-109532517D01*
X81834501Y-109592116D01*
X81834501Y-109592123D01*
X81834500Y-109592135D01*
X81545500Y-109592135D01*
X81545500Y-99068995D01*
X89711999Y-99068995D01*
X89738918Y-99204322D01*
X89738921Y-99204332D01*
X89791721Y-99331804D01*
X89791728Y-99331817D01*
X89868385Y-99446541D01*
X89868388Y-99446545D01*
X89965954Y-99544111D01*
X89965958Y-99544114D01*
X90080682Y-99620771D01*
X90080695Y-99620778D01*
X90208167Y-99673578D01*
X90208172Y-99673580D01*
X90208176Y-99673580D01*
X90208177Y-99673581D01*
X90343504Y-99700500D01*
X90343507Y-99700500D01*
X90481495Y-99700500D01*
X90582532Y-99680402D01*
X90616828Y-99673580D01*
X90744311Y-99620775D01*
X90859042Y-99544114D01*
X90956614Y-99446542D01*
X91033275Y-99331811D01*
X91086080Y-99204328D01*
X91094889Y-99160041D01*
X91113000Y-99068995D01*
X91113000Y-98931004D01*
X91086081Y-98795677D01*
X91086080Y-98795676D01*
X91086080Y-98795672D01*
X91069781Y-98756322D01*
X91033278Y-98668195D01*
X91033271Y-98668182D01*
X91001742Y-98620995D01*
X96467499Y-98620995D01*
X96494418Y-98756322D01*
X96494421Y-98756332D01*
X96547221Y-98883804D01*
X96547228Y-98883817D01*
X96623885Y-98998541D01*
X96623888Y-98998545D01*
X96721454Y-99096111D01*
X96721458Y-99096114D01*
X96836182Y-99172771D01*
X96836195Y-99172778D01*
X96963667Y-99225578D01*
X96963672Y-99225580D01*
X96963676Y-99225580D01*
X96963677Y-99225581D01*
X97099004Y-99252500D01*
X97099007Y-99252500D01*
X97236995Y-99252500D01*
X97328041Y-99234389D01*
X97372328Y-99225580D01*
X97499811Y-99172775D01*
X97614542Y-99096114D01*
X97712114Y-98998542D01*
X97788775Y-98883811D01*
X97841580Y-98756328D01*
X97859112Y-98668189D01*
X97868500Y-98620995D01*
X97868500Y-98483004D01*
X97841581Y-98347677D01*
X97841580Y-98347676D01*
X97841580Y-98347672D01*
X97832460Y-98325654D01*
X97788778Y-98220195D01*
X97788771Y-98220182D01*
X97712114Y-98105458D01*
X97712111Y-98105454D01*
X97614545Y-98007888D01*
X97614541Y-98007885D01*
X97499817Y-97931228D01*
X97499804Y-97931221D01*
X97372332Y-97878421D01*
X97372322Y-97878418D01*
X97236995Y-97851500D01*
X97236993Y-97851500D01*
X97099007Y-97851500D01*
X97099005Y-97851500D01*
X96963677Y-97878418D01*
X96963667Y-97878421D01*
X96836195Y-97931221D01*
X96836182Y-97931228D01*
X96721458Y-98007885D01*
X96721454Y-98007888D01*
X96623888Y-98105454D01*
X96623885Y-98105458D01*
X96547228Y-98220182D01*
X96547221Y-98220195D01*
X96494421Y-98347667D01*
X96494418Y-98347677D01*
X96467500Y-98483004D01*
X96467500Y-98483007D01*
X96467500Y-98620993D01*
X96467500Y-98620995D01*
X96467499Y-98620995D01*
X91001742Y-98620995D01*
X90956614Y-98553457D01*
X90859045Y-98455888D01*
X90859041Y-98455885D01*
X90744317Y-98379228D01*
X90744304Y-98379221D01*
X90616832Y-98326421D01*
X90616822Y-98326418D01*
X90481495Y-98299500D01*
X90481493Y-98299500D01*
X90343507Y-98299500D01*
X90343505Y-98299500D01*
X90208177Y-98326418D01*
X90208167Y-98326421D01*
X90080695Y-98379221D01*
X90080682Y-98379228D01*
X89965958Y-98455885D01*
X89965954Y-98455888D01*
X89868388Y-98553454D01*
X89868385Y-98553458D01*
X89791728Y-98668182D01*
X89791721Y-98668195D01*
X89738921Y-98795667D01*
X89738918Y-98795677D01*
X89712000Y-98931004D01*
X89712000Y-98931007D01*
X89712000Y-99068993D01*
X89712000Y-99068995D01*
X89711999Y-99068995D01*
X81545500Y-99068995D01*
X81545500Y-97858995D01*
X85278499Y-97858995D01*
X85305418Y-97994322D01*
X85305421Y-97994332D01*
X85358221Y-98121804D01*
X85358228Y-98121817D01*
X85434885Y-98236541D01*
X85434888Y-98236545D01*
X85532454Y-98334111D01*
X85532458Y-98334114D01*
X85647182Y-98410771D01*
X85647195Y-98410778D01*
X85774667Y-98463578D01*
X85774672Y-98463580D01*
X85774676Y-98463580D01*
X85774677Y-98463581D01*
X85910004Y-98490500D01*
X85910007Y-98490500D01*
X86047995Y-98490500D01*
X86171046Y-98466023D01*
X86183328Y-98463580D01*
X86310811Y-98410775D01*
X86425542Y-98334114D01*
X86523114Y-98236542D01*
X86599775Y-98121811D01*
X86652580Y-97994328D01*
X86661389Y-97950041D01*
X86679500Y-97858995D01*
X86679500Y-97721004D01*
X86652581Y-97585677D01*
X86652580Y-97585676D01*
X86652580Y-97585672D01*
X86635365Y-97544111D01*
X86599778Y-97458195D01*
X86599771Y-97458182D01*
X86523114Y-97343458D01*
X86523111Y-97343454D01*
X86425545Y-97245888D01*
X86425541Y-97245885D01*
X86310817Y-97169228D01*
X86310804Y-97169221D01*
X86183332Y-97116421D01*
X86183322Y-97116418D01*
X86047995Y-97089500D01*
X86047993Y-97089500D01*
X85910007Y-97089500D01*
X85910005Y-97089500D01*
X85774677Y-97116418D01*
X85774667Y-97116421D01*
X85647195Y-97169221D01*
X85647182Y-97169228D01*
X85532458Y-97245885D01*
X85532454Y-97245888D01*
X85434888Y-97343454D01*
X85434885Y-97343458D01*
X85358228Y-97458182D01*
X85358221Y-97458195D01*
X85305421Y-97585667D01*
X85305418Y-97585677D01*
X85278500Y-97721004D01*
X85278500Y-97721007D01*
X85278500Y-97858993D01*
X85278500Y-97858995D01*
X85278499Y-97858995D01*
X81545500Y-97858995D01*
X81545500Y-97068995D01*
X89711999Y-97068995D01*
X89738918Y-97204322D01*
X89738921Y-97204332D01*
X89791721Y-97331804D01*
X89791728Y-97331817D01*
X89868385Y-97446541D01*
X89868388Y-97446545D01*
X89965954Y-97544111D01*
X89965958Y-97544114D01*
X90080682Y-97620771D01*
X90080695Y-97620778D01*
X90204104Y-97671895D01*
X90208172Y-97673580D01*
X90208176Y-97673580D01*
X90208177Y-97673581D01*
X90343504Y-97700500D01*
X90343507Y-97700500D01*
X90481495Y-97700500D01*
X90572541Y-97682389D01*
X90616828Y-97673580D01*
X90744311Y-97620775D01*
X90859042Y-97544114D01*
X90956614Y-97446542D01*
X91033275Y-97331811D01*
X91086080Y-97204328D01*
X91113000Y-97068993D01*
X91113000Y-96931007D01*
X91113000Y-96931004D01*
X91112999Y-96930998D01*
X91086081Y-96795675D01*
X91086078Y-96795667D01*
X91033278Y-96668195D01*
X91033271Y-96668182D01*
X90956614Y-96553458D01*
X90956611Y-96553454D01*
X90859045Y-96455888D01*
X90859041Y-96455885D01*
X90744317Y-96379228D01*
X90744304Y-96379221D01*
X90616832Y-96326421D01*
X90616822Y-96326418D01*
X90481495Y-96299500D01*
X90481493Y-96299500D01*
X90343507Y-96299500D01*
X90343505Y-96299500D01*
X90208177Y-96326418D01*
X90208167Y-96326421D01*
X90080695Y-96379221D01*
X90080682Y-96379228D01*
X89965958Y-96455885D01*
X89965954Y-96455888D01*
X89868388Y-96553454D01*
X89868385Y-96553458D01*
X89791728Y-96668182D01*
X89791721Y-96668195D01*
X89738921Y-96795667D01*
X89738919Y-96795675D01*
X89712001Y-96930998D01*
X89712000Y-96931004D01*
X89712000Y-96931007D01*
X89712000Y-97068993D01*
X89712000Y-97068995D01*
X89711999Y-97068995D01*
X81545500Y-97068995D01*
X81545500Y-94429995D01*
X97851499Y-94429995D01*
X97878418Y-94565322D01*
X97878421Y-94565332D01*
X97931221Y-94692804D01*
X97931228Y-94692817D01*
X98007885Y-94807541D01*
X98007888Y-94807545D01*
X98105454Y-94905111D01*
X98105458Y-94905114D01*
X98220182Y-94981771D01*
X98220195Y-94981778D01*
X98347667Y-95034578D01*
X98347672Y-95034580D01*
X98347676Y-95034580D01*
X98347677Y-95034581D01*
X98483004Y-95061500D01*
X98483007Y-95061500D01*
X98620995Y-95061500D01*
X98712041Y-95043389D01*
X98756328Y-95034580D01*
X98880516Y-94983140D01*
X98883804Y-94981778D01*
X98883804Y-94981777D01*
X98883811Y-94981775D01*
X98998542Y-94905114D01*
X99096114Y-94807542D01*
X99172775Y-94692811D01*
X99225580Y-94565328D01*
X99234389Y-94521041D01*
X99252500Y-94429995D01*
X99252500Y-94292004D01*
X99225581Y-94156677D01*
X99225580Y-94156676D01*
X99225580Y-94156672D01*
X99201594Y-94098765D01*
X99172778Y-94029195D01*
X99172771Y-94029182D01*
X99096114Y-93914458D01*
X99096111Y-93914454D01*
X98998545Y-93816888D01*
X98998541Y-93816885D01*
X98883817Y-93740228D01*
X98883804Y-93740221D01*
X98756332Y-93687421D01*
X98756322Y-93687418D01*
X98620995Y-93660500D01*
X98620993Y-93660500D01*
X98483007Y-93660500D01*
X98483005Y-93660500D01*
X98347677Y-93687418D01*
X98347667Y-93687421D01*
X98220195Y-93740221D01*
X98220182Y-93740228D01*
X98105458Y-93816885D01*
X98105454Y-93816888D01*
X98007888Y-93914454D01*
X98007885Y-93914458D01*
X97931228Y-94029182D01*
X97931221Y-94029195D01*
X97878421Y-94156667D01*
X97878418Y-94156677D01*
X97851500Y-94292004D01*
X97851500Y-94292007D01*
X97851500Y-94429993D01*
X97851500Y-94429995D01*
X97851499Y-94429995D01*
X81545500Y-94429995D01*
X81545500Y-92281495D01*
X82799499Y-92281495D01*
X82826418Y-92416822D01*
X82826421Y-92416832D01*
X82879221Y-92544304D01*
X82879228Y-92544317D01*
X82955885Y-92659041D01*
X82955888Y-92659045D01*
X83053454Y-92756611D01*
X83053458Y-92756614D01*
X83168182Y-92833271D01*
X83168195Y-92833278D01*
X83261629Y-92871979D01*
X83295672Y-92886080D01*
X83295676Y-92886080D01*
X83295677Y-92886081D01*
X83431004Y-92913000D01*
X83431007Y-92913000D01*
X83568995Y-92913000D01*
X83660041Y-92894889D01*
X83704328Y-92886080D01*
X83831811Y-92833275D01*
X83946542Y-92756614D01*
X84044114Y-92659042D01*
X84120775Y-92544311D01*
X84173580Y-92416828D01*
X84189670Y-92335937D01*
X84200500Y-92281495D01*
X84200500Y-92143504D01*
X84173581Y-92008177D01*
X84173580Y-92008176D01*
X84173580Y-92008172D01*
X84168754Y-91996521D01*
X84120778Y-91880695D01*
X84120771Y-91880682D01*
X84044114Y-91765958D01*
X84044111Y-91765954D01*
X83946545Y-91668388D01*
X83946541Y-91668385D01*
X83831817Y-91591728D01*
X83831804Y-91591721D01*
X83704332Y-91538921D01*
X83704322Y-91538918D01*
X83568995Y-91512000D01*
X83568993Y-91512000D01*
X83431007Y-91512000D01*
X83431005Y-91512000D01*
X83295677Y-91538918D01*
X83295667Y-91538921D01*
X83168195Y-91591721D01*
X83168182Y-91591728D01*
X83053458Y-91668385D01*
X83053454Y-91668388D01*
X82955888Y-91765954D01*
X82955885Y-91765958D01*
X82879228Y-91880682D01*
X82879221Y-91880695D01*
X82826421Y-92008167D01*
X82826418Y-92008177D01*
X82799500Y-92143504D01*
X82799500Y-92143507D01*
X82799500Y-92281493D01*
X82799500Y-92281495D01*
X82799499Y-92281495D01*
X81545500Y-92281495D01*
X81545500Y-89877973D01*
X87949500Y-89877973D01*
X87949500Y-90122026D01*
X87986926Y-90358326D01*
X87987679Y-90363076D01*
X88063096Y-90595185D01*
X88166894Y-90798901D01*
X88173896Y-90812642D01*
X88223854Y-90881404D01*
X88247334Y-90947210D01*
X88231509Y-91015264D01*
X88197848Y-91053555D01*
X88092452Y-91132455D01*
X88006206Y-91247664D01*
X88006202Y-91247671D01*
X87955908Y-91382517D01*
X87952179Y-91417209D01*
X87949501Y-91442123D01*
X87949500Y-91442135D01*
X87949500Y-93637870D01*
X87949501Y-93637876D01*
X87955908Y-93697483D01*
X88006202Y-93832328D01*
X88006206Y-93832335D01*
X88092452Y-93947544D01*
X88092455Y-93947547D01*
X88207664Y-94033793D01*
X88207671Y-94033797D01*
X88342517Y-94084091D01*
X88342516Y-94084091D01*
X88349444Y-94084835D01*
X88402127Y-94090500D01*
X90597872Y-94090499D01*
X90657483Y-94084091D01*
X90792331Y-94033796D01*
X90907546Y-93947546D01*
X90993796Y-93832331D01*
X91044091Y-93697483D01*
X91050500Y-93637873D01*
X91050499Y-91442128D01*
X91044348Y-91384909D01*
X91044091Y-91382516D01*
X90993797Y-91247671D01*
X90993793Y-91247664D01*
X90907547Y-91132455D01*
X90907544Y-91132452D01*
X90802152Y-91053555D01*
X90760281Y-90997621D01*
X90755297Y-90927930D01*
X90776146Y-90881403D01*
X90826103Y-90812643D01*
X90826104Y-90812642D01*
X90826106Y-90812639D01*
X90936904Y-90595185D01*
X91012321Y-90363076D01*
X91050500Y-90122027D01*
X91050500Y-89877973D01*
X91012321Y-89636924D01*
X90936904Y-89404815D01*
X90826106Y-89187361D01*
X90723527Y-89046172D01*
X90682660Y-88989923D01*
X90682656Y-88989918D01*
X90510081Y-88817343D01*
X90510076Y-88817339D01*
X90459410Y-88780528D01*
X90433919Y-88747471D01*
X89785757Y-88099309D01*
X89831574Y-88080332D01*
X89946224Y-88003726D01*
X90043726Y-87906224D01*
X90120332Y-87791574D01*
X90139309Y-87745757D01*
X90758454Y-88364902D01*
X90758454Y-88364901D01*
X90825678Y-88272377D01*
X90936439Y-88054998D01*
X91011834Y-87822959D01*
X91050000Y-87581993D01*
X91050000Y-87338006D01*
X91011834Y-87097040D01*
X90936439Y-86865001D01*
X90825676Y-86647619D01*
X90758456Y-86555097D01*
X90758454Y-86555096D01*
X90139309Y-87174241D01*
X90120332Y-87128426D01*
X90043726Y-87013776D01*
X89946224Y-86916274D01*
X89831574Y-86839668D01*
X89785756Y-86820689D01*
X90404902Y-86201544D01*
X90404901Y-86201543D01*
X90312380Y-86134323D01*
X90094998Y-86023560D01*
X89862959Y-85948165D01*
X89621993Y-85910000D01*
X89378007Y-85910000D01*
X89137040Y-85948165D01*
X88905001Y-86023560D01*
X88687626Y-86134319D01*
X88595097Y-86201544D01*
X89214243Y-86820689D01*
X89168426Y-86839668D01*
X89053776Y-86916274D01*
X88956274Y-87013776D01*
X88879668Y-87128426D01*
X88860690Y-87174243D01*
X88241544Y-86555097D01*
X88174319Y-86647626D01*
X88063560Y-86865001D01*
X87988165Y-87097040D01*
X87950000Y-87338006D01*
X87950000Y-87581993D01*
X87988165Y-87822959D01*
X88063560Y-88054998D01*
X88174323Y-88272380D01*
X88241543Y-88364901D01*
X88241544Y-88364902D01*
X88860690Y-87745756D01*
X88879668Y-87791574D01*
X88956274Y-87906224D01*
X89053776Y-88003726D01*
X89168426Y-88080332D01*
X89214242Y-88099309D01*
X88577556Y-88735994D01*
X88576953Y-88738866D01*
X88540590Y-88780528D01*
X88489917Y-88817344D01*
X88317343Y-88989918D01*
X88317339Y-88989923D01*
X88173896Y-89187357D01*
X88063097Y-89404812D01*
X88063096Y-89404814D01*
X88063096Y-89404815D01*
X88062484Y-89406698D01*
X87987678Y-89636927D01*
X87949500Y-89877973D01*
X81545500Y-89877973D01*
X81545500Y-84858166D01*
X82474500Y-84858166D01*
X82474500Y-85141833D01*
X82506258Y-85423690D01*
X82506260Y-85423702D01*
X82569380Y-85700253D01*
X82569383Y-85700261D01*
X82663067Y-85967993D01*
X82786139Y-86223554D01*
X82819934Y-86277339D01*
X82937056Y-86463737D01*
X83009913Y-86555097D01*
X83083702Y-86647626D01*
X83113914Y-86685510D01*
X83314490Y-86886086D01*
X83536263Y-87062944D01*
X83776443Y-87213859D01*
X83776445Y-87213860D01*
X83861632Y-87254884D01*
X84032010Y-87336934D01*
X84233092Y-87407295D01*
X84299738Y-87430616D01*
X84299746Y-87430619D01*
X84299749Y-87430619D01*
X84299750Y-87430620D01*
X84576297Y-87493740D01*
X84858166Y-87525499D01*
X84858167Y-87525500D01*
X84858171Y-87525500D01*
X85141833Y-87525500D01*
X85141833Y-87525499D01*
X85423703Y-87493740D01*
X85700250Y-87430620D01*
X85967990Y-87336934D01*
X86136429Y-87255818D01*
X86207857Y-87221420D01*
X86213544Y-87218680D01*
X86223557Y-87213859D01*
X86463737Y-87062944D01*
X86685510Y-86886086D01*
X86886086Y-86685510D01*
X87062944Y-86463737D01*
X87213859Y-86223557D01*
X87224460Y-86201544D01*
X87227611Y-86195002D01*
X87227611Y-86195001D01*
X87257039Y-86133894D01*
X87336934Y-85967990D01*
X87430620Y-85700250D01*
X87493740Y-85423703D01*
X87525500Y-85141829D01*
X87525500Y-84858171D01*
X87525499Y-84858166D01*
X87525499Y-84858163D01*
X87519738Y-84807023D01*
X87495739Y-84594041D01*
X87493740Y-84576297D01*
X87430620Y-84299750D01*
X87430591Y-84299668D01*
X87363393Y-84107626D01*
X87336934Y-84032010D01*
X87213859Y-83776443D01*
X87062944Y-83536263D01*
X86886086Y-83314490D01*
X86685510Y-83113914D01*
X86463737Y-82937056D01*
X86223557Y-82786141D01*
X86223554Y-82786139D01*
X85967993Y-82663067D01*
X85700261Y-82569383D01*
X85700253Y-82569380D01*
X85492839Y-82522040D01*
X85423703Y-82506260D01*
X85423699Y-82506259D01*
X85423690Y-82506258D01*
X85141833Y-82474500D01*
X85141829Y-82474500D01*
X84858171Y-82474500D01*
X84858167Y-82474500D01*
X84576309Y-82506258D01*
X84576297Y-82506260D01*
X84299746Y-82569380D01*
X84299738Y-82569383D01*
X84032006Y-82663067D01*
X83776445Y-82786139D01*
X83536264Y-82937055D01*
X83314490Y-83113913D01*
X83113913Y-83314490D01*
X82937055Y-83536264D01*
X82786139Y-83776445D01*
X82663067Y-84032006D01*
X82569383Y-84299738D01*
X82569380Y-84299746D01*
X82506260Y-84576297D01*
X82506258Y-84576309D01*
X82474500Y-84858166D01*
X81545500Y-84858166D01*
X81545500Y-80126500D01*
X81565185Y-80059461D01*
X81617989Y-80013706D01*
X81669500Y-80002500D01*
X130420500Y-80002500D01*
X130487539Y-80022185D01*
G37*
G04 #@! TD.AperFunction*
G04 #@! TA.AperFunction,Conductor*
G36*
X121898719Y-98185155D02*
G01*
X121900147Y-98184950D01*
X121929951Y-98193127D01*
X121945858Y-98199715D01*
X121969666Y-98209578D01*
X121969669Y-98209578D01*
X121969672Y-98209580D01*
X121969676Y-98209580D01*
X121969677Y-98209581D01*
X122105004Y-98236500D01*
X122211500Y-98236500D01*
X122278539Y-98256185D01*
X122324294Y-98308989D01*
X122335500Y-98360500D01*
X122335500Y-99351402D01*
X122315815Y-99418441D01*
X122299181Y-99439083D01*
X121970181Y-99768083D01*
X121908858Y-99801568D01*
X121839166Y-99796584D01*
X121783233Y-99754712D01*
X121758816Y-99689248D01*
X121758500Y-99680402D01*
X121758500Y-98307688D01*
X121767741Y-98276213D01*
X121775859Y-98244413D01*
X121777539Y-98242848D01*
X121778185Y-98240649D01*
X121802965Y-98219176D01*
X121826997Y-98196803D01*
X121829256Y-98196395D01*
X121830989Y-98194894D01*
X121863463Y-98190224D01*
X121895757Y-98184399D01*
X121898719Y-98185155D01*
G37*
G04 #@! TD.AperFunction*
G04 #@! TA.AperFunction,Conductor*
G36*
X128866747Y-91227930D02*
G01*
X128904533Y-91253768D01*
X129157181Y-91506416D01*
X129190666Y-91567739D01*
X129193500Y-91594097D01*
X129193500Y-93954938D01*
X129194097Y-93961000D01*
X129192035Y-93961202D01*
X129186647Y-94021399D01*
X129143782Y-94076574D01*
X129095452Y-94097611D01*
X128928626Y-94130797D01*
X128928616Y-94130800D01*
X128775670Y-94194155D01*
X128775654Y-94194164D01*
X128638006Y-94286141D01*
X128637999Y-94286146D01*
X128520937Y-94403211D01*
X128520934Y-94403215D01*
X128428959Y-94540865D01*
X128428949Y-94540883D01*
X128365596Y-94693833D01*
X128365593Y-94693845D01*
X128333296Y-94856213D01*
X128333296Y-95141741D01*
X128333300Y-95141785D01*
X128359268Y-95272334D01*
X128365599Y-95304162D01*
X128365601Y-95304168D01*
X128367367Y-95309988D01*
X128365164Y-95310656D01*
X128371526Y-95369946D01*
X128340239Y-95432418D01*
X128280142Y-95468059D01*
X128210318Y-95465550D01*
X128161820Y-95435585D01*
X127986819Y-95260584D01*
X127981813Y-95251417D01*
X127973594Y-95244972D01*
X127965355Y-95221277D01*
X127953334Y-95199261D01*
X127951378Y-95181075D01*
X127950649Y-95178977D01*
X127950997Y-95177531D01*
X127950500Y-95172903D01*
X127950500Y-95049769D01*
X127968746Y-94987627D01*
X127967906Y-94987178D01*
X127970064Y-94983140D01*
X127970185Y-94982730D01*
X127970721Y-94981910D01*
X127970771Y-94981816D01*
X127970775Y-94981811D01*
X128023580Y-94854328D01*
X128038573Y-94778955D01*
X128050500Y-94718995D01*
X128050500Y-94581004D01*
X128023581Y-94445677D01*
X128023580Y-94445676D01*
X128023580Y-94445672D01*
X128023578Y-94445667D01*
X127970778Y-94318195D01*
X127970771Y-94318182D01*
X127894114Y-94203458D01*
X127894111Y-94203454D01*
X127796544Y-94105887D01*
X127792347Y-94102443D01*
X127753010Y-94044699D01*
X127751137Y-93974855D01*
X127783325Y-93918908D01*
X128130713Y-93571521D01*
X128130716Y-93571520D01*
X128242520Y-93459716D01*
X128292639Y-93372904D01*
X128321577Y-93322785D01*
X128362501Y-93170057D01*
X128362501Y-93011943D01*
X128362501Y-93004348D01*
X128362500Y-93004330D01*
X128362500Y-92851059D01*
X128362501Y-92851046D01*
X128362501Y-92682945D01*
X128362501Y-92682943D01*
X128321577Y-92530215D01*
X128282086Y-92461815D01*
X128242520Y-92393284D01*
X128130716Y-92281480D01*
X128130715Y-92281479D01*
X128126385Y-92277149D01*
X128126374Y-92277139D01*
X127936568Y-92087333D01*
X127933261Y-92084026D01*
X127918257Y-92069021D01*
X127904826Y-92060046D01*
X127899130Y-92055150D01*
X127884047Y-92031883D01*
X127866267Y-92010607D01*
X127865308Y-92002976D01*
X127861124Y-91996521D01*
X127861014Y-91968789D01*
X127857560Y-91941282D01*
X127860879Y-91934344D01*
X127860849Y-91926652D01*
X127875748Y-91903265D01*
X127887715Y-91878255D01*
X127892235Y-91873484D01*
X127940421Y-91825278D01*
X128032370Y-91687603D01*
X128095697Y-91534637D01*
X128127968Y-91372256D01*
X128127965Y-91352366D01*
X128147639Y-91285325D01*
X128200436Y-91239562D01*
X128269593Y-91229607D01*
X128271282Y-91229862D01*
X128332522Y-91239562D01*
X128401579Y-91250500D01*
X128401583Y-91250500D01*
X128598422Y-91250500D01*
X128797454Y-91218976D01*
X128866747Y-91227930D01*
G37*
G04 #@! TD.AperFunction*
G04 #@! TA.AperFunction,Conductor*
G36*
X125581838Y-92660222D02*
G01*
X125583913Y-92659962D01*
X125611553Y-92667810D01*
X125620080Y-92671343D01*
X125706254Y-92688490D01*
X125768163Y-92720879D01*
X125802733Y-92781597D01*
X125803672Y-92785911D01*
X125820795Y-92871984D01*
X125820796Y-92871987D01*
X125884151Y-93024934D01*
X125976132Y-93162593D01*
X125976134Y-93162595D01*
X125976135Y-93162596D01*
X125978767Y-93165228D01*
X126017227Y-93203688D01*
X126017229Y-93203691D01*
X126034669Y-93221130D01*
X126034669Y-93221131D01*
X126054512Y-93240973D01*
X126054514Y-93240975D01*
X126063167Y-93249628D01*
X126063211Y-93249677D01*
X126083175Y-93269640D01*
X126083291Y-93269853D01*
X126178017Y-93364568D01*
X126178043Y-93364594D01*
X126315730Y-93456581D01*
X126315735Y-93456583D01*
X126319102Y-93458383D01*
X126320535Y-93459790D01*
X126320796Y-93459965D01*
X126320762Y-93460014D01*
X126368949Y-93507342D01*
X126384415Y-93575478D01*
X126360587Y-93641160D01*
X126348337Y-93655426D01*
X126031826Y-93971937D01*
X126024893Y-93976569D01*
X126021951Y-93980807D01*
X125991598Y-93998817D01*
X125921953Y-94027665D01*
X125852484Y-94035134D01*
X125790004Y-94003859D01*
X125754352Y-93943770D01*
X125750500Y-93913104D01*
X125750500Y-93739060D01*
X125750501Y-93739047D01*
X125750501Y-93570944D01*
X125736274Y-93517850D01*
X125709577Y-93418216D01*
X125688479Y-93381673D01*
X125630524Y-93281290D01*
X125630518Y-93281282D01*
X125511829Y-93162593D01*
X125371535Y-93022300D01*
X125338051Y-92960978D01*
X125343035Y-92891287D01*
X125368923Y-92850998D01*
X125368592Y-92850727D01*
X125370925Y-92847883D01*
X125371524Y-92846950D01*
X125372452Y-92846023D01*
X125460984Y-92713489D01*
X125485346Y-92693124D01*
X125508602Y-92671478D01*
X125511966Y-92670871D01*
X125514589Y-92668679D01*
X125546103Y-92664716D01*
X125577363Y-92659080D01*
X125581838Y-92660222D01*
G37*
G04 #@! TD.AperFunction*
G04 #@! TA.AperFunction,Conductor*
G36*
X115866942Y-90620185D02*
G01*
X115887584Y-90636819D01*
X116291421Y-91040657D01*
X116324906Y-91101980D01*
X116319922Y-91171672D01*
X116291422Y-91216019D01*
X116219250Y-91288191D01*
X116219225Y-91288221D01*
X116127251Y-91425875D01*
X116127245Y-91425885D01*
X116063892Y-91578841D01*
X116063891Y-91578844D01*
X116031594Y-91741214D01*
X116031593Y-91741218D01*
X116031593Y-91825275D01*
X116031593Y-91906778D01*
X116063891Y-92069157D01*
X116071569Y-92087694D01*
X116127245Y-92222114D01*
X116193219Y-92320855D01*
X116219222Y-92359774D01*
X116221862Y-92362414D01*
X116221866Y-92362421D01*
X116268844Y-92409399D01*
X116277755Y-92418310D01*
X116277756Y-92418312D01*
X116326560Y-92467118D01*
X116326661Y-92467303D01*
X116362576Y-92503217D01*
X116421122Y-92561762D01*
X116475614Y-92598170D01*
X116558809Y-92653756D01*
X116600136Y-92670871D01*
X116711801Y-92717116D01*
X116711804Y-92717116D01*
X116711805Y-92717117D01*
X116730728Y-92720879D01*
X116797872Y-92734228D01*
X116809396Y-92740254D01*
X116822309Y-92741776D01*
X116839759Y-92756133D01*
X116859786Y-92766607D01*
X116867463Y-92778927D01*
X116876263Y-92786168D01*
X116885050Y-92807153D01*
X116891740Y-92817888D01*
X116893920Y-92824669D01*
X116912435Y-92917719D01*
X116963395Y-93040718D01*
X116964946Y-93045540D01*
X116965713Y-93075603D01*
X116968931Y-93105506D01*
X116966595Y-93110171D01*
X116966729Y-93115387D01*
X116951120Y-93141094D01*
X116937661Y-93167988D01*
X116933174Y-93170650D01*
X116930467Y-93175110D01*
X116903440Y-93188296D01*
X116877575Y-93203646D01*
X116870038Y-93204592D01*
X116867673Y-93205747D01*
X116864152Y-93205332D01*
X116846899Y-93207500D01*
X115108097Y-93207500D01*
X115041058Y-93187815D01*
X115020416Y-93171181D01*
X114604555Y-92755320D01*
X114153040Y-92303804D01*
X114153039Y-92303802D01*
X114118441Y-92269203D01*
X114118436Y-92269199D01*
X114092373Y-92251784D01*
X114047569Y-92198171D01*
X114038862Y-92128846D01*
X114058164Y-92079790D01*
X114093613Y-92026743D01*
X114156982Y-91873766D01*
X114189285Y-91711366D01*
X114189280Y-91545784D01*
X114156968Y-91383386D01*
X114156966Y-91383381D01*
X114156428Y-91380677D01*
X114162652Y-91311085D01*
X114205511Y-91255906D01*
X114271400Y-91232657D01*
X114297442Y-91234006D01*
X114401578Y-91250500D01*
X114401583Y-91250500D01*
X114598422Y-91250500D01*
X114792826Y-91219709D01*
X114802767Y-91216479D01*
X114980025Y-91158884D01*
X115155405Y-91069524D01*
X115314646Y-90953828D01*
X115453828Y-90814646D01*
X115569524Y-90655405D01*
X115569524Y-90655403D01*
X115572278Y-90651614D01*
X115576610Y-90648273D01*
X115578883Y-90643297D01*
X115603982Y-90627166D01*
X115627608Y-90608949D01*
X115634279Y-90607696D01*
X115637661Y-90605523D01*
X115672596Y-90600500D01*
X115799903Y-90600500D01*
X115866942Y-90620185D01*
G37*
G04 #@! TD.AperFunction*
G04 #@! TA.AperFunction,Conductor*
G36*
X119253707Y-91745798D02*
G01*
X119267996Y-91758065D01*
X119711530Y-92201599D01*
X119711559Y-92201631D01*
X119731070Y-92221142D01*
X119731175Y-92221335D01*
X119799827Y-92289982D01*
X119825935Y-92316088D01*
X119833071Y-92320856D01*
X119845677Y-92335937D01*
X119861684Y-92347344D01*
X119867622Y-92362193D01*
X119877880Y-92374465D01*
X119880330Y-92393967D01*
X119887630Y-92412218D01*
X119884597Y-92427920D01*
X119886592Y-92443789D01*
X119878109Y-92461521D01*
X119874383Y-92480820D01*
X119858428Y-92502664D01*
X119856441Y-92506819D01*
X119853900Y-92509563D01*
X119850949Y-92512655D01*
X119823940Y-92539670D01*
X119823894Y-92539624D01*
X119765361Y-92598170D01*
X119756037Y-92612126D01*
X119748615Y-92619906D01*
X119727291Y-92632207D01*
X119708404Y-92647995D01*
X119697562Y-92649357D01*
X119688094Y-92654820D01*
X119663501Y-92653639D01*
X119639080Y-92656710D01*
X119629221Y-92651994D01*
X119618305Y-92651471D01*
X119598258Y-92637185D01*
X119576049Y-92626563D01*
X119571221Y-92621986D01*
X119053319Y-92104084D01*
X119053318Y-92104082D01*
X119036935Y-92087698D01*
X119036930Y-92087694D01*
X119024619Y-92079468D01*
X118979814Y-92025855D01*
X118971108Y-91956530D01*
X118990402Y-91907486D01*
X119071984Y-91785372D01*
X119071984Y-91785371D01*
X119075369Y-91780305D01*
X119076855Y-91781298D01*
X119119887Y-91737467D01*
X119188020Y-91721986D01*
X119253707Y-91745798D01*
G37*
G04 #@! TD.AperFunction*
M02*
