G04 #@! TF.GenerationSoftware,KiCad,Pcbnew,9.0.3*
G04 #@! TF.CreationDate,2025-08-23T15:15:08+02:00*
G04 #@! TF.ProjectId,fw-anwesenheit,66772d61-6e77-4657-9365-6e686569742e,rev?*
G04 #@! TF.SameCoordinates,Original*
G04 #@! TF.FileFunction,Legend,Bot*
G04 #@! TF.FilePolarity,Positive*
%FSLAX46Y46*%
G04 Gerber Fmt 4.6, Leading zero omitted, Abs format (unit mm)*
G04 Created by KiCad (PCBNEW 9.0.3) date 2025-08-23 15:15:08*
%MOMM*%
%LPD*%
G01*
G04 APERTURE LIST*
G04 Aperture macros list*
%AMRoundRect*
0 Rectangle with rounded corners*
0 $1 Rounding radius*
0 $2 $3 $4 $5 $6 $7 $8 $9 X,Y pos of 4 corners*
0 Add a 4 corners polygon primitive as box body*
4,1,4,$2,$3,$4,$5,$6,$7,$8,$9,$2,$3,0*
0 Add four circle primitives for the rounded corners*
1,1,$1+$1,$2,$3*
1,1,$1+$1,$4,$5*
1,1,$1+$1,$6,$7*
1,1,$1+$1,$8,$9*
0 Add four rect primitives between the rounded corners*
20,1,$1+$1,$2,$3,$4,$5,0*
20,1,$1+$1,$4,$5,$6,$7,0*
20,1,$1+$1,$6,$7,$8,$9,0*
20,1,$1+$1,$8,$9,$2,$3,0*%
G04 Aperture macros list end*
%ADD10C,0.100000*%
%ADD11C,0.300000*%
%ADD12C,0.150000*%
%ADD13C,0.120000*%
%ADD14R,1.350000X1.350000*%
%ADD15C,1.350000*%
%ADD16C,2.304000*%
%ADD17RoundRect,0.102000X-1.050000X1.050000X-1.050000X-1.050000X1.050000X-1.050000X1.050000X1.050000X0*%
%ADD18C,1.000000*%
%ADD19C,1.500000*%
%ADD20R,1.600000X2.000000*%
%ADD21O,1.600000X2.000000*%
%ADD22R,1.700000X1.700000*%
%ADD23C,1.700000*%
G04 APERTURE END LIST*
D10*
X120064400Y-123968000D02*
X122251600Y-123968000D01*
X122251600Y-124968000D01*
X120064400Y-124968000D01*
X120064400Y-123968000D01*
G36*
X121865286Y-124610854D02*
G01*
X121460881Y-124610854D01*
X121460881Y-124395920D01*
X121865286Y-124395920D01*
X121865286Y-124610854D01*
G37*
G36*
X122578868Y-123798000D02*
G01*
X122044648Y-123798000D01*
X121905979Y-123784322D01*
X121833001Y-123769732D01*
X121788498Y-123751471D01*
X121749437Y-123724333D01*
X121716592Y-123691676D01*
X121689458Y-123653041D01*
X121669509Y-123610250D01*
X121657397Y-123563799D01*
X121653249Y-123512846D01*
X121656596Y-123478408D01*
X121963376Y-123478408D01*
X121967197Y-123508823D01*
X121978099Y-123533818D01*
X121996166Y-123554673D01*
X122019943Y-123569094D01*
X122056000Y-123579147D01*
X122108884Y-123583066D01*
X122266665Y-123583066D01*
X122266665Y-123379856D01*
X122109555Y-123379856D01*
X122055591Y-123383640D01*
X122019317Y-123393269D01*
X121995860Y-123406906D01*
X121977841Y-123426803D01*
X121967105Y-123450255D01*
X121963376Y-123478408D01*
X121656596Y-123478408D01*
X121659278Y-123450806D01*
X121676420Y-123398460D01*
X121704173Y-123353844D01*
X121742109Y-123317513D01*
X121793906Y-123287560D01*
X121862931Y-123264573D01*
X121817254Y-123245197D01*
X121781839Y-123222872D01*
X121754976Y-123197834D01*
X121724342Y-123153047D01*
X121705970Y-123102980D01*
X121704815Y-123092565D01*
X122003004Y-123092565D01*
X122006439Y-123122316D01*
X122015985Y-123145537D01*
X122031337Y-123163762D01*
X122051946Y-123176163D01*
X122084046Y-123184921D01*
X122132087Y-123188369D01*
X122266665Y-123188369D01*
X122266665Y-123000791D01*
X122130072Y-123000791D01*
X122083414Y-123004170D01*
X122051884Y-123012798D01*
X122031337Y-123025093D01*
X122015829Y-123043016D01*
X122006360Y-123065085D01*
X122003004Y-123092565D01*
X121704815Y-123092565D01*
X121699655Y-123046037D01*
X121704608Y-122994881D01*
X121719045Y-122949034D01*
X121742966Y-122907358D01*
X121777202Y-122869083D01*
X121817692Y-122839234D01*
X121866972Y-122816975D01*
X121926845Y-122802707D01*
X121999585Y-122797581D01*
X122578868Y-122797581D01*
X122578868Y-123798000D01*
G37*
G36*
X121615757Y-123798000D02*
G01*
X121299463Y-123798000D01*
X121250920Y-123633868D01*
X120898477Y-123633868D01*
X120849262Y-123798000D01*
X120525457Y-123798000D01*
X120668092Y-123418935D01*
X120963385Y-123418935D01*
X121183997Y-123418935D01*
X121074027Y-123057883D01*
X120963385Y-123418935D01*
X120668092Y-123418935D01*
X120901897Y-122797581D01*
X121239318Y-122797581D01*
X121615757Y-123798000D01*
G37*
G36*
X120593357Y-122797581D02*
G01*
X119652717Y-122797581D01*
X119652717Y-123043778D01*
X119968339Y-123043778D01*
X119968339Y-123798000D01*
X120277795Y-123798000D01*
X120277795Y-123043778D01*
X120593357Y-123043778D01*
X120593357Y-122797581D01*
G37*
G36*
X121082143Y-124960169D02*
G01*
X120114675Y-124960169D01*
X120114675Y-124368388D01*
X120225786Y-124368388D01*
X120225786Y-124587230D01*
X120488775Y-124587230D01*
X120488775Y-124849058D01*
X120709387Y-124849058D01*
X120709387Y-124587230D01*
X120971032Y-124587230D01*
X120971032Y-124368388D01*
X120709387Y-124368388D01*
X120709387Y-124106560D01*
X120488775Y-124106560D01*
X120488775Y-124368388D01*
X120225786Y-124368388D01*
X120114675Y-124368388D01*
X120114675Y-123995449D01*
X121082143Y-123995449D01*
X121082143Y-124960169D01*
G37*
D11*
G36*
X89202140Y-110500667D02*
G01*
X88923428Y-110463053D01*
X88908483Y-110539572D01*
X88884265Y-110598832D01*
X88851712Y-110644281D01*
X88809785Y-110679225D01*
X88763192Y-110699862D01*
X88710296Y-110706905D01*
X88653805Y-110698834D01*
X88604404Y-110675142D01*
X88560178Y-110634707D01*
X88527242Y-110582981D01*
X88506580Y-110519117D01*
X88499178Y-110439801D01*
X88506269Y-110364785D01*
X88526054Y-110304528D01*
X88557613Y-110255838D01*
X88599862Y-110217783D01*
X88646751Y-110195510D01*
X88700037Y-110187938D01*
X88757543Y-110193134D01*
X88832203Y-110210897D01*
X88800421Y-109962844D01*
X88724248Y-109957550D01*
X88666243Y-109938992D01*
X88622185Y-109909110D01*
X88588201Y-109867261D01*
X88567772Y-109817537D01*
X88560636Y-109757484D01*
X88566013Y-109705877D01*
X88581179Y-109663864D01*
X88605790Y-109629306D01*
X88638322Y-109603183D01*
X88677613Y-109587117D01*
X88725591Y-109581434D01*
X88772752Y-109587551D01*
X88814318Y-109605450D01*
X88851712Y-109635656D01*
X88880743Y-109675131D01*
X88902176Y-109726875D01*
X88915185Y-109794023D01*
X89180616Y-109746347D01*
X89157508Y-109650207D01*
X89129380Y-109573344D01*
X89097085Y-109512655D01*
X89055654Y-109459268D01*
X89004193Y-109413541D01*
X88941380Y-109375196D01*
X88873331Y-109347739D01*
X88799051Y-109330880D01*
X88717440Y-109325077D01*
X88613236Y-109334755D01*
X88523452Y-109362403D01*
X88445408Y-109407093D01*
X88377179Y-109469473D01*
X88329963Y-109532133D01*
X88297423Y-109596841D01*
X88278148Y-109664508D01*
X88271666Y-109736382D01*
X88279912Y-109815550D01*
X88304193Y-109887254D01*
X88345151Y-109953463D01*
X88405118Y-110015361D01*
X88487912Y-110073242D01*
X88406423Y-110101678D01*
X88338327Y-110145638D01*
X88281466Y-110205719D01*
X88238897Y-110278079D01*
X88213033Y-110360038D01*
X88204072Y-110454163D01*
X88213239Y-110556645D01*
X88240072Y-110649545D01*
X88284675Y-110734967D01*
X88348602Y-110814372D01*
X88424923Y-110879293D01*
X88509131Y-110925379D01*
X88602822Y-110953535D01*
X88708189Y-110963263D01*
X88808820Y-110954746D01*
X88897441Y-110930259D01*
X88976120Y-110890580D01*
X89046435Y-110835377D01*
X89106117Y-110766974D01*
X89151652Y-110689417D01*
X89183747Y-110601312D01*
X89202140Y-110500667D01*
G37*
G36*
X87963828Y-110932000D02*
G01*
X87963828Y-110625621D01*
X87675958Y-110625621D01*
X87675958Y-110932000D01*
X87963828Y-110932000D01*
G37*
G36*
X87452384Y-110500667D02*
G01*
X87173672Y-110463053D01*
X87158727Y-110539572D01*
X87134509Y-110598832D01*
X87101956Y-110644281D01*
X87060029Y-110679225D01*
X87013437Y-110699862D01*
X86960540Y-110706905D01*
X86904050Y-110698834D01*
X86854648Y-110675142D01*
X86810422Y-110634707D01*
X86777486Y-110582981D01*
X86756824Y-110519117D01*
X86749422Y-110439801D01*
X86756513Y-110364785D01*
X86776299Y-110304528D01*
X86807857Y-110255838D01*
X86850106Y-110217783D01*
X86896995Y-110195510D01*
X86950282Y-110187938D01*
X87007787Y-110193134D01*
X87082448Y-110210897D01*
X87050665Y-109962844D01*
X86974492Y-109957550D01*
X86916487Y-109938992D01*
X86872429Y-109909110D01*
X86838446Y-109867261D01*
X86818016Y-109817537D01*
X86810880Y-109757484D01*
X86816257Y-109705877D01*
X86831423Y-109663864D01*
X86856034Y-109629306D01*
X86888566Y-109603183D01*
X86927857Y-109587117D01*
X86975836Y-109581434D01*
X87022996Y-109587551D01*
X87064562Y-109605450D01*
X87101956Y-109635656D01*
X87130987Y-109675131D01*
X87152421Y-109726875D01*
X87165429Y-109794023D01*
X87430860Y-109746347D01*
X87407752Y-109650207D01*
X87379624Y-109573344D01*
X87347329Y-109512655D01*
X87305898Y-109459268D01*
X87254437Y-109413541D01*
X87191624Y-109375196D01*
X87123576Y-109347739D01*
X87049295Y-109330880D01*
X86967684Y-109325077D01*
X86863480Y-109334755D01*
X86773696Y-109362403D01*
X86695652Y-109407093D01*
X86627423Y-109469473D01*
X86580207Y-109532133D01*
X86547667Y-109596841D01*
X86528392Y-109664508D01*
X86521910Y-109736382D01*
X86530156Y-109815550D01*
X86554437Y-109887254D01*
X86595395Y-109953463D01*
X86655362Y-110015361D01*
X86738157Y-110073242D01*
X86656667Y-110101678D01*
X86588572Y-110145638D01*
X86531710Y-110205719D01*
X86489141Y-110278079D01*
X86463278Y-110360038D01*
X86454316Y-110454163D01*
X86463483Y-110556645D01*
X86490317Y-110649545D01*
X86534919Y-110734967D01*
X86598847Y-110814372D01*
X86675168Y-110879293D01*
X86759375Y-110925379D01*
X86853067Y-110953535D01*
X86958433Y-110963263D01*
X87059065Y-110954746D01*
X87147686Y-110930259D01*
X87226364Y-110890580D01*
X87296679Y-110835377D01*
X87356361Y-110766974D01*
X87401896Y-110689417D01*
X87433991Y-110601312D01*
X87452384Y-110500667D01*
G37*
G36*
X85828841Y-110932000D02*
G01*
X86365747Y-109325077D01*
X86036844Y-109325077D01*
X85656649Y-110513074D01*
X85288820Y-109325077D01*
X84967060Y-109325077D01*
X85505066Y-110932000D01*
X85828841Y-110932000D01*
G37*
G36*
X88429477Y-113032254D02*
G01*
X88429477Y-112763391D01*
X87775792Y-112763391D01*
X87775792Y-113404382D01*
X87843442Y-113463101D01*
X87933917Y-113520740D01*
X88051939Y-113576817D01*
X88174062Y-113618452D01*
X88295894Y-113643089D01*
X88418303Y-113651263D01*
X88536059Y-113644198D01*
X88642894Y-113623759D01*
X88740200Y-113590739D01*
X88829181Y-113545457D01*
X88911556Y-113486636D01*
X88982359Y-113417088D01*
X89042530Y-113336136D01*
X89092505Y-113242595D01*
X89141150Y-113108541D01*
X89170602Y-112966323D01*
X89180616Y-112814193D01*
X89174130Y-112688847D01*
X89155251Y-112573458D01*
X89124560Y-112466778D01*
X89082247Y-112367718D01*
X89027317Y-112275698D01*
X88961537Y-112195668D01*
X88884244Y-112126650D01*
X88794285Y-112068178D01*
X88695209Y-112025311D01*
X88576606Y-111997881D01*
X88434606Y-111988066D01*
X88292946Y-111997084D01*
X88175391Y-112022176D01*
X88078043Y-112061097D01*
X87997625Y-112112630D01*
X87926355Y-112180420D01*
X87869298Y-112259392D01*
X87825568Y-112350901D01*
X87795209Y-112457013D01*
X88096452Y-112519539D01*
X88124335Y-112444915D01*
X88163958Y-112383002D01*
X88215887Y-112331960D01*
X88277206Y-112294610D01*
X88349257Y-112271376D01*
X88434606Y-112263182D01*
X88532261Y-112272310D01*
X88615863Y-112298324D01*
X88688046Y-112340284D01*
X88750687Y-112398785D01*
X88799200Y-112469432D01*
X88835758Y-112557359D01*
X88859436Y-112666299D01*
X88868015Y-112800907D01*
X88859214Y-112946826D01*
X88835039Y-113064065D01*
X88797972Y-113157822D01*
X88749222Y-113232337D01*
X88685313Y-113295143D01*
X88613312Y-113339541D01*
X88531583Y-113366707D01*
X88437721Y-113376147D01*
X88343160Y-113366249D01*
X88246570Y-113335799D01*
X88155850Y-113290125D01*
X88082164Y-113237906D01*
X88082164Y-113032254D01*
X88429477Y-113032254D01*
G37*
G36*
X87492684Y-113620000D02*
G01*
X87492684Y-112013077D01*
X87197577Y-112013077D01*
X86582818Y-113088820D01*
X86582818Y-112013077D01*
X86300993Y-112013077D01*
X86300993Y-113620000D01*
X86605350Y-113620000D01*
X87210950Y-112560279D01*
X87210950Y-113620000D01*
X87492684Y-113620000D01*
G37*
G36*
X85981523Y-113620000D02*
G01*
X85410819Y-113620000D01*
X85251428Y-113610415D01*
X85142366Y-113586001D01*
X85055636Y-113549592D01*
X84985400Y-113506676D01*
X84929233Y-113457725D01*
X84866518Y-113380364D01*
X84812786Y-113286586D01*
X84768308Y-113173914D01*
X84743650Y-113076954D01*
X84727854Y-112963757D01*
X84722237Y-112831877D01*
X84722838Y-112817124D01*
X85035754Y-112817124D01*
X85044500Y-112994329D01*
X85066528Y-113112756D01*
X85091133Y-113183328D01*
X85117783Y-113233831D01*
X85145938Y-113268583D01*
X85199760Y-113308394D01*
X85268395Y-113335701D01*
X85333547Y-113346481D01*
X85451760Y-113351137D01*
X85678265Y-113351137D01*
X85678265Y-112281939D01*
X85541977Y-112281939D01*
X85371614Y-112286844D01*
X85292941Y-112297376D01*
X85214225Y-112326914D01*
X85152624Y-112373384D01*
X85104819Y-112437937D01*
X85066528Y-112529699D01*
X85044651Y-112640959D01*
X85035754Y-112817124D01*
X84722838Y-112817124D01*
X84728361Y-112681479D01*
X84745347Y-112556094D01*
X84771422Y-112452128D01*
X84810040Y-112352961D01*
X84857864Y-112266651D01*
X84914853Y-112191765D01*
X84982030Y-112127937D01*
X85057147Y-112078836D01*
X85141358Y-112043754D01*
X85250909Y-112021999D01*
X85427214Y-112013077D01*
X85981523Y-112013077D01*
X85981523Y-113620000D01*
G37*
G36*
X89205162Y-115795285D02*
G01*
X88910056Y-115764022D01*
X88884324Y-115863353D01*
X88847943Y-115937457D01*
X88801978Y-115991558D01*
X88744054Y-116030552D01*
X88672028Y-116055253D01*
X88582160Y-116064147D01*
X88486110Y-116055721D01*
X88414368Y-116033140D01*
X88361334Y-115998983D01*
X88318891Y-115951347D01*
X88294962Y-115901161D01*
X88287053Y-115846576D01*
X88295028Y-115794267D01*
X88318286Y-115751321D01*
X88357353Y-115717045D01*
X88427462Y-115682933D01*
X88670270Y-115611810D01*
X88831594Y-115558996D01*
X88941491Y-115505073D01*
X89012546Y-115451489D01*
X89073991Y-115379867D01*
X89116601Y-115302851D01*
X89142136Y-115219089D01*
X89150849Y-115126548D01*
X89143666Y-115046356D01*
X89122205Y-114969906D01*
X89085819Y-114895885D01*
X89036839Y-114830806D01*
X88974936Y-114776409D01*
X88898240Y-114732242D01*
X88814966Y-114702121D01*
X88717268Y-114682900D01*
X88602676Y-114676066D01*
X88459251Y-114685891D01*
X88343655Y-114712914D01*
X88250890Y-114754404D01*
X88176869Y-114809032D01*
X88114277Y-114880454D01*
X88068768Y-114962004D01*
X88039409Y-115055541D01*
X88026751Y-115163771D01*
X88330101Y-115176276D01*
X88349649Y-115097224D01*
X88377821Y-115039705D01*
X88413632Y-114998956D01*
X88459202Y-114970774D01*
X88521535Y-114951981D01*
X88605699Y-114944929D01*
X88692432Y-114952270D01*
X88760105Y-114972292D01*
X88812694Y-115003059D01*
X88839703Y-115031022D01*
X88855458Y-115063689D01*
X88860871Y-115102710D01*
X88849892Y-115155012D01*
X88815808Y-115200309D01*
X88772646Y-115228597D01*
X88686896Y-115264311D01*
X88537097Y-115308460D01*
X88331364Y-115370667D01*
X88209750Y-115424817D01*
X88143517Y-115469958D01*
X88088564Y-115524111D01*
X88043787Y-115587874D01*
X88011397Y-115659477D01*
X87991015Y-115743766D01*
X87983795Y-115843450D01*
X87991719Y-115933171D01*
X88015395Y-116018797D01*
X88055511Y-116101761D01*
X88109507Y-116174684D01*
X88176541Y-116234082D01*
X88258385Y-116280742D01*
X88347529Y-116311831D01*
X88455350Y-116331996D01*
X88585274Y-116339263D01*
X88729051Y-116329196D01*
X88847070Y-116301264D01*
X88943779Y-116257940D01*
X89022804Y-116200337D01*
X89089348Y-116125821D01*
X89142057Y-116035426D01*
X89181037Y-115926459D01*
X89205162Y-115795285D01*
G37*
G36*
X87729813Y-116308000D02*
G01*
X87159109Y-116308000D01*
X86999718Y-116298415D01*
X86890656Y-116274001D01*
X86803926Y-116237592D01*
X86733690Y-116194676D01*
X86677523Y-116145725D01*
X86614808Y-116068364D01*
X86561076Y-115974586D01*
X86516598Y-115861914D01*
X86491941Y-115764954D01*
X86476144Y-115651757D01*
X86470528Y-115519877D01*
X86471129Y-115505124D01*
X86784044Y-115505124D01*
X86792790Y-115682329D01*
X86814818Y-115800756D01*
X86839423Y-115871328D01*
X86866073Y-115921831D01*
X86894228Y-115956583D01*
X86948050Y-115996394D01*
X87016685Y-116023701D01*
X87081837Y-116034481D01*
X87200050Y-116039137D01*
X87426555Y-116039137D01*
X87426555Y-114969939D01*
X87290268Y-114969939D01*
X87119905Y-114974844D01*
X87041232Y-114985376D01*
X86962515Y-115014914D01*
X86900914Y-115061384D01*
X86853110Y-115125937D01*
X86814818Y-115217699D01*
X86792942Y-115328959D01*
X86784044Y-115505124D01*
X86471129Y-115505124D01*
X86476652Y-115369479D01*
X86493637Y-115244094D01*
X86519712Y-115140128D01*
X86558331Y-115040961D01*
X86606154Y-114954651D01*
X86663144Y-114879765D01*
X86730320Y-114815937D01*
X86805437Y-114766836D01*
X86889648Y-114731754D01*
X86999199Y-114709999D01*
X87175504Y-114701077D01*
X87729813Y-114701077D01*
X87729813Y-116308000D01*
G37*
G36*
X86366205Y-116308000D02*
G01*
X86044446Y-116308000D01*
X85920432Y-115945348D01*
X85320052Y-115945348D01*
X85188894Y-116308000D01*
X84858891Y-116308000D01*
X85095270Y-115676485D01*
X85417322Y-115676485D01*
X85827192Y-115676485D01*
X85624318Y-115076234D01*
X85417322Y-115676485D01*
X85095270Y-115676485D01*
X85460370Y-114701077D01*
X85781122Y-114701077D01*
X86366205Y-116308000D01*
G37*
G36*
X89205162Y-118483285D02*
G01*
X88910056Y-118452022D01*
X88884324Y-118551353D01*
X88847943Y-118625457D01*
X88801978Y-118679558D01*
X88744054Y-118718552D01*
X88672028Y-118743253D01*
X88582160Y-118752147D01*
X88486110Y-118743721D01*
X88414368Y-118721140D01*
X88361334Y-118686983D01*
X88318891Y-118639347D01*
X88294962Y-118589161D01*
X88287053Y-118534576D01*
X88295028Y-118482267D01*
X88318286Y-118439321D01*
X88357353Y-118405045D01*
X88427462Y-118370933D01*
X88670270Y-118299810D01*
X88831594Y-118246996D01*
X88941491Y-118193073D01*
X89012546Y-118139489D01*
X89073991Y-118067867D01*
X89116601Y-117990851D01*
X89142136Y-117907089D01*
X89150849Y-117814548D01*
X89143666Y-117734356D01*
X89122205Y-117657906D01*
X89085819Y-117583885D01*
X89036839Y-117518806D01*
X88974936Y-117464409D01*
X88898240Y-117420242D01*
X88814966Y-117390121D01*
X88717268Y-117370900D01*
X88602676Y-117364066D01*
X88459251Y-117373891D01*
X88343655Y-117400914D01*
X88250890Y-117442404D01*
X88176869Y-117497032D01*
X88114277Y-117568454D01*
X88068768Y-117650004D01*
X88039409Y-117743541D01*
X88026751Y-117851771D01*
X88330101Y-117864276D01*
X88349649Y-117785224D01*
X88377821Y-117727705D01*
X88413632Y-117686956D01*
X88459202Y-117658774D01*
X88521535Y-117639981D01*
X88605699Y-117632929D01*
X88692432Y-117640270D01*
X88760105Y-117660292D01*
X88812694Y-117691059D01*
X88839703Y-117719022D01*
X88855458Y-117751689D01*
X88860871Y-117790710D01*
X88849892Y-117843012D01*
X88815808Y-117888309D01*
X88772646Y-117916597D01*
X88686896Y-117952311D01*
X88537097Y-117996460D01*
X88331364Y-118058667D01*
X88209750Y-118112817D01*
X88143517Y-118157958D01*
X88088564Y-118212111D01*
X88043787Y-118275874D01*
X88011397Y-118347477D01*
X87991015Y-118431766D01*
X87983795Y-118531450D01*
X87991719Y-118621171D01*
X88015395Y-118706797D01*
X88055511Y-118789761D01*
X88109507Y-118862684D01*
X88176541Y-118922082D01*
X88258385Y-118968742D01*
X88347529Y-118999831D01*
X88455350Y-119019996D01*
X88585274Y-119027263D01*
X88729051Y-119017196D01*
X88847070Y-118989264D01*
X88943779Y-118945940D01*
X89022804Y-118888337D01*
X89089348Y-118813821D01*
X89142057Y-118723426D01*
X89181037Y-118614459D01*
X89205162Y-118483285D01*
G37*
G36*
X86767649Y-118402001D02*
G01*
X86473550Y-118502043D01*
X86515513Y-118631667D01*
X86567340Y-118737936D01*
X86628320Y-118824251D01*
X86698498Y-118893222D01*
X86779592Y-118947603D01*
X86871776Y-118987398D01*
X86976976Y-119012286D01*
X87097560Y-119021010D01*
X87215917Y-119011822D01*
X87322603Y-118985194D01*
X87419501Y-118941831D01*
X87508117Y-118881480D01*
X87589496Y-118802950D01*
X87656587Y-118712949D01*
X87709647Y-118610392D01*
X87748825Y-118493462D01*
X87773459Y-118359822D01*
X87782112Y-118206704D01*
X87773254Y-118043786D01*
X87748177Y-117903131D01*
X87708568Y-117781567D01*
X87655320Y-117676385D01*
X87588488Y-117585448D01*
X87506845Y-117506336D01*
X87416554Y-117445165D01*
X87316396Y-117400916D01*
X87204645Y-117373560D01*
X87079150Y-117364066D01*
X86943072Y-117375772D01*
X86825060Y-117409224D01*
X86721951Y-117463133D01*
X86631362Y-117537870D01*
X86571385Y-117612264D01*
X86519888Y-117709113D01*
X86477672Y-117833013D01*
X86777907Y-117908044D01*
X86802761Y-117829317D01*
X86839734Y-117764506D01*
X86889099Y-117711380D01*
X86948574Y-117671732D01*
X87016327Y-117647573D01*
X87094538Y-117639182D01*
X87175739Y-117647544D01*
X87246722Y-117671667D01*
X87309563Y-117711239D01*
X87365647Y-117767458D01*
X87407299Y-117833454D01*
X87439815Y-117920892D01*
X87461543Y-118035144D01*
X87469603Y-118182671D01*
X87461482Y-118340274D01*
X87439776Y-118460328D01*
X87407672Y-118550350D01*
X87367113Y-118616642D01*
X87311694Y-118673463D01*
X87249826Y-118713305D01*
X87180168Y-118737518D01*
X87100674Y-118745895D01*
X87023039Y-118736478D01*
X86954429Y-118708994D01*
X86892671Y-118662950D01*
X86843055Y-118601858D01*
X86800972Y-118516930D01*
X86767649Y-118402001D01*
G37*
G36*
X86205371Y-118996000D02*
G01*
X86205371Y-117407835D01*
X85902022Y-117407835D01*
X85902022Y-118727137D01*
X85147861Y-118727137D01*
X85147861Y-118996000D01*
X86205371Y-118996000D01*
G37*
D12*
G36*
X109128122Y-88665000D02*
G01*
X108766765Y-88665000D01*
X108678689Y-88660462D01*
X108605931Y-88647903D01*
X108539591Y-88626123D01*
X108486374Y-88597527D01*
X108439850Y-88559165D01*
X108395210Y-88506425D01*
X108358419Y-88443349D01*
X108326884Y-88360184D01*
X108312488Y-88300668D01*
X108303392Y-88233382D01*
X108300200Y-88157341D01*
X108300309Y-88155265D01*
X108436854Y-88155265D01*
X108440102Y-88231417D01*
X108449165Y-88295770D01*
X108463171Y-88349926D01*
X108483916Y-88401728D01*
X108508461Y-88443886D01*
X108536566Y-88477787D01*
X108574492Y-88507028D01*
X108626386Y-88530177D01*
X108688202Y-88543449D01*
X108781786Y-88548740D01*
X108995620Y-88548740D01*
X108995620Y-87776933D01*
X108785205Y-87776933D01*
X108705549Y-87779857D01*
X108650354Y-87787319D01*
X108613747Y-87797632D01*
X108568586Y-87822070D01*
X108526967Y-87859302D01*
X108488450Y-87911693D01*
X108467587Y-87954343D01*
X108451394Y-88007671D01*
X108440736Y-88073827D01*
X108436854Y-88155265D01*
X108300309Y-88155265D01*
X108304856Y-88068466D01*
X108318201Y-87989288D01*
X108339523Y-87918593D01*
X108370635Y-87852222D01*
X108410041Y-87795395D01*
X108457981Y-87747013D01*
X108500685Y-87716260D01*
X108549358Y-87692270D01*
X108604893Y-87675083D01*
X108673285Y-87664864D01*
X108783190Y-87660673D01*
X109128122Y-87660673D01*
X109128122Y-88665000D01*
G37*
G36*
X108227965Y-88665000D02*
G01*
X108087220Y-88665000D01*
X107977250Y-88360184D01*
X107558496Y-88360184D01*
X107441686Y-88665000D01*
X107290683Y-88665000D01*
X107459747Y-88250764D01*
X107599467Y-88250764D01*
X107938965Y-88250764D01*
X107828994Y-87957123D01*
X107797971Y-87861495D01*
X107775017Y-87765881D01*
X107747682Y-87852490D01*
X107704003Y-87973487D01*
X107599467Y-88250764D01*
X107459747Y-88250764D01*
X107700584Y-87660673D01*
X107843344Y-87660673D01*
X108227965Y-88665000D01*
G37*
G36*
X107033679Y-88665000D02*
G01*
X107033679Y-87776933D01*
X107363651Y-87776933D01*
X107363651Y-87660673D01*
X106569862Y-87660673D01*
X106569862Y-87776933D01*
X106901177Y-87776933D01*
X106901177Y-88665000D01*
X107033679Y-88665000D01*
G37*
G36*
X105837316Y-88548740D02*
G01*
X105837316Y-88665000D01*
X106499214Y-88665000D01*
X106496319Y-88621464D01*
X106484865Y-88579759D01*
X106452890Y-88514260D01*
X106403960Y-88446830D01*
X106340590Y-88380701D01*
X106243065Y-88295460D01*
X106135010Y-88201983D01*
X106064614Y-88132639D01*
X106022452Y-88082358D01*
X105989035Y-88027811D01*
X105970773Y-87978742D01*
X105965055Y-87933675D01*
X105970954Y-87886954D01*
X105988187Y-87846183D01*
X106017323Y-87809844D01*
X106054848Y-87782230D01*
X106099578Y-87765306D01*
X106153550Y-87759347D01*
X106210552Y-87765719D01*
X106257163Y-87783727D01*
X106295699Y-87813019D01*
X106324540Y-87851835D01*
X106342764Y-87900430D01*
X106349616Y-87961580D01*
X106476011Y-87948513D01*
X106464161Y-87878076D01*
X106443560Y-87819685D01*
X106414945Y-87771312D01*
X106378314Y-87731442D01*
X106334167Y-87699812D01*
X106282547Y-87676586D01*
X106222044Y-87661947D01*
X106150863Y-87656765D01*
X106079258Y-87662312D01*
X106018555Y-87677994D01*
X105966848Y-87702946D01*
X105922679Y-87737121D01*
X105885729Y-87779946D01*
X105859783Y-87826753D01*
X105844064Y-87878413D01*
X105838659Y-87936179D01*
X105844740Y-87995719D01*
X105863267Y-88054942D01*
X105894349Y-88112384D01*
X105944905Y-88177857D01*
X106012773Y-88246822D01*
X106134438Y-88354933D01*
X106234715Y-88441807D01*
X106276587Y-88481756D01*
X106305731Y-88515777D01*
X106328427Y-88548740D01*
X105837316Y-88548740D01*
G37*
G36*
X111149110Y-91813290D02*
G01*
X111016608Y-91846751D01*
X111042896Y-91926513D01*
X111076818Y-91993386D01*
X111117996Y-92049153D01*
X111166573Y-92095146D01*
X111222702Y-92132004D01*
X111284769Y-92158572D01*
X111353843Y-92174954D01*
X111431271Y-92180631D01*
X111512930Y-92175991D01*
X111582965Y-92162901D01*
X111643052Y-92142309D01*
X111694626Y-92114747D01*
X111741587Y-92078732D01*
X111782811Y-92035414D01*
X111818606Y-91984102D01*
X111848988Y-91923810D01*
X111878223Y-91839049D01*
X111895923Y-91749848D01*
X111901927Y-91655326D01*
X111894855Y-91552440D01*
X111874619Y-91462128D01*
X111842149Y-91382445D01*
X111808633Y-91327037D01*
X111769307Y-91279515D01*
X111723944Y-91239145D01*
X111672034Y-91205491D01*
X111596501Y-91172075D01*
X111515964Y-91151903D01*
X111429195Y-91145041D01*
X111354465Y-91150155D01*
X111288259Y-91164844D01*
X111229277Y-91188507D01*
X111176465Y-91221062D01*
X111129801Y-91262186D01*
X111090609Y-91310870D01*
X111058545Y-91367973D01*
X111033705Y-91434713D01*
X111164131Y-91465488D01*
X111192669Y-91396018D01*
X111226509Y-91344319D01*
X111265247Y-91307035D01*
X111311721Y-91280099D01*
X111366607Y-91263321D01*
X111431943Y-91257393D01*
X111507167Y-91264012D01*
X111570768Y-91282775D01*
X111624956Y-91312897D01*
X111671407Y-91353986D01*
X111707517Y-91403226D01*
X111733888Y-91461824D01*
X111751322Y-91524781D01*
X111761772Y-91588917D01*
X111765273Y-91654593D01*
X111760812Y-91739435D01*
X111748138Y-91813516D01*
X111728087Y-91878258D01*
X111697891Y-91937770D01*
X111659437Y-91984777D01*
X111612316Y-92021018D01*
X111558325Y-92047336D01*
X111501919Y-92063004D01*
X111442201Y-92068279D01*
X111387256Y-92064043D01*
X111338135Y-92051795D01*
X111293853Y-92031854D01*
X111253646Y-92004043D01*
X111219521Y-91969664D01*
X111190640Y-91927301D01*
X111167021Y-91875713D01*
X111149110Y-91813290D01*
G37*
G36*
X110898578Y-91839912D02*
G01*
X110773525Y-91828921D01*
X110764458Y-91879120D01*
X110750517Y-91920566D01*
X110732248Y-91954645D01*
X110707718Y-91984220D01*
X110674661Y-92010705D01*
X110631498Y-92034085D01*
X110585055Y-92050635D01*
X110534053Y-92060845D01*
X110477747Y-92064371D01*
X110404700Y-92058438D01*
X110343902Y-92041779D01*
X110307031Y-92023987D01*
X110278693Y-92003302D01*
X110257501Y-91979802D01*
X110236131Y-91938343D01*
X110229108Y-91893768D01*
X110236047Y-91849214D01*
X110256463Y-91811275D01*
X110290235Y-91780414D01*
X110346589Y-91751985D01*
X110399177Y-91735246D01*
X110524886Y-91703014D01*
X110651912Y-91667522D01*
X110718204Y-91640305D01*
X110763444Y-91612085D01*
X110798617Y-91580948D01*
X110825122Y-91546821D01*
X110844583Y-91508329D01*
X110856300Y-91466927D01*
X110860293Y-91421830D01*
X110855543Y-91372358D01*
X110841356Y-91325248D01*
X110817306Y-91279680D01*
X110784867Y-91239793D01*
X110743422Y-91206406D01*
X110691582Y-91179296D01*
X110635519Y-91160551D01*
X110574511Y-91149013D01*
X110507789Y-91145041D01*
X110434254Y-91149297D01*
X110369179Y-91161478D01*
X110311418Y-91180945D01*
X110258114Y-91209235D01*
X110214944Y-91244308D01*
X110180626Y-91286458D01*
X110154945Y-91334584D01*
X110138540Y-91386838D01*
X110131411Y-91444178D01*
X110258478Y-91453764D01*
X110271544Y-91393122D01*
X110294818Y-91346135D01*
X110327843Y-91309966D01*
X110369994Y-91284418D01*
X110426721Y-91267573D01*
X110502355Y-91261301D01*
X110581723Y-91267223D01*
X110638242Y-91282706D01*
X110677599Y-91305387D01*
X110708844Y-91337780D01*
X110726620Y-91372762D01*
X110732554Y-91411693D01*
X110728119Y-91445941D01*
X110715258Y-91475139D01*
X110693597Y-91500537D01*
X110664272Y-91519337D01*
X110603370Y-91542977D01*
X110493806Y-91571978D01*
X110345438Y-91609804D01*
X110272156Y-91635847D01*
X110216729Y-91666619D01*
X110174389Y-91700702D01*
X110143073Y-91738063D01*
X110120086Y-91780946D01*
X110106154Y-91828092D01*
X110101369Y-91880579D01*
X110106400Y-91932590D01*
X110121486Y-91982559D01*
X110147164Y-92031338D01*
X110181473Y-92074350D01*
X110224870Y-92110942D01*
X110278628Y-92141369D01*
X110336965Y-92162838D01*
X110400981Y-92176066D01*
X110471641Y-92180631D01*
X110561755Y-92175712D01*
X110636923Y-92162021D01*
X110699459Y-92140819D01*
X110756852Y-92109396D01*
X110804523Y-92069620D01*
X110843562Y-92020957D01*
X110872753Y-91965631D01*
X110891090Y-91905658D01*
X110898578Y-91839912D01*
G37*
G36*
X131725717Y-88100912D02*
G01*
X131600665Y-88089921D01*
X131591598Y-88140120D01*
X131577656Y-88181566D01*
X131559388Y-88215645D01*
X131534857Y-88245220D01*
X131501800Y-88271705D01*
X131458637Y-88295085D01*
X131412194Y-88311635D01*
X131361192Y-88321845D01*
X131304887Y-88325371D01*
X131231840Y-88319438D01*
X131171042Y-88302779D01*
X131134170Y-88284987D01*
X131105833Y-88264302D01*
X131084641Y-88240802D01*
X131063271Y-88199343D01*
X131056247Y-88154768D01*
X131063186Y-88110214D01*
X131083603Y-88072275D01*
X131117374Y-88041414D01*
X131173728Y-88012985D01*
X131226317Y-87996246D01*
X131352025Y-87964014D01*
X131479052Y-87928522D01*
X131545344Y-87901305D01*
X131590584Y-87873085D01*
X131625757Y-87841948D01*
X131652261Y-87807821D01*
X131671722Y-87769329D01*
X131683440Y-87727927D01*
X131687432Y-87682830D01*
X131682683Y-87633358D01*
X131668496Y-87586248D01*
X131644445Y-87540680D01*
X131612007Y-87500793D01*
X131570562Y-87467406D01*
X131518721Y-87440296D01*
X131462658Y-87421551D01*
X131401651Y-87410013D01*
X131334928Y-87406041D01*
X131261393Y-87410297D01*
X131196318Y-87422478D01*
X131138557Y-87441945D01*
X131085254Y-87470235D01*
X131042084Y-87505308D01*
X131007765Y-87547458D01*
X130982084Y-87595584D01*
X130965679Y-87647838D01*
X130958550Y-87705178D01*
X131085618Y-87714764D01*
X131098683Y-87654122D01*
X131121958Y-87607135D01*
X131154983Y-87570966D01*
X131197133Y-87545418D01*
X131253861Y-87528573D01*
X131329494Y-87522301D01*
X131408862Y-87528223D01*
X131465382Y-87543706D01*
X131504738Y-87566387D01*
X131535984Y-87598780D01*
X131553760Y-87633762D01*
X131559693Y-87672693D01*
X131555258Y-87706941D01*
X131542398Y-87736139D01*
X131520736Y-87761537D01*
X131491411Y-87780337D01*
X131430510Y-87803977D01*
X131320946Y-87832978D01*
X131172577Y-87870804D01*
X131099295Y-87896847D01*
X131043869Y-87927619D01*
X131001528Y-87961702D01*
X130970213Y-87999063D01*
X130947225Y-88041946D01*
X130933293Y-88089092D01*
X130928508Y-88141579D01*
X130933539Y-88193590D01*
X130948625Y-88243559D01*
X130974304Y-88292338D01*
X131008613Y-88335350D01*
X131052009Y-88371942D01*
X131105768Y-88402369D01*
X131164104Y-88423838D01*
X131228121Y-88437066D01*
X131298781Y-88441631D01*
X131388894Y-88436712D01*
X131464063Y-88423021D01*
X131526598Y-88401819D01*
X131583991Y-88370396D01*
X131631662Y-88330620D01*
X131670701Y-88281957D01*
X131699893Y-88226631D01*
X131718230Y-88166658D01*
X131725717Y-88100912D01*
G37*
G36*
X130747585Y-88426000D02*
G01*
X130386228Y-88426000D01*
X130298152Y-88421462D01*
X130225394Y-88408903D01*
X130159055Y-88387123D01*
X130105837Y-88358527D01*
X130059313Y-88320165D01*
X130014674Y-88267425D01*
X129977882Y-88204349D01*
X129946347Y-88121184D01*
X129931952Y-88061668D01*
X129922855Y-87994382D01*
X129919663Y-87918341D01*
X129919772Y-87916265D01*
X130056317Y-87916265D01*
X130059565Y-87992417D01*
X130068628Y-88056770D01*
X130082634Y-88110926D01*
X130103380Y-88162728D01*
X130127924Y-88204886D01*
X130156029Y-88238787D01*
X130193956Y-88268028D01*
X130245850Y-88291177D01*
X130307665Y-88304449D01*
X130401249Y-88309740D01*
X130615084Y-88309740D01*
X130615084Y-87537933D01*
X130404669Y-87537933D01*
X130325012Y-87540857D01*
X130269818Y-87548319D01*
X130233210Y-87558632D01*
X130188049Y-87583070D01*
X130146430Y-87620302D01*
X130107913Y-87672693D01*
X130087050Y-87715343D01*
X130070857Y-87768671D01*
X130060200Y-87834827D01*
X130056317Y-87916265D01*
X129919772Y-87916265D01*
X129924319Y-87829466D01*
X129937664Y-87750288D01*
X129958986Y-87679593D01*
X129990099Y-87613222D01*
X130029505Y-87556395D01*
X130077444Y-87508013D01*
X130120149Y-87477260D01*
X130168822Y-87453270D01*
X130224356Y-87436083D01*
X130292748Y-87425864D01*
X130402654Y-87421673D01*
X130747585Y-87421673D01*
X130747585Y-88426000D01*
G37*
G36*
X129866540Y-88702360D02*
G01*
X129866540Y-88613578D01*
X129051563Y-88613578D01*
X129051563Y-88702360D01*
X129866540Y-88702360D01*
G37*
G36*
X128959728Y-88426000D02*
G01*
X128598371Y-88426000D01*
X128510294Y-88421462D01*
X128437537Y-88408903D01*
X128371197Y-88387123D01*
X128317980Y-88358527D01*
X128271455Y-88320165D01*
X128226816Y-88267425D01*
X128190024Y-88204349D01*
X128158489Y-88121184D01*
X128144094Y-88061668D01*
X128134998Y-87994382D01*
X128131806Y-87918341D01*
X128131915Y-87916265D01*
X128268460Y-87916265D01*
X128271708Y-87992417D01*
X128280771Y-88056770D01*
X128294777Y-88110926D01*
X128315522Y-88162728D01*
X128340067Y-88204886D01*
X128368172Y-88238787D01*
X128406098Y-88268028D01*
X128457992Y-88291177D01*
X128519807Y-88304449D01*
X128613391Y-88309740D01*
X128827226Y-88309740D01*
X128827226Y-87537933D01*
X128616811Y-87537933D01*
X128537154Y-87540857D01*
X128481960Y-87548319D01*
X128445352Y-87558632D01*
X128400191Y-87583070D01*
X128358572Y-87620302D01*
X128320056Y-87672693D01*
X128299192Y-87715343D01*
X128282999Y-87768671D01*
X128272342Y-87834827D01*
X128268460Y-87916265D01*
X128131915Y-87916265D01*
X128136461Y-87829466D01*
X128149806Y-87750288D01*
X128171129Y-87679593D01*
X128202241Y-87613222D01*
X128241647Y-87556395D01*
X128289587Y-87508013D01*
X128332291Y-87477260D01*
X128380964Y-87453270D01*
X128436499Y-87436083D01*
X128504891Y-87425864D01*
X128614796Y-87421673D01*
X128959728Y-87421673D01*
X128959728Y-88426000D01*
G37*
G36*
X127946853Y-88426000D02*
G01*
X127946853Y-87421673D01*
X127222734Y-87421673D01*
X127222734Y-87537933D01*
X127814290Y-87537933D01*
X127814290Y-87847632D01*
X127260286Y-87847632D01*
X127260286Y-87963892D01*
X127814290Y-87963892D01*
X127814290Y-88309740D01*
X127199470Y-88309740D01*
X127199470Y-88426000D01*
X127946853Y-88426000D01*
G37*
G36*
X126301999Y-88074290D02*
G01*
X126169498Y-88107751D01*
X126195786Y-88187513D01*
X126229707Y-88254386D01*
X126270885Y-88310153D01*
X126319463Y-88356146D01*
X126375591Y-88393004D01*
X126437658Y-88419572D01*
X126506732Y-88435954D01*
X126584161Y-88441631D01*
X126665820Y-88436991D01*
X126735855Y-88423901D01*
X126795942Y-88403309D01*
X126847516Y-88375747D01*
X126894477Y-88339732D01*
X126935701Y-88296414D01*
X126971496Y-88245102D01*
X127001877Y-88184810D01*
X127031113Y-88100049D01*
X127048813Y-88010848D01*
X127054817Y-87916326D01*
X127047744Y-87813440D01*
X127027509Y-87723128D01*
X126995038Y-87643445D01*
X126961522Y-87588037D01*
X126922196Y-87540515D01*
X126876834Y-87500145D01*
X126824923Y-87466491D01*
X126749391Y-87433075D01*
X126668853Y-87412903D01*
X126582085Y-87406041D01*
X126507355Y-87411155D01*
X126441148Y-87425844D01*
X126382167Y-87449507D01*
X126329355Y-87482062D01*
X126282691Y-87523186D01*
X126243499Y-87571870D01*
X126211435Y-87628973D01*
X126186595Y-87695713D01*
X126317020Y-87726488D01*
X126345558Y-87657018D01*
X126379399Y-87605319D01*
X126418137Y-87568035D01*
X126464610Y-87541099D01*
X126519497Y-87524321D01*
X126584833Y-87518393D01*
X126660057Y-87525012D01*
X126723658Y-87543775D01*
X126777845Y-87573897D01*
X126824296Y-87614986D01*
X126860407Y-87664226D01*
X126886778Y-87722824D01*
X126904212Y-87785781D01*
X126914662Y-87849917D01*
X126918163Y-87915593D01*
X126913701Y-88000435D01*
X126901028Y-88074516D01*
X126880977Y-88139258D01*
X126850781Y-88198770D01*
X126812327Y-88245777D01*
X126765206Y-88282018D01*
X126711214Y-88308336D01*
X126654808Y-88324004D01*
X126595091Y-88329279D01*
X126540145Y-88325043D01*
X126491024Y-88312795D01*
X126446743Y-88292854D01*
X126406535Y-88265043D01*
X126372411Y-88230664D01*
X126343529Y-88188301D01*
X126319910Y-88136713D01*
X126301999Y-88074290D01*
G37*
G36*
X125751537Y-88426000D02*
G01*
X125751537Y-87537933D01*
X126081509Y-87537933D01*
X126081509Y-87421673D01*
X125287720Y-87421673D01*
X125287720Y-87537933D01*
X125619035Y-87537933D01*
X125619035Y-88426000D01*
X125751537Y-88426000D01*
G37*
G36*
X103699639Y-103661000D02*
G01*
X103165419Y-103661000D01*
X103026750Y-103647322D01*
X102953772Y-103632732D01*
X102909269Y-103614471D01*
X102870208Y-103587333D01*
X102837363Y-103554676D01*
X102810229Y-103516041D01*
X102790280Y-103473250D01*
X102778168Y-103426799D01*
X102774020Y-103375846D01*
X102777367Y-103341408D01*
X103084147Y-103341408D01*
X103087968Y-103371823D01*
X103098870Y-103396818D01*
X103116937Y-103417673D01*
X103140714Y-103432094D01*
X103176771Y-103442147D01*
X103229655Y-103446066D01*
X103387436Y-103446066D01*
X103387436Y-103242856D01*
X103230326Y-103242856D01*
X103176362Y-103246640D01*
X103140088Y-103256269D01*
X103116631Y-103269906D01*
X103098612Y-103289803D01*
X103087876Y-103313255D01*
X103084147Y-103341408D01*
X102777367Y-103341408D01*
X102780049Y-103313806D01*
X102797191Y-103261460D01*
X102824944Y-103216844D01*
X102862880Y-103180513D01*
X102914677Y-103150560D01*
X102983702Y-103127573D01*
X102938025Y-103108197D01*
X102902610Y-103085872D01*
X102875747Y-103060834D01*
X102845113Y-103016047D01*
X102826741Y-102965980D01*
X102825586Y-102955565D01*
X103123775Y-102955565D01*
X103127210Y-102985316D01*
X103136756Y-103008537D01*
X103152108Y-103026762D01*
X103172717Y-103039163D01*
X103204817Y-103047921D01*
X103252858Y-103051369D01*
X103387436Y-103051369D01*
X103387436Y-102863791D01*
X103250843Y-102863791D01*
X103204185Y-102867170D01*
X103172655Y-102875798D01*
X103152108Y-102888093D01*
X103136600Y-102906016D01*
X103127131Y-102928085D01*
X103123775Y-102955565D01*
X102825586Y-102955565D01*
X102820426Y-102909037D01*
X102825379Y-102857881D01*
X102839816Y-102812034D01*
X102863737Y-102770358D01*
X102897973Y-102732083D01*
X102938463Y-102702234D01*
X102987743Y-102679975D01*
X103047616Y-102665707D01*
X103120356Y-102660581D01*
X103699639Y-102660581D01*
X103699639Y-103661000D01*
G37*
G36*
X102682306Y-102660581D02*
G01*
X101741666Y-102660581D01*
X101741666Y-102906778D01*
X102057289Y-102906778D01*
X102057289Y-103661000D01*
X102366745Y-103661000D01*
X102366745Y-102906778D01*
X102682306Y-102906778D01*
X102682306Y-102660581D01*
G37*
G36*
X101016326Y-102644949D02*
G01*
X101016326Y-103661000D01*
X101297755Y-103661000D01*
X101297755Y-102996720D01*
X101366539Y-103044376D01*
X101429951Y-103080190D01*
X101498354Y-103110017D01*
X101590175Y-103141251D01*
X101590175Y-102914593D01*
X101496967Y-102879473D01*
X101424574Y-102842482D01*
X101369501Y-102804135D01*
X101321038Y-102757931D01*
X101280157Y-102705089D01*
X101246525Y-102644949D01*
X101016326Y-102644949D01*
G37*
X111950428Y-103365700D02*
X110807571Y-103365700D01*
X111378999Y-103937128D02*
X111378999Y-102794271D01*
G36*
X126628122Y-92415000D02*
G01*
X126266765Y-92415000D01*
X126178689Y-92410462D01*
X126105931Y-92397903D01*
X126039591Y-92376123D01*
X125986374Y-92347527D01*
X125939850Y-92309165D01*
X125895210Y-92256425D01*
X125858419Y-92193349D01*
X125826884Y-92110184D01*
X125812488Y-92050668D01*
X125803392Y-91983382D01*
X125800200Y-91907341D01*
X125800309Y-91905265D01*
X125936854Y-91905265D01*
X125940102Y-91981417D01*
X125949165Y-92045770D01*
X125963171Y-92099926D01*
X125983916Y-92151728D01*
X126008461Y-92193886D01*
X126036566Y-92227787D01*
X126074492Y-92257028D01*
X126126386Y-92280177D01*
X126188202Y-92293449D01*
X126281786Y-92298740D01*
X126495620Y-92298740D01*
X126495620Y-91526933D01*
X126285205Y-91526933D01*
X126205549Y-91529857D01*
X126150354Y-91537319D01*
X126113747Y-91547632D01*
X126068586Y-91572070D01*
X126026967Y-91609302D01*
X125988450Y-91661693D01*
X125967587Y-91704343D01*
X125951394Y-91757671D01*
X125940736Y-91823827D01*
X125936854Y-91905265D01*
X125800309Y-91905265D01*
X125804856Y-91818466D01*
X125818201Y-91739288D01*
X125839523Y-91668593D01*
X125870635Y-91602222D01*
X125910041Y-91545395D01*
X125957981Y-91497013D01*
X126000685Y-91466260D01*
X126049358Y-91442270D01*
X126104893Y-91425083D01*
X126173285Y-91414864D01*
X126283190Y-91410673D01*
X126628122Y-91410673D01*
X126628122Y-92415000D01*
G37*
G36*
X125727965Y-92415000D02*
G01*
X125587220Y-92415000D01*
X125477250Y-92110184D01*
X125058496Y-92110184D01*
X124941686Y-92415000D01*
X124790683Y-92415000D01*
X124959747Y-92000764D01*
X125099467Y-92000764D01*
X125438965Y-92000764D01*
X125328994Y-91707123D01*
X125297971Y-91611495D01*
X125275017Y-91515881D01*
X125247682Y-91602490D01*
X125204003Y-91723487D01*
X125099467Y-92000764D01*
X124959747Y-92000764D01*
X125200584Y-91410673D01*
X125343344Y-91410673D01*
X125727965Y-92415000D01*
G37*
G36*
X124533679Y-92415000D02*
G01*
X124533679Y-91526933D01*
X124863651Y-91526933D01*
X124863651Y-91410673D01*
X124069862Y-91410673D01*
X124069862Y-91526933D01*
X124401177Y-91526933D01*
X124401177Y-92415000D01*
X124533679Y-92415000D01*
G37*
G36*
X123520376Y-92415000D02*
G01*
X123643352Y-92415000D01*
X123643352Y-91629392D01*
X123692287Y-91670107D01*
X123759795Y-91714328D01*
X123830840Y-91752769D01*
X123889244Y-91778014D01*
X123889244Y-91660778D01*
X123822361Y-91625197D01*
X123762439Y-91585621D01*
X123708932Y-91542076D01*
X123659842Y-91493154D01*
X123624140Y-91448243D01*
X123599633Y-91406765D01*
X123520376Y-91406765D01*
X123520376Y-92415000D01*
G37*
G36*
X116183992Y-88415000D02*
G01*
X116183992Y-87410673D01*
X115984568Y-87410673D01*
X115747530Y-88122091D01*
X115699720Y-88270835D01*
X115646414Y-88109757D01*
X115406628Y-87410673D01*
X115228331Y-87410673D01*
X115228331Y-88415000D01*
X115356070Y-88415000D01*
X115356070Y-87573949D01*
X115647085Y-88415000D01*
X115766642Y-88415000D01*
X116056253Y-87559600D01*
X116056253Y-88415000D01*
X116183992Y-88415000D01*
G37*
G36*
X114659169Y-87401034D02*
G01*
X114734513Y-87418356D01*
X114802560Y-87446473D01*
X114864409Y-87485468D01*
X114920829Y-87536031D01*
X114967312Y-87594169D01*
X115004157Y-87660828D01*
X115031430Y-87737258D01*
X115048622Y-87825065D01*
X115054674Y-87926147D01*
X115048273Y-88012681D01*
X115029223Y-88095661D01*
X114997338Y-88176008D01*
X114965059Y-88232254D01*
X114926404Y-88281707D01*
X114881106Y-88324960D01*
X114828628Y-88362365D01*
X114771661Y-88391973D01*
X114710986Y-88413227D01*
X114645962Y-88426198D01*
X114575836Y-88430631D01*
X114490428Y-88423700D01*
X114409736Y-88403162D01*
X114332631Y-88368838D01*
X114279655Y-88334431D01*
X114233261Y-88293013D01*
X114192943Y-88244108D01*
X114158486Y-88186938D01*
X114124814Y-88104813D01*
X114104132Y-88014529D01*
X114096998Y-87914546D01*
X114097069Y-87913508D01*
X114233591Y-87913508D01*
X114240484Y-88010719D01*
X114259715Y-88091154D01*
X114289800Y-88157747D01*
X114330250Y-88212827D01*
X114382007Y-88259048D01*
X114439426Y-88291608D01*
X114503687Y-88311429D01*
X114576508Y-88318279D01*
X114647920Y-88311543D01*
X114711440Y-88291985D01*
X114768680Y-88259749D01*
X114820751Y-88213866D01*
X114861957Y-88159127D01*
X114892207Y-88094583D01*
X114911304Y-88018330D01*
X114918082Y-87927918D01*
X114913028Y-87833167D01*
X114899120Y-87756130D01*
X114877878Y-87693893D01*
X114850273Y-87643950D01*
X114816660Y-87604296D01*
X114762991Y-87561590D01*
X114705417Y-87531635D01*
X114643011Y-87513566D01*
X114574493Y-87507393D01*
X114509898Y-87513118D01*
X114450724Y-87529906D01*
X114395829Y-87557768D01*
X114347371Y-87595562D01*
X114307231Y-87642434D01*
X114274929Y-87699551D01*
X114252554Y-87761789D01*
X114238515Y-87832630D01*
X114233591Y-87913508D01*
X114097069Y-87913508D01*
X114103796Y-87815781D01*
X114123474Y-87726743D01*
X114155433Y-87645940D01*
X114188242Y-87589523D01*
X114227259Y-87540330D01*
X114272732Y-87497715D01*
X114325182Y-87461292D01*
X114382065Y-87432511D01*
X114442281Y-87411884D01*
X114506419Y-87399324D01*
X114575165Y-87395041D01*
X114659169Y-87401034D01*
G37*
G36*
X113971152Y-88089912D02*
G01*
X113846100Y-88078921D01*
X113837033Y-88129120D01*
X113823091Y-88170566D01*
X113804823Y-88204645D01*
X113780292Y-88234220D01*
X113747235Y-88260705D01*
X113704072Y-88284085D01*
X113657629Y-88300635D01*
X113606627Y-88310845D01*
X113550322Y-88314371D01*
X113477275Y-88308438D01*
X113416477Y-88291779D01*
X113379605Y-88273987D01*
X113351268Y-88253302D01*
X113330076Y-88229802D01*
X113308706Y-88188343D01*
X113301682Y-88143768D01*
X113308621Y-88099214D01*
X113329038Y-88061275D01*
X113362809Y-88030414D01*
X113419163Y-88001985D01*
X113471752Y-87985246D01*
X113597460Y-87953014D01*
X113724487Y-87917522D01*
X113790779Y-87890305D01*
X113836019Y-87862085D01*
X113871192Y-87830948D01*
X113897696Y-87796821D01*
X113917157Y-87758329D01*
X113928875Y-87716927D01*
X113932867Y-87671830D01*
X113928118Y-87622358D01*
X113913931Y-87575248D01*
X113889880Y-87529680D01*
X113857442Y-87489793D01*
X113815997Y-87456406D01*
X113764156Y-87429296D01*
X113708093Y-87410551D01*
X113647086Y-87399013D01*
X113580363Y-87395041D01*
X113506828Y-87399297D01*
X113441753Y-87411478D01*
X113383992Y-87430945D01*
X113330689Y-87459235D01*
X113287519Y-87494308D01*
X113253200Y-87536458D01*
X113227519Y-87584584D01*
X113211114Y-87636838D01*
X113203985Y-87694178D01*
X113331053Y-87703764D01*
X113344118Y-87643122D01*
X113367393Y-87596135D01*
X113400418Y-87559966D01*
X113442568Y-87534418D01*
X113499296Y-87517573D01*
X113574929Y-87511301D01*
X113654297Y-87517223D01*
X113710817Y-87532706D01*
X113750173Y-87555387D01*
X113781419Y-87587780D01*
X113799195Y-87622762D01*
X113805128Y-87661693D01*
X113800693Y-87695941D01*
X113787833Y-87725139D01*
X113766171Y-87750537D01*
X113736846Y-87769337D01*
X113675945Y-87792977D01*
X113566381Y-87821978D01*
X113418012Y-87859804D01*
X113344730Y-87885847D01*
X113289304Y-87916619D01*
X113246963Y-87950702D01*
X113215648Y-87988063D01*
X113192660Y-88030946D01*
X113178729Y-88078092D01*
X113173943Y-88130579D01*
X113178974Y-88182590D01*
X113194060Y-88232559D01*
X113219739Y-88281338D01*
X113254048Y-88324350D01*
X113297444Y-88360942D01*
X113351203Y-88391369D01*
X113409539Y-88412838D01*
X113473556Y-88426066D01*
X113544216Y-88430631D01*
X113634329Y-88425712D01*
X113709498Y-88412021D01*
X113772033Y-88390819D01*
X113829426Y-88359396D01*
X113877097Y-88319620D01*
X113916136Y-88270957D01*
X113945328Y-88215631D01*
X113963665Y-88155658D01*
X113971152Y-88089912D01*
G37*
G36*
X112970489Y-88415000D02*
G01*
X112970489Y-87410673D01*
X112837987Y-87410673D01*
X112837987Y-88415000D01*
X112970489Y-88415000D01*
G37*
G36*
X84334079Y-108307742D02*
G01*
X81709057Y-108307742D01*
X81709057Y-107852920D01*
X81820168Y-107852920D01*
X81842760Y-107926829D01*
X81871588Y-107989645D01*
X81906264Y-108042819D01*
X81948743Y-108089622D01*
X81997162Y-108127788D01*
X82052138Y-108157857D01*
X82111482Y-108178379D01*
X82184470Y-108191773D01*
X82273788Y-108196631D01*
X82382174Y-108190676D01*
X82469932Y-108174321D01*
X82540563Y-108149370D01*
X82588849Y-108122392D01*
X82634557Y-108086407D01*
X82677988Y-108040423D01*
X82719226Y-107983102D01*
X82734217Y-107954342D01*
X82921948Y-107954342D01*
X82921948Y-108181000D01*
X83756709Y-108181000D01*
X83912841Y-108181000D01*
X84222968Y-108181000D01*
X84222968Y-107180581D01*
X83912841Y-107180581D01*
X83912841Y-108181000D01*
X83756709Y-108181000D01*
X83740801Y-108100907D01*
X83712004Y-108023849D01*
X83669636Y-107948969D01*
X83615322Y-107881125D01*
X83527715Y-107796877D01*
X83396695Y-107692758D01*
X83287311Y-107605129D01*
X83240257Y-107555494D01*
X83213960Y-107507951D01*
X83206124Y-107466528D01*
X83209896Y-107437592D01*
X83221001Y-107411967D01*
X83239952Y-107388737D01*
X83264169Y-107370938D01*
X83292155Y-107360177D01*
X83325010Y-107356436D01*
X83359115Y-107360360D01*
X83387725Y-107371586D01*
X83412082Y-107390080D01*
X83430367Y-107414879D01*
X83445895Y-107452940D01*
X83457511Y-107508843D01*
X83736192Y-107486190D01*
X83720977Y-107408317D01*
X83700597Y-107347961D01*
X83676109Y-107301908D01*
X83643438Y-107261636D01*
X83602709Y-107227864D01*
X83552827Y-107200303D01*
X83498445Y-107181993D01*
X83426417Y-107169587D01*
X83332520Y-107164949D01*
X83234231Y-107169374D01*
X83159609Y-107181142D01*
X83104031Y-107198349D01*
X83052914Y-107224966D01*
X83010449Y-107259036D01*
X82975620Y-107300993D01*
X82949631Y-107348902D01*
X82934072Y-107400250D01*
X82928787Y-107456087D01*
X82934621Y-107515471D01*
X82952227Y-107573338D01*
X82982398Y-107630659D01*
X83022628Y-107682175D01*
X83085528Y-107742420D01*
X83177426Y-107812987D01*
X83289839Y-107893892D01*
X83356395Y-107954342D01*
X82921948Y-107954342D01*
X82734217Y-107954342D01*
X82750720Y-107922682D01*
X82774193Y-107852831D01*
X82789073Y-107772006D01*
X82794331Y-107678409D01*
X82788271Y-107577668D01*
X82771147Y-107491181D01*
X82744130Y-107416846D01*
X82707804Y-107352890D01*
X82662134Y-107297939D01*
X82607331Y-107251774D01*
X82543993Y-107215200D01*
X82470846Y-107188105D01*
X82386224Y-107170990D01*
X82288138Y-107164949D01*
X82192206Y-107170466D01*
X82112263Y-107185834D01*
X82045790Y-107209679D01*
X81990650Y-107241214D01*
X81941734Y-107282661D01*
X81898631Y-107334495D01*
X81861202Y-107398132D01*
X81829755Y-107475443D01*
X82103002Y-107536198D01*
X82118870Y-107494008D01*
X82133043Y-107469276D01*
X82162074Y-107437704D01*
X82196608Y-107414627D01*
X82235882Y-107400408D01*
X82280627Y-107395515D01*
X82331234Y-107401041D01*
X82373941Y-107416842D01*
X82410476Y-107442757D01*
X82441827Y-107479961D01*
X82463469Y-107524040D01*
X82478448Y-107587542D01*
X82484204Y-107676699D01*
X82479985Y-107763966D01*
X82468936Y-107827736D01*
X82453052Y-107873124D01*
X82433645Y-107904456D01*
X82406253Y-107931069D01*
X82374142Y-107950094D01*
X82336372Y-107961903D01*
X82291557Y-107966066D01*
X82234489Y-107959885D01*
X82190806Y-107942911D01*
X82157346Y-107916057D01*
X82131346Y-107880277D01*
X82109134Y-107832719D01*
X82091400Y-107770672D01*
X81820168Y-107852920D01*
X81709057Y-107852920D01*
X81709057Y-107053838D01*
X84334079Y-107053838D01*
X84334079Y-108307742D01*
G37*
G36*
X123183992Y-88415000D02*
G01*
X123183992Y-87410673D01*
X122984568Y-87410673D01*
X122747530Y-88122091D01*
X122699720Y-88270835D01*
X122646414Y-88109757D01*
X122406628Y-87410673D01*
X122228331Y-87410673D01*
X122228331Y-88415000D01*
X122356070Y-88415000D01*
X122356070Y-87573949D01*
X122647085Y-88415000D01*
X122766642Y-88415000D01*
X123056253Y-87559600D01*
X123056253Y-88415000D01*
X123183992Y-88415000D01*
G37*
G36*
X121991843Y-88415000D02*
G01*
X121991843Y-87410673D01*
X121859341Y-87410673D01*
X121859341Y-88415000D01*
X121991843Y-88415000D01*
G37*
G36*
X121670664Y-88089912D02*
G01*
X121545611Y-88078921D01*
X121536544Y-88129120D01*
X121522603Y-88170566D01*
X121504334Y-88204645D01*
X121479804Y-88234220D01*
X121446746Y-88260705D01*
X121403584Y-88284085D01*
X121357140Y-88300635D01*
X121306139Y-88310845D01*
X121249833Y-88314371D01*
X121176786Y-88308438D01*
X121115988Y-88291779D01*
X121079117Y-88273987D01*
X121050779Y-88253302D01*
X121029587Y-88229802D01*
X121008217Y-88188343D01*
X121001194Y-88143768D01*
X121008133Y-88099214D01*
X121028549Y-88061275D01*
X121062321Y-88030414D01*
X121118675Y-88001985D01*
X121171263Y-87985246D01*
X121296972Y-87953014D01*
X121423998Y-87917522D01*
X121490290Y-87890305D01*
X121535530Y-87862085D01*
X121570703Y-87830948D01*
X121597208Y-87796821D01*
X121616669Y-87758329D01*
X121628386Y-87716927D01*
X121632378Y-87671830D01*
X121627629Y-87622358D01*
X121613442Y-87575248D01*
X121589392Y-87529680D01*
X121556953Y-87489793D01*
X121515508Y-87456406D01*
X121463668Y-87429296D01*
X121407605Y-87410551D01*
X121346597Y-87399013D01*
X121279875Y-87395041D01*
X121206340Y-87399297D01*
X121141264Y-87411478D01*
X121083504Y-87430945D01*
X121030200Y-87459235D01*
X120987030Y-87494308D01*
X120952712Y-87536458D01*
X120927030Y-87584584D01*
X120910626Y-87636838D01*
X120903497Y-87694178D01*
X121030564Y-87703764D01*
X121043630Y-87643122D01*
X121066904Y-87596135D01*
X121099929Y-87559966D01*
X121142080Y-87534418D01*
X121198807Y-87517573D01*
X121274441Y-87511301D01*
X121353809Y-87517223D01*
X121410328Y-87532706D01*
X121449685Y-87555387D01*
X121480930Y-87587780D01*
X121498706Y-87622762D01*
X121504639Y-87661693D01*
X121500205Y-87695941D01*
X121487344Y-87725139D01*
X121465683Y-87750537D01*
X121436358Y-87769337D01*
X121375456Y-87792977D01*
X121265892Y-87821978D01*
X121117523Y-87859804D01*
X121044242Y-87885847D01*
X120988815Y-87916619D01*
X120946475Y-87950702D01*
X120915159Y-87988063D01*
X120892172Y-88030946D01*
X120878240Y-88078092D01*
X120873455Y-88130579D01*
X120878486Y-88182590D01*
X120893572Y-88232559D01*
X120919250Y-88281338D01*
X120953559Y-88324350D01*
X120996956Y-88360942D01*
X121050714Y-88391369D01*
X121109051Y-88412838D01*
X121173067Y-88426066D01*
X121243727Y-88430631D01*
X121333841Y-88425712D01*
X121409009Y-88412021D01*
X121471545Y-88390819D01*
X121528938Y-88359396D01*
X121576609Y-88319620D01*
X121615648Y-88270957D01*
X121644839Y-88215631D01*
X121663176Y-88155658D01*
X121670664Y-88089912D01*
G37*
G36*
X120337327Y-87401034D02*
G01*
X120412671Y-87418356D01*
X120480718Y-87446473D01*
X120542566Y-87485468D01*
X120598987Y-87536031D01*
X120645470Y-87594169D01*
X120682315Y-87660828D01*
X120709588Y-87737258D01*
X120726780Y-87825065D01*
X120732832Y-87926147D01*
X120726430Y-88012681D01*
X120707380Y-88095661D01*
X120675496Y-88176008D01*
X120643217Y-88232254D01*
X120604562Y-88281707D01*
X120559263Y-88324960D01*
X120506785Y-88362365D01*
X120449819Y-88391973D01*
X120389144Y-88413227D01*
X120324120Y-88426198D01*
X120253994Y-88430631D01*
X120168586Y-88423700D01*
X120087894Y-88403162D01*
X120010789Y-88368838D01*
X119957812Y-88334431D01*
X119911418Y-88293013D01*
X119871100Y-88244108D01*
X119836644Y-88186938D01*
X119802972Y-88104813D01*
X119782290Y-88014529D01*
X119775156Y-87914546D01*
X119775227Y-87913508D01*
X119911749Y-87913508D01*
X119918641Y-88010719D01*
X119937872Y-88091154D01*
X119967958Y-88157747D01*
X120008408Y-88212827D01*
X120060165Y-88259048D01*
X120117584Y-88291608D01*
X120181845Y-88311429D01*
X120254666Y-88318279D01*
X120326077Y-88311543D01*
X120389597Y-88291985D01*
X120446838Y-88259749D01*
X120498908Y-88213866D01*
X120540114Y-88159127D01*
X120570365Y-88094583D01*
X120589462Y-88018330D01*
X120596239Y-87927918D01*
X120591185Y-87833167D01*
X120577278Y-87756130D01*
X120556036Y-87693893D01*
X120528431Y-87643950D01*
X120494817Y-87604296D01*
X120441148Y-87561590D01*
X120383575Y-87531635D01*
X120321169Y-87513566D01*
X120252651Y-87507393D01*
X120188055Y-87513118D01*
X120128882Y-87529906D01*
X120073987Y-87557768D01*
X120025529Y-87595562D01*
X119985388Y-87642434D01*
X119953087Y-87699551D01*
X119930712Y-87761789D01*
X119916672Y-87832630D01*
X119911749Y-87913508D01*
X119775227Y-87913508D01*
X119781954Y-87815781D01*
X119801632Y-87726743D01*
X119833591Y-87645940D01*
X119866400Y-87589523D01*
X119905417Y-87540330D01*
X119950890Y-87497715D01*
X120003340Y-87461292D01*
X120060222Y-87432511D01*
X120120439Y-87411884D01*
X120184577Y-87399324D01*
X120253322Y-87395041D01*
X120337327Y-87401034D01*
G37*
G36*
X120619442Y-91839912D02*
G01*
X120494390Y-91828921D01*
X120485323Y-91879120D01*
X120471381Y-91920566D01*
X120453113Y-91954645D01*
X120428582Y-91984220D01*
X120395525Y-92010705D01*
X120352362Y-92034085D01*
X120305919Y-92050635D01*
X120254917Y-92060845D01*
X120198612Y-92064371D01*
X120125565Y-92058438D01*
X120064767Y-92041779D01*
X120027895Y-92023987D01*
X119999558Y-92003302D01*
X119978366Y-91979802D01*
X119956996Y-91938343D01*
X119949972Y-91893768D01*
X119956911Y-91849214D01*
X119977328Y-91811275D01*
X120011099Y-91780414D01*
X120067453Y-91751985D01*
X120120042Y-91735246D01*
X120245750Y-91703014D01*
X120372777Y-91667522D01*
X120439069Y-91640305D01*
X120484309Y-91612085D01*
X120519482Y-91580948D01*
X120545986Y-91546821D01*
X120565447Y-91508329D01*
X120577165Y-91466927D01*
X120581157Y-91421830D01*
X120576408Y-91372358D01*
X120562221Y-91325248D01*
X120538170Y-91279680D01*
X120505732Y-91239793D01*
X120464287Y-91206406D01*
X120412446Y-91179296D01*
X120356383Y-91160551D01*
X120295376Y-91149013D01*
X120228653Y-91145041D01*
X120155118Y-91149297D01*
X120090043Y-91161478D01*
X120032282Y-91180945D01*
X119978979Y-91209235D01*
X119935809Y-91244308D01*
X119901490Y-91286458D01*
X119875809Y-91334584D01*
X119859404Y-91386838D01*
X119852275Y-91444178D01*
X119979343Y-91453764D01*
X119992408Y-91393122D01*
X120015683Y-91346135D01*
X120048708Y-91309966D01*
X120090858Y-91284418D01*
X120147586Y-91267573D01*
X120223219Y-91261301D01*
X120302587Y-91267223D01*
X120359107Y-91282706D01*
X120398463Y-91305387D01*
X120429709Y-91337780D01*
X120447485Y-91372762D01*
X120453418Y-91411693D01*
X120448983Y-91445941D01*
X120436123Y-91475139D01*
X120414461Y-91500537D01*
X120385136Y-91519337D01*
X120324235Y-91542977D01*
X120214671Y-91571978D01*
X120066302Y-91609804D01*
X119993020Y-91635847D01*
X119937594Y-91666619D01*
X119895253Y-91700702D01*
X119863938Y-91738063D01*
X119840950Y-91780946D01*
X119827018Y-91828092D01*
X119822233Y-91880579D01*
X119827264Y-91932590D01*
X119842350Y-91982559D01*
X119868029Y-92031338D01*
X119902338Y-92074350D01*
X119945734Y-92110942D01*
X119999493Y-92141369D01*
X120057829Y-92162838D01*
X120121846Y-92176066D01*
X120192506Y-92180631D01*
X120282619Y-92175712D01*
X120357788Y-92162021D01*
X120420323Y-92140819D01*
X120477716Y-92109396D01*
X120525387Y-92069620D01*
X120564426Y-92020957D01*
X120593618Y-91965631D01*
X120611955Y-91905658D01*
X120619442Y-91839912D01*
G37*
G36*
X119641310Y-92165000D02*
G01*
X119508809Y-92165000D01*
X119508809Y-91753695D01*
X119251926Y-91753695D01*
X119162075Y-91749130D01*
X119090792Y-91736716D01*
X119034832Y-91718032D01*
X118991393Y-91694133D01*
X118958224Y-91665462D01*
X118922757Y-91619008D01*
X118897587Y-91568204D01*
X118882239Y-91512158D01*
X118877298Y-91453764D01*
X119013545Y-91453764D01*
X119020029Y-91509623D01*
X119038169Y-91553915D01*
X119067523Y-91589319D01*
X119095360Y-91608418D01*
X119133170Y-91623474D01*
X119183618Y-91633635D01*
X119249911Y-91637435D01*
X119508809Y-91637435D01*
X119508809Y-91276933D01*
X119252659Y-91276933D01*
X119169521Y-91279721D01*
X119129011Y-91285847D01*
X119096595Y-91298905D01*
X119068915Y-91318554D01*
X119045297Y-91345382D01*
X119027937Y-91376779D01*
X119017264Y-91412561D01*
X119013545Y-91453764D01*
X118877298Y-91453764D01*
X118876952Y-91449673D01*
X118880426Y-91400852D01*
X118890605Y-91355627D01*
X118907361Y-91313386D01*
X118930355Y-91274250D01*
X118957064Y-91242378D01*
X118987595Y-91216910D01*
X119041814Y-91188636D01*
X119111242Y-91170198D01*
X119169726Y-91163442D01*
X119263589Y-91160673D01*
X119641310Y-91160673D01*
X119641310Y-92165000D01*
G37*
G36*
X118685771Y-92165000D02*
G01*
X118685771Y-91160673D01*
X118553270Y-91160673D01*
X118553270Y-92165000D01*
X118685771Y-92165000D01*
G37*
G36*
X117975757Y-91839912D02*
G01*
X117850705Y-91828921D01*
X117841638Y-91879120D01*
X117827697Y-91920566D01*
X117809428Y-91954645D01*
X117784897Y-91984220D01*
X117751840Y-92010705D01*
X117708678Y-92034085D01*
X117662234Y-92050635D01*
X117611233Y-92060845D01*
X117554927Y-92064371D01*
X117481880Y-92058438D01*
X117421082Y-92041779D01*
X117384211Y-92023987D01*
X117355873Y-92003302D01*
X117334681Y-91979802D01*
X117313311Y-91938343D01*
X117306288Y-91893768D01*
X117313227Y-91849214D01*
X117333643Y-91811275D01*
X117367415Y-91780414D01*
X117423769Y-91751985D01*
X117476357Y-91735246D01*
X117602066Y-91703014D01*
X117729092Y-91667522D01*
X117795384Y-91640305D01*
X117840624Y-91612085D01*
X117875797Y-91580948D01*
X117902301Y-91546821D01*
X117921763Y-91508329D01*
X117933480Y-91466927D01*
X117937472Y-91421830D01*
X117932723Y-91372358D01*
X117918536Y-91325248D01*
X117894486Y-91279680D01*
X117862047Y-91239793D01*
X117820602Y-91206406D01*
X117768762Y-91179296D01*
X117712699Y-91160551D01*
X117651691Y-91149013D01*
X117584969Y-91145041D01*
X117511433Y-91149297D01*
X117446358Y-91161478D01*
X117388598Y-91180945D01*
X117335294Y-91209235D01*
X117292124Y-91244308D01*
X117257806Y-91286458D01*
X117232124Y-91334584D01*
X117215720Y-91386838D01*
X117208591Y-91444178D01*
X117335658Y-91453764D01*
X117348724Y-91393122D01*
X117371998Y-91346135D01*
X117405023Y-91309966D01*
X117447174Y-91284418D01*
X117503901Y-91267573D01*
X117579534Y-91261301D01*
X117658903Y-91267223D01*
X117715422Y-91282706D01*
X117754779Y-91305387D01*
X117786024Y-91337780D01*
X117803800Y-91372762D01*
X117809733Y-91411693D01*
X117805299Y-91445941D01*
X117792438Y-91475139D01*
X117770777Y-91500537D01*
X117741452Y-91519337D01*
X117680550Y-91542977D01*
X117570986Y-91571978D01*
X117422617Y-91609804D01*
X117349336Y-91635847D01*
X117293909Y-91666619D01*
X117251569Y-91700702D01*
X117220253Y-91738063D01*
X117197266Y-91780946D01*
X117183334Y-91828092D01*
X117178549Y-91880579D01*
X117183580Y-91932590D01*
X117198666Y-91982559D01*
X117224344Y-92031338D01*
X117258653Y-92074350D01*
X117302050Y-92110942D01*
X117355808Y-92141369D01*
X117414144Y-92162838D01*
X117478161Y-92176066D01*
X117548821Y-92180631D01*
X117638935Y-92175712D01*
X117714103Y-92162021D01*
X117776638Y-92140819D01*
X117834032Y-92109396D01*
X117881703Y-92069620D01*
X117920742Y-92020957D01*
X117949933Y-91965631D01*
X117968270Y-91905658D01*
X117975757Y-91839912D01*
G37*
G36*
X116283093Y-91813290D02*
G01*
X116150592Y-91846751D01*
X116176880Y-91926513D01*
X116210801Y-91993386D01*
X116251979Y-92049153D01*
X116300557Y-92095146D01*
X116356686Y-92132004D01*
X116418752Y-92158572D01*
X116487827Y-92174954D01*
X116565255Y-92180631D01*
X116646914Y-92175991D01*
X116716949Y-92162901D01*
X116777036Y-92142309D01*
X116828610Y-92114747D01*
X116875571Y-92078732D01*
X116916795Y-92035414D01*
X116952590Y-91984102D01*
X116982971Y-91923810D01*
X117012207Y-91839049D01*
X117029907Y-91749848D01*
X117035911Y-91655326D01*
X117028839Y-91552440D01*
X117008603Y-91462128D01*
X116976133Y-91382445D01*
X116942616Y-91327037D01*
X116903290Y-91279515D01*
X116857928Y-91239145D01*
X116806017Y-91205491D01*
X116730485Y-91172075D01*
X116649947Y-91151903D01*
X116563179Y-91145041D01*
X116488449Y-91150155D01*
X116422243Y-91164844D01*
X116363261Y-91188507D01*
X116310449Y-91221062D01*
X116263785Y-91262186D01*
X116224593Y-91310870D01*
X116192529Y-91367973D01*
X116167689Y-91434713D01*
X116298114Y-91465488D01*
X116326653Y-91396018D01*
X116360493Y-91344319D01*
X116399231Y-91307035D01*
X116445704Y-91280099D01*
X116500591Y-91263321D01*
X116565927Y-91257393D01*
X116641151Y-91264012D01*
X116704752Y-91282775D01*
X116758940Y-91312897D01*
X116805391Y-91353986D01*
X116841501Y-91403226D01*
X116867872Y-91461824D01*
X116885306Y-91524781D01*
X116895756Y-91588917D01*
X116899257Y-91654593D01*
X116894795Y-91739435D01*
X116882122Y-91813516D01*
X116862071Y-91878258D01*
X116831875Y-91937770D01*
X116793421Y-91984777D01*
X116746300Y-92021018D01*
X116692308Y-92047336D01*
X116635903Y-92063004D01*
X116576185Y-92068279D01*
X116521239Y-92064043D01*
X116472118Y-92051795D01*
X116427837Y-92031854D01*
X116387629Y-92004043D01*
X116353505Y-91969664D01*
X116324623Y-91927301D01*
X116301005Y-91875713D01*
X116283093Y-91813290D01*
G37*
G36*
X115992933Y-92165000D02*
G01*
X115992933Y-91160673D01*
X115860370Y-91160673D01*
X115860370Y-92048740D01*
X115367183Y-92048740D01*
X115367183Y-92165000D01*
X115992933Y-92165000D01*
G37*
D13*
X108450000Y-90000000D02*
G75*
G02*
X106550000Y-90000000I-950000J0D01*
G01*
X106550000Y-90000000D02*
G75*
G02*
X108450000Y-90000000I950000J0D01*
G01*
X111950000Y-90000000D02*
G75*
G02*
X110050000Y-90000000I-950000J0D01*
G01*
X110050000Y-90000000D02*
G75*
G02*
X111950000Y-90000000I950000J0D01*
G01*
X129450000Y-90000000D02*
G75*
G02*
X127550000Y-90000000I-950000J0D01*
G01*
X127550000Y-90000000D02*
G75*
G02*
X129450000Y-90000000I950000J0D01*
G01*
X112411000Y-101228000D02*
X112411000Y-101728000D01*
X112411000Y-105528000D02*
X112411000Y-105028000D01*
X113561000Y-101228000D02*
X112411000Y-101228000D01*
X113561000Y-101228000D02*
X113561000Y-101728000D01*
X113561000Y-105528000D02*
X112411000Y-105528000D01*
X113561000Y-105528000D02*
X113561000Y-105028000D01*
X92861000Y-102028000D02*
G75*
G02*
X112821000Y-101228000I10050242J-1352544D01*
G01*
X112821000Y-105528000D02*
G75*
G02*
X92861000Y-104728000I-9909758J2152544D01*
G01*
X125950000Y-90000000D02*
G75*
G02*
X124050000Y-90000000I-950000J0D01*
G01*
X124050000Y-90000000D02*
G75*
G02*
X125950000Y-90000000I950000J0D01*
G01*
X118630000Y-125620000D02*
X118630000Y-127000000D01*
X120010000Y-125620000D02*
X118630000Y-125620000D01*
X121280000Y-125620000D02*
X121280000Y-128380000D01*
X121280000Y-125620000D02*
X123930000Y-125620000D01*
X121280000Y-128380000D02*
X123930000Y-128380000D01*
X123930000Y-125620000D02*
X123930000Y-128380000D01*
X115450000Y-90000000D02*
G75*
G02*
X113550000Y-90000000I-950000J0D01*
G01*
X113550000Y-90000000D02*
G75*
G02*
X115450000Y-90000000I950000J0D01*
G01*
X81805000Y-111760000D02*
X81805000Y-119490000D01*
X84565000Y-109110000D02*
X83185000Y-109110000D01*
X84565000Y-110490000D02*
X84565000Y-109110000D01*
X84565000Y-111760000D02*
X81805000Y-111760000D01*
X84565000Y-111760000D02*
X84565000Y-119490000D01*
X84565000Y-119490000D02*
X81805000Y-119490000D01*
X122450000Y-90000000D02*
G75*
G02*
X120550000Y-90000000I-950000J0D01*
G01*
X120550000Y-90000000D02*
G75*
G02*
X122450000Y-90000000I950000J0D01*
G01*
X118950000Y-90000000D02*
G75*
G02*
X117050000Y-90000000I-950000J0D01*
G01*
X117050000Y-90000000D02*
G75*
G02*
X118950000Y-90000000I950000J0D01*
G01*
%LPC*%
D14*
X89916000Y-118888000D03*
D15*
X89916000Y-120888000D03*
D16*
X89500000Y-59520000D03*
D17*
X89500000Y-62060000D03*
D16*
X104740000Y-87460000D03*
X104740000Y-84920000D03*
X89500000Y-87460000D03*
D17*
X89500000Y-92540000D03*
D16*
X104740000Y-90000000D03*
D17*
X104740000Y-92540000D03*
D16*
X104740000Y-82380000D03*
X89500000Y-90000000D03*
D18*
X125750000Y-83600000D03*
X117750000Y-83600000D03*
D19*
X107500000Y-90000000D03*
X111000000Y-90000000D03*
X128500000Y-90000000D03*
D20*
X113411000Y-103378000D03*
D21*
X92911000Y-103378000D03*
D19*
X125000000Y-90000000D03*
D22*
X120010000Y-127000000D03*
D23*
X122550000Y-127000000D03*
D19*
X114500000Y-90000000D03*
D22*
X83185000Y-110490000D03*
D23*
X83185000Y-113030000D03*
X83185000Y-115570000D03*
X83185000Y-118110000D03*
D19*
X121500000Y-90000000D03*
X118000000Y-90000000D03*
%LPD*%
M02*
