<?xml version="1.0" encoding="us-ascii" standalone="no"?><svg xmlns="http://www.w3.org/2000/svg" xmlns:xlink="http://www.w3.org/1999/xlink" contentStyleType="text/css" height="698px" preserveAspectRatio="none" style="width:756px;height:698px;background:#FFFFFF;" version="1.1" viewBox="0 0 756 698" width="756px" zoomAndPan="magnify"><defs/><g><rect fill="none" height="59.2656" style="stroke:#000000;stroke-width:1.5;" width="141.5" x="128" y="127.4297"/><rect fill="none" height="59.2656" style="stroke:#000000;stroke-width:1.5;" width="123.5" x="42" y="317.2266"/><rect fill="none" height="93.5625" style="stroke:#000000;stroke-width:1.5;" width="392.5" x="293.5" y="448.7578"/><line style="stroke:#181818;stroke-width:0.5;stroke-dasharray:5.0,5.0;" x1="23" x2="23" y1="81.2969" y2="617.5859"/><line style="stroke:#181818;stroke-width:0.5;stroke-dasharray:5.0,5.0;" x1="75" x2="75" y1="81.2969" y2="617.5859"/><line style="stroke:#181818;stroke-width:0.5;stroke-dasharray:5.0,5.0;" x1="160" x2="160" y1="81.2969" y2="617.5859"/><line style="stroke:#181818;stroke-width:0.5;stroke-dasharray:5.0,5.0;" x1="264.5" x2="264.5" y1="81.2969" y2="617.5859"/><line style="stroke:#181818;stroke-width:0.5;stroke-dasharray:5.0,5.0;" x1="334.5" x2="334.5" y1="81.2969" y2="617.5859"/><line style="stroke:#181818;stroke-width:0.5;stroke-dasharray:5.0,5.0;" x1="504" x2="504" y1="81.2969" y2="617.5859"/><line style="stroke:#181818;stroke-width:0.5;stroke-dasharray:5.0,5.0;" x1="611" x2="611" y1="529.6719" y2="617.5859"/><line style="stroke:#181818;stroke-width:0.5;stroke-dasharray:5.0,5.0;" x1="718" x2="718" y1="81.2969" y2="617.5859"/><text fill="#000000" font-family="sans-serif" font-size="14" lengthAdjust="spacing" textLength="31" x="5" y="77.9951">user</text><ellipse cx="23.5" cy="13.5" fill="#E2E2F0" rx="8" ry="8" style="stroke:#181818;stroke-width:0.5;"/><path d="M23.5,21.5 L23.5,48.5 M10.5,29.5 L36.5,29.5 M23.5,48.5 L10.5,63.5 M23.5,48.5 L36.5,63.5 " fill="none" style="stroke:#181818;stroke-width:0.5;"/><text fill="#000000" font-family="sans-serif" font-size="14" lengthAdjust="spacing" textLength="31" x="5" y="629.5811">user</text><ellipse cx="23.5" cy="641.3828" fill="#E2E2F0" rx="8" ry="8" style="stroke:#181818;stroke-width:0.5;"/><path d="M23.5,649.3828 L23.5,676.3828 M10.5,657.3828 L36.5,657.3828 M23.5,676.3828 L10.5,691.3828 M23.5,676.3828 L36.5,691.3828 " fill="none" style="stroke:#181818;stroke-width:0.5;"/><rect fill="#E2E2F0" height="30.2969" rx="2.5" ry="2.5" style="stroke:#181818;stroke-width:0.5;" width="47" x="52" y="50"/><text fill="#000000" font-family="sans-serif" font-size="14" lengthAdjust="spacing" textLength="33" x="59" y="69.9951">main</text><rect fill="#E2E2F0" height="30.2969" rx="2.5" ry="2.5" style="stroke:#181818;stroke-width:0.5;" width="47" x="52" y="616.5859"/><text fill="#000000" font-family="sans-serif" font-size="14" lengthAdjust="spacing" textLength="33" x="59" y="636.5811">main</text><rect fill="#E2E2F0" height="30.2969" rx="2.5" ry="2.5" style="stroke:#181818;stroke-width:0.5;" width="45" x="138" y="50"/><text fill="#000000" font-family="sans-serif" font-size="14" lengthAdjust="spacing" textLength="31" x="145" y="69.9951">pm3</text><rect fill="#E2E2F0" height="30.2969" rx="2.5" ry="2.5" style="stroke:#181818;stroke-width:0.5;" width="45" x="138" y="616.5859"/><text fill="#000000" font-family="sans-serif" font-size="14" lengthAdjust="spacing" textLength="31" x="145" y="636.5811">pm3</text><rect fill="#E2E2F0" height="30.2969" rx="2.5" ry="2.5" style="stroke:#181818;stroke-width:0.5;" width="58" x="235.5" y="50"/><text fill="#000000" font-family="sans-serif" font-size="14" lengthAdjust="spacing" textLength="44" x="242.5" y="69.9951">parser</text><rect fill="#E2E2F0" height="30.2969" rx="2.5" ry="2.5" style="stroke:#181818;stroke-width:0.5;" width="58" x="235.5" y="616.5859"/><text fill="#000000" font-family="sans-serif" font-size="14" lengthAdjust="spacing" textLength="44" x="242.5" y="636.5811">parser</text><rect fill="#E2E2F0" height="30.2969" rx="2.5" ry="2.5" style="stroke:#181818;stroke-width:0.5;" width="62" x="303.5" y="50"/><text fill="#000000" font-family="sans-serif" font-size="14" lengthAdjust="spacing" textLength="48" x="310.5" y="69.9951">idstore</text><rect fill="#E2E2F0" height="30.2969" rx="2.5" ry="2.5" style="stroke:#181818;stroke-width:0.5;" width="62" x="303.5" y="616.5859"/><text fill="#000000" font-family="sans-serif" font-size="14" lengthAdjust="spacing" textLength="48" x="310.5" y="636.5811">idstore</text><rect fill="#E2E2F0" height="30.2969" rx="2.5" ry="2.5" style="stroke:#181818;stroke-width:0.5;" width="65" x="472" y="50"/><text fill="#000000" font-family="sans-serif" font-size="14" lengthAdjust="spacing" textLength="51" x="479" y="69.9951">System</text><rect fill="#E2E2F0" height="30.2969" rx="2.5" ry="2.5" style="stroke:#181818;stroke-width:0.5;" width="65" x="472" y="616.5859"/><text fill="#000000" font-family="sans-serif" font-size="14" lengthAdjust="spacing" textLength="51" x="479" y="636.5811">System</text><rect fill="#E2E2F0" height="30.2969" style="stroke:#181818;stroke-width:0.5;" width="125" x="551" y="616.5859"/><rect fill="#E2E2F0" height="30.2969" style="stroke:#181818;stroke-width:0.5;" width="125" x="547" y="620.5859"/><text fill="#000000" font-family="sans-serif" font-size="14" lengthAdjust="spacing" textLength="111" x="554" y="640.5811">attendence_day</text><rect fill="#E2E2F0" height="30.2969" rx="2.5" ry="2.5" style="stroke:#181818;stroke-width:0.5;" width="64" x="686" y="50"/><text fill="#000000" font-family="sans-serif" font-size="14" lengthAdjust="spacing" textLength="50" x="693" y="69.9951">system</text><rect fill="#E2E2F0" height="30.2969" rx="2.5" ry="2.5" style="stroke:#181818;stroke-width:0.5;" width="64" x="686" y="616.5859"/><text fill="#000000" font-family="sans-serif" font-size="14" lengthAdjust="spacing" textLength="50" x="693" y="636.5811">system</text><polygon fill="#181818" points="148.5,108.4297,158.5,112.4297,148.5,116.4297,152.5,112.4297" style="stroke:#181818;stroke-width:1.0;"/><line style="stroke:#181818;stroke-width:1.0;" x1="75.5" x2="154.5" y1="112.4297" y2="112.4297"/><text fill="#000000" font-family="sans-serif" font-size="13" lengthAdjust="spacing" textLength="30" x="82.5" y="107.3638">start</text><path d="M128,127.4297 L205,127.4297 L205,134.5625 L195,144.5625 L128,144.5625 L128,127.4297 " fill="#EEEEEE" style="stroke:#000000;stroke-width:1.5;"/><rect fill="none" height="59.2656" style="stroke:#000000;stroke-width:1.5;" width="141.5" x="128" y="127.4297"/><text fill="#000000" font-family="sans-serif" font-size="13" font-weight="bold" lengthAdjust="spacing" textLength="32" x="143" y="140.4966">loop</text><line style="stroke:#181818;stroke-width:1.0;" x1="160.5" x2="202.5" y1="165.6953" y2="165.6953"/><line style="stroke:#181818;stroke-width:1.0;" x1="202.5" x2="202.5" y1="165.6953" y2="178.6953"/><line style="stroke:#181818;stroke-width:1.0;" x1="161.5" x2="202.5" y1="178.6953" y2="178.6953"/><polygon fill="#181818" points="171.5,174.6953,161.5,178.6953,171.5,182.6953,167.5,178.6953" style="stroke:#181818;stroke-width:1.0;"/><text fill="#000000" font-family="sans-serif" font-size="13" lengthAdjust="spacing" textLength="90" x="167.5" y="160.6294">look for HITAG</text><polygon fill="#181818" points="148.5,210.8281,158.5,214.8281,148.5,218.8281,152.5,214.8281" style="stroke:#181818;stroke-width:1.0;"/><line style="stroke:#181818;stroke-width:1.0;" x1="23.5" x2="154.5" y1="214.8281" y2="214.8281"/><text fill="#000000" font-family="sans-serif" font-size="13" lengthAdjust="spacing" textLength="75" x="30.5" y="209.7622">show HITAG</text><polygon fill="#181818" points="252.5,239.9609,262.5,243.9609,252.5,247.9609,256.5,243.9609" style="stroke:#181818;stroke-width:1.0;"/><line style="stroke:#181818;stroke-width:1.0;" x1="160.5" x2="258.5" y1="243.9609" y2="243.9609"/><text fill="#000000" font-family="sans-serif" font-size="13" lengthAdjust="spacing" textLength="53" x="167.5" y="238.895">parse ID</text><polygon fill="#181818" points="171.5,269.0938,161.5,273.0938,171.5,277.0938,167.5,273.0938" style="stroke:#181818;stroke-width:1.0;"/><line style="stroke:#181818;stroke-width:1.0;" x1="165.5" x2="263.5" y1="273.0938" y2="273.0938"/><text fill="#000000" font-family="sans-serif" font-size="13" lengthAdjust="spacing" textLength="56" x="177.5" y="268.0278">return ID</text><polygon fill="#181818" points="86.5,298.2266,76.5,302.2266,86.5,306.2266,82.5,302.2266" style="stroke:#181818;stroke-width:1.0;"/><line style="stroke:#181818;stroke-width:1.0;stroke-dasharray:2.0,2.0;" x1="80.5" x2="159.5" y1="302.2266" y2="302.2266"/><text fill="#000000" font-family="sans-serif" font-size="13" lengthAdjust="spacing" textLength="48" x="92.5" y="297.1606">send ID</text><path d="M42,317.2266 L119,317.2266 L119,324.3594 L109,334.3594 L42,334.3594 L42,317.2266 " fill="#EEEEEE" style="stroke:#000000;stroke-width:1.5;"/><rect fill="none" height="59.2656" style="stroke:#000000;stroke-width:1.5;" width="123.5" x="42" y="317.2266"/><text fill="#000000" font-family="sans-serif" font-size="13" font-weight="bold" lengthAdjust="spacing" textLength="32" x="57" y="330.2935">loop</text><line style="stroke:#181818;stroke-width:1.0;" x1="75.5" x2="117.5" y1="355.4922" y2="355.4922"/><line style="stroke:#181818;stroke-width:1.0;" x1="117.5" x2="117.5" y1="355.4922" y2="368.4922"/><line style="stroke:#181818;stroke-width:1.0;" x1="76.5" x2="117.5" y1="368.4922" y2="368.4922"/><polygon fill="#181818" points="86.5,364.4922,76.5,368.4922,86.5,372.4922,82.5,368.4922" style="stroke:#181818;stroke-width:1.0;"/><text fill="#000000" font-family="sans-serif" font-size="13" lengthAdjust="spacing" textLength="71" x="82.5" y="350.4263">look for IDs</text><polygon fill="#181818" points="322.5,400.625,332.5,404.625,322.5,408.625,326.5,404.625" style="stroke:#181818;stroke-width:1.0;"/><line style="stroke:#181818;stroke-width:1.0;" x1="75.5" x2="328.5" y1="404.625" y2="404.625"/><text fill="#000000" font-family="sans-serif" font-size="13" lengthAdjust="spacing" textLength="48" x="82.5" y="399.5591">send ID</text><polygon fill="#181818" points="492.5,429.7578,502.5,433.7578,492.5,437.7578,496.5,433.7578" style="stroke:#181818;stroke-width:1.0;"/><line style="stroke:#181818;stroke-width:1.0;" x1="334.5" x2="498.5" y1="433.7578" y2="433.7578"/><text fill="#000000" font-family="sans-serif" font-size="13" lengthAdjust="spacing" textLength="74" x="341.5" y="428.6919">ask for  day</text><path d="M293.5,448.7578 L357.5,448.7578 L357.5,455.8906 L347.5,465.8906 L293.5,465.8906 L293.5,448.7578 " fill="#EEEEEE" style="stroke:#000000;stroke-width:1.5;"/><rect fill="none" height="93.5625" style="stroke:#000000;stroke-width:1.5;" width="392.5" x="293.5" y="448.7578"/><text fill="#000000" font-family="sans-serif" font-size="13" font-weight="bold" lengthAdjust="spacing" textLength="19" x="308.5" y="461.8247">alt</text><polygon fill="#181818" points="345.5,483.0234,335.5,487.0234,345.5,491.0234,341.5,487.0234" style="stroke:#181818;stroke-width:1.0;"/><line style="stroke:#181818;stroke-width:1.0;" x1="339.5" x2="503.5" y1="487.0234" y2="487.0234"/><text fill="#000000" font-family="sans-serif" font-size="13" lengthAdjust="spacing" textLength="146" x="351.5" y="481.9575">return attendence_day</text><line style="stroke:#000000;stroke-width:1.0;stroke-dasharray:2.0,2.0;" x1="293.5" x2="686" y1="496.0234" y2="496.0234"/><polygon fill="#181818" points="535,514.1563,545,518.1563,535,522.1563,539,518.1563" style="stroke:#181818;stroke-width:1.0;"/><line style="stroke:#181818;stroke-width:1.0;" x1="334.5" x2="541" y1="518.1563" y2="518.1563"/><text fill="#000000" font-family="sans-serif" font-size="13" lengthAdjust="spacing" textLength="177" x="341.5" y="513.0903">create new attendence_day</text><rect fill="#E2E2F0" height="30.2969" style="stroke:#181818;stroke-width:0.5;" width="125" x="551" y="497.0234"/><rect fill="#E2E2F0" height="30.2969" style="stroke:#181818;stroke-width:0.5;" width="125" x="547" y="501.0234"/><text fill="#000000" font-family="sans-serif" font-size="14" lengthAdjust="spacing" textLength="111" x="554" y="521.0186">attendence_day</text><polygon fill="#181818" points="599.5,566.4531,609.5,570.4531,599.5,574.4531,603.5,570.4531" style="stroke:#181818;stroke-width:1.0;"/><line style="stroke:#181818;stroke-width:1.0;" x1="334.5" x2="605.5" y1="570.4531" y2="570.4531"/><text fill="#000000" font-family="sans-serif" font-size="13" lengthAdjust="spacing" textLength="41" x="341.5" y="565.3872">add ID</text><polygon fill="#181818" points="706,595.5859,716,599.5859,706,603.5859,710,599.5859" style="stroke:#181818;stroke-width:1.0;"/><line style="stroke:#181818;stroke-width:1.0;" x1="611.5" x2="712" y1="599.5859" y2="599.5859"/><text fill="#000000" font-family="sans-serif" font-size="13" lengthAdjust="spacing" textLength="60" x="618.5" y="594.52">save json</text><!--SRC=[VL1BQWCn3Dth5Bf0LztDeb08fBDEzqLu53g9nmwMqf3RL_vDcXIYbNa_FPcSneHduGG02yq1NzxmjBpY84f9mSTu0hJ9MAVGq2FkpVWnVhvlWSC4a3DkvkzuQIHq9wMi6Ee3nmqqP4rDhESKCbCzHfH60ufjAFXQfrTjWhNGk95QfmlcIUn2leKWTCZOtLMK5oD9gXydkW9vBKiQUvVIIfAgnN5m_9KTx8MBnIKcPNJHUtOwno2FKcppfyMzmfQqbC2NV-vwtJCpJUMl7d1JIZzMw8Vn8370Bm00]--></g></svg>